<svg id="Layer_1" xmlns="http://www.w3.org/2000/svg" viewBox="-467 345.8 343.1 111.2"><style>.st0{opacity:.2}.st1{fill:#6dcef5}</style><g id="XMLID_69421_" class="st0"><g id="XMLID_69657_"><path id="XMLID_69673_" class="st1" d="M-452.4 364.5s0 .1 0 0c.1.1.1 0 0 0z"/><path id="XMLID_69659_" class="st1" d="M-426.9 357.4c-.3-.6-.9-1.1-1.7-1.4-.4-.1-.7.1-.8.4 0 0-.1 0-.1.1-.6.6-1.3 1.2-1.9 1.8-4.2-4.3-11.5-5.1-17.1-4.2-6.7 1.1-11.6 5.5-14.2 11.6-3.7 8.7-1.5 20.2 5.6 26.1-.4.5-1.1.9-1.2 1.5 0 .3 0 .9.2 1.1.3.3.8.3 1.2.4.4.1.7 0 1.1-.2 10.7 6.5 23.2 7 31.6-3.3 7.3-8.9 6.3-24-2.8-31.3.1-.2.2-.5.3-.7 10.4 7.3 11.2 20.8 4.4 31.3-5.3 8.2-16 12.3-25.1 10.2h-.2c-3.6-.9-7-2.7-9.7-5.8-.3-.4-.9.1-.7.5 2.6 3.7 6 5.9 9.8 6.8-.6 2.9-4.2 5-5.3 7.6-1.3 3.1 2.5 4.7 5 5 3.3.4 7.6-.2 9.6-3.2.8-1.2.6-3-.2-4.1-1.4-1.8-3.3-3-4.8-4.8 8.3.1 17.2-4.5 22.1-10.6 8.4-10.7 7.3-28.2-5.1-34.8zm-2 .1c0 .2.1.4.3.5.2.1.4.2.6.4v.1c0 .6-.5 1.1-.8 1.4-.7.7-1.9 1.2-2.9 1.1.6-1.3 1.9-2.3 2.8-3.5zm-11.6-1.7c2.8.7 5.4 2 8 3.5-.4.6-.8 1.2-.9 2-.1.4.1.8.5.9 1.2.4 2.4.2 3.5-.3-.1.2-.1.4.1.7 2.9 3.9 4.3 8.4 4.2 12.9-.2-.1-.4-.1-.6.1-3 3.4-6.9 3.9-7.3 9 0 .6 0 1.2.1 1.7-4.3-1.3-8.4-3.7-12.1-6.3-.2-1.1-.8-2.1-1.5-3.2-1.1-1.6-2.4-3.9-4-5.1.3.1.6-.2.5-.6-.6-1.4 5-.7 5.3-.6 1.3.3 2.3 0 3.5-.5.6-.3 1-.9 1.2-1.5s2.6-2.6 3.4-2.5c.3 0 .6-.1.7-.4.5-1.4-.1-1.8 0-3.1 0-.3-.1-.5-.2-.8-.7-1.5.8-1.7 2.1-1.8.4 0 .5-.6.1-.7-1.1-.3-4-.5-3.5 1.6.2.9.4 1.7.6 2.6.5 2 .3 1.4-1.3 2.3-.7.4-2 1-2.4 1.7-.6.9-.4 1.4-1.8 2-1.1.4-3.5-.4-4.9-.3-1.4 0-5.4.6-3.4 2.5-.4-.2-.9.4-.5.8 1.3 1.4 2.4 3 3.4 4.5.5.7 1 1.5 1.4 2.2h-.1c-2.9-2.1-5.2-4.5-6.9-7.2.1 0 .1-.1.2-.1.5-.4.8-1.1 1-1.9.1-.6 0-1.2-.1-1.8-.1-1 .1-1.8.4-2.7.1-.2-.2-.4-.4-.2-.6.6-.8 1.4-.8 2.2 0 .9.4 3.3-.9 3.7-.9-1.5-1.6-3.1-2.1-4.8 1.2.3 2.5-1 3.4-1.8.1-.1 0-.2-.1-.1-1.6 1.4-4.3 1.4-2.1-.7.9-.8 2-1.6 3-2.4 3.3-2.6 7.6-3.3 11.3-5.5-.1.1 0 .1 0 0zm5.7 36.9c-3.8 2-8.2 2.6-12.8 1.8-.1-.1-.1-.1-.2-.1-2.1-.6-3.9-1.4-5.7-2.3 1.3-.3 2.3-1.8 2.7-2.9.3-1 .4-2.3.4-3.4v-2.4c0-.9.1-.5 1.1-.4 1.2.2 3.8.5 4.3-1.2 0-.1.1-.2.1-.4 3.7 2.5 7.8 4.9 12 6.1-.1.4-.3.9-.7 1.4-.4.5-1.4.8-1.6 1.4-.5 1.1-.2 1.7.4 2.4zm-21.2-6c-.2-3.9-.2-9.3 1.8-13 1.3 1.8 2.9 3.3 4.7 4.6 1.2.8 2.4 1.7 3.7 2.6-.3 1.7-4 1-5 .8-.3-.1-.7.1-.7.5 0 1.4 0 2.9-.1 4.3-.1 1.6-.2 3-1.7 4.1-2.4 1.9-2.7-3.2-2.7-3.9zm23.6 2.6c.2-.5.4-.9.5-1.4.8.2 1.6.3 2.4.4-1.3 1.6-2.8 2.9-4.5 4-1-1.9 1-1.7 1.6-3zm.7-2.6v-.8c-.8-5.3 3.8-6.1 6.6-9.2-.2 2.9-1 5.8-2.4 8.5-.4.7-.8 1.4-1.2 2-1-.1-2-.3-3-.5zm-17.4-31c2.4-.6 4.7-.6 6.8-.3-4.5 2.5-9.4 3.9-13.3 7.3-.2.2-.7.6-1 1.1-.3-1.2-.5-2.5-.6-3.8 2.2-2 4.9-3.5 8.1-4.3zm-11.9 28.6c-2.7-5.3-2.3-11.5-.6-17 .7-2.3 1.8-4.3 3.3-6-.2 4.1 1.2 8.2 3.6 11.7-1.4 1.7-1.8 3.8-2.1 6.1-.3 2.8-.6 6.3-.1 9.2.1.6.2 1.1.4 1.7-1.8-1.6-3.3-3.4-4.5-5.7zm5 9.3c-.3.4-.8.2-1.2 0 0-.2 0-.5.1-.7.2-.3.4-.5.5-.8l.9.6c-.1.4-.2.7-.3.9zm35.1-18.1c.5 5.7-1.6 11.3-5.1 15.8-7.8 10-19.5 7.9-29.5 3 0 0 .1 0 .1-.1.2-.2.4-.5.5-.9 2 1.1 4.3 1.9 6.9 2.1h.1c8.4 2.5 16.9-1.2 21.5-8.7 4.9-7.8 4.1-18.1-1.6-25.2-.1-.1-.3-.2-.4-.3.2-.2.4-.3.6-.5 3.7 4.6 6.4 8.9 6.9 14.8zm-28.5 37.7c-1.6-.4-3.6-1.2-2.5-3.2.1-.1.1-.2.2-.3 3.5 2.4 8.1 1.5 11.9 0v.1c0 3.9-7.2 4.1-9.6 3.4zm9.1-4.8c-3.4 1.2-7.5 2.4-10.9.7.6-.7 1.3-1.4 1.9-2.1 1.1-1.3 2.1-2.8 2.2-4.5.6.1 1.2.2 1.9.2.2 2.7 3.7 3.6 4.9 5.7z"/><path id="XMLID_69658_" class="st1" d="M-430.1 363.7c-.2-.2-.6 0-.5.3.2 1.2.7 2.1.7 3.3-.1 1.2-.7 2.5-1.9 2.7-.3-1.6 0-3.2.8-4.7.3-.5-.4-1.1-.8-.6-1.5 1.7-1.8 4.1-1.1 6.1.1.2.3.5.6.5 1.6-.2 2.6-1.2 3-2.7.4-1.3.4-3.9-.8-4.9z"/></g><g id="XMLID_69637_"><path id="XMLID_69645_" class="st1" d="M-393 420.4c-1.5-2.9-2.6-5.7-3.4-8.8-.5-2-1.6-2.9-3.6-3.3-3.1-.6-6.3 1.2-9.1 2.3-2.1.8-4.4 1.1-6.6 1.6-1.1.3-8.1 1.7-6.7 4.1-.1 0-.2.2-.2.3.5 4.2 1.7 8.3 3.1 12.3 1.4 4.1 2.8 8.7 5.2 12.3 3.2 4.8 9.3 3.2 13.6 1.3 3.2-1.4 9.3-3.7 9.6-7.9.3.2.7.2 1-.2 2.7-4.3-1.1-10.3-2.9-14zm.1 2.8c.5.9.9 1.9 1.3 2.8-.5.8-.8 1.5-1.5 2.1-.2-.4-.5-.9-.7-1.3l-.3-.6s0-.1.1-.1c.2-.5.3-1 .5-1.5s.4-.9.6-1.4zm-6-12.8c1.5 1.5 1.8 4.6 2.6 6.4.7 1.5 1.9 3.6 3.1 5.8-.1 0-.2 0-.3.1-.6.5-.9 1.4-1.1 2.2-.3-.6-.5-1.2-.8-1.8.4-.7.9-1.3 1.1-2.1.1-.4-.5-.7-.7-.3-.2.5-.5 1-.8 1.5-.3-.6-.5-1.3-.8-1.9.1-.6.4-1.2.8-1.8.3-.4-.3-.8-.7-.5-.3.2-.5.5-.6.9-.2-.5-.4-1.1-.6-1.6.2-.5.3-.9.5-1.4.3-.6-.6-1.1-.9-.5-.1.1-.1.2-.1.4l-.3-.9c.2-.7.5-1.3.8-2 .2-.5-.5-.8-.8-.5-.2.2-.4.4-.5.7-.1-.4-.2-.7-.3-1.1 0-.1-.1-.2-.2-.3.1-.5.4-.9.6-1.3zm-1.9-.6v-.2c.4 0 .7.1.9.2-.4.6-.7 1.3-1.1 1.8-.4.1-.9.1-1.3.2.7-.5 1.3-1.2 1.5-2zm-2.6.1c.5-.1 1.1-.2 1.7-.3-.3.3-.5.7-.7 1-.3.4-.7.8-1.1 1.2-.1.1-.1.2-.1.3-.6.2-1.2.4-1.9.6 1-.6 1.9-1.5 2.1-2.8 0 .1 0 .1 0 0zm-1.1.4c-.5.9-1.1 1.8-1.9 2.5-.2.1-.1.3.1.4-.6.3-1.2.5-1.8.8.7-.8 1.3-1.7 1.7-2.7v-.3c.5-.3 1.2-.5 1.9-.7zm-2.8 1l-1.8 3v.1c-.8.3-1.5.7-2.3 1 .7-1.1 1.6-2.2 2.1-3.4.7-.2 1.3-.5 2-.7zm-4.5 1.2c.4-.1.8-.2 1.2-.2h.1c-.7 1.1-1.3 2.4-1.9 3.5-.5.2-1 .3-1.5.5.8-1 1.5-2.2 2.1-3.3.1-.3.1-.4 0-.5zm-5 1.1c1.4-.4 2.8-.7 4.2-.9-.8 1.2-1.4 2.6-2.3 3.8-.6.1-1.2.2-1.8.2.8-.9 1.5-1.9 1.9-3 .1-.3-.4-.6-.6-.2-.6 1.1-1.3 2.3-2.1 3.3-.4 0-.8 0-1.2-.1.3-.6.8-1.1 1.1-1.7.2-.3-.2-.6-.5-.3-.5.6-1 1.2-1.4 1.9-.3-.1-.5-.1-.8-.2-2.9-1.1 2.5-2.5 3.5-2.8zm21.2 24.1c-3.4 2.3-7.8 4.4-11.9 4.8-6 .5-7.8-7.3-9.4-11.6-.2-.5-.3-.9-.5-1.4.5.2 1 .5 1.4.9.6.6 1.6-.4.9-.9-.4-.3-.8-.6-1.3-.8.2-.2.5-.3.6-.6.1-.2 0-.6-.3-.7-.7-.1-1.2.5-1.8.8-.2-.6-.4-1.3-.7-1.9.7-.2 1.3-.5 2-.8.4-.2.1-.8-.3-.7-.7.1-1.3.5-1.9.8l-.9-2.7c0 .1.1.1.2.1.8 0 1.6-.2 2.2-.6.3-.2.1-.6-.2-.5-.6.2-1.3.5-2 .6-.2 0-.3.2-.3.3-.6-2-1.2-3.9-1.8-5.9 3.1 2.7 10-.3 12.7-1.6 1.9-.9 3.9-1.8 5.9-2.5 1.8-.6 2.7.4 3.3 1.9v.4c0 .2.1.3.2.4.3 1.1.5 2.2.7 3.1 1.2 4 2.8 7.7 4.6 11.4 1.8 3.5 1.9 5.6-1.4 7.7zm4.5-4.4c-.3-1.5-.9-2.9-1.6-4.3.6-.4 1.2-1 1.5-1.6 0 .1.1.2.1.3v.1c-.1.8-.1 1.5-.6 2.2-.2.2.1.6.3.3.3-.3.5-.6.7-.9.3 1.3.2 2.7-.4 3.9z"/><path id="XMLID_69642_" class="st1" d="M-401.1 420.1c-3.1-2.6-8.9 2.6-11.9 3.6-.8.3-.6 1.4.1 1.5.1 3.1 1 8.4 3.7 9.4 1.6.6 3.8-.4 5.2-.9 1.6-.5 3.8-1.2 5-2.5 2.7-2.7.4-9-2.1-11.1zm1.1 9.8c-.5 1-2.8 1.7-3.7 2-1.4.5-2.9 1.1-4.4 1.2-2.2.3-3.4-5.6-3.8-8.2 2.8-.9 5.3-2.8 8.1-3.8 3.5-1 4.9 6.5 3.8 8.8z"/><path id="XMLID_69641_" class="st1" d="M-404.2 423.2c-1.2 0-2.5.9-3.5 1.3-.6.2-1.2.4-1.7.6-.2.1-.5.2-.7.2-.1 0-.2.2-.3.3-.2.1-.3.5 0 .6 1 .1 2-.3 3-.6 1.1-.4 2.9-.8 3.6-1.8.1-.3-.1-.6-.4-.6z"/><path id="XMLID_69640_" class="st1" d="M-404 426.4c-2.1.6-4 1.5-6.2 1.8-.4.1-.3.8.1.7 2.1-.3 4.5-.7 6.4-1.8.5-.2.2-.9-.3-.7z"/><path id="XMLID_69639_" class="st1" d="M-402.5 428.2c-2 .4-3.9 1.4-5.9 2-.6.2-.3 1 .2.9 2-.5 4.2-1 6-2.1.4-.3.1-.9-.3-.8z"/><path id="XMLID_69638_" class="st1" d="M-416.9 420.1c-.8.3-1.8.3-2.6.3-.2 0-.2.4 0 .4.9 0 1.9.1 2.7-.3.2-.1.1-.4-.1-.4z"/></g><g id="XMLID_69611_"><path id="XMLID_69632_" class="st1" d="M-377.6 393.6c3.4-3.7 5.4-8.5 5.4-13.6-.1-8.4-10.7-17-18.8-14.3-.2-.5-.5-1.1-.6-1.6-.1-.4-.1-.9-.2-1.3h.1c.6.1 1.2-.2 1.2-.9s-.8-1.3-1.4-.8c-.4.3-.9.4-1.4.6s-1 .5-1.6.7c-.4.2-.2.8.2.8s.8-.1 1.3-.1c0 .5.2 1 .4 1.4.2.5.5.9.8 1.4-9.1 0-14.7 10.3-15 18.3-.2 6.3 3.5 11.3 8.6 13.8-.9 1.1-1.6 2.4-2 3.8-.1.4.2.8.6.8 1.1.1 2.1-.3 2.9-1.1.6-.6 1.2-1.5 1.5-2.3 2.2.6 4.5.8 6.8.4 3.3-.5 6.4-1.8 8.9-3.8.6 1.8 1.8 3.1 3.6 3.6.3.1.7-.1.7-.4.2-1.1.1-2.1-.4-3.1-.2-.9-.8-1.9-1.6-2.3zm-21.5 7.7c.3-1 .7-2 1.3-2.9.3.1.6.3 1 .4-.7 1-1.2 2.2-2.3 2.5zm9.9-3.2c-2.2.4-4.3.3-6.2-.3-.1-.2-.4-.3-.6-.2-5.8-2-9.9-7.8-9.7-14.3.3-7.9 6.2-14.7 13.7-16.4.2.3.5.5.9.3 8.6-4 19.1 6.8 17.9 15.3-1.1 7.8-8.5 14.2-16 15.6zm9.9-2.7c-.1 0-.1-.1 0 0 .3-.4.7-.7 1-1.1.3.6.8 1.1 1.1 1.7.3.6.5 1.2.5 1.9-1.2-.3-2.1-1.2-2.6-2.5z"/><path id="XMLID_69631_" class="st1" d="M-385.5 369.1c-.9-.1-.9 1.3 0 1.4 7.6.7 11 8.4 8.3 14.9-1.2 2.9-3.4 5.3-6.1 6.9 0-.3-.2-.5-.3-.8-.2-.3-.3-.7-.3-1.1 0-.5-.8-.5-.8 0 0 .4.1.8.1 1.2.1.4.2.9.5 1.1-1.9 1-3.9 1.7-6 1.9-7.5.8-12.7-5.3-12.7-12.4 0-4.1 2.1-8.1 5.5-10.4 3.1-2.1 7-2.2 10.6-2.6.4 0 .6-.7.1-.8-8-1.4-16.3 3.5-17.4 11.8-1.1 8.5 4.2 15.7 13 15.9 7 .1 13.3-5.4 15.5-11.8 2.3-6.8-2.7-14.5-10-15.2z"/><path id="XMLID_69630_" class="st1" d="M-393 391.7c-.4.6-.6 1.3-.6 2 0 .4.7.6.8.1.1-.6.4-1.2.7-1.8.1-.5-.7-.7-.9-.3z"/><path id="XMLID_69629_" class="st1" d="M-399.4 387.5c-.3.4-.8.6-1.1.9-.4.4.2.9.6.6s.9-.5 1.2-.8c.4-.4-.3-1.2-.7-.7z"/><path id="XMLID_69628_" class="st1" d="M-400.6 381.8h-1.2c-.5 0-.5.8 0 .8h1.2c.6 0 .6-.8 0-.8z"/><path id="XMLID_69627_" class="st1" d="M-398.7 377c-.1-.1-.2-.2-.3-.2-.1-.4-.8-.3-.7.1 0 .4.3.8.6 1 .2.2.6.1.7-.2 0-.3-.2-.5-.3-.7z"/><path id="XMLID_69626_" class="st1" d="M-393 373c-.5-.3-.7-.9-.8-1.4 0-.4-.6-.4-.6 0 0 .8.2 1.8 1 2.1.4.2.8-.4.4-.7z"/><path id="XMLID_69625_" class="st1" d="M-383.3 372c-.3.1-.6.2-.8.5-.4.5.2 1 .6.6-.1.1.1 0 .1 0 .1 0 .1-.1.2-.1.8 0 .6-1.2-.1-1z"/><path id="XMLID_69624_" class="st1" d="M-379.9 376.3c-.4.3-.6.8-1.1.6-.3-.1-.5.4-.2.5.7.4 1.9.2 2-.7 0-.4-.4-.7-.7-.4z"/><path id="XMLID_69623_" class="st1" d="M-376.8 381.5c-.6-.3-1.6-.1-2 .4-.4.3.1 1 .5.7s1 0 1.5-.3c.3-.2.3-.6 0-.8z"/><path id="XMLID_69622_" class="st1" d="M-380.5 385.9c-.4 0-.6.7-.1.8.2 0 .4.2.6.3.2.2.4.4.7.4.2 0 .4-.2.4-.4 0-.7-1.1-1.1-1.6-1.1z"/><path id="XMLID_69618_" class="st1" d="M-387.3 371.6c-.1-.1-.4-.2-.5-.1-3.1 1.9-2.1 6.9-2 9.8 0 .1 0 .2.1.2l-.1.1c-.1 0-.1.1-.2.2-2.5 1-5.2 2.3-6.9 4.4-.3.3-.2.9.3 1 3.2.6 6.2-1.4 7.9-4 0 0 0-.1.1-.1.1-.1.1-.2.2-.3.1-.1.1-.2.1-.3.1-.2.1-.3.1-.5 0 0 .1-.1.1-.2.4-2 .8-3.9 1.1-5.9.2-1.3.6-3.3-.3-4.3zm-7.8 14.6c1.6-1.3 3.3-2.3 4.9-3.6.1.2.2.3.4.4-1.4 1.7-3.2 3.3-5.3 3.2zm7.2-9.8c-.2 1.5-.6 3.1-.9 4.6h-.1c.1-2.6-.5-6.4 1.3-8.5.3 1.1-.2 3.3-.3 3.9z"/><path id="XMLID_69615_" class="st1" d="M-398 365.4c-1.3-1.9-3-3.7-5.4-3.8-1.9-.1-3.5 1.2-4.5 2.6-1.8 2.4-2.5 7.7 1.8 7.7.2 0 .4-.1.5-.3 0 .1.1.2.3.2.9.1 2.2-1.5 2.8-2 1.5-1.2 2.9-2.5 4.4-3.6.1-.2.3-.5.1-.8zm-4.8 3.1c-.7.6-2.4 1.7-2.8 2.6 0-.2-.2-.3-.4-.3-3.1-.4-2.3-3.8-1-5.7.8-1.2 2-2.1 3.4-2.2 1.8-.1 3.3 1.4 4.3 2.8-1.2.8-2.4 1.8-3.5 2.8z"/><path id="XMLID_69614_" class="st1" d="M-404.6 364.8c-.2.1-.3.1-.4.2-.2-.6-1.2-.6-1.2.1.1.9-.2 1.8-.1 2.7 0 .6.9.6.9 0v-.3c.3 0 .7-.2.8-.6 0-.5.3-.7.7-1 .5-.5-.1-1.3-.7-1.1z"/><path id="XMLID_69613_" class="st1" d="M-374.8 359.9c-1.4-1.3-2.9-1.6-4.4-1.2 0-.2 0-.4-.2-.6-2.1-2.2-2.8-5-5.4-6.6-2.2-1.3-6.1-.5-8.4-.2-2.6.3-5 .8-7.2 2.2-3.1 2-2.8 5.8-5.4 7.8-.4.3.1.8.5.6 1.7-.9 2.2-2 2.9-3.8 1.3-3 4.5-4.4 7.5-5 2.8-.5 5.8-.8 8.6-.4s4 4.6 5.8 6.5c-1.2.6-2.4 1.6-3.2 2.7-.5.7.6 1.3 1.1.6 1.8-2.3 4.7-3.7 7.1-1.4 2.1 2 1.4 5-.1 7.1-1.4-1.3-2.7-2.6-4.2-3.7-.9-.7-2.8-2.1-3.8-1-.2.2.1.5.3.4.9-.5 3.3 2 3.8 2.5 1.2 1.1 2.4 2.2 3.5 3.4.3.3.7.3 1 0 2.5-2.9 3.2-7.1.2-9.9z"/><path id="XMLID_69612_" class="st1" d="M-378 363.5c-.2-.4-.3-.6-.6-.9-.2-.2-.5-.7-.9-.8h-.4v-.2c-.1-.7-.9-.8-1.2-.2-.2.5-.2 1.1-.2 1.6 0 .3.2.4.4.4.1.7 1.1.6 1.3 0 .3.3.6.5 1 .7.3.2.8-.2.6-.6z"/></g><g id="XMLID_69602_"><path id="XMLID_69604_" class="st1" d="M-130.8 366.9c-2.2-3.2-6.9-3.8-10.4-4.3h-.1c2.3-3.7-2.2-5.6-5.6-6-4-.5-10-2.2-10 3.6-1.5-.5-2.9-1-4.4-1.5-6.5-2.1-11.3 7.8-12.2 12.8-.5 2.7.7 4.2 2.6 5.1-1.1 3.4-2.4 7.9 1.1 10.2 3 2.1 6.8 2.6 10.4 3.3 4.4.9 8.9 1.5 13.4 2.1 2.4.3 5.5.9 7.6-.4 2.5-.6 4.8-1.3 7.1.2.1.1.3.1.4.1.2.5 1 .6 1.1 0 1.2-4.7 1.3-9.7 1.4-14.5 0-3.6-.3-7.5-2.4-10.7zm-22.3-9.9c1.6 0 3.2.4 4.7.7 1.4.2 2.8.4 4.1.8 2.3.7 2.2 2.2 1.6 4-.3 0-.7-.1-1-.1.9-5.4-10.8-6.2-10.9-1.9 0 .5.7.5.8.1.5-1.6 3.4-1.6 4.7-1.5 2 .1 4.1 1 3.9 3.2-2.2-.2-4.4-.4-6.6-.7-1.7-.2-3.2-.7-4.8-1.2.6-1.9 1.2-3.3 3.5-3.4zm15.3 27.5c0 1.9.1 4.4-1.2 5.9-1.1 1.3-3.7.8-5.1.7-6.4-.6-12.9-1.7-19.2-3.1-2.8-.6-6.4-1.4-7.4-4.5-.6-1.9.2-4.4.6-6.5 3.2 1 7.7.7 10.1.8.2 0 .4-.2.4-.4.3.1.6.2 1 .3-1 .5-1.8 1.3-2.1 2.4-.3 1 0 2.1.8 2.8.7.7 1.8.9 2.7.4 1.3-.7 1.8-2.4 2.1-3.7.1-.6.2-1.2.1-1.8v-.1c.4-.1.8-.1 1.2-.2 2.5-.6 1.4-3.2.4-4.6-1.5-2-3.8-1.9-5.2 0-.7 1-1.5 2.3-1.5 3.5-.1.1-.1.3 0 .5-2.1-.4-4.1-.5-6.3-.7-3.7-.3-6.8-1.7-5.3-5.9 1-3 2.8-6.1 4.8-8.6 3.1-3.8 9.8.3 13.6 1.1 5.2 1.1 13.5.3 18.6 3.2-.3.2-.5.4-.8.6-.2 0-.5.2-.6.5 0 .1 0 .1-.1.2-2.7 3-2.8 7.7-4.5 11.3-2.6 5.5-9.8-1.8-13.7-.5-.1 0-.2.2-.1.3 1.5 1.3 4.1 1.9 6 2.6 2 .7 4.6 1.7 6.7 1 2.6-.9 3.5-3.6 4.1-6.6-.1 2.9 0 6-.1 9.1zm-21-8.3c1-1.7 1.9-4.6 4-2.7.6.5 1.7 1.6 1.6 2.5-.1.8-1.1.8-1.7.8-1.4-.1-2.6-.4-3.9-.6zm2.7 1.5c-.2.4-.2 1-.3 1.4l-.3 1.2c-.2.5-.5 1.1-.8 1.5-.2.2-.2.2-.4.3h-.8c-.1 0-.2-.1-.2-.1s-.1 0-.1-.1l-.2-.2-.1-.1c0-.1-.1-.2-.1-.2l-.1-.2c0-.1-.1-.2-.1-.3v-.5c0-.1.1-.4.1-.6l.3-.6c.3-.5.9-1 1.4-1.4l.1-.1c.5.1 1.1.1 1.6 0zm25 12.7c-1.6-1.4-4-1-6-.2.9-2 .8-4.5.8-6.6 0-5.2-.1-10.2 1.2-15.3.4-.5.8-.9 1.4-1.2.1 0 .1-.1.1-.1 1.1.9 2 2.1 2.6 3.7.1.4.3.8.4 1.3-.1 0-.3.1-.3.3-1.2 4.9-1.1 10.1-1.7 15.1 0 .4.6.5.7.1.9-4.4 1.3-9 1.7-13.5.7 5.3-.7 11.1-.9 16.4z"/><path id="XMLID_69603_" class="st1" d="M-134.1 372.5c-.9 5.4-.7 10.8-1.7 16.2-.1.4.4.5.6.2 1.8-5.2 1.7-10.9 1.8-16.3 0-.4-.6-.5-.7-.1z"/></g><g id="XMLID_69584_"><path id="XMLID_69597_" class="st1" d="M-138 440.6c2.3-9.1 12.9-23.8 5.2-32.7v-.2c-.1-.3-.4-.5-.7-.6h-.3c-8.8 2-15.2 11-21.4 17.2-.1-.2-.5-.2-.5.1v.4l-.1.1-.1.1-.1-.1c-4.5-2.6-5.5 1.3-4.9 5.1 1.1 6.6 6.3 10.5 12.1 13.2 3.3 1.5 11.6 2.8 10.7-2.7.1.2.1.1.1.1zm3.7-31.5c2 9.5-4.5 19.6-6.6 28.8-1.4-.3-3.1-.3-4.1-.5-5.2-1.1-8.6-6.9-10-11.8 7.5-4.9 12.1-13.6 20.7-16.5zm-8 34.4c-5.4.4-11.6-4.2-15-8-1.7-2-4.5-11.9.6-9.2.5.2.9-.1 1-.4 0 0 .1 0 .1.1.6 4 2.7 7.4 5.7 10.1 1.3 1.2 3 2 4.6 2.6.8.3 1.7.3 2.5.4.6 0 1.3.1 1.9.3.2.1.4.2.6.2h.1c.7 2.8 0 4.1-2.1 3.9zm10-30.8c.7 3.7.2 7.2-1.1 11.3-1.6 5-4.1 9.6-5.5 14.7-.2-.2-.5-.4-.8-.5 1.8-8.4 7.3-16.8 7.4-25.5z"/><path id="XMLID_69594_" class="st1" d="M-139.7 421.4c-.9-2.2-3.6-3.7-5.7-2.4-3.1 1.2-2.8 9.4 2.6 8.6 3-.5 4.1-3.6 3.1-6.2zm-3.5 4.6c-1.7.4-2.6-1.6-2.7-3-.1-1.4.3-2.4 1.3-3.1 1.5-.3 2.7.2 3.5 1.8.9 2-.1 3.9-2.1 4.3z"/><path id="XMLID_69591_" class="st1" d="M-137.1 414.5c-.3-.1-.7-.2-1-.2-.5 0-1.3 0-1.7.3-.2.2-.3.4-.2.6-.4.5-.8 1.2-.7 1.8 0 .7.6 1 1.2 1 .6-.1 1.3-.3 1.8-.7.5-.3 1.1-.7 1.3-1.3.3-.6 0-1.3-.7-1.5zm-.8 1.4c-.1.1-.2.2-.3.2l-.1.1c-.1.1-.1.1-.2.1-.2.2-.5.3-.8.4h-.1c-.1 0-.1 0-.2.1h-.2v-.2c0-.1.1-.2.1-.3.1-.2.2-.5.3-.8h1.8s0 .1-.1.1c-.1.2-.1.2-.2.3z"/><path id="XMLID_69588_" class="st1" d="M-142.2 430.1c-1.2-1.2-2.9.1-3.4 1.3-.1.1-.2.3-.2.4-.3.5-.4 1.1-.3 1.7.4 1.8 2.9.8 3.7 0 1-.8 1.1-2.4.2-3.4zm-1.1 2.5c-.3.3-.8.6-1.3.6-.3 0-.3 0-.4-.2-.1-.2 0-.5.1-.7 0 0 .1 0 .1-.1.4-.4.7-.9 1.2-1.1.2-.1.2-.1.3-.1h.1c-.1 0 0 0 0 0 .1.1.2.4.2.7.1.3-.1.7-.3.9z"/><path id="XMLID_69585_" class="st1" d="M-148.6 427.2c-.3-1.2-1.7-1.3-2.6-1-.2.1-.3.3-.2.5-.6.7-.8 1.6-.4 2.5.4.7 1.5 1.5 2.3 1.1.5-.2.6-.9.8-1.3.2-.6.3-1.3.1-1.8zm-1.2 1.1c0 .2-.1.4-.2.6 0 .1-.1.1-.1.2h-.1c-.2-.1-.4-.3-.5-.4-.4-.6-.2-1.1.1-1.6.4 0 .8.1.9.5 0 .1-.1.5-.1.7z"/></g><g id="XMLID_69573_"><path id="XMLID_69574_" class="st1" d="M-335 356.5c-4.5-6.4-17.6-10.1-23.5-3.7-8.4 4.8-12.7 15.6-5.8 23.8 6.6 7.9 17 8.9 24.8 2.3 6.5-5.4 9.5-15.3 4.5-22.4zm-15.5-5.6c3.8-.2 7.9 1.2 11.1 3.4-4-.7-8.2.2-11.9 2.1-.8-1.6 0-3.7.8-5.5zm-7.9 3c.2.2.6.2.9-.1 1.6-1.6 3.6-2.5 5.7-2.8-1.3 2.1-1.7 4.3-.8 6.1-1.5.9-3 2-4.3 3.2-.6-2-1.1-4.2-1.5-6.4 0 .1 0 .1 0 0zm-.8.8c.2 2.2.7 4.4 1.5 6.6l-2.1 2.4c-1.2-1.1-2.9-1.6-5.5-1.3 1.1-3.2 3.6-5.5 6.1-7.7zm-6.3 8.5h.2c2.4-.1 3.9.4 4.9 1.5-2 3-3.2 6.4-3.3 9.8-2.3-3.3-2.9-7.4-1.8-11.3zm2.5 12.4c.1-.1.2-.2.2-.3.5-3 1.7-6 3.4-8.7.5 1.3.6 2.9.6 4.7.1 2.8 0 5.7.7 8.4-1.2-.7-2.4-1.6-3.6-2.6-.4-.5-.9-1-1.3-1.5zm6.8 5c-1.5-4.2-.4-11.3-2.4-15.3.5-.7 1-1.5 1.6-2.2 2.8 6.9 8.1 12.9 15.2 15.7-4.4 3.2-9.7 3.7-14.4 1.8zm16.3-3.5c-.3.3-.6.6-.9.8-4.5-2.6-8.5-5.1-11.8-9.3-1.5-2-2.6-4.2-3.5-6.5 1.3-1.5 2.9-2.8 4.5-3.8.5.5 1.1 1 1.9 1.4 5 2.7 11.7 2.6 14.9 8 .1.1.2.2.3.2-.9 3.6-3 6.8-5.4 9.2zm-3.5-16.5c-2.2-.7-4.4-1.3-6.4-2.5-.2-.1-.4-.3-.6-.4 3.7-2.1 8.1-2.8 12.6-1.5.2.1.3 0 .5 0 .6.6 1.1 1.2 1.5 1.9 1.8 2.7 2.2 5.8 1.6 8.8-1.7-3.8-5.7-5.2-9.2-6.3z"/></g><g id="XMLID_69562_"><path id="XMLID_69563_" class="st1" d="M-189.2 378.3c0-.8-1-.8-1.2-.2h-.1c.3-.5.2-1.4-.5-1.6-4.7-1.6-9.6-2.8-14.3-4.4-2.5-.9-4.9-2-7.2-3.4-1.2-.7-2.2-2.1-3.6-2.1-1.3 0-3.6 2.1-4.8 2.8-2.8 1.6-5.9 2.8-9 3.9-4.8 1.8-9.6 3.4-13.9 6.1-.6.4-.1 1.3.6 1 4.9-2.1 10.1-3.7 15.1-5.6 2-.8 4-1.6 6-2.5.9-.4 5.9-3.9 6.6-3.4 6.8 5.3 15.9 7.1 23.9 9.7.1 0 .2 0 .2.1-5.6 3-10.7 6.9-16.5 9.7-3.4 1.6-7.9 2.5-10.6 5-.1.1-.1.1-.1.2l-.1-.1c-5-2.4-10.1-4.4-15.1-6.7.4-.3.7-.6 1.2-1 2.7-1.9 5.7-3.6 8.8-5 1.3-.5 2.6-1 3.5-1.4 1.2-.5.7-2.3-.5-1.9-5 1.4-10 3.7-14.1 6.9-.5.4-.9.8-1.3 1.2-2.6-1.3-5.2-2.7-7.7-4.4 0-.1-.1-.3-.2-.4-.1-.1-.2-.2-.4-.2-.1 0-.2 0-.3.1-.2 0-.4.2-.3.4-.4 1.1-.4 2.3-.6 3.4-.1.4.3.6.6.5 2.2 1.4 4.3 2.9 6.5 4.5-.8 2.3-.8 4.8-.7 7.8 0 .3.1.5.2.7-.5.4-.8.9-.8 1.6 0 .9.6 1.7 1.3 2.2-.7 1.5-1.3 3.1-2.2 4.6-.5.8.7 1.4 1.2.7.1-.2.2-.4.4-.6 0 .2-.1.4-.1.6-.1.7.8 1.2 1.3.5.3-.5.6-1 .8-1.6.1.4.2.7.3 1.1.2.6 1.1.6 1.3.1.4.2.9 0 .9-.5-.2-1.5-.6-3.1-.8-4.6-.1-.3-.3-.4-.5-.5.6-.4 1-1 1.3-1.6.4-1.2-.7-2.9-2-3v-.2c1-1.5 1-3.5 1.1-5.4 1.3.9 2.7 1.8 4.1 2.6-.1 0-.2.1-.2.3-.2.9-.5 3.1-.7 3.7-.1.2 0 .7.2.8 6.3 5.2 15.4 5.1 23.1 3.5 3.5-.7 7.1-1.5 9.9-3.7 1.9-1.4 2-6 1.8-8.1 0-.3-.1-.5-.3-.6 4.3-2.6 8.7-6 8.5-11.6zm-55.6 6.2c.3-.8.5-1.7.8-2.5 2.2 1.7 4.5 3.2 7 4.5-.4.5-.7 1-1 1.6-2.2-1.4-4.4-2.7-6.8-3.6zm8.5 14.9c-.2.6-.9 1.1-1.5 1-.4-.1-.6-.6-.7-.9-.1-.6.7-1.1 1.1-1.3.1-.1.2-.2.2-.3 0 0 0-.1.1-.1.4.4 1 .8.8 1.6zm.6-9.8c.1-.4.2-.9.4-1.3.1-.2.3-.4.5-.6 4.9 2.4 10.1 4.3 14.9 6.7-1.1 2 .1 2.3-3.2 1.7-2.9-.6-5.6-2-8.1-3.5-1.6-1-3.1-2-4.5-3zm25.6 10.6c-5.5 1.2-21.8 3.2-21.2-5.9v-.1c3.6 2 7.3 3.5 11.4 3.8.3 0 .5-.2.7-.4 1.8.7 5.2-.5 8.2-1.8 0 0 0 .1-.1.1-.3 1-.4 1.8-.4 2.8 0 .4.7.6.8.2.3.3 1 .2 1.2-.3 0-.1.1-.1.1-.2.3.2.8.1 1-.2.1-.2.3-.5.4-.7v.1c.1.7 1 1.1 1.4.4.1-.2.3-.4.4-.6 0 .2 0 .4-.1.6-.2 1 1.3 1.5 1.6.4 0-.1.1-.3.1-.4.3.2.8.2 1.1 0 .2.2.6.3.9.2-2.3 1.1-5.8 1.6-7.5 2zm10-8.9c-.1-.2-.3-.3-.6-.3.3-.1.5-.2.8-.4 0 .2-.1.5-.2.7zm-1.6.3c-.1.3-.1.5-.2.8-.3 0-.6.3-.7.6-.3 0-.6.1-.8.5-.1.1-.1.2-.2.4-.4-.6-1.4-.6-1.6.2 0 .1-.1.2-.1.4-.3-.1-.7 0-.9.3-.2.3-.4.5-.6.7v-.3c-.1-.7-1-1-1.3-.4-.2.4-.4.7-.6 1.1-.3-.4-.9-.5-1.2 0-.1-.2-.3-.4-.5-.4 2.1-.9 3.9-1.9 4.7-2.2 1.2-.5 2.6-1.1 4-1.7 0-.1 0 0 0 0zm-.5 6.3c.1-.1.2-.2.2-.4s.1-.3.2-.5c.4.1.9-.1 1-.7.1-.3.1-.6.2-1l.1-.1v-.1c0 .2-.1.5-.1.7-.1.9-.7 1.5-1.6 2.1zm-3.5-6.5c-2.2.9-4.4 1.9-6.7 2.7-1.5.6-4.4 2.1-6.5 2.2.2-.5.3-1.1.4-1.6v-.5c.2.2.5.3.8.1 3.3-2.2 7.4-3.3 11.1-5 5.1-2.4 11.7-5.5 15.8-9.6-1.4 6.8-9.1 9.2-14.9 11.7z"/></g><g id="XMLID_69553_"><path id="XMLID_69559_" class="st1" d="M-200.6 350.7c-.3-.5-1.2-.4-1.3.2-.7 4.1-1.2 8.3-1.9 12.4-.1.7.9 1 1 .3.4-1.5.7-3 1-4.6h1.7c.1 1.3.3 2.6.5 4 .1.6 1.1.6 1.2 0 .8-3.8-.4-8.9-2.2-12.3zm-.1 7.1h-.8c.2-1.3.5-2.6.7-4 .4 1.3.6 2.6.8 3.9-.3.1-.5.1-.7.1z"/><path id="XMLID_69555_" class="st1" d="M-192.9 354c2.2-2.2-.8-6.1-3.9-3.6l-.1.1c-.2.1-.3.3-.3.5.2 3.9 1.3 7.6 1.4 11.5 0 .3.4.5.7.5h.1c5.6.6 6.3-6.9 2.1-9zm-2-.5c-.2 0-.3.1-.4.3-.2-1-.3-1.9-.4-2.8 2.2-.7 3.5 1.9.8 2.5zm.2 7.9c.1-2.2-.1-4.4-.5-6.6.1.1.3.2.5.2 1.9.2 3.1 1.5 3.2 3.4.2 2.1-1.4 3-3.2 3z"/><path id="XMLID_69554_" class="st1" d="M-180.2 355.6c-.2-.5-1-.8-1.2-.2-.5 1-.1 2.6-1.5 3-1.1.3-2.2-.7-2.7-1.5-.9-1.3-.8-3.1-.4-4.6.2-.8.7-1.6 1.3-2.1 1-.7 2.1.3 2.7 1 .3.3.8-.1.6-.5-1.2-1.9-3.4-2.9-5-.8-1.5 1.9-1.9 4.8-.9 7 .7 1.6 2.4 3.1 4.3 2.9 1.9 0 3.5-2.5 2.8-4.2z"/></g><g id="XMLID_69545_"><path id="XMLID_69548_" class="st1" d="M-165.2 410.7c.7-4.3.8-9.1.1-13.4-.1-.6-.9-.8-1.3-.5-.1.1-.2.1-.3.2-.1-.2-.3-.3-.5-.3-3.8-1-7.2-3.3-11.2-3.5-3.6-.2-7.7 2.9-10.6 4.6-.3.2-.3.5-.2.8l-.1.1c-.4.1-.7.4-.7.8-.1 4.1.3 8-.1 12.1-.1.6.7.8 1.1.5 3 2.8 7.1 6.3 11.3 6.6 4.4.4 8.8-3.8 12.1-6.4.5-.4.5-.9.3-1.3 0-.2.1-.2.1-.3zm-12.5-2.6c.2.4.6.7 1 1 .3.2.6.4.9.5-.2 2.5-.9 5.1-.4 6.7 0 0 0 .1.1.1-.3.1-.5.1-.8.1-3.2.3-7.4-2.9-10.5-5l.6-.3c.5-.2 1.1.1 1.4-.3.2-.2.2-.5 0-.8-.5-.5-1.4-.2-1.9.1-.4.2-.7.5-.9.8-.1-.1-.2-.1-.3-.2.9-3.6.5-7.4.4-11.1 2.9 1.5 6.1 2.3 9 3.6 0 0-.1 0-.1.1-.2.4-.1.8-.1 1.2 0 .5.1.9.1 1.4s.7.5.8 0c0-.4.1-.8.1-1.3 0-.3.1-.7 0-1l.6.3c1.4.8 1.8 2.3 1.8 4.1-.4-.1-.8-.2-1.1-.6-.1-.5-.9 0-.7.6zm-.4-6.3c.1-.4.1-.8.2-1.1.1-.5.3-1.1 0-1.5-.3-.4-.7-.5-1.1-.1-.4.3-.3 1-.4 1.5 0 .3-.1.6-.1.9-.1-.1-.3-.1-.4-.2-2.7-1-5.5-1.5-8.1-2.7 2.9-1 5.6-2.9 8.6-3.4 0 .5.1 1.1.1 1.6.1.6.9.6.9 0 .1-.5.2-1.2.1-1.7 3.2-.1 6.2 2.5 9.3 3.3-2.3 1.5-4.6 3.1-6.7 5-.4-.8-1.4-1.3-2.4-1.6zm3.4 2.6c2.7-1.6 5.6-3.1 8.1-5.1.3 3.6-.5 7.2-.2 10.8h-.4c-.2 0-.4.2-.6.4-.1.2-.1.4 0 .6-2.4 1.2-4.3 3.6-6.7 4.8.6-1.8.5-4.1.5-5.8.1-1.9 0-3.9-.7-5.7z"/><path id="XMLID_69547_" class="st1" d="M-180.9 408c-.4-.2-.8.1-1.2.3-.4.2-.8.3-1.2.4-.5.1-.4.9.1.9s.9 0 1.4-.1 1-.2 1.2-.8c.1-.4 0-.6-.3-.7z"/><path id="XMLID_69546_" class="st1" d="M-171 409.2c-.6.1-.6.8 0 .9.2 0 .3.1.5.1.3.1.4.3.7.3.4 0 .6-.4.5-.7-.2-.7-1.2-.7-1.7-.6z"/></g><g id="XMLID_69539_"><path id="XMLID_69542_" class="st1" d="M-356.6 448.9c-4.2-3.9-9.1-6.9-14-9.9-2.4-1.5-4.9-3.1-7.3-4.7-2.3-1.6-4.3-3.8-6.7-5.2h-.1c-.1-.2-.2-.5-.5-.5h-.3c-.3 0-.5.4-.5.6-.1.9 0 1.9.3 2.8-.2.1-.4.3-.2.6 7.8 8.2 18.3 12.8 27.4 19.3.2.1.6 0 .7-.2.5-1 .5-.9.6-1.9.5.2 1.1-.5.6-.9zm-1.4.6c-.4 1.8-5.6-2.4-6.5-3-2.3-1.5-4.6-2.9-6.9-4.3-4.6-2.9-9.2-5.9-13.3-9.5.1-.9.1-1.9.1-2.9 2.2 3.8 7.8 6.6 11.3 8.8 5.3 3.4 10.7 6.6 15.4 10.6 0 .1-.1.2-.1.3z"/><path id="XMLID_69541_" class="st1" d="M-336.5 399.1c.1-.6-.5-1.3-1.2-.9-8.2 4.5-16.1 9.5-24.1 14.2-5 3-10 5.9-14.9 9-2.7 1.7-5.6 3.3-7.8 5.5-.2.2-.3.6-.1.8.1.1.1.2.2.2h.1c.2.1.5 0 .7-.1.1-.1.2-.1.2-.2.2.4.6.7 1.1.8.4.1.7-.5.3-.8-.3-.1-.6-.3-.7-.6.6-.4 1.1-.8 1.7-1.3.6.5.8 1.3 1.3 1.9.3.3.7 0 .6-.4-.1-.5-.4-.8-.7-1.2-.2-.3-.5-.5-.8-.6l2.1-1.5c.3.4.6.8 1 1s.7-.2.6-.6c-.2-.4-.5-.6-.8-.9.6-.4 1.1-.7 1.7-1.1.3.4.7.8 1.1 1.2.3.3.9.3.9-.3 0-.4-.5-.7-.7-.9-.2-.1-.3-.1-.5-.1-.1-.1-.2-.2-.4-.2.6-.4 1.3-.8 1.9-1.2.5.4.6 1 1 1.5.3.4.8 0 .7-.4-.1-.6-.6-1.1-1.1-1.5.4-.3.8-.5 1.3-.7 0 0 0 .1.1.1.4.5.8 1 1.3 1.3.3.2.8-.2.5-.5-.4-.5-.9-.9-1.3-1.3.7-.4 1.5-.9 2.2-1.3v.1c.1.2.2.6.5.7.2.1.5.1.6-.2.1-.2.1-.4 0-.6-.1-.3-.3-.4-.5-.3l-.1-.1c.7-.4 1.4-.8 2-1.2.1 0 .1 0 .2.1.3.2.5.5.8.6.4 0 .6-.2.5-.5 0-.3-.3-.5-.5-.7l1.5-.9c.5.3 1.1.6 1.7.7.5.1.6-.7.3-.9-.3-.2-.5-.3-.8-.4.6-.3 1.2-.7 1.8-1 .1.1.3.2.4.3.4.3.9.7 1.5.7.4 0 .6-.4.4-.7-.2-.5-.8-.7-1.2-1h-.1c.6-.4 1.3-.8 1.9-1.1l.2.2c.3.3.6.6 1 .8.4.2.8-.2.6-.6-.2-.4-.5-.6-.9-.8l1.5-.9c.5.5 1 1.1 1.7 1.2.5.1.8-.4.5-.8-.3-.3-.6-.5-1-.7-.1-.1-.2-.1-.3-.2.5-.3 1.1-.6 1.6-.9 0 .2.3.3.4.1l.1.1c.1.2.2.5.4.7.2.2.4.3.7.3.3-.1.5-.4.4-.7-.1-.4-.5-.8-.8-1 .8-.4 1.6-.9 2.3-1.3.1.7.9 1.2 1.5.9.3-.1.5-.7.1-.9-.2-.1-.7-.1-.7-.3 0-.1 0-.1-.1-.2l2.1-1.2c.5.5 1.1.8 1.5.3.1-.2.2-.3.1-.5 0 .1 0 .1 0 0s-.1-.2-.2-.3c-.1-.1-.2-.1-.3-.2.4-.2.7-.4 1.1-.6 0 .1.1.2.1.2.3.4.6.9 1.1 1.1.4.2.8-.2.6-.6-.2-.5-.7-.8-1.1-1.1h-.1l1.5-.9c.7-.2 1.1.6 1.7.8.3.1.6-.2.5-.5-.2-.5-.6-.8-1-.9 1.2-.7 2.5-1.4 3.7-2.2-4.4 9.4-6.5 19.7-10.7 29.2-1.9 4.4-4.9 8.6-6.3 13.2-.4 1.4-1 2.7-1.6 4-.2.6-.4 1.1-.6 1.7-.1.3 0 .3.2.2 0 0-.1 0-.1.1-.2.2 0 .5.2.5 1.4 0 2.3-3.1 2.7-4l5.7-12.3c5-10.4 7.2-21.9 11.9-32.4.4-.6.1-1-.3-1.1z"/><path id="XMLID_69540_" class="st1" d="M-345 411c0-.1.1-.2.1-.3.1-.4 0-.6-.3-.8.2-.5-.2-1.2-1-1.1-5.1.7-8.8 4.6-12.8 7.4-5.6 4-11.5 7.5-17 11.5-.4.3-.1 1 .4.7 5.3-2.7 10.3-6 15.3-9.2 4.5-3 8.6-7.1 13.9-8.6-.1.2-.1.4-.2.5-9.3 5.2-18.6 11-27 17.5-.4.3.1 1 .6.7 8.7-5.2 16.8-11.2 25.6-16.1-3.7 9.4-9.6 17.8-12.6 27.4 0-.1-.1-.2-.1-.3-2.3-2.9-6.1-5.3-9-7.6-1.3-1.1-4.8-4.7-6.7-3.9-.2.1-.3.2-.2.4.2.9 1.1 1.1 1.8 1.6 1.6 1.1 3.1 2.4 4.6 3.6 2.7 2.2 5.5 5.6 8.7 7 .5.2.9 0 1-.4.1.2.4.2.5 0 4.6-9.6 10.5-18.8 14.1-28.9.1 0 .1-.1.2-.1.4-.1.4-.6.1-1z"/></g><path id="XMLID_69536_" class="st1" d="M-165.9 443.4c-.2-1.3-.6-2.6-1.4-3.7-.3-.4-1.1-.6-1.3 0-.6 1.5-1 3.1-1 4.7-2.9.4-5.5 2.8-5.2 6 .3 4 5.1 4.4 8.1 3.8 3.4-.7 6.6-3.4 6.8-7 .2-3.5-3.3-4.2-6-3.8zm-.8 9.1c-2.2.7-6.3.8-6.5-2.4-.1-2.2 1.8-3.8 3.7-4.6.1 1.4.3 2.8.8 4.1.2.6 1.2.5 1.1-.2-.1-2.4-.3-4.8 0-7.1.1.5.2 1 .3 1.4-.4.4-.3 1.1.1 1.4.1 1.2 0 2.5 0 3.7 0 1 1.5 1 1.5 0 0-1.2.1-2.5 0-3.8 1.9-.4 4.2-.2 4 2.3-.2 2.7-2.9 4.5-5 5.2z"/><g id="XMLID_69531_"><path id="XMLID_69532_" class="st1" d="M-219 357.3c-.3-2.2-2.4-3.3-4.4-3-.1 0-.2.2-.3.3-.1.2-.1.5-.1.7-1.6-.7-2.3 1.9-2.2 3 0 1 .4 1.9.9 2.5-.6.5-1.4 1-2.2 1.2-.2.1-.3.3-.3.5-.2 0-.4.2-.4.4-.2.9-.6 1.7-1.7 1.8-.5 0-1-.2-1.4-.4-.1-.3-.3-.5-.7-.5l-.3-.3c-1.7-1.9.2-4.9 2.4-4.5-.1.1-.1.2-.1.3-.5.3-1 .7-1.2 1.4-.3 1 0 2.3 1 2.7.3.1.7-.2.7-.5-.1-.6-.5-1.1-.5-1.7 0-.4.2-.9.5-1.2h.2c.4-.2.8-.3 1.2-.4.5-.1 1.1-.2 1.5-.6.3-.4.2-.9-.3-1.1-.6-.1-1 .2-1.6.4l-.6.3c-1.2-.9-2.7-.5-3.8.5-1.1 1-1.4 2.4-1.1 3.7-2.3.9-4.8 1.4-6.7 3-.6.5-.1 1.7.7 1.6 2.8-.3 5.6-.8 8.2-1.9 0 0 .1 0 .1-.1 1.9 1 4.4.5 4.7-2.2v-.1c1 0 2-.4 2.8-1.1.1 0 .1-.1.1-.2.6.2 1.2.3 1.9.2 2.1-.6 3.3-2.6 3-4.7zm-14.4 6c0 .1.1.2.1.2.1.1.1.2.2.3-.8.2-1.5.4-2.3.6.7-.3 1.3-.6 2-1.1zm12.5-3.7c-1.1 1.3-3.2 1-3.7-.6-.2-.6-.4-3.2.7-3.2h.1c0 1.6.9 3 2.8 3.3.4.1.7-.5.3-.7-1.3-.6-2.3-1.2-2.3-2.8 0-1.3 1.6-.6 2.2-.1.9 1.1.7 3.1-.1 4.1z"/></g><g id="XMLID_69518_"><path id="XMLID_69519_" class="st1" d="M-270.9 387.3c-.8-1.2-1.2-2.5-1.8-3.8.1-.2.2-.4.3-.7 1.6-5-3.5-10.6-6.1-14.3-4.4-6.2-5.5-14-10.1-20-.2-.2-.4-.2-.5-.1-.2-.1-.4-.2-.6-.1-4.8 1.6-9.7 2.7-14.5 4.1-5.4 1.5-10.5 3.8-16.1 4.7-.1 0-.1 0-.2.1-.2 0-.5.2-.4.5.1.2.1.3.2.5-.1 0-.1.1-.2.1-1.8.8-2.9 2.9-2.3 4.8.1.4.6.6.9.5-.1 0-.2.1-.1.3l.6 1.5c-.2.5-.4 1-.4 1.5-.1.7.9 1.3 1.3.5.4 1 .9 1.9 1.4 2.8 0 .3.1.6.2.9s.4.5.6.5c.4.8.9 1.5 1.4 2.3-.1.5-.2.9-.2 1.4 0 .8 1 .9 1.4.4.5.8 1 1.6 1.6 2.3 0 .5 0 1 .2 1.6.1.5.8.6 1 .2.4.6.8 1.1 1.2 1.7.1.2.3.4.4.6 0 .4 0 .9.2 1.4.1.5.7.7 1.1.5.5.7.9 1.5 1.3 2.2v.1c0 .5.5 1.8 1.1 1.7 1.8 3 3.8 5.9 6.7 8.1.2.2.5.1.7-.1.1.1.2.1.3.1 4.8-.9 9.7-1.4 14.5-2.4 5.1-1.2 9.8-3.7 14.8-5.2.1-.3.3-.8.1-1.2zm-50.7-22.6c-.1-.3-.3-.7-.4-1 0-.1-.2-.2-.3-.1.2-.1.4-.2.5-.5.3-1.3.6-2.3 1.9-2.9.3.6.5 1.3.8 1.9-1.1.6-1.9 1.6-2.5 2.6zm2.1 4.1c-.4-.7-.8-1.4-1.1-2.1.6-1.1 1.5-2 2.5-2.5.3.6.5 1.1.8 1.6-1.2.8-2 1.9-2.2 3zm2.4 4.1c-.3-.5-.7-1-1-1.5.1-.1.1-.2.1-.3.2-1.2.4-2.3 1.5-3 0 0 .1 0 .1-.1.4.8.8 1.6 1.3 2.4-.9.7-1.5 1.5-2 2.5zm2.6 3.8c-.5-.7-.9-1.3-1.4-2 .5-.9 1.1-1.7 1.8-2.4.4.7.8 1.3 1.2 2-.7.7-1.3 1.5-1.6 2.4zm2.8 4l-1.5-2.1c.3-1 .8-1.8 1.4-2.4.5.8 1 1.6 1.6 2.5-.6.5-1.2 1.2-1.5 2zm2.7 4.2c-.4-.6-.8-1.3-1.2-1.9.2-1 .6-1.8 1.3-2.4.5.8 1 1.5 1.6 2.2l-.2.2c-.6.4-1.1 1.1-1.5 1.9zm3.8 1.9c-.6.9-.9 1.9-.8 2.9-.6-.8-1.1-1.7-1.6-2.5.1-.2.2-.5.3-.8.4-.7.9-1.2 1.4-1.8.4.5.8 1 1.2 1.4-.1.3-.3.6-.5.8zm3.6 3.5c-.1 1.4-.2 2.8-.2 4.2-.3-.3-.6-.6-1-.9.1-.3.1-.6-.1-.9-1.1-1.4-1.1-2.9-.3-4.4.1-.1.2-.2.2-.3.6.6 1.3 1.2 1.9 1.8-.2-.1-.5.1-.5.5zm.1-3.3s.1 0 0 0c.9-.3 1.7.3 2.5-.1.7-.2 1.1-1 .7-1.6-.7-1.3-2.6-1.2-3.8-.9-.4.1-.7.2-1.1.4-.3-.4-.7-.8-1-1.2.2-.1.4-.2.6-.2 1-.3 1.6.3 2.5.3s1.3-.9.9-1.6c-.6-1.2-2.4-1.4-3.6-1.2-.8.1-1.4.4-2.1.8-.5-.7-1.1-1.3-1.6-2 1-.3 2.1-.2 3.1.1 1.4.5 2.1-1.8.6-2.3-1.6-.6-3.5-.4-5.1.3-.6-.8-1.2-1.6-1.7-2.4.8-.2 1.7-.2 2.7.3 1.3.6 2.3-1.1 1.1-1.9-1.6-1.1-3.5-1-5-.2-.4-.7-.8-1.3-1.2-2 .6-.2 1.2-.2 1.9 0 1 .3 1.8-1 1-1.8-1.1-1.1-2.8-.8-4-.1l-1.2-2.1c.6-.1 1.1-.1 1.7.1 1.5.4 2.1-1.8.6-2.3-1.1-.4-2.4-.3-3.5.1-.2-.5-.5-.9-.7-1.4.5-.1 1.1 0 1.8.1 1.5.4 2-1.7.6-2.3-1.2-.5-2.4-.5-3.5-.1-.3-.6-.5-1.1-.8-1.7 1-.1 2 .2 3.1.2s1.5-1.5.6-2.1c-.3-.2-.7-.3-1.1-.4 3.8-.7 7.5-2.1 11.2-3.3 5.2-1.7 10.9-2.3 15.9-4.7.1 0 .1-.1.2-.1 2.2 4.8 3.5 9.9 5.8 14.6 2.5 5.2 6.8 9.2 9 14.7 2.3 5.7-4.7 6.7-8.6 7.3-5.5.8-10.9 3.6-16.5 3.6h-.2c-.4-1.1-1.1-2-1.8-2.9zm16.4 5c-5.1 1.6-10.5 1.8-15.6 3.2.1-1.6.3-3.2.3-4.9v-.2c.1.1.2.2.4.3-.1.5.2 1 .8 1 6 .1 11.9-3 17.8-3.9 2.3-.4 5.9-.9 7.8-2.8.2.9.6 1.7 1.1 2.5-4.3 1.5-8.3 3.5-12.6 4.8z"/></g><g id="XMLID_69504_"><path id="XMLID_69508_" class="st1" d="M-239.3 434.7c-1.5-2.4-4.2-2.6-6.7-1.8-.2-1.4-.8-2.9-1.7-4.3-5.4-7.9-21.4-5.8-24.8 2.6-.9-.8-2.2-1.5-3.2-1.4-2.1.3-1.2.9-2.4 1.9-.6.5 0 1.4.7 1.2-.9.3-.6-.2-1 .9-.1.2-.2.5-.2.7-1.1.1-2.2.4-3.3.6-.6.1-.6 1-.2 1.3.7.4 1.2 1.2 1.7 1.8-.6.3-1.1.7-1.7 1-.4.2-.4.7-.3 1.1 1.1 2.7 3 4.5 5.8 4.8.3 2.8 3.3 3.9 5.5 1.7.1-.1.1-.2.1-.2 1.4 2.5 2.7 5 4 7.6.2.4.7.3 1 .1 1.9.4 3.6-.4 5-1.9.8-.8 1.4-1.8 2.1-2.8 0-.1.1-.1.2-.2 2.9 1.1 6.3 1.3 9.3.7 2.6-.5 5.2-3.4 3.1-5.9 1.4-.3 2.9-.1 4.1-.9s.9-2.5.4-3.7c1.9-.8 3.8-2.7 2.5-4.9zm-10.3-6c2 2 2.7 5.3 1.9 8-.9 3.1-5 4.2-7.7 4.5-5.2.7-12.2-.2-16.5-3.5.1-.1.2-.2.1-.4-1.4-11.4 14.9-15.9 22.2-8.6zm-6 14c-1.6 4-6.8 1.7-10.1.7-1.1-.4-2.4-.8-3.6-.9h-1.4c-.5.1-1.1.2-1.6.4-1.6-1.7-1.7-3.1-.6-3.9 4.7 3.4 11.5 4.3 17.3 3.7zm-20.1.9h-.1c-2.5 0-3.9-1.4-4.9-3.4.6-.4 1.1-.8 1.7-1.1.4-.2.4-.7.1-1.1-.5-.6-.9-1.2-1.4-1.8h.1c.8-.2 1.8 0 1.4-.6.3.6 1 .3 1.2-.2.3-.8 1-2.1.9-3.1.2-.3.4-.6.4-1s2 .7 3.3 1.4c-.3 1.4-.3 2.9.2 4.5-.6 0-1 .6-.7 1.1-2.4.6-3.3 3.1-2.2 5.3zm4.1 2.4c-1.4 1.1-2.5.6-3.3-1.5.5.4 1.2.5 1.8.4.4-.1.8-.1 1.2-.2.3.4.5.9.8 1.3-.3-.1-.4-.1-.5 0zm5.3 6.7c-1.5-2.8-3.2-5.5-4.9-8.2.2 0 .4-.1.6-.1.4.6 1 1.2 1.8 1.1.6-.1 1.1-.5 1.3-1h.1c1.2.4 4.2 1.4 7 1.8-2.5 1.6-4.2 4-5.9 6.4zm.9.9c1.9-2.4 3.6-4.8 6.1-6.6.2-.1.3-.3.3-.5h.5c-.9.9-1.6 2.5-2.3 3.4-1.1 1.7-2.6 3.5-4.6 3.7zm17-5.9c-1 .7-2.4.8-3.5.9-2.1.2-4.1 0-6.2-.2.4-.6.9-1.2 1.1-1.9v-.2c1.4-.2 2.4-.8 2.7-2 .5 1.4 1.3 2.8 3 2.7 1.4-.1 2.4-1.5 3.6-2.3 0 1.2.5 2.2-.7 3zm5.4-9.4c-.4.1-.7.6-.5.9.7 1.6 1 2.9-1.1 3.2-.9.1-1.8.2-2.7.5-2.7.8-3.7 5.1-6.4 1-.1-.2-.3-.2-.5-.1 0-.4 0-.8-.1-1.3.4-.1.8-.1 1.2-.2 4.4-.9 7-4.2 7.1-7.9.9 0 1.8-.3 2.7-.3 1.2-.1 2.2.6 2.6 1.7.7 1.5-1.2 2.3-2.3 2.5z"/><path id="XMLID_69505_" class="st1" d="M-265 446.9c-.1-.3-.2-.6-.4-.9-.2-.3-.5-.3-.8-.3-.2 0-.4.2-.5.3-.1.1-.1.3-.3.4h-.1c-.1-.1-.3-.1-.4.1-.5.8-.7 2-.1 2.8.5.6 1.3.6 1.9.1.8-.5.9-1.6.7-2.5zm-.9 1.3c-.1.2-.1.4-.2.5s-.2.2-.3.2h-.3c-.2-.1-.2-.1-.3-.3-.2-.4-.1-1 0-1.6.3.1.5 0 .7-.2.1-.2.1-.3.2-.3.2.5.3 1.1.2 1.7z"/></g><g id="XMLID_69470_"><path id="XMLID_69499_" class="st1" d="M-290.1 425.9c.8-3.6-1.9-7.6-4.6-9.6-10.7-8-25.4-6-34.5 3.5-2.8 2.9-4.2 6.3-4.6 9.8-2.9 2.6-1.5 10.1-.2 12.9 3.1 6.5 11.7 8.6 18.2 8.7 7.6.1 11.1-4.6 13.7-11.1.8-2.1 1.5-4.5 3.1-6.1 1.1-1.2 3.7-1 5.1-1.8 2.8-1.4 4.9-3 3.8-6.3zm-33.2-9.2c9.1-6.2 24.7-6 31 4.4 1.5 2.4 1.2 6.1-1.4 7.6-1.5.9-3.6.9-5.2 1.4-1.7.5-2.6 1.6-2.9 2.9-.4 0-.7.2-.7.7-.2 11.1-12.4 14.8-21.4 11-5.3-2.2-8.3-7.3-8.7-12.9-.4-6.5 4.3-11.8 9.3-15.1zm11.5 32.5c-6 2-14.4-.3-19-4.5-2.2-2-2.8-4.6-3.2-7.4-.2-1.7-.7-4.8.1-6.8-.3 6.9 3.9 13.6 11.4 16.1 6 2 12.7.8 17-3.1-1.4 2.6-3.2 4.6-6.3 5.7zm13.1-17.1c-.8.3-1.5.9-2 1.6.5-1.7 1.8-2.5 4.3-3 1.9-.4 3.6-.8 4.9-2.2-1.1 2.5-5 2.8-7.2 3.6z"/><path id="XMLID_69495_" class="st1" d="M-302.6 424c-.6-.2-.9.6-.6 1-2.7-2.1-6.4 1-7.1 3.8-.1.3.1.7.4.9 2.3 1.3 5.4.7 7.6-.7 1.9-1.4 2.3-4.2-.3-5zm-.6 1.7c.2.1.5-.1.4-.3.4.4.7.7.5 1.3-.9-.5-2.7-.2-3.4.1-1 .4-1.5 1.2-1.5 2.1-.5 0-1-.1-1.4-.2.8-2.2 3.2-4 5.4-3zm-3.3 3c.2-.7.9-1.2 1.8-1.3.5-.1 1 0 1.4.1h.2c-.2.2-.5.3-.7.4-.8.5-1.7.8-2.7.8z"/><path id="XMLID_69492_" class="st1" d="M-294.9 418.9c0-.3-.2-.6-.6-.7-2.1-.6-3.9.2-4.7 2.3-.1.3 0 .5.1.6-.3.4-.6.9-.9 1.3-.2.3 0 .9.4.9 1.8.3 3.7 4.2 5.7 2.4 2.1-1.8.1-4.6 0-6.8zm-.9 5.6c-.4.4-1.7-1.2-2.1-1.4-.5-.4-1-.7-1.6-.9.1-.3.2-.7.3-1 .1-.1.3-.2.3-.4.5-1.2 1.4-1.6 2.5-1.3.4 1.6 1.5 3.9.6 5z"/><path id="XMLID_69489_" class="st1" d="M-303.2 414.5c-2-1.4-4.1 1-4 2.9v.1c-.6.8-1.1 1.6-1 2.6.1.9.7 1.5 1.5 1.9 1.9.7 4.3-.5 5-2.3.8-1.8.1-4.1-1.5-5.2zm.2 4.5c-.3 1.1-1.8 1.8-2.9 1.6-1.4-.2-1-1.6-.5-2.6.1 0 .3-.1.4-.3.4-.7.9-2.9 2.1-1.9.9.8 1.2 2.1.9 3.2z"/><path id="XMLID_69486_" class="st1" d="M-309.9 414.3c-.9-.8-2.3-.4-3.2.2-.2.1-.3.2-.3.4-.5-.1-1.1 0-1.3.7-.3.8.3 1.5.8 2-.4 1-.3 2.2-.7 3.2-.2.4.3.9.7.9 2.4.1 4.1-2.7 4.6-4.7.1-.9.1-2-.6-2.7zm-1 2.8c-.3 1-1 2.4-2.1 2.9.1-.8.1-1.6.5-2.3.1-.3.1-.6-.1-.8-.3-.3-.6-.5-.9-.8-.1-.1.2-.3.4-.4.1 0 .3.1.4 0 .3-.1 1.5-.8 1.8-.3.4.5.1 1.3 0 1.7z"/><path id="XMLID_69483_" class="st1" d="M-318.7 416.3c-1.4-1-2.8.7-3.4 1.9-1.6-.1-2.8 1-2.9 2.8 0 .5.5.8.9.7.6-.2 1.2 0 1.9 0 .3 1.2.8 2.6 2.3 2.4 1.4-.3 2.1-2.4 2.4-3.6.2-1.3 0-3.4-1.2-4.2zm-.2 4.1c-.2.7-.5 1.5-1 2.1-.8.9-1-1-1-1.5-.1-.5-.4-.8-.9-.7-.5.1-1 0-1.5-.1.4-.8 1.2-1 2.2-.8.6.1.8-.6.3-.9.4-.7 1.1-1.7 1.6-.9.5.8.5 2 .3 2.8z"/><path id="XMLID_69480_" class="st1" d="M-323.2 424.1c-.6-.6-1.4-1-2.3-.9-.7.1-1.3.5-1.6 1.1h-.1c-1.1-.1-2.6 0-3.1 1.2-.4 1 0 2 .6 2.9.9 1.4 3.5 3.6 5.3 2.3.9-.7.8-2 .7-3.1.7-.1 1.3-.5 1.5-1.2 0-1-.5-1.8-1-2.3zm-.4 2c-.2.2-.6.2-1 .1-.4 0-.7.4-.6.8.1.7.2 1.4.1 2 0 .1-.1.2-.1.3 0-.1 0 0-.1.1l-.1.1c.1-.1-.1.1 0 0h-.5c-.1 0-.2-.1-.3-.1 0 0-.1 0-.2-.1s-.2-.1-.3-.2c-.2-.1-.5-.3-.6-.4-.5-.4-.8-.8-1.1-1.2.1.1-.1-.2-.1-.2-.1-.1-.1-.2-.2-.3-.1-.1-.1-.2-.2-.3v-.1c0-.1 0-.1-.1-.2 0-.1-.1-.2-.1-.3v-.3s0-.1.1-.1l.1-.1.2-.1c.1 0 .3-.1.4-.1.3-.1.5-.1.8-.1 0 .5.7.7 1 .2.3-.5.5-1.2 1.1-1.3.3-.1.9.2 1.2.5.2.2.4.4.5.6s.2.4.2.5c0 .2 0 .2-.1.3z"/><path id="XMLID_69477_" class="st1" d="M-323 433.2c-.4.1-.7.2-1 .4-.6-.8-1.4-1.7-2.4-1.2-.9.5-1 1.6-1.1 2.5-.1 2.2.7 4.7 3.1 5.2 4 1 5.4-7.5 1.4-6.9zm.9 2.9c-.1.9-.6 2.6-1.7 2.7-1.6.2-2.2-1.8-2.4-3-.1-.7-.1-1.5.2-2.1.3-.5 1.2.3 1.6.6 0 .4.3.8.8.6l.9-.3c.2 0 .3 0 .4.2.2.2.3.9.2 1.3z"/><path id="XMLID_69474_" class="st1" d="M-317.9 435.5c-.4-.1-.7.1-.9.4-.9 1.4-1.5 3.4-.5 4.8-1.2.3-1.9 1.2-1.2 2.5.9 1.7 3.3 1.9 4.8 1 3.5-2 1-7.8-2.2-8.7zm-.2 7.9c-.5-.1-.9-.4-1.2-.7-.7-.7.3-1.1.8-1.4.2-.1.2-.2.2-.4.2-.1.3-.3.3-.5-.1-1.2-.2-2.1.3-3.1 1.4.8 2.2 2.7 2.2 4.2-.1 1.3-1.4 2.1-2.6 1.9z"/><path id="XMLID_69471_" class="st1" d="M-305.6 435.6c-.7-1.1-1.9-2-3.3-1.5-1.4.4-2 2.1-2 3.4 0 .1 0 .2.1.3-.2.3-.4.6-.5.9-.5 1.3.8 2.3 2 2.4 2.3.2 2.8-3.3 3.8-4.6 0-.3 0-.7-.1-.9zm-3.2 3.7c-.3.4-1.4.5-1.4-.2 0-.3.1-.6.4-1 .2-.1.3-.2.4-.4.2-.2.5-.4.7-.5.4-.2.1-.8-.3-.7-.1 0-.1 0-.2.1.1-.4.3-.7.6-.9.5-.3 1 0 1.3.4-.5 1-.7 2.3-1.5 3.2z"/></g><g id="XMLID_69467_"><path id="XMLID_69469_" class="st1" d="M-246.4 352.9c-3.7-1-7.6-.6-11.4-.8-.3 0-.7.2-.9.5-.9 2.1-1.5 4.3-2.1 6.6v-1.6c0-.5-.4-.9-.9-.9-1.6 0-3.1 0-4.7.1-1 0-1 1.6 0 1.6 1.3 0 2.6.1 3.9.1 0 2.2.1 4.3 0 6.5 0 .8 1.3 1.3 1.6.4 1.4-3.1 2.1-6.5 3.1-9.8.9-2.7 8.8-1.1 11.2-1.1.9 0 1.1-1.4.2-1.6z"/><path id="XMLID_69468_" class="st1" d="M-253.4 360.5c.7-.5 1.2-1.2 1.1-2.1-.2-1.6-2.1-1.8-3.4-1.7-.6.1-.7 1 0 1 .5 0 2.2 0 2 .9-.1.7-1.4.9-1.9 1-1 .2-.6 1.5.2 1.6 1.4.2 2.3 1.2 1.2 2.3-1.1 1.1-2.5.2-3.7.6-.4.1-.7.7-.4 1.1 1.3 2.1 4.7.6 5.8-1 1.1-1.5.3-2.9-.9-3.7z"/></g><g id="XMLID_69454_"><path id="XMLID_69462_" class="st1" d="M-247.6 412.5c-1.9-2.4-4-4.8-6.2-6.9-1.5-1.4-4-4-6.3-3.9-6 .2-10.3 7.8-14.3 11.4-.6.5.3 1.3.8.8.1-.1.2-.1.2-.2 8.1 1.4 16.2-1 24.4-.1.3 0 .5-.1.6-.3.7.4 1.3-.3.8-.8zm-24.8.5c.8-.7 1.6-1.6 2.4-2.4.3.3.7.5 1 .9.4.4.6 1 .6 1.6-1.3 0-2.7 0-4-.1zm18.2-1.4c-4.5 0-8.9 1.1-13.4 1.4 0-.6-.2-1.2-.5-1.8-.2-.5-.7-1.1-1.2-1.4 2.5-2.6 5-5.2 8.3-6.4 2.7-.9 5.9 3.1 7.6 4.6l.4.4c-1.1.7-1.4 2-1.2 3.2zm1.2 0v-.6c.1-.6.6-1.1.9-1.6.8.8 1.7 1.7 2.5 2.6-1.1-.2-2.2-.3-3.4-.4z"/><path id="XMLID_69461_" class="st1" d="M-257.2 396.2c-1-.8-2.3-1.6-3.7-1.1-1 .3-1.6 1.2-1.9 2.1-.5 1.8.8 4.3 3 3.6.8-.3 1.7-.9 2.1-1.7.3-.5-.3-1.2-.9-.9-.3.2-.6.5-.9.7-.1.1-.4.3-.6.4h-.7s-.1 0-.1-.1l-.1-.1c0-.1-.1-.1-.1-.2v-.2c0-.1-.1-.2-.1-.3v-.9c0-.2.1-.3.1-.5l.1-.2s.1-.1.1-.2l.2-.2h.1l.1-.1c.3-.2.7-.3 1.2-.3.7 0 1.4.2 2.1.4 0 .4.2 0 0-.2z"/><path id="XMLID_69458_" class="st1" d="M-276.2 412c-.3-1.3-.7-2.6-1.3-3.9-.2-.4-.8-.3-1 0-1.4 2.2-1.6 5.1-2.3 7.5-.1.5.7.9.9.4.3-.8.6-1.6.8-2.4.6 0 1.1.1 1.7.1.1 0 .2 0 .2-.1.1.6.3 1.1.7 1.5.2.2.6.1.7-.2.2-.8-.2-1.9-.4-2.9zm-1.2 1.2c-.5 0-1 0-1.6.1.1-.2.1-.5.2-.7.2-.9.5-1.7.9-2.5.3.7.4 1.5.6 2.3.1.3.1.6.1.9-.1-.1-.2-.1-.2-.1z"/><path id="XMLID_69455_" class="st1" d="M-241 414.9c-.2-1.8-2.2-2.8-3.7-2.2-.1-.7-.2-1.4-.3-2.2-.1-.7-1-.7-1.1 0-.2 2.3.4 4.4.7 6.7 0 .3.3.5.5.5 2 .6 4.2-.5 3.9-2.8zm-3 1.4c-.1-.8-.3-1.6-.4-2.4.9-.1 2-.4 2.1.9.1 1.2-.8 1.6-1.7 1.5z"/></g><g id="XMLID_69434_"><path id="XMLID_69449_" class="st1" d="M-178.4 433.3c-.1-.4-.5-.5-.8-.5-4.3-3.2-9.5-5.3-14.2-7.7-5.5-2.8-7.6-8.1-12-11.9-2.1-1.8-4.7-1.5-7.1-.4-5.6 2.5-10 6.8-15.4 9.5-.1 0-.1 0-.2.1h-.1c-.3.2-.3.5-.2.7l-.1.1c-8.4 9.7 13.8 20.4 20 23.5 2.9 1.4 5.9 2.7 9.1 3.1 3.7.5 7.2-1.8 10.1-3.6 4.4-2.8 13-6.3 10.9-12.9zm-2-.2c-.1.1-.2.1-.2.3-3.5 6.9-10.8 10.3-17.3 13.8l-.1-.1c-6.6-3.2-14.6-4.9-20.1-10.1-.5-.5-1.1-1-1.7-1.6 7.4-3.1 13.2-9.2 20.4-12.8l.3-.3c5.4 4.8 12.5 7.5 18.7 10.8zm-34.2-17.8c1.8-1 3.7-1.9 5.7-2 2.7-.1 4.9 3.4 6.2 5.3.7 1 1.6 1.9 2.4 2.8-7.4 3.5-13.1 9.6-20.3 13.3-3.1-3.2-6.6-7.4-7.1-11.4 4.8-2.2 8.6-5.6 13.1-8zm23.4 30.4c-3.1 2-6.1 3.4-9.9 2.7-2.8-.6-5.5-2-8.1-3.2-6.7-3.3-22.6-10.8-19.3-20.3.6 3.5 4.3 7.6 6.9 10.3-.5.3-.1 1.1.4.9.1 0 .2-.1.3-.1.4.4.7.7 1 1.1 5.4 5.8 14.2 8.3 21.4 11.2.2.1.4 0 .5-.1.1.1.2.1.4.1 6.7-2.2 14.8-6.8 18-13.4.6 5.2-7.8 8.4-11.6 10.8z"/><path id="XMLID_69446_" class="st1" d="M-205.3 419.6v-.1c-.5-1.4-1.4-2.2-2.2-3.5-.2-.3-.6-.5-.9-.4-5.7 2.2-10.7 5.4-15.8 8.7-.3.2-.5.7-.3 1 .9 1.6 1.9 2.8 3.3 4.1.1.1.1.1.2.1l-.5.5c-.3.3.1.9.5.7 2.4-1.7 4.8-3.5 7.2-5.1 2.7-1.9 5.7-3 8.6-4.7.5-.4.3-1-.1-1.3zm-15.2 9.4c0-.1 0-.2-.1-.3-.9-1.2-1.7-2.3-2.3-3.5 2.7-1.7 5.4-3.4 8.1-4.9 1.8-1 3.7-1.8 5.5-2.6 1-.4 2 1.2 2.6 2.1-4.9 1.2-10 5.6-13.8 9.2z"/><path id="XMLID_69435_" class="st1" d="M-184.1 432c-1.3-.6-7.2-4.3-10.2-3.8-.8-.9-1.9-1.7-2.8-2.1-1.5-.6-2.7.2-3.6 1.5-.1.1-.1.2-.1.4-.6-.1-1.3 0-1.9.3-.7.4-2.1 1.9-2.1 2.9-.9-.1-1.6.2-2.1 1.2-.2.6-.2 1.3.1 1.9-.6-.6-.9-1-1.9-.7-1.3.4-2.5 1.5-2.6 2.9-.2 2.9 3.8 4.6 6.1 3.8.2.7.7 1.3 1.3 1.7.8.5 1.9.6 2.7.2.6-.3 1.3-1 1.6-1.7.9.8 2.1 1.4 3.2 1.9-.2.8-.6 1.6-1.5 1.9-1.1.3-1.9-.9-2.5-1.6-.3-.4-.8.1-.7.5.6 1.3 1.8 2.4 3.3 2.2 1.5-.2 2.3-1.7 2.6-3 .2.2.6.2.8-.1.3-.4.5-.8.8-1.2.3-.4.6-.8.8-1.2.2-.5-.5-.8-.9-.5-.4.3-.5.8-.8 1.2-.2.4-.5.8-.7 1.2 0-.1-.1-.2-.2-.2-.9-.5-1.7-1-2.6-1.5-.3-.1-.5-.3-.8-.4 1-.1 1.8-.7 1.9-2.3v-.1.1c.1.2.4.4.7.3.3-.1.6-.2.9-.4 0 .1 0 .3.1.4 1 1.3 2.6 2.1 4.3 1.8 1.7-.3 2.5-2.2 2.8-3.7v-.2c1.6.1 3-.6 3.9-2.7.6-.4.4-.8.1-.9zm-21 7.5v.2c-1.6.1-3.2-.6-4.2-1.7-1.5-1.7 0-2.9 1.5-3.6 1.1 1 2.2 2.1 3.4 2.9-.4.6-.7 1.4-.7 2.2zm.8-4.3c-.3-.2-.7-.4-.9-.7-.3-.3-.3-.5-.4-.9-.1-.2-.1-.5 0-.8 0-.1 0-.1.1-.2l.1-.1.1-.1c.2-.1.4-.2.7-.1.2 0 .4.1.6.2.7 1 1.9 1.9 2.8 2.4-.5.3-1.1.6-1.4 1 0-.1-.1-.3-.3-.3-.5-.1-1-.2-1.4-.4zm3 5.7c-.4.3-1 .2-1.4-.1-1.1-.6-1.1-1.9-.7-3.1.2.1.5 0 .6-.1.7.6 1.7 1.3 2.7 1.7-.5.5-.6 1.2-1.2 1.6zm3.6-3.2c-.3 1.9-3 .5-4.3-.4.2-.2.4-.5.7-.7.4-.4 1-.7 1.5-.8 1.4-.5 2.3.4 2.1 1.9zm3.5-2.7c0-.1-.1.2-.1.2-.1.2-.2.3-.3.4-.3.3-.7.5-1 .6-.5-.7-1.3-1.1-1.9-1.6.1-.3.1-.7.3-1 .2-.2.5-.4.6-.4.7-.1 1.2.1 1.7.5.2.1.4.4.5.6.1.3.2.4.2.7zm.3 2.2c-.1-.1-.2-.2-.4-.3.3-.2.6-.4.8-.7-.1.4-.2.7-.4 1zm-.1-4.5c-.8-.6-1.9-1.1-2.9-.7-.9.3-1.6 1.1-1.8 2-.1.1-.1.1-.1.2h-.5c-.2 0-.5.1-.8.2.2-.2.4-.5.6-.7.2-.3-.2-.7-.5-.5-.2.1-.3.2-.5.4-.4-.5-1-1-1.7-1.5-.2-.3-.5-.6-.7-.9.5-1.1 1.3-2.1 2.7-1.7 1.2.4 2 1.5 3 2.3.5.4 1.1-.3.8-.8-.1-.1-.1-.2-.2-.3.3-.1.4-.5 0-.6-.3-.1-.6-.3-.9-.4-.3-.3-.6-.5-.9-.7-.3-.3-.5-.5-.7-.8.8-.8 1.5-.8 2.5 0 .4.3.8.7 1.1 1.1-.1.2-.2.5-.3.8 0 .2.1.5.2.6-.4 0-.6.5-.2.8 1.2.9 2.9 2.2 4.7 3.2-.2.1-.5.2-.7.3-.4.2-.9.6-1.2 1.1.1-.2.1-.3.2-.5.1-1.4-.4-2.3-1.2-2.9zm3.3 5.6c-.8.2-1.5 0-2.2-.5.4-.6.6-1.2 1.1-1.7.9-.9 1.9-.8 2.9-.3-.2 1.1-.7 2.1-1.8 2.5zm-4.6-7.8c.1 0 .2 0 .3-.1.3-.2.6-.3.9-.4.1 0 .3 0 .4-.1 2.7-.6 6 1.8 8.5 3-2 3.6-7.7-.8-10.1-2.4z"/></g><g id="XMLID_69427_"><path id="XMLID_69428_" class="st1" d="M-425.6 429.2c-.2-.3-.6-.4-1.1-.4-.1 0-.3.1-.4.1 0 0-.1 0-.1-.1-3.5-.8-7-.5-10.4-1.7-1.7-2.6-3.5-5.2-5.4-7.6-.3-.5-1-.7-1.6-.4-2.2 1.1-4.3 2.5-6.4 3.9-1.1.7-2.3 1.4-3.4 2.1-.3.2-.8.4-1 .8s-.2.5 0 .6c0 0-.1 0-.1.1-.1.1-.1.2 0 .3.9 1.6 7-2.5 10.3-4.7-.2 1.8-.7 3.5-1.3 5.2-.6 1.6-1.9 3.8-1.6 5.6-4.5-1.8-8.4-6.5-12.3-9.4.6.2 1.2.4 1.7.6 1.3.4 2.7 1 4.1 1 .6 0 .8-.8.3-1.1-1-.6-2.3-.8-3.4-1.1-1.3-.4-2.6-.8-3.8-1.2-.5-.2-.9.6-.6 1l-.1.1c-.2 0-.5.1-.5.4-.6 5.3 2.4 10.3 2.8 15.6 0 .4.3.8.7.9 6.8 1.5 14.8 5.5 21.8 4.3 6-1.1 10.9-8.7 13.7-13.6.3-1.1-1.1-2-1.9-1.3zm-5.3.9c-1.3.5-2.7 1-4.1 1.5 0-.1 0-.1-.1-.2-.5-.9-1-1.8-1.5-2.6 1.8.7 3.8 1.1 5.7 1.3zm-13.6-2.1c.7-1.9 1.3-3.8 1.5-5.7 2 3.4 4.4 6.6 6.5 9.9-3.3 1.2-6.6 2-9.8 1.4-.2 0-.3-.1-.5-.1 1.2-1.4 1.7-3.9 2.3-5.5zm-14.1 9.3c-.4-1.4-.8-3.9-.9-4.3-.9-3.1-2-6-2.5-9.2 3.2 3 6.3 6.5 9.9 9.1-2.3 1.2-4.3 2.8-6.5 4.4.1 0 0 0 0 0zm25.5 1.6c-.6.6-1.2 1.2-1.9 1.6-.5-1.2-.6-2.5-1.1-3.7-.3-.9-1.9-.8-1.8.3.1 1.4.7 3 1.4 4.2-3 1.3-6.4.6-10.1-.2-3.9-.8-7.6-2-11.5-2.8 2.2-1.5 4.5-3 6.7-4.5.1 0 .1-.1.2-.2 1.3.9 2.8 1.6 4.3 2.1 5.9 1.9 13.6-2.7 19.6-4.3-1.8 2.5-3.6 5.1-5.8 7.5z"/></g><path id="XMLID_69422_" class="st1" d="M-318.4 384.7c0 .1-.1.3-.1.4-.1 0-.2 0-.2.1-1.8.9-3.4 1-5.2.6 0-.1 0-.3.1-.4.1-.5-.7-.7-1-.3-.6 1-.7 2.4-1 3.5-.4 1.7-.8 3.4-1.5 5-1.5-.7-3.1-.5-4 1.1-.6 1-.4 2.7.9 3 1.9.3 3.6-2.2 4.2-3.7.5-1.2 1-2.5 1.4-3.8.9.4 1.9.6 2.9.6.8 0 1.8-.1 2.6-.4-.2 1-.4 2-.7 2.9 0 .1-.1.3-.2.5-3-2.2-4.7 3-2.5 3.6 1.8.6 3.2-2 3.7-3.3 1.2-2.9 1.4-6.3 1.7-9.3-.1-.5-1-.6-1.1-.1zm-12 11.3c0-1.4 1.4-1.7 2.5-1.6-.7 1-2.5 2.8-2.5 1.6zm7.9-.1c-.1-1.1.9-1.8 1.9-1.6-.7 1-1.8 2.5-1.9 1.6zm.5-6.1c-.9.1-1.8-.1-2.7-.4.3-1 .5-1.9.6-2.8 1.7.7 3.7.8 5.3 0-.1.8-.3 1.6-.4 2.5-1 0-1.8.6-2.8.7z"/></g></svg>