<svg xmlns="http://www.w3.org/2000/svg" xmlns:xlink="http://www.w3.org/1999/xlink" viewBox="-182 172.7 135 130.3"><path d="M-170.8 227.9v-3.2h10.2c0-.4-.1-.8-.2-1.2-.1-.4-.2-.8-.4-1.1-.2-.4-.4-.7-.6-1.1-.2-.4-.5-.7-.8-1-.2-.2-.5-.4-.7-.6-.3-.2-.5-.3-.8-.4l-1.9-.4-1.5.3c-.3.1-.5.2-.7.3-.2.1-.5.2-.7.4l-.4.3v-3.7l1.6-.5 1.6-.2 1.6.2 1.6.4c.2.1.5.2.7.3.2.1.4.2.7.4l1.3 1c.4.5.8 1 1.1 1.5.3.5.6 1.1.8 1.6.3.6.5 1.1.6 1.7l.3 1.8h1.4c-.2 0-.3 0-.4.1-.1.1-.2.2-.2.4v2.1c0 .2.1.3.2.4.1.1.2.1.4.2h-14.8zm6.6-16.3c.1.4.2.7.2 1 0 .3-.1.6-.3.8-.1.2-.3.4-.6.6-.3.2-.4.2-.7.2-.3 0-.6 0-.9-.1-.3-.1-.6-.2-.8-.5l-.4-.6c-.1-.1-.1-.2-.1-.3v-.4l.2-.8.4-.5.6-.4.8-.1.7.1.6.4.3.6z"/><path d="M-156.5 227.9c-.2 0-.4 0-.5-.1-.1-.1-.1-.2-.1-.4v-2.2c0-.2 0-.3.1-.4.1-.1.2-.1.3-.2h3.1V216h3.2v8.6h2.7c-.2 0-.4 0-.5.1-.1.1-.1.2-.1.4v2.1c0 .2 0 .3.1.4.1.1.3.1.5.2l-8.8.1zm2.1 1.7c.3 0 .5 0 .7.1s.4.2.6.4c.2.2.3.4.4.6.1.2.2.5.2.7 0 .3 0 .5-.1.8-.1.2-.2.4-.4.6-.2.2-.4.3-.6.4-.2.1-.5.1-.7.1-.3 0-.5-.1-.7-.2-.2-.1-.4-.3-.6-.4-.2-.2-.3-.4-.4-.6s-.1-.5-.1-.8c0-.2.1-.5.2-.7.1-.2.2-.4.4-.5.2-.2.4-.3.6-.4 0-.1.3-.1.5-.1zm4.3 0c.3 0 .5 0 .7.1.2.1.4.2.6.4s.3.4.4.6c.1.2.2.5.2.7 0 .3 0 .5-.1.8-.1.2-.2.4-.4.6-.2.2-.4.3-.6.4-.2.1-.5.1-.7.1-.3 0-.5-.1-.7-.2-.2-.1-.4-.3-.6-.4-.2-.2-.3-.4-.4-.6-.1-.2-.1-.5-.1-.8 0-.2.1-.5.2-.7.1-.2.2-.4.4-.5.2-.2.4-.3.6-.4.1-.1.3-.1.5-.1z"/><path d="M-143.7 229.4c-.4-.2-.7-.4-1-.6-.3-.3-.6-.5-.9-.9h-2.9c-.2 0-.3 0-.3-.1-.1-.1-.1-.2-.1-.4v-2.2c0-.3.2-.5.5-.5h1.2l-.1-.5v-.4c0-.3 0-.6.1-.8 0-.3.1-.5.1-.7.1-.3.2-.5.3-.8.1-.2.2-.5.4-.7l.9-1.2 1.2-.9 1.5-.6 1.6-.3c.4 0 .9 0 1.3.1s.8.2 1.1.3c.4.2.7.4 1 .6.3.2.6.5.9.7.3.3.5.6.7.9.2.3.4.7.6 1.1.2.4.3.7.3 1.1.1.4.1.8.1 1.2v.4l-.1.5h1c-.4 0-.6.2-.6.5v2.1c0 .2 0 .3.1.4.1.1.2.1.4.1h-2.5c-.3.3-.6.6-.9.8-.3.3-.7.5-1.1.7-.4.2-.7.3-1.2.4-.4.1-.8.1-1.3.1s-.9 0-1.3-.1c-.2 0-.6-.2-1-.3zm2.6-8.3c-.4 0-.7.1-1 .2-.3.1-.6.3-.8.6-.2.2-.4.5-.6.8-.1.3-.2.7-.2 1 0 .4 0 .7.2 1.1.1.3.3.6.6.9.2.2.5.4.8.6.3.1.7.2 1 .2.4 0 .7-.1 1.1-.2.3-.1.6-.4.9-.6l.6-.9c.1-.3.2-.7.2-1.1s-.1-.7-.2-1-.3-.6-.6-.8c-.2-.2-.5-.4-.8-.6-.5-.1-.8-.2-1.2-.2z"/><path d="M-134.8 227.9c-.2 0-.3-.1-.4-.2-.1-.1-.1-.2-.1-.4v-2.1c0-.2 0-.3.1-.4.1-.1.2-.2.4-.2h1.6v-13.1h3.2v13.1h1.5c-.2 0-.4.1-.5.2-.1.1-.1.2-.1.4v2.1c0 .2 0 .3.1.4.1.1.3.2.5.2h-6.3z"/><path d="M-129.1 227.9c-.2 0-.4 0-.5-.1-.1-.1-.1-.2-.1-.4v-2.2c0-.2 0-.3.1-.4.1-.1.2-.1.3-.2h3.1V216h3.2v8.6h2.7c-.2 0-.4 0-.5.1-.1.2-.2.3-.2.5v2.1c0 .2 0 .3.1.4s.3.1.5.2h-8.7zm2-17c.3 0 .5 0 .7.1.2.1.4.2.6.4.2.2.3.4.4.6.1.2.2.5.2.7 0 .3 0 .5-.1.8-.1.2-.2.4-.4.6-.2.2-.4.3-.6.4-.2.1-.5.1-.7.1-.3 0-.5-.1-.7-.2-.2-.1-.4-.3-.6-.4-.2-.1-.3-.4-.4-.6-.1-.2-.1-.5-.1-.8 0-.2.1-.5.2-.7.1-.2.2-.4.4-.5.2-.2.4-.3.6-.4.1 0 .3-.1.5-.1zm4.4 0c.3 0 .5 0 .7.1.2.1.4.2.6.4.2.2.3.4.4.6.1.2.2.5.2.7 0 .3 0 .5-.1.8-.1.2-.2.4-.4.6-.2.2-.4.3-.6.4-.2.1-.5.1-.7.1-.3 0-.5-.1-.7-.2-.2-.1-.4-.3-.6-.4-.2-.2-.3-.4-.4-.6-.1-.2-.1-.5-.1-.8 0-.2.1-.5.2-.7.1-.2.2-.4.4-.5.2-.2.4-.3.6-.4 0 0 .2-.1.5-.1z"/><path d="M-121 227.9c-.2 0-.4 0-.5-.1-.1-.1-.1-.2-.1-.4v-2.2c0-.2 0-.3.1-.4.1-.1.3-.1.5-.1h1.7v-13.1h3.2v16.2l-4.9.1zm11-16.5v16.5h-3.2v-16.5h3.2zm10.6 16.4l-1.1.2-.8.6-.5.9c-.1.2-.1.4-.2.5 0 .2-.1.4-.1.6 0 .2 0 .3.1.5 0 .2.1.3.2.5s.1.3.2.5.2.3.3.4l.1.1h-3.8c-.2-.4-.3-.7-.3-1.1-.1-.4-.1-.8-.1-1.2 0-.4 0-.8.1-1.2.1-.4.2-.8.4-1.2l.6-.9c.2-.3.4-.6.7-.8.5-.6 1.1-1 1.9-1.3.3-.1.7-.2 1.1-.3.4-.1.8-.1 1.3-.1h8.1c0-.5-.1-.9-.2-1.3s-.2-.9-.4-1.3-.4-.8-.6-1.1c-.2-.4-.5-.7-.9-1-.3-.3-.5-.5-.8-.7-.3-.2-.6-.3-.9-.4-.3-.2-.6-.3-.9-.3-.3-.1-.7-.1-1-.1l-1.7.3c-.3.1-.5.2-.7.3-.2.1-.5.2-.7.4l-.4.3-1.9-2.6.4-.3c.4-.3.7-.5 1.1-.7s.8-.4 1.2-.5c.4-.1.9-.2 1.3-.3.3.1.8 0 1.3 0 1.1 0 2.1.2 3.2.7.5.2 1 .4 1.4.7.5.3.9.6 1.3 1 .9 1 1.6 2.1 2.1 3.2.3.6.5 1.2.7 1.8.2.6.3 1.3.3 1.9l.1 1.7-.1 1.6h-11.4zm15.7-4.3c0-.8 0-1.6-.1-2.3 0-.7-.1-1.4-.2-2.1-.1-.7-.2-1.3-.3-1.9-.1-.6-.3-1.2-.6-1.8-.3-.6-.6-1.2-1-1.8-.4-.6-.9-1.3-1.4-1.9h3.6c.7.8 1.3 1.6 1.7 2.5.4.9.7 1.8 1 2.8.2 1 .4 2 .4 3.1.1 1.1.1 2.3.1 3.5l-3.2-.1zm7.9 1.2h1.3c-.2 0-.3.1-.4.1s-.2.2-.2.4v2.1c0 .1.1.3.2.3.1.1.2.1.4.2h-10.9v-3.2h6.4v-13h3.2v13.1z"/><path d="M-56.3 226.7c-.2.2-.5.4-.8.6-.3.2-.6.3-.9.5-.3.2-.6.3-1 .3-.3.1-.7.1-1.1.1-.3 0-.6 0-.9-.1l-.9-.3c-.3-.1-.6-.3-.8-.4-.2-.2-.5-.3-.7-.5-.2.2-.5.4-.7.5-.3.2-.5.3-.8.4l-.9.3c-.3.1-.6.1-.9.1s-.6 0-.9-.1c-.3-.1-.6-.1-.8-.2-.3-.1-.5-.2-.7-.3-.2-.1-.5-.3-.7-.4l-.3.3c-.1.1-.3.2-.4.2l-1 .2H-75c-.2 0-.3 0-.4-.1-.1-.1-.1-.2-.1-.4v-2.1c0-.4.2-.6.6-.6h1.4c.2 0 .3 0 .5-.1.1 0 .3-.1.4-.2l.6-.5.4-.8.1-.9V216h3.2v7.5c0 .1.1.2.1.3l.4.6c.3.3.6.4 1 .5.3.1.7 0 1-.1.3-.1.6-.3.8-.6.2-.3.4-.6.4-1v-7h3.2v7c0 .4.1.7.3 1 .2.3.4.5.6.6.2.1.5.2.8.2s.6-.1.8-.2c.3-.1.5-.3.6-.6.2-.3.3-.6.3-1v-7h3.2v7.3c0 .3 0 .6-.1.9s-.1.6-.2.9c0 .1-.1.3-.2.4-.1.1-.2.3-.3.4-.1.1-.2.3-.3.4-.2 0-.3.1-.4.2z"/><image width="704" height="567" xlink:href="10ACBC671EEC7F07.png" transform="matrix(.1147 0 0 .1157 -148.686 237.395)" overflow="visible"/><path d="M-127.1 183.3v8.3h1v2.2h-11.4c-1.8-.6-2.9-1.6-3.3-3-.5-3 .7-5.3 3.6-7.2 2.8-1.2 5.4-.9 8.1 1.1v-1.5h2zm-7.3 1.7c-3.3.4-4.8 2.2-4.5 5.3.3.8.8 1.3 1.7 1.3h7.5c.2 0 .3-.2.3-.4.7-3.9-1-6-5-6.2zm-1.9-4.8c.3.3.6.4.9.4.4 0 .7-.1.9-.4.3-.3.4-.6.4-1s-.1-.7-.4-1c-.2-.3-.5-.4-.9-.4s-.7.1-.9.4c-.3.3-.4.6-.4.9 0 .5.1.8.4 1.1zm3.1 0c.3.3.6.4.9.4.4 0 .7-.1.9-.4.3-.3.4-.6.4-1s-.1-.7-.4-1c-.2-.3-.5-.4-.9-.4s-.7.1-.9.4c-.3.3-.4.6-.4.9 0 .5.1.8.4 1.1z"/><path d="M-126.5 191.7h3.7v-6h2.2v8.3h-6v-2.3zm.7 6.5c.3.3.6.4.9.4.4 0 .7-.1.9-.4s.4-.6.4-1-.1-.7-.4-1c-.2-.3-.5-.4-.9-.4s-.7.1-.9.4c-.3.3-.4.6-.4.9 0 .5.1.8.4 1.1zm3.1 0c.3.3.6.4.9.4.4 0 .7-.1.9-.4s.4-.6.4-1-.1-.7-.4-1c-.2-.3-.5-.4-.9-.4s-.7.1-.9.4c-.3.3-.4.6-.4.9 0 .5.1.8.4 1.1zm3.5-4.3v-16.2h2.1v14h2.7v2.2h-4.8z"/><path d="M-107 182.4c3.2-.3 5.7 1.2 7.4 4.4l1 2.3h-2.4c-1.2-3.6-3.3-5-6.3-4.3-3 .6-4.2 2.5-3.7 5.7.3.5.7.9 1.2 1.3h11l-1.1 2.2h-14.8v-2.2h1.9c-.5-.8-.7-1.8-.7-2.9.5-3.6 2.7-5.8 6.5-6.5zm18.1 11.5h-1.3c-.9 3.7-3.6 5.2-8.1 4.5l.2-2.1c1.9.4 3.3.4 4.1-.2.9-.6 1.4-1.3 1.7-2.2v-8.6h2.1v6.4h1.3v2.2z"/><path d="M-89.5 191.7h3.1v-6h2.2v8.3h-5.3v-2.3zm3.2 6.5c.3.3.6.4.9.4.4 0 .7-.1.9-.4s.4-.6.4-1-.1-.7-.4-1c-.2-.3-.5-.4-.9-.4s-.7.1-.9.4c-.3.3-.4.6-.4 1s.2.7.4 1z"/></svg>