<svg id="Layer_1" xmlns="http://www.w3.org/2000/svg" viewBox="-156 219 185.5 64"><style>.st0{fill-rule:evenodd;clip-rule:evenodd}.st1{stroke:#231f20;stroke-miterlimit:10}</style><g id="XMLID_23798_"><g id="XMLID_23799_"><path id="XMLID_23827_" d="M-111.5 222.8h4.2c.8 0 1.4.1 2 .5.6.3 1.1.7 1.5 1.2.4.5.8 1.1 1 1.8.2.7.3 1.4.3 2.2s-.1 1.6-.4 2.3c-.2.7-.6 1.3-1 1.8s-1 .9-1.6 1.2-1.3.4-2 .4h-4.2v-11.4h.2zm1.2 10.3h2.5c.6 0 1.2-.1 1.7-.3s.9-.5 1.3-.9.7-.9.9-1.4c.2-.6.3-1.2.3-1.9 0-.8-.1-1.5-.3-2.1-.2-.6-.5-1.1-.9-1.4-.4-.4-.8-.7-1.3-.8-.5-.2-1.1-.3-1.7-.3h-2.5v9.1z"/><path id="XMLID_23824_" d="M-98.8 230.3c0 .4.1.8.2 1.1.1.4.3.7.5 1 .2.3.5.5.8.7.3.2.6.2 1 .2 1.2 0 2-.5 2.3-1.6h1.1c-.1.4-.2.8-.5 1.1-.2.3-.5.6-.8.8-.3.2-.6.4-1 .5-.4.1-.8.2-1.2.2-.6 0-1.1-.1-1.6-.4-.5-.2-.9-.6-1.2-1-.3-.4-.6-.9-.8-1.4s-.3-1.1-.3-1.7c0-.5.1-1.1.3-1.6s.4-.9.7-1.3c.3-.4.7-.7 1.2-.9s1-.3 1.6-.3 1.1.1 1.5.3c.6.4 1 .7 1.3 1 .3.4.6.8.7 1.3.2.5.3 1 .3 1.6v.5l-6.1-.1zm4.8-.9c0-.3-.1-.7-.2-1-.1-.3-.3-.6-.5-.8-.2-.2-.5-.4-.8-.5-.3-.1-.6-.2-1-.2-.3 0-.7.1-.9.2-.3.1-.5.3-.8.5-.2.2-.4.5-.5.8-.1.3-.2.6-.2.9l4.9.1z"/><path id="XMLID_23822_" d="M-87.9 232.8l2.4-6.8h1.3l-3 8.2h-1.3l-3-8.2h1.3l2.3 6.8z"/><path id="XMLID_23819_" d="M-81.5 230.3c0 .4.1.8.2 1.1.1.4.3.7.5 1 .2.3.5.5.8.7.3.2.6.2 1 .2 1.2 0 2-.5 2.3-1.6h1.1c-.1.4-.2.8-.5 1.1-.2.3-.5.6-.8.8-.3.2-.6.4-1 .5-.4.1-.8.2-1.2.2-.6 0-1.1-.1-1.6-.4-.5-.2-.9-.6-1.2-1-.3-.4-.6-.9-.8-1.4-.2-.5-.3-1.1-.3-1.7 0-.5.1-1.1.3-1.6.2-.5.4-.9.7-1.3.3-.4.7-.7 1.2-.9s1-.3 1.6-.3 1.1.1 1.5.3.8.5 1.1.8c.3.4.6.8.7 1.3.2.5.3 1 .3 1.6v.5h-5.9v.1zm4.9-.9c0-.3-.1-.7-.2-1-.1-.3-.3-.6-.5-.8-.2-.2-.5-.4-.8-.5-.3-.1-.6-.2-1-.2-.3 0-.7.1-.9.2-.3.1-.5.3-.8.5-.2.2-.4.5-.5.8-.1.3-.2.6-.2.9l4.9.1z"/><path id="XMLID_23817_" d="M-71.6 222.8v11.5h-1.2v-11.5h1.2z"/><path id="XMLID_23814_" d="M-69 230.1c0-.6.1-1.1.2-1.6.2-.5.4-1 .7-1.4.3-.4.7-.7 1.2-.9s1-.3 1.6-.3 1.1.1 1.6.3.9.5 1.2.9c.3.4.5.9.7 1.4s.2 1.1.2 1.6c0 .6-.1 1.1-.2 1.6-.2.5-.4 1-.7 1.3-.3.4-.7.7-1.2.9-.5.2-1 .3-1.6.3s-1.1-.1-1.6-.3c-.5-.2-.8-.5-1.2-.9s-.6-.8-.7-1.3c-.1-.4-.2-1-.2-1.6zm1.2 0c0 .4.1.8.2 1.2.1.4.3.7.5 1s.5.5.8.7.7.2 1 .2c.4 0 .7-.1 1-.2.3-.2.6-.4.8-.7.2-.3.4-.6.5-1 .1-.4.2-.8.2-1.2 0-.4-.1-.8-.2-1.2-.1-.4-.3-.7-.5-1-.2-.3-.5-.5-.8-.7s-.7-.2-1-.2c-.4 0-.7.1-1 .2-.3.2-.6.4-.8.7-.2.3-.4.6-.5 1-.1.4-.2.8-.2 1.2z"/><path id="XMLID_23811_" d="M-59.2 226h1.2v1.2c.1-.2.3-.4.5-.6.2-.2.4-.3.6-.4.2-.1.4-.2.7-.3.2-.1.4-.1.7-.1.6 0 1 .1 1.5.3.4.2.8.5 1.1.9.3.4.5.8.7 1.3s.2 1.1.2 1.7-.1 1.1-.2 1.7c-.2.5-.4 1-.7 1.4-.3.4-.7.7-1.1.9s-.9.3-1.5.3c-.2 0-.4 0-.7-.1-.2-.1-.5-.1-.7-.3-.2-.1-.4-.3-.6-.4-.2-.2-.4-.4-.5-.6v4.6h-1.2V226zm1.2 4.2c0 .4.1.8.2 1.2.1.4.3.7.5 1 .2.3.5.5.7.7.3.2.6.2 1 .2s.7-.1 1-.2c.3-.2.5-.4.7-.7.2-.3.4-.6.5-1 .1-.4.2-.8.2-1.2 0-.4-.1-.9-.2-1.2-.1-.4-.3-.7-.5-1s-.5-.5-.7-.7c-.3-.2-.6-.2-1-.2s-.7.1-1 .2c-.3.2-.5.4-.8.7s-.4.6-.5 1c-.1.2-.1.7-.1 1.2z"/><path id="XMLID_23808_" d="M-48.5 230.3c0 .4.1.8.2 1.1.1.4.3.7.5 1 .2.3.5.5.8.7.3.2.6.2 1 .2 1.2 0 2-.5 2.3-1.6h1.1c-.1.4-.2.8-.5 1.1-.2.3-.5.6-.8.8-.3.2-.6.4-1 .5-.4.1-.8.2-1.2.2-.6 0-1.1-.1-1.6-.4-.5-.2-.9-.6-1.2-1-.3-.4-.6-.9-.8-1.4-.2-.5-.3-1.1-.3-1.7 0-.5.1-1.1.3-1.6.2-.5.4-.9.7-1.3.3-.4.7-.7 1.2-.9s1-.3 1.6-.3 1.1.1 1.5.3.8.5 1.1.8c.3.4.6.8.7 1.3.2.5.3 1 .3 1.6v.5h-5.9v.1zm4.9-.9c0-.3-.1-.7-.2-1-.1-.3-.3-.6-.5-.8-.2-.2-.5-.4-.8-.5-.3-.1-.6-.2-1-.2-.3 0-.7.1-.9.2-.3.1-.5.3-.8.5-.2.2-.4.5-.5.8-.1.3-.2.6-.2.9l4.9.1z"/><path id="XMLID_23805_" d="M-33.2 234.2h-1.2V233c-.3.5-.6.8-1 1.1-.4.2-.8.4-1.3.4-.6 0-1-.1-1.5-.3-.4-.2-.8-.5-1.1-.9-.3-.4-.5-.8-.7-1.4-.1-.5-.2-1.1-.2-1.7 0-.6.1-1.1.2-1.7.1-.5.4-1 .6-1.4.3-.4.6-.7 1.1-.9s.9-.3 1.5-.3c.2 0 .4 0 .6.1l.6.3c.2.1.4.3.6.4.2.2.4.3.5.5v-4.4h1.2v11.4h.1zm-1.2-4.2c0-.4-.1-.8-.2-1.2-.1-.4-.3-.7-.4-1-.2-.3-.4-.5-.7-.7-.3-.2-.6-.2-.9-.2-.4 0-.7.1-.9.2-.3.2-.5.4-.7.7s-.3.6-.4 1c-.1.4-.2.8-.2 1.2s.1.9.2 1.2c.1.4.2.7.4 1s.4.5.7.7c.3.2.6.2.9.2.4 0 .7-.1 1-.2.3-.2.5-.4.7-.7s.3-.6.4-1c.1-.4.1-.8.1-1.2z"/><path id="XMLID_23802_" d="M-25.3 222.8h1.2v4.5c.1-.2.3-.4.5-.5.2-.2.4-.3.6-.4l.6-.3c.2-.1.4-.1.6-.1.6 0 1.1.1 1.5.3s.8.5 1.1.9c.3.4.5.8.6 1.4.1.5.2 1.1.2 1.7 0 .6-.1 1.1-.2 1.7-.1.5-.4 1-.6 1.4-.3.4-.6.7-1.1.9-.4.2-.9.3-1.5.3-.2 0-.4 0-.6-.1-.2-.1-.4-.1-.6-.3-.2-.1-.4-.3-.6-.4-.2-.2-.3-.4-.5-.6v1.2h-1.2v-11.6zm1.2 7.3c0 .4 0 .9.1 1.2.1.4.2.7.4 1s.4.5.7.7.6.2.9.2c.4 0 .7-.1 1-.2.3-.2.5-.4.7-.7s.3-.6.4-1c.1-.4.2-.8.2-1.2 0-.4-.1-.9-.2-1.2-.1-.4-.2-.7-.4-1-.2-.3-.4-.5-.7-.7s-.6-.2-1-.2c-.3 0-.7.1-.9.2-.3.2-.5.4-.7.7-.2.3-.3.6-.4 1-.1.4-.2.8-.1 1.2z"/><path id="XMLID_23800_" d="M-13.5 232.7l2.3-6.7h1.3l-3.5 10c-.1.3-.2.6-.4.8-.1.2-.3.4-.5.5-.2.1-.3.2-.5.3-.2.1-.3.1-.5.1h-.4c-.1 0-.3-.1-.4-.1v-1.1c.1 0 .2.1.3.1s.3.1.4.1c.1 0 .3 0 .4-.1l.3-.3c.1-.1.2-.3.2-.4.1-.1.1-.3.1-.4l.4-1.2-3.2-8.3h1.3l2.4 6.7z"/></g></g><path class="st0" d="M-144 279.8h-4.9v-39.4h4.9l13.3 23.2-2.7 4.8L-144 250v29.8zm11.3-.1h-5.5l22.7-39.4h4.7v39.5h-4.8V250l-17.1 29.7z"/><path class="st0" d="M-126.2 271.5l-2.7 4.7 1.9 3.5h5.4l-4.6-8.2z"/><path d="M-104.6 249h2.1v1.4c.7-1.1 1.6-1.6 2.7-1.6.6 0 1 .1 1.4.4.4.3.7.7 1 1.2.4-.5.8-1 1.2-1.2.4-.3.9-.4 1.4-.4.6 0 1.2.2 1.6.5.4.3.8.8 1 1.4.2.4.2 1.2.2 2.1v6.6h-2.3v-5.9c0-1-.1-1.7-.2-2-.2-.4-.5-.6-1-.6-.3 0-.6.1-.9.3-.3.2-.5.6-.6 1-.1.4-.2 1.2-.2 2.1v4.9h-2.3v-5.6c0-1 0-1.6-.1-1.9-.1-.3-.2-.5-.4-.6-.2-.1-.4-.2-.7-.2-.4 0-.7.1-.9.3s-.5.6-.6 1c-.1.4-.2 1.1-.2 2.1v5h-2.3V249zm14.4 5c0-.9.2-1.8.6-2.6.4-.8.9-1.5 1.6-1.9.7-.4 1.4-.7 2.3-.7 1.3 0 2.4.5 3.2 1.5.8 1 1.2 2.3 1.2 3.8 0 1.6-.4 2.8-1.3 3.9-.8 1-1.9 1.5-3.2 1.5-.8 0-1.5-.2-2.3-.6-.7-.4-1.3-1.1-1.6-1.9-.3-.8-.5-1.8-.5-3zm2.3.2c0 1 .2 1.8.6 2.3.4.5.9.8 1.5.8s1.1-.3 1.5-.8c.4-.5.6-1.3.6-2.4 0-1-.2-1.8-.6-2.3-.4-.5-.9-.8-1.5-.8s-1.1.3-1.5.8c-.4.6-.6 1.4-.6 2.4zm16.2 5.1h-2.1v-1.5c-.4.6-.8 1-1.2 1.3-.5.3-1 .4-1.4.4-1 0-1.8-.5-2.5-1.4-.7-1-1.1-2.3-1.1-4 0-1.7.3-3.1 1-4 .7-.9 1.6-1.4 2.6-1.4s1.8.5 2.5 1.4V245h2.3v14.3zm-6.1-5.3c0 1.1.1 1.9.4 2.4.4.7.9 1.1 1.5 1.1.5 0 1-.3 1.3-.8.4-.5.6-1.3.6-2.4 0-1.2-.2-2-.5-2.6-.4-.5-.8-.8-1.4-.8-.5 0-1 .3-1.4.8-.3.5-.5 1.2-.5 2.3zm13.3 2l2.3.5c-.3 1-.8 1.8-1.4 2.3-.6.5-1.4.8-2.4.8-1.5 0-2.6-.6-3.3-1.8-.6-.9-.8-2.1-.8-3.5 0-1.7.4-3 1.1-4 .7-1 1.7-1.4 2.8-1.4 1.3 0 2.3.5 3 1.5.7 1 1.1 2.6 1.1 4.6h-5.7c0 .8.2 1.4.5 1.9.4.4.8.7 1.3.7.4 0 .7-.1.9-.3.3-.4.5-.7.6-1.3zm.1-2.7c0-.8-.2-1.4-.5-1.8-.3-.4-.7-.6-1.2-.6s-.9.2-1.2.6c-.3.4-.5 1-.5 1.8h3.4zm6.3 6h-2.3V249h2.1v1.5c.4-.7.7-1.1 1-1.4.3-.2.6-.3 1-.3.5 0 1 .2 1.5.5l-.7 2.4c-.4-.3-.7-.4-1.1-.4-.3 0-.6.1-.8.3-.2.2-.4.6-.5 1.1-.1.5-.2 1.7-.2 3.5v3.1zm12.1 0h-2.3V254c0-1.1 0-1.8-.1-2.2-.1-.3-.3-.6-.5-.8-.2-.2-.5-.3-.8-.3-.4 0-.7.1-1.1.4-.3.3-.5.6-.6 1-.1.4-.2 1.2-.2 2.4v4.7h-2.3V249h2.1v1.5c.7-1.2 1.7-1.7 2.8-1.7.5 0 1 .1 1.4.3.4.2.7.5.9.8.2.3.4.7.4 1.1.1.4.1 1 .1 1.8v6.5zm8.6-7.1l-2.1-.4c.2-1 .6-1.7 1.2-2.2.6-.5 1.4-.7 2.5-.7 1 0 1.8.1 2.3.4.5.3.8.7 1 1.1.2.4.3 1.3.3 2.4v3.2c0 .9 0 1.6.1 2 .1.4.2.9.4 1.4h-2.2c-.1-.2-.1-.4-.2-.8 0-.2-.1-.3-.1-.3-.4.5-.8.8-1.2 1-.4.2-.9.3-1.4.3-.9 0-1.6-.3-2.1-.9-.5-.6-.8-1.3-.8-2.2 0-.6.1-1.1.3-1.6.2-.5.6-.8 1-1 .4-.2 1-.5 1.8-.6 1.1-.2 1.8-.5 2.2-.7v-.3c0-.5-.1-.9-.3-1.1-.2-.2-.6-.3-1.2-.3-.4 0-.7.1-.9.3-.3.2-.4.5-.6 1zm3.1 2.2c-.3.1-.8.3-1.4.4-.6.2-1 .3-1.2.5-.3.3-.4.6-.4 1s.1.7.4 1c.2.3.5.4.9.4s.8-.2 1.2-.5c.3-.2.5-.5.5-.9.1-.2.1-.7.1-1.3v-.6zm6.6 4.9H-30V249h2.1v1.5c.4-.7.7-1.1 1-1.4.3-.2.6-.3 1-.3.5 0 1 .2 1.5.5l-.7 2.4c-.4-.3-.7-.4-1.1-.4-.3 0-.6.1-.8.3-.2.2-.4.6-.5 1.1-.1.5-.2 1.7-.2 3.5v3.1zm6-7.1l-2.1-.4c.2-1 .6-1.7 1.2-2.2.6-.5 1.4-.7 2.5-.7 1 0 1.8.1 2.3.4.5.3.8.7 1 1.1.2.4.3 1.3.3 2.4v3.2c0 .9 0 1.6.1 2 .1.4.2.9.4 1.4h-2.2c-.1-.2-.1-.4-.2-.8 0-.2-.1-.3-.1-.3-.4.5-.8.8-1.2 1-.4.2-.9.3-1.4.3-.9 0-1.6-.3-2.1-.9-.5-.6-.8-1.3-.8-2.2 0-.6.1-1.1.3-1.6.2-.5.6-.8 1-1 .4-.2 1-.5 1.8-.6 1.1-.2 1.8-.5 2.2-.7v-.3c0-.5-.1-.9-.3-1.1-.2-.2-.6-.3-1.2-.3-.4 0-.7.1-.9.3-.3.2-.5.5-.6 1zm3 2.2c-.3.1-.8.3-1.4.4-.6.2-1 .3-1.2.5-.3.3-.4.6-.4 1s.1.7.4 1c.2.3.5.4.9.4s.8-.2 1.2-.5c.3-.2.5-.5.5-.9.1-.2.1-.7.1-1.3v-.6zm4.4 4.9v-14.2h2.3v5.1c.7-1 1.5-1.4 2.5-1.4s1.9.5 2.6 1.4c.7.9 1 2.2 1 3.9 0 1.8-.3 3.1-1 4.1-.7.9-1.5 1.4-2.5 1.4-.5 0-1-.1-1.5-.4-.5-.3-.9-.7-1.2-1.3v1.5h-2.2zm2.3-5.3c0 1.1.1 1.9.4 2.4.4.7.9 1.1 1.6 1.1.5 0 .9-.3 1.3-.8s.5-1.3.5-2.4c0-1.2-.2-2-.5-2.5-.4-.5-.8-.8-1.4-.8-.5 0-1 .3-1.4.8-.4.3-.5 1.1-.5 2.2zm20-1.9l-2.2.5c-.1-.5-.2-.9-.5-1.2-.3-.3-.6-.4-1-.4-.6 0-1 .2-1.4.7-.3.5-.5 1.3-.5 2.4 0 1.2.2 2.1.5 2.6s.8.8 1.4.8c.4 0 .8-.1 1.1-.4.3-.3.5-.8.6-1.5l2.2.5c-.2 1.2-.7 2.2-1.3 2.8-.7.6-1.5.9-2.6.9-1.3 0-2.3-.5-3-1.4-.7-.9-1.1-2.3-1.1-3.9 0-1.7.4-3 1.1-4 .7-.9 1.8-1.4 3-1.4 1 0 1.9.3 2.5.8.5.2.9 1.1 1.2 2.2zm1.2 1.9c0-.9.2-1.8.6-2.6.4-.8.9-1.5 1.6-1.9.7-.4 1.4-.7 2.3-.7 1.3 0 2.4.5 3.2 1.5.8 1 1.2 2.3 1.2 3.8 0 1.6-.4 2.8-1.3 3.9-.8 1-1.9 1.5-3.2 1.5-.8 0-1.5-.2-2.3-.6-.7-.4-1.3-1.1-1.6-1.9-.3-.8-.5-1.8-.5-3zm2.3.2c0 1 .2 1.8.6 2.3.4.5.9.8 1.5.8s1.1-.3 1.5-.8c.4-.5.6-1.3.6-2.4 0-1-.2-1.8-.6-2.3-.4-.5-.9-.8-1.5-.8s-1.1.3-1.5.8c-.4.6-.6 1.4-.6 2.4zm8.4 5.1v-2.7h2.3v2.7h-2.3z"/><path class="st0" d="M-73.8 257.2h3v2.1h-3zm-1.9-12.1h4v2.1h-4zm-30.8 3.9h4v2.1h-4zm58.2 8.2h4v2.1h-4zm32.2-12.1h4v2.1h-4zm21.6 7H8v1.9H5.5zm-99.7 5.1h4v2.1h-4zm33-8.2h3v2.1h-3zm6.8 0h2.6v2.1h-2.6zm23.6 0h3v2.1h-3z"/><path class="st1" d="M-101.8 278.2c-.6 0-1.1-.1-1.5-.3-.4-.2-.7-.5-1-.8s-.5-.7-.6-1.1c-.1-.4-.2-.8-.2-1.2 0-.5.1-1 .2-1.5.2-.5.4-.9.6-1.3.3-.4.6-.7 1-.9.4-.2.8-.3 1.3-.3.4 0 .8.1 1.1.2.3.2.6.4.9.7.2.3.4.7.6 1.1.1.4.2.9.2 1.4v2h1c.1 0 .2 0 .3.1.1.1.1.2.1.3v1c0 .1 0 .2-.1.3-.1.1-.2.2-.3.2h-3.6zm-2.2-9.4c0-.3.1-.5.2-.7.2-.2.4-.3.6-.3.3 0 .5.1.6.3.2.2.2.4.2.7 0 .3-.1.5-.2.7-.2.2-.4.3-.6.3-.3 0-.5-.1-.6-.3-.1-.2-.2-.5-.2-.7zm3.2 7.5v-1.5c0-.6-.1-1.1-.3-1.5-.2-.3-.5-.5-.9-.5-.2 0-.3 0-.5.1s-.3.2-.4.4-.2.3-.3.6c-.1.2-.1.5-.1.7 0 .3 0 .6.1.8.1.2.2.4.3.5.1.1.3.2.5.3.2.1.4.1.6.1h1zm-.9-7.5c0-.3.1-.5.2-.7.2-.2.4-.3.6-.3.3 0 .5.1.6.3.2.2.2.4.2.7 0 .3-.1.5-.2.7-.2.2-.4.3-.6.3-.3 0-.5-.1-.6-.3-.1-.2-.2-.5-.2-.7z"/><path class="st1" d="M-98.2 278.2c-.2 0-.3 0-.3-.1s-.1-.2-.1-.3v-1c0-.1 0-.2.1-.4.1-.1.2-.2.3-.2h1.4c.2 0 .4-.1.4-.2.1-.2.1-.4.1-.6v-3.9h1.7v3.2c0 .5.1.8.3 1.1.2.3.5.4 1 .4h.5c.2 0 .3 0 .3.1s.1.2.1.3v1c0 .1 0 .2-.1.3-.1.1-.2.2-.3.2h-.6c-.4 0-.8-.1-1-.4s-.5-.5-.6-.8c-.2.3-.4.6-.7.8-.3.2-.6.3-1.1.3h-1.4zm1-9.4c0-.3.1-.5.2-.7.2-.2.4-.3.6-.3.3 0 .5.1.6.3.2.2.2.4.2.7 0 .3-.1.5-.2.7-.2.2-.4.3-.6.3-.3 0-.5-.1-.6-.3-.2-.2-.2-.5-.2-.7zm1.1-2.2c0-.3.1-.5.3-.7.2-.2.4-.3.6-.3.2 0 .5.1.6.3.2.2.3.4.3.7 0 .3-.1.5-.3.7-.2.2-.4.3-.6.3-.3 0-.5-.1-.6-.3-.2-.2-.3-.4-.3-.7zm1.1 2.2c0-.3.1-.5.2-.7.2-.2.4-.3.6-.3.3 0 .5.1.6.3.2.2.2.4.2.7 0 .3-.1.5-.2.7-.2.2-.4.3-.6.3-.3 0-.5-.1-.6-.3-.1-.2-.2-.5-.2-.7z"/><path class="st1" d="M-92.9 278.2c-.1 0-.2 0-.3-.1-.1-.1-.1-.2-.1-.3v-1c0-.1 0-.2.1-.4.1-.1.2-.2.3-.2h2v-4.8h1.7v6.8h-3.7zm.1 2.2c0-.3.1-.5.2-.7s.4-.3.6-.3.5.1.6.3.2.4.2.7c0 .3-.1.5-.2.7-.2.2-.4.3-.6.3s-.5-.1-.6-.3c-.1-.2-.2-.4-.2-.7zm2.3 0c0-.3.1-.5.2-.7.2-.2.4-.3.6-.3.3 0 .5.1.6.3.2.2.2.4.2.7 0 .3-.1.5-.2.7-.2.2-.4.3-.6.3-.3 0-.5-.1-.6-.3-.1-.2-.2-.4-.2-.7zm9.7-2.2c-.4 0-.7-.1-1-.3-.3-.2-.5-.5-.6-.8-.2.4-.4.6-.7.8-.3.2-.7.3-1 .3h-3.4v-2h3.3c.2 0 .4-.1.5-.2.1-.1.1-.4.1-.6v-1.2c0-.3-.1-.6-.2-.9-.1-.2-.3-.4-.5-.5-.2-.1-.5-.2-.9-.2h-1.4v-1.9h1.7c.6 0 1 .1 1.4.3.4.2.7.4.9.8.2.3.4.7.5 1.2.1.5.2.9.2 1.5s.1 1 .3 1.3c.2.3.5.5 1 .5h.5c.1 0 .2 0 .3.1.1.1.1.2.1.3v1c0 .1 0 .2-.1.3-.1.1-.2.2-.3.2h-.7z"/><path class="st1" d="M-72.9 277.8c0 .1 0 .2-.1.3-.1.1-.2.2-.3.2h-.3c-.3 0-.6-.1-.9-.2-.3-.1-.6-.3-.7-.5-.2.3-.4.5-.6.6-.2.1-.4.1-.6.1h-3.8c-.1 0-.2 0-.3-.1-.1-.1-.1-.2-.1-.3v-1c0-.1 0-.2.1-.4.1-.1.2-.2.3-.2h4.3c-.1-.2-.2-.4-.2-.7s-.1-.7-.2-1.2c0-.6-.2-1-.4-1.2-.2-.2-.5-.4-.8-.4-.2 0-.4 0-.7.1-.3.1-.6.2-.9.4l-.4-1.9c.1 0 .3-.1.5-.2s.4-.1.6-.2c.2-.1.4-.1.7-.2s.4-.1.6-.1c.5 0 .9.1 1.2.3.3.2.6.4.8.8.2.3.3.6.4 1 .1.4.2.7.2 1.1 0 .2.1.5.1.7 0 .3.1.5.2.8l.3.6c.1.2.3.2.5.2h.3c.2 0 .3 0 .3.1.1.1.1.2.1.3v1.2z"/><path class="st1" d="M-73.4 278.2c-.1 0-.2 0-.3-.1-.1-.1-.1-.2-.1-.3v-1c0-.1 0-.2.1-.4.1-.1.2-.2.3-.2h1.7V266h1.6v12.2h-3.3zm5.7-12.2h1.6v12.2h-1.6V266zm9.6 12.2c-.6 0-1.1-.1-1.5-.3-.4-.2-.7-.5-1-.8s-.5-.7-.6-1.1c-.1-.4-.2-.8-.2-1.2 0-.5.1-1 .2-1.5.2-.5.4-.9.6-1.3.3-.4.6-.7 1-.9.4-.2.8-.3 1.3-.3.4 0 .8.1 1.1.2.3.2.6.4.9.7.2.3.4.7.6 1.1.1.4.2.9.2 1.4v2h1c.1 0 .2 0 .3.1.1.1.1.2.1.3v1c0 .1 0 .2-.1.3-.1.1-.2.2-.3.2h-3.6zm-2.2-9.4c0-.3.1-.5.2-.7.2-.2.4-.3.6-.3.3 0 .5.1.6.3.2.2.2.4.2.7 0 .3-.1.5-.2.7-.2.2-.4.3-.6.3-.3 0-.5-.1-.6-.3-.1-.2-.2-.5-.2-.7zm3.2 7.5v-1.5c0-.6-.1-1.1-.3-1.5-.2-.3-.5-.5-.9-.5-.2 0-.3 0-.5.1s-.3.2-.4.4-.2.3-.3.6c-.1.2-.1.5-.1.7 0 .3 0 .6.1.8.1.2.2.4.3.5.1.1.3.2.5.3.2.1.4.1.6.1h1zm-.9-7.5c0-.3.1-.5.2-.7.2-.2.4-.3.6-.3.3 0 .5.1.6.3.2.2.2.4.2.7 0 .3-.1.5-.2.7-.2.2-.4.3-.6.3-.3 0-.5-.1-.6-.3-.1-.2-.2-.5-.2-.7z"/><path class="st1" d="M-54.5 278.2c-.2 0-.3 0-.3-.1s-.1-.2-.1-.3v-1c0-.1 0-.2.1-.4.1-.1.2-.2.3-.2h1.4c.2 0 .4-.1.4-.2.1-.2.1-.4.1-.6v-3.9h1.7v3.2c0 .5.1.8.3 1.1.2.3.5.4 1 .4h.5c.2 0 .3 0 .3.1s.1.2.1.3v1c0 .1 0 .2-.1.3-.1.1-.2.2-.3.2h-.6c-.4 0-.8-.1-1-.4-.3-.2-.5-.5-.6-.8-.2.3-.4.6-.7.8-.3.2-.6.3-1.1.3h-1.4zm.8 2.2c0-.3.1-.5.2-.7.2-.2.4-.3.6-.3.3 0 .5.1.6.3.2.2.2.4.2.7 0 .3-.1.5-.2.7-.2.2-.4.3-.6.3-.3 0-.5-.1-.6-.3-.2-.2-.2-.4-.2-.7zm2.2 0c0-.3.1-.5.2-.7.2-.2.4-.3.6-.3s.5.1.6.3.2.4.2.7c0 .3-.1.5-.2.7-.2.2-.4.3-.6.3s-.5-.1-.6-.3c-.1-.2-.2-.4-.2-.7z"/><path class="st1" d="M-49.2 278.2c-.1 0-.2 0-.3-.1-.1-.1-.1-.2-.1-.3v-1c0-.1 0-.2.1-.4.1-.1.2-.2.3-.2h2v-4.8h1.7v6.8h-3.7zm1.7 2.2c0-.3.1-.5.3-.7.2-.2.4-.3.6-.3.2 0 .4.1.6.3.2.2.3.4.3.7 0 .3-.1.5-.3.7-.2.2-.4.3-.6.3-.3 0-.5-.1-.6-.3-.2-.2-.3-.4-.3-.7zm8.2-2.2c-.3 0-.5-.1-.8-.2-.2-.1-.4-.3-.6-.5v.5c0 .5-.1 1-.2 1.4-.1.4-.3.8-.5 1.2-.2.3-.5.6-.9.8-.3.2-.7.3-1.2.3h-.5c-.2 0-.3 0-.4-.1h-.2c-.1 0-.1 0-.2-.1l.2-1.9.4.1c.1 0 .2 0 .4.1h.4c.4 0 .7-.2.9-.5.1-.3.2-.8.2-1.4v-6.4h1.7v3.2c0 .5.1.8.3 1.1.2.3.5.4 1 .4h.5c.2 0 .3 0 .3.1s.1.2.1.3v1c0 .1 0 .2-.1.3-.1.1-.2.2-.3.2h-.5z"/><path class="st1" d="M-38.9 278.2c-.1 0-.2 0-.3-.1-.1-.1-.1-.2-.1-.3v-1c0-.1 0-.2.1-.4.1-.1.2-.2.3-.2h2.1c.2 0 .3-.1.4-.1-.2-.2-.3-.4-.5-.6-.2-.2-.3-.5-.5-.7-.1-.2-.3-.5-.4-.7-.1-.2-.2-.4-.2-.5l-.1-1.4c.2-.2.5-.4.7-.6.3-.2.6-.3.9-.5l.9-.3c.3-.1.6-.1 1-.1.5 0 .9.1 1.3.2s.7.3.9.5c.2.2.4.4.5.6.1.2.2.5.2.7 0 .5-.1 1-.3 1.6-.2.6-.6 1.2-1.3 1.9.2 0 .5.1 1 .1h1.2c.2 0 .3 0 .3.1.1.1.1.2.1.3v1c0 .1 0 .2-.1.3-.1.1-.2.2-.3.2h-1.3c-.7 0-1.2-.1-1.6-.2-.4-.2-.8-.3-1-.5-.4.3-.8.4-1.2.5-.4.1-.9.2-1.3.2h-1.4zm4.3-5.6c-.3 0-.7 0-1 .1-.4.1-.7.2-.9.4 0 .1.1.3.2.4.1.2.2.4.4.6s.3.4.5.7l.5.5c.2-.1.4-.3.6-.5.2-.2.4-.4.5-.6l.3-.6c.1-.2.1-.4.1-.5 0-.1 0-.2-.1-.2-.1-.1-.2-.1-.3-.1-.1 0-.3-.1-.4-.1-.1-.1-.2-.1-.4-.1z"/><path class="st1" d="M-31.1 278.2c-.1 0-.2 0-.3-.1-.1-.1-.1-.2-.1-.3v-1c0-.1 0-.2.1-.4.1-.1.2-.2.3-.2h1.7V266h1.6v12.2h-3.3zm5.7-12.2h1.6v12.2h-1.6V266zm9.7 12.2c-.6 0-1.1-.1-1.5-.3-.4-.2-.7-.5-1-.8s-.5-.7-.6-1.1c-.1-.4-.2-.8-.2-1.2 0-.5.1-1 .2-1.5.2-.5.4-.9.6-1.3.3-.4.6-.7 1-.9.4-.2.8-.3 1.3-.3.4 0 .8.1 1.1.2.3.2.6.4.9.7.2.3.4.7.6 1.1.1.4.2.9.2 1.4v2h1c.1 0 .2 0 .3.1.1.1.1.2.1.3v1c0 .1 0 .2-.1.3-.1.1-.2.2-.3.2h-3.6zm-2.3-9.4c0-.3.1-.5.2-.7.2-.2.4-.3.6-.3.3 0 .5.1.6.3s.2.4.2.7c0 .3-.1.5-.2.7-.2.2-.4.3-.6.3-.3 0-.5-.1-.6-.3-.1-.2-.2-.5-.2-.7zm3.2 7.5v-1.5c0-.6-.1-1.1-.3-1.5-.2-.3-.5-.5-.9-.5-.2 0-.3 0-.5.1s-.3.2-.4.4-.2.3-.3.6c-.1.2-.1.5-.1.7 0 .3 0 .6.1.8.1.2.2.4.3.5.1.1.3.2.5.3.2.1.4.1.6.1h1zm-.9-7.5c0-.3.1-.5.2-.7.2-.2.4-.3.6-.3s.5.1.6.3.2.4.2.7c0 .3-.1.5-.2.7-.2.2-.4.3-.6.3s-.5-.1-.6-.3c-.1-.2-.2-.5-.2-.7z"/><path class="st1" d="M-12.2 278.2c-.1 0-.2 0-.3-.1-.1-.1-.1-.2-.1-.3v-1c0-.1 0-.2.1-.4.1-.1.2-.2.3-.2h4.5v-1.6c0-.4 0-.7-.1-1-.1-.2-.2-.4-.4-.5-.2-.1-.3-.2-.5-.2h-2.5v-1.7l2.8-5.3L-7 267l-2.2 4h.1c.4 0 .8.1 1.1.2.4.1.7.3 1 .5.3.3.5.6.7 1.1.2.5.3 1 .3 1.7v3.8h-6.2zm12.3 0c-.3 0-.5-.1-.8-.2-.2-.1-.4-.3-.6-.5v.5c0 .5-.1 1-.2 1.4-.1.4-.3.8-.5 1.2s-.5.6-.9.8c-.3.2-.7.3-1.2.3h-.5c-.2 0-.3 0-.4-.1h-.2c-.1 0-.1 0-.2-.1l.2-1.9.4.1c.1 0 .2 0 .4.1h.4c.4 0 .7-.2.9-.5.1-.3.2-.8.2-1.4v-6.4h1.7v3.2c0 .5.1.8.3 1.1.2.3.5.4 1 .4h.5c.2 0 .3 0 .3.1s.1.2.1.3v1c0 .1 0 .2-.1.3-.1.1-.2.2-.3.2H.1z"/><path class="st1" d="M.5 278.2c-.2 0-.3 0-.3-.1-.1-.1-.1-.2-.1-.3v-1c0-.1 0-.2.1-.4.1-.1.2-.2.3-.2H3c.2 0 .4-.1.5-.2.1-.1.1-.3.1-.6V273h1.6v1.7c0 .4.1.8.3 1.1.2.3.5.5 1 .5h.3c.2 0 .4-.1.4-.2.1-.2.1-.4.1-.6v-3H9v2.3c0 .5.1.8.3 1.1.2.3.5.4 1 .4h.3c.2 0 .4-.1.5-.2.1-.2.1-.4.1-.6v-3.9h1.6v3.2c0 .5.1.8.3 1.1.2.3.5.4 1 .4h.6c.2 0 .3 0 .3.1.1.1.1.2.1.3v1c0 .1 0 .2-.1.3-.1.1-.2.2-.3.2h-.6c-.4 0-.8-.1-1-.3-.3-.2-.5-.5-.6-.8-.2.4-.4.6-.7.8-.3.2-.7.3-1.1.3h-.4c-.4 0-.8-.1-1-.3-.2-.2-.4-.5-.6-.8-.2.4-.4.7-.8.8-.3.2-.7.3-1 .3h-.4c-.4 0-.8-.1-1-.3-.3-.2-.4-.5-.6-.8-.2.4-.4.7-.8.8-.3.2-.7.3-1.1.3H.5zm5.8-9.4c0-.3.1-.5.2-.7.2-.2.4-.3.6-.3.3 0 .5.1.6.3.2.2.2.4.2.7 0 .3-.1.5-.2.7-.2.2-.4.3-.6.3-.3 0-.5-.1-.6-.3-.1-.2-.2-.5-.2-.7zm1.2-2.2c0-.3.1-.5.3-.7.2-.2.4-.3.6-.3.2 0 .5.1.6.3.2.2.3.4.3.7 0 .3-.1.5-.3.7-.2.2-.4.3-.6.3-.3 0-.5-.1-.6-.3-.3-.2-.3-.4-.3-.7zm1.1 2.2c0-.3.1-.5.2-.7.2-.2.4-.3.6-.3.3 0 .5.1.6.3.2.2.2.4.2.7 0 .3-.1.5-.2.7-.2.2-.4.3-.6.3-.3 0-.5-.1-.6-.3-.1-.2-.2-.5-.2-.7z"/><path class="st1" d="M14.7 278.2c-.1 0-.2 0-.3-.1-.1-.1-.1-.2-.1-.3v-1c0-.1 0-.2.1-.4.1-.1.2-.2.3-.2h1.7V266H18v12.2h-3.3zm5.7-12.2H22v12.2h-1.6V266z"/></svg>