<svg id="Layer_1" xmlns="http://www.w3.org/2000/svg" viewBox="0 0 57 51.4"><style>.st0{fill:#fff}</style><g id="cart"><path class="st0" d="M.2 2.7c.4.9 1.1 1.1 2 1.1h3.7c1.8 0 2.8.7 3.3 2.4.5 1.8.9 3.6 1.3 5.4 1.3 5.7 2.6 11.4 3.9 17 .3 1.2.6 2.5 1.1 3.7 1.4 3.7 4 5.6 7.9 5.7 6.5.1 13 0 19.5 0 3.4 0 6-1.5 7.7-4.5.9-1.7 1.6-3.4 2.4-5.1 1.1-2.5 2.1-5.1 3.2-7.6.7-1.9 1-3.9.6-5.9-.7-3.2-2.8-5.1-6.2-5.3-3.4-.2-6.9-.1-10.3-.1-1 0-1.4.4-1.4 1.1 0 .8.6 1.5 1.5 1.5h8.7c.6 0 1.1 0 1.7.1 2 .4 3.2 1.8 3.3 4 .1 1.3-.1 2.5-.6 3.7-1.5 3.6-3 7.2-4.6 10.8-.3.7-.7 1.3-1.1 2-1.1 1.8-2.8 2.7-4.9 2.7H24.1c-.7 0-1.3 0-2-.2-1.8-.3-3.2-1.4-3.9-3.1-.6-1.5-1-3-1.3-4.6-1.6-7-3.2-14.1-4.9-21.1-.1-.6-.3-1.2-.6-1.7-1-2.2-2.7-3.4-5.2-3.5-1.6-.1-3.2 0-4.8 0-.6 0-1.1.2-1.4.8.2.2.2.5.2.7z"/><path class="st0" d="M34.3 17.3V2c0-1.5-1.4-2.4-2.7-1.8-.8.4-1 1.1-1 1.9V17h-3.7c-.9 0-1.6.4-1.9 1.2-.3.8-.1 1.7.6 2.3 1.3 1.2 2.7 2.3 4.1 3.4l1.8 1.5c.9.7 1.8.7 2.7 0 1.9-1.6 3.8-3.3 5.6-4.9.3-.3.6-.7.7-1.2.3-1.3-.4-2.1-1.7-2.1h-3.7c-.3.1-.5.1-.8.1zm-11 34.1c-3.1 0-5.7-2.5-5.7-5.7 0-3.1 2.5-5.7 5.6-5.7 3.2 0 5.7 2.5 5.7 5.6.1 3.2-2.5 5.8-5.6 5.8zm0-2.6c1.5 0 2.9-1.3 2.9-2.9 0-1.5-1.3-2.8-2.8-2.8s-2.9 1.3-2.9 2.9 1.2 2.8 2.8 2.8zm18 2.6c-3 0-5.7-2.7-5.7-5.7 0-3.1 2.6-5.7 5.7-5.6 3.1 0 5.6 2.6 5.6 5.7.1 3-2.5 5.6-5.6 5.6zm2.9-5.4c0-1.5-1.3-2.9-2.9-2.9-1.5 0-2.8 1.3-2.8 2.8 0 1.6 1.2 2.9 2.8 2.9 1.5 0 2.9-1.3 2.9-2.8z"/></g></svg>