<svg id="Layer_1" xmlns="http://www.w3.org/2000/svg" viewBox="-250 401.4 39.1 38.9"><style>.st0{fill:#dedad7}</style><path class="st0" d="M-218 440.4c-3.8 0-6.8-2.8-7.1-6.6 0-.3-.1-.5-.4-.6-4.2-2.1-8.5-4.2-12.7-6.3-.3-.1-.4-.1-.7 0-4.1 2.8-9.6.8-10.9-4-.7-2.7 0-5.2 2.1-7.1 2-1.9 4.5-2.3 7.1-1.5.9.3 1.7.8 2.4 1.4.3.3.5.3.8.1 4-2.1 7.9-4.2 11.9-6.2.2-.1.3-.3.3-.5 0-1 .1-1.9.4-2.8 1.1-3.1 4.3-5.1 7.4-4.8 3.5.3 6.6 3.5 6.4 7.4s-3.4 6.6-6.6 6.8c-1.9.1-3.5-.4-5-1.6-.2-.1-.3-.1-.5 0l-12.6 6.6c-.1.1-.3.2-.3.3-.1.4-.1.8-.1 1.2 0 .1.2.3.3.3l7.2 3.6c1.4.7 2.9 1.4 4.3 2.2.6.3 1 .3 1.5-.2.8-.7 1.6-1.2 2.7-1.5 4.9-1.2 8.5 2.1 9 5.9.5 3.7-2.2 7.3-5.9 7.9h-1z"/></svg>