<svg id="Layer_1" xmlns="http://www.w3.org/2000/svg" viewBox="0 0 47.4 45.1"><style>.st0{fill:red}</style><path class="st0" d="M0 4.4c.3.7.9 1 1.7.9h3.1c1.5 0 2.3.6 2.7 2 .4 1.5.8 3 1.1 4.5 1.1 4.8 2.2 9.5 3.3 14.3.2 1 .5 2.1.9 3.1 1.2 3.1 3.3 4.7 6.6 4.7 5.4.1 10.9 0 16.3 0 2.9 0 5.1-1.3 6.4-3.8.8-1.4 1.4-2.8 2-4.3.9-2.1 1.8-4.3 2.6-6.4.6-1.6.9-3.3.5-4.9-.6-2.6-2.4-4.3-5.1-4.4-2.9-.2-5.7-.1-8.6-.1-.8 0-1.2.3-1.2 1s.5 1.2 1.3 1.2h7.3c.5 0 .9 0 1.4.1 1.7.3 2.7 1.5 2.8 3.4.1 1.1-.1 2.1-.5 3.1-1.3 3-2.5 6-3.8 9-.2.6-.6 1.1-.9 1.7-.9 1.5-2.3 2.3-4.1 2.3H20.1c-.6 0-1.1 0-1.7-.1-1.5-.3-2.7-1.1-3.2-2.6-.5-1.2-.8-2.5-1.1-3.8-1.4-5.9-2.7-11.8-4.1-17.6-.1-.5-.3-1-.5-1.5-.8-1.9-2.3-2.8-4.3-2.9-1.3-.1-2.7 0-4 0-.5 0-.9.2-1.1.6-.1 0-.1.2-.1.5z"/><path class="st0" d="M25.7 7.4v12.8c0 1.3 1.2 2 2.3 1.5.6-.3.9-.9.9-1.6V7.6H32c.8 0 1.4-.4 1.6-1 .3-.7.1-1.4-.5-1.9-1.1-1-2.3-1.9-3.4-2.9-.5-.4-1-.8-1.5-1.3-.7-.6-1.5-.6-2.2 0-1.6 1.4-3.2 2.7-4.7 4.1-.3.2-.5.6-.6 1-.2 1 .4 1.8 1.4 1.8h3.6zm-6.3 37.7c-2.6 0-4.8-2.1-4.8-4.7s2.1-4.7 4.7-4.8c2.6 0 4.8 2.1 4.8 4.7s-2.2 4.8-4.7 4.8zm-.1-2.2c1.3 0 2.4-1.1 2.4-2.4 0-1.3-1.1-2.4-2.4-2.4-1.3 0-2.4 1.1-2.4 2.4 0 1.4 1.1 2.4 2.4 2.4zm15.1 2.2c-2.5 0-4.8-2.2-4.7-4.8 0-2.6 2.2-4.7 4.8-4.7 2.6 0 4.7 2.2 4.7 4.8 0 2.5-2.2 4.7-4.8 4.7zm2.4-4.6c0-1.3-1.1-2.4-2.4-2.4s-2.4 1-2.4 2.4 1 2.4 2.3 2.4c1.4 0 2.5-1.1 2.5-2.4z"/></svg>