<svg id="Layer_1" xmlns="http://www.w3.org/2000/svg" viewBox="0 0 611.3 660"><style>.st0{fill:#f0eeed}</style><path class="st0" d="M585.3 382.1c-5.2-2.3-10.6-3.9-15.8-6-7.9-3.1-9.6-10.8-7.4-18.8 3.9-14.5 24.1-18.1 27.9-32 1.7-6.3.2-14.1-.7-20.4-1.3-9.1-3.6-18.3-7.6-26.7-3.5-7.3-8.7-13.6-14.3-19.2-6.1-6.2-16-4.5-21.8-10.8-6.5-7-1.9-17.1 5.2-20.7 4.4-2.2 9.6-3.4 13.5-6.6 7.6-6.1 4.5-21.9-5.3-24.4-14.8-3.7-27.1 12.4-42.1 9.2-21.8-4.7-.7-39.9 3.9-50.3 6.2-13.8 14.1-28 16.2-43.2 1.1-8.3-5.9-16.3-14.2-16.9-9.1-.6-17.3 4.6-24.4 9.7-9.7 7-18.3 15.5-27.9 22.6-8.7 6.5-18.5 10.8-23.4-1.9-.1-.4-.2-.8-.4-1.1 5 0 6.9-.2 10.1-5.8 2.7-4.7 4.2-14.1-1.7-17.2-10-5.3-15.9-1.6-19 8.4-2.7 8.8-17.7-.4-18.6-7.3-1.1-7.6 4.1-16.6 6.7-23.5 4.1-11 10.3-23.2 10.6-35.1.2-12.6-13.3-11.6-22-9.2-13.3 3.7-12.2 18-11.5 29 .6 9.9-.2 17.9-10 22.8-8.8 4.4-16.3-7.1-20.2-13.1-5.8-8.8-11.1-21.6-24-17.7-2.8.9-5.1 3.1-6.9 5.3-6.2 7.6-13.5 7.4-21.3 2.3-7.5-4.9-22.3-2.2-30 1.2-9.2 4.1-15 14.4-23.3 20-3.6 2.4-16.8 10.9-20.9 6-2.3-2.7-1.3-8.5-1.3-11.7 0-9.6-3.1-14.8-11.1-20.3-6.5-4.5-13.6-2-18 3.9-7.6 10.2-7.9 25.4-12.9 36.9-5.4 12.4-16.4 15.5-27.7 21.1-.3.2-1.3.7-1.1 1.3.8 1.5 1.5 3.2 2.5 4.6 1.2 1.9 2.4 3.3 3 4.6l-2.7 2.1c-2.9 2.2-5.8 4.4-8.9 6.2-2.6.2-5.3-.1-8-.6-7.8-1.7-14.8-6.3-21.6-10.6-6.6-8.7-12.5-18.9-23.9-20.7-5-.8-16.3-1.9-18.9 4.3-2.4 5.8 5.9 14.2 9.1 18.1 2.6 3.2 5.3 6.3 8.1 9.4 3.9 6.8 10.8 14 16.4 20.8 4.6 8.7 9.3 24.7-7.1 20.4-7.3-1.9-19.4-15.1-27.5-9.8-3.3 2.1-5.7 7.5-5 11.4 1.2 6.6 9.6 8.2 14.2 11.9 9 7.2-5.1 16.1-8.8 21.2-3.1 4.3-2.3 11.4-1.6 16.4.2 1.2.5 2.2.9 3.2-1.6 4.5-3.3 8.9-6.2 12.8-11.7 15.5-33 9.3-47.7 18.9-10.4 6.8-5.9 21.2 4.6 24.3 6.2 1.8 14.1.7 19 5.6 4.9 4.8 1.1 11.2-3 14.7-9.4 7.8-22.6 11.5-33.6 16.3-7.3 3.2-18.4 7.6-21.1 16-2.6 8.2 7.1 15.5 14.1 16.6 12.7 2.1 27-8.2 37.5-14 7.2-4 14.4-7.9 22.3-10.3 4.1-1.2 8.4-1.7 12.6-.6 1.4.3.4 6.4 1 8.1 2.2 6.7-.4 16.1-1.7 22.7-1.7 8.8-4.1 17.8-7.9 26-2.2 4.8-8.5 7.2-12.9 9.8-4.9 3-9.8 6.1-14 10-9.8 9.4 7 11.7 13.4 12.1 6.5.4 12.9-.2 18.8-3 4.9-2.3 7.9-7.7 13.8-5.6 9.8 3.5 18.7 13.5 25.5 20.8 7.5 8.1 17.6 22.3 13.7 34-4.4 13-17.1 21.9-20.7 35.5-2.5 9.4 4 21.1 15.2 18.7 5.5-1.2 9.7-5 13.8-8.6 2.4-2.1 4.8-4 7.7-5.4 4.5-2.2 14.1 2.7 14.3 8.1.1 3.5-1.2 6.9-2.3 10.4l-1.8 2.1c-.4.5.1.9.5.9.2 0 .3.1.5.1-.2 1.3-.4 2.6-.3 3.9.3 6.3 6 8.5 11.4 9.2.9.1 1.8-.4 2.2-1.1 1.4 5.3 1.2 11.6.6 17.6-.8 7.7-4 20.3 2.7 26.3 6.9 6.2 21.4.3 27.7-3.8 8.5-5.5 10.5-15 12.2-24.3.9-4.8 1.9-10.2 8.1-9.7 10.2 1 21.5 7.9 29.7 13.5 17.3 11.6 32 27.4 52.8 32.8 9.2 2.4 28.3-2.5 20.1-15.2-1.6-2.5-4-4.5-5.9-6.8-3.9-4.8 2.8-12 6.2-15.2 7.8-7.2 24.1 10.7 29.8 14.6 6.4 4.4 13.5 8.4 18.8 14.2 3.8 4.1 4 10.1 4.7 15.3 2 14.8 3.4 37.5 18.3 45.7 8.7 4.8 24.3 8.7 29.3-3 6.1-14.1-4.8-28.1-9.7-40.8.6-.3 1-.8.7-1.3-6.5-14.2-6-29.9-10.6-44.6 11.3-1 24.5 12 33 17.5 7.2 4.7 15.9 9.4 24.5 5.9 8.3-3.4 10.2-13.6 7.6-21.2-3.4-10.2-12.2-17.7-14.7-28.3-4.1-17.5 22.9-24.8 35.2-27.5 12.5-2.7 26.1-4.9 35.9-13.7 9.7-8.7 17.4-21.9 13-35-4.3-12.7-16.2-19.7-8.4-34.2.8-1.4-1.5-1.6-2.7-.9 2.8-6.4 7.7-10.6 15.6-13.5l3.9-1.5c12.6 4.4 24 .9 33.8-8.5 8.2-7.2-1.8-13.2-8.4-16.1z"/><path class="st0" d="M141.9 104.9c6.5-.7 9.8-5.1 12.2-10.9 2-5.1 1.6-10-.5-14.2.3.2.7.4 1 .6 1 .5 4.2-.9 2.8-1.6-10.6-5.3-11.9-16.8-17.9-26-5.2-8-14.4-14.9-24.2-15.6-19.8-1.4-13.4 27.5-8 37 6 10.4 20 32.3 34.6 30.7zm208.9-70.1c8.5 1.9 19 .2 26.3-4.6 9-5.9 4.2-14.1-2.8-19.3-.4-.3-1.2-.2-1.9 0-3.3-2.1-7.9-2.8-11.1-2.8-7.5-.1-14.1 3.9-18 10.1-5.1 8-1.3 14.6 7.5 16.6zm-44.3 19.8c7.2 2.2 17.1-2.3 20.6-8.7 4.6-8.6-5.8-13-12.5-13.2-.9 0-2.6 1-2.4 1.5-3.9.7-7.4 2.8-9.7 6.5-3 5-2.1 12 4 13.9zm217.3 8c7.2-2.1 13.5-9 9-16.5-.6-1-1.2-1.8-2-2.4l.1.1c1.1.9 4.3-.8 2.8-1.9-9.6-7.2-23-5.9-28.4 5.7-.8 1.7-1.3 3.6-1.4 5.5-.3.7-.6 1.5-.8 2.3-2.5 10.5 15.3 8.8 20.7 7.2zm61.5 194.8c6.3-.8 13.5-3.8 17.6-8.9 3-3.8 1.8-7-.9-9.5.1-.1.2-.3.1-.4-2.2-2-4.8-3.3-7.5-3.9h-.1c-.1 0-.2 0-.2-.1-2.9-.5-6-.1-8.9 1.1-4.6 2-7.7 5.6-9.3 9.9-.7 1.2-1.2 2.5-1.5 3.9-1.6 7.1 5.4 8.5 10.7 7.9zm36.5 282.4c-3.5-3.2-9.6-2.7-13.8-2.2-.9.1-1.7.8-1.8 1.3-.6.1-1.3.3-1.9.6-4.6 1.8-6.6 5.7-7.5 10.3-.1.3.1.5.4.6 7.6 4.3 19.9 5.9 25.4-2.7 1.6-2.6 1.5-5.8-.8-7.9zm-93.1 3.8c-6-9.7-19.8-14.8-30.7-12.2-14 3.2-11.1 22.1-3.5 30.2 7.2 7.7 19.8 5.6 27.9.7 7.9-4.8 8.9-11.8 5.3-17.8.6-.3 1.1-.7 1-.9zm-244.4 43.6c-18.9 6-9.8 28.7-21.7 40-5 4.8-23 14.8-10.8 21.6 29.8 16.6 36.8-32.8 33.6-54.8.3-2 .6-4.1.9-6.1.1-1-1.5-.8-2-.7zm-133 7.1c-.2-.1-.3-.1-.5-.2-.3-.2-.7-.3-1-.5-.1-.1-.2-.1-.4-.1-.4-.2-.8-.3-1.2-.5-.2-.1-.5-.1-.9 0-.6-.1-1.2-.1-1.8-.1-6.3.1-11.7 3.3-15 8.7-4.9 7.9-4.2 23.7 7.4 24.5 8.3.6 17.1-4.9 21.6-11.6 6.1-9.1-.3-16.3-8.2-20.2zM87.7 430.8c-1.4.4-1.6 1.5-1 2.2-5.9 2.2-10.6 6.8-13.2 13.5-.2.6 0 1.3.7 1.5 13.5 3.6 27.5 1.7 33.9-12 .2-.5 0-1-.4-1.3-6.5-6.2-11.7-6.1-20-3.9zm7.2 46c-4.9-1.2-9.7.4-13.7 3.1.6-1.3 1.1-2.6 1.3-4 .3-1.6-3.3-1.1-3.6.3-1.5 7.2-9.1 13.8-13.8 19.1-5.4 6.1-11.2 12-15.7 18.8-7.2 10.8 6.9 13.5 14.6 8.3 12.3-8.3 24.7-20.7 34.1-32.1 3-3.5 1.9-12.2-3.2-13.5zM50.8 194.4c6 1.4 21.2 3.7 20.6-6.5-.4-6.4-6.7-9.2-13.5-9.8-6.6-2.7-15.5-3.7-20.1.3-9.8 8.4 6.8 14.5 13 16z"/></svg>