<?xml version="1.0" encoding="utf-8"?>
<!-- Generator: Adobe Illustrator 19.0.0, SVG Export Plug-In . SVG Version: 6.00 Build 0)  -->
<svg version="1.1" id="Layer_1" xmlns="http://www.w3.org/2000/svg" xmlns:xlink="http://www.w3.org/1999/xlink" x="0px" y="0px"
	 viewBox="0 0 57 51.4" style="enable-background:new 0 0 57 51.4;" xml:space="preserve">
<style type="text/css">
	.st0{fill:#FFFFFF;}
</style>
<g id="cart">
	<path class="st0" d="M0.2,2.7c0.4,0.9,1.1,1.1,2,1.1c1.2,0,2.5,0,3.7,0c1.8,0,2.8,0.7,3.3,2.4c0.5,1.8,0.9,3.6,1.3,5.4
		c1.3,5.7,2.6,11.4,3.9,17c0.3,1.2,0.6,2.5,1.1,3.7c1.4,3.7,4,5.6,7.9,5.7c6.5,0.1,13,0,19.5,0c3.4,0,6-1.5,7.7-4.5
		c0.9-1.7,1.6-3.4,2.4-5.1c1.1-2.5,2.1-5.1,3.2-7.6c0.7-1.9,1-3.9,0.6-5.9c-0.7-3.2-2.8-5.1-6.2-5.3c-3.4-0.2-6.9-0.1-10.3-0.1
		c-1,0-1.4,0.4-1.4,1.1c0,0.8,0.6,1.5,1.5,1.5c2.9,0,5.8,0,8.7,0c0.6,0,1.1,0,1.7,0.1c2,0.4,3.2,1.8,3.3,4c0.1,1.3-0.1,2.5-0.6,3.7
		c-1.5,3.6-3,7.2-4.6,10.8c-0.3,0.7-0.7,1.3-1.1,2c-1.1,1.8-2.8,2.7-4.9,2.7c-3.6,0-7.1,0-10.7,0c-2.7,0-5.4,0-8.1,0
		c-0.7,0-1.3,0-2-0.2c-1.8-0.3-3.2-1.4-3.9-3.1c-0.6-1.5-1-3-1.3-4.6c-1.6-7-3.2-14.1-4.9-21.1c-0.1-0.6-0.3-1.2-0.6-1.7
		c-1-2.2-2.7-3.4-5.2-3.5c-1.6-0.1-3.2,0-4.8,0C0.8,1.2,0.3,1.4,0,2C0.2,2.2,0.2,2.5,0.2,2.7z"/>
	<path class="st0" d="M34.3,17.3c0-0.3,0-0.5,0-0.7c0-4.9,0-9.7,0-14.6c0-1.5-1.4-2.4-2.7-1.8c-0.8,0.4-1,1.1-1,1.9
		c0,4.2,0,8.5,0,12.7c0,0.7,0,1.4,0,2.2c-0.2,0-0.4,0-0.6,0c-1,0-2.1,0-3.1,0c-0.9,0-1.6,0.4-1.9,1.2c-0.3,0.8-0.1,1.7,0.6,2.3
		c1.3,1.2,2.7,2.3,4.1,3.4c0.6,0.5,1.2,1,1.8,1.5c0.9,0.7,1.8,0.7,2.7,0c1.9-1.6,3.8-3.3,5.6-4.9c0.3-0.3,0.6-0.7,0.7-1.2
		c0.3-1.3-0.4-2.1-1.7-2.1c-1.2,0-2.4,0-3.7,0C34.8,17.3,34.6,17.3,34.3,17.3z"/>
	<path class="st0" d="M23.3,51.4c-3.1,0-5.7-2.5-5.7-5.7c0-3.1,2.5-5.7,5.6-5.7c3.2,0,5.7,2.5,5.7,5.6C29,48.8,26.4,51.4,23.3,51.4z
		 M23.3,48.8c1.5,0,2.9-1.3,2.9-2.9c0-1.5-1.3-2.8-2.8-2.8s-2.9,1.3-2.9,2.9S21.7,48.8,23.3,48.8z"/>
	<path class="st0" d="M41.3,51.4c-3,0-5.7-2.7-5.7-5.7c0-3.1,2.6-5.7,5.7-5.6c3.1,0,5.6,2.6,5.6,5.7C47,48.8,44.4,51.4,41.3,51.4z
		 M44.2,46c0-1.5-1.3-2.9-2.9-2.9c-1.5,0-2.8,1.3-2.8,2.8c0,1.6,1.2,2.9,2.8,2.9C42.8,48.8,44.2,47.5,44.2,46z"/>
</g>
</svg>
