<?xml version="1.0" encoding="utf-8"?>
<!-- Generator: Adobe Illustrator 21.0.0, SVG Export Plug-In . SVG Version: 6.00 Build 0)  -->
<svg version="1.1" id="Layer_1" xmlns="http://www.w3.org/2000/svg" xmlns:xlink="http://www.w3.org/1999/xlink" x="0px" y="0px"
	 viewBox="0 0 56 55" style="enable-background:new 0 0 56 55;" xml:space="preserve">
<style type="text/css">
	.st0{fill:none;stroke:#DEDAD7;stroke-width:3;stroke-miterlimit:10;}
</style>
<path class="st0" d="M28,12.3c2-2.9,4.5-4.8,7.9-5.5C45,5,52.4,12.6,51.3,22.2c-0.8,6.4-3.6,11.8-7.8,16.5c-4.1,4.7-9,8.5-14.4,11.6
	c-0.5,0.3-1.5,0.4-1.9,0.2C18,45.2,10.1,38.6,6.1,28.3c-1.5-3.9-1.9-7.9-1-12c1.1-5.1,4.4-8.2,9.3-9.4c5.1-1.2,9.5,0.2,12.8,4.4
	C27.4,11.6,27.7,11.9,28,12.3z"/>
</svg>
