<?xml version="1.0" encoding="utf-8"?>
<!-- Generator: Adobe Illustrator 21.0.0, SVG Export Plug-In . SVG Version: 6.00 Build 0)  -->
<svg version="1.1" id="Layer_1" xmlns="http://www.w3.org/2000/svg" xmlns:xlink="http://www.w3.org/1999/xlink" x="0px" y="0px"
	 viewBox="0 0 56 55" style="enable-background:new 0 0 56 55;" xml:space="preserve">
<style type="text/css">
	.st0{fill:#356732;}
</style>
<path class="st0" d="M45.3,53c-5,0-8.9-3.7-9.2-8.7c0-0.4-0.1-0.7-0.5-0.8C30.1,40.8,24.5,38,19,35.3c-0.3-0.2-0.6-0.2-0.9,0.1
	c-5.3,3.6-12.6,1-14.2-5.2c-1-3.6,0-6.8,2.7-9.3c2.7-2.4,5.8-3.1,9.3-1.9c1.2,0.4,2.2,1,3.1,1.8c0.4,0.3,0.6,0.4,1.1,0.1
	c5.2-2.7,10.4-5.4,15.5-8.1c0.3-0.2,0.4-0.4,0.4-0.7c0.1-1.3,0.1-2.5,0.5-3.7c1.4-4.1,5.6-6.6,9.6-6.2c4.6,0.4,8.6,4.6,8.4,9.6
	s-4.4,8.6-8.6,8.8c-2.5,0.1-4.6-0.5-6.5-2c-0.2-0.2-0.4-0.2-0.6-0.1c-5.5,2.9-10.9,5.7-16.4,8.6c-0.2,0.1-0.3,0.3-0.4,0.4
	c-0.1,0.5-0.1,1-0.1,1.5c0,0.1,0.2,0.3,0.4,0.4c3.1,1.6,6.2,3.1,9.3,4.6c1.9,0.9,3.8,1.8,5.6,2.8c0.8,0.4,1.3,0.4,1.9-0.2
	c1-0.9,2.1-1.6,3.5-1.9c6.4-1.6,11.1,2.7,11.8,7.8c0.6,4.9-2.8,9.5-7.7,10.3C46.3,53,45.8,53,45.3,53z"/>
</svg>
