<?xml version="1.0" encoding="utf-8"?>
<!-- Generator: Adobe Illustrator 19.0.0, SVG Export Plug-In . SVG Version: 6.00 Build 0)  -->
<svg version="1.1" id="Layer_1" xmlns="http://www.w3.org/2000/svg" xmlns:xlink="http://www.w3.org/1999/xlink" x="0px" y="0px"
	 viewBox="-250 401.4 39.1 38.9" style="enable-background:new -250 401.4 39.1 38.9;" xml:space="preserve">
<style type="text/css">
	.st0{fill:#DEDAD7;}
</style>
<path class="st0" d="M-218,440.4c-3.8,0-6.8-2.8-7.1-6.6c0-0.3-0.1-0.5-0.4-0.6c-4.2-2.1-8.5-4.2-12.7-6.3c-0.3-0.1-0.4-0.1-0.7,0
	c-4.1,2.8-9.6,0.8-10.9-4c-0.7-2.7,0-5.2,2.1-7.1c2-1.9,4.5-2.3,7.1-1.5c0.9,0.3,1.7,0.8,2.4,1.4c0.3,0.3,0.5,0.3,0.8,0.1
	c4-2.1,7.9-4.2,11.9-6.2c0.2-0.1,0.3-0.3,0.3-0.5c0-1,0.1-1.9,0.4-2.8c1.1-3.1,4.3-5.1,7.4-4.8c3.5,0.3,6.6,3.5,6.4,7.4
	s-3.4,6.6-6.6,6.8c-1.9,0.1-3.5-0.4-5-1.6c-0.2-0.1-0.3-0.1-0.5,0c-4.2,2.2-8.4,4.4-12.6,6.6c-0.1,0.1-0.3,0.2-0.3,0.3
	c-0.1,0.4-0.1,0.8-0.1,1.2c0,0.1,0.2,0.3,0.3,0.3c2.4,1.2,4.8,2.4,7.2,3.6c1.4,0.7,2.9,1.4,4.3,2.2c0.6,0.3,1,0.3,1.5-0.2
	c0.8-0.7,1.6-1.2,2.7-1.5c4.9-1.2,8.5,2.1,9,5.9c0.5,3.7-2.2,7.3-5.9,7.9C-217.2,440.4-217.6,440.4-218,440.4z"/>
</svg>
