<?xml version="1.0" encoding="utf-8"?>
<!-- Generator: Adobe Illustrator 19.0.0, SVG Export Plug-In . SVG Version: 6.00 Build 0)  -->
<svg version="1.1" id="Layer_1" xmlns="http://www.w3.org/2000/svg" xmlns:xlink="http://www.w3.org/1999/xlink" x="0px" y="0px"
	 viewBox="-153.8 464.5 36.8 37.1" style="enable-background:new -153.8 464.5 36.8 37.1;" xml:space="preserve">
<style type="text/css">
	.st0{fill:#FFFFFF;}
</style>
<path id="search" class="st0" d="M-120,501.6c-3.2-3.2-6.5-6.5-9.8-9.9c-0.8-0.8-1.3-1-2.3-0.4c-6.5,3.8-14.5,2.1-18.9-4
	c-4.4-6-3.5-14.1,2-19.1c5.4-4.9,13.6-5,19.1-0.2c5.7,5,6.7,13,2.4,19.2c-0.2,0.3-0.5,0.6-0.7,0.9c3.7,3.7,7.4,7.3,11.2,11.1
	C-118.1,500.2-118.9,500.8-120,501.6z M-139.3,466.2c-7.2,0-12.7,5.5-12.8,12.6s5.7,12.9,12.8,12.8c7.1,0,12.7-5.6,12.7-12.8
	C-126.6,471.8-132.1,466.3-139.3,466.2z"/>
</svg>
