<?xml version="1.0" encoding="utf-8"?>
<!-- Generator: Adobe Illustrator 19.0.0, SVG Export Plug-In . SVG Version: 6.00 Build 0)  -->
<svg version="1.1" id="Layer_1" xmlns="http://www.w3.org/2000/svg" xmlns:xlink="http://www.w3.org/1999/xlink" x="0px" y="0px"
	 viewBox="0 0 42.8 36.5" style="enable-background:new 0 0 42.8 36.5;" xml:space="preserve">
<style type="text/css">
	.st0{fill:#FFFFFF;}
</style>
<path id="back" class="st0" d="M42.8,17.6C37.5,12.1,32,6.3,26.4,0.6c-0.6-0.6-2.1-0.8-2.7-0.5c-0.8,0.4-1.6,1.6-1.7,2.5
	c-0.2,2.2-0.1,4.4-0.1,6.8c-7.5,1.2-13.6,4.7-17.8,11C1,25-0.2,30.2,0,36.5c5.5-7.7,12.8-10.7,21.9-10.6c0,2.3-0.2,4.5,0.1,6.6
	c0.1,0.9,0.9,2.1,1.7,2.5c0.7,0.3,2.2,0.1,2.8-0.5C32,28.9,37.6,23,42.8,17.6z"/>
</svg>
