<?xml version="1.0" encoding="utf-8"?>
<!-- Generator: Adobe Illustrator 21.0.0, SVG Export Plug-In . SVG Version: 6.00 Build 0)  -->
<svg version="1.1" id="Layer_1" xmlns="http://www.w3.org/2000/svg" xmlns:xlink="http://www.w3.org/1999/xlink" x="0px" y="0px"
	 viewBox="0 0 27 27.5" style="enable-background:new 0 0 27 27.5;" xml:space="preserve">
<style type="text/css">
	.st0{fill:#DA5926;}
</style>
<g>
	<path class="st0" d="M11.8,0H0v11.8c0,0.5,0.4,0.9,0.9,0.9h10.9c0.5,0,0.9-0.4,0.9-0.9V0.9C12.6,0.4,12.2,0,11.8,0z"/>
	<path class="st0" d="M11.8,14.8H0v11.8c0,0.5,0.4,0.9,0.9,0.9h10.9c0.5,0,0.9-0.4,0.9-0.9V15.7C12.6,15.2,12.2,14.8,11.8,14.8z"/>
	<path class="st0" d="M26.1,0H14.3v11.8c0,0.5,0.4,0.9,0.9,0.9h10.9c0.5,0,0.9-0.4,0.9-0.9V0.9C27,0.4,26.6,0,26.1,0z"/>
	<path class="st0" d="M26.1,14.8H14.3v11.8c0,0.5,0.4,0.9,0.9,0.9h10.9c0.5,0,0.9-0.4,0.9-0.9V15.7C27,15.2,26.6,14.8,26.1,14.8z"/>
</g>
</svg>
