<?xml version="1.0" encoding="utf-8"?>
<!-- Generator: Adobe Illustrator 21.0.0, SVG Export Plug-In . SVG Version: 6.00 Build 0)  -->
<svg version="1.1" id="Layer_1" xmlns="http://www.w3.org/2000/svg" xmlns:xlink="http://www.w3.org/1999/xlink" x="0px" y="0px"
	 viewBox="0 0 47.4 45.1" style="enable-background:new 0 0 47.4 45.1;" xml:space="preserve">
<style type="text/css">
	.st0{fill:#FF0000;}
</style>
<g>
	<path class="st0" d="M0,4.4c0.3,0.7,0.9,1,1.7,0.9c1,0,2.1,0,3.1,0c1.5,0,2.3,0.6,2.7,2c0.4,1.5,0.8,3,1.1,4.5
		c1.1,4.8,2.2,9.5,3.3,14.3c0.2,1,0.5,2.1,0.9,3.1c1.2,3.1,3.3,4.7,6.6,4.7c5.4,0.1,10.9,0,16.3,0c2.9,0,5.1-1.3,6.4-3.8
		c0.8-1.4,1.4-2.8,2-4.3c0.9-2.1,1.8-4.3,2.6-6.4c0.6-1.6,0.9-3.3,0.5-4.9c-0.6-2.6-2.4-4.3-5.1-4.4c-2.9-0.2-5.7-0.1-8.6-0.1
		c-0.8,0-1.2,0.3-1.2,1s0.5,1.2,1.3,1.2c2.4,0,4.9,0,7.3,0c0.5,0,0.9,0,1.4,0.1c1.7,0.3,2.7,1.5,2.8,3.4c0.1,1.1-0.1,2.1-0.5,3.1
		c-1.3,3-2.5,6-3.8,9c-0.2,0.6-0.6,1.1-0.9,1.7c-0.9,1.5-2.3,2.3-4.1,2.3c-3,0-6,0-8.9,0c-2.3,0-4.5,0-6.8,0c-0.6,0-1.1,0-1.7-0.1
		c-1.5-0.3-2.7-1.1-3.2-2.6c-0.5-1.2-0.8-2.5-1.1-3.8c-1.4-5.9-2.7-11.8-4.1-17.6c-0.1-0.5-0.3-1-0.5-1.5C8.7,4.3,7.2,3.4,5.2,3.3
		c-1.3-0.1-2.7,0-4,0c-0.5,0-0.9,0.2-1.1,0.6C0,3.9,0,4.1,0,4.4z"/>
	<path class="st0" d="M25.7,7.4c0,0.2,0,0.4,0,0.6c0,4.1,0,8.1,0,12.2c0,1.3,1.2,2,2.3,1.5c0.6-0.3,0.9-0.9,0.9-1.6
		c0-3.5,0-7.1,0-10.6c0-0.6,0-1.2,0-1.9c0.2,0,0.4,0,0.5,0c0.9,0,1.7,0,2.6,0c0.8,0,1.4-0.4,1.6-1c0.3-0.7,0.1-1.4-0.5-1.9
		c-1.1-1-2.3-1.9-3.4-2.9c-0.5-0.4-1-0.8-1.5-1.3c-0.7-0.6-1.5-0.6-2.2,0c-1.6,1.4-3.2,2.7-4.7,4.1c-0.3,0.2-0.5,0.6-0.6,1
		c-0.2,1,0.4,1.8,1.4,1.8c1,0,2,0,3.1,0C25.3,7.4,25.4,7.4,25.7,7.4z"/>
	<path class="st0" d="M19.4,45.1c-2.6,0-4.8-2.1-4.8-4.7c0-2.6,2.1-4.7,4.7-4.8c2.6,0,4.8,2.1,4.8,4.7
		C24.1,42.9,21.9,45.1,19.4,45.1z M19.3,42.9c1.3,0,2.4-1.1,2.4-2.4c0-1.3-1.1-2.4-2.4-2.4c-1.3,0-2.4,1.1-2.4,2.4
		C16.9,41.9,18,42.9,19.3,42.9z"/>
	<path class="st0" d="M34.4,45.1c-2.5,0-4.8-2.2-4.7-4.8c0-2.6,2.2-4.7,4.8-4.7c2.6,0,4.7,2.2,4.7,4.8C39.2,42.9,37,45.1,34.4,45.1z
		 M36.8,40.5c0-1.3-1.1-2.4-2.4-2.4S32,39.1,32,40.5c0,1.4,1,2.4,2.3,2.4C35.7,42.9,36.8,41.8,36.8,40.5z"/>
</g>
</svg>
