<?xml version="1.0" encoding="utf-8"?>
<!-- Generator: Adobe Illustrator 21.0.0, SVG Export Plug-In . SVG Version: 6.00 Build 0)  -->
<svg version="1.1" id="Layer_1" xmlns="http://www.w3.org/2000/svg" xmlns:xlink="http://www.w3.org/1999/xlink" x="0px" y="0px"
	 viewBox="0 0 23.5 28.8" style="enable-background:new 0 0 23.5 28.8;" xml:space="preserve">
<style type="text/css">
	.st0{fill:#DA5926;}
</style>
<g>
	<path class="st0" d="M10.6,19.2c0-3.9,0-7.8,0-11.9c1.1-0.1,2-0.1,3.3-0.2C11.7,4.6,9.5,2.3,7.4,0C7.1,0,6.9,0,6.6,0
		C5,1.7,3.4,3.5,1.8,5.2C1.3,5.8,0.7,6.3,0,7.1c1.3,0.1,2.2,0.1,3.4,0.2c0,4,0,8,0,11.9C5.8,19.2,8.2,19.2,10.6,19.2z"/>
	<path class="st0" d="M20.1,21.5c0-4,0-8,0-11.9c-2.4,0-4.8,0-7.2,0c0,3.9,0,7.8,0,11.9c-1.1,0.1-2,0.1-3.3,0.2
		c2.2,2.5,4.4,4.8,6.5,7.1c0.3,0,0.5,0,0.8,0c1.6-1.7,3.2-3.5,4.8-5.2c0.5-0.6,1.1-1.1,1.8-1.9C22.3,21.6,21.3,21.6,20.1,21.5z"/>
</g>
</svg>
