<?xml version="1.0" encoding="utf-8"?>
<!-- Generator: Adobe Illustrator 21.0.0, SVG Export Plug-In . SVG Version: 6.00 Build 0)  -->
<svg version="1.1" id="Layer_1" xmlns="http://www.w3.org/2000/svg" xmlns:xlink="http://www.w3.org/1999/xlink" x="0px" y="0px"
	 viewBox="0 0 33.7 35.3" style="enable-background:new 0 0 33.7 35.3;" xml:space="preserve">
<style type="text/css">
	.st0{fill:none;stroke:#FFFFFF;stroke-width:4;stroke-miterlimit:10;}
	.st1{fill:#FFFFFF;}
</style>
<g>
	<path class="st0" d="M35,48H0c-6.6,0-12-5.4-12-12V1c0-6.6,5.4-12,12-12h35c6.6,0,12,5.4,12,12v35C47,42.6,41.6,48,35,48z"/>
	<g>
		<path class="st1" d="M16.6,35.3c-4.8,0-9.7,0-14.6,0c-1.7,0-1.7,0-1.7-1.8c0-3.6,1.2-6.7,4.3-9c1.5-1.1,3.4-1.8,5.3-1.8
			c4.3-0.1,8.8-0.3,13.2,0c6.2,0.5,10.1,5.1,9.7,11.7c-0.1,0.6-0.5,0.7-1.1,0.7c-1.5,0-3.2,0-4.7,0C23.6,35.3,20.1,35.3,16.6,35.3z"
			/>
		<path class="st1" d="M17.3,1.1c5.1,0,9.2,4.2,9.2,9.3s-4.2,9.2-9.3,9.1c-5,0-9.1-4.2-9.1-9.2C8,5.2,12.2,1.1,17.3,1.1z"/>
	</g>
</g>
</svg>
