<?xml version="1.0" encoding="utf-8"?>
<!-- Generator: Adobe Illustrator 19.0.0, SVG Export Plug-In . SVG Version: 6.00 Build 0)  -->
<svg version="1.1" xmlns="http://www.w3.org/2000/svg" xmlns:xlink="http://www.w3.org/1999/xlink" x="0px" y="0px"
	 viewBox="-231 315.9 132 210" style="enable-background:new -231 315.9 132 210;" xml:space="preserve">
<style type="text/css">
	.st0{clip-path:url(#SVGID_2_);}
	.st1{fill:#FFFFFF;}
	.st2{fill:#D8D8D8;}
</style>
<g id="Layer_1">
</g>
<g id="Layer_2">
	<g>
		<defs>
			<circle id="SVGID_1_" cx="-168" cy="421.9" r="105"/>
		</defs>
		<clipPath id="SVGID_2_">
			<use xlink:href="#SVGID_1_"  style="overflow:visible;"/>
		</clipPath>
		<g class="st0">
			<g>
				<rect x="-179.8" y="443.6" class="st1" width="32.6" height="35.8"/>
				<path class="st1" d="M-147.4,462.6h5.6c10.4,2.7,21.7,4.6,29.2,13.3c4.7,5.4,12.9,51,12.9,51h-19.8h-44.2v-41.7v-9.8
					C-154.7,475.4-147.4,469.7-147.4,462.6z"/>
				<path class="st1" d="M-180.1,462.6h-5.6c-10.4,2.7-21.7,4.6-29.3,13.3c-4.7,5.4-12.9,51-12.9,51h19.8h44.2v-41.7v-9.8
					C-172.8,475.4-180.1,469.7-180.1,462.6z"/>
				<g>
					<path class="st1" d="M-163.5,341.3c15.8,0,40.9,9,40.9,51.2c0,24.4-7.9,40.3-11.4,44.7c-3.2,4.1-21.1,12.7-29.5,12.7
						C-163.5,407.3-163.5,341.3-163.5,341.3z"/>
					<path class="st1" d="M-114.8,402.5c0.7-6.7-2.5-12.7-7.2-13.4c-4.7-0.6-9,4.3-9.7,11c-0.7,6.7,2.5,12.7,7.2,13.4
						C-119.8,414.2-115.5,409.3-114.8,402.5z"/>
				</g>
				<g>
					<path class="st1" d="M-163.5,341.3c-15.8,0-40.9,9-40.9,51.2c0,24.4,7.9,40.3,11.4,44.7c3.2,4.1,21.1,12.7,29.5,12.7
						C-163.5,407.3-163.5,341.3-163.5,341.3z"/>
					<path class="st1" d="M-212.3,402.5c-0.7-6.7,2.5-12.7,7.2-13.4c4.7-0.6,9,4.3,9.7,11c0.7,6.7-2.5,12.7-7.2,13.4
						C-207.3,414.2-211.6,409.3-212.3,402.5z"/>
				</g>
				<path class="st1" d="M-163.5,434c7.4,0,13.4-2.4,13.4-5.4h-26.7C-176.9,431.6-170.9,434-163.5,434z"/>
				<path class="st2" d="M-130.6,395.8c1.7-4.3,5.1-7.1,8.6-6.6c0,0,0,0,0,0c1.6-5,2.2-11,0-17.3c-11.8-33.6,1.6-39.6,1.6-39.6
					s-13-0.6-23.2,7.8c7-10.8,10.1-13.6,10.1-13.6s-14.7-3.1-30.3,12.9c3.5-8.7,7.7-13.2,7.7-13.2s-32.8,0.2-44.7,24
					c-6.8,13.5-7.3,28.2-5.6,39.2c0.4-0.1,0.8-0.3,1.2-0.3c1.5-0.2,3.1,0.2,4.4,1.1c0-5.1,0-9.6,0-10.3c6.3-2.8,12.9-6.3,12.6-20.2
					c14.7,0,22.7,0,22.7,0h23.4c0,0-1,15.7,11.5,19.5C-130.6,385.7-130.6,391.5-130.6,395.8z"/>
				<path class="st1" d="M-163.7,479.5c12.1,0,21.9-7.5,21.9-16.9h-5.6c0,7-7.3,12.7-16.3,12.7c-9,0-16.3-5.7-16.3-12.7h-5.6
					C-185.6,472-175.8,479.5-163.7,479.5z"/>
			</g>
		</g>
	</g>
</g>
</svg>
