<?xml version="1.0" encoding="utf-8"?>
<!-- Generator: Adobe Illustrator 21.1.0, SVG Export Plug-In . SVG Version: 6.00 Build 0)  -->
<svg version="1.1" id="Layer_1" xmlns="http://www.w3.org/2000/svg" xmlns:xlink="http://www.w3.org/1999/xlink" x="0px" y="0px"
	 viewBox="0 0 34.3 34.8" style="enable-background:new 0 0 34.3 34.8;" xml:space="preserve">
<style type="text/css">
	.st0{fill:#FFFFFF;}
</style>
<path class="st0" d="M6.9,34.8c-2.4-2.4-4.5-4.5-6.9-6.9c3.5-3.3,7-6.5,10.8-10.1C6.9,14.2,3.5,11,0.1,7.8c2.5-2.5,4.7-4.6,7.1-7
	c2.7,2.8,5.7,5.8,8.5,8.9c1.1,1.2,1.7,1.2,2.8,0c2.8-3.1,5.8-6.1,9.3-9.7c2.1,2.4,4,4.4,5.7,6.6c0.2,0.3-0.2,1.4-0.6,1.9
	c-3,3.1-6,6-9.5,9.4c3.7,3.4,7.3,6.7,10.8,10.1c-2.4,2.4-4.5,4.5-6.9,6.8c-3.3-3.5-6.6-7-10.1-10.7C13.6,27.8,10.3,31.2,6.9,34.8z"
	/>
</svg>
