<?xml version="1.0" encoding="utf-8"?>
<!-- Generator: Adobe Illustrator 21.1.0, SVG Export Plug-In . SVG Version: 6.00 Build 0)  -->
<svg version="1.1" id="Layer_1" xmlns="http://www.w3.org/2000/svg" xmlns:xlink="http://www.w3.org/1999/xlink" x="0px" y="0px"
	 viewBox="0 0 214.4 302" style="enable-background:new 0 0 214.4 302;" xml:space="preserve">
<style type="text/css">
	.st0{fill:#FFFFFF;}
	.st1{opacity:0.2;fill:#010101;}
	.st2{opacity:0.1;fill:#010101;}
</style>
<g>
	<path class="st0" d="M194.8,227.4c-0.9,1.8-1.9,3.6-2.8,5.4c0.2,0.1,0.3,0.2,0.5,0.3c1-1.8,2-3.6,2.9-5.4
		C195.2,227.5,195,227.5,194.8,227.4z M45.4,211.4c1.3-0.1,2.6-0.2,4.4-0.4C47.9,210,46.5,209.3,45.4,211.4z M203.2,184.3
		c-1.8,0.7-3.7,1.5-5.5,2.2c0,0.1,0.1,0.3,0.2,0.4c1.8-0.7,3.7-1.4,5.5-2.1C203.3,184.6,203.2,184.4,203.2,184.3z M8.5,172.8
		c-1.7,1.8-3.4,3.7-5.2,5.5c0.2,0.2,0.4,0.3,0.5,0.5c1.7-1.8,3.4-3.7,5.1-5.5C8.8,173.1,8.7,173,8.5,172.8z M12.6,199.4
		c2.8-1.2,5.8-2.4,8.5-3.5C19,195.2,14.2,197.1,12.6,199.4z M176.4,206c3.8,1.3,7.5,2.6,11.3,4C184.3,207.6,180.7,205.9,176.4,206z
		 M109.5,259.6v8.3c0.2,0,0.3,0,0.5,0v-8.3C109.9,259.6,109.7,259.6,109.5,259.6z M8.8,184.1c1.4,0.5,2.8,0.8,4,1.6
		c1.2,0.8,2.2,1.9,3.2,3c0.9,1,1.8,2.1,2.7,3.1C15.7,185.7,11.7,182.7,8.8,184.1z M202.6,164.8v16.1
		C204.4,175.1,204.5,169.8,202.6,164.8z M193.6,192c3.3-1.3,6.5-2.5,9.7-3.8C199.6,188.3,195.7,188.1,193.6,192z M6.8,180.1
		c-0.1-0.1-0.1-0.1-0.2-0.2c0.5-0.7,1.1-1.3,1.7-2c-3.8,2-4.3,5.7-5.6,9.2c2.3-2.9,4.5-5.6,6.8-8.6C8.5,179.1,7.7,179.6,6.8,180.1z
		 M185.6,200.2c-2.5-0.4-4.4,0.3-5.4,1.8c8.1-2.5,11.8,2.9,15.6,8.3C193.7,205.5,191.3,201.1,185.6,200.2z M36.8,205.8
		c-4.6-1.2-8.8-3.1-12-6.9c-1.4-1.7-3.5-2.2-5.6-1.2c-2.5,1.2-4.9,2.6-7.2,4.1c-1,0.7-1.8,1.7-2.6,2.6c2.2-1.3,3.9-3,6-4.1
		c4.3-2.3,6.1-4.1,10.5,1c1.5,1.8,3.8,3,6,3.9c2.2,0.9,4.6,1.1,6.9,1.7c0-0.1,0.1-0.2,0.1-0.2C38.2,206.4,37.5,206,36.8,205.8z
		 M19.3,236.1c-0.7-0.6-1.5-1.3-2.2-1.9c-3.5-2.7-5.6-5.9-4.3-10.6c0.5-1.6,0.6-3.3,0.8-4.9c-0.2,0-0.5-0.1-0.7-0.1
		c-0.5,2.9-1.1,5.8-1.3,8.7c-0.2,2.9,0.2,5.9,0.3,8.8c-0.1,0.1-0.2,0.2-0.3,0.2c-2-3-3.9-6.1-5.7-8.7c-0.8,2,1.2,3.5,2.5,5.3
		c1.6,2.3,3.4,4.5,6.1,6.3c-0.8-1.5-1.3-2.7-1.9-3.8c0.1-0.1,0.3-0.2,0.5-0.3c1.7,1,3.4,2,5.1,3c-1.8-2.2-5-2.7-5.9-6
		c2.4,1.6,4.5,3.1,6.7,4.5C19,236.5,19.2,236.3,19.3,236.1z M213.7,194.9c-0.5-6.1,0-12.2-1.4-18.2c-0.6-2.4-1.2-4.8-2.5-6.9
		c-0.1-0.1-0.3-0.1-0.6-0.3c0.3,0.7,0.5,1.1,0.8,1.7c-0.4-0.1-0.7-0.2-1.1-0.3c2.9,5.5,3.5,11.2,3.8,17.3c-2.1-5.4-3.5-7.3-5.7-7.9
		c3.2,4.8,4.8,10.1,5.3,15.7c0.2,2.5,0.6,5,0.9,7.5c0.1,1.1,0,2.1,0,3.7c-1.3-3.3-2.4-6-3.5-8.7c0,0-0.1,0.1-0.2,0.1
		c1.2,4.6,2.4,9.3,3.8,14.4c0.4-1.7,1-2.9,1-4C214.2,204.4,214.1,199.6,213.7,194.9z M198.2,224.3c-0.1-0.8-0.2-1.7-0.3-2.6
		c-0.2-1.5-0.3-2.9-0.5-4.4c0,5.5-0.4,10.8-3.5,15.7c0.8-0.7,1.6-1.4,2-2.3c0.2-0.5,0.4-1.1,0.6-1.6c0-0.1,0.1-0.1,0.1-0.2
		c0.2-0.5,0.3-1,0.5-1.4c0.1-0.2,0.2-0.4,0.2-0.7C197.7,226,197.9,225.1,198.2,224.3L198.2,224.3z M205.2,200.4
		c-4.7-2.9-9.7-4.4-15.3-3.3c-1.9,0.4-2.9,1.1-3.6,2.7c5.3-2.3,10.3-1.1,15.8,1.1c-2,1.7-3.7,3.1-5.4,4.5c-1.7-2.2-3.8-4.4-7.2-4.7
		c4.3,2.2,7,5.7,8.4,10.3c1,3.3,1.4,6.6,1,9.9c0,0.2-0.1,0.4-0.1,0.6c0,0.2,0,0.3-0.1,0.5c0,0.3-0.1,0.5-0.2,0.8
		c0,0.3-0.1,0.5-0.2,0.8c-0.1,0.3-0.1,0.5-0.2,0.8c0,0,0,0,0,0c0,0,0,0,0,0c0,0,0,0,0,0c0,0,0,0,0,0c0,0,0,0,0,0c0,0.5,0,1-0.1,1.5
		c2-4.4,1.8-9,1.1-13.5c-0.3-1.8-1.7-3.8-1.3-5.4c0.5-1.7,2.6-2.9,3.9-4.3c0.1-0.1,0.2-0.3,0.3-0.3c0.7-0.1,1.6-0.6,2-0.3
		c1.8,1.3,3.5,2.8,5.2,4.2c0.5,0.4,0.9,0.8,1.4,1.2C208.9,203.1,208.5,202.5,205.2,200.4z"/>
	<path d="M210.2,165.4c-0.6-2.8-2.1-5-4.3-6.8c-0.6-0.5-1.1-1.1-1.6-1.7c-3-3.3-5.8-6.7-8.9-9.8c-4.3-4.3-9.7-6.9-15-9.6
		c-8.2-4.1-16.8-7.1-25.7-9.3c-2.7-0.7-5.4-1.2-8.2-1.7c0.3-0.9,0.6-1.7,0.9-2.4c1.9-4.5,2-9.6,4.7-13.9c0.3-0.5,0.3-1.3,0.3-2
		c0.1-2.2,0-4.4,0.2-6.5c0.4-3.2,0.4-6.4,2.5-9.2c0.6-0.8,0.7-2,0.7-3c0.1-3.5,0-7,0.1-10.4c0.1-2.7,0.4-5.3,0.6-8
		c0.1-1-0.3-2.2,0.1-3.1c1.2-2.6,1.6-5.2,1.3-8c-0.2-1.4-0.8-2.8-1-4.3c-0.7-4.4-1.2-8.9-1.9-13.3c-0.4-2.3-0.8-4.7-1.6-7
		c-0.7-2.1-1.9-4-3-5.9c-4.9-8.7-10.3-17.1-19.2-22.3c-3.4-2-7.2-3.6-11-4.7c-3.2-0.9-6.7-0.9-10.1-1.2c-2.2-0.2-4.5-0.7-6.7-0.5
		c-6.4,0.6-12.8,1.3-19.2,2.2c-1.2,0.2-2.5,0.6-3.5,1.2c-3,1.7-6,3.6-9,5.4c-4.7,3-9.5,5.9-14.2,9c-0.8,0.5-1.5,1.1-2,1.9
		c-2.1,3-3.9,6.1-6.1,8.9c-3.8,4.8-5.7,10.8-10.1,15.1c-0.3,0.3-0.6,0.8-0.7,1.3c-0.4,2-0.6,4.1-1.1,6.1c-1.1,4.8-2.4,9.5-3.6,14.3
		c-0.5,1.9-1.2,3.8-1.3,5.7c-0.1,1.8,0.5,3.6,0.4,5.4c-0.1,6.5-0.5,13-0.6,19.5c0,1,0.2,2,0.4,3.1c-0.6-4.6,2.1-7.9,4.9-11.2
		c1.9-2.2,4-4.2,5.8-6.4c1.4-1.8,2.3-3.9,3.6-6.1c-0.1,1.1,0.2,2.5-0.3,3.4c-1.5,2.5-3.3,4.8-5,7.2c-2.3,3-4.7,5.9-6.8,9.1
		c-1,1.5-1.4,3.3-2,5c0,0,0,0.1,0,0.1c0,0,0-0.1,0-0.1c0,0,0,0,0,0c0.5,4.2,1,8.4,1.6,12.5c0.6,3.9,1.3,7.8,2,11.7
		c0.1-4.3,2-8,4.2-11.5c2.3-3.7,4.7-7.3,5.7-11.6c0.1,1.6,0.4,3.4-0.2,4.8c-1.9,4.4-4.1,8.8-6.3,13.1c-1.9,3.7-3.4,7.3-1.9,11.6
		c0.3,0.9,0.5,2,0.4,2.9c-0.1,0.6-0.5,1.5-1.1,1.8c-4.3,2.3-8.9,4.2-13,6.8c-8.5,5.3-16.1,11.5-20.9,20.6c-4.4,8.4-5.1,17.1-1.3,26
		c0.2,0.5,0.2,1.2,0.1,1.7c-0.5,3-1.4,5.9-1.4,8.9c0,7.2,0.4,14.4,0.7,21.6c0.1,2.5,1,4.8,2.7,6.8c-2-6.4-1.1-12.7,0.7-19
		c-0.2,0-0.4-0.1-0.6-0.2c-0.8,1.5-1.6,3.1-2.6,5.2c-0.5-5.7,0.3-10.7,1.5-15.6c-0.4,0.7-0.7,1.4-1.2,2.3c0.7-6,2.5-11.5,5.8-16.4
		c-0.2-0.2-0.4-0.3-0.7-0.5c-1.4,1.6-2.8,3.2-4.2,4.7c-0.1-0.1-0.2-0.1-0.3-0.1c-0.1-0.2-0.2-0.4-0.2-0.6c-2.7-9.7-1.8-18.9,4-27.2
		c6.4-9.3,15.1-16.1,25.2-21.2c2.3-1.2,4.7-2.2,7.1-3.3c0.2,0.2,0.4,0.5,0.6,0.7c-0.4,0.5-0.6,1.1-1.1,1.4
		c-4.9,2.8-10.1,5.2-14.8,8.3c-7.9,5.1-13.8,11.9-17.1,20.8c-0.7,1.9-1.4,3.9-0.4,6.4c3.8-19,17.9-27.5,34-35.3
		c0.4,3.5,0.6,6.5,1.1,9.4c0.2,1.4,0.8,2.7,1.2,4c0,0,0,0,0,0c0.7,1.5,1.6,3.1,2.2,4.7c0.6,1.6,0.9,3.2,1.4,4.8
		c1.2,3.9,2.3,7.8,3.5,11.6c0.4,1.1,1.2,2.1,1.8,3.1c-3-5.8,0-10.8,2-15.9c0.7-1.6,1.5-3.2,2.1-4.8c0.7-2,1.1-4.2,1.6-6.3
		c1.4,2,1,4.5,0.2,6.9c-1.5,4.5-3.3,8.9-4.7,13.5c-0.5,1.5-0.3,3.2-0.6,4.8c-0.1,0.6-0.4,1.2-0.6,1.8v0c0,0,0,0,0,0.1
		c0.4,0.8,0.9,1.5,1.2,2.3c2.3,6.6,4.5,13.3,6.8,19.8c0.5,1.3,1.9,2.3,2.4,3.6c1.3,3.6,2.3,7.3,3.6,10.9c0.4,1.1,1,2.1,1.7,3.1
		c0.7,1.2,1.5,2.4,2.3,3.5c-0.1,0.2-0.3,0.4-0.4,0.5c-3.1-0.7-6.1-1.3-9.2-2c-0.3-0.1-0.4-0.3-0.7-0.5c-0.7-0.4-1.4-1-2.1-1.1
		c-3.2-0.8-5.9,0.5-8,2.6c-2.2,2.2-4.1,4.7-6.2,7.1c0.9-4.9,2.8-9.3,6.7-13.2c-4,1-6.7,3.1-9.3,5.5c0.3-0.6,0.6-1.2,0.9-1.8
		c-0.2-0.1-0.4-0.2-0.6-0.2c-1,2.3-2,4.5-3,6.9c1.5,0.6,2.6,1,3.7,1.5c0.1-0.1,0.1-0.3,0.2-0.4c-0.9-0.6-1.8-1.2-2.8-1.8
		c2-3,4-5.7,7.7-7.5c-3.5,4.8-4.9,9.6-4.1,15.3c1-1.7,1.8-3,2.7-4.4c0,0,0,0,0,0c0,0,0,0,0,0c2-2,3.8-4.2,6-5.8
		c1.8-1.3,3.7-2.4,6.5-1.6c13.2,3.8,26.9,5.4,40.6,6c18,0.7,35.9-1.1,53.2-6.2c5-1.4,9.2-0.9,13.7,0.8c0.7,0.3,1.5,0.6,2.2,0.7
		c0.5,0.1,1-0.1,1.9-0.2c-1.9-1-3.3-1.8-4.8-2.6c-3.2-1.6-6.6-2.4-10.2-1.3c-1.1,0.4-2,1.4-3,1.7c-4.3,1.1-8.7,2.5-13.1,3.1
		c-10.2,1.3-20.4,2.4-30.6,2.9c-7.1,0.3-14.2-0.5-21.3-0.9c-1.2-0.1-2-0.5-2.5-1.8c-2.5-6.4-5.2-12.7-7.7-19.1
		c-0.5-1.3-0.5-2.8-0.8-4.3c-0.2-0.7-0.6-1.3-0.9-2c-0.4,2.2-0.6,4.4-1.4,6.4c-1.6,4.2-3.6,8.2-5.5,12.4c-1.3-2.4-0.8-5,0.2-7.4
		c0.9-2.1,2-4.1,3-6.3c0.9-2.2,1.8-4.4,2.6-6.6c0.3,0.4,0.7,0.9,1.1,1.5c-0.4-0.9-0.7-1.9-1.3-2.8c-0.4-0.6-1.4-0.9-1.6-1.5
		c-1.5-4.6-4.1-8.9-4.1-14c0-0.7-0.3-1.3-0.4-1.7c-0.5,2.4-0.8,4.9-1.6,7.4c-1.6,5-4.5,9.7-4.3,15.7c-2.1-3.8-1.5-7-0.3-10.2
		c1.4-3.8,2.8-7.6,4.2-11.4c1-2.7-0.2-4.9-1.3-7.4c-1.9-4.4-3.2-9.1-4.6-13.8c-0.3-1,0.1-2.2,0.1-3.3c0-2.4-1.8-4-2.5-6
		c-1.5-4-2.1-8.3-3.1-12.5c0.4-0.2,0.7-0.3,1.1-0.4c13.9-4.5,28.4-5.8,42.8-6.6c17-1,34-0.5,50.8,3c13.3,2.8,26.3,6.6,38,13.7
		c5.2,3.1,9.8,7,14,11.4c0.3,0.3,0.4,0.7,0.6,1.1c-0.7,0.1-1.2,0.3-1.7,0.3c-0.1,0.2-0.2,0.3-0.3,0.5c7.9,0.6,11,6.1,13.3,12.5
		C211.1,168.5,210.5,167,210.2,165.4z M68.8,212.9c1.8-3.6,3.3-7.4,5-11.2c2.7,7,5.4,13.8,8.2,20.9c-3-0.5-6-0.9-8.9-1.4
		c-1.2-0.2-2.9-0.6-3.2-1.3C69,217.7,67.5,215.6,68.8,212.9z M63,191.9c1.4-3,2.1-6.4,3.3-9.9c1.6,4.6,3.2,8.8,4.6,13.1
		c0.2,0.6,0,1.4-0.3,2c-1.7,3.9-3.4,7.7-5.2,11.9C62.9,203.2,60.2,198,63,191.9z M61.8,169.3c3.1,5.6,1.2,10.4-0.8,15.5
		c-1,2.4-1.8,4.9-3,8c-1.8-5.4-3.9-10.5-4.9-15.7c-0.5-2.8,0.6-6,1.3-9c0.9-3.4,2.2-6.8,3.3-10.3C59.1,161.7,59.9,165.8,61.8,169.3z
		 M145.7,125.5c-0.2,0.4-0.9,0.9-1.3,0.9c-2.5-0.3-5.1-0.7-8-1.2c0.5-0.6,0.8-0.9,1-1.1c3.8-2.8,7.7-5.7,11.7-8.7
		C147.9,119,146.8,122.3,145.7,125.5z M133.3,124.8c1-1,1.6-1.9,2.4-2.5c3.3-2.5,6.8-4.9,10.1-7.6c2.1-1.6,3.9-3.6,5.7-5.4
		C150.8,112.8,136.8,125.2,133.3,124.8z M150.2,108.3c-0.5,1.6-2.1,3.1-3.6,4.3c-3.9,3.2-7.9,6.1-11.9,9.2c1.3-4.1,2.5-8.1,4-12.1
		c0.4-1,1.4-1.7,2.2-2.5c3.8-3.4,7.7-6.7,11.6-10C151.8,100.9,151.3,104.7,150.2,108.3z M154.4,92c-1.9,2.6-4,5-6.3,7.2
		c-3,3-6.3,5.7-9.5,8.6c-0.2-0.1-0.4-0.2-0.6-0.3c1-1.4,1.7-3.1,2.9-4.3c3.3-3.3,7-6.3,10.2-9.7c1.7-1.8,2.8-4.2,4.1-6.3
		C155.7,88.6,155.4,90.6,154.4,92z M155.4,74.5c-0.5,4-1.1,8.1-1.4,12.2c-0.2,2-1,3.6-2.4,5c-3.2,3-6.4,6-10,9.5
		c0.9-3.7,2-6.8,2.2-9.9c0.4-5.3,2.9-9.3,6.2-13.2c2-2.3,3.7-4.9,5.8-7.8C155.6,72,155.5,73.3,155.4,74.5z M157.6,59.9
		c0.7,3.2-0.7,6.2-2.5,8.9c-1.8,2.8-3.9,5.5-5.9,8.2c-1.7,2.4-3.5,4.8-5.7,7.2c0.4-1.5,0.5-3.2,1.3-4.5c2.5-3.9,5.3-7.6,7.8-11.4
		C154.4,65.6,155.9,62.7,157.6,59.9z M153.8,41.9c0.2,0,0.4,0,0.6,0c0.6,5.8,1.4,11.6,1.6,17.4c0.1,1.8-1.3,3.8-2.4,5.4
		c-2.3,3.5-4.9,6.8-7.3,10.2c-0.2,0-0.3-0.1-0.5-0.1c0-3.3,0.3-6.6-0.1-9.8c-0.5-5.2,0.5-9.7,3.5-14C151.2,48.2,152.3,45,153.8,41.9
		z M152.3,35.5c0.3,0,0.5,0.1,0.8,0.1c-0.2,1.8,0,3.8-0.7,5.4c-1.6,4.1-3.7,8-5.6,11.9c-0.8,1.6-1.5,3.2-2.4,5.4
		c-0.7-3.6,0.8-6.1,2-8.6c1.8-4.1,3.7-8.3,5.5-12.4C152.1,36.7,152.2,36.1,152.3,35.5z M140.7,16.5c0.9,1.2,2,2.2,2.7,3.5
		c2.4,3.9,4.7,7.8,6.9,11.7c1.3,2.3,1,4.6,0,6.9c-1.8,3.9-3.6,7.9-5.5,12.2c-1.5-5.5-2.9-10.4-4-15.3c-0.4-1.9-0.3-3.9-0.1-5.8
		c0.3-4.3,1.2-8.6-0.5-12.9C140.3,16.7,140.5,16.6,140.7,16.5z M140,20.4c0.1,2.9-0.3,5.7-0.4,8.6c-0.1,2.1,0,4.2,0,6.7
		c-0.4-0.6-0.8-0.9-0.9-1.3c-0.3-2.9-0.7-5.9-0.6-8.8c0.2-4.8,0.2-9.5-2-14.1C138.9,13.8,139.9,17,140,20.4z M124.8,5.1
		c1,0.4,2,0.9,3,1.4c1.4,0.8,2.8,1.5,4.2,2.4c3,1.9,4.3,4.9,4.5,8.1c0.3,3.5,0.1,7,0.1,10.6c-2.7-3-5.5-5.7-7.8-8.7
		c-1.2-1.5-1.6-3.7-2.2-5.6c-1.1-3.3-2.4-6.6-4.9-9.5C122.7,4.3,123.8,4.7,124.8,5.1z M99.6,2.2c4.2,0,8.4,0.4,12.6,0.7
		c2.7,0.2,4.8,1.5,6.2,3.8c1.5,2.5,2.9,5,4.7,8c-3-0.9-5.3-1.6-7.7-2.3c-1.2-0.3-2.3-0.8-3.5-0.7c-4.4,0.2-8.1-1.8-11.9-3.7
		c-3-1.6-6.1-3.1-9.8-4.9C93.6,2.7,96.6,2.1,99.6,2.2z M88.8,4.1c3.1,1,6,2.4,8.9,3.8c2.6,1.2,5.2,2.7,7.8,4
		c-0.1,0.2-0.1,0.5-0.2,0.7c-2.3-0.8-4.7-1.4-7-2.3C94.8,9,91.4,7.1,87.8,6.1c-2.3-0.7-4.9-0.4-7.3-0.5C82.9,3.8,85.8,3.2,88.8,4.1z
		 M67.2,13.6c3.3-1.8,6.6-3.7,10-5.4c5.7-2.9,11.2-1.4,16.5,1.4c1.3,0.7,2.5,1.3,3.7,1.9c-4,1.2-7.9,2.1-11.6,3.8
		c-2.7,1.2-5.2,1.4-7.9,1.3c-4.9-0.2-9.8,0-15.2,0C64.3,15.4,65.7,14.4,67.2,13.6z M39.3,50.5c0.4-0.8,1.2-1.5,1.9-2.2
		c4.5-3.9,9.8-6.2,15.5-7.9c0.7-0.2,1.3-0.6,2-0.7c0.3,0,0.6,0.5,1,0.7c-0.8,0.9-1.7,1.8-2.2,2.8c-2.1,3.8-4,7.7-6.2,11.5
		c-0.7,1.2-1.8,2.1-2.9,3c-4.4,3.4-8.9,6.7-13.5,10C35.5,61.8,36.7,56,39.3,50.5z M39.9,85.3c-2.2,2.3-4,4.9-6.3,7.7
		c0-1.2,0-2.1,0-3.1c0.2-4.3,0.2-8.7,0.6-13c0.1-1.5,1-3.2,2-4.2c3.9-3.7,8-7.1,12.1-10.6c0.1,0.1,0.3,0.2,0.4,0.4
		c-0.8,3.6-2.1,7.1-2.4,10.7C45.9,78.3,43.2,81.8,39.9,85.3z M45.1,101.9c0,1.2-0.2,2.5-0.7,3.6c-1.7,3.4-3.7,6.6-5.5,9.9
		c-0.7,1.4-1.3,2.8-1.9,4.3c-0.2,0-0.3-0.1-0.5-0.1c-0.7-5.6-1.6-11.2-2-16.8c-0.2-2,0.4-4.3,1.4-5.9c2.6-4,5.7-7.7,8.7-11.5
		c0.2,0.1,0.3,0.1,0.5,0.2c-0.1,1-0.2,2-0.2,2.9C45,93,45.1,97.5,45.1,101.9z M46.3,100.3c-0.4-0.5-0.4-1.3-0.5-2c-0.1-4-0.2-8,0-12
		c0-1.5,0.6-3,1.1-4.4c0.9-2.4,1.6-4.8,0.2-7.2c-0.2-0.4-0.1-1,0-1.4c0.8-3.6,1.4-7.2,2.5-10.7c0.6-1.9,2.2-3.5,3.2-5.4
		c0.7-1.2,1-2.6,1.3-4c-2,5.9-7.2,8.5-11.7,11.9c-3.6,2.7-7.1,5.5-9.5,9.7c0.1-0.9,0-2,0.5-2.7c1.4-2,2.9-4.2,4.8-5.7
		c3.1-2.6,6.5-4.8,9.8-7.3c2.1-1.6,3.8-3.4,4.9-6c1.5-3.7,3.8-7.1,5.8-10.7c0.4-0.7,0.6-1.4,0.9-2c0,0,0,0,0,0c0,0,0,0,0.1-0.1
		c0,0,0,0,0,0c2.3-2,4.5-4.1,6.8-6.1c-0.1-0.2-0.3-0.4-0.4-0.6c-4.4,5.4-11,5.8-16.8,8.1c-4,1.6-7.9,3.3-10.2,7.3
		c-0.2-0.1-0.3-0.1-0.5-0.2c0.4-1,0.5-2,1.1-2.9c1.8-2.7,4.2-4.6,7.2-5.6c4.5-1.6,9.1-2.7,13.6-4.3c2.9-1,5.5-2.6,7.4-5.4
		c2-2.8,5-4.9,7.5-7.3c0.4-0.3,0.7-0.7,1-1.1c0,0,0,0,0,0c-1.6,1.1-3.3,2.1-4.8,3.4c-1.8,1.5-3.5,3.1-4.9,4.9
		c-2.2,2.8-5.1,4.3-8.3,5.3c-4.9,1.5-9.7,3-14.6,4.4c3.3-5.6,6.5-11.7,11.8-16.1c2-1.7,5.1-2.4,7.8-2.7c3.9-0.4,8-0.1,12-0.1
		c0.3,0,0.6,0.6,1,0.9c0,0,0,0,0.1,0c0,0,0,0-0.1,0.1c1.6-0.6,3.2-1.1,4.7-1.7c0.8-0.3,1.5-0.8,2.3-1.2c-0.1-0.2-0.2-0.4-0.2-0.6
		c-0.8,0.3-1.5,0.7-2.3,0.7c-2.7,0.2-5.3,0.4-8,0.2c-5.9-0.4-11.8-0.4-17.4,2.5c0.5-0.6,0.8-1.2,1.4-1.7c2.8-2.6,6.3-3.3,9.9-3.4
		c5.4-0.1,10.8,0.1,16.2,0c1.1,0,2.1-0.8,3.2-1.2c4.8-2,9.6-4,15-3.3c2.1,0.3,4,0.9,6.1-0.4c0.9-0.5,2.4-0.3,3.5,0
		c3.2,0.7,6.3,1.3,9.4,2.4c1.6,0.6,3,1.9,4.4,3c0.8,0.6,1.4,1.3,1.9,1.8c-1.8-3.7-3.5-7.5-5.6-11.1c-1.3-2.2-3.3-4-5-5.9
		c2.8,0.2,5,2,6.3,4.6c2,3.8,3.5,8,5.4,11.8c0.7,1.3,2,2.3,3,3.5c1.9,2.3,3.8,4.7,5.6,7.1c0.3,0.3,0.5,0.7,0.6,1.1
		c0.1,2.9,1.3,5.1,3.5,7.1c1.1,1.1,1.2,3.2,1.6,4.9c0.7,3,1.4,6,2,9c0.1,0.6-0.1,1.2-0.1,1.9c0,1.3-0.5,2.9,0,3.9
		c1.6,3.1,0.9,6.3,1.1,9.5c0.1,2.6,0.2,5.2,0.1,7.8c-0.1,1.6-0.6,3.2-0.9,4.7c-0.3,1.2-0.9,2.5-0.8,3.6c0.8,5.2-1.1,10-2.1,14.9
		c-0.5,2.4-1.7,4.7-2.6,7c-0.4,1.2-0.8,2.4-1.2,3.6c-1.6,5.1-3.2,10.3-4.8,15.4c-0.1,0.4-1.2,0.7-1.8,0.7c-6.2-0.3-12.4-1-18.5-1
		c-6.8-0.1-13.6,0.2-20.4,0.6c-11.8,0.6-23.5,2.1-34.9,5.6c-1.5,0.5-2.9,1-4.4,1.4c-0.1,0-0.3,0-0.8-0.1c0-0.8,0.2-1.7,0-2.6
		c-0.3-1.2-1-2.3-1.4-3.5c-0.7-2-1.5-3.9-1.9-5.9c-0.6-2.7-1-5.4-1.3-8.1c-0.1-1.3,0-2.7,0.3-4C47.7,104.6,47.8,102.4,46.3,100.3z
		 M38.5,127.6c-0.2-1.2,0.5-2.6,1.1-3.7c2-4.2,4.2-8.4,6.5-12.9c0.6,3.4,1,6.4,1.6,9.5c0.4,2.1,1,4.2,1.3,6.4
		c0.2,1.1,0.2,2.4-0.2,3.3c-1.6,3.3-3.4,6.5-5.1,9.7c-0.6,1.1-1.1,2.2-2,3.9C40.5,138,39.4,132.8,38.5,127.6z M42.3,152.3
		c-1.7-6.4,2-11.3,4.5-16.5c1.4-2.8,2.8-5.7,4.1-8.4c0.7,2.8,0,5.7-1.4,8.5c-1.6,3.3-3.2,6.5-4.7,9.9c-0.8,1.8-1.1,3.8-1.6,5.6
		C43.1,151.8,42.6,152,42.3,152.3z M55.3,150.3c0.3,2-0.7,4.4-1.4,6.4c-1.4,3.8-3,7.5-4.8,11.7c-1.6-5.5-3.4-10.6-4.6-15.9
		c-0.4-1.6,0.6-3.7,1.3-5.4c1.8-4.4,3.7-8.8,5.9-13.8C53,139.3,54.5,144.8,55.3,150.3z M202.5,157.3c-0.4-0.3-0.9-0.4-1.1-0.8
		c-3.5-4.6-8.1-8.1-12.8-11.4c-10.3-7.2-22-11-34-14c-12.7-3.2-25.7-4.7-38.8-4.9c-12.8-0.1-25.6,0.4-38.3,2.2
		c-8,1.1-16,2.4-23.7,4.9c-0.4,0.1-1-0.2-1.5-0.4c0.4-0.4,0.7-1.2,1.2-1.3c6.6-1.6,13.2-3.6,19.9-4.7c17.1-2.7,34.3-3.3,51.5-2.1
		c12.8,0.8,25.5,3,37.9,6.8c9.1,2.8,17.7,6.5,25.8,11.4c4.3,2.6,7.7,6.7,11.4,10.2c1.1,1.1,2.1,2.3,3.1,3.5
		C202.8,157,202.6,157.2,202.5,157.3z"/>
	<path d="M194.8,223.5c-0.2,0-0.4-0.1-0.5-0.2c-0.3,0.9-0.5,1.8-0.9,3c-2.9-7.6-8.3-11.7-15.9-13.2c0.6,0.7,1.1,1.4,1.7,2.1
		c0,0,0,0,0,0c1.3,0.4,2.7,0.6,3.8,1.3c3.2,2,3,2.1,1.2,5.3c-7.3,13-12.6,26.7-12.9,41.9c0,2.8-1.1,5-3.1,6.9
		c-0.5,0.4-1.2,0.5-1.7,1c-0.7,0.7-1.3,1.5-2.1,2.4c-0.8-4.5-0.3-6.1,2.1-6.8c-0.1,1-0.2,1.9-0.2,2.8c1-2.1,2-4.2,3-6.3
		c-3.7,2.8-7.6,5-12.5,5.3c0-1.9,0-3.6,0-5.2c-0.1-1.4,0.4-2.3,1.8-2.9c1.1-0.5,2.1-1.4,3.1-2.1c-0.1-0.2-0.3-0.4-0.4-0.6
		c-6.2,3.7-12.9,5.6-20.1,5.3v-8.4c3.5-0.7,7-1.2,10.3-2.1c4-1.1,7.8-2.6,11.7-3.9c-0.1-0.2-0.1-0.3-0.2-0.5c-2,0.2-4.1,0.4-6.3,0.6
		c0.3-2.9,0.3-5.5,1.1-7.9c0.4-1.2,2.2-2,3.4-3c0.3-0.3,0.5-0.6,1-1.1c-15.2,5.7-17.3,6.2-21.1,4.8v-7.2h-0.6
		c-0.2,2.6-0.4,5.3-0.4,7.9c0,1.6-0.6,2.2-2.3,1.8v-9.3c-0.2,0-0.4,0-0.6,0c-0.1,2.1-0.2,4.3-0.4,6.4c0,0.6-0.3,1.5-0.8,1.7
		c-6.6,3-13.5,4-20.8,2.6c-1.6-0.3-2.4-1-2.1-2.9c0.2-1.2,0-2.5,0-3.7c-0.3,0-0.5,0-0.8,0c-0.1,1.8-0.2,3.6-0.2,5.3
		c0,1.6-0.6,2.2-2.3,1.5c0.1-2.3,0.3-4.6,0.4-6.9c-0.2,0-0.5,0-0.7-0.1c-0.2,2.3-0.4,4.6-0.5,7.1c-1.1,0-2.1,0.1-3,0.2v0.4
		c5.8,0.2,11.6,0.4,17.6,0.7c-0.1,1-0.1,1.6-0.2,2.2c-0.3,1.8,0.1,4.3-1,5.4c-1.2,1.2-3.6,1.2-5.5,1.7c-0.1,0-0.1,0-0.2,0
		c-3.5,0.3-7,0.6-10.5,0.9c0,0.1-0.1,0.2-0.1,0.3c1.9,0.2,3.8,0.5,6,0.8v9.3c3.8,0.6,7.4,1.1,11.2,1.6v0.9c0,2.4,0,5.1,0,7.8
		c0,0.4-0.7,1.1-1.2,1.2c-3.1,0.9-6.2,2-9.3,2.4c-3.2,0.4-6.5,0.1-9.8,0.1c0,0.2,0,0.4,0,0.7c1.5,0.1,3.1,0.4,4.6,0.3
		c1.7-0.1,2.4,0.4,2.3,2.3c-0.1,1.6,0.2,3.3,0.3,4.9c0.3,0,0.5,0,0.8,0c0-1.9-0.1-3.8,0-5.6c0-0.5,0.7-0.9,1-1.4
		c0.3,0.5,0.8,0.9,0.8,1.4c0.2,2.1,0.3,4.3,0.5,6.6c-0.4,0-0.9,0.1-1.5,0.2c-8.9,0.6-17.7,0.4-26.5-0.4
		c-14.1-1.3-27.1-5.2-38.5-13.7c-0.5-0.3-1-0.7-1.4-1.1c-3.2-2.5-6.2-5.3-6.3-9.7c-0.3-8.2-2.5-15.9-5.1-23.6
		c-2.7-7.9-6.3-15.3-10.9-22.3c-1.8-2.8-2.1-2.4,1.1-4.4c0.3-0.2,0.6-0.3,0.7-0.3c3.1,2,5.9,3.9,9.2,6v3.5c1.3-2.3,2.6-4.6,3.9-6.9
		c-0.9,0.8-1.8,1.6-2.7,2.4c-0.2-0.1-0.4-0.1-0.6-0.2c0.7-3.1,1.3-6.2,2-9.3c-7.6-3-22,7.3-22.8,15.8c1.7-3.2,3.8-6.1,6.9-8.3
		c0.4,0.5,0.7,0.8,0.9,1.1c2.8,5.6,5.5,11.2,8.3,16.8c4.6,9.7,8,19.8,8.5,30.6c0.1,1.6,0.9,3.3,1.8,4.6c1.5,2.1,3.1,4,5,5.7
		c2,1.8,4.3,3.4,6.7,4.6c5.3,2.6,10.8,4.8,16.3,6.8c5.1,1.9,10.5,2.6,15.9,2.8c6.5,0.2,12.9,1,19.3,1.2c5.8,0.1,11.6-0.3,17.5-0.7
		c6-0.4,11.8-1.7,17.3-4.3c2.5-1.2,5.3-1.9,7.9-3c3.8-1.5,7.7-2.8,11.1-4.9c1.8-1.1,3.4-2.3,5-3.6c1.8-1.4,3.5-2.9,5.3-4.3
		c2.8-2.1,4.3-4.8,4.7-8.3c0.4-3.7,0.7-7.4,1.5-11.1c2.5-11.2,6.4-21.9,12.3-31.9c0.2-0.4,0.6-0.7,1.1-1.2c1,1.3,2,2.4,2.9,3.6
		c1.3,1.9,3.5,3.4,2.9,6.3C193.6,227.6,194.2,225.5,194.8,223.5z M35.4,211.5c-0.6,3.2-1.2,5.9-1.8,8.9c-2.5-1.7-4.9-3.4-7.4-5.1
		c0-0.2-0.1-0.5-0.1-0.7C29.3,213.6,32.3,212.5,35.4,211.5z M153.6,263.5c0-0.5,1.1-1,2-1.8c0.3,3.3,0.6,5.9,0.5,8.5
		c0,0.6-1.5,1.2-2.6,2C153.6,268.9,153.5,266.2,153.6,263.5z M152.4,263.1c0,2.5,0.1,5,0,7.4c0,0.5-0.7,1-1.2,1.4
		c-0.7,0.6-1.5,1.1-2.2,1.6c-5.8,3.8-12.4,5-19.3,5.1c-1.7,0-2.5-0.5-2.4-2.5c0.1-1.7,0.1-3.4,0.1-5.3c0-0.7,0-1.5,0-2.2
		C135.6,266.7,143.9,264.9,152.4,263.1z M140.3,263.6c0,1.4-0.6,1.9-2,1.7c0-2.8-0.1-5.7,0.1-8.5c0-0.5,1-0.9,1.5-1.4
		c0.2,0.2,0.3,0.3,0.5,0.5C140.3,258.4,140.2,261,140.3,263.6z M156.7,240.6c-0.3,3.6-0.5,6.6-0.9,9.5c-0.1,0.6-1.1,1.1-1.7,1.6
		c-0.2-0.1-0.4-0.2-0.7-0.3c0.4-3.1,0.7-6.2,1.2-9.2C154.8,241.6,155.7,241.3,156.7,240.6z M127.5,251.4c0.1-1.3,0-2.7,0-4.2
		c8.8-1.7,17.4-3.3,26.1-5c-0.2,2.1-0.3,4.4-0.8,6.6c-0.2,0.8-1.4,1.5-2.3,1.9c-6.1,2.7-12.3,4.8-19.1,4.5h-0.4
		C127.4,255,127.2,254.8,127.5,251.4z M124.5,248.7c0-0.5,0.9-1,1.4-1.5c0.2,0.2,0.3,0.4,0.4,0.5c0,2.5,0,5,0,7.5
		c0,1.4-0.7,1.7-1.9,1.4C124.5,254,124.4,251.3,124.5,248.7z M118.1,268c-0.4,0-0.8-0.1-1.3-0.2c-3.7-0.7-4-1-3.8-4.8
		c0-1.5,0-2.9,0-5.1c3.9,0,7.4,0.1,10.9,0c1.2,0,2.5-0.4,3.7-0.6c3.1-0.5,6.2-1.1,9.4-1.6c0,2.8,0.1,5.2-0.1,7.6
		c0,0.5-1.1,1-1.7,1.4C129.8,267.2,124.1,268.3,118.1,268z M124.4,269.9c0-0.4,0.8-0.8,1.6-1.5c0,0.8,0.1,1.6,0.2,2.3
		c0.2,3.3,0.4,6.3,0.6,9.5c-0.8,0.1-1.5,0.3-2.4,0.4c0-3.5,0-6.8,0-10C124.3,270.3,124.3,270.1,124.4,269.9z M163.5,274.1
		c0,0.6-0.7,1.2-1.2,1.6c-0.3,0.2-0.5,0.4-0.8,0.6c-4.2,3.2-9,5.3-13.8,7.3c-3.8,1.5-7.6,2.9-11.4,4.4c-7,2.6-14.3,3.5-21.9,3.3V283
		c7.4-1.3,14.9-2.6,22.4-3.9c0.3,2.4,0.5,4.6,0.8,6.9c0.2,0,0.5,0,0.7,0c-0.1-1.7-0.1-3.4-0.3-5c-0.2-1.7,0.5-2.5,2.3-2.3
		c0.2,2.1,0.3,4.1,0.5,6.2c0.2,0,0.4,0,0.6,0c0-1.7,0.1-3.4,0-5c-0.1-1.2,0.2-1.8,1.4-2.3c2.9-1.1,5.7-2.3,8.6-3.6
		c1.6-0.7,3.2-1.4,4.8-2.1c2.3-1,4.6-2.3,7.4-3.7C163.5,270.5,163.6,272.3,163.5,274.1z M38,218.2c0,0.1-0.1,0.1-0.1,0.2
		C38,218.3,38,218.3,38,218.2L38,218.2z"/>
	<path d="M68.7,272.3c-0.1,0-0.2-0.1-0.3-0.1c-1-0.4-2.1-1.5-2.3-2.4c-0.5-2.7-0.5-5.4-0.7-8.1c1.5-0.2,2.9-0.3,4.3-0.5
		c-3.1-0.7-6.3-1.2-9.4-2c-6.1-1.6-8.5-4.9-7.7-10.7c5.7,0.3,11,4,16.9,2.6c-1-0.3-2.1-0.3-3.2-0.5c-0.5-0.1-1.3-0.5-1.3-0.9
		c-0.4-2.9-0.7-5.8-1.1-8.8c1-0.2,2-0.3,2.9-0.5c-4.8-0.9-9.4-2-14-3.2c-1.8-0.5-2.5-1.5-2.7-3.4c-0.1-1.5-0.8-3-1.2-4.6
		c-0.2,0.1-0.5,0.1-0.7,0.2c0.6,2.6,1.2,5.2,1.9,7.9c-2.7-0.3-2.7-0.4-3-2.5c-0.4-2.2-0.9-4.3-1.3-6.4c-0.2,0-0.5,0.1-0.7,0.1
		c0.4,2,0.8,4.1,1.2,6.7c-3.1-1.1-5.6-2-8.2-2.8c2,1.5,4,2.9,6.2,4c3.9,2,8.1,3.2,12.5,3.2c0.9,0,2.5,0.5,2.7,1c0.7,2.9,1,5.8,1.5,9
		c-1.1-0.3-1.8-0.5-3-0.8c1-0.3,1.5-0.4,1.9-0.6c-7.4-0.5-14.5-1.6-20.7-6.1c1.8,2.6,4.4,3.9,7.2,4.9c0.6,0.2,1.4,0.5,1.5,0.9
		c0.5,1.8,0.7,3.8,1.2,6.3c-3.9-1.2-7.1-2.2-10.3-3.3c1.7,1.2,3.5,2,5.3,2.8c0.8,0.4,1.7,0.6,2.5,1c2,0.9,3.8,2,5.8,2.8
		c2.8,1.1,5.7,1.9,8.5,2.8c0.4,0.1,1,0.5,1,0.8c0.1,2.7,0,5.4,0,8.5c-3.6-0.9-7.2-1.4-10.4-2.7c-3.2-1.3-6-3.3-9-5
		c1.2,2.3,3.5,3.6,5.8,4.9c0.6,0.3,1.7,0.6,1.7,1c0.2,2.6,0.2,5.2,0.3,7.7c0,0.2,0,0.4,0,0.6v0c0,0,0,0,0,0c0,0,0,0,0,0
		c0.2,0.2,0.4,0.5,0.6,0.7c0.2-0.3,0.4-0.7,0.5-1c0-0.2,0-0.4,0-0.6c0-2.4,0-4.7,0-7.1c1.4,0.2,2.1,0.8,2,2.5c-0.1,1.4,0,2.7,0,4.1
		c0,0.3,0,0.7,0,1c0,3.4,1.9,5.3,6,5.7c-1.4-0.7-2.4-1-3.3-1.7c-0.8-0.5-1.8-1.3-1.9-2c-0.1-1-0.1-2.1-0.1-3.2c0-1.8,0-3.6,0-5.4
		c3.6,1.4,7,2.5,9.9,3.4c5.2,1.5,9,2.1,10.9,1.6C73.1,273.9,70.8,273.3,68.7,272.3z M60.8,240.8c1.8-0.4,2.5,0.2,2.6,1.8
		c0.2,2.5,0.7,4.9,1,7.4c-0.2,0.1-0.4,0.3-0.6,0.4c-0.5-0.4-1.4-0.8-1.5-1.3C61.6,246.4,61.3,243.7,60.8,240.8z M49.8,254.1
		c0-1.9-0.4-3.9-0.7-5.9c1.4-0.3,2.1,0.3,2.3,1.7c0.3,2.3,0.8,4.5,1.2,6.9C50.7,256.8,49.8,256.1,49.8,254.1z M58.7,270.7
		c0-0.1,0-0.2,0-0.3c1.2-0.1,2.3-0.1,3.8-0.2c0.1,0.5,0.1,1,0.3,1.7C61.2,271.4,59.9,271,58.7,270.7z M63.6,271.2
		c-0.3-3.3-0.4-6.5-0.7-10.5c0.8,0.7,1.7,1.1,1.8,1.6c0.3,3.3,0.4,6.5,0,10.1C64.3,272,63.6,271.6,63.6,271.2z"/>
	<path d="M44.5,226.4c3.2,0.9,6.5,1.6,9.7,2.6c11.3,3.6,22.8,5.9,34.7,6.6c9.5,0.6,18.9,1.1,28.4,0.3c17.8-1.6,35.2-4.9,51.7-12.2
		c3.6-1.6,7.1-3.2,10.9-4.5c-1.7,1.1-3.2,2.5-5,3.2c-7.5,3-14.9,6.2-22.6,8.5c-9.6,2.9-19.5,4.6-29.5,5.6
		c-11.9,1.2-23.7,1.4-35.6,0.4c-11-0.9-21.8-3-32.4-6.3c-2.3-0.7-4.6-1.6-6.9-2.5C46.7,227.7,45.7,227,44.5,226.4
		C44.6,226.4,44.5,226.4,44.5,226.4z"/>
	<path d="M198.2,224.3c1.3-4.5,1.1-8.9-0.2-13.4c-1.4-4.5-4.1-8.1-8.4-10.2c3.4,0.3,5.5,2.5,7.2,4.7c1.7-1.5,3.4-2.9,5.4-4.5
		c-5.6-2.1-10.6-3.4-15.9-1.1c0.7-1.6,1.7-2.3,3.6-2.7c5.6-1.1,10.6,0.4,15.3,3.4c3.2,2,3.6,2.7,5.5,7c-0.5-0.4-0.9-0.8-1.4-1.2
		c-1.7-1.4-3.4-2.9-5.2-4.2c-0.4-0.3-1.4,0.1-2,0.3c-0.1,0-0.2,0.2-0.3,0.3c-1.4,1.4-3.4,2.6-3.9,4.3c-0.4,1.5,1,3.5,1.3,5.3
		c0.7,4.5,0.9,9.1-1.1,13.5C198.2,225.2,198.2,224.7,198.2,224.3L198.2,224.3z"/>
	<path d="M212.6,188.4c-0.3-6.1-0.9-11.9-3.8-17.3c0.4,0.1,0.7,0.2,1.1,0.3c-0.3-0.6-0.5-1.1-0.8-1.7c0.3,0.1,0.6,0.2,0.6,0.3
		c1.3,2.1,1.9,4.5,2.5,6.9c1.4,6,1,12.1,1.4,18.2c0.4,4.7,0.4,9.5,0.5,14.2c0,1.2-0.6,2.4-1,4c-1.3-5.2-2.5-9.8-3.7-14.4
		c0.1,0,0.1-0.1,0.2-0.1c1.1,2.7,2.2,5.5,3.5,8.7c0-1.6,0.1-2.6,0-3.7c-0.2-2.5-0.7-5-0.9-7.5c-0.5-5.6-2.1-10.9-5.3-15.7
		C209.2,181.1,210.5,183,212.6,188.4z"/>
	<path d="M18.9,236.7c-2.2-1.5-4.3-2.9-6.7-4.5c0.9,3.3,4.1,3.8,5.9,6c-1.7-1-3.4-2-5.1-3c-0.1,0.1-0.3,0.2-0.4,0.3
		c0.6,1.2,1.2,2.3,1.9,3.8c-2.6-1.8-4.4-3.9-6.1-6.3c-1.2-1.8-3.3-3.2-2.5-5.3c1.7,2.6,3.7,5.7,5.7,8.7c0.1-0.1,0.2-0.2,0.3-0.2
		c-0.1-2.9-0.5-5.9-0.3-8.8c0.2-2.9,0.8-5.8,1.3-8.7c0.2,0,0.5,0.1,0.7,0.1c-0.3,1.6-0.4,3.3-0.8,4.9c-1.4,4.7,0.8,7.9,4.3,10.6
		c0.8,0.6,1.5,1.2,2.2,1.9C19.2,236.3,19,236.5,18.9,236.7z"/>
	<path d="M179.2,215.2C179.3,215.2,179.3,215.2,179.2,215.2c1.2,0.8,2.4,1.6,3.6,2.3c-0.1,0.2-0.2,0.5-0.4,0.7
		c-2.1-1-4.2-2.2-6.4-3.1c-2.4-0.9-4.8-1.9-7.3-2.2c-1.7-0.2-3.5,0.8-5.6,1.3c2.5,1.7,4.7,3.2,6.9,4.7c0,0-0.1,0-0.1,0.1
		c-3.9-1.8-7.8-3.6-10.9-5c1.1-0.2,3.4-0.1,5-1.1c3.3-2.2,6.6-1.9,10-0.7C175.9,212.9,177.5,214.2,179.2,215.2z"/>
	<path d="M38.8,206.9c-2.3-0.5-4.7-0.8-6.9-1.7c-2.2-0.9-4.5-2.2-6-3.9c-4.3-5.2-6.1-3.3-10.5-1c-2.1,1.1-3.9,2.9-6,4.1
		c0.9-0.9,1.6-1.9,2.6-2.6c2.3-1.5,4.7-2.9,7.2-4.1c2-1,4.2-0.5,5.6,1.2c3.2,3.8,7.4,5.7,12,6.9c0.7,0.2,1.4,0.6,2.1,0.9
		C38.9,206.7,38.8,206.8,38.8,206.9z"/>
	<path d="M195.8,210.3c-3.8-5.4-7.5-10.8-15.6-8.3c1-1.6,2.8-2.3,5.4-1.8C191.2,201.1,193.7,205.5,195.8,210.3z"/>
	<path d="M2.6,187.1c1.3-3.5,1.9-7.2,5.6-9.2c-0.6,0.7-1.1,1.3-1.7,2c0.1,0.1,0.1,0.1,0.2,0.2c0.8-0.5,1.6-1,2.6-1.6
		C7.1,181.5,4.9,184.2,2.6,187.1z"/>
	<path d="M193.6,192c2.1-3.9,6-3.8,9.7-3.8C200.1,189.5,196.9,190.8,193.6,192z"/>
	<path d="M198.2,224.2c-0.7,2.2-1.4,4.4-2.3,6.5c-0.4,0.9-1.2,1.6-2,2.3c3.1-4.8,3.5-10.2,3.5-15.7C197.7,219.7,198,222,198.2,224.2
		C198.2,224.3,198.2,224.2,198.2,224.2z"/>
	<path d="M202.6,180.9c0-5.8,0-11.1,0-16.1C204.5,169.8,204.4,175.1,202.6,180.9z"/>
	<path d="M8.8,184.1c2.9-1.4,6.9,1.6,9.9,7.7c-0.9-1-1.7-2.1-2.7-3.1c-1-1.1-2-2.2-3.2-3C11.6,184.9,10.1,184.6,8.8,184.1z"/>
	<path d="M110,259.6c0,2.8,0,5.6,0,8.3c-0.2,0-0.3,0-0.5,0c0-2.8,0-5.6,0-8.3C109.7,259.6,109.9,259.6,110,259.6z"/>
	<path d="M187.7,210c-3.8-1.3-7.5-2.6-11.3-4C180.7,205.9,184.3,207.6,187.7,210z"/>
	<path d="M21.1,195.9c-2.7,1.1-5.6,2.4-8.5,3.5C14.2,197.1,19,195.2,21.1,195.9z"/>
	<path d="M38.1,218.2c1.3-3,4-4.3,6.9-5.3C42.7,214.7,40.4,216.4,38.1,218.2L38.1,218.2z"/>
	<path d="M9,173.3c-1.7,1.8-3.4,3.7-5.1,5.5c-0.2-0.2-0.3-0.3-0.5-0.5c1.7-1.8,3.5-3.7,5.2-5.5C8.7,173,8.8,173.2,9,173.3z"/>
	<path d="M203.4,184.7c-1.8,0.7-3.7,1.4-5.5,2.1c-0.1-0.1-0.1-0.3-0.2-0.4c1.8-0.7,3.7-1.5,5.5-2.2
		C203.2,184.4,203.3,184.6,203.4,184.7z"/>
	<path d="M49.8,211.1c-1.8,0.1-3.1,0.2-4.4,0.3C46.5,209.3,47.9,210,49.8,211.1z"/>
	<path d="M49.5,276.3c0.3,0.1,0.6,0.3,0.8,0.4c-0.9,0.3-1.6,0.3-2.2,0c-1.2-0.5-2-1.8-3.1-2.5C46.5,274.9,48,275.6,49.5,276.3z"/>
	<path d="M50.5,276.6C50.5,276.7,50.4,276.7,50.5,276.6C50.4,276.7,50.4,276.7,50.5,276.6c0,0.1-0.1,0-0.1,0
		C50.4,276.7,50.4,276.7,50.5,276.6C50.4,276.6,50.4,276.6,50.5,276.6z"/>
	<path d="M195.4,227.6c-1,1.8-2,3.6-2.9,5.4c-0.2-0.1-0.3-0.2-0.5-0.3c0.9-1.8,1.9-3.6,2.8-5.4C195,227.5,195.2,227.5,195.4,227.6z"
		/>
	<path class="st0" d="M151.6,109.4c-0.8,3.4-14.8,15.8-18.3,15.4c1-1,1.6-1.8,2.4-2.5c3.3-2.5,6.8-4.9,10.1-7.6
		C147.9,113.1,149.7,111.2,151.6,109.4z"/>
	<path class="st0" d="M62.5,270.2c0.1,0.5,0.1,0.9,0.3,1.7c-1.5-0.5-2.8-0.8-4.1-1.2c0-0.1,0-0.2,0-0.3
		C59.9,270.3,61,270.2,62.5,270.2z"/>
</g>
<path class="st1" d="M48.2,276.7c0.4-0.1,0.9-0.3,1.3-0.4c0.3-0.1,0.6-0.2,0.9-0.3c0.4-0.1,0.8-0.2,1.1-0.3c0,0.2,0,0.4,0,0.6
	c0,0.3-0.3,0.7-0.5,1c-0.2-0.2-0.4-0.5-0.6-0.7c0,0,0,0,0,0c0,0,0,0,0,0c0,0,0,0,0,0c0,0,0,0-0.1,0C49.5,277,48.8,277,48.2,276.7z"
	/>
<path class="st1" d="M53.7,276.1c0-0.3,0-0.7,0-1c0.2-0.1,0.5-0.1,0.7-0.2c0,1.1,0,2.1,0.1,3.2c0.1,0.7,1.1,1.5,1.9,2
	c0.9,0.6,2,1,3.3,1.7C55.5,281.4,53.7,279.6,53.7,276.1z"/>
<path class="st1" d="M64.3,273c1.4-0.2,2.9-0.5,4.4-0.7c2.1,0.9,4.4,1.6,6.5,2.3C73.3,275.1,69.5,274.5,64.3,273z"/>
<path class="st2" d="M176,286c0,8.8-31.6,16-70.5,16S35,294.8,35,286c0-3.1,3.8-5.9,10.4-8.4c0.5-0.2,1-0.4,1.5-0.5
	c11.4,8.4,24.4,12.4,38.5,13.7c8.9,0.8,17.7,1,26.5,0.4c0.5,0,1.1-0.1,1.5-0.2c-0.2-2.3-0.3-4.4-0.5-6.6c0-0.5-0.5-0.9-0.8-1.4
	c-0.4,0.5-1,0.9-1,1.4c-0.1,1.9,0,3.8,0,5.6c-0.3,0-0.5,0-0.8,0c-0.1-1.6-0.4-3.3-0.3-4.9c0.1-1.8-0.6-2.3-2.3-2.3
	c-1.5,0.1-3.1-0.2-4.6-0.3c0-0.2,0-0.4,0-0.7c3.3,0,6.6,0.3,9.8-0.1c3.2-0.4,6.2-1.5,9.3-2.4c0.5-0.1,1.1-0.8,1.2-1.2
	c0.1-2.7,0.1-5.3,0-7.8c0.4,0,0.7,0,1,0.1c0.6,0,1.2,0.1,1.7,0.1c0.4,0,0.8,0.1,1.3,0.1c0,1.9,0.1,3.6-0.1,5.3
	c-0.2,1.9,0.6,2.5,2.4,2.5c6.9-0.1,13.5-1.4,19.3-5.1c0.8,0.1,1.6,0.3,2.4,0.5c-2.8,1.2-5.7,2.4-8.6,3.6c-1.2,0.5-1.5,1.1-1.4,2.3
	c0.1,1.7,0,3.3,0,5c-0.2,0-0.4,0-0.6,0c-0.2-2.1-0.3-4.1-0.5-6.2c-1.9-0.2-2.5,0.6-2.3,2.3c0.1,1.7,0.2,3.3,0.3,5
	c-0.2,0-0.5,0-0.7,0c-0.3-2.3-0.5-4.5-0.8-6.9c-7.5,1.3-15,2.6-22.4,3.9v8.2c7.6,0.2,14.9-0.6,21.9-3.3c3.8-1.4,7.6-2.9,11.4-4.4
	c4.9-1.9,9.7-4,13.8-7.3c0.3,0.1,0.6,0.2,0.9,0.3C171,279.2,176,282.5,176,286z"/>
</svg>
