<?xml version="1.0" encoding="utf-8"?>
<!-- Generator: Adobe Illustrator 21.1.0, SVG Export Plug-In . SVG Version: 6.00 Build 0)  -->
<svg version="1.1" id="Layer_1" xmlns="http://www.w3.org/2000/svg" xmlns:xlink="http://www.w3.org/1999/xlink" x="0px" y="0px"
	 viewBox="0 0 40 37" style="enable-background:new 0 0 40 37;" xml:space="preserve">
<style type="text/css">
	.st0{fill:none;stroke:#FFFFFF;stroke-miterlimit:10;}
</style>
<g>
	<path class="st0" d="M38.6,21.7c0,0.4-0.1,0.9-0.1,1.3c0,0.2-0.1,0.3-0.3,0.4c-1.4,0.8-2.7,1.6-4.1,2.3c-0.4,0.2-1,0.2-1.4,0.3
		c-3.3,0.3-6.7,0.5-10.1,0.3c-3.4-0.2-6.8-0.6-10.1-1.7c-1.1-0.4-2.2-0.9-3.4-1.4c-0.2-0.1-0.2-0.2-0.2-0.4c0-1.3,0-2.5,0-3.8
		c0-2,0.1-3.9,0.7-5.8c1-2.8,2.9-4.7,5.6-5.9c1.7-0.7,3.5-1.1,5.3-1.3c0.1,0,0.2,0,0.2,0c0.5-1.2,1.2-1.7,2.6-1.7
		c1.3,0,2.1,0.5,2.4,1.5c1.2,0.2,2.4,0.4,3.6,0.7c2.2,0.6,4.2,1.5,5.8,3.1c1.6,1.6,2.6,3.5,3.1,5.7c0.1,0.8,0.2,1.5,0.3,2.3
		C38.6,19,38.6,20.4,38.6,21.7z"/>
	<path class="st0" d="M32.5,27.2c-0.6,0.4-1.1,0.7-1.7,1.1c-2.6,1.5-5.3,2.8-8.2,3.5c-2.3,0.5-4.7,0.9-7,1.3
		c-2.4,0.3-4.8,0.1-7.2-0.3c-2.3-0.5-4.4-1.2-6.5-2.1c-0.1,0-0.2-0.1-0.3-0.2c-0.5-0.9-0.2-1.8,0.5-2.4c0.9-0.9,2-1.5,3-2.1
		c1-0.6,2.1-1.1,3.2-1.7c0.1-0.1,0.4-0.1,0.5,0c2.5,1.3,5.2,2,8,2.5c3.5,0.6,7,0.8,10.5,0.7c1.5,0,3.1-0.2,4.6-0.3
		c0.2,0,0.4,0,0.6,0C32.5,27.1,32.5,27.1,32.5,27.2z"/>
</g>
</svg>
