<?xml version="1.0" encoding="utf-8"?>
<!-- Generator: Adobe Illustrator 21.1.0, SVG Export Plug-In . SVG Version: 6.00 Build 0)  -->
<svg version="1.1" id="Layer_1" xmlns="http://www.w3.org/2000/svg" xmlns:xlink="http://www.w3.org/1999/xlink" x="0px" y="0px"
	 viewBox="0 0 40 37" style="enable-background:new 0 0 40 37;" xml:space="preserve">
<style type="text/css">
	.st0{fill:#FFFFFF;}
</style>
<path class="st0" d="M39.6,8.9c-2.4-2.1-4.9-4.3-7.3-6.4c-0.3-0.3-0.7-0.5-1.1-0.7c-1.4-0.5-2.8-0.9-4.2-1.4
	c-0.1,0.1-0.1,0.2-0.2,0.3c-1,2.8-3.9,4.5-6.9,4.4c-3.1-0.1-5.6-1.8-6.6-4.5c0-0.1,0-0.1,0-0.2h-0.1c-0.2,0.1-0.3,0.2-0.5,0.2
	C11.4,1.1,10.1,1.5,8.8,2C8.5,2.1,8.2,2.2,7.9,2.4C5.8,4.2,3.8,6,1.7,7.9C1.1,8.3,0.6,8.8,0,9.3c1.1,1.5,2.2,3.1,3.4,4.6
	C3.5,14,3.7,14,3.9,14c0.7,0,1.5,0,2.3,0h2.3v22.5h23.2V14h0.6c1.3,0,2.5,0,3.7,0c0.4,0,0.6-0.1,0.8-0.4c1-1.4,2.1-2.8,3.2-4.2V9.2
	C39.8,9.1,39.7,9,39.6,8.9z M36.2,13c-0.1,0.1-0.3,0.2-0.5,0.2c-1.4,0-2.9,0-4.3,0h-0.6v22.5H9.3V13.2h-2c-1,0-1.9,0-2.9,0
	c-0.2,0-0.5-0.1-0.6-0.3c-0.9-1.1-1.7-2.3-2.6-3.5C1.4,9.2,1.6,9,1.9,8.8C4,6.9,6.2,5,8.4,3.1C8.5,3,8.7,2.9,8.8,2.8
	c1.3-0.4,2.5-0.8,3.8-1.3c2.7,5.9,11.8,6,14.7,0c0.9,0.3,1.8,0.6,2.6,0.8c0.9,0.2,1.7,0.7,2.4,1.4c2,1.8,4,3.5,6.1,5.3
	c0.1,0.1,0.3,0.2,0.4,0.4C37.9,10.6,37.1,11.8,36.2,13z"/>
</svg>
