<?xml version="1.0" encoding="utf-8"?>
<!-- Generator: Adobe Illustrator 21.1.0, SVG Export Plug-In . SVG Version: 6.00 Build 0)  -->
<svg version="1.1" id="Layer_1" xmlns="http://www.w3.org/2000/svg" xmlns:xlink="http://www.w3.org/1999/xlink" x="0px" y="0px"
	 viewBox="0 0 40 37" style="enable-background:new 0 0 40 37;" xml:space="preserve">
<style type="text/css">
	.st0{fill:#FFFFFF;}
</style>
<path class="st0" d="M38.3,32.7c-0.2-4.4,0.2-8.8-0.7-12.9c-0.6-3.2-0.8-6.2-0.9-9.4c0-1.3,0-2.6,0-3.8c0-2.2-0.7-2.9-2.9-2.9
	c-9.3,0-18.6,0-27.9,0c-2.1,0-2.8,0.8-2.9,2.9c-0.2,4.6,0.2,9.2-1,13.9C1.3,24,1.8,27.9,1.8,31.6c0,0.4,0.1,0.7,0.1,1.1h5
	c0-1.1,0-2,0-2.9c0-0.9,0.5-1.4,1.4-1.4h23.3c1,0,1.4,0.5,1.4,1.4c0,0.9,0,1.9,0,2.8H38.3z M6,5.1c9.3,0,18.6,0,27.9,0
	c0.9,0,1.4,0.3,1.4,1.2V15c-1.8-0.5-2.4-1.4-2.2-3.1c0.2-1.9-0.3-2.5-2.2-2.8c-3.5-0.7-7-0.7-10.4,0.3c-0.3,0.1-0.7,0.1-1.1,0
	C16,8.4,12.5,8.5,9,9.2C7.1,9.5,6.7,10,6.9,12c0.1,1.7-0.4,2.6-2.1,3c0-0.3-0.1-0.7-0.1-1c0-2.5,0-4.9,0-7.4C4.6,5.6,4.9,5.1,6,5.1z
	 M31.5,13.2c-3.5-0.3-7-0.7-10.6-1.1c-0.4-1,0.1-1.5,1.1-1.5c2.5-0.1,5-0.3,7.5-0.1C31.7,10.6,31.8,10.9,31.5,13.2z M19.1,12.1
	c-3.5,0.3-7,0.7-10.6,1c-0.2-2.4-0.2-2.6,2.1-2.7c2.4-0.2,4.9,0,7.4,0.1C18.9,10.6,19.4,11.1,19.1,12.1z M9.8,14.8
	c6.7-1.3,13.5-1.3,20.2-0.1c4.8,0.9,6.4,3,6.7,8.4H3.4C3.3,18.1,5,15.7,9.8,14.8z M30.9,26.9H10c-4.1,0-4.2,0.1-4.7,4.3h-2v-6.3
	h33.3v6.3h-1.9c0-0.3-0.1-0.6-0.1-0.8C34.4,27.6,33.8,26.9,30.9,26.9z"/>
</svg>
