<?xml version="1.0" encoding="utf-8"?>
<!-- Generator: Adobe Illustrator 21.1.0, SVG Export Plug-In . SVG Version: 6.00 Build 0)  -->
<svg version="1.1" id="Layer_1" xmlns="http://www.w3.org/2000/svg" xmlns:xlink="http://www.w3.org/1999/xlink" x="0px" y="0px"
	 viewBox="0 0 47.2 44.5" style="enable-background:new 0 0 47.2 44.5;" xml:space="preserve">
<style type="text/css">
	.st0{fill:#DB5A26;}
</style>
<path class="st0" d="M23.6,5.8c2-2.9,4.5-4.8,8-5.5c9.2-1.8,16.7,5.8,15.5,15.5c-0.8,6.5-3.6,11.8-7.8,16.7
	c-4.1,4.8-9.1,8.6-14.5,11.7c-0.5,0.3-1.5,0.4-2,0.2C13.5,38.9,5.5,32.3,1.5,22c-1.5-3.9-1.9-8-1-12.1c1.1-5.1,4.4-8.2,9.4-9.4
	c5.2-1.2,9.6,0.2,12.9,4.4C23,5.2,23.3,5.4,23.6,5.8z"/>
</svg>
