<?xml version="1.0" encoding="utf-8"?>
<!-- Generator: Adobe Illustrator 21.0.0, SVG Export Plug-In . SVG Version: 6.00 Build 0)  -->
<svg version="1.1" id="Layer_1" xmlns="http://www.w3.org/2000/svg" xmlns:xlink="http://www.w3.org/1999/xlink" x="0px" y="0px"
	 viewBox="0 0 106 106" style="enable-background:new 0 0 106 106;" xml:space="preserve">
<style type="text/css">
	.st0{fill:none;stroke:#DA5926;stroke-width:4;stroke-miterlimit:10;}
	.st1{fill:#DA5926;}
</style>
<g>
	<path class="st0" d="M79.9,104h-52c-13.8,0-25-11.3-25-25V27c0-13.8,11.3-25,25-25h52c13.8,0,25,11.3,25,25v52
		C104.9,92.8,93.7,104,79.9,104z"/>
</g>
<g>
	<path class="st1" d="M66.1,76.3c-17.4,7.9-35.2-1-41.9-14.7c-6.7-13.8-2.6-30.8,9.9-39.7c12.7-9.1,30-7.6,40.9,3.3
		c11,11,13.3,30.5,0.6,44.2c0.7,0.7,1.3,1.4,2,2.1c2.4,2.5,4.7,4.9,7.1,7.3c3,3.1,2.7,7.8-0.5,10.6c-3.3,2.8-8.1,2.4-10.6-1.1
		c-2.1-3.1-4-6.3-6-9.5C67.2,77.9,66.7,77.1,66.1,76.3z M28.6,44c-1.9,13.2,7.2,25.6,20.3,27.5c13.4,2,25.8-7.2,27.7-20.6
		c1.9-13.1-7.3-25.5-20.5-27.4C43,21.5,30.6,30.7,28.6,44z"/>
	<path class="st1" d="M70.1,40.9c-3.2,0.9-6.3,1.8-9.4,2.7c-2.4,0.7-4.7,1.3-7.1,2c-0.3,0.1-0.7,0.1-0.9-0.1
		c-4.9-3.1-9.7-6.2-14.6-9.2c0,0-0.1-0.1-0.2-0.2c0.2-0.1,0.4-0.2,0.6-0.2c5.3-1.5,10.7-3,16-4.4c0.3-0.1,0.7-0.1,0.9,0.1
		c4.8,3,9.6,6.1,14.3,9.2C69.9,40.7,69.9,40.8,70.1,40.9z"/>
	<path class="st1" d="M48.9,63.5c-0.5-0.3-1-0.6-1.5-1c-3.9-2.6-7.9-5.1-11.8-7.7c-0.5-0.3-0.6-0.6-0.5-1.1
		c0.7-4.8,1.5-9.7,2.2-14.6c0.3,0.1,0.5,0.2,0.6,0.4c4.3,2.8,8.5,5.5,12.8,8.3c0.3,0.2,0.5,0.4,0.5,0.9c-0.7,4.8-1.4,9.6-2.2,14.4
		C49,63.3,48.9,63.4,48.9,63.5z"/>
	<path class="st1" d="M51.5,63.9c0.7-5,1.5-9.9,2.2-14.8c0-0.2,0.3-0.5,0.5-0.6c5.1-1.5,10.2-2.9,15.3-4.4c0.1,0,0.1,0,0.3,0
		c-0.4,2.5-0.7,4.9-1.1,7.4c-0.4,2.4-0.7,4.9-1.1,7.3c-0.1,0.4-0.2,0.6-0.6,0.8c-5,1.4-10,2.9-15,4.3C51.9,63.9,51.8,63.9,51.5,63.9
		z"/>
</g>
</svg>
