<?xml version="1.0" encoding="utf-8"?>
<!-- Generator: Adobe Illustrator 21.0.0, SVG Export Plug-In . SVG Version: 6.00 Build 0)  -->
<svg version="1.1" id="Layer_1" xmlns="http://www.w3.org/2000/svg" xmlns:xlink="http://www.w3.org/1999/xlink" x="0px" y="0px"
	 viewBox="0 0 106 106" style="enable-background:new 0 0 106 106;" xml:space="preserve">
<style type="text/css">
	.st0{fill:none;stroke:#DA5926;stroke-width:4;stroke-miterlimit:10;}
	.st1{fill:#DA5926;}
</style>
<g>
	<path class="st0" d="M79.1,104h-52c-13.8,0-25-11.3-25-25V27c0-13.8,11.3-25,25-25h52c13.8,0,25,11.3,25,25v52
		C104.1,92.8,92.8,104,79.1,104z"/>
</g>
<path class="st1" d="M53.1,32.5c3-4.2,6.7-7.2,11.8-8.1c13.5-2.6,24.6,8.6,22.8,22.9c-1.2,9.5-5.4,17.5-11.5,24.6
	c-6.1,7-13.4,12.6-21.4,17.2c-0.8,0.4-2.2,0.7-2.9,0.3c-13.7-7.9-25.5-17.7-31.4-33c-2.3-5.8-2.8-11.8-1.5-17.9
	c1.7-7.5,6.5-12.1,13.9-13.9c7.6-1.8,14.1,0.2,19.1,6.6C52.2,31.6,52.6,32,53.1,32.5z"/>
</svg>
