<?xml version="1.0" encoding="utf-8"?>
<!-- Generator: Adobe Illustrator 21.0.0, SVG Export Plug-In . SVG Version: 6.00 Build 0)  -->
<svg version="1.1" id="Layer_1" xmlns="http://www.w3.org/2000/svg" xmlns:xlink="http://www.w3.org/1999/xlink" x="0px" y="0px"
	 viewBox="0 0 29.8 28.4" style="enable-background:new 0 0 29.8 28.4;" xml:space="preserve">
<style type="text/css">
	.st0{opacity:0.9;}
	.st1{fill:#DA5926;}
</style>
<g class="st0">
	<g>
		<path class="st1" d="M9.9,18.6c-1.2,2.1-2.4,4.2-3.6,6.4c-1.9,0-4,0-6.3,0c0.3-1.1,0.5-2.2,0.8-3.1C2,18.7,3.9,16,5.9,13.3
			c0.8-1.1,2-1.4,3.3-1.1c1.4,0.4,2.1,1.3,2.4,2.7c0.3,1.3,0.8,2.5,1.2,3.8c0.2,0.6,0.7,0.9,1.3,0.9c2,0,4,0.1,6,0.1
			c1,0,1.6,0.4,1.6,1.2s-0.5,1.2-1.6,1.2c-1.9,0-3.9-0.1-5.8-0.1s-3.2-0.9-3.9-2.6c-0.1-0.2-0.2-0.4-0.3-0.6
			C10.1,18.7,10.1,18.7,9.9,18.6z"/>
		<path class="st1" d="M14.8,12.9c-2.5,0-4.5-1.9-4.5-4.4S12.2,4,14.8,4c2.5,0,4.5,2,4.5,4.4C19.3,10.9,17.3,12.9,14.8,12.9z"/>
		<path class="st1" d="M31.6,25.1c-1.8,0-3.5,0-5.2,0c-0.7,0-0.9-0.6-0.9-1.2c0-0.6,0.3-1.1,1-1.1c0.8,0,1.6,0,2.5,0
			c-0.5-1.2-1-2.3-1.6-3.7c-0.2,0.5-0.4,0.9-0.6,1.2c-0.4,0.7-1.1,1-1.8,0.7c-0.7-0.3-1.1-1.1-0.8-1.9c1.5-3.6,3-7.1,4.5-10.7
			c0.4-0.8,1.2-1.1,1.9-0.8c0.7,0.3,1,1.1,0.7,1.9c-0.9,2.2-1.8,4.4-2.8,6.6c-0.2,0.5-0.2,0.9,0,1.5c0.9,2.1,1.8,4.3,2.7,6.4
			C31.4,24.4,31.5,24.7,31.6,25.1z"/>
		<path class="st1" d="M21.2,25.1c-0.7,0-1.4,0-2.1,0c-0.8,0-1-0.5-1.1-1.1s0.4-1.1,1.1-1.2c1.4,0,2.7,0,4.1,0
			c0.7,0,1.1,0.5,1.1,1.1c0,0.7-0.3,1.2-1.1,1.2C22.5,25.1,21.9,25.1,21.2,25.1z"/>
	</g>
</g>
</svg>
