<?xml version="1.0" encoding="utf-8"?>
<!-- Generator: Adobe Illustrator 21.0.0, SVG Export Plug-In . SVG Version: 6.00 Build 0)  -->
<svg version="1.1" id="Layer_1" xmlns="http://www.w3.org/2000/svg" xmlns:xlink="http://www.w3.org/1999/xlink" x="0px" y="0px"
	 viewBox="0 0 29.8 28.4" style="enable-background:new 0 0 29.8 28.4;" xml:space="preserve">
<style type="text/css">
	.st0{fill:#DA5926;}
</style>
<g>
	<g>
		<path class="st0" d="M3.9,14.8c0-3.4,0-6.9,0-10.3c0-1.5,0.9-2.8,2.3-3.3C6.5,1.1,6.9,1,7.3,1c4,0,8,0,12,0c0.1,0,0.1,0,0.2,0.1
			c1.9,1.9,3.8,3.8,5.6,5.6c0.6,0.6,1.2,1.2,1.8,1.8C27,8.6,27,8.6,27,8.7c0,5.5,0,11,0,16.5c0,1.7-1.1,3.1-2.7,3.4
			c-0.2,0.1-0.5,0.1-0.7,0.1c-5.4,0-10.8,0-16.1,0c-1.8,0-3.3-1.4-3.4-3.1c0-0.1,0-0.3,0-0.4C3.9,21.7,3.9,18.3,3.9,14.8z M17.7,3.3
			h-0.1c-3.4,0-6.8,0-10.2,0c-0.1,0-0.2,0-0.3,0C6.6,3.4,6.3,3.9,6.3,4.5c0,6.9,0,13.8,0,20.6c0,0.7,0.5,1.2,1.2,1.2
			c5.3,0,10.7,0,16,0c0.7,0,1.2-0.5,1.2-1.2c0-4.9,0-9.9,0-14.8v-0.1c-2.3,0-4.6,0-6.9,0C17.7,7.9,17.7,5.6,17.7,3.3z M20,7.9
			c1,0,2,0,2.9,0C21.9,6.9,21,6,20,5C20,5.9,20,6.9,20,7.9z"/>
		<path class="st0" d="M20,14.8c0,0.8,0,1.5,0,2.3c-3.1,0-6.1,0-9.2,0c0-0.8,0-1.5,0-2.3C13.9,14.8,16.9,14.8,20,14.8z"/>
		<path class="st0" d="M10.8,19.4c2.3,0,4.6,0,6.9,0c0,0.8,0,1.5,0,2.3c-2.3,0-4.6,0-6.9,0C10.8,21,10.8,20.2,10.8,19.4z"/>
	</g>
</g>
</svg>
