<?xml version="1.0" encoding="utf-8"?>
<!-- Generator: Adobe Illustrator 21.0.0, SVG Export Plug-In . SVG Version: 6.00 Build 0)  -->
<svg version="1.1" id="Layer_1" xmlns="http://www.w3.org/2000/svg" xmlns:xlink="http://www.w3.org/1999/xlink" x="0px" y="0px"
	 viewBox="0 0 176 139" style="enable-background:new 0 0 176 139;" xml:space="preserve">
<style type="text/css">
	.st0{opacity:0.9;fill:none;stroke:#DA5926;stroke-width:3;stroke-miterlimit:10;enable-background:new    ;}
	.st1{fill:#666666;}
	.st2{fill:#DA5926;}
</style>
<path class="st0" d="M8.8,136.5c8-2.9,15.6-5.7,23.2-8.4c6.4-2.3,12.8-2.1,19.2,0.5c1.4,0.6,2.9,1.1,4.4,1.6
	c17.4,5.1,35.1,6.2,53,3.6c17.6-2.6,33.8-8.9,46.9-21.3c17.2-16.2,23.2-35.9,15.9-58.7c-5.2-16.2-16.3-28-30.6-36.9
	C118.9,3.3,95-0.9,69.6,2.7c-18.1,2.6-34.5,9.3-48,21.8C5.7,39.3-1.6,57.3,2.7,79.1c1.7,8.6,5.6,16.2,10.6,23.3
	c3.5,4.9,4.4,10.2,2.1,16C13.1,124.2,11.1,130.2,8.8,136.5z"/>
<g>
	<path class="st1" d="M41.1,104.9c-0.6,0-1.2-0.2-1.5-0.7c-0.4-0.4-0.6-1-0.6-1.8c0-0.3,0-0.6,0.1-1s0.1-0.6,0.2-0.9h1.4
		c-0.1,0.5-0.2,1.1-0.2,1.6c0,0.4,0.1,0.7,0.3,0.9c0.2,0.2,0.4,0.3,0.7,0.3h3.4v-7.8h1.6v7.8h1.4H48v1.3c0,0,0,0.1-0.1,0.1
		L41.1,104.9z M41.7,100.6l0.6-0.1c-0.1-0.1-0.3-0.2-0.3-0.3s-0.1-0.3-0.1-0.5c0-0.3,0.1-0.6,0.3-0.8c0.2-0.2,0.5-0.3,0.8-0.3
		s0.6,0.1,0.9,0.2l-0.2,0.6c-0.2-0.1-0.4-0.2-0.6-0.2s-0.3,0.1-0.4,0.2s-0.1,0.2-0.1,0.4c0,0.2,0.1,0.4,0.3,0.5h0.2
		c0.4-0.1,0.6-0.1,0.9-0.1v0.7c-0.5,0-1.2,0.1-2.2,0.3v-0.6H41.7z"/>
	<path class="st1" d="M52.1,103.5L52.1,103.5l0.1,1.4c0,0,0,0.1-0.1,0.1h-4.3c0,0-0.1,0-0.1-0.1v-1.3c0,0,0,0,0.1,0h1.3v-4.5h1.6
		v4.5L52.1,103.5z M49.9,108c-0.2,0-0.4-0.1-0.5-0.2c-0.1-0.2-0.2-0.4-0.2-0.6c0-0.3,0.1-0.5,0.2-0.6s0.3-0.2,0.5-0.2
		s0.4,0.1,0.5,0.2c0.1,0.2,0.2,0.4,0.2,0.6c0,0.3-0.1,0.5-0.2,0.6C50.2,107.9,50.1,108,49.9,108z"/>
	<path class="st1" d="M52,104.9C51.9,104.9,51.9,104.9,52,104.9l-0.1-1.4c0,0,0,0,0.1,0h1.3v-7.8h1.6v7.8h1.4h0.1v1.3
		c0,0,0,0.1-0.1,0.1H52z"/>
	<path class="st1" d="M56.1,104.9L56.1,104.9l-0.1-1.4c0,0,0,0,0.1,0h1.6v-7.8h1.6v5.3c0.6-1.5,1.6-2.2,2.9-2.2c0.9,0,1.5,0.3,2,0.8
		c0.4,0.5,0.7,1.3,0.7,2.4v2.9L56.1,104.9z M63.1,103.5V102c0-0.6-0.1-1-0.4-1.3s-0.6-0.4-1.1-0.4c-0.9,0-1.8,0.8-2.5,2.3v0.9H63.1z
		"/>
	<path class="st1" d="M72.6,107.8c-0.6,0-1.1-0.1-1.5-0.4s-0.8-0.7-1-1.2s-0.3-1.1-0.3-1.8c0-0.5,0-0.9,0.1-1.4s0.2-0.9,0.4-1.3h1.4
		c-0.1,0.4-0.2,0.9-0.3,1.4s-0.1,0.9-0.1,1.3c0,0.6,0.1,1.1,0.4,1.4c0.3,0.3,0.6,0.5,1,0.5H73c0.5,0,0.9-0.2,1.2-0.5
		s0.4-0.8,0.4-1.4v-8.7h1.6v7.8h1.4h0.1v1.3c0,0,0,0.1-0.1,0.1h-1.4c-0.1,1.9-1.2,2.9-3.1,2.9L72.6,107.8L72.6,107.8z"/>
	<path class="st1" d="M77.5,104.9C77.4,104.9,77.4,104.9,77.5,104.9l-0.1-1.4c0,0,0,0,0.1,0h1.6V99h1.6v4.5h1.6h0.1v1.3
		c0,0,0,0.1-0.1,0.1H77.5z M78.9,107.9c-0.2,0-0.4-0.1-0.5-0.2c-0.1-0.2-0.2-0.4-0.2-0.6c0-0.3,0.1-0.5,0.2-0.6
		c0.1-0.2,0.3-0.2,0.5-0.2s0.4,0.1,0.5,0.2c0.1,0.2,0.2,0.4,0.2,0.6c0,0.3-0.1,0.5-0.2,0.6C79.3,107.9,79.1,107.9,78.9,107.9z
		 M80.7,107.9c-0.2,0-0.4-0.1-0.5-0.2c-0.1-0.2-0.2-0.4-0.2-0.6c0-0.3,0.1-0.5,0.2-0.6s0.3-0.2,0.5-0.2s0.4,0.1,0.5,0.2
		c0.1,0.2,0.2,0.4,0.2,0.6c0,0.3-0.1,0.5-0.2,0.6C81,107.9,80.9,107.9,80.7,107.9z"/>
	<path class="st1" d="M82.1,104.9L82.1,104.9l-0.1-1.4c0,0,0,0,0.1,0h1.2V99h1.6v2.1c0.6-1.5,1.6-2.2,2.9-2.2c0.9,0,1.5,0.3,2,0.8
		c0.4,0.5,0.7,1.3,0.7,2.4v2.9L82.1,104.9z M88.9,103.5V102c0-0.6-0.1-1-0.4-1.3c-0.2-0.3-0.6-0.4-1.1-0.4c-0.9,0-1.8,0.8-2.5,2.3
		v0.9H88.9z"/>
	<path class="st1" d="M98.2,103.4C98.3,103.4,98.3,103.5,98.2,103.4l0.1,1.4c0,0,0,0.1-0.1,0.1h-1.3c0,0.9-0.2,1.6-0.7,2.1
		s-1.2,0.8-2.1,0.8c-0.5,0-0.9,0-1.2-0.1s-0.7-0.2-1-0.5l0.6-1.3c0.3,0.2,0.6,0.3,0.8,0.4s0.5,0.1,0.8,0.1c0.4,0,0.7-0.1,0.9-0.4
		s0.3-0.6,0.3-1v-0.1h-1c-0.8,0-1.3-0.2-1.7-0.7S92,103,92,102.1c0-0.6,0.1-1.2,0.4-1.7c0.3-0.5,0.7-0.9,1.2-1.1s1.1-0.4,1.8-0.4H97
		v4.5L98.2,103.4z M95.4,103.4v-3.1h-0.3c-0.4,0-0.8,0.1-1.1,0.4s-0.4,0.7-0.4,1.2s0.1,0.8,0.3,1.1c0.2,0.2,0.4,0.3,0.8,0.3
		L95.4,103.4z"/>
	<path class="st1" d="M98.1,104.9L98.1,104.9l-0.1-1.4c0,0,0,0,0.1,0h1.8V99h1.6v6L98.1,104.9z M99.9,97.9c-0.2,0-0.4-0.1-0.5-0.2
		c-0.1-0.2-0.2-0.4-0.2-0.6c0-0.3,0.1-0.5,0.2-0.6c0.1-0.2,0.3-0.2,0.5-0.2s0.4,0.1,0.5,0.2c0.1,0.2,0.2,0.4,0.2,0.6
		c0,0.3-0.1,0.5-0.2,0.6C100.2,97.8,100.1,97.9,99.9,97.9z M101.6,97.9c-0.2,0-0.4-0.1-0.5-0.2c-0.1-0.2-0.2-0.4-0.2-0.6
		c0-0.3,0.1-0.5,0.2-0.6c0.1-0.2,0.3-0.2,0.5-0.2s0.4,0.1,0.5,0.2c0.1,0.2,0.2,0.4,0.2,0.6c0,0.3-0.1,0.5-0.2,0.6
		S101.9,97.9,101.6,97.9z"/>
	<path class="st1" d="M108.8,107.8c-0.4,0-0.8-0.1-1.1-0.4c-0.3-0.2-0.6-0.6-0.8-1s-0.3-0.9-0.3-1.4c0-0.8,0.1-1.6,0.3-2.3h1.4
		c-0.1,0.3-0.1,0.7-0.2,1c0,0.3,0,0.7,0,1.1c0,0.3,0.1,0.5,0.2,0.8c0.1,0.2,0.3,0.4,0.5,0.6c0.2,0.1,0.4,0.2,0.6,0.2h1.8
		c0.5,0,0.9-0.1,1.2-0.2s0.4-0.3,0.4-0.6c0-0.2,0-0.3-0.1-0.4s-0.3-0.3-0.5-0.4c-0.3-0.2-0.6-0.5-1-0.8s-0.6-0.6-0.8-0.8
		c-0.1-0.2-0.2-0.5-0.2-0.8c0-0.5,0.2-1,0.6-1.6c0.4-0.6,0.8-1.1,1.3-1.5s1-0.6,1.5-0.6c0.2,0,0.3,0,0.5,0.1s0.4,0.2,0.7,0.5
		l-0.6,1.3c-0.1-0.1-0.3-0.2-0.4-0.2c-0.1-0.1-0.3-0.1-0.4-0.1c-0.2,0-0.4,0.1-0.7,0.3c-0.3,0.2-0.6,0.5-0.8,0.7
		c-0.2,0.3-0.3,0.5-0.3,0.7c0,0.1,0.1,0.3,0.2,0.4c0.2,0.2,0.4,0.4,0.7,0.6s0.6,0.5,0.9,0.8c0.3,0.3,0.6,0.6,0.7,0.9
		c0.2,0.3,0.2,0.5,0.2,0.8c0,0.7-0.3,1.3-0.8,1.7c-0.5,0.4-1.3,0.6-2.3,0.6L108.8,107.8z M109.7,110.8c-0.2,0-0.4-0.1-0.5-0.2
		c-0.1-0.2-0.2-0.4-0.2-0.6c0-0.3,0.1-0.5,0.2-0.6c0.1-0.2,0.3-0.2,0.5-0.2s0.4,0.1,0.5,0.2c0.1,0.2,0.2,0.4,0.2,0.6
		c0,0.3-0.1,0.5-0.2,0.6S109.9,110.8,109.7,110.8z M111.4,110.8c-0.2,0-0.4-0.1-0.5-0.2s-0.2-0.4-0.2-0.6c0-0.3,0.1-0.5,0.2-0.6
		c0.1-0.2,0.3-0.2,0.5-0.2s0.4,0.1,0.5,0.2c0.1,0.2,0.2,0.4,0.2,0.6c0,0.3-0.1,0.5-0.2,0.6C111.8,110.7,111.7,110.8,111.4,110.8z"/>
	<path class="st1" d="M116.9,107.8c-0.4,0-0.7,0-1-0.1s-0.6-0.3-0.9-0.5l0.6-1.2c0.2,0.1,0.3,0.2,0.5,0.3c0.1,0.1,0.3,0.1,0.5,0.1
		c0.3,0,0.5-0.1,0.7-0.4c0.2-0.2,0.3-0.6,0.3-0.9V99h1.6v6.2c0,0.8-0.2,1.5-0.6,2C118.1,107.6,117.5,107.8,116.9,107.8z"/>
	<path class="st1" d="M123.9,103.4L123.9,103.4l0.1,1.4c0,0,0,0.1-0.1,0.1H121v-9.2h1.6v7.8L123.9,103.4z"/>
	<path class="st1" d="M123.8,104.9C123.8,104.9,123.7,104.9,123.8,104.9l-0.1-1.4c0,0,0,0,0.1,0h4.2l0,0c-0.3-0.3-0.5-0.9-0.6-1.7
		c-0.1-0.5-0.2-0.9-0.4-1.1s-0.5-0.3-0.8-0.3c-0.2,0-0.5,0-0.7,0.1s-0.5,0.2-0.7,0.3l-0.5-1.3c0.6-0.4,1.4-0.6,2.2-0.6
		c0.7,0,1.3,0.2,1.6,0.5c0.4,0.4,0.6,1,0.8,1.8c0.2,1.2,0.4,2,0.7,2.3v1.5L123.8,104.9z M126.4,107.9c-0.2,0-0.4-0.1-0.5-0.2
		c-0.1-0.2-0.2-0.4-0.2-0.6c0-0.3,0.1-0.5,0.2-0.6c0.1-0.2,0.3-0.2,0.5-0.2s0.4,0.1,0.5,0.2c0.1,0.2,0.2,0.4,0.2,0.6
		c0,0.3-0.1,0.5-0.2,0.6C126.7,107.8,126.6,107.9,126.4,107.9z"/>
</g>
<g>
	<path class="st2" d="M51.7,37.3c0.1-4.9,0.1-4.9,4.3-4.9c15.8,0,31.6,0,47.4,0c1.1,0,2.1,0,3.5,0c-2.3,12.7-4.4,25-6.7,37.5
		c-18.2,0-36.2,0-54.4,0c0-0.9,0-1.8,0-3.1c-2.4,0-4.8,0.2-7.2-0.1c-1-0.1-1.9-1.1-2.8-1.7c0.9-0.5,1.8-1.4,2.7-1.4
		c7-0.1,14-0.1,21-0.1c0.7,0,1.5,0.2,2.2-0.1c0.7-0.3,1.3-1,1.9-1.5c-0.7-0.6-1.3-1.6-2-1.6c-3.6-0.2-7.3-0.1-10.9-0.1
		c-1,0-2,0-3.2,0c0.2-1.7,0.3-3.1,0.5-4.9c-4.4,0-8.8,0-13.1,0c-0.9,0-1.9,0.1-2.7-0.2c-0.6-0.2-1.2-1.1-1.3-1.7
		c-0.1-0.4,0.8-1.1,1.4-1.3c0.7-0.2,1.6-0.1,2.4-0.1c10.5,0,20.9,0,31.4,0c0.7,0,1.5,0.2,2.2-0.1c0.7-0.3,1.3-1,1.9-1.5
		c-0.7-0.6-1.3-1.6-2-1.6c-3.9-0.2-7.8-0.1-11.7-0.1c-2.3,0-4.5,0-7.1,0c0.2-1.6,0.4-3,0.6-4.9c-1.1,0-2,0-3,0
		c-6.6,0-13.3,0.1-19.9-0.1c-1,0-2.7-0.9-2.8-1.6c-0.2-1.9,1.5-1.6,2.7-1.6c10.7,0,21.5,0,32.2,0c0.7,0,1.5,0.2,2.2-0.1
		c0.8-0.3,1.4-1,2.1-1.6c-0.7-0.5-1.3-1.5-2.1-1.5c-2.3-0.2-4.5-0.1-6.8-0.1C53.8,37.3,52.8,37.3,51.7,37.3z"/>
	<path class="st2" d="M125.3,79.9c-0.2-5.7-2.5-8.9-6.7-9.6c-5.8-1-10.4,2.3-13.7,9.7c-10.1,0-20.3,0-30.5,0
		c-0.4-2.1-0.8-4.2-1.2-6.5c9.8,0,19.7,0,29.8,0c1.1-6.1,2.2-12.1,3.2-18.1c0.8-4.6,1.6-9.1,2.3-13.7c0.3-2.2,1.4-3.1,3.6-3.1
		c4.4,0.1,8.7-0.1,13.1,0.1c0.9,0,2.3,1,2.7,1.9c1.6,4.3,3.2,8.7,4.2,13.2c0.5,2.3-0.2,4.8-0.5,7.2c-0.5,3.4-1.2,6.8-1.8,10.2
		c-0.1,0.7-0.2,1.5,0.1,2.1C131.9,77.8,130.3,80.2,125.3,79.9z M111.8,41.9c-0.8,4.5-1.5,8.7-2.2,13.1c6.7,0,13,0,19.6,0
		c-1.3-4.1-2.5-8-3.8-11.8c-0.2-0.5-0.9-1.2-1.5-1.2C119.9,41.9,115.9,41.9,111.8,41.9z"/>
	<path class="st2" d="M65.2,73.4c3.2,0,5.5,2.2,5.6,5.4c0.1,4-3.7,7.8-7.8,7.8c-3.2,0-5.6-2.3-5.6-5.4
		C57.3,77.2,61.1,73.4,65.2,73.4z M65.3,76.7c-3,0.1-5.2,2.1-4.6,3.9c0.3,1.1,1.8,2.3,2.9,2.5c1.9,0.3,4.1-2.1,3.7-3.8
		C67,78.1,65.8,77.2,65.3,76.7z"/>
	<path class="st2" d="M114,86.6c-3.2,0-5.5-2.3-5.6-5.4c0-4.1,3.8-7.8,7.9-7.8c3.2,0,5.4,2.3,5.4,5.6C121.8,83,118.1,86.6,114,86.6z
		 M118.4,78.7c-0.6-0.4-1.4-1.6-2.6-1.9c-1.9-0.5-4.3,1.4-4,3.4c0.2,1.1,1.4,2.5,2.4,2.9C116,83.7,118.2,81.6,118.4,78.7z"/>
	<path class="st2" d="M57,73.5c-1,2.1-1.7,3.8-2.7,5.4c-0.4,0.6-1.4,1.1-2.1,1.1c-2.6-0.1-5.6,0.1-7.8-1c-1.6-0.9,0.8-5.5,2.9-5.5
		C50.6,73.4,53.7,73.5,57,73.5z"/>
	<path class="st2" d="M65.3,76.7c0.4,0.5,1.6,1.4,1.9,2.6c0.5,1.8-1.8,4.2-3.7,3.8c-1.1-0.2-2.5-1.4-2.9-2.5
		C60.1,78.8,62.3,76.8,65.3,76.7z"/>
	<path class="st2" d="M118.4,78.7c-0.2,2.9-2.4,5-4.2,4.4c-1.1-0.4-2.2-1.8-2.4-2.9c-0.3-1.9,2.1-3.9,4-3.4
		C116.9,77.1,117.8,78.2,118.4,78.7z"/>
</g>
</svg>
