<?xml version="1.0" encoding="utf-8"?>
<!-- Generator: Adobe Illustrator 21.0.0, SVG Export Plug-In . SVG Version: 6.00 Build 0)  -->
<svg version="1.1" id="Layer_1" xmlns="http://www.w3.org/2000/svg" xmlns:xlink="http://www.w3.org/1999/xlink" x="0px" y="0px"
	 viewBox="0 0 28 28" style="enable-background:new 0 0 28 28;" xml:space="preserve">
<style type="text/css">
	.st0{fill:#DA5926;}
</style>
<g>
	<path class="st0" d="M14,28C6.2,28,0,21.8,0,14S6.4-0.1,14.3,0C21.9,0.2,28.2,6.5,28,14.4C27.8,21.9,21.6,28,14,28z M2,13.9
		C1.9,20.4,7.1,25.8,13.6,26c6.7,0.2,12.1-5.1,12.3-11.6c0.2-6.7-5.1-12.2-11.6-12.3C7.5,1.8,2.1,7.3,2,13.9z"/>
	<path class="st0" d="M14,23c0.2,0,0.5,0,0.7,0c0.3,0,0.6-0.1,0.9-0.1c3.7-0.8,6.2-2.9,7.4-6.6c0.1-0.2,0.1-0.4,0-0.6
		c-0.1-0.4-0.5-0.7-1-0.7s-0.8,0.3-1,0.8c-1,2.8-2.9,4.6-5.9,5.1c-2.9,0.5-5.2-0.6-7-2.9c-0.5-0.7-0.9-1.5-1.2-2.3
		c-0.1-0.5-0.5-0.7-1-0.7c-0.4,0-0.8,0.3-0.9,0.8c0,0.2,0,0.5,0.1,0.8C6.3,20.3,9.9,23,14,23z M12,10c0-1-0.2-1.9-0.9-2.6
		c-0.3-0.3-0.6-0.4-1-0.5c-0.7,0-1.2,0.4-1.5,0.9C8.1,8.6,8,9.5,8.1,10.5c0.1,0.7,0.3,1.4,0.9,1.9c0.7,0.7,1.5,0.7,2.2,0
		C11.8,11.8,12,10.9,12,10z M20,10.1c0-1-0.2-1.8-0.7-2.5c-0.3-0.4-0.7-0.7-1.2-0.7c-0.7,0-1.2,0.4-1.5,0.9
		c-0.5,0.8-0.7,1.7-0.5,2.7c0.1,0.7,0.3,1.4,0.9,1.9c0.7,0.6,1.5,0.6,2.2,0C19.8,11.8,20,10.9,20,10.1z"/>
	<path class="st0" d="M14,23c-4,0-7.7-2.6-8.9-6.5C5,16.3,5,16,5,15.7c0.1-0.4,0.5-0.7,0.9-0.8c0.5,0,0.9,0.2,1,0.7
		c0.3,0.8,0.6,1.6,1.2,2.3c1.8,2.3,4.1,3.3,7,2.9c3-0.5,4.9-2.2,5.9-5.1c0.2-0.5,0.5-0.8,1-0.8c0.4,0,0.9,0.3,1,0.7
		c0.1,0.2,0.1,0.4,0,0.6c-1.2,3.6-3.7,5.8-7.4,6.6c-0.3,0.1-0.6,0.1-0.9,0.1C14.4,23,14.2,23,14,23z"/>
	<path class="st0" d="M12,10c0,0.9-0.2,1.8-0.9,2.5c-0.7,0.7-1.5,0.6-2.2,0C8.4,12,8.1,11.3,8,10.6c-0.1-1,0-1.9,0.5-2.7
		C8.8,7.4,9.3,7,10,7c0.4,0,0.7,0.2,1,0.5C11.8,8.1,12,9,12,10z"/>
	<path class="st0" d="M20,10.1c0,0.8-0.2,1.7-0.9,2.4c-0.6,0.6-1.5,0.6-2.2,0c-0.5-0.5-0.8-1.2-0.9-1.9c-0.1-1,0-1.9,0.5-2.7
		C16.8,7.4,17.3,7,18,7c0.5,0,0.9,0.3,1.2,0.7C19.8,8.3,20,9.1,20,10.1z"/>
</g>
</svg>
