<?xml version="1.0" encoding="utf-8"?>
<!-- Generator: Adobe Illustrator 21.0.0, SVG Export Plug-In . SVG Version: 6.00 Build 0)  -->
<svg version="1.1" id="Layer_1" xmlns="http://www.w3.org/2000/svg" xmlns:xlink="http://www.w3.org/1999/xlink" x="0px" y="0px"
	 viewBox="0 0 176 139" style="enable-background:new 0 0 176 139;" xml:space="preserve">
<style type="text/css">
	.st0{opacity:0.9;fill:none;stroke:#DA5926;stroke-width:3;stroke-miterlimit:10;enable-background:new    ;}
	.st1{fill:#666666;}
	.st2{opacity:0.9;}
	.st3{fill:#DA5926;}
</style>
<path class="st0" d="M9.4,137.1c8-2.9,15.6-5.7,23.2-8.4c6.4-2.3,12.8-2.1,19.2,0.5c1.4,0.6,2.9,1.1,4.4,1.6
	c17.4,5.1,35.1,6.2,53,3.6c17.6-2.6,33.8-8.9,46.9-21.3c17.2-16.2,23.2-35.9,15.9-58.7c-5.2-16.2-16.3-28-30.6-36.9
	C119.5,3.9,95.6-0.3,70.2,3.3c-18.1,2.6-34.5,9.3-48,21.8C6.3,39.9-1,57.9,3.3,79.7C5,88.3,8.9,95.9,13.9,103
	c3.5,4.9,4.4,10.2,2.1,16C13.7,124.8,11.7,130.8,9.4,137.1z"/>
<g>
	<path class="st1" d="M32.1,109.5c-0.7,0-1.3-0.2-1.7-0.7c-0.4-0.5-0.7-1.1-0.7-1.8c0-0.4,0.1-0.8,0.2-1.2s0.4-0.7,0.7-1
		c0.3-0.3,0.7-0.6,1.1-0.8c0.5-0.3,1.1-0.5,1.8-0.7c-0.1-0.4-0.2-0.7-0.3-1c-0.1-0.5-0.3-0.8-0.5-1.1s-0.5-0.3-0.9-0.3
		c-0.5,0-1,0.2-1.6,0.6l-0.6-1.3c0.3-0.2,0.7-0.4,1.2-0.5c0.4-0.1,0.9-0.2,1.3-0.2c1.4,0,2.2,0.8,2.4,2.3c0.1,0.8,0.3,1.3,0.4,1.7
		s0.4,0.7,0.7,0.9l-0.8,1.2c-0.3-0.3-0.6-0.7-0.9-1c-0.8,0.3-1.4,0.5-1.8,0.7c-0.3,0.2-0.6,0.4-0.8,0.7s-0.3,0.6-0.3,1
		c0,0.3,0.1,0.6,0.3,0.8c0.2,0.2,0.5,0.3,0.9,0.3c0.5,0,1-0.1,1.5-0.3l0.2,1.3C33.5,109.4,32.8,109.5,32.1,109.5z"/>
	<path class="st1" d="M40.4,104.1L40.4,104.1l0.1,1.4c0,0,0,0.1-0.1,0.1h-2.9v-9.2h1.6v7.8L40.4,104.1z"/>
	<path class="st1" d="M40.3,105.5C40.2,105.5,40.2,105.5,40.3,105.5l-0.1-1.4c0,0,0,0,0.1,0h4.3c-0.3-0.3-0.5-0.9-0.6-1.7
		c-0.1-0.5-0.2-0.9-0.4-1.1s-0.5-0.3-0.8-0.3c-0.2,0-0.5,0-0.7,0.1s-0.5,0.2-0.7,0.3l-0.5-1.3c0.6-0.4,1.4-0.6,2.2-0.6
		c0.7,0,1.3,0.2,1.6,0.5s0.6,1,0.8,1.8c0.2,1.2,0.4,2,0.7,2.3h0.7H47v1.3c0,0,0,0.1-0.1,0.1L40.3,105.5z M42.8,108.6
		c-0.2,0-0.4-0.1-0.5-0.2c-0.1-0.2-0.2-0.4-0.2-0.6c0-0.3,0.1-0.5,0.2-0.6c0.1-0.2,0.3-0.2,0.5-0.2s0.4,0.1,0.5,0.2
		c0.1,0.2,0.2,0.4,0.2,0.6c0,0.3-0.1,0.5-0.2,0.6C43.2,108.5,43.1,108.6,42.8,108.6z"/>
	<path class="st1" d="M50.9,104.1C51,104.1,51,104.1,50.9,104.1l0.1,1.4c0,0,0,0.1-0.1,0.1h-4.3c0,0-0.1,0-0.1-0.1v-1.3
		c0,0,0,0,0.1,0h1.3v-4.5h1.6v4.5L50.9,104.1z M48.8,98.5c-0.2,0-0.4-0.1-0.5-0.2c-0.1-0.2-0.2-0.4-0.2-0.6c0-0.3,0.1-0.5,0.2-0.6
		s0.3-0.2,0.5-0.2s0.4,0.1,0.5,0.2c0.1,0.2,0.2,0.4,0.2,0.6c0,0.3-0.1,0.5-0.2,0.6C49.1,98.4,49,98.5,48.8,98.5z"/>
	<path class="st1" d="M50.8,105.5L50.8,105.5l-0.1-1.4c0,0,0,0,0.1,0h1.3v-4.5h1.6v6L50.8,105.5z M52.9,108.6
		c-0.2,0-0.4-0.1-0.5-0.2c-0.1-0.2-0.2-0.4-0.2-0.6c0-0.3,0.1-0.5,0.2-0.6s0.3-0.2,0.5-0.2s0.4,0.1,0.5,0.2c0.1,0.2,0.2,0.4,0.2,0.6
		c0,0.3-0.1,0.5-0.2,0.6C53.2,108.5,53.1,108.6,52.9,108.6z"/>
	<path class="st1" d="M61,105.5c-0.6,0-1.2-0.2-1.5-0.6c-0.4-0.4-0.6-1-0.6-1.8c0-0.3,0-0.6,0.1-1c0.1-0.3,0.1-0.6,0.2-0.9h1.4
		c-0.1,0.5-0.2,1.1-0.2,1.6c0,0.4,0.1,0.7,0.3,0.9c0.2,0.2,0.4,0.3,0.7,0.3h3.4v-4.5h1.6v4.5h1.4h0.1v1.3c0,0,0,0.1-0.1,0.1
		L61,105.5z M62.9,108.6c-0.2,0-0.4-0.1-0.5-0.2c-0.1-0.2-0.2-0.4-0.2-0.6c0-0.3,0.1-0.5,0.2-0.6c0.1-0.2,0.3-0.2,0.5-0.2
		s0.4,0.1,0.5,0.2s0.2,0.4,0.2,0.6c0,0.3-0.1,0.5-0.2,0.6C63.3,108.5,63.1,108.6,62.9,108.6z"/>
	<path class="st1" d="M67.7,105.5L67.7,105.5l-0.1-1.4c0,0,0,0,0.1,0H69v-7.8h1.6v7.8H72h0.1v1.3c0,0,0,0.1-0.1,0.1L67.7,105.5z"/>
	<path class="st1" d="M71.9,105.5C71.8,105.5,71.8,105.5,71.9,105.5l-0.1-1.4c0,0,0,0,0.1,0h1.2v-7.8h1.6v5.3
		c0.6-1.5,1.6-2.2,2.9-2.2c0.9,0,1.5,0.3,2,0.8c0.4,0.5,0.7,1.3,0.7,2.4v1.5h1.4h0.1v1.3c0,0,0,0.1-0.1,0.1L71.9,105.5z M78.6,104.1
		v-1.5c0-0.6-0.1-1-0.4-1.3c-0.2-0.3-0.6-0.4-1.1-0.4c-0.9,0-1.8,0.8-2.5,2.3v0.9H78.6z"/>
	<path class="st1" d="M81.4,105.5L81.4,105.5l-0.1-1.4c0,0,0,0,0.1,0h1.3v-7.8h1.6v9.2H81.4z"/>
	<path class="st1" d="M86.4,96.3H88v9.2h-1.6V96.3z"/>
	<path class="st1" d="M96.2,108.4c-0.6,0-1.1-0.1-1.5-0.4c-0.4-0.3-0.8-0.7-1-1.2s-0.3-1.1-0.3-1.8c0-0.5,0-0.9,0.1-1.4
		s0.2-0.9,0.4-1.3h1.4c-0.1,0.4-0.2,0.9-0.3,1.4s-0.1,0.9-0.1,1.3c0,0.6,0.1,1.1,0.4,1.4c0.3,0.3,0.6,0.5,1,0.5h0.3
		c0.5,0,0.9-0.2,1.2-0.5s0.4-0.8,0.4-1.4v-8.7h1.6v7.8h1.4h0.1v1.3c0,0,0,0.1-0.1,0.1h-1.4c-0.1,1.9-1.2,2.9-3.1,2.9L96.2,108.4
		L96.2,108.4z"/>
	<path class="st1" d="M101,105.5L101,105.5l-0.1-1.4c0,0,0,0,0.1,0h1.6v-4.5h1.6v4.5h1.6h0.1v1.3c0,0,0,0.1-0.1,0.1L101,105.5z
		 M102.4,108.5c-0.2,0-0.4-0.1-0.5-0.2c-0.1-0.2-0.2-0.4-0.2-0.6c0-0.3,0.1-0.5,0.2-0.6c0.1-0.2,0.3-0.2,0.5-0.2s0.4,0.1,0.5,0.2
		c0.1,0.2,0.2,0.4,0.2,0.6c0,0.3-0.1,0.5-0.2,0.6C102.8,108.5,102.6,108.5,102.4,108.5z M104.2,108.5c-0.2,0-0.4-0.1-0.5-0.2
		c-0.1-0.2-0.2-0.4-0.2-0.6c0-0.3,0.1-0.5,0.2-0.6c0.1-0.2,0.3-0.2,0.5-0.2s0.4,0.1,0.5,0.2c0.1,0.2,0.2,0.4,0.2,0.6
		c0,0.3-0.1,0.5-0.2,0.6C104.6,108.5,104.4,108.5,104.2,108.5z"/>
	<path class="st1" d="M105.7,105.5C105.6,105.5,105.6,105.5,105.7,105.5l-0.1-1.4c0,0,0,0,0.1,0h1.2v-4.5h1.6v2.1
		c0.6-1.5,1.6-2.2,2.9-2.2c0.9,0,1.5,0.3,2,0.8c0.4,0.5,0.7,1.3,0.7,2.4v2.9L105.7,105.5z M112.4,104v-1.5c0-0.6-0.1-1-0.4-1.3
		c-0.2-0.3-0.6-0.4-1.1-0.4c-0.9,0-1.8,0.8-2.5,2.3v0.9H112.4z"/>
	<path class="st1" d="M121.8,104L121.8,104l0.1,1.4c0,0,0,0.1-0.1,0.1h-1.3c0,0.9-0.2,1.6-0.7,2.1s-1.2,0.8-2.1,0.8
		c-0.5,0-0.9,0-1.2-0.1s-0.7-0.2-1-0.5l0.6-1.3c0.3,0.2,0.6,0.3,0.8,0.4s0.5,0.1,0.8,0.1c0.4,0,0.7-0.1,0.9-0.4
		c0.2-0.3,0.3-0.6,0.3-1v-0.1h-1c-0.8,0-1.3-0.2-1.7-0.7s-0.6-1.2-0.6-2.1c0-0.6,0.1-1.2,0.4-1.7c0.3-0.5,0.7-0.9,1.2-1.1
		c0.5-0.3,1.1-0.4,1.8-0.4h1.6v4.5H121.8z M118.9,104v-3.1h-0.3c-0.4,0-0.8,0.1-1.1,0.4s-0.4,0.7-0.4,1.2s0.1,0.8,0.3,1.1
		c0.2,0.2,0.4,0.3,0.8,0.3L118.9,104L118.9,104z"/>
	<path class="st1" d="M121.7,105.5C121.6,105.5,121.6,105.5,121.7,105.5l-0.1-1.4c0,0,0,0,0.1,0h1.8v-4.5h1.6v6L121.7,105.5z
		 M123.4,98.4c-0.2,0-0.4-0.1-0.5-0.2c-0.1-0.2-0.2-0.4-0.2-0.6c0-0.3,0.1-0.5,0.2-0.6s0.3-0.2,0.5-0.2s0.4,0.1,0.5,0.2
		c0.1,0.2,0.2,0.4,0.2,0.6c0,0.3-0.1,0.5-0.2,0.6C123.8,98.4,123.6,98.4,123.4,98.4z M125.2,98.4c-0.2,0-0.4-0.1-0.5-0.2
		c-0.1-0.2-0.2-0.4-0.2-0.6c0-0.3,0.1-0.5,0.2-0.6c0.1-0.2,0.3-0.2,0.5-0.2s0.4,0.1,0.5,0.2c0.1,0.2,0.2,0.4,0.2,0.6
		c0,0.3-0.1,0.5-0.2,0.6S125.4,98.4,125.2,98.4z"/>
	<path class="st1" d="M137.4,105.5c-0.4,0-0.7-0.1-1-0.2c-0.3-0.1-0.5-0.3-0.8-0.6c-0.3,0.3-0.6,0.5-0.9,0.6s-0.7,0.2-1.1,0.2h-1
		c-0.3,0-0.5,0.1-0.7,0.2c-0.1,0.1-0.2,0.4-0.2,0.7v2.9h-1.6v-3.5c0-0.5,0.1-0.9,0.4-1.3s0.6-0.5,1-0.5c-0.2-0.5-0.3-1.1-0.3-1.7
		c0-0.4,0.1-0.7,0.2-1.2c0.1-0.4,0.2-0.8,0.4-1c0.3-0.2,0.7-0.4,1-0.5c0.4-0.1,0.7-0.2,1-0.2c0.5,0,0.9,0.1,1.3,0.4s0.7,0.6,0.9,1
		s0.3,0.9,0.3,1.5c0,0.4-0.1,0.8-0.2,1.2c0.1,0.2,0.3,0.3,0.4,0.3c0.2,0.1,0.4,0.1,0.6,0.1h0.1h0.1v1.3
		C137.5,105.5,137.5,105.5,137.4,105.5L137.4,105.5z M132.8,102.6c0,0.4,0.1,0.9,0.2,1.4h0.4c0.4,0,0.8-0.2,1.1-0.5s0.4-0.7,0.4-1.2
		c0-0.4-0.1-0.8-0.3-1s-0.4-0.4-0.7-0.4s-0.6,0.1-1,0.3C132.9,101.7,132.8,102.1,132.8,102.6z"/>
	<path class="st1" d="M137.3,105.5L137.3,105.5l-0.1-1.4c0,0,0,0,0.1,0h1.8v-4.5h1.6v6L137.3,105.5z M139.1,98.4
		c-0.2,0-0.4-0.1-0.5-0.2c-0.1-0.2-0.2-0.4-0.2-0.6c0-0.3,0.1-0.5,0.2-0.6s0.3-0.2,0.5-0.2s0.4,0.1,0.5,0.2c0.1,0.2,0.2,0.4,0.2,0.6
		s-0.1,0.5-0.2,0.6C139.4,98.4,139.3,98.4,139.1,98.4z M140.8,98.4c-0.2,0-0.4-0.1-0.5-0.2c-0.1-0.2-0.2-0.4-0.2-0.6
		c0-0.3,0.1-0.5,0.2-0.6c0.1-0.2,0.3-0.2,0.5-0.2s0.4,0.1,0.5,0.2c0.1,0.2,0.2,0.4,0.2,0.6c0,0.3-0.1,0.5-0.2,0.6
		S141.1,98.4,140.8,98.4z"/>
</g>
<g class="st2">
	<g>
		<path class="st3" d="M83.6,19.5c18.5-0.1,33.9,15.3,33.4,34.3c-0.4,18.1-15.5,33.2-34.4,32.7c-18-0.4-32.7-15.3-32.6-33.7
			C50.1,34.3,65,19.5,83.6,19.5z M83.4,81.6c15.6,0,28.4-12.5,28.7-28c0.4-16.1-12.4-29-28-29.4C67.9,23.9,54.8,37,54.8,52.9
			C54.8,68.7,67.7,81.6,83.4,81.6z"/>
		<path class="st3" d="M83.5,74.6c-9.7-0.1-18.4-6.5-21.3-15.7c-0.6-1.9,0.3-3.5,2.1-3.6c1.2-0.1,2.1,0.6,2.5,1.9
			c0.8,2.7,2.2,5.1,4.2,7.1c9.4,9.5,25.3,5.7,29.3-7.1c0.4-1.2,1.2-1.9,2.3-1.9s2,0.6,2.3,1.7c0.1,0.5,0.2,1.1,0,1.5
			c-2.9,8.7-8.8,13.9-17.7,15.7C86,74.4,84.7,74.4,83.5,74.6z"/>
		<path class="st3" d="M78.7,43.8c-0.1,1.9-0.5,4-2.2,5.6c-1.6,1.5-3.6,1.5-5.2,0c-1.3-1.3-1.9-2.8-2.1-4.6c-0.3-2.3,0-4.5,1.3-6.5
			c0.8-1.3,1.9-2.2,3.5-2.1c1.3,0,2.2,0.7,3,1.7C78.3,39.5,78.7,41.4,78.7,43.8z"/>
		<path class="st3" d="M97.9,43.7c-0.1,2-0.5,4-2.2,5.7c-1.6,1.5-3.6,1.5-5.2,0c-1.3-1.3-1.9-2.9-2.1-4.7c-0.3-2.3,0-4.5,1.3-6.4
			c0.8-1.3,1.9-2.2,3.6-2.1c1.2,0.1,2.2,0.7,2.9,1.6C97.4,39.5,97.8,41.4,97.9,43.7z"/>
	</g>
</g>
</svg>
