<?xml version="1.0" encoding="utf-8"?>
<!-- Generator: Adobe Illustrator 21.0.0, SVG Export Plug-In . SVG Version: 6.00 Build 0)  -->
<svg version="1.1" id="Layer_1" xmlns="http://www.w3.org/2000/svg" xmlns:xlink="http://www.w3.org/1999/xlink" x="0px" y="0px"
	 viewBox="0 0 31.8 26.9" style="enable-background:new 0 0 31.8 26.9;" xml:space="preserve">
<style type="text/css">
	.st0{opacity:0.9;}
	.st1{fill:#DA5926;}
</style>
<g class="st0">
	<g>
		<path class="st1" d="M0,7.4c3.3,0,6.6,0,10,0c0,2.5,0,5,0,7.5c1.7,0,3.3,0,4.9,0c0,0,0,0,0-0.1c-0.8-0.1-1.6-0.1-2.3-0.2
			c-1.2-0.1-1.9-1-1.7-2.2c0.4-1.9,0.9-3.9,1.4-5.8c0.2-0.9,0.9-1.3,1.7-1.4c1-0.1,1.5,0.3,1.9,1.2c0.3,0.7,0.6,1.5,0.8,2.2
			C16.8,9,17,9.1,17.4,9.1c0.7,0,1.5,0,2.2,0c1.2,0,1.5,0.4,1.1,1.7c1.3-0.4,1.7,0.6,2,1.5c0.5,1.1,1,2.2,1.5,3.3
			c0.4,0.8,0.4,1.6-0.1,2.3c-1,1.5-2,3-3,4.4c-0.6,0.8-1.5,1.1-2.5,1.1c-2.6,0-5.3,0-8,0c-0.2,1.3-0.7,2.4-1.8,3
			c-0.7,0.3-1.5,0.5-2.2,0.5c-1.8,0-3-1.3-3.4-3.5c-0.3,0-0.6,0-0.9,0c-0.9,0-1.2-0.4-0.8-1.2c1-1.8,2.2-3.6,4-4.8
			c0.1,0,0.1-0.1,0.2-0.2c-0.3-0.7-1-1.2-0.4-2.2c-1.8,0-3.6,0-5.3,0C0,12.4,0,9.9,0,7.4z M15.3,11.8c1.4,0.2,3,0.5,4.7,0.8
			c1.2,0.2,1.6,1.1,1.3,2.2c-0.6,1.9-1.2,3.7-1.8,5.6c-0.1,0.2-0.2,0.5-0.4,0.7c-0.4,0.5-0.9,0.6-1.5,0.3c-0.5-0.3-0.7-0.8-0.6-1.3
			c0.1-0.3,0.2-0.6,0.3-0.9c0.4-1.3,0.9-2.7,1.4-4.1C18,15,17.4,15,17,15c-0.3,0.4-0.6,0.7-0.8,1c-0.5,0.5-1,0.9-1.4,1.5
			c-1.1,1.6-0.3,3.8,1.3,4.4c1.1,0.4,2.5,0,3.7-0.1c0.2,0,0.5-0.3,0.6-0.6c0.9-1.2,1.7-2.5,2.6-3.7c0.4-0.6,0.4-1.1,0.1-1.7
			c-0.4-0.9-0.9-1.8-1.2-2.8c-0.3-0.7-0.7-1.1-1.5-0.9c-0.8,0.1-1.3-0.1-1.1-1.1c-0.3,0-0.6,0-0.9,0c-1.9,0.4-3.1-0.3-3.7-2.2
			c-0.1-0.3-0.2-1-0.8-0.8c-0.1,0,0,0.7,0.2,1.1C14.4,9.9,14.8,10.8,15.3,11.8z M1.3,10.8c0,1,0,2,0,2.9c2.5,0,5,0,7.5,0
			c0-1,0-1.9,0-2.9c-1.1,0-2.1,0-3.2,0c0,0.4-0.1,0.7-0.1,1c-0.3,0-0.6,0-0.9,0c0-0.4-0.1-0.7-0.1-1.1C3.4,10.8,2.3,10.8,1.3,10.8z
			 M4.8,23.3c0.1,1.3,1.1,2.1,2.2,2s1.9-0.9,1.9-2C7.7,23.3,6.3,23.3,4.8,23.3z M1.2,9.4c2.5,0,5,0,7.6,0c0-0.3-0.1-0.5-0.1-0.7
			c-2.5,0-5,0-7.5,0C1.2,9,1.2,9.2,1.2,9.4z M8.7,16.8c-0.3,0.2-0.9,0.4-0.9,0.6c0,0.6,0.6,0.3,0.9,0.4c0.1,0,0.2,0,0.3,0
			c1.6,0.1,2.3,1,2.2,2.6c0,0.2-0.1,0.4-0.1,0.6c0,0.3,0.1,0.5,0.2,0.7c0.2-0.2,0.5-0.4,0.5-0.6C12.5,18.7,11.2,17,8.7,16.8z"/>
		<path class="st1" d="M24,23.2c0-2.1,1.6-3.7,3.7-3.7s3.7,1.6,3.7,3.7c0,2-1.6,3.7-3.6,3.7C25.7,26.9,24,25.2,24,23.2z M27.7,25.3
			c1.2,0,2.2-1,2.2-2.2s-1-2.2-2.2-2.2s-2.2,1-2.2,2.2C25.5,24.4,26.5,25.3,27.7,25.3z"/>
		<path class="st1" d="M12.4,3.9c-0.5-1.5,0.2-3.1,1.7-3.7c1.5-0.5,3.1,0.2,3.7,1.7C17.6,2,17.4,2,17.2,2.1c0,0.2,0,0.3,0,0.4
			c0.1,1-0.2,1.8-1,2.2c-0.8,0.4-1.6,0.2-2.4-0.4C13.5,4,13,4,12.4,3.9z"/>
		<path class="st1" d="M28,17.6c1.2,0,2.4,0.5,3.4,1.4c0.3,0.3,0.6,0.7,0.3,1.1c-0.4,0.4-0.7,0.2-1.1-0.1c-1.3-1.1-2.8-1.4-4.4-0.8
			c-1.6,0.7-2.4,1.9-2.6,3.6c-0.1,0.5-0.1,1-0.7,0.9c-0.7,0-0.7-0.6-0.6-1.1C22.5,19.8,24.9,17.6,28,17.6z"/>
		<path class="st1" d="M24.7,12.3c-1.2,0-2-0.7-2-1.6s0.9-1.6,2-1.6C24.7,10.1,24.7,11.2,24.7,12.3z"/>
	</g>
</g>
</svg>
