<?xml version="1.0" encoding="utf-8"?>
<!-- Generator: Adobe Illustrator 21.0.0, SVG Export Plug-In . SVG Version: 6.00 Build 0)  -->
<svg version="1.1" id="Layer_1" xmlns="http://www.w3.org/2000/svg" xmlns:xlink="http://www.w3.org/1999/xlink" x="0px" y="0px"
	 viewBox="0 0 110 90.5" style="enable-background:new 0 0 110 90.5;" xml:space="preserve">
<style type="text/css">
	.st0{fill:#DA5926;}
</style>
<g>
	<path class="st0" d="M33.4,88.2c-6-2.8-9-7.9-10.1-14.4c-0.2-1.3,0.3-2.1,1.4-2.7c7.9-4.1,16-8.4,23.9-12.6
		c1.3-0.6,1.7-0.6,2.8,0.3c2.8,2.4,5.7,4.7,8.4,7.1c0.5,0.3,0.9,0.5,1.4,0.2c1.6-0.9,3.3-1.7,4.7-2.7c5.8-3.9,10.4-9,14.9-14.2
		c1.9-2.1,3.6-4.3,4.7-6.8c0.3-0.9,0.3-1.4-0.3-2.2c-2.2-2.5-4.6-5.2-6.8-7.9c-0.9-1.3-1.1-1.6-0.3-3c4.1-7.7,8.4-15.6,12.5-23.4
		c1.1-2.1,1.1-2.1,3.3-1.7c7,1.3,12,5.1,14.7,11.8c1.7,4.4,1.7,9,0.9,13.6c-0.9,6.3-3.3,12.3-6.5,18c-9,15.8-21.3,28.1-37.3,36.7
		c-6.8,3.6-14.1,6-21.8,6.2C40.5,90.5,37,89.9,33.4,88.2z M61.5,82.2C71.5,77.6,80,71,87.4,63.1c5.8-6.2,10.9-13.1,14.5-21
		c2.1-4.4,3.6-9.2,4.3-14.1c0.6-4.7,0.3-9.3-2.1-13.4c-2.1-3.5-5.2-5.5-9.2-6.5c-0.6-0.2-0.9,0-1.3,0.6c-3.6,7-7.3,13.9-11.1,20.9
		c-0.3,0.6-0.3,0.9,0.2,1.4c2.1,2.4,4.1,4.9,6.2,7.3c1.1,1.4,1.4,2.8,0.8,4.4c-0.8,1.7-1.6,3.5-2.7,5.1
		c-4.9,6.8-10.4,12.8-17.1,17.9c-1.4,1.1-3,2.1-4.6,3c-1.1,0.6-2.4,0.9-3.5,1.4c-1.4,0.5-2.5,0.2-3.6-0.8c-2.5-2.2-4.9-4.3-7.4-6.3
		c-0.6-0.5-0.9-0.5-1.6-0.2c-7,3.6-13.9,7.4-20.9,11.1c-0.6,0.3-0.8,0.6-0.6,1.3c1.3,6.6,5.8,10.4,12.5,11.4c1.1,0.2,2.2,0.3,3,0.3
		C50.1,86.6,55.8,84.8,61.5,82.2z"/>
	<path class="st0" d="M27.4,0C34,0,40.7,0,47.3,0.3C51.6,0.3,55,3.8,55,8c0,7.7,0,15.6,0,23.4c0,2.7-1.1,5.1-3.5,6.6
		c-1.7,1.1-3.5,1.4-5.4,1.3c-0.6,0-0.9,0.2-0.9,0.9c0,0.6,0,1.4,0,2.1c0,3.5,0,7,0,10.4c0,1.6-0.8,2.5-2.2,2.2
		c-0.5-0.2-0.9-0.6-1.3-0.9c-4.6-4.6-9.3-9.3-13.9-13.9c-0.6-0.6-1.3-0.9-2.2-0.9c-5.8,0-11.5-0.2-17.4,0C3.8,39.4,0,36,0,31
		c0-7.4,0-15,0-22.6C0,3.2,3.9-0.1,8.2,0C14.6,0.2,21,0,27.4,0L27.4,0z M41.4,46c0-2.5,0-5.2,0-7.7c0-2.1,0.5-2.5,2.5-2.5
		c1.3,0,2.4,0,3.6-0.2c2.4-0.3,3.6-1.9,3.6-4.3c0-5.5,0-10.9,0-16.4c0-2.4,0-4.6,0-6.8C50.9,5.7,49.2,4,46.8,4c-13,0-25.9,0-38.9,0
		C5.2,4,3.5,5.6,3.5,8.4c0,5.4,0,10.9,0,16.3c0,2.2,0,4.3,0,6.3c0,2.8,1.6,4.6,4.6,4.6c6,0,12.2,0,18.2,0c1.1,0,2.1,0.5,2.8,1.3
		c3.6,3.6,7.3,7.3,10.9,10.9c0.3,0.2,0.5,0.5,0.8,0.6c0.2-0.2,0.2-0.2,0.3-0.2C41.3,47.4,41.3,46.6,41.4,46z"/>
	<path class="st0" d="M41.1,17.4c1.4,0,2.1-0.6,1.9-2.1c0-0.8-0.5-1.3-1.3-1.4c-0.5-0.2-0.8-0.2-1.3-0.2c-8.8,0-17.5,0-26.2,0
		c-0.3,0-0.8,0-1.1,0.2c-1.1,0.2-1.6,0.9-1.4,2.1c0.2,0.9,0.6,1.6,1.7,1.6c2.4,0,4.6,0,6.8,0c2.4,0,4.7,0,7.1,0
		C31.9,17.5,36.5,17.5,41.1,17.4z M40.9,25.3c1.4,0,2.2-0.8,1.9-2.2c-0.2-0.5-0.6-0.9-1.1-1.3c-0.3-0.2-0.8-0.2-1.1-0.2
		c-6.3,0-12.5,0-18.8,0c-0.9,0-1.7,0.2-2.2,1.1c-0.5,1.4,0.3,2.7,1.9,2.7c3.3,0,6.5,0,9.8,0S37.8,25.4,40.9,25.3z"/>
	<path class="st0" d="M20.2,17.7c-2.4,0-4.6,0-6.8,0c-1.1,0-1.6-0.6-1.7-1.6c0-1.1,0.3-1.7,1.4-2.1c0.3-0.2,0.8-0.2,1.1-0.2
		c8.8,0,17.5,0,26.2,0c0.5,0,0.8,0,1.3,0.2c0.8,0.2,1.3,0.6,1.3,1.4c0.2,1.3-0.5,2.1-1.9,2.1c-4.6,0-9.2,0-13.7,0
		C25,17.5,22.6,17.5,20.2,17.7z"/>
	<path class="st0" d="M21.7,25.6c-1.6,0-2.5-1.3-1.9-2.7c0.5-0.9,1.3-1.1,2.2-1.1c6.3,0,12.5,0,18.8,0c0.3,0,0.8,0,1.1,0.2
		c0.5,0.3,0.9,0.8,1.1,1.3c0.3,1.3-0.5,2.2-1.9,2.2c-3.3,0-6.5,0-9.8,0C28.1,25.4,24.8,25.4,21.7,25.6z"/>
</g>
</svg>
