<?xml version="1.0" encoding="utf-8"?>
<!-- Generator: Adobe Illustrator 21.0.0, SVG Export Plug-In . SVG Version: 6.00 Build 0)  -->
<svg version="1.1" id="Layer_1" xmlns="http://www.w3.org/2000/svg" xmlns:xlink="http://www.w3.org/1999/xlink" x="0px" y="0px"
	 viewBox="0 0 28 28" style="enable-background:new 0 0 28 28;" xml:space="preserve">
<style type="text/css">
	.st0{fill:#DA5926;}
</style>
<g>
	<path class="st0" d="M0,14C0,6.3,6.3,0,14,0s14,6.3,14,14s-6.3,14-14,14S0,21.7,0,14z M26.1,14c0-6.6-5.4-12.1-12-12.1
		C7.4,1.9,1.9,7.4,1.9,14S7.3,26.1,14,26.1C20.6,26.1,26.1,20.6,26.1,14z"/>
	<path class="st0" d="M14.8,13.6c0.6,0,1.1,0,1.6,0c1.3,0,2.6,0,3.9,0c0.8,0,1.2,0.3,1.2,0.9c0,0.8-0.6,0.9-1.2,0.9c-2,0-4,0-6.1,0
		c-0.9,0-1.2-0.3-1.2-1.2c0-2.8,0-5.6,0-8.4c0-0.8,0.4-1.2,0.9-1.2c0.7,0.1,0.9,0.6,0.9,1.2C14.8,8.4,14.8,11,14.8,13.6z"/>
</g>
</svg>
