<?xml version="1.0" encoding="utf-8"?>
<!-- Generator: Adobe Illustrator 21.0.0, SVG Export Plug-In . SVG Version: 6.00 Build 0)  -->
<svg version="1.1" id="Layer_1" xmlns="http://www.w3.org/2000/svg" xmlns:xlink="http://www.w3.org/1999/xlink" x="0px" y="0px"
	 viewBox="0 0 36 25.7" style="enable-background:new 0 0 36 25.7;" xml:space="preserve">
<style type="text/css">
	.st0{fill:#356732;}
</style>
<g>
	<path class="st0" d="M32.4,25.6c-3.6,0-7.2,0-10.8,0h-0.1c-0.5,0-1,0-1.4,0c-1.9,0-3.8,0-5.7,0c-3.6,0-7.1,0-10.7,0
		c-0.1,0-0.3,0-0.4,0c-0.8-0.1-1.5-0.5-2.1-1c-0.6-0.6-1-1.3-1.1-2.1c0-0.1,0-0.3-0.1-0.4c0-1.7,0-3.4,0-5.1v-0.1C0,13,0,9.1,0,5.2
		V5.1c0-0.5,0-1,0-1.5c0-0.1,0-0.1,0-0.2c0.1-0.9,0.5-1.6,1.1-2.2C1.9,0.4,2.8,0,3.9,0c5.2,0,10.5,0,15.7,0c4.2,0,8.4,0,12.6,0
		c0.3,0,0.6,0,0.9,0.1c1.4,0.4,2.3,1.2,2.8,2.6C36,3,36,3.2,36,3.5c0,6.1,0,12.2,0,18.3c0,0.3,0,0.6-0.1,0.9c-0.3,1.5-1.5,2.7-3,3
		C32.8,25.6,32.6,25.6,32.4,25.6z M32.3,2c-9.5,0-19,0-28.5,0c0,0,0,0,0.1,0.1c0.8,0.8,1.6,1.6,2.4,2.4c3.8,3.8,7.6,7.6,11.4,11.3
		c0.3,0.3,0.7,0.3,1,0c0.2-0.2,0.4-0.4,0.6-0.6C23.6,10.7,27.9,6.4,32.3,2L32.3,2z M5.7,23.7L5.7,23.7c8.2,0,16.4,0,24.6,0l0,0
		c0,0,0,0-0.1,0c-2.8-2.8-5.6-5.6-8.3-8.3c-0.1-0.1-0.1,0-0.1,0c-1.1,1.1-2.1,2.1-3.2,3.2c-0.3,0.3-0.7,0.3-1,0
		c-1.1-1.1-2.2-2.2-3.3-3.3c-0.1-0.1-0.1-0.1-0.1,0C11.4,18,8.6,20.8,5.7,23.7C5.8,23.6,5.7,23.7,5.7,23.7z M34.1,3
		C34.1,3,34,3,34.1,3c-3.7,3.7-7.3,7.3-10.9,10.9c-0.1,0.1-0.1,0.1,0,0.1c2,2,4,4,6,6c1.2,1.2,2.4,2.4,3.7,3.7H33
		c0.5-0.2,0.8-0.5,1-0.9c0.1-0.3,0.2-0.7,0.2-1.1c0-6.2,0-12.3,0-18.5C34.1,3,34.1,3,34.1,3z M2.2,3C2.2,3.1,2.2,3.1,2.2,3
		c0,6.4,0,12.7,0,19c0,0.2,0,0.3,0,0.5c0.1,0.5,0.3,0.9,0.8,1c0.1,0,0.1,0,0.1,0c2.8-2.8,5.6-5.6,8.3-8.3c0.5-0.5,0.9-0.9,1.4-1.4
		c0.1-0.1,0-0.1,0-0.1c-0.1-0.1-0.1-0.1-0.2-0.2C9.2,10.1,5.7,6.6,2.2,3C2.2,3.1,2.2,3.1,2.2,3z"/>
</g>
<g>
	<path class="st0" d="M17.7-63.7c0.8,0,1.5,0,2.3,0c0.1,0,0.2,0,0.3,0.1c1.9,0.2,3.8,0.6,5.5,1.3c3.1,1.3,5.7,3.3,7.8,5.9
		c1.9,2.5,3.1,5.4,3.5,8.6c0.1,0.4,0.1,0.8,0.2,1.3c0,0.8,0,1.5,0,2.3c0,0.1,0,0.2-0.1,0.3c-0.2,1.2-0.3,2.4-0.6,3.5
		c-0.6,2.3-1.7,4.4-3.2,6.3s-3.3,3.4-5.4,4.6c-2.2,1.2-4.6,2-7.1,2.3c-3.7,0.4-7.2-0.3-10.5-2c-0.2-0.1-0.4-0.1-0.6-0.1
		c-0.6,0.2-1.2,0.4-1.7,0.6C5.4-27.8,2.7-27,0-26.1v-0.1c0.1-0.1,0.1-0.3,0.2-0.4C0.6-27.8,1-29,1.4-30.2C2-32,2.6-33.8,3.2-35.6
		c0-0.1,0-0.3,0-0.5C3-36.6,2.7-37,2.5-37.5c-1-2.1-1.6-4.3-1.7-6.6c-0.1-1.9,0-3.8,0.5-5.6c0.6-2.4,1.6-4.6,3.1-6.5
		c1.5-2,3.3-3.6,5.4-4.8c2.1-1.2,4.4-2,6.8-2.3C16.8-63.6,17.3-63.6,17.7-63.7z M4.4-30.8c0.3-0.1,0.5-0.1,0.7-0.2
		c1.7-0.5,3.3-1.1,5-1.6c0.2-0.1,0.4,0,0.5,0.1c0.7,0.4,1.4,0.8,2.1,1.1c2.6,1.2,5.3,1.5,8,1.2c1.6-0.2,3.2-0.6,4.6-1.3
		c1.2-0.6,2.3-1.2,3.3-2.1c1.4-1.1,2.5-2.5,3.4-4c1.3-2.2,2.1-4.6,2.2-7.2c0.1-3.1-0.6-6-2.3-8.7c-1.2-1.9-2.6-3.4-4.4-4.7
		c-1.7-1.1-3.5-1.9-5.4-2.3c-3.7-0.8-7.3-0.3-10.6,1.5c-2.3,1.2-4.2,3-5.6,5.1c-1,1.5-1.7,3.2-2.1,4.9c-0.4,1.6-0.5,3.1-0.3,4.7
		c0.1,1.3,0.4,2.7,0.9,3.9c0.5,1.3,1.1,2.4,1.8,3.5c0.1,0.1,0.1,0.3,0.1,0.4c-0.4,1.4-0.9,2.7-1.4,4.1C4.7-31.7,4.6-31.3,4.4-30.8z"
		/>
	<path class="st0" d="M13.2-53.8c-0.5-0.1-1,0-1.4,0.3c-0.9,0.7-1.5,1.6-1.7,2.7c-0.3,1.6,0,3,0.8,4.4c0.9,1.7,2.1,3.2,3.4,4.5
		c1.6,1.7,3.4,3,5.6,3.8c1,0.3,1.9,0.7,2.9,0.9c1.5,0.4,2.8,0,4-0.8c0.4-0.3,0.7-0.6,1-1c0.4-0.6,0.4-1.3,0.5-2
		c0-0.3-0.1-0.5-0.4-0.6c-1.2-0.6-2.4-1.2-3.7-1.7c-0.4-0.2-0.7-0.1-1,0.3c-0.4,0.6-0.9,1.1-1.3,1.6c-0.3,0.3-0.5,0.4-0.9,0.2
		c-0.5-0.2-1-0.4-1.5-0.7c-2-1.1-3.5-2.7-4.7-4.6c-0.2-0.3-0.2-0.6,0.1-0.9c0.3-0.4,0.7-0.8,1-1.2c0.3-0.4,0.4-0.8,0.1-1.3
		c-0.3-0.7-0.6-1.4-0.9-2.1c-0.2-0.5-0.4-1-0.7-1.5c-0.1-0.3-0.4-0.4-0.7-0.4C13.5-53.8,13.3-53.8,13.2-53.8z"/>
	<path class="st0" d="M13.2-53.8c0.2,0,0.3,0,0.5,0c0.3,0,0.5,0.1,0.7,0.4c0.2,0.5,0.5,1,0.7,1.5c0.3,0.7,0.6,1.4,0.9,2.1
		c0.2,0.5,0.1,0.9-0.1,1.3c-0.3,0.4-0.6,0.8-1,1.2c-0.3,0.3-0.3,0.6-0.1,0.9c1.2,1.9,2.7,3.5,4.7,4.6c0.5,0.3,1,0.5,1.5,0.7
		c0.4,0.2,0.6,0.1,0.9-0.2c0.4-0.5,0.9-1.1,1.3-1.6c0.3-0.4,0.5-0.5,1-0.3c1.2,0.6,2.4,1.2,3.7,1.7c0.3,0.1,0.4,0.3,0.4,0.6
		c0,0.7-0.1,1.4-0.5,2c-0.3,0.4-0.6,0.8-1,1c-1.2,0.9-2.5,1.3-4,0.8c-1-0.3-1.9-0.6-2.9-0.9c-2.2-0.8-4-2.1-5.6-3.8
		c-1.3-1.4-2.5-2.9-3.4-4.5c-0.8-1.4-1.1-2.8-0.8-4.4c0.2-1.1,0.8-2,1.7-2.7C12.1-53.8,12.7-53.8,13.2-53.8z"/>
</g>
</svg>
