<?xml version="1.0" encoding="utf-8"?>
<!-- Generator: Adobe Illustrator 21.0.0, SVG Export Plug-In . SVG Version: 6.00 Build 0)  -->
<svg version="1.1" id="Layer_1" xmlns="http://www.w3.org/2000/svg" xmlns:xlink="http://www.w3.org/1999/xlink" x="0px" y="0px"
	 viewBox="0 0 122 128.6" style="enable-background:new 0 0 122 128.6;" xml:space="preserve">
<style type="text/css">
	.st0{fill:#DA5926;}
	.st1{fill:#FFFFFF;}
	.st2{fill:#E0E0E0;}
	.st3{fill:#DEDAD7;}
	.st4{fill:#FF6110;}
	.st5{fill:none;}
</style>
<g>
	<rect x="7.3" y="31.4" class="st0" width="109.7" height="95.4"/>
</g>
<g>
	<g>
		<g>
			<polygon class="st1" points="7.3,36.6 2.2,66.4 13.1,66.4 17.6,36.6 			"/>
		</g>
		<g>
			<polygon class="st0" points="17.6,36.6 13.1,66.4 24,66.4 28,36.6 			"/>
		</g>
		<g>
			<polygon class="st1" points="28,36.6 24,66.4 34.9,66.4 38.3,36.6 			"/>
		</g>
		<g>
			<polygon class="st0" points="38.3,36.6 34.9,66.4 45.8,66.4 48.7,36.6 			"/>
		</g>
		<g>
			<polygon class="st1" points="48.7,36.6 45.8,66.4 56.7,66.4 58.1,36.6 			"/>
		</g>
		<g>
			<polygon class="st1" points="116.9,36.6 106.6,36.6 111.1,66.4 122,66.4 			"/>
		</g>
		<g>
			<polygon class="st0" points="96.2,36.6 100.2,66.4 111.1,66.4 106.6,36.6 			"/>
		</g>
		<g>
			<polygon class="st1" points="85.9,36.6 89.3,66.4 100.2,66.4 96.2,36.6 			"/>
		</g>
		<g>
			<polygon class="st0" points="75.5,36.6 78.4,66.4 89.3,66.4 85.9,36.6 			"/>
		</g>
		<g>
			<polygon class="st1" points="66.1,36.6 67.5,66.4 78.4,66.4 75.5,36.6 			"/>
		</g>
		<g>
			<polygon class="st0" points="65.2,36.6 62.1,36.6 59,36.6 58.1,36.6 56.7,66.4 62.1,66.4 67.5,66.4 66.1,36.6 			"/>
		</g>
	</g>
	<g>
		<path class="st2" d="M7.6,71.8c3,0,5.4-2.4,5.4-5.4H2.1C2.2,69.4,4.6,71.8,7.6,71.8z"/>
	</g>
	<g>
		<path class="st3" d="M18.5,71.8c3,0,5.4-2.4,5.4-5.4H13.1C13.1,69.4,15.5,71.8,18.5,71.8z"/>
	</g>
	<g>
		<path class="st2" d="M29.4,71.8c3,0,5.4-2.4,5.4-5.4H23.9C24,69.4,26.4,71.8,29.4,71.8z"/>
	</g>
	<g>
		<path class="st3" d="M40.3,71.8c3,0,5.4-2.4,5.4-5.4H34.8C34.9,69.4,37.3,71.8,40.3,71.8z"/>
	</g>
	<g>
		<path class="st2" d="M51.2,71.8c3,0,5.4-2.4,5.4-5.4H45.7C45.8,69.4,48.2,71.8,51.2,71.8z"/>
	</g>
	<g>
		<path class="st3" d="M62.1,71.8c3,0,5.4-2.4,5.4-5.4H56.6C56.7,69.4,59.1,71.8,62.1,71.8z"/>
	</g>
	<g>
		<path class="st2" d="M73,71.8c3,0,5.4-2.4,5.4-5.4H67.5C67.5,69.4,70,71.8,73,71.8z"/>
	</g>
	<g>
		<path class="st3" d="M83.9,71.8c3,0,5.4-2.4,5.4-5.4H78.4C78.4,69.4,80.9,71.8,83.9,71.8z"/>
	</g>
	<g>
		<path class="st2" d="M94.8,71.8c3,0,5.4-2.4,5.4-5.4H89.3C89.3,69.4,91.8,71.8,94.8,71.8z"/>
	</g>
	<g>
		<path class="st3" d="M105.7,71.8c3,0,5.4-2.4,5.4-5.4h-10.9C100.2,69.4,102.7,71.8,105.7,71.8z"/>
	</g>
	<g>
		<path class="st2" d="M116.6,71.8c3,0,5.4-2.4,5.4-5.4h-10.9C111.1,69.4,113.6,71.8,116.6,71.8z"/>
	</g>
</g>
<g>
	<rect x="7.3" y="26.9" class="st1" width="109.7" height="5.8"/>
</g>
<g>
	<rect x="7.3" y="31.3" class="st4" width="109.7" height="2.8"/>
</g>
<g>
	<rect x="21.4" y="14.3" class="st1" width="2.5" height="14.2"/>
</g>
<g>
	<rect x="99" y="14.3" class="st1" width="2.5" height="14.2"/>
</g>
<g>
	<rect x="22.7" y="20.9" class="st1" width="1.3" height="6.1"/>
</g>
<g>
	<rect x="100.2" y="20.9" class="st1" width="1.3" height="6.1"/>
</g>
<g>
	<g>
		<rect x="15.8" class="st0" width="91.7" height="22.1"/>
	</g>
</g>
<g>
	<path class="st1" d="M15.8,0v22.1h91.7V0H15.8z M105.4,20.1H17.8V2h87.6L105.4,20.1L105.4,20.1z"/>
</g>
<g>
	<g>
		<path class="st3" d="M14.4,76.5v42.8H77V76.5H14.4z M74.1,116.5H17.2V79.4h56.9V116.5z"/>
	</g>
</g>
<g>
	<g>
		<path class="st3" d="M84.5,74.3v50.3h24.9V74.3H84.5z M106.6,121.8H87.4v-20.9h2.5v1.7h6.4v-1.7h10.4L106.6,121.8L106.6,121.8z
			 M106.6,98.1H96.2v-1.7h-6.4v1.7h-2.5V77.2h19.2L106.6,98.1L106.6,98.1z"/>
	</g>
</g>
<rect x="18.1" y="3.9" class="st5" width="87.1" height="14.3"/>
<g>
	<path class="st1" d="M25.8,10.8c0.1,0.4-0.8,0.4-0.8-0.1c-0.1-0.7-0.6-1.3-1.1-1.5s-1.1-0.4-1.5-0.1c-0.3,0.4-0.4,1.2,0.3,1.7
		c0.5,0.4,1.1,0.7,1.6,1c0.8,0.5,1.6,1.1,1.9,2.1c0.3,1.3-0.5,2.4-2.2,2.5c-1,0-2.2-0.3-3-1.4c-0.3-0.4-0.5-1.1-0.5-1.6
		s0.9-0.7,0.9-0.1c0,0.5,0.2,0.9,0.5,1.4c0.4,0.5,1.2,0.9,1.9,0.9c0.8,0,1.6-0.4,1.5-1.3C25,13,23,12.4,22,11.5
		c-1.1-1-0.9-2.3-0.3-2.9c0.8-0.8,2.6-0.3,3.2,0.5c0-0.2-0.1-0.5-0.1-0.7c-0.1-0.3,0.8-0.5,0.9-0.1C25.8,9.1,25.7,9.9,25.8,10.8z"/>
	<path class="st1" d="M33.3,8.4c0,1.6,0.3,4.5-0.2,6c-0.4,1-1.4,2.1-2.6,2.1c-0.7,0-1.5-0.3-2-0.8c-0.8-0.7-1.2-1.4-1.2-3
		c0-1.5,0-2.8,0-4.3c0.1-0.4,1-0.5,1-0.1v4.1c0,0.9,0.1,1.7,0.6,2.2s1.1,0.7,1.6,0.7c0.8,0,1.4-0.8,1.7-1.6c0.2-0.6,0.2-1.4,0.2-2.4
		c0-1.6-0.1-2.8-0.1-3.1C32.3,7.9,33.3,8.1,33.3,8.4z"/>
	<path class="st1" d="M41.1,10.8c-0.1,1.5-0.8,2.4-2,2.8c-0.9,0.3-2.3,0.3-2.8,0.2c0,0.8,0.1,1.5,0.2,2c0.1,0.7-0.8,0.8-0.9,0.2
		c-0.1-0.6-0.2-1.3-0.2-2.2c-0.2,0-0.4,0-0.5-0.1c-0.5-0.1-0.6-0.7,0-0.9c0.1,0,0.4,0,0.5,0c0-0.3-0.1-2.8-0.1-3.2
		c-0.1,0.1-0.3,0.1-0.4,0.2C34.3,10,34,9.3,34.5,9c1.3-0.6,2.9-1,4.1-1C40.1,8.2,41.2,9,41.1,10.8z M36.2,9.4c0,0.3,0.1,3.2,0.1,3.6
		c0.6,0,1.8,0,2.5-0.2c0.8-0.3,1.3-1.1,1.3-2.2c0-1-0.6-1.4-1.4-1.5C38,9,37.1,9.1,36.2,9.4z"/>
	<path class="st1" d="M47.9,9.2c-0.7,0-3.9-0.1-4.4,0c0,0.3,0.1,2.1,0.1,2.8c1.1,0.1,3.2,0,4.2-0.1c0.7-0.1,1.1,0.5,0.3,0.9
		c-1.6,0.3-3.6,0.2-4.5,0.2c0,0.2,0.1,2.6,0.1,2.9c1.3,0.1,4.2-0.2,4.6-0.2c0.9,0.1,0.7,1-0.2,1c-0.7,0-1.1,0-1.5,0.1
		c-0.8,0.1-1.2,0.1-3.4,0.1c-0.1,0-0.4-0.2-0.4-0.4c-0.2-0.6-0.1-1-0.1-1.8c0-0.5-0.1-1.4-0.1-1.6c0-1.4-0.1-3.6-0.1-3.8h-0.2
		c-0.7,0-0.7-0.8-0.1-0.9c0.2,0,0.4-0.1,0.6-0.1c0.5-0.1,4.1-0.1,5.2,0C48.6,8.2,48.6,9.1,47.9,9.2z"/>
	<path class="st1" d="M54.2,8.6c0.9,0.4,1.7,1.2,1.6,2.5c-0.2,1.3-1.6,1.8-2.8,1.7c0.7,0.6,2.1,2.7,3.3,2.7c0.6,0,0.4,0.9-0.2,0.9
		c-1.8,0.1-3.3-2.7-4.5-3.5c-0.2-0.1-0.4-0.1-0.6-0.2c0,1,0.1,2.3,0.1,3.3c0,0.5-0.9,0.5-0.9-0.1c-0.1-3-0.2-5.2-0.2-6.8
		c-0.2,0-0.3,0.1-0.4,0.1c-0.5,0.1-0.6-0.7-0.2-0.8c0.3-0.1,0.7-0.3,1.4-0.3C51.9,8.1,53,8.1,54.2,8.6z M51.1,11.8
		c1.4,0.4,3.4,0.4,3.7-0.7c0.1-0.6-0.2-1.2-0.9-1.5C53,9.2,51.8,9,51.2,9.1C51.1,9.8,51.1,10.6,51.1,11.8z"/>
	<path class="st1" d="M61.5,12.2c0.1,0.6,0.4,1.5,0.7,2.3c0.3-0.8,0.6-1.5,0.8-2.3c0.5-1.9,0.9-2.9,1.3-3.8C64.5,8,65.2,8,65.2,8.5
		c0.3,1.3,0.2,2,0.7,3.9c0.2,0.8,0.8,2.7,1.2,3.3c0.2,0.7-0.7,1-0.9,0.5c-0.4-0.7-1-2.8-1.2-3.6c-0.1-0.4-0.3-1.5-0.4-2.3
		c-0.6,1.7-0.8,2.5-0.9,2.8c-0.4,1.1-0.8,2-1.2,2.7s-0.7,0.3-0.9-0.3c-0.4-1-0.9-2.2-1.1-3.2c-0.2-1.1-0.4-1.8-0.6-2.3
		c-0.1,0.6-0.9,4.6-1.5,5.9c-0.3,0.6-1.1,0.4-0.9-0.3c1-2.2,1.1-5,1.9-7.1c0.2-0.6,0.9-0.7,1-0.1C60.6,9.2,61.3,11,61.5,12.2z"/>
	<path class="st1" d="M71.8,8.5c0.6,1.5,1.1,3.6,1.5,4.4c0.3,0,0.5,0,0.8-0.1c0.9,0,0.9,0.9-0.1,1c-0.1,0-0.2,0-0.4,0
		c0.3,0.8,0.5,1.3,1,2.1c0.4,1.2-0.7,1-1,0.2c-0.4-1.1-0.8-1.6-1-2.3c-0.5,0-2.5,0.1-2.7,0.1c-0.5,0.9-0.8,1.4-1.1,2.5
		c-0.2,0.5-1.2,0.5-0.9-0.5c0.2-0.6,0.6-1.4,0.8-2.1c-0.9-0.1-0.9-0.8-0.2-0.8H69c0.5-1.2,1-3.2,1.6-4.4C71,7.8,71.6,7.9,71.8,8.5z
		 M71.3,9.9c-0.4,1-0.7,2.4-1,3c0.2,0,1.6-0.1,2,0C71.9,12.2,71.7,11.1,71.3,9.9z"/>
	<path class="st1" d="M80,8.6c0.9,0.4,1.7,1.2,1.6,2.5c-0.2,1.3-1.6,1.8-2.8,1.7c0.7,0.6,2.1,2.7,3.3,2.7c0.6,0,0.4,0.9-0.2,0.9
		c-1.8,0.1-3.3-2.7-4.5-3.5c-0.2-0.1-0.4-0.1-0.6-0.2c0,1,0.1,2.3,0.1,3.3c0,0.5-0.9,0.5-0.9-0.1c-0.1-3-0.2-5.2-0.2-6.8
		c-0.2,0-0.3,0.1-0.4,0.1c-0.5,0.1-0.6-0.7-0.2-0.8c0.3-0.1,0.7-0.3,1.4-0.3C77.7,8.1,78.8,8.1,80,8.6z M76.9,11.8
		c1.4,0.4,3.4,0.4,3.7-0.7c0.1-0.6-0.2-1.2-0.9-1.5C78.8,9.2,77.6,9,77,9.1C76.9,9.8,76.9,10.6,76.9,11.8z"/>
	<path class="st1" d="M84.3,12.1c0.6-0.1,1.3-0.3,1.8-0.7c0.7-0.5,1.1-1.7,1.3-2.9c0.1-0.4,1.1-0.6,1,0c-0.3,1.6-0.7,2.7-1.5,3.3
		c-0.2,0.2-0.4,0.3-0.7,0.5c0.7,1.2,1.7,1.9,2.4,3.4c0.2,0.6-0.7,0.9-0.9,0.4c-0.4-1.1-1.9-2.6-2.5-3.4c-0.3,0.1-0.6,0.1-1,0.2
		c0,0.7-0.1,2.4-0.1,3c0,0.4-1,0.8-1,0.1c0-1.7,0.2-4.8-0.2-7.3c0-0.5,0.9-0.9,1-0.3C84.3,9.8,84.4,11.5,84.3,12.1z"/>
	<path class="st1" d="M95.3,9.2c-0.7,0-3.9-0.1-4.4,0c0,0.3,0.1,2.1,0.1,2.8c1.1,0.1,3.2,0,4.2-0.1c0.7-0.1,1.1,0.5,0.3,0.9
		C93.9,13.1,91.9,13,91,13c0,0.2,0.1,2.6,0.1,2.9c1.3,0.1,4.2-0.2,4.6-0.2c0.9,0.1,0.7,1-0.2,1c-0.7,0-1.1,0-1.5,0.1
		c-0.8,0.1-1.2,0.1-3.4,0.1c-0.1,0-0.4-0.2-0.4-0.4c-0.2-0.6-0.1-1-0.1-1.8c0-0.5-0.1-1.4-0.1-1.6c0-1.4-0.1-3.6-0.1-3.8h-0.2
		c-0.7,0-0.7-0.8-0.1-0.9c0.2,0,0.4-0.1,0.6-0.1c0.5-0.1,4.1-0.1,5.2,0C96,8.2,96,9.1,95.3,9.2z"/>
	<path class="st1" d="M103,8.1c0.6,0,0.3,0.9-0.1,0.9c-0.7,0-2.2,0-2.4,0c0.2,1.6,0.1,5.7,0,7c-0.1,0.7-1,0.5-1,0.1
		c0-1.1,0.4-5.5,0-7.1c-0.5,0-2,0-2.5,0s-0.2-0.9,0.2-0.9C97.9,8.1,102.2,8.1,103,8.1z"/>
</g>
</svg>
