<?xml version="1.0" encoding="utf-8"?>
<!-- Generator: Adobe Illustrator 21.0.0, SVG Export Plug-In . SVG Version: 6.00 Build 0)  -->
<svg version="1.1" id="Layer_1" xmlns="http://www.w3.org/2000/svg" xmlns:xlink="http://www.w3.org/1999/xlink" x="0px" y="0px"
	 viewBox="0 0 106 106" style="enable-background:new 0 0 106 106;" xml:space="preserve">
<style type="text/css">
	.st0{fill:none;stroke:#DA5926;stroke-width:4;stroke-miterlimit:10;}
	.st1{fill:#DA5926;}
</style>
<g>
	<path class="st0" d="M79.4,104h-52c-13.8,0-25-11.3-25-25V27c0-13.8,11.3-25,25-25h52c13.8,0,25,11.3,25,25v52
		C104.4,92.8,93.2,104,79.4,104z"/>
</g>
<g>
	<path class="st1" d="M59,83.2c-4.9-0.1-9.5-1.6-13.8-3.9c-10.1-5.4-17.9-13.2-23.6-23.2c-2-3.6-3.5-7.4-4.1-11.4
		c-0.5-2.9-0.5-5.8,0.6-8.6c1.7-4.3,4.9-6.7,9.3-7.5c1.4-0.2,1.4-0.2,2.1,1.1c2.6,4.9,5.3,9.9,7.9,14.8c0.5,0.9,0.4,1.1-0.2,1.9
		c-1.4,1.7-2.9,3.4-4.3,5c-0.4,0.5-0.4,0.8-0.2,1.4c0.7,1.6,1.8,3,3,4.3c2.8,3.3,5.7,6.5,9.4,9c0.9,0.6,2,1.1,3,1.7
		c0.3,0.2,0.6,0.1,0.9-0.1c1.7-1.5,3.5-3,5.3-4.5c0.7-0.6,1-0.6,1.8-0.2c5,2.7,10.1,5.4,15.1,8c0.7,0.4,1,0.9,0.9,1.7
		c-0.7,4.1-2.6,7.3-6.4,9.1C63.4,82.9,61.2,83.3,59,83.2z M59.4,80.9c0.5,0,1.2-0.1,1.9-0.2c4.2-0.6,7.1-3,7.9-7.2
		c0.1-0.4,0-0.6-0.4-0.8c-4.4-2.3-8.8-4.7-13.2-7c-0.4-0.2-0.6-0.2-1,0.1c-1.6,1.3-3.1,2.6-4.7,4c-0.7,0.6-1.4,0.8-2.3,0.5
		c-0.7-0.3-1.5-0.5-2.2-0.9c-1-0.6-2-1.2-2.9-1.9c-4.2-3.2-7.7-7-10.8-11.3c-0.7-1-1.2-2.1-1.7-3.2c-0.4-1-0.2-1.9,0.5-2.8
		c1.3-1.5,2.6-3.1,3.9-4.6c0.3-0.3,0.3-0.5,0.1-0.9c-2.4-4.4-4.7-8.8-7-13.2c-0.2-0.4-0.4-0.5-0.8-0.4c-2.5,0.6-4.5,1.9-5.8,4.1
		c-1.5,2.6-1.7,5.5-1.3,8.5c0.4,3.1,1.4,6.1,2.7,8.9c2.3,5,5.5,9.4,9.2,13.3c4.7,5,10.1,9.2,16.4,12.1
		C51.5,79.7,55.1,80.8,59.4,80.9z"/>
	<path class="st1" d="M69.5,26c4,0,8.1,0.1,12.1,0c2.7-0.1,5.2,2,5.2,5.3c0,4.8,0,9.6,0,14.3c0,3.2-2.4,5.3-5.2,5.2
		c-3.7-0.1-7.3,0-11,0c-0.6,0-1,0.2-1.4,0.6c-2.9,2.9-5.9,5.9-8.8,8.8c-0.2,0.2-0.5,0.5-0.8,0.6c-0.9,0.2-1.4-0.4-1.4-1.4
		c0-2.2,0-4.4,0-6.6c0-0.4,0-0.9,0-1.3c0-0.5-0.2-0.6-0.6-0.6c-1.2,0.1-2.3-0.1-3.4-0.8c-1.5-1-2.2-2.5-2.2-4.2c0-4.9,0-9.9,0-14.8
		c0-2.7,2.2-4.9,4.9-4.9C61.1,26,65.3,26,69.5,26L69.5,26z M60.7,56.5c0.1,0,0.1,0,0.2,0.1c0.2-0.1,0.3-0.3,0.5-0.4
		c2.3-2.3,4.6-4.6,6.9-6.9c0.5-0.5,1.1-0.8,1.8-0.8c3.8,0,7.7,0,11.5,0c1.9,0,2.9-1.1,2.9-2.9c0-1.3,0-2.6,0-4c0-3.4,0-6.9,0-10.3
		c0-1.8-1.1-2.8-2.8-2.8c-8.2,0-16.4,0-24.6,0c-1.5,0-2.6,1.1-2.7,2.6c0,1.4,0,2.8,0,4.3c0,3.5,0,6.9,0,10.4c0,1.5,0.8,2.5,2.3,2.7
		c0.8,0.1,1.5,0.1,2.3,0.1c1.3,0,1.6,0.3,1.6,1.6c0,1.6,0,3.3,0,4.9C60.7,55.5,60.7,56,60.7,56.5z"/>
	<path class="st1" d="M69.5,37.1c1.5,0,3,0,4.5,0c1.4,0,2.8,0,4.3,0c0.7,0,1-0.4,1.1-1c0.1-0.7-0.2-1.2-0.9-1.3
		c-0.2-0.1-0.5-0.1-0.7-0.1c-5.5,0-11,0-16.6,0c-0.3,0-0.5,0-0.8,0.1c-0.5,0.1-0.8,0.4-0.8,0.9c-0.1,0.9,0.3,1.3,1.2,1.3
		C63.7,37.1,66.6,37.1,69.5,37.1z M67,42.1c2.1,0,4.1,0,6.2,0c1,0,1.5-0.8,1.2-1.7c-0.3-0.6-0.8-0.7-1.4-0.7c-4,0-7.9,0-11.9,0
		c-0.2,0-0.5,0-0.7,0.1c-0.3,0.2-0.6,0.5-0.7,0.8C59.5,41.5,60,42,60.9,42C62.9,42.1,64.9,42.1,67,42.1z"/>
	<path class="st1" d="M69.5,37.1c-2.9,0-5.8,0-8.7,0c-0.9,0-1.3-0.5-1.2-1.3c0-0.5,0.3-0.8,0.8-0.9c0.3-0.1,0.5-0.1,0.8-0.1
		c5.5,0,11,0,16.6,0c0.2,0,0.5,0,0.7,0.1c0.7,0.2,0.9,0.6,0.9,1.3c-0.1,0.6-0.4,1-1.1,1c-1.4,0-2.8,0-4.3,0
		C72.5,37.1,71,37.1,69.5,37.1z"/>
	<path class="st1" d="M67,42.1c-2.1,0-4.1,0-6.2,0c-0.9,0-1.4-0.6-1.2-1.4c0.1-0.3,0.4-0.6,0.7-0.8c0.2-0.1,0.5-0.1,0.7-0.1
		c4,0,7.9,0,11.9,0c0.6,0,1.1,0.1,1.4,0.7c0.4,0.9-0.2,1.7-1.2,1.7C71.1,42.1,69,42.1,67,42.1z"/>
</g>
</svg>
