<?xml version="1.0" encoding="utf-8"?>
<!-- Generator: Adobe Illustrator 21.0.0, SVG Export Plug-In . SVG Version: 6.00 Build 0)  -->
<svg version="1.1" id="Layer_1" xmlns="http://www.w3.org/2000/svg" xmlns:xlink="http://www.w3.org/1999/xlink" x="0px" y="0px"
	 viewBox="0 0 107.5 117.4" style="enable-background:new 0 0 107.5 117.4;" xml:space="preserve">
<style type="text/css">
	.st0{opacity:0.9;}
	.st1{fill:#DA5926;}
</style>
<g>
	<g>
		<g class="st0">
			<g>
				<path class="st1" d="M51.6,24c0.6,0.5,1.3,1.5,1.7,1.4c3.7-0.9,7.3-2,11-3c1.4-13.6,12-24.8,31.5-19.9c3.7,0.9,7.5,1.6,11.7,2.5
					c-1.6,5.1-2.7,10.3-4.7,15.1c-5.1,11.7-21.9,15.4-33.1,7.6c-5.2-3.6-14.9-3.2-19,1.2c-1.2,1.3-0.9,3.9-1.5,6.8
					c4.4-0.7,7.6-1.3,10.9-1.7c3.6-0.5,7.2-1.2,10.9-1.3c17.4-0.4,28.3,10.1,28.4,27.5c0.1,17.9-5.9,33.7-17.7,47.3
					c-8.5,9.8-19.3,11.1-31.2,9.1c-3.9-0.7-8.1-0.5-12.1-0.1c-7.6,0.7-13.9-2-18.8-7.3C5.5,94.2-1.7,76.4,0.3,55.5
					c0.8-8.4,4.6-15.7,11.3-21.1c7.5-6,15.8-6.5,24.5-2.6c3.3,1.4,6.6,2.7,11.6,4.7C43.4,29.1,49.2,27.4,51.6,24L51.6,24z
					 M21.8,98.2C12.5,86.7,8.4,72.5,10.4,57.9c1.9-13.7,6.2-17.6,19.7-18c-7.7-3.5-15.4-0.9-19.4,7.2C5.3,58,6.3,69.4,9.6,80.6
					C11.7,87.8,15,94.3,21.8,98.2z"/>
			</g>
		</g>
		<g class="st0">
			<path class="st1" d="M51.7,24.2c-7-11.7-5.9-15.5,7.1-24.2c7.8,9,7,18.1-2.1,22c-1.7,0.7-3.5,1.4-5.2,2.1
				C51.6,24,51.7,24.2,51.7,24.2z"/>
		</g>
	</g>
</g>
</svg>
