<?xml version="1.0" encoding="utf-8"?>
<!-- Generator: Adobe Illustrator 21.0.0, SVG Export Plug-In . SVG Version: 6.00 Build 0)  -->
<svg version="1.1" id="Layer_1" xmlns="http://www.w3.org/2000/svg" xmlns:xlink="http://www.w3.org/1999/xlink" x="0px" y="0px"
	 viewBox="0 0 106 106" style="enable-background:new 0 0 106 106;" xml:space="preserve">
<style type="text/css">
	.st0{fill:none;stroke:#DA5926;stroke-width:4;stroke-miterlimit:10;}
	.st1{fill:#DA5926;}
</style>
<g>
	<path class="st0" d="M79.4,104h-52c-13.8,0-25-11.3-25-25V27c0-13.8,11.3-25,25-25h52c13.8,0,25,11.3,25,25v52
		C104.4,92.8,93.2,104,79.4,104z"/>
</g>
<g>
	<g>
		<path class="st1" d="M53.4,81c-7.8,0-15.6,0-23.5,0c-2.8,0-2.8,0-2.8-2.9C27,71.9,29,66.7,34.1,63c2.6-1.9,5.5-3.1,8.6-3.2
			c7.1-0.2,14.2-0.5,21.3,0.1c10,0.8,16.4,8.5,15.6,19.8c-0.1,1.1-0.8,1.3-1.7,1.3c-2.6,0-5.1,0-7.7,0C64.6,81,59,81,53.4,81z"/>
		<path class="st1" d="M53.5,26c7.9,0,14.3,6.5,14.3,14.5c-0.1,7.9-6.6,14.3-14.5,14.2c-7.8-0.1-14.2-6.5-14.2-14.4
			C39.1,32.4,45.5,26,53.5,26z"/>
	</g>
</g>
</svg>
