<?xml version="1.0" encoding="utf-8"?>
<!-- Generator: Adobe Illustrator 21.0.0, SVG Export Plug-In . SVG Version: 6.00 Build 0)  -->
<svg version="1.1" id="Layer_1" xmlns="http://www.w3.org/2000/svg" xmlns:xlink="http://www.w3.org/1999/xlink" x="0px" y="0px"
	 viewBox="0 0 106 106" style="enable-background:new 0 0 106 106;" xml:space="preserve">
<style type="text/css">
	.st0{fill:none;stroke:#DA5926;stroke-width:4;stroke-miterlimit:10;}
	.st1{fill:#DA5926;}
	.st2{fill:#FFFFFF;}
</style>
<g>
	<path class="st0" d="M79.3,104h-52c-13.8,0-25-11.3-25-25V27c0-13.8,11.3-25,25-25h52c13.8,0,25,11.3,25,25v52
		C104.3,92.8,93.1,104,79.3,104z"/>
</g>
<g>
	<path class="st1" d="M50.9,28c8,0.3,14.9,0.5,21.8,0.8c1.5,0.1,3.1,0.3,4.6,0.5c4,0.7,6.4,3.5,7.2,8.3c1.1,7.5,1.2,15,0.6,22.5
		c-0.1,1.7-0.3,3.3-0.5,4.9c-0.8,5.9-3.6,8.7-9.5,9c-8.4,0.4-16.9,0.7-25.4,0.8c-6.1,0.1-12.2-0.3-18.3-0.5
		c-1.6-0.1-3.1-0.3-4.7-0.6c-4-0.8-6.4-3.6-7.1-8.3c-1.1-7.5-1.2-15-0.6-22.5c0.1-1.7,0.3-3.3,0.5-4.9c0.8-5.8,3.6-8.6,9.5-9
		C36.6,28.5,44.2,28.3,50.9,28z M45.2,61.6c5.9-3.4,11.7-6.7,17.6-10.1c-6-3.4-11.7-6.7-17.6-10.1C45.2,48.3,45.2,54.8,45.2,61.6z"
		/>
	<path class="st2" d="M45.2,61.6c0-6.8,0-13.4,0-20.2c5.9,3.4,11.6,6.6,17.6,10.1C56.9,54.9,51.1,58.2,45.2,61.6z"/>
</g>
</svg>
