<?xml version="1.0" encoding="utf-8"?>
<!-- Generator: Adobe Illustrator 21.0.0, SVG Export Plug-In . SVG Version: 6.00 Build 0)  -->
<svg version="1.1" id="Layer_1" xmlns="http://www.w3.org/2000/svg" xmlns:xlink="http://www.w3.org/1999/xlink" x="0px" y="0px"
	 viewBox="0 0 155.7 128" style="enable-background:new 0 0 155.7 128;" xml:space="preserve">
<style type="text/css">
	.st0{opacity:0.9;}
	.st1{fill:#DA5926;}
	.st2{fill:#FFFFFF;}
</style>
<g>
	<g class="st0">
		<g>
			<path class="st1" d="M55,28c17.3,0,34.5,0,51.8,0c3.2,0,3.2,0,3.2,3.2c0,27.8,0,55.7,0,83.5c0,7.4-4.7,12.1-12.1,12.1
				c-28.6,0-57.3,0-85.9,0c-7.1,0-11.9-4.8-11.9-11.9c0-28.1,0-56.2-0.1-84.4c0-2.2,0.6-2.7,2.8-2.7C20.2,28,37.6,28,55,28z
				 M94.3,71.4c0-21.9-17.6-39.3-39.6-39.3c-21.6,0-39,17.7-39,39.6c-0.1,20.7,16.5,39.2,39.3,39.2C78.2,110.9,94.5,92,94.3,71.4z"
				/>
			<path class="st1" d="M55,24.5c-17.3,0-34.5,0-51.8,0c-3.2,0-3.2,0-3.2-3.2c0-3,0-6,0-8.9C0,4.8,4.8,0,12.5,0c5.6,0,11.2,0,16.7,0
				c22.7,0,45.4,0,68.1,0c5.5,0,9.6,2.2,11.9,7.4c0.6,1.3,0.8,2.7,0.8,4.1c0,3.3,0,6.7,0,10c0,3-0.1,3-3,3c-12.6,0-25.1,0-37.7,0
				C64.5,24.5,59.8,24.5,55,24.5z M97.3,17.7c2.7,0,5-2.3,4.9-5S99.7,7.6,97,7.6s-4.9,2.4-4.9,5.3C92.2,15.7,94.4,17.8,97.3,17.7z
				 M68.3,17.7c2.9,0,5.1-2.4,5-5.2c-0.1-2.5-2.5-4.9-4.9-4.9c-2.7,0-5.2,2.4-5.2,5.1C63.2,15.6,65.4,17.8,68.3,17.7z M82.7,17.7
				c2.8,0,4.9-2.1,4.9-4.9c0-2.9-2.2-5.2-5-5.1c-2.8,0-5.1,2.5-5,5.2C77.7,15.5,80.1,17.7,82.7,17.7z"/>
			<path class="st1" d="M54.5,108.5C34.7,109,17.2,91.4,17.7,70.7c0.5-20.1,16.9-36.5,37.5-36.4c20.3,0.1,37,17,36.8,37.7
				C91.9,92.2,75,109.2,54.5,108.5z M54.8,40.6C38.1,40.5,23.7,54,23.9,71.9c0.2,17.4,14,30.6,31,30.6c18.5,0,31-15.3,31-30.9
				C85.9,54.1,71.2,40.2,54.8,40.6z"/>
			<path class="st1" d="M54.6,101.4c-14,0-26-9.6-29-23.2c-0.5-2.3-0.3-2.5,2-1.9c6.7,1.8,13.8-1,17.4-6.9c0.8-1.3,1.5-1.9,3.1-1.1
				c4.2,2,8.6,2.7,13.2,1.6c1-0.3,1.8,0,2.6,0.7c4.2,3.7,9.4,2.9,12.3-2c0.7-1.2,1.3-1.4,2.5-0.9c1.3,0.6,2.7,1,4.1,1
				c1.9,0,2.2,1.2,2.1,2.7c-0.2,7.3-2.3,13.9-7.2,19.5C71.7,97.9,64,101.5,54.6,101.4z"/>
			<path class="st1" d="M36.3,69.4c0,2.2-2,4.1-4.2,4.1c-2.2-0.1-3.9-1.9-3.9-4.1c0-2.3,1.8-4.2,4-4.2
				C34.3,65.2,36.3,67.3,36.3,69.4z"/>
			<path class="st1" d="M69.7,70.5c-1.4,0-2.9-1.4-2.9-2.8c0.1-1.6,1-2.6,2.6-2.8c1.4-0.2,2.9,1.3,3,2.7
				C72.5,69,71.1,70.4,69.7,70.5z"/>
			<path class="st1" d="M37.2,59.1c-0.1,1.6-1,2.6-2.8,2.5c-1.7,0-2.6-1-2.6-2.7c0-1.6,0.9-2.7,2.5-2.8
				C35.8,56.1,37.2,57.4,37.2,59.1z"/>
		</g>
	</g>
	<g>
		<path d="M155,58.7c-1.1-0.8-2.3-1.6-3.4-2.5c-0.6-0.5-1-1.3-1.5-2c-2.5-3.3-5-6.6-8.2-9.2c-1.7-1.4-3.6-2.6-5.6-3.5
			c-3-1.4-6.1-2.4-9.2-3.6c-0.8-0.3-1.6-0.5-2.2,0.8c-2.1-1.5-4.1-2.8-6.1-4.3c-0.6-0.5-1.1-1.3-1.4-2c-0.9-2.3-2.5-3.8-4.9-4.4
			c-0.6-0.2-0.8-0.4-0.7-1c0-0.4,0-0.7,0-1.1c0.1-0.8-0.2-1.3-1-1.7c-0.7-0.4-1.2-1-1.6-1.7c-0.7-1.4-0.4-2.6,0.7-3.2
			c0.4-0.2,0.7-0.3,1.1-0.4l0,0c0.3-0.4,0.6-0.8,0.9-1.3c-0.6-0.1-1.3,0-2,0.2c-1.3,0.5-2.2,1.4-2.4,2.8c-0.2,1.8,0.7,3.3,2.1,4.4
			c0.6,0.5,1,1.8,0.7,2.5c-0.1,0.2-0.4,0.3-0.6,0.3c-2.4,0.7-4.2,2.1-5,4.5c-0.5,1.5-1.6,2.4-2.8,3.2c-1.9,1.2-4,2.3-6,3.4
			c-0.2,0.1-0.7,0-1-0.1c-0.5-0.1-1.1-0.4-1.4-0.2c-4.1,1.9-8.3,3.8-12.3,5.8c-3.3,1.6-4.9,4.7-6.5,7.7c-0.2,0.5-0.5,0.9-0.7,1.4
			c-0.4,0.9-0.9,1.7-1.5,2.4c-0.4,0.4-0.8,0.8-1.3,1.2c-1.6,1.1-2.9,2.5-4.4,3.7c-0.7,0.6-0.3,1.2,0,1.6c0.6,0.8,1.1,1.6,1.6,2.5
			c0.7,1.1,1.5,2.2,2.3,3.2c2.5,3,5.2,6,7.9,8.9c0.8,0.9,1.8,1.6,2.6,2.5c0.3,0.3,0.5,0.8,0.5,1.2c0,12.2,0,24.4,0,36.7v9.1
			c4.4-0.1,8.9-0.4,13.3-0.4c7.9,0,15.8,0,23.7,0.4c5.8,0.2,11.6,1,17.4,1.5c1,0.1,2,0,3-0.1c0.8-0.1,1.3-0.6,1.2-1.5
			c-0.2-6.5-0.5-13-0.6-19.5c-0.1-8.6,0-17.1,0.1-25.7c0-0.9,0.3-1.6,1.1-2.3c4.6-4.2,8.9-8.6,12.3-13.9c0.9-1.4,1.4-3,2.1-4.6
			C156,59.9,155.7,59.2,155,58.7z M116.2,31.6c-4.3-3.2-6-3.3-9.6-0.3C108.8,27.7,114.2,27.9,116.2,31.6z M110.9,33.5
			c0.2-0.1,0.7,0,1.1,0.2c1.6,0.9,3.2,1.8,4.8,2.7c2.2,1.2,4.5,2.5,6.7,3.7c-4.9,5.3-20.1,5.7-25.6,0.7
			C102.2,38.3,106.5,35.9,110.9,33.5z M95.7,41.8c1.2,0.7,2.5,1.3,3.7,1.9c0-0.1,0.1-0.1,0.1-0.2c-1.1-0.6-2.1-1.2-3.1-1.8
			c0-0.1,0.1-0.2,0.1-0.3c0.3,0.1,0.6,0.1,0.9,0.2c1.3,0.5,2.5,1.2,3.8,1.7c7.8,2.6,15.4,2.8,22.6-2.2c0.3-0.2,0.8-0.1,1.2-0.2
			c0,0.4,0.2,0.8,0.1,1.2s-0.3,0.7-0.6,1c-1.9,1.8-4.2,3-6.7,3.7c-6.3,1.7-12.3,0.8-18.1-1.9c-1.5-0.7-2.8-1.6-4.2-2.5
			C95.6,42.1,95.6,41.9,95.7,41.8z M96.1,43.7c0.1-0.1,0.1-0.2,0.2-0.3c4,2.3,8.2,3.9,12.9,4.2c-0.1,1.8-0.2,3.4-0.2,5.1
			c-0.1,1.1,0.5,1.6,1.4,1.6c0.8,0,1.5,0,2.3-0.1c0.6-0.1,0.9-0.4,0.9-1.2c-0.1-1.8,0-3.5,0.1-5.3c4.1-0.2,7.7-1.6,11-4
			c-0.7,2.5-1.7,4.5-3,6.4c-3.4,5-9,6.9-14.7,5.1c-3.9-1.3-6.6-4.1-8.8-7.5c-0.6-1-1.1-2-1.6-3c0.1,0,0.1-0.1,0.2-0.1
			c0.8,0.4,1.5,0.8,2.3,1.3c0,0,0-0.1,0.1-0.2C98.1,45.1,97.1,44.4,96.1,43.7z M109.9,50.5c0.1-0.9,0.2-1.8,0.3-2.6h2.1v2.6h0.1
			c0.1-0.8,0.2-1.7,0.3-2.5c0.1,0,0.2,0,0.3,0v6c-1,0-2,0.1-3,0c-0.3,0-0.8-0.6-0.8-0.9c0-1.4,0.2-2.7,0.3-4c0.1,0,0.2,0,0.3,0
			L109.9,50.5C109.9,50.5,109.9,50.5,109.9,50.5z M92.6,40.5c0.1,0,0.1,0,0.2,0c0.7,2.1,1.5,4.1,2.3,6.2c0.1,0,0.2-0.1,0.3-0.1
			c-0.1-0.3-0.2-0.6-0.3-1c-0.5-1.5-1-3.1-1.6-4.6c-0.2-0.7,0-1,0.5-1c1.3,2.7,2.4,5.3,3.8,7.8c1.8,3.2,4.3,5.9,7.9,7.3
			c4.9,2,9.5,1.6,13.6-1.8c2.7-2.3,4.4-5.3,5.5-8.6c0.6-1.8,1.1-3.7,1.7-5.6c0.5,0.1,1,0.3,1.5,0.4c-0.3,4.2-2.9,10.8-6.2,14.5
			c-5.4,6.1-14.9,6.3-20.7,1.6c-4.6-3.7-7.2-8.7-8.5-14.4C92.5,40.9,92.6,40.7,92.6,40.5z M81.7,78.6c-4.4-4-8-8.6-11.7-13.3
			c0.1-0.1,0.2-0.2,0.3-0.3c3.9,4.4,7.8,8.9,11.7,13.3C82,78.4,81.8,78.5,81.7,78.6z M82.4,77.7c-4.3-4.7-8.5-9.4-12.9-14.2
			c-0.5-0.6-1.1-1.2-1.7-1.8c1.2-1.1,2.4-2.1,3.6-3.1l0.2,0.2c3.7,3.7,6.7,7.7,9.3,11.9C82.3,72.9,82.7,75.2,82.4,77.7z M141.5,77.9
			c-0.1-0.1-0.3-0.2-0.4-0.3c4.2-5,8.4-10,12.5-15c0.1,0.1,0.2,0.2,0.3,0.2C150.8,68.7,146.6,73.7,141.5,77.9z M154,61.1
			c-1.2,1.5-2.3,3.1-3.6,4.6c-2.1,2.6-4.3,5.1-6.4,7.7c-1.3,1.6-2.6,3.2-3.9,4.8c0-2.2,0-4.4,0-6.6c0-0.1,0.1-0.3,0.1-0.4
			c0.8-1.3,1.6-2.7,2.5-3.9c1-1.4,2.1-2.7,3.2-4.1c-1.2,1.3-2.4,2.6-3.5,4c-0.8,0.9-1.4,1.9-2.1,2.9c-0.1-0.1-0.2-0.1-0.3-0.2
			c0.4-0.9,0.8-1.8,1.2-2.6c0,0-0.1,0-0.2-0.1c-0.2,0.3-0.4,0.6-0.7,1c0-1.4,0.1-2.8,0-4.1c-0.2-2.3,0.7-4.5,0.3-6.8
			c-0.2-1,0-2.2,0.1-3.3c0-1,0-2,0-3c-1.3,14.1-1.4,28.2-1.7,42.3c-0.7-0.8-1.3-1.7-2-2.6c0.4,0.9,0.9,1.7,1.5,2.4
			c0.7,0.8,0.8,1.7,0.6,2.8c-0.3-0.2-0.5-0.3-0.5-0.4c0.2,0.8,0.6,1.5,0.6,2.3c0,4.8,0,9.6,0,14.4v8.6c-0.6-1.1-1.1-2.1-1.6-3
			c0.3,1.8,1.9,3.1,1.8,5.3c-0.6-0.9-1.2-1.7-1.6-2.4c0,0-0.1,0-0.1,0.1c0.5,0.9,1,1.8,1.5,2.7c0.7,1.2,0.6,2.4-1.1,2.3
			c-0.5,0-1,0-1.5,0c-4.7-0.5-9.3-1.1-14-1.6c-1.9-0.2-3.9-0.3-5.8-0.5v0.2c7.6,0.9,15.3,1.8,23.1,2.7c-0.4,0.2-0.7,0.5-1,0.5
			c-1.6,0-3.3,0-4.9-0.1c-5.8-0.4-11.6-1.2-17.4-1.3c-9.7-0.2-19.4,0-29,0.1h-4.4c-0.3-1.2,0.1-1.5,1.1-1.5
			c5.6-0.2,11.2-0.3,16.8-0.5c1.2,0,2.3,0,3.4,0c0-0.1,0-0.2,0-0.2H82.9c0.8-1.5,1.6-2.9,2.3-4.3c0,0-0.1-0.1-0.2-0.1
			c-0.6,0.9-1.1,1.9-1.8,2.9c-0.8-2.2,1.2-3.3,1.6-5c-0.5,0.7-1,1.4-1.5,2.1c-0.2-0.4-0.2-0.7-0.2-1c0-7.5,0.1-15,0-22.6
			c0-1.9,0-3.8,0.9-5.6c0.1-0.1,0-0.3,0-0.5h-0.1c-0.2,0.4-0.4,0.9-0.6,1.3C83.4,78,83,65.2,82.3,53v13.1c-0.2-0.4-0.3-0.7-0.5-1.1
			c0.3,1.6,1,3.2,0.6,5c-0.5-0.8-0.8-1.5-1.2-2.2c0,0-0.1,0-0.1,0.1c0.5,1.3,1.1,2.5,1.7,4.1c-3.6-4.8-7-9.3-10.3-13.6
			c0.7-1.1,1.5-2.1,2.1-3.2c0.6-1.1,1-2.3,1.7-3.4c1.1-1.7,2.2-3.7,3.7-5c3.4-3,7.7-4.2,11.8-6c0.4,1,0.7,1.8,0.9,2.7
			c2,5.6,4.8,10.6,10.2,13.7c5.8,3.3,13.9,2.8,19-2.8c3-3.3,4.7-7.1,6-11.3c0.3-1.1,0.6-2.2,0.9-3.4c1.1,0.4,2,0.7,3,1
			c3.3,1.2,6.6,2.4,9.3,4.7c1.7,1.5,3.3,3.1,4.8,4.9c2,2.3,3.8,4.7,5.8,7.1c-0.9,0.9-1.8,1.7-2.6,2.5c-1,1.1-2,2.2-3,3.3l0,0
			c0.3-0.2,0.6-0.4,0.8-0.7c1.3-1.2,2.6-2.6,3.9-3.8c1.2-1.1,2.1-1,3.2,0.1C154.6,59.6,154.7,60.2,154,61.1z M113.7,20.4
			c0.6,1.4,1.6,1.2,2.7,1.1c0.2,0,0.5-0.4,0.7-0.5c-0.2-0.2-0.5-0.7-0.7-0.7c-0.9,0.1-1.4-0.4-1.9-1.1c-0.2-0.2-0.3-0.4-0.5-0.5
			l-1.2,0.7C113.2,19.7,113.5,20,113.7,20.4z"/>
		<path class="st2" d="M146,63.2c-1.2,1.3-2.4,2.6-3.5,4c-0.8,0.9-1.4,1.9-2.1,2.9c-0.1,0-0.2-0.1-0.3-0.1c0.4-0.9,0.8-1.8,1.2-2.7
			c-0.1,0-0.1,0-0.2-0.1c-0.2,0.3-0.4,0.6-0.7,1c0-1.5,0.1-2.8,0-4.1c-0.2-2.3,0.7-4.5,0.3-6.8c-0.2-1,0.1-2.2,0.1-3.2s0-2,0-3
			c-1.3,14.1-1.4,28.2-1.7,42.3c-0.7-0.9-1.3-1.7-2-2.6c0.4,0.9,0.9,1.7,1.5,2.4c0.7,0.8,0.8,1.7,0.6,2.8c-0.3-0.2-0.4-0.3-0.5-0.4
			c0.2,0.8,0.6,1.5,0.6,2.3c0,4.8,0,9.6,0,14.4c0,2.8,0,5.6,0,8.6c-0.6-1.1-1.1-2.1-1.7-3c0.3,1.8,1.9,3.1,1.8,5.3
			c-0.6-0.9-1.1-1.7-1.6-2.4c-0.7-1.3-1.4-2.5-2-3.8c-0.1,0-0.2,0.1-0.2,0.1c0.7,1.2,1.5,2.5,2.2,3.7c0.5,0.9,1,1.8,1.5,2.7
			c0.7,1.2,0.6,2.4-1.1,2.3c-0.5,0-1,0-1.5,0c-4.7-0.5-9.3-1.1-14-1.6c-1.9-0.2-3.9-0.3-5.8-0.5c0,0.1,0,0.1,0,0.2
			c7.6,0.9,15.3,1.8,23.2,2.7c-0.4,0.2-0.7,0.5-1,0.5c-1.6,0-3.3,0-4.9-0.1c-5.8-0.4-11.6-1.2-17.4-1.3c-9.7-0.2-19.4,0-29,0.1
			c-1.5,0-2.9,0-4.4,0c-0.4-1.1,0.1-1.5,1.1-1.5c5.6-0.1,11.2-0.3,16.8-0.5c1.1,0,2.3,0,3.4,0c0-0.1,0-0.1,0-0.2
			c-7.1,0-14.2,0-21.6,0c0.8-1.5,1.6-2.9,2.3-4.3c-0.1,0-0.1-0.1-0.2-0.1c-0.6,0.9-1.1,1.9-1.8,2.9c-0.8-2.2,1.2-3.3,1.6-5
			c-0.5,0.7-1,1.4-1.5,2.1c-0.2-0.4-0.2-0.7-0.2-1c0-7.5,0.1-15,0-22.6c0-1.9,0-3.8,0.9-5.6c0.1-0.1,0-0.3,0.1-0.5h-0.1
			c-0.2,0.4-0.4,0.9-0.6,1.3C83.7,78,83.3,65.2,82.5,53c0,4,0,8.5,0,13c-0.2-0.4-0.3-0.7-0.5-1.1c0.3,1.6,1,3.2,0.6,5
			c-0.5-0.8-0.8-1.5-1.2-2.2c0,0-0.1,0-0.1,0.1c0.5,1.3,1.1,2.5,1.7,4.1c-3.6-4.8-7-9.3-10.3-13.6c0.8-1.1,1.5-2.1,2.2-3.2
			c0.6-1.1,1-2.3,1.7-3.4c1.1-1.7,2.2-3.7,3.7-5c3.4-2.9,7.7-4.2,11.8-6c0.3,1,0.6,1.8,1,2.7c2,5.6,4.8,10.6,10.2,13.7
			c5.8,3.3,13.9,2.8,19-2.8c3-3.3,4.7-7.1,6-11.3c0.3-1.1,0.6-2.2,0.9-3.4c1.1,0.4,2,0.7,3,1c3.3,1.2,6.6,2.4,9.3,4.7
			c1.7,1.5,3.3,3.2,4.8,4.9c2,2.3,3.8,4.7,5.8,7.1c-0.9,0.9-1.8,1.7-2.6,2.5C148,61,147,62.1,146,63.2L146,63.2z M115.9,123.9
			L115.9,123.9c-3.7-0.1-7.3-0.1-11-0.1v0.1C108.6,123.9,112.3,123.9,115.9,123.9z"/>
		<path class="st2" d="M113.6,47.7c0,1.8-0.1,3.6-0.1,5.3c0,0.8-0.2,1.1-0.9,1.2c-0.7,0.1-1.5,0.1-2.3,0.1c-1,0-1.5-0.5-1.5-1.6
			c0.1-1.7,0.2-3.3,0.3-5.1c-4.7-0.4-8.9-2-12.9-4.2c-0.1,0.1-0.1,0.2-0.2,0.3c1,0.7,2,1.4,3,2c0,0.1-0.1,0.1-0.1,0.2
			c-0.8-0.4-1.5-0.8-2.3-1.3c-0.1,0-0.1,0.1-0.2,0.1c0.5,1,1,2.1,1.6,3c2.1,3.4,4.8,6.2,8.8,7.5c5.7,1.9,11.3-0.1,14.7-5.1
			c1.3-1.9,2.3-4,3-6.4C121.2,46.1,117.7,47.5,113.6,47.7z"/>
		<path class="st2" d="M128,39.4c-0.5-0.1-1-0.3-1.5-0.4c-0.6,1.9-1.1,3.8-1.7,5.6c-1.1,3.3-2.8,6.4-5.5,8.7
			c-4.1,3.4-8.8,3.8-13.6,1.8c-3.5-1.4-6-4.1-7.9-7.3c-1.4-2.5-2.5-5.1-3.8-7.8c-0.5,0-0.8,0.3-0.5,1c0.5,1.5,1,3.1,1.6,4.6
			c0.1,0.3,0.2,0.6,0.3,1c-0.1,0-0.2,0.1-0.3,0.1c-0.7-2.1-1.5-4.1-2.2-6.2c-0.1,0-0.1,0-0.2,0c0,0.2-0.1,0.4,0,0.6
			c1.3,5.7,3.9,10.7,8.5,14.4c5.8,4.7,15.3,4.5,20.7-1.6C125.1,50.2,127.7,43.7,128,39.4z"/>
		<path class="st2" d="M146,63.2c-1.1,1.4-2.2,2.7-3.2,4.1c-0.9,1.3-1.7,2.6-2.5,3.9c-0.1,0.1-0.2,0.3-0.2,0.4c0,2.2,0,4.4,0,6.6
			c1.3-1.6,2.5-3.2,3.9-4.8c2.1-2.6,4.3-5.1,6.4-7.7c1.2-1.5,2.3-3.1,3.6-4.6c0.7-0.8,0.5-1.4-0.2-2.1c-1.1-1.2-2-1.2-3.2-0.1
			c-1.3,1.2-2.6,2.5-3.9,3.8C146.6,62.8,146.3,63,146,63.2L146,63.2z"/>
		<path class="st2" d="M82.4,77.7c0.3-2.5,0-4.8-1.4-7c-2.7-4.4-5.8-8.4-9.5-12.1c-1.2,1-2.4,2.1-3.6,3.1
			C72.8,67.1,77.6,72.4,82.4,77.7z"/>
		<path class="st2" d="M96.4,41.7c1,0.6,2.1,1.2,3.1,1.8c0,0.1-0.1,0.1-0.1,0.2c-1.2-0.6-2.5-1.3-3.7-1.9c-0.1,0.2-0.2,0.3-0.3,0.5
			c1.4,0.8,2.7,1.8,4.2,2.5c5.8,2.7,11.8,3.6,18.1,1.9c2.5-0.7,4.8-1.8,6.7-3.7c0.3-0.3,0.5-0.6,0.6-1s-0.1-0.8-0.1-1.2
			c-0.4,0.1-0.9,0-1.2,0.2c-7.1,5-14.7,4.8-22.6,2.2c-1.3-0.4-2.5-1.1-3.8-1.7c-0.3-0.1-0.6-0.1-0.9-0.2
			C96.4,41.5,96.4,41.6,96.4,41.7z"/>
		<path class="st2" d="M141.5,78c5.1-4.3,9.3-9.2,12.4-15.1c-0.1-0.1-0.2-0.2-0.3-0.2c-4.2,5-8.4,10-12.5,15
			C141.2,77.7,141.4,77.8,141.5,78z"/>
		<path class="st2" d="M109.8,50.5c0-0.5,0-1,0-1.5c-0.1,0-0.2,0-0.3,0c-0.1,1.3-0.3,2.7-0.3,4c0,0.3,0.5,0.9,0.8,0.9c1,0.1,2,0,3,0
			c0-2.2,0-4.1,0-6c-0.1,0-0.2,0-0.3,0c-0.1,0.8-0.2,1.7-0.3,2.5h-0.1c0-0.8,0-1.6,0-2.6c-0.7,0-1.4,0-2.1,0
			C110.1,48.6,110,49.5,109.8,50.5C109.9,50.5,109.9,50.5,109.8,50.5z"/>
		<path class="st2" d="M82.1,78.3c-3.9-4.4-7.8-8.8-11.7-13.3c-0.1,0.1-0.2,0.2-0.3,0.3c3.6,4.7,7.3,9.3,11.6,13.3
			C81.8,78.5,82,78.4,82.1,78.3z"/>
		<path class="st2" d="M106.6,31.2c3.6-2.9,5.3-2.9,9.6,0.3C114.2,27.9,108.8,27.7,106.6,31.2z"/>
		<path d="M105,123.9c3.6,0,7.3,0,10.9,0v-0.1c-3.7,0-7.3,0-11,0C105,123.8,105,123.8,105,123.9z"/>
		<path d="M137.6,120.9c-0.7-1.3-1.4-2.5-2-3.8c-0.1,0-0.2,0.1-0.2,0.1C136.1,118.5,136.8,119.7,137.6,120.9L137.6,120.9z"/>
	</g>
</g>
</svg>
