<?xml version="1.0" encoding="utf-8"?>
<!-- Generator: Adobe Illustrator 21.0.0, SVG Export Plug-In . SVG Version: 6.00 Build 0)  -->
<svg version="1.1" id="Layer_1" xmlns="http://www.w3.org/2000/svg" xmlns:xlink="http://www.w3.org/1999/xlink" x="0px" y="0px"
	 viewBox="0 0 122 128.6" style="enable-background:new 0 0 122 128.6;" xml:space="preserve">
<style type="text/css">
	.st0{opacity:0.9;}
	.st1{fill:#DA5926;}
</style>
<g class="st0">
	<g>
		<path class="st1" d="M116,62.3c0,3.6,0,7.2,0,10.9c-1.4,0-2.8,0-4.3,0c0.1,1.2,0.2,2.2,0.3,3.2c0.6,10.1-3.1,18.8-9.5,26.4
			c-5.8,6.9-13,12.3-21,16.4c-2.6,1.4-4,2.8-3.4,5.8c0.1,0.7,0,1.4,0,2.1c-11.4,0-22.7,0-34.2,0c0-0.9-0.1-1.8,0-2.6
			c0.5-2.6-0.6-3.9-3-5.1c-7-3.5-13.4-8.2-18.8-13.9c-5.5-5.8-9.8-12.3-11.4-20.3c-0.7-3.5-0.9-7-0.5-10.6c0-0.4,0.1-0.9,0.1-1.4
			c-1.5,0-2.8,0-4.3,0c0-3.7,0-7.3,0-10.9C42.6,62.3,79.2,62.3,116,62.3z M47,111.3c-0.6-0.5-1.1-1.1-1.7-1.6
			c-5.4-5.4-10.9-10.7-15.5-16.8c-3.4-4.5-6.2-9.3-7.9-14.7c-0.5-1.5-0.8-3.1-1.1-4.7c-0.5,1.4-0.9,2.8-1,4.2
			c-0.4,6,1.5,11.3,4.6,16.3c3.2,5,7.4,9.1,12.3,12.4C39.9,108.6,43.2,110.4,47,111.3z"/>
		<path class="st1" d="M74.8,54.5c0.2-2.8,0.4-5.7,0.4-8.5c0-1.8-0.2-3.6-0.6-5.3c-0.3-1.2-0.8-2.4-1.5-3.3
			c-4.6-5.3-4.7-11.1-2.2-17.1c0.8-2,2.1-3.8,3.1-5.7c0.1,0.1,0.3,0.1,0.4,0.2c-0.1,1.8-0.3,3.7-0.4,5.5c-0.2,3.3-0.3,6.6,0.9,9.8
			c0.3,0.8,0.7,1.6,1.2,2.2c4.5,5.1,4.5,10.8,2.1,16.7c-0.8,2-2.1,3.8-3.1,5.7C75.1,54.6,74.9,54.5,74.8,54.5z"/>
		<path class="st1" d="M59.4,2.2C59.2,5,59,7.8,58.9,10.6c0,1.4,0.1,2.9,0.3,4.3c0.3,2.1,1.1,4,2.5,5.6c4.2,5.1,3.8,10.6,1.4,16.2
			c-0.8,1.9-2,3.6-3,5.4c-0.1,0-0.3-0.1-0.4-0.1c0.1-1.8,0.3-3.7,0.4-5.5c0.2-3.2,0.3-6.5-0.9-9.5c-0.3-0.8-0.6-1.5-1.2-2.1
			c-4.7-5.2-4.6-11.1-2.2-17.1c0.8-2,2.1-3.8,3.1-5.7C59.2,2.1,59.3,2.1,59.4,2.2z"/>
		<path class="st1" d="M47.2,16c-0.2,2.8-0.4,5.7-0.4,8.5c0,1.4,0,2.9,0.3,4.3c0.4,1.7,0.9,3.5,1.9,4.8c4.6,5.4,4.4,11.2,1.7,17.3
			c-0.8,1.8-1.9,3.4-2.8,5c-0.1-0.1-0.3-0.1-0.4-0.2c0.1-1.6,0.3-3.3,0.4-4.9c0.2-3.4,0.4-6.9-0.9-10.1c-0.3-0.7-0.7-1.5-1.2-2.1
			c-4.7-5.3-4.6-11.2-2-17.2c0.8-1.9,2-3.7,3-5.5C47,15.8,47.1,15.9,47.2,16z"/>
	</g>
</g>
</svg>
