<?xml version="1.0" encoding="utf-8"?>
<!-- Generator: Adobe Illustrator 21.0.0, SVG Export Plug-In . SVG Version: 6.00 Build 0)  -->
<svg version="1.1" id="Layer_1" xmlns="http://www.w3.org/2000/svg" xmlns:xlink="http://www.w3.org/1999/xlink" x="0px" y="0px"
	 viewBox="0 0 106 106" style="enable-background:new 0 0 106 106;" xml:space="preserve">
<style type="text/css">
	.st0{fill:none;stroke:#DA5926;stroke-width:4;stroke-miterlimit:10;}
	.st1{fill:#DA5926;}
</style>
<g>
	<path class="st0" d="M79,104H27C13.2,104,2,92.7,2,79V27C2,13.2,13.3,2,27,2h52c13.8,0,25,11.3,25,25v52C104,92.8,92.7,104,79,104z
		"/>
</g>
<g>
	<path class="st1" d="M29.9,90.7c-0.5-0.1-1-0.2-1.5-0.4c-2.1-0.8-3.5-2.9-3.6-5.2c0-1,0-2.1,0-3.1c0-18.7,0-37.4,0-56.2
		c0-2.1,0.8-3.8,2.6-4.9c0.9-0.6,1.9-0.9,3-0.9c3.4,0,6.8,0,10.1,0c1.6,0,2.7,1.4,2.1,3c-0.3,1-1.1,1.2-2,1.3c-0.5,0.1-1.1,0-1.7,0
		c-2.3,0-4.7,0-7,0c-1.9,0-3.1,1.2-3.1,3c0,18.8,0,37.5,0,56.3c0,1.8,1.2,3,3,3c14,0,27.9,0,41.9,0c1.9,0,3-1.2,3-3
		c0-18.7,0-37.5,0-56.2c0-1.9-1.2-3-3-3c-2.8,0-5.5,0-8.3,0c-0.4,0-0.7,0-1.1-0.2c-1.1-0.3-1.6-1.1-1.5-2.3c0.1-1,0.7-1.7,1.7-2
		c0.2-0.1,0.5-0.1,0.8-0.1c3.3,0,6.5,0,9.8,0s5.8,2.5,5.8,5.8c0,10.2,0,20.5,0,30.7c0,9.5,0,19,0,28.4c0,2.6-1.6,4.8-4,5.5
		c-0.4,0.1-0.7,0.2-1.1,0.3C60.6,90.7,45.3,90.7,29.9,90.7z"/>
	<path class="st1" d="M52.9,34.6c4.4,0,8.8,0,13.2,0c1.2,0,2.2,0.9,2.3,2.1c0.1,1.2-0.9,2.3-2.1,2.3c-0.1,0-0.2,0-0.3,0
		c-8.8,0-17.5,0-26.3,0c-1.1,0-1.9-0.5-2.2-1.4c-0.6-1.5,0.4-3,2.1-3c3.8,0,7.5,0,11.3,0C51.5,34.6,52.2,34.6,52.9,34.6z"/>
	<path class="st1" d="M52.9,72.1c-4.4,0-8.8,0-13.2,0c-1.2,0-2.1-0.8-2.3-1.9c-0.2-1.1,0.7-2.2,1.8-2.4c0.2,0,0.4,0,0.6,0
		c8.8,0,17.5,0,26.3,0c1.4,0,2.4,0.9,2.4,2.1c0,1.2-0.9,2.2-2.2,2.2c-3,0-6.1,0-9.1,0C55.7,72.1,54.3,72.1,52.9,72.1z"/>
	<path class="st1" d="M52.9,51.3c4.4,0,8.8,0,13.2,0c1.2,0,2.1,0.7,2.3,1.8c0.2,1.2-0.7,2.4-1.9,2.5c-0.2,0-0.3,0-0.5,0
		c-8.7,0-17.5,0-26.2,0c-1.2,0-2-0.6-2.3-1.6c-0.4-1.3,0.5-2.7,1.9-2.8c0.2,0,0.5,0,0.7,0C44.3,51.3,48.6,51.3,52.9,51.3z"/>
	<path class="st1" d="M52.9,20.3c1.7,0,3.5,0,5.2,0c0.8,0,1.5,0.4,1.8,1.1c0.4,0.7,0.3,1.4-0.2,2.1c-0.4,0.6-1,0.9-1.7,0.9
		c-3.4,0-6.9,0-10.3,0c-1.2,0-2.1-0.9-2.1-2.1c0-1.1,0.9-2,2.1-2.1C49.4,20.3,51.1,20.3,52.9,20.3L52.9,20.3z"/>
</g>
</svg>
