<?xml version="1.0" encoding="utf-8"?>
<!-- Generator: Adobe Illustrator 21.0.0, SVG Export Plug-In . SVG Version: 6.00 Build 0)  -->
<svg version="1.1" id="Layer_1" xmlns="http://www.w3.org/2000/svg" xmlns:xlink="http://www.w3.org/1999/xlink" x="0px" y="0px"
	 viewBox="0 0 449.7 494.8" style="enable-background:new 0 0 449.7 494.8;" xml:space="preserve">
<style type="text/css">
	.st0{fill:#FFFFFF;}
	.st1{fill:#DA5826;}
	.st2{fill:none;}
	.st3{fill:#356732;}
	.st4{fill:#CB5022;}
</style>
<g id="Layer_4">
	<g>
		<path class="st0" d="M427.7,248.2c1.5,6.6,1.6,13.6,1.2,20.4c-0.3,4.6-0.4,10.6-2.6,14.8c-5,9.5-20,8.9-25.2,18.7
			c-2.9,5.5-2.8,11.3,2.4,14.8c3.4,2.3,7,4.4,10.4,6.8c4.3,3.2,10.6,9.1,3.5,13.1c-8.7,5.3-17.4,6-25.8,0.9c-1,0.1-2.1,0.3-3.1,0.4
			c-6.2,0.8-10.3,3.1-13.4,7.3c1-0.3,2.6,0.2,1.9,1.1c-7.9,9.2-0.4,16.2,0.7,26c1.1,10.2-6.6,18.6-14.9,23.3
			c-8.6,4.7-18.7,4.2-28.1,4.2c-3.8,0-9.3,0.2-14.6,1.2c-7.9,1.6-15.3,5.1-15.1,13.1c0.1,8,5.3,14.8,6.2,22.8
			c0.7,5.9-2.2,13-8.8,14.2c-1.3,0.2-2.5,0.2-3.7,0.1c-5.1-0.7-9.4-4.6-13-8.2c-5.3-5.4-12.8-16.8-21.1-17.9
			c1.1,11.3-1.8,22.6,0.7,33.8c0.1,0.4-0.3,0.8-0.8,0.9c1.5,9.9,7.1,21.8,0.5,31c-5.5,7.6-16.2,2.3-21.6-2.5
			c-9.5-8.4-6.9-24.9-6-35.9c0.3-3.8,1.1-8.2-1-11.8c-3-5.1-7.4-9-11.3-13.2c-3.5-3.7-12.4-19.2-19.2-15.3c-3,1.8-8.9,5.9-6.9,10
			c1,2,2.4,3.7,3.2,5.8c4,10.4-10.6,11-16.9,7.8c-14.2-7.1-22.3-20.9-33-32c-5-5.3-12.1-12.1-19.3-14.4c-4.4-1.4-5.9,2.3-7.4,5.7
			c-2.6,6.4-5.6,13-12.6,15.6c-5.3,2-16.6,3.8-20.7-1.7c-4-5.3,0.4-14,2.2-19.3c1.4-4.2,2.6-8.7,2.4-12.7c-0.4,0.4-1.1,0.7-1.8,0.4
			c-3.8-1.4-7.6-3.8-6.8-8.5c0.2-1,0.6-1.9,0.9-2.8c-0.1,0-0.2-0.1-0.3-0.1c-0.3-0.1-0.6-0.4-0.2-0.8c0.5-0.4,1.1-0.8,1.7-1.2
			c1.3-2.3,2.8-4.6,3.3-7.1c0.8-3.9-5.4-9-9-8.1c-2.3,0.6-4.4,1.7-6.5,2.8c-3.5,1.9-7.1,4-11.3,4c-8.5-0.1-11.3-9.5-8-15.9
			c4.7-9.3,15.3-13.7,20.5-22.4c4.7-7.8-0.4-19.7-4.5-26.7c-3.7-6.4-8.7-14.9-15.2-19c-4-2.4-7,1-10.9,1.9
			c-4.7,1.1-9.5,0.5-14.1-0.8c-4.6-1.3-16.4-5.6-7.8-10.9c3.6-2.2,7.6-3.6,11.7-5.1c3.6-1.2,8.5-1.9,10.9-5
			c4.1-5.3,7.1-11.4,9.8-17.5c2-4.6,5.4-11,4.8-16.2c-0.1-1.2,1.5-5.5,0.5-5.9c-2.9-1.4-6-1.8-9.2-1.5c-6,0.5-11.9,2.2-17.7,3.9
			c-8.4,2.5-20.3,7.7-29.2,4.2c-4.8-1.9-10.8-8.7-7.6-14.2c3.3-5.7,12-7,17.8-8.2c8.7-1.8,18.8-2.3,26.8-6.5
			c3.5-1.9,7.3-5.8,4.5-10.1s-8.7-4.7-12.9-7c-7.3-3.8-8.1-14.9,0.4-18.2c12.2-4.6,26.6,3.2,37.5-6.2c2.7-2.3,4.6-5.3,6.5-8.2
			c-0.1-0.8-0.2-1.5-0.1-2.4c0.2-3.8,0.8-9,3.7-11.6c3.4-3.1,15.1-7.4,9.7-14c-2.6-3.4-8.5-5.9-8.4-10.9c0.1-3,2.6-6.5,5.4-7.5
			c6.6-2.5,13.3,8.9,18.2,11.4c11.2,5.7,10.3-6.6,8.4-13.6c-3-5.8-6.8-12.2-8.6-17.7c-1.5-2.6-3-5.3-4.4-8
			c-1.8-3.3-6.4-10.7-3.7-14.5c2.9-4.1,10.9-1.4,14.4-0.1C124,54.4,126.6,62.6,130,70c4.2,4.2,8.6,8.7,14,11.1
			c1.8,0.9,3.6,1.5,5.6,1.8c2.5-0.8,4.9-2,7.4-3.1c0.8-0.3,1.5-0.8,2.3-1.1c-0.2-1-0.9-2.2-1.4-3.7c-0.3-1.2-0.7-2.5-1-3.7
			c-0.1-0.4,0.8-0.7,1-0.8c9.1-2.3,17.6-2.7,23.4-10.9c5.5-7.5,8.1-18.5,15.2-24.6c4.2-3.6,9.6-4.3,13.6,0c4.9,5.2,6.4,9.5,4.8,16.4
			c-0.4,2.2-2.1,6.3-0.9,8.6c2.2,4.3,13.1,0.2,16-1c6.9-2.8,12.8-9.3,20-10.8c6.1-1.2,17.3-0.9,21.9,3.9c4.8,4.8,10.1,6.1,15.7,1.6
			c1.6-1.3,3.6-2.5,5.8-2.7c9.9-0.8,11.6,9.3,14.5,16.6c1.9,4.9,5.5,14.4,12.5,12.6c7.9-2,9.8-7.7,10.9-14.9
			c1.2-8,2.6-18.6,12.9-19.1c6.6-0.3,16.6,1.1,14.4,10.1c-2.1,8.7-8.5,16.4-13.2,23.7c-2.8,4.6-8,10.2-8.5,15.9
			c-0.3,5.1,9,14.1,12.3,8.1c3.8-6.7,8.7-8.5,15.1-3.1c3.8,3.3,1.2,9.8-1.4,12.7c-3.2,3.6-4.6,3.5-8.2,2.6c0.1,0.3,0.1,0.6,0.1,0.9
			c1.5,9.9,9.2,8.4,16.6,5c8-3.6,15.6-8.3,23.7-11.9c5.8-2.6,12.6-5.1,19.1-3.2c5.9,1.7,9.7,8.6,7.6,14.4
			c-3.8,10.5-11.9,19.6-18.5,28.6c-4.9,6.8-25.7,28.9-10.8,35.7c10.3,4.7,21.8-5,31.9,0c6.7,3.3,6.5,15.3,0,18.4
			c-3.3,1.7-7.3,1.8-10.8,2.6c-5.7,1.4-10.6,8-7,14.1c3.2,5.4,10.7,5.7,14.1,11.2C423.5,237,426.3,242.3,427.7,248.2z"/>
		<path class="st0" d="M137.5,53.6c4.8,0.5,7.9-2.1,10.5-5.9c2.3-3.3,2.7-6.9,1.9-10.3c0.2,0.2,0.4,0.4,0.7,0.5
			c0.7,0.5,3.2,0,2.3-0.8c-6.8-5.5-5.9-14.1-8.8-21.5c-2.5-6.6-8-13.1-15.1-15.1c-14.1-4.2-14.1,17.8-11.6,25.5
			C120,34.5,126.6,52.5,137.5,53.6z"/>
		<path class="st0" d="M299.4,36c5.8,2.6,13.7,3.1,19.8,0.8c7.5-2.9,5.3-9.6,1-14.4c-0.2-0.3-0.8-0.3-1.3-0.3
			c-2.1-2-5.3-3.3-7.6-3.8c-5.4-1.3-10.8,0.5-14.6,4.5C291.6,27.9,293.3,33.1,299.4,36z"/>
		<path class="st0" d="M264.3,43.4c4.8,2.7,12.7,1.1,16.3-3.1c4.7-5.5-2.2-10.3-6.9-11.5c-0.7-0.1-2.1,0.3-2,0.8
			c-3-0.1-5.8,0.9-8,3.2C260.7,35.8,260.2,40.9,264.3,43.4z"/>
		<path class="st0" d="M420,83.4c5.5-0.4,11.2-4.3,9.1-10.4c-0.2-0.8-0.7-1.4-1-2.1l0.1,0.1c0.7,0.8,3.2,0.1,2.3-1
			c-5.8-6.7-15.6-7.9-21.4-0.4c-0.9,1.1-1.5,2.4-1.9,3.7c-0.3,0.4-0.7,1-1,1.5C402.6,82.2,415.8,83.7,420,83.4z"/>
		<path class="st0" d="M433.6,233.8c4.7,0.4,10.3-0.7,14.1-3.6c2.7-2.3,2.4-4.8,0.9-7c0.1-0.1,0.2-0.2,0.1-0.2c-1.3-1.9-3-3.2-4.8-4
			l0,0c0,0-0.1,0-0.2-0.1c-2-0.8-4.3-1-6.6-0.5c-3.6,0.8-6.4,2.7-8.2,5.7c-0.7,0.8-1.3,1.6-1.8,2.6
			C424.8,231.2,429.6,233.4,433.6,233.8z"/>
		<path class="st0" d="M425.4,413.4c-2-2.9-6.5-3.5-9.7-3.7c-0.7-0.1-1.3,0.3-1.5,0.7c-0.4,0-1,0-1.4,0.1c-3.6,0.5-5.7,3.1-7,6.3
			c-0.1,0.2,0,0.3,0.1,0.5c4.8,4.3,13.4,7.4,18.8,2.1C426.2,417.7,426.7,415.4,425.4,413.4z"/>
		<path class="st0" d="M383.5,455.5c-2.9-7.9-12-13.7-20.2-13.7c-10.5,0.1-11.5,14.2-7.3,21.3c4,6.7,13.4,7.1,20,4.8
			c6.4-2.2,8.2-7.1,6.6-12C383.1,455.9,383.6,455.6,383.5,455.5z"/>
		<path class="st0" d="M164.1,424.4c-14.6,1.3-11.6,19.2-22,25.5c-4.4,2.6-18.9,7-11.2,13.8c18.9,16.7,31.8-17.9,32.9-34.3
			c0.5-1.4,1.1-2.9,1.6-4.3C165.7,424.6,164.5,424.4,164.1,424.4z"/>
		<path class="st0" d="M67,408.5c-0.1-0.1-0.2-0.1-0.3-0.2c-0.2-0.2-0.4-0.3-0.7-0.5c-0.1,0-0.1-0.1-0.2-0.1
			c-0.2-0.2-0.5-0.3-0.8-0.5c-0.1-0.1-0.3-0.1-0.7-0.1c-0.4-0.1-0.9-0.3-1.3-0.3c-4.5-0.9-9,0.5-12.2,3.8
			c-4.7,4.9-6.8,16.5,1.5,18.9c5.9,1.8,13.2-0.9,17.5-4.9C75.5,418.8,72.1,412.6,67,408.5z"/>
		<path class="st0" d="M46.8,280.4c-1.1,0-1.4,0.9-1.1,1.4c-4.6,0.7-8.8,3.2-11.6,7.7c-0.2,0.4-0.2,1,0.2,1.2
			c9.1,4.7,19.6,5.5,26.4-3.3c0.2-0.3,0.2-0.7,0-1C57,280.9,53.2,280.1,46.8,280.4z"/>
		<path class="st0" d="M44.8,314.7c-3.3-1.6-7-1.2-10.4,0.1c0.7-0.9,1.2-1.8,1.6-2.6c0.4-1.1-2.2-1.3-2.6-0.3
			c-2.2,4.9-8.8,8.6-13,11.5c-4.8,3.5-10,6.9-14.3,11.1c-6.9,6.7,2.9,10.9,9.2,8.2c10.2-4.1,21.1-11.1,29.7-17.8
			C47.7,323,48.3,316.5,44.8,314.7z"/>
		<path class="st0" d="M57.5,103.9c4.1,2,14.7,6,15.8-1.4c0.7-4.7-3.4-7.7-8.2-9.2c-4.4-3-10.7-5.2-14.6-3
			C42.3,94.9,53.3,101.8,57.5,103.9z"/>
	</g>
	<g>
		<g>
			<path class="st1" d="M311,437c0.7,5.9-2.2,13-8.8,14.2c-1.3,0.2-2.5,0.2-3.7,0.1c-9-28-21.7-54.5-33.3-81.4
				c-4.6-10.7-10.7-20.7-16.3-31c-2.7-5-5.5-9.8-8.5-14.7c-0.2-0.4-0.4-0.7-0.6-1c0,0,0,0,0-0.1c-0.4-0.5-0.7-1.1-1-1.6
				c-0.4-0.6-0.8-1.3-1.2-1.8c-0.6-0.9-1.2-1.9-2-2.8c0,0,0,0,0-0.1c-1.6-2.3-3.4-4.5-5-6.8c-0.3-0.4-0.5-0.7-0.8-1.1
				c-2.4-3.5-4.4-7.3-7.1-10.5c-4.4-5.3-9.1-10.2-13.8-15.2c-3-3.2-6.1-6.3-9.2-9.3c-2.2-2.1-4.6-4.1-6.9-6.1
				c-0.2,0.1-0.4,0.3-0.6,0.5c0,2-0.2,4-0.1,6c0.1,2.1,0.1,4.2,0.5,6.2c1.1,4.8,2.3,9.6,3.6,14.4c0.5,1.9,1.5,3.6,2.3,5.5
				c0.7,1.7,2.5,5.2,4.8,9.1c1.5,2.5,3.1,5.2,4.7,7.7c3.2,5.1,6.5,9.6,8.2,11.3l-8.9-5.4c-2.9-2.3-5.5-4.9-8.3-7.5
				c-5.5-5.1-12.7-15.5-16.4-23.3c-0.5-1.2-1.1-2.4-1.5-3.4c-0.6-1.8-1-3.8-1.3-5.8c-0.3-2.3-0.4-4.6-0.7-6.9
				c-0.5-3.3-1-6.5-1.5-9.7c-0.4-2.8-0.5-5.5-0.8-8.4c-0.4-3.7-0.7-7.5-0.9-11.2c-0.3-5.5,0.8-10.9,5.7-15.6c3.2-3.1,6.5-6.2,10-8.9
				c3.2-2.4,6.7-4.4,10.2-6.5c2.6-1.6,5.2-3.6,8-4.7c7.1-2.7,13.9-3,20.3-0.3c4.1,1.8,8.5,3.2,12.7,4.8c9,3.4,18,6.6,26.8,10.2
				c6,2.5,11.9,5,17.4,8c3.9,2.1,7.1,5.1,10.5,7.7c6.2,4.6,9.4,11.2,11.4,18.1c1.1,3.8,1.2,8.1,1.5,12.2c0.2,2.2,0.3,4.5,0.4,6.6
				c0.1,2.5,0.4,4.8,0.4,7.3c-0.2,4.4-0.5,8.7-0.8,13.4c-2-0.7-3.1-1.5-3.4-3.5c-0.6-4.6-2.4-9.1-2.7-13.7
				c-0.4-5.6-2.7-10.5-5.1-15.3c-1.8-3.6-4.6-6.9-7.5-9.9c-2.8-2.9-6-5.6-9.6-7.8c-4.5-2.8-9.4-5.4-14.7-7.3
				c-10.5-4.1-21.2-7.6-31.7-11.5c-1.1-0.4-2.2-0.5-3.7-0.8c-0.4,3-0.8,5.7-1.1,8.4c-0.5,4.8-1.1,9.7-1.5,14.6
				c-0.3,4.3-0.2,8.5-0.2,12.7c0,1.8-0.1,3.7,0.6,5.3c2.3,4.9,6.5,8.3,11.6,11c10.5,5.2,22.9,6.9,34,11.1h0.1
				c0.5,0.2,0.9,0.4,1.4,0.5h0.1c1.2,0.5,2.3,0.9,3.5,1.3c1.1,0.5,2.1,0.8,3.2,1.3l0,0c5.2,2.2,10,4.6,14,8.1
				c7.5,6.5,14.1,13.7,16.6,23.3c1.2,4.5,2.7,8.8,3.6,13.4c0.6,2.9,0.5,6,0.6,9c0.2,2.8,0.4,5.6,0.5,8.4c0.2,2.5,0.4,5.2,0.4,7.7
				c0.1,3,0.2,6,0.3,9v7.8c0,2.4,0,4.7,0.1,7.1c0,3,0.1,6,0.1,9.1c0,0.9,0,1.9,0,2.8c-7.9,1.6-15.3,5.1-15.1,13.1
				C304.9,422.3,310.1,429.1,311,437z"/>
		</g>
		<circle class="st1" cx="170.4" cy="178" r="42.4"/>
		<path class="st0" d="M255.5,313.9c1.6-0.6,3.5-1.2,5-2.1c1.2-0.6,2-1.7,3.1-2.6c0.8-0.6,1.7-1.3,2.5-1.8c0.4-0.3,0.9-0.5,1.3-0.7
			c1.5-1,2.8-2,4.2-3c0.7-0.5,2-0.7,1.4-2.2c-0.1-0.2,0.2-0.5,0.4-0.7c0.5-1.1,1.1-2.2,1.6-3.3c0.3,0.2,0.6,0.5,1.1,0.7
			c-0.3,1.4-0.5,2.6-0.9,4.2c2.2-0.5,4.4-1,4.8,1.8c1.6-0.3,3.1-0.8,4.5-0.8c2.1,0.1,1.7,2.4,2.5,3.3c1.5,0.1,3-0.2,4.1,0.3
			c1.7,0.7,0.8,2.3,0.5,3.7c1.6,0.2,3.4-0.7,4.8,0.8c1.5,1.6,0.1,3.2,0.3,5c0.5-0.1,0.9-0.1,1.4-0.2c2.2-0.5,3.1,0.1,3.4,2.5
			c0.1,1.1,0,2.1,0,3.2c4.4,1.7,5,3.1,3,6.9c0.4,0,0.7,0,1-0.1c1.4-0.5,2.2,0.3,2.9,1.4c0.7,1.1,0.2,2-0.5,2.7
			c-0.8,0.9-1.8,1.7-2.8,2.6c0.9,0.5,1.8,0.9,2.6,1.5c1.9,1.5,1.9,3.8,0,5.3c-0.9,0.7-1.9,1.4-2.9,2c0.8,1.6,3.4,2.7,2.2,5.1
			c-0.9,1.8-2.6,2.8-5,2.5c0.2,0.5,0.3,0.7,0.5,0.9c2.1,1.5,2.2,3,0.3,4.5c-2,1.6-4.4,2.5-7.2,0.9c0.4,2.4,0.3,4.3-2.1,5.1
			c-1.9,0.6-3.7,1.2-5.2-0.2c-1.3,1.4-2.2,3.1-3.5,3.6c-2.1,0.8-2.5-1.8-3.8-3c-0.8,1.5-1.7,3.2-4,2.5c-1.8-0.6-2-2.2-2-4.3
			c-0.8,0.8-1.3,1.6-2,1.9c-1,0.4-2.3,0.6-3.3,0.3c-1.1-0.4-1.5-2.8-1-4c0.3-0.7,0.5-1.4,0.9-2.1c-0.1-0.1-0.2-0.2-0.4-0.3
			c-0.5,0.3-1.2,0.5-1.7,0.7c-1.1,0.6-2,0.3-2.5-0.8c-0.5-1.4-0.7-2.9-1.2-4.5c-1.3,0.8-2.9,1.6-4.3-0.3c-1.2-1.5-1.3-3.2-0.2-5.2
			c-1.6,0.4-3.2,1.4-4.2-0.4c-1.1-2-0.5-3.8,0.5-5.9c-0.6,0.2-1.2,0.4-1.8,0.5c-0.8,0.1-1.9,0.4-2.5,0c-0.5-0.5-0.9-1.7-0.7-2.4
			c0.5-1.5,1.5-2.8,2.2-4.3c-1.4,0-2.7-0.8-2.9-2.8c-0.2-2.2,1.1-3.3,3.2-3.7c-1.5-0.5-3-0.6-3.3-2.5c-0.2-1.7,0.6-2.7,1.9-3.5
			c-0.5-1-1.1-1.9-1.1-2.7s0.8-1.6,1.4-2.6c-0.4-0.2-1.1-0.5-1.8-0.8c0-0.1-0.1-0.3-0.1-0.4c0.5-0.1,1.2-0.2,1.7-0.5
			C253.3,315.1,254.4,314.5,255.5,313.9L255.5,313.9z"/>
		<g>
			<path d="M289.9,336.5c-10.1-0.2-18.2-4.9-25.6-11.3c4,2.4,7.9,5.1,12.2,7C280.8,334,285.4,335.1,289.9,336.5z"/>
			<path d="M294.5,344.8c-5.2-2-10.4-4-15.5-6c0.1-0.3,0.2-0.5,0.4-0.9c5.2,1.9,10.4,3.8,15.5,5.7
				C294.7,344.1,294.6,344.5,294.5,344.8z"/>
		</g>
		<path class="st2" d="M143.8,168.5c0.2,0,0.4,0,0.5,0"/>
		<path class="st3" d="M143.6,169.5"/>
		<path class="st3" d="M139.1,183.1c-1.3,5.2-1.5,10.4-1.3,15.8c0,0.5,0,1-0.3,1.5c-0.8-3.5-1.7-7.1-2.6-10.8
			c-1.5,0.6-2.7,1.3-4.4,2.1c-0.7-2.2-1.6-4.4-2.1-6.7c-3.2-15.3,0.4-28.8,11.2-40.1c3.9-4.1,8.4-7.3,13.7-9.4
			c1.2-0.5,1.5-1.1,1.6-2.2c0.3-4.6,1.7-8.9,4.6-12.6c5.7-7.4,15.3-7.4,21.1-0.1c2.8,3.5,4.3,7.7,4.6,12.2c0.1,1.5,0.7,2.3,2.2,3
			c16.3,7.7,25,20.5,25.8,38.5c0.3,5.6-0.7,11.1-2.8,16.3c-1.3-0.4-2.5-0.6-3.7-1c-0.7,3.6-1.4,7.1-2,10.5c-0.3,0-0.5,0-0.7-0.1
			c-0.1-1.4-0.3-2.7-0.4-4.1c-0.4-6.6-0.5-13.3-2.5-19.5c-0.9-2.9-2.5-5.6-3.9-8.4c-0.2-0.4-0.6-0.7-1-1.2c0.7,4.3,1.5,8.3,2.3,12.7
			c-7.2-1.7-13.7-3.7-18.8-8.9c-0.2,0.1-0.3,0.2-0.5,0.3c1.2,2.6,2.4,5.2,3.7,8c-4.8,0.5-9.3-0.3-13.4-2.6c-4.2-2.4-7-5.9-8.6-10.4
			c-0.5,3.8,0.2,7.4,1.5,10.9c-4.7-1.5-10.5-6-13-9.9c0.2-0.5,0.5-0.9,0.7-1.6c-0.7,0.1-1.2,0.3-1.6,0.2c-0.5-0.1-1.2-0.3-1.3-0.5
			c-0.2-0.5-0.2-1.4,0.2-1.6c0.3-0.3,1.2-0.3,1.6,0c0.7,0.4,1.4,1.1,2.3,1.4c-0.5-1.5-1.5-2.7-3.1-2.8c-0.7,0-1.7,0.6-2.1,1.3
			c-0.7,1.3,0,2.4,1.3,3.3L139.1,183.1z"/>
		<path class="st3" d="M141.9,166.9c-0.9,1.3-0.2,2.5,2,3.9c-0.7,1.2-1.5,2.3-2.2,3.5c-0.1-0.5-0.2-1-0.4-1.4
			c-0.5-1.1-1.2-2.2-1.8-3.5c-1.1,0.5-0.9,1.5-0.3,2.5L141.9,166.9z"/>
		<path class="st0" d="M283.8,295.5c-1.1,2.1-2.5,4.1-3.9,6.1c-2.5,3.5-5.5,6.6-9.1,9.5c-5.4,4.6-11.8,7.7-18.7,9.7
			c-0.2,0.1-0.4,0.1-0.5,0.2c-4,1.1-8,1.8-12.1,2.2c-0.4-0.5-0.6-1.1-1-1.6c-0.4-0.6-0.8-1.3-1.2-1.8c-0.6-0.9-1.3-1.9-2-2.8
			c8.4-0.6,16.1-3.4,23.3-7.8c6.5-4,12.4-8.8,17.3-14.7c0.4-0.5,0.8-1,1.2-1.5c1.2,0.5,2.4,0.9,3.5,1.4
			C281.7,294.6,282.8,295,283.8,295.5z"/>
	</g>
</g>
<g id="Layer_3">
	<path class="st0" d="M485.7,1135.6h-520c-33,0-60-27-60-60v-1.4c0-33,27-60,60-60h520c33,0,60,27,60,60v1.4
		C545.7,1108.6,518.7,1135.6,485.7,1135.6z"/>
	<g>
		<g>
			<path class="st4" d="M112.7,1056.9h11c-0.5-2-1-3.7-1.7-4.9c-0.7-1.3-1.5-2.3-2.5-3.2c-1-0.9-2.2-1.7-3.7-2.3l1.8-4.6
				c2.9,1.2,5.2,2.9,7,5.4s3.1,5.6,3.9,9.7h4.3c0.1,0,0.2,0,0.2,0.1v3.7c0,0.1-0.1,0.2-0.2,0.2h-20.3L112.7,1056.9z"/>
			<path class="st4" d="M132.6,1060.8c-0.1,0-0.2-0.1-0.2-0.2v-3.7c0-0.1,0.1-0.1,0.2-0.1h5.8v-12.4h4.9v16.3L132.6,1060.8z
				 M135.2,1069c-0.7,0-1.2-0.2-1.6-0.6s-0.6-1-0.6-1.7s0.2-1.3,0.6-1.7c0.4-0.4,0.9-0.6,1.6-0.6c0.7,0,1.2,0.2,1.6,0.6
				c0.4,0.4,0.6,1,0.6,1.8s-0.2,1.3-0.6,1.7C136.4,1068.8,135.9,1069,135.2,1069z M140.8,1069c-0.7,0-1.2-0.2-1.6-0.6
				s-0.6-1-0.6-1.7s0.2-1.3,0.6-1.7c0.4-0.4,0.9-0.6,1.6-0.6c0.7,0,1.2,0.2,1.6,0.6c0.4,0.4,0.6,1,0.6,1.7s-0.2,1.3-0.6,1.7
				S141.5,1069,140.8,1069z"/>
			<path class="st4" d="M147.5,1056.8h11c-0.5-2-1-3.7-1.7-4.9c-0.7-1.2-1.5-2.3-2.5-3.2c-1-0.9-2.2-1.7-3.7-2.3l1.8-4.6
				c2.9,1.2,5.2,2.9,7,5.4s3.1,5.6,3.9,9.7h4.3c0.1,0,0.2,0,0.2,0.1v3.7c0,0.1-0.1,0.2-0.2,0.2h-20.3L147.5,1056.8z"/>
			<path class="st4" d="M167.5,1060.8c-0.1,0-0.2-0.1-0.2-0.2v-3.7c0-0.1,0.1-0.1,0.2-0.1h13.3l0,0c-0.9-0.8-1.5-2.3-2-4.7
				c-0.3-1.5-0.7-2.5-1.3-3.1s-1.5-0.9-2.6-0.9c-0.8,0-1.5,0.1-2.2,0.3c-0.7,0.2-1.4,0.5-2.2,1l-1.5-3.6c2-1.1,4.3-1.6,6.9-1.6
				c2.2,0,3.9,0.5,5.1,1.5s2,2.6,2.4,4.9c0.6,3.3,1.3,5.4,2.3,6.3v4L167.5,1060.8z M175.5,1069c-0.7,0-1.2-0.2-1.6-0.6
				s-0.6-1-0.6-1.7s0.2-1.3,0.6-1.7c0.4-0.4,0.9-0.6,1.6-0.6s1.2,0.2,1.6,0.6s0.6,1,0.6,1.8c0,0.7-0.2,1.3-0.6,1.7
				C176.7,1068.8,176.1,1069,175.5,1069z"/>
			<path class="st4" d="M201.2,1061.7c0-1.4,0.4-2.6,1.1-3.4c0.8-0.8,1.8-1.3,3.2-1.4c-0.6-1.4-0.9-2.9-0.9-4.6c0-1,0.2-2,0.5-3.1
				s0.7-2.1,1.2-2.8c1-0.6,2.1-1,3.3-1.4c1.2-0.3,2.3-0.5,3.2-0.5c1.5,0,2.9,0.3,4.1,1s2.2,1.5,2.9,2.7c0.7,1.2,1,2.5,1,4.1
				c0,1.7-0.4,3.2-1.2,4.4c-0.8,1.3-1.9,2.3-3.2,3c-1.4,0.7-2.9,1.1-4.6,1.1h-3c-1,0-1.7,0.2-2.1,0.6s-0.6,1-0.6,2v8h-4.9V1061.7z
				 M209.1,1053c0,1.1,0.3,2.4,0.8,3.8h1.3c1.3,0,2.4-0.4,3.3-1.3s1.3-2,1.3-3.2s-0.3-2.1-0.9-2.8c-0.6-0.7-1.3-1-2.3-1
				s-2,0.3-3.1,0.9C209.3,1050.5,209.1,1051.7,209.1,1053z"/>
			<path class="st4" d="M224,1056.8h11c-0.5-2-1-3.7-1.7-4.9c-0.7-1.2-1.5-2.3-2.5-3.2s-2.2-1.7-3.7-2.3l1.8-4.6
				c2.9,1.2,5.2,2.9,7,5.4c1.8,2.4,3.1,5.6,3.9,9.7h4.3c0.1,0,0.2,0,0.2,0.1v3.7c0,0.1-0.1,0.2-0.2,0.2h-20.3L224,1056.8z"/>
			<path class="st4" d="M244,1060.8c-0.1,0-0.2-0.1-0.2-0.2v-3.7c0-0.1,0.1-0.1,0.2-0.1h13.3c-0.9-0.8-1.5-2.4-2-4.7
				c-0.3-1.5-0.7-2.5-1.3-3.1s-1.5-0.9-2.6-0.9c-0.8,0-1.5,0.1-2.2,0.3s-1.4,0.5-2.2,1l-1.5-3.6c2-1.1,4.3-1.6,6.9-1.6
				c2.2,0,3.9,0.5,5.1,1.5s2,2.6,2.4,4.9c0.6,3.3,1.3,5.4,2.3,6.3h2.1c0.1,0,0.2,0,0.2,0.1v3.7c0,0.1-0.1,0.2-0.2,0.2L244,1060.8z
				 M252.7,1041.6c-0.7,0-1.2-0.2-1.6-0.6s-0.6-1-0.6-1.7s0.2-1.3,0.6-1.7c0.4-0.4,0.9-0.6,1.6-0.6s1.2,0.2,1.6,0.6s0.6,1,0.6,1.8
				c0,0.7-0.2,1.3-0.6,1.7C253.8,1041.4,253.3,1041.6,252.7,1041.6z"/>
			<path class="st4" d="M264,1060.8c-0.1,0-0.2-0.1-0.2-0.2v-3.7c0-0.1,0.1-0.1,0.2-0.1h5.1v-12.4h4.9v12.4h5c0.1,0,0.2,0,0.2,0.1
				v3.7c0,0.1-0.1,0.2-0.2,0.2H264z M268.5,1041.6c-0.7,0-1.2-0.2-1.6-0.6s-0.6-1-0.6-1.7s0.2-1.3,0.6-1.7c0.4-0.4,0.9-0.6,1.6-0.6
				s1.2,0.2,1.6,0.6s0.6,1,0.6,1.8s-0.2,1.3-0.6,1.7C269.7,1041.4,269.1,1041.6,268.5,1041.6z M274.1,1041.6c-0.7,0-1.2-0.2-1.6-0.6
				s-0.6-1-0.6-1.7s0.2-1.3,0.6-1.7c0.4-0.4,0.9-0.6,1.6-0.6s1.2,0.2,1.6,0.6s0.6,1,0.6,1.7s-0.2,1.3-0.6,1.7
				S274.7,1041.6,274.1,1041.6z"/>
			<path class="st4" d="M313.4,1056.8c0.1,0,0.2,0,0.2,0.1v3.7c0,0.1-0.1,0.2-0.2,0.2h-11.1c-1.9,0-3.6-0.8-5.2-2.5
				c-1.2,1.7-3.1,2.5-5.5,2.5h-12.9c-0.1,0-0.2-0.1-0.2-0.2v-3.7c0-0.1,0.1-0.1,0.2-0.1h4.1v-9.8h4.9v9.8h2.8c1.1,0,1.9-0.3,2.4-0.9
				s0.8-1.6,0.8-2.9v-6h4.9v6.4c0,0.5,0,1-0.1,1.5c0.5,0.7,1.1,1.2,1.6,1.5s1.2,0.4,2.1,0.4h2v-12.4h4.9v12.4H313.4z"/>
			<path class="st4" d="M316.7,1056.8c-0.6-1.4-0.9-2.9-0.9-4.5c0-1,0.2-2,0.5-3.1s0.7-2.1,1.2-2.8c1.1-0.6,2.2-1.1,3.4-1.4
				c1.2-0.3,2.2-0.5,3.1-0.5c1.5,0,2.9,0.3,4.1,1c1.2,0.6,2.2,1.6,2.9,2.7s1,2.5,1,4.1c0,1.7-0.4,3.2-1.2,4.4
				c-0.8,1.3-1.9,2.3-3.2,3c-1.4,0.7-2.9,1.1-4.6,1.1h-10c-0.1,0-0.2-0.1-0.2-0.2v-3.7c0-0.1,0.1-0.1,0.2-0.1H316.7z M320.4,1052.9
				c0,1.1,0.3,2.4,0.8,3.8h1.2c1.3,0,2.4-0.4,3.3-1.3s1.3-2,1.3-3.2s-0.3-2.1-0.9-2.8c-0.6-0.7-1.3-1-2.3-1s-2,0.3-3.1,0.9
				C320.6,1050.4,320.4,1051.7,320.4,1052.9z"/>
		</g>
	</g>
</g>
</svg>
