<?xml version="1.0" encoding="utf-8"?>
<!-- Generator: Adobe Illustrator 19.0.0, SVG Export Plug-In . SVG Version: 6.00 Build 0)  -->
<svg version="1.1" id="Layer_1" xmlns="http://www.w3.org/2000/svg" xmlns:xlink="http://www.w3.org/1999/xlink" x="0px" y="0px"
	 viewBox="0 0 443 232" style="enable-background:new 0 0 443 232;" xml:space="preserve">
<style type="text/css">
	.st0{fill:#376833;}
	.st1{enable-background:new    ;}
	.st2{font-family:'ArialMT';}
	.st3{font-size:17.7139px;}
	.st4{font-size:32.4824px;}
	.st5{fill:#DA5927;}
	.st6{fill:none;stroke:#376833;stroke-width:4;stroke-miterlimit:10;}
	.st7{fill:none;stroke:#DA5927;stroke-width:9;stroke-miterlimit:10;}
	.st8{fill:#DA5927;stroke:#FFFFFF;stroke-width:3;stroke-miterlimit:10;}
	.st9{fill:#FFFFFF;}
	.st10{fill:#010101;}
	.st11{fill:none;}
</style>
<g id="Layer_2">
	<g>
		<path class="st0" d="M280.6,166.2l6.9,7.9h-27.7c1.7,6.4,3,12.5,3.4,17.2c1.2,21.3-7.8,33.1-26.2,33.1c-12,0-21-4.9-29.2-9.8
			c-1.7-1-0.5-3,0.2-2.7c6.6,3.9,14.4,6.9,22.8,6.9c12.3,0,20.3-9.8,17.4-28.6c-0.5-2.7-4.1-14.2-4.7-16.2H222
			c-24.8,0-42.7-15.7-43.1-41.9c-0.2-15,6.4-29.7,17.4-33.3c15-4.9,39-2.9,53.7,44.3c1.9,6.1,4.7,14.5,7.4,23L280.6,166.2
			L280.6,166.2z M240.9,166.2c0-0.8-4.2-16.9-4.6-17.9c-8.1-28.9-17.7-49.5-32.4-46.8c-11.3,2-10.8,23.5-10.1,31.6
			c2,24.3,13.3,33.1,28.6,33.1L240.9,166.2L240.9,166.2z"/>
		<path class="st0" d="M286.5,174.2l-6.9-7.9h18.6l6.9,7.9H286.5z"/>
		<path class="st0" d="M304.1,174.2l-6.9-7.9h18.6l6.9,7.9H304.1z"/>
		<path class="st0" d="M321.6,174.2l-6.9-7.9h18.6l6.9,7.9H321.6z"/>
		<path class="st0" d="M379.6,215.4c-25-0.7-42.9-35.1-21.6-35.1c1.4,0,7.1,4.1,6.9,7.9c-11.3,0-5.1,20.1,10,20.1
			c12.3,0,14.2-17.2-12.3-43.3c-7.8,10.1-22.3,9.1-22.3,9.1h-1.4l-6.9-7.9h1.4c10.6,0,16.7-3,19.4-10c-12.5-10-30.1-23-30.9-38.9
			c-0.2-3.2,0-15.2,10.8-18.2c14-3.9,27.4,11.2,32.1,27.7c6.1,20.3,22.3,39.4,39.9,39.4h1.5l6.9,7.9h-3
			c-19.8-0.3-33.6-11.3-42.7-27.7c0.2,4.9-0.3,9-1.5,12.3C398.3,187,405.1,216.1,379.6,215.4z M354.4,138.5
			c-0.3-5.4-5.6-39.4-20.4-35.5c-5.2,1.4-6.8,7.8-5.2,13.5c2,6.9,6.3,15,25.5,32.3C354.6,146,354.6,142.4,354.4,138.5z"/>
		<path class="st0" d="M433.8,132.8c0.7,3.4,2,9.3,2,13.7c0.7,16.9-5.9,27.7-22.8,27.7h-1.4l-6.9-7.9h1.4
			c14.5,0,18.2-10.6,15.4-24.8c-4.7-23.3-12.5-45.8-18.2-66.1c-1.5-5.2,3.2-15.4,9.6-16.4C416.2,69.9,433.1,129.4,433.8,132.8z"/>
	</g>
	<g class="st1">
		<path id="XMLID_73_" class="st0" d="M25.3,207.6v-23.3h3.1v20.5h11.5v2.7H25.3z"/>
		<path id="XMLID_75_" class="st0" d="M54.1,205.5c-1.1,0.9-2.1,1.5-3.1,1.9c-1,0.4-2,0.6-3.1,0.6c-1.9,0-3.3-0.5-4.3-1.4
			c-1-0.9-1.5-2.1-1.5-3.5c0-0.8,0.2-1.6,0.6-2.3c0.4-0.7,0.9-1.2,1.5-1.6c0.6-0.4,1.3-0.7,2.1-0.9c0.6-0.1,1.4-0.3,2.5-0.4
			c2.3-0.3,4-0.6,5.1-1c0-0.4,0-0.6,0-0.7c0-1.2-0.3-2-0.8-2.5c-0.7-0.6-1.8-1-3.3-1c-1.3,0-2.3,0.2-3,0.7c-0.6,0.5-1.1,1.3-1.4,2.5
			l-2.8-0.4c0.3-1.2,0.7-2.2,1.3-2.9c0.6-0.7,1.4-1.3,2.5-1.7s2.4-0.6,3.8-0.6c1.4,0,2.6,0.2,3.5,0.5c0.9,0.3,1.6,0.8,2,1.3
			c0.4,0.5,0.7,1.2,0.9,1.9c0.1,0.5,0.1,1.4,0.1,2.6v3.8c0,2.7,0.1,4.3,0.2,5c0.1,0.7,0.4,1.4,0.7,2h-3
			C54.4,207,54.2,206.3,54.1,205.5z M53.9,199.1c-1,0.4-2.6,0.8-4.7,1.1c-1.2,0.2-2,0.4-2.5,0.6c-0.5,0.2-0.9,0.5-1.1,0.9
			s-0.4,0.9-0.4,1.4c0,0.8,0.3,1.4,0.9,1.9c0.6,0.5,1.4,0.8,2.5,0.8c1.1,0,2.1-0.2,2.9-0.7s1.5-1.1,1.9-2c0.3-0.6,0.5-1.6,0.5-2.9
			V199.1z"/>
		<path id="XMLID_78_" class="st0" d="M61.2,207.6v-23.3H64v8.3c1.3-1.5,3-2.3,5-2.3c1.2,0,2.3,0.2,3.3,0.7c0.9,0.5,1.6,1.2,2,2
			c0.4,0.9,0.6,2.1,0.6,3.8v10.7h-2.9v-10.7c0-1.4-0.3-2.5-0.9-3.1c-0.6-0.7-1.5-1-2.6-1c-0.8,0-1.6,0.2-2.4,0.7
			c-0.7,0.4-1.3,1-1.6,1.8c-0.3,0.8-0.5,1.8-0.5,3.1v9.2H61.2z"/>
		<path id="XMLID_80_" class="st0" d="M79.2,207.6v-23.3H82v23.3H79.2z"/>
	</g>
	<g class="st1">
		<path id="XMLID_64_" class="st0" d="M25.3,207.6v-23.3h3.1v20.5h11.5v2.7H25.3z"/>
		<path id="XMLID_66_" class="st0" d="M54.1,205.5c-1.1,0.9-2.1,1.5-3.1,1.9c-1,0.4-2,0.6-3.1,0.6c-1.9,0-3.3-0.5-4.3-1.4
			c-1-0.9-1.5-2.1-1.5-3.5c0-0.8,0.2-1.6,0.6-2.3c0.4-0.7,0.9-1.2,1.5-1.6c0.6-0.4,1.3-0.7,2.1-0.9c0.6-0.1,1.4-0.3,2.5-0.4
			c2.3-0.3,4-0.6,5.1-1c0-0.4,0-0.6,0-0.7c0-1.2-0.3-2-0.8-2.5c-0.7-0.6-1.8-1-3.3-1c-1.3,0-2.3,0.2-3,0.7c-0.6,0.5-1.1,1.3-1.4,2.5
			l-2.8-0.4c0.3-1.2,0.7-2.2,1.3-2.9c0.6-0.7,1.4-1.3,2.5-1.7s2.4-0.6,3.8-0.6c1.4,0,2.6,0.2,3.5,0.5c0.9,0.3,1.6,0.8,2,1.3
			c0.4,0.5,0.7,1.2,0.9,1.9c0.1,0.5,0.1,1.4,0.1,2.6v3.8c0,2.7,0.1,4.3,0.2,5c0.1,0.7,0.4,1.4,0.7,2h-3
			C54.4,207,54.2,206.3,54.1,205.5z M53.9,199.1c-1,0.4-2.6,0.8-4.7,1.1c-1.2,0.2-2,0.4-2.5,0.6c-0.5,0.2-0.9,0.5-1.1,0.9
			s-0.4,0.9-0.4,1.4c0,0.8,0.3,1.4,0.9,1.9c0.6,0.5,1.4,0.8,2.5,0.8c1.1,0,2.1-0.2,2.9-0.7s1.5-1.1,1.9-2c0.3-0.6,0.5-1.6,0.5-2.9
			V199.1z"/>
		<path id="XMLID_69_" class="st0" d="M61.2,207.6v-23.3H64v8.3c1.3-1.5,3-2.3,5-2.3c1.2,0,2.3,0.2,3.3,0.7c0.9,0.5,1.6,1.2,2,2
			c0.4,0.9,0.6,2.1,0.6,3.8v10.7h-2.9v-10.7c0-1.4-0.3-2.5-0.9-3.1c-0.6-0.7-1.5-1-2.6-1c-0.8,0-1.6,0.2-2.4,0.7
			c-0.7,0.4-1.3,1-1.6,1.8c-0.3,0.8-0.5,1.8-0.5,3.1v9.2H61.2z"/>
		<path id="XMLID_71_" class="st0" d="M79.2,207.6v-23.3H82v23.3H79.2z"/>
	</g>
	<g class="st1">
		<path id="XMLID_54_" class="st0" d="M25.3,207.6v-23.3h3.1v20.5h11.5v2.7H25.3z"/>
		<path id="XMLID_56_" class="st0" d="M54.1,205.5c-1.1,0.9-2.1,1.5-3.1,1.9c-1,0.4-2,0.6-3.1,0.6c-1.9,0-3.3-0.5-4.3-1.4
			c-1-0.9-1.5-2.1-1.5-3.5c0-0.8,0.2-1.6,0.6-2.3c0.4-0.7,0.9-1.2,1.5-1.6c0.6-0.4,1.3-0.7,2.1-0.9c0.6-0.1,1.4-0.3,2.5-0.4
			c2.3-0.3,4-0.6,5.1-1c0-0.4,0-0.6,0-0.7c0-1.2-0.3-2-0.8-2.5c-0.7-0.6-1.8-1-3.3-1c-1.3,0-2.3,0.2-3,0.7c-0.6,0.5-1.1,1.3-1.4,2.5
			l-2.8-0.4c0.3-1.2,0.7-2.2,1.3-2.9c0.6-0.7,1.4-1.3,2.5-1.7s2.4-0.6,3.8-0.6c1.4,0,2.6,0.2,3.5,0.5c0.9,0.3,1.6,0.8,2,1.3
			c0.4,0.5,0.7,1.2,0.9,1.9c0.1,0.5,0.1,1.4,0.1,2.6v3.8c0,2.7,0.1,4.3,0.2,5c0.1,0.7,0.4,1.4,0.7,2h-3
			C54.4,207,54.2,206.3,54.1,205.5z M53.9,199.1c-1,0.4-2.6,0.8-4.7,1.1c-1.2,0.2-2,0.4-2.5,0.6c-0.5,0.2-0.9,0.5-1.1,0.9
			s-0.4,0.9-0.4,1.4c0,0.8,0.3,1.4,0.9,1.9c0.6,0.5,1.4,0.8,2.5,0.8c1.1,0,2.1-0.2,2.9-0.7s1.5-1.1,1.9-2c0.3-0.6,0.5-1.6,0.5-2.9
			V199.1z"/>
		<path id="XMLID_59_" class="st0" d="M61.2,207.6v-23.3H64v8.3c1.3-1.5,3-2.3,5-2.3c1.2,0,2.3,0.2,3.3,0.7c0.9,0.5,1.6,1.2,2,2
			c0.4,0.9,0.6,2.1,0.6,3.8v10.7h-2.9v-10.7c0-1.4-0.3-2.5-0.9-3.1c-0.6-0.7-1.5-1-2.6-1c-0.8,0-1.6,0.2-2.4,0.7
			c-0.7,0.4-1.3,1-1.6,1.8c-0.3,0.8-0.5,1.8-0.5,3.1v9.2H61.2z"/>
		<path id="XMLID_61_" class="st0" d="M79.2,207.6v-23.3H82v23.3H79.2z"/>
	</g>
	<text transform="matrix(1 0 0 1 149.9146 207.5693)" class="st0 st2 st3"> </text>
	<text transform="matrix(1 0 0 1 157.7146 207.5693)" class="st0 st2 st4">ba</text>
	<g>
		<path class="st5" d="M309.2,207.2c-0.2,0.1-0.3,0.1-0.5,0.2c-0.7-2.1-1.5-4.3-2.2-6.4c-0.2-0.6-0.4-1.3-0.6-1.9
			c-2.3-5.7-4.9-11.3-6.7-17.2c-2-6.5-5-12.5-7.1-18.9c-4.2-13.2-10.2-25.6-15.7-38.3c-2.2-5-5-9.7-7.7-14.6c-1.3-2.3-2.6-4.6-4-6.9
			c-0.1-0.2-0.2-0.3-0.3-0.5c-0.2-0.3-0.3-0.5-0.5-0.8s-0.4-0.6-0.6-0.9c-0.3-0.4-0.6-0.9-0.9-1.3c-0.8-1.1-1.6-2.1-2.3-3.2
			c-0.1-0.2-0.3-0.3-0.4-0.5c-1.1-1.7-2-3.4-3.3-4.9c-2-2.5-4.3-4.8-6.5-7.1c-1.4-1.5-2.8-2.9-4.3-4.4c-1-1-2.2-1.9-3.3-2.9
			c-0.1,0.1-0.2,0.1-0.3,0.2c0,0.9-0.1,1.9-0.1,2.8c0,1,0.1,2,0.3,2.9c0.5,2.3,1.1,4.5,1.7,6.8c0.2,0.9,0.7,1.7,1.1,2.6
			c0.3,0.8,1.2,2.4,2.2,4.3c0.7,1.2,1.4,2.4,2.2,3.6c1.5,2.4,3,4.5,3.9,5.3l-4.2-2.5c-1.4-1.1-2.6-2.3-3.9-3.5
			c-2.6-2.4-6-7.3-7.7-10.9c-0.3-0.6-0.5-1.1-0.7-1.6c-0.3-0.9-0.5-1.8-0.6-2.7c-0.1-1.1-0.2-2.2-0.3-3.3c-0.2-1.5-0.5-3-0.7-4.6
			c-0.2-1.3-0.3-2.6-0.4-3.9c-0.2-1.7-0.3-3.5-0.4-5.2c-0.1-2.6,0.4-5.1,2.7-7.3c1.5-1.4,3-2.9,4.7-4.2c1.5-1.1,3.2-2.1,4.8-3.1
			c1.2-0.8,2.4-1.7,3.8-2.2c3.3-1.3,6.5-1.4,9.5-0.1c1.9,0.8,4,1.5,6,2.2c4.2,1.6,8.4,3.1,12.6,4.8c2.8,1.1,5.6,2.3,8.2,3.8
			c1.8,1,3.3,2.4,4.9,3.6c2.9,2.2,4.4,5.2,5.4,8.5c0.5,1.8,0.5,3.8,0.7,5.7c0.1,1,0.1,2.1,0.2,3.1c0.1,1.1,0.2,2.3,0.2,3.4
			c-0.1,2-0.2,4.1-0.4,6.3c-0.9-0.3-1.5-0.7-1.6-1.6c-0.3-2.2-1.1-4.3-1.3-6.4c-0.2-2.7-1.3-4.9-2.4-7.2c-0.9-1.7-2.2-3.2-3.6-4.6
			c-1.3-1.4-2.8-2.6-4.5-3.7c-2.2-1.3-4.5-2.5-6.9-3.5c-4.9-1.9-9.9-3.6-14.9-5.4c-0.5-0.2-1-0.2-1.7-0.4c-0.2,1.4-0.4,2.7-0.5,3.9
			c-0.2,2.3-0.5,4.6-0.7,6.9c-0.1,2-0.1,4-0.1,6c0,0.8,0,1.7,0.3,2.5c1.1,2.3,3,3.9,5.5,5.2c4.9,2.4,10.7,3.2,15.9,5.2
			c0,0,0,0,0.1,0c0.2,0.1,0.4,0.2,0.6,0.2c0.5,0.2,1.1,0.4,1.6,0.6c0.5,0.2,1,0.4,1.5,0.6c2.4,1,4.7,2.2,6.6,3.8
			c3.5,3,6.6,6.4,7.8,10.9c0.5,2.1,1.3,4.1,1.7,6.3c0.3,1.4,0.2,2.8,0.3,4.2c0.1,1.3,0.2,2.6,0.2,3.9c0.1,1.2,0.2,2.4,0.2,3.6
			c0.1,1.4,0.1,2.8,0.1,4.2c0,1.2,0,2.4,0,3.7c0,1.1,0,2.2,0,3.3c0,1.4,0,2.8,0,4.2c0,0.9,0,1.7,0,2.6c0.1,2.8,0.3,5.6,0.4,8.4
			c0.1,2,0,4.1,0,6.2c0,1.2,0.2,2.4,0.2,3.6c0.1,1.1,0.1,2.2,0.1,3.2c0.1,1.5,0.2,3.1,0.2,4.7c0,1.3,0,2.6,0,3.9
			c0,1.1,0.2,2.3,0.3,3.4c0.2,1.4,0.4,2.9,0.6,4.3c0.1,1.2,0.2,2.3,0.3,3.5c0.3,2.1,0.6,4.2,0.9,6.3c0.2,1.7,0.4,3.4,0.6,5
			c0,0.2,0,0.4,0.1,0.5c0.5,2.2,1.1,4.3,1.6,6.5c0.2,0.9,0.1,1.9,0.2,2.8c0.1,0.7,0.4,1.3,0.6,1.9
			C308.7,205.7,309,206.5,309.2,207.2z"/>
	</g>
	<g>
		<line class="st6" x1="72" y1="91" x2="161.3" y2="91"/>
		<line class="st6" x1="105.9" y1="159.7" x2="105.9" y2="91"/>
		<line class="st6" x1="132.3" y1="163.3" x2="132.3" y2="92.3"/>
		<line class="st6" x1="81.2" y1="116.6" x2="152.1" y2="116.6"/>
		<line class="st6" x1="81.2" y1="142.2" x2="152.1" y2="142.2"/>
		<ellipse class="st7" cx="175.5" cy="82.1" rx="7.6" ry="7.6"/>
		<g>
			<path class="st5" d="M168.3,78.4c0.1,0,0.3,0,0.4,0c0,0.2,0,0.4,0.1,0.6c1.9,4.1,3.7,8.3,5.6,12.4c0.3,0.7,0.3,1-0.5,1.5
				c-2.6,1.5-4.8,3.5-6.5,6c-2.8,4.1-4.6,8.7-5.9,13.5c-1.8,6.6-2.5,13.3-2.8,20c-0.2,3.3,0,6.6,0,9.9c0,0.3,0,0.6,0,1
				c-1.1,0.1-2.1,0.3-3.1,0.4c-2.3,0.2-4.5,0.3-6.8,0.5c-0.2,0-0.3,0.2-0.5,0.2c-1.4,0.1-2.7,0.1-4.1,0.2c-0.1-1.5-0.1-3.1-0.2-4.6
				c0.1-0.3,0.2-0.6,0.2-1c0-2.9-0.1-5.7,0-8.6c0.2-3.2,0.5-6.3,0.9-9.5c0.6-3.9,1.3-7.9,2.2-11.8c1.2-5.4,3.2-10.6,5.9-15.5
				c2.8-5,6.3-9.4,11-12.8C165.6,80.1,167,79.3,168.3,78.4z"/>
		</g>
		<g>
			<path class="st5" d="M149.5,106.4c0.7,1.6,1.4,3.3,2,4.9c2.1,5.3,4.2,10.7,5.3,16.3c0.6,3,1.5,6,1.9,9c0.4,3.1,0.5,6.3,0.4,9.5
				c-0.1,3.8-0.9,7.5-2.6,11c-3,6.2-7.9,10.3-14.5,12.4c-2.4,0.8-4.9,1.3-7.5,1.4c-2.9,0-5.8,0.3-8.7,0.2c-5.5-0.3-10.9-1.3-16-3.4
				c-4.3-1.7-8.2-4.1-11.9-6.9c-1.1-0.9-2.2-1.8-3.3-2.7c0-0.2,0-0.4,0-0.6c1-1.1,2-2.1,2.9-3.2c0.7-0.8,1.4-1.6,2-2.3
				c2.1,1.7,4.1,3.5,6.1,5.1c3.6,2.7,7.7,4.5,12.2,5.2c2.6,0.4,5.2,0.7,7.8,0.5c5.4-0.4,10.4-1.9,14.2-6.2c2.5-2.8,3.9-6.1,4.2-9.8
				c0.2-2,0.3-4.1,0.4-6.1c0-1.2-0.4-2.3-0.3-3.5c0.1-2.6,0.3-5.2,0.5-7.7c0.2-1.7,0.3-3.5,0.6-5.2c0.5-3,0.9-6,1.6-8.9
				c0.7-3,1.6-5.9,2.4-8.8C149.4,106.4,149.4,106.4,149.5,106.4z"/>
		</g>
		<path class="st0" d="M174.6,114.5"/>
		<path class="st5" d="M100.5,152.7L100.5,152.7l-0.5-2.4c-0.9-2.7-1.7-5.4-2.6-8c-1.9-5.9-3.8-11.4-5.1-15.8
			c-1.1-3.5-2.2-6.8-3.4-9.8c-4.5-11.5-9.6-19.8-14.9-25.6c-12.9-14-27.1-13.7-37.3-10.4c-11.4,3.7-18.2,18.9-18,34.5
			c0.3,27.1,18.9,43.4,44.6,43.4h22.2v0.1h16.2L100.5,152.7z M63.6,150.3c-15.8,0-27.5-9.1-29.6-34.3c-0.7-8.4-1.2-30.6,10.5-32.7
			c15.2-2.8,25.2,18.6,33.6,48.5c0.3,1,4.7,17.7,4.7,18.6L63.6,150.3L63.6,150.3z"/>
	</g>
	<g>
		<circle class="st5" cx="137.7" cy="192.5" r="15.9"/>
		<circle class="st8" cx="137.7" cy="192.5" r="8.8"/>
	</g>
	<path class="st0" d="M47.3,70.2c-1.5,0.7-2.9,1.3-4.4,2c-4.1-3.9-8.4-3.3-12.1,2.2c-4.8-2.9-11-0.3-10.9,6.9
		c-5.6-0.2-8.7,3.9-7.5,9.1c-1.5,1.2-2.9,2.3-4.5,3.5C3.9,87,3.3,79.8,7,72.6c4.4-8.7,11.8-13.2,21.6-13
		C36.9,59.7,43.1,63.5,47.3,70.2z"/>
	<circle class="st5" cx="232" cy="34.7" r="19.9"/>
	<path class="st9" d="M271.9,98.5c0.8-0.3,1.6-0.6,2.3-1c0.5-0.3,1-0.8,1.5-1.2c0.4-0.3,0.8-0.6,1.2-0.9c0.2-0.1,0.4-0.2,0.6-0.3
		c0.7-0.5,1.3-1,2-1.4c0.4-0.3,0.9-0.3,0.6-1c0-0.1,0.1-0.2,0.1-0.3c0.2-0.5,0.5-1,0.8-1.5c0.1,0.1,0.3,0.2,0.5,0.3
		c-0.1,0.6-0.3,1.2-0.4,2c1-0.2,2.1-0.5,2.3,0.9c0.7-0.1,1.4-0.4,2.1-0.4c1,0,0.8,1.1,1.1,1.5c0.7,0,1.4-0.1,1.9,0.1
		c0.8,0.3,0.4,1.1,0.3,1.8c0.8,0.1,1.6-0.3,2.2,0.4c0.7,0.8,0,1.5,0.1,2.3c0.2,0,0.4,0,0.6-0.1c1-0.2,1.4,0.1,1.6,1.1
		c0.1,0.5,0,1,0,1.5c2,0.8,2.3,1.4,1.4,3.2c0.2,0,0.3,0,0.5,0c0.6-0.2,1,0.1,1.4,0.6s0.1,0.9-0.2,1.3c-0.4,0.4-0.9,0.8-1.3,1.2
		c0.4,0.2,0.9,0.4,1.2,0.7c0.9,0.7,0.9,1.8,0,2.5c-0.4,0.3-0.9,0.6-1.3,0.9c0.4,0.8,1.6,1.3,1,2.4c-0.4,0.9-1.2,1.3-2.3,1.2
		c0.1,0.2,0.1,0.3,0.2,0.4c1,0.7,1,1.4,0.1,2.2c-1,0.8-2,1.1-3.4,0.4c0.2,1.1,0.1,2-1,2.4c-0.9,0.3-1.7,0.5-2.4-0.1
		c-0.6,0.6-1,1.4-1.7,1.7c-1,0.4-1.1-0.9-1.8-1.4c-0.4,0.7-0.8,1.5-1.9,1.1c-0.9-0.3-0.9-1-0.9-2c-0.4,0.4-0.6,0.8-0.9,0.9
		c-0.5,0.2-1.1,0.3-1.5,0.1c-0.5-0.2-0.7-1.3-0.5-1.9c0.1-0.3,0.3-0.6,0.4-1c-0.1,0-0.1-0.1-0.2-0.1c-0.3,0.1-0.6,0.2-0.8,0.3
		c-0.5,0.3-1,0.1-1.1-0.4c-0.2-0.7-0.4-1.4-0.5-2.1c-0.6,0.4-1.4,0.8-2-0.1c-0.5-0.7-0.6-1.5-0.1-2.4c-0.8,0.2-1.5,0.7-2-0.2
		s-0.2-1.8,0.3-2.8c-0.3,0.1-0.6,0.2-0.8,0.2c-0.4,0-0.9,0.2-1.1,0c-0.3-0.2-0.4-0.8-0.3-1.1c0.2-0.7,0.7-1.3,1-2
		c-0.7,0-1.3-0.4-1.4-1.3c-0.1-1,0.5-1.5,1.5-1.7c-0.7-0.2-1.4-0.3-1.5-1.2c-0.1-0.8,0.3-1.3,0.9-1.7c-0.2-0.5-0.5-0.9-0.5-1.3
		c0-0.4,0.4-0.8,0.6-1.3c-0.2-0.1-0.5-0.2-0.8-0.4c0-0.1,0-0.1,0-0.2c0.3-0.1,0.6-0.1,0.8-0.2C270.9,99.1,271.4,98.8,271.9,98.5
		L271.9,98.5z"/>
	<g>
		<path class="st10" d="M288.1,109.1c-4.7-0.1-8.6-2.3-12-5.3c1.9,1.1,3.7,2.4,5.7,3.3C283.8,108,286,108.5,288.1,109.1z"/>
		<path class="st10" d="M290.3,113c-2.4-0.9-4.9-1.9-7.3-2.8c0.1-0.1,0.1-0.3,0.2-0.4c2.4,0.9,4.9,1.8,7.3,2.7
			C290.4,112.7,290.3,112.9,290.3,113z"/>
	</g>
	<path class="st11" d="M219.5,30.2c0.1,0,0.2,0,0.2,0"/>
	<path class="st0" d="M219.4,30.7"/>
	<path class="st0" d="M217.3,37.1c-0.6,2.4-0.7,4.9-0.6,7.4c0,0.2,0,0.5-0.1,0.7c-0.4-1.7-0.8-3.3-1.2-5.1c-0.7,0.3-1.3,0.6-2,1
		c-0.3-1-0.8-2.1-1-3.1c-1.5-7.2,0.2-13.5,5.3-18.9c1.8-1.9,4-3.4,6.4-4.4c0.5-0.2,0.7-0.5,0.7-1c0.1-2.2,0.8-4.2,2.2-5.9
		c2.7-3.5,7.2-3.5,9.9-0.1c1.3,1.7,2,3.6,2.2,5.7c0.1,0.7,0.3,1.1,1,1.4c7.6,3.6,11.7,9.6,12.1,18.1c0.1,2.6-0.3,5.2-1.3,7.7
		c-0.6-0.2-1.1-0.3-1.7-0.5c-0.3,1.7-0.6,3.3-1,5c-0.1,0-0.2,0-0.4,0c-0.1-0.6-0.1-1.3-0.2-1.9c-0.2-3.1-0.3-6.2-1.2-9.2
		c-0.4-1.4-1.2-2.6-1.8-3.9c-0.1-0.2-0.3-0.3-0.5-0.5c0.4,2,0.7,3.9,1.1,6c-3.4-0.8-6.4-1.7-8.8-4.2c-0.1,0-0.1,0.1-0.2,0.1
		c0.6,1.2,1.1,2.4,1.7,3.7c-2.2,0.2-4.4-0.1-6.3-1.2c-2-1.1-3.3-2.8-4-4.9c-0.3,1.8,0.1,3.4,0.7,5.1c-2.2-0.7-4.9-2.8-6.1-4.6
		c0.1-0.2,0.2-0.4,0.3-0.8c-0.3,0-0.6,0.1-0.8,0.1c-0.2,0-0.5-0.1-0.6-0.3c-0.1-0.2-0.1-0.6,0.1-0.8c0.1-0.1,0.6-0.1,0.8,0
		c0.4,0.2,0.7,0.5,1.1,0.6c-0.3-0.7-0.7-1.3-1.4-1.3c-0.3,0-0.8,0.3-1,0.6c-0.3,0.6,0,1.1,0.6,1.5L217.3,37.1z"/>
	<path class="st0" d="M218.6,29.4c-0.4,0.6-0.1,1.2,0.9,1.8c-0.3,0.5-0.7,1.1-1,1.6c-0.1-0.2-0.1-0.5-0.2-0.7
		c-0.3-0.5-0.6-1-0.9-1.6c-0.5,0.2-0.4,0.7-0.1,1.1L218.6,29.4z"/>
	<path class="st9" d="M285.3,89.9c-0.5,1-1.1,1.9-1.8,2.8c-1.2,1.6-2.6,3.1-4.3,4.5c-2.6,2.2-5.5,3.6-8.8,4.6c-0.1,0-0.2,0-0.3,0.1
		c-1.9,0.5-3.8,0.9-5.7,1c-0.2-0.3-0.3-0.5-0.5-0.8s-0.4-0.6-0.6-0.9c-0.3-0.4-0.6-0.9-0.9-1.3c3.9-0.3,7.6-1.6,11-3.7
		c3.1-1.9,5.8-4.1,8.1-6.9c0.2-0.2,0.4-0.5,0.5-0.7c0.5,0.2,1.1,0.4,1.6,0.6C284.3,89.5,284.8,89.7,285.3,89.9z"/>
</g>
</svg>
