<?xml version="1.0" encoding="utf-8"?>
<!-- Generator: Adobe Illustrator 21.1.0, SVG Export Plug-In . SVG Version: 6.00 Build 0)  -->
<svg version="1.1" id="Layer_1" xmlns="http://www.w3.org/2000/svg" xmlns:xlink="http://www.w3.org/1999/xlink" x="0px" y="0px"
	 viewBox="0 0 443 232" style="enable-background:new 0 0 443 232;" xml:space="preserve">
<style type="text/css">
	.st0{fill:#356732;}
	.st1{fill:#DA5826;}
	.st2{fill:none;stroke:#356732;stroke-width:4;stroke-miterlimit:10;}
	.st3{fill:none;stroke:#DA5826;stroke-width:9;stroke-miterlimit:10;}
	.st4{fill:#DA5826;stroke:#FFFFFF;stroke-width:3;stroke-miterlimit:10;}
	.st5{fill:#FFFFFF;}
	.st6{fill:none;}
</style>
<g>
	<g>
		<path class="st0" d="M259.7,168.5c0.5,0,0.9,0,1.4,0c25.3,0,50.6,0,76,0c4.4,0,8.7-0.7,12.5-3.2c2.4-1.6,4-3.8,5.3-6.5
			c-1.6-1.3-3.3-2.6-4.9-4c-2.7-2.2-5.3-4.4-7.9-6.6c-1.5-1.3-3.1-2.6-4.5-4.1c-2.4-2.5-4.7-5.1-6.8-7.8c-2.6-3.3-4.7-6.9-5.8-11
			c-1.6-5.8-1.5-11.6,1.3-17.1c2.1-4.1,5.6-6.4,10.2-7.1c6.1-1,11.3,1.1,15.9,4.8c5.7,4.6,9.7,10.5,12.4,17.2
			c1.5,3.7,2.7,7.5,4.1,11.3c2.2,6,5.3,11.5,9.2,16.6c1.6,2.1,3.3,4.2,5.1,6.1c4.4,4.4,9.3,8.1,15.3,10.1c3.7,1.3,7.5,1.7,11.3,1.4
			c3.2-0.2,6.3-0.9,9-2.9c3.1-2.3,4.7-5.4,5.4-9c0.3-1.9,0.6-3.9,0.5-5.8c-0.3-3.2-0.8-6.4-1.4-9.6c-1.2-5.6-2.6-11.2-4-16.7
			c-1.3-4.9-2.6-9.8-4.1-14.6c-2.8-9.3-5.6-18.6-8.4-28c-0.7-2.4-1.6-4.7-1.5-7.3c0.2-3.5,1.5-6.5,3.5-9.2c1.4-1.9,3.2-3.4,5.5-4.1
			c0.7-0.2,1-0.2,1.2,0.7c1.6,5.5,3.2,11,4.8,16.5c2.3,8.1,4.6,16.2,6.9,24.3c1.4,4.9,2.9,9.9,4.2,14.8c2,7.5,4,14.9,5.8,22.4
			c1.1,4.5,1.3,9.2,1,13.8c-0.3,4.3-1.1,8.4-3.1,12.3c-2.1,4.1-5.3,7-9.7,8.6c-3.1,1.2-6.4,1.6-9.7,1.7c-5.6,0.1-11.1-0.3-16.4-1.9
			c-5.3-1.6-10.1-4-14.5-7.3c-4.5-3.4-8.3-7.5-11.5-12.2c-1.3-1.8-2.4-3.7-3.5-5.4c-0.5,3.7-0.9,7.5-1.4,11.5c0.9,0.9,2.2,2,3.4,3.1
			c1.3,1.2,2.6,2.3,3.7,3.5c5.5,5.7,10.7,11.5,14.9,18.3c3,4.8,5.5,9.8,6.6,15.3c0.5,2.6,0.6,5.2-0.1,7.8c-1.1,4.4-4.2,6.8-8.4,7.8
			c-6.3,1.6-12.4,0.6-18.3-2c-4.8-2.1-8.9-5.2-12.3-9c-3.2-3.5-5.8-7.5-6.9-12.2c-0.7-2.9-0.9-5.9,1.3-8.5c1.3-1.6,3.1-2.3,5.1-2.6
			c1.7-0.3,3.3-0.5,4.9,0.7c2,1.5,3.9,3.1,4.7,5.6c0.1,0.2,0.1,0.4,0.2,0.6c0,0.2,0,0.5,0,0.8c-0.8,0.2-1.6,0.3-2.3,0.6
			c-3.1,1.2-4,4-3.3,6.8c1.7,7.2,6.4,11.4,13.6,12.7c3,0.5,6.1,0.1,8.3-2.4c2-2.1,2.5-4.7,2.2-7.5c-0.5-4.5-2.1-8.6-4.4-12.4
			c-2-3.4-4.2-6.7-6.6-9.7c-2.8-3.5-5.9-6.6-8.9-9.9c-0.3-0.3-0.6-0.6-1-0.9c-0.5,0.5-0.8,1-1.3,1.5c-3.6,3.6-8,5.7-13,6.8
			c-3.1,0.6-6.2,0.7-9.3,0.7c-25.7,0-51.4,0-77.2,0c-0.5,0-1,0-1.8,0c0.3,1.3,0.6,2.5,0.8,3.7c0.8,3.9,1.8,7.7,2.3,11.7
			c0.5,3.9,0.3,7.7-0.1,11.6c-0.5,3.8-1.3,7.4-3,10.9c-3.1,6.2-8.1,10.1-14.8,11.5c-3.1,0.7-6.4,1-9.6,1c-5.9-0.1-11.6-1.4-16.9-4
			c-3.6-1.7-7.1-3.6-10.6-5.5c-0.5-0.3-1-0.9-1.2-1.5c-0.1-0.4,0.2-1.1,0.5-1.4c0.2-0.2,0.9,0.1,1.3,0.3c5.2,2.8,10.7,5.2,16.6,6
			c4.3,0.6,8.6,0.8,12.8-1.1c4.1-1.8,6.8-4.8,8.5-8.8c1.9-4.4,2.2-9.1,1.9-13.9c-0.2-4.2-1.5-8.3-2.7-12.3c-0.7-2.4-1.6-4.8-2.2-7.2
			c-0.2-0.9-0.6-1.1-1.5-1.1c-6.6,0-13.2,0-19.8,0c-7.4,0-14.5-1.2-21.2-4.4c-3.4-1.6-6.5-3.7-9.3-6.2c-6.1-5.5-9.8-12.4-11.7-20.2
			c-0.6-2.5-0.8-5.1-1-7.6c-0.2-2.1-0.4-4.3-0.2-6.4c0.5-8,2.4-15.6,7-22.4c3.6-5.2,8.5-8.3,14.8-9.2c2.5-0.4,5.1-0.7,7.7-0.7
			c3.8,0,7.4,0.9,10.9,2.3c4.7,1.9,8.7,4.9,12.2,8.5c3.7,3.8,6.7,8.2,9.4,12.9c3.9,7,6.8,14.4,9.2,21.9c1.9,5.9,3.9,11.9,5.8,17.8
			C258.5,164.6,259.1,166.5,259.7,168.5z M242.9,168.4c0-0.3,0-0.5,0-0.7c-2.4-8.7-4.6-17.4-7.2-26.1c-1.7-5.7-3.9-11.3-6.2-16.8
			c-2.6-6.4-5.8-12.4-11.1-17.1c-3.3-2.9-7-4.6-11.5-4c-3.5,0.4-5.8,2.4-7.4,5.3c-2.7,4.7-3.4,10-3.6,15.2c-0.2,5.6,0,11.1,0.9,16.6
			c0.9,5.4,2.3,10.5,5,15.2c2.4,4.2,5.7,7.4,10,9.6c3.5,1.8,7.4,2.6,11.4,2.7c6.2,0.1,12.4,0,18.6,0
			C242.1,168.4,242.4,168.4,242.9,168.4z M356,150.8c0.1-0.1,0.2-0.2,0.4-0.2c0.6-4.5,0.5-8.9-0.3-13.4c-0.7-4-1.6-8-2.6-11.9
			c-1.4-5.4-3.4-10.7-6.8-15.2c-1.6-2.1-3.4-3.9-6.1-4.6c-2.8-0.7-5.3-0.2-7.5,1.8c-2,1.9-2.6,4.4-2.7,7c-0.1,4.6,1.8,8.6,4,12.5
			c2.3,4.1,5.3,7.7,8.5,11.1C347.2,142.3,351.7,146.5,356,150.8z"/>
	</g>
</g>
<g>
	<g>
		<path class="st0" d="M160.4,177.7c3-0.3,5,2,5.5,6.4c2.4,0,4.9,0,7.4,0c2.9,0,5.5,0.8,7.9,2.4c6.7,4.5,7.3,14,1.9,19.3
			c-3,3-6.5,4.4-10.6,4.1c-5.7-0.3-11.3-5.2-11.8-10.8c-0.2-2.4-0.2-4.8-0.3-7.3c0-4.3,0-8.6,0-12.8
			C160.4,178.5,160.4,178.1,160.4,177.7z M165.8,189.5c0,0.2,0,0.4,0,0.7c0,2.6-0.2,5.2,0.1,7.8c0.3,3,2.1,5.2,5,6.3
			c3.2,1.2,7.4-0.1,9.3-3.3c2.6-4.3,0.4-10.5-4.7-11.4C172.4,189,169.2,189.5,165.8,189.5z"/>
		<path class="st0" d="M72.9,209.9c-5,0-9.8,0.4-14.5-0.1c-7.1-0.7-12.5-6.8-11.7-14.2c0.6-5.7,5.3-10.4,10.7-11.3
			c6.1-1.1,11.1,1.7,14,6.6c0.9,1.4,1.4,3.2,1.5,4.9c0.2,4.3,0.1,8.5,0.1,12.8C72.9,209,72.9,209.4,72.9,209.9z M67.5,204.5
			c0-2.8,0.1-5.6,0-8.4c-0.1-1.9-1.1-3.6-2.5-4.9c-3.6-3.2-9.3-2.2-11.7,1.8c-2.7,4.4-0.3,10.6,4.7,11.4
			C60.9,204.9,64.2,204.5,67.5,204.5z"/>
		<path class="st0" d="M215,209.9c-4.9,0-9.6,0.2-14.3-0.1c-5.8-0.3-10.6-4.9-11.7-10.3c-1.5-7.2,3.9-14.3,10.8-15.2
			c4.2-0.6,7.9,0.5,11,3.3c3.1,2.8,4.4,6.3,4.3,10.4c-0.1,3.5,0,7,0,10.5C215,208.9,215,209.3,215,209.9z M209.6,204.5
			c0-2.6,0-5.2,0-7.8c0-3-2.2-5.9-5-6.9c-3.3-1.2-7.4,0.1-9.3,3.3c-2.7,4.4-0.3,10.6,4.7,11.4C203,204.9,206.2,204.5,209.6,204.5z"
			/>
		<path class="st0" d="M75.5,177.6c2.2,0.1,3.9,1,4.7,2.9c0.7,1.7,0.7,3.7,0.9,5.4c1.1-0.4,2.5-1.1,3.8-1.4
			c6.1-1.6,12.4,1.1,15.4,6.6c0.9,1.7,1.4,3.5,1.4,5.4c0,4.4,0,8.8,0,13.2c-2,0.3-4.7-1.6-5.2-3.6c-0.2-0.7-0.2-1.5-0.3-2.2
			c-0.1-2.9,0.2-5.8-0.3-8.6c-0.9-5.4-7.2-8-11.7-4.8c-2.3,1.6-3.5,3.9-3.4,6.8c0,2.5,0,5,0,7.4c0,2.8-2.7,5.3-5.4,5
			C75.5,199.1,75.5,188.4,75.5,177.6z"/>
		<path class="st0" d="M124.8,210.1c-3.9-0.2-7.6-0.2-11.2-0.8c-4.6-0.8-8.7-5.3-9.4-10c-0.1-0.9-0.2-1.9-0.2-2.8
			c0-5.8,0-11.7,0-17.5c0-0.4,0-0.9,0-1.3c2.6-0.3,5.4,2.3,5.4,5.1c0,4.8,0,9.6,0,14.4c0,4,3.5,7.5,7.4,7.5c1.4,0,2.8-0.1,4.1,0.3
			C123.3,205.6,124.5,207.3,124.8,210.1z"/>
		<path class="st0" d="M46.1,210.1c-3.8-0.2-7.6-0.2-11.2-0.8c-4.4-0.7-8.9-5.3-9.4-10c-0.2-1.7-0.2-3.3-0.2-5c0-3.4,0-6.8,0-10.2
			c2.6-0.3,5.4,2.3,5.4,5.1c0,2,0.2,4.1,0,6.1c-0.5,5.9,3.5,9.9,9.3,9.3c0.8-0.1,1.8,0,2.6,0.3C44.6,205.8,45.8,207.4,46.1,210.1z"
			/>
	</g>
</g>
<g>
	<path class="st1" d="M311.2,209.2c-0.2,0.1-0.3,0.1-0.5,0.2c-0.7-2.1-1.5-4.3-2.2-6.4c-0.2-0.6-0.4-1.3-0.6-1.9
		c-2.3-5.7-4.9-11.3-6.7-17.2c-2-6.5-5-12.5-7.1-18.9c-4.2-13.2-10.2-25.6-15.7-38.3c-2.2-5-5-9.7-7.7-14.6c-1.3-2.3-2.6-4.6-4-6.9
		c-0.1-0.2-0.2-0.3-0.3-0.5c-0.2-0.3-0.3-0.5-0.5-0.8c-0.2-0.3-0.4-0.6-0.6-0.9c-0.3-0.4-0.6-0.9-0.9-1.3c-0.8-1.1-1.6-2.1-2.3-3.2
		c-0.1-0.2-0.3-0.3-0.4-0.5c-1.1-1.7-2-3.4-3.3-4.9c-2-2.5-4.3-4.8-6.5-7.1c-1.4-1.5-2.8-2.9-4.3-4.4c-1-1-2.2-1.9-3.3-2.9
		c-0.1,0.1-0.2,0.1-0.3,0.2c0,0.9-0.1,1.9-0.1,2.8c0,1,0.1,2,0.3,2.9c0.5,2.3,1.1,4.5,1.7,6.8c0.2,0.9,0.7,1.7,1.1,2.6
		c0.3,0.8,1.2,2.4,2.2,4.3c0.7,1.2,1.4,2.4,2.2,3.6c1.5,2.4,3,4.5,3.9,5.3l-4.2-2.5c-1.4-1.1-2.6-2.3-3.9-3.5
		c-2.6-2.4-6-7.3-7.7-10.9c-0.3-0.6-0.5-1.1-0.7-1.6c-0.3-0.9-0.5-1.8-0.6-2.7c-0.1-1.1-0.2-2.2-0.3-3.3c-0.2-1.5-0.5-3-0.7-4.6
		c-0.2-1.3-0.3-2.6-0.4-3.9c-0.2-1.7-0.3-3.5-0.4-5.2c-0.1-2.6,0.4-5.1,2.7-7.3c1.5-1.4,3-2.9,4.7-4.2c1.5-1.1,3.2-2.1,4.8-3.1
		c1.2-0.8,2.4-1.7,3.8-2.2c3.3-1.3,6.5-1.4,9.5-0.1c1.9,0.8,4,1.5,6,2.2c4.2,1.6,8.4,3.1,12.6,4.8c2.8,1.1,5.6,2.3,8.2,3.8
		c1.8,1,3.3,2.4,4.9,3.6c2.9,2.2,4.4,5.2,5.4,8.5c0.5,1.8,0.5,3.8,0.7,5.7c0.1,1,0.1,2.1,0.2,3.1c0.1,1.1,0.2,2.3,0.2,3.4
		c-0.1,2-0.2,4.1-0.4,6.3c-0.9-0.3-1.5-0.7-1.6-1.6c-0.3-2.2-1.1-4.3-1.3-6.4c-0.2-2.7-1.3-4.9-2.4-7.2c-0.9-1.7-2.2-3.2-3.6-4.6
		c-1.3-1.4-2.8-2.6-4.5-3.7c-2.2-1.3-4.5-2.5-6.9-3.5c-4.9-1.9-9.9-3.6-14.9-5.4c-0.5-0.2-1-0.2-1.7-0.4c-0.2,1.4-0.4,2.7-0.5,3.9
		c-0.2,2.3-0.5,4.6-0.7,6.9c-0.1,2-0.1,4-0.1,6c0,0.8,0,1.7,0.3,2.5c1.1,2.3,3,3.9,5.5,5.2c4.9,2.4,10.7,3.2,15.9,5.2c0,0,0,0,0.1,0
		c0.2,0.1,0.4,0.2,0.6,0.2c0.5,0.2,1.1,0.4,1.6,0.6c0.5,0.2,1,0.4,1.5,0.6c2.4,1,4.7,2.2,6.6,3.8c3.5,3,6.6,6.4,7.8,10.9
		c0.5,2.1,1.3,4.1,1.7,6.3c0.3,1.4,0.2,2.8,0.3,4.2c0.1,1.3,0.2,2.6,0.2,3.9c0.1,1.2,0.2,2.4,0.2,3.6c0.1,1.4,0.1,2.8,0.1,4.2
		c0,1.2,0,2.4,0,3.7c0,1.1,0,2.2,0,3.3c0,1.4,0,2.8,0,4.2c0,0.9,0,1.7,0,2.6c0.1,2.8,0.3,5.6,0.4,8.4c0.1,2,0,4.1,0,6.2
		c0,1.2,0.2,2.4,0.2,3.6c0.1,1.1,0.1,2.2,0.1,3.2c0.1,1.5,0.2,3.1,0.2,4.7c0,1.3,0,2.6,0,3.9c0,1.1,0.2,2.3,0.3,3.4
		c0.2,1.4,0.4,2.9,0.6,4.3c0.1,1.2,0.2,2.3,0.3,3.5c0.3,2.1,0.6,4.2,0.9,6.3c0.2,1.7,0.4,3.4,0.6,5c0,0.2,0,0.4,0.1,0.5
		c0.5,2.2,1.1,4.3,1.6,6.5c0.2,0.9,0.1,1.9,0.2,2.8c0.1,0.7,0.4,1.3,0.6,1.9C310.7,207.7,311,208.5,311.2,209.2z"/>
</g>
<g>
	<line class="st2" x1="74" y1="93" x2="163.3" y2="93"/>
	<line class="st2" x1="107.9" y1="161.7" x2="107.9" y2="93"/>
	<line class="st2" x1="134.3" y1="165.3" x2="134.3" y2="94.3"/>
	<line class="st2" x1="83.2" y1="118.6" x2="154.1" y2="118.6"/>
	<line class="st2" x1="83.2" y1="144.2" x2="154.1" y2="144.2"/>
	<ellipse transform="matrix(0.9816 -0.1911 0.1911 0.9816 -12.8019 35.4745)" class="st3" cx="177.5" cy="84.1" rx="7.6" ry="7.6"/>
	<g>
		<path class="st1" d="M170.3,80.4c0.1,0,0.3,0,0.4,0c0,0.2,0,0.4,0.1,0.6c1.9,4.1,3.7,8.3,5.6,12.4c0.3,0.7,0.3,1-0.5,1.5
			c-2.6,1.5-4.8,3.5-6.5,6c-2.8,4.1-4.6,8.7-5.9,13.5c-1.8,6.6-2.5,13.3-2.8,20c-0.2,3.3,0,6.6,0,9.9c0,0.3,0,0.6,0,1
			c-1.1,0.1-2.1,0.3-3.1,0.4c-2.3,0.2-4.5,0.3-6.8,0.5c-0.2,0-0.3,0.2-0.5,0.2c-1.4,0.1-2.7,0.1-4.1,0.2c-0.1-1.5-0.1-3.1-0.2-4.6
			c0.1-0.3,0.2-0.6,0.2-1c0-2.9-0.1-5.7,0-8.6c0.2-3.2,0.5-6.3,0.9-9.5c0.6-3.9,1.3-7.9,2.2-11.8c1.2-5.4,3.2-10.6,5.9-15.5
			c2.8-5,6.3-9.4,11-12.8C167.6,82.1,169,81.3,170.3,80.4z"/>
	</g>
	<g>
		<path class="st1" d="M151.5,108.4c0.7,1.6,1.4,3.3,2,4.9c2.1,5.3,4.2,10.7,5.3,16.3c0.6,3,1.5,6,1.9,9c0.4,3.1,0.5,6.3,0.4,9.5
			c-0.1,3.8-0.9,7.5-2.6,11c-3,6.2-7.9,10.3-14.5,12.4c-2.4,0.8-4.9,1.3-7.5,1.4c-2.9,0-5.8,0.3-8.7,0.2c-5.5-0.3-10.9-1.3-16-3.4
			c-4.3-1.7-8.2-4.1-11.9-6.9c-1.1-0.9-2.2-1.8-3.3-2.7c0-0.2,0-0.4,0-0.6c1-1.1,2-2.1,2.9-3.2c0.7-0.8,1.4-1.6,2-2.3
			c2.1,1.7,4.1,3.5,6.1,5.1c3.6,2.7,7.7,4.5,12.2,5.2c2.6,0.4,5.2,0.7,7.8,0.5c5.4-0.4,10.4-1.9,14.2-6.2c2.5-2.8,3.9-6.1,4.2-9.8
			c0.2-2,0.3-4.1,0.4-6.1c0-1.2-0.4-2.3-0.3-3.5c0.1-2.6,0.3-5.2,0.5-7.7c0.2-1.7,0.3-3.5,0.6-5.2c0.5-3,0.9-6,1.6-8.9
			c0.7-3,1.6-5.9,2.4-8.8C151.4,108.4,151.4,108.4,151.5,108.4z"/>
	</g>
	<path class="st0" d="M176.6,116.5"/>
	<path class="st1" d="M102.5,154.7L102.5,154.7l-0.5-2.4c-0.9-2.7-1.7-5.4-2.6-8c-1.9-5.9-3.8-11.4-5.1-15.8
		c-1.1-3.5-2.2-6.8-3.4-9.8c-4.5-11.5-9.6-19.8-14.9-25.6C63,79,48.8,79.3,38.6,82.6c-11.4,3.7-18.2,18.9-18,34.5
		c0.3,27.1,18.9,43.4,44.6,43.4h22.2c0,0,0,0.1,0,0.1h16.2L102.5,154.7z M65.6,152.3c-15.8,0-27.5-9.1-29.6-34.3
		c-0.7-8.4-1.2-30.6,10.5-32.7c15.2-2.8,25.2,18.6,33.6,48.5c0.3,1,4.7,17.7,4.7,18.6H65.6z"/>
</g>
<g>
	<circle class="st1" cx="139.7" cy="194.5" r="15.9"/>
	<circle class="st4" cx="139.7" cy="194.5" r="8.8"/>
</g>
<path class="st0" d="M49.3,72.2c-1.5,0.7-2.9,1.3-4.4,2c-4.1-3.9-8.4-3.3-12.1,2.2c-4.8-2.9-11-0.3-10.9,6.9
	c-5.6-0.2-8.7,3.9-7.5,9.1c-1.5,1.2-2.9,2.3-4.5,3.5c-4-6.9-4.6-14.1-0.9-21.3c4.4-8.7,11.8-13.2,21.6-13
	C38.9,61.7,45.1,65.5,49.3,72.2z"/>
<circle class="st1" cx="234" cy="36.7" r="19.9"/>
<path class="st5" d="M273.9,100.5c0.8-0.3,1.6-0.6,2.3-1c0.5-0.3,1-0.8,1.5-1.2c0.4-0.3,0.8-0.6,1.2-0.9c0.2-0.1,0.4-0.2,0.6-0.3
	c0.7-0.5,1.3-1,2-1.4c0.4-0.3,0.9-0.3,0.6-1c0-0.1,0.1-0.2,0.1-0.3c0.2-0.5,0.5-1,0.8-1.5c0.1,0.1,0.3,0.2,0.5,0.3
	c-0.1,0.6-0.3,1.2-0.4,2c1-0.2,2.1-0.5,2.3,0.9c0.7-0.1,1.4-0.4,2.1-0.4c1,0,0.8,1.1,1.1,1.5c0.7,0,1.4-0.1,1.9,0.1
	c0.8,0.3,0.4,1.1,0.3,1.8c0.8,0.1,1.6-0.3,2.2,0.4c0.7,0.8,0,1.5,0.1,2.3c0.2,0,0.4,0,0.6-0.1c1-0.2,1.4,0.1,1.6,1.1
	c0.1,0.5,0,1,0,1.5c2,0.8,2.3,1.4,1.4,3.2c0.2,0,0.3,0,0.5,0c0.6-0.2,1,0.1,1.4,0.6c0.4,0.5,0.1,0.9-0.2,1.3
	c-0.4,0.4-0.9,0.8-1.3,1.2c0.4,0.2,0.9,0.4,1.2,0.7c0.9,0.7,0.9,1.8,0,2.5c-0.4,0.3-0.9,0.6-1.3,0.9c0.4,0.8,1.6,1.3,1,2.4
	c-0.4,0.9-1.2,1.3-2.3,1.2c0.1,0.2,0.1,0.3,0.2,0.4c1,0.7,1,1.4,0.1,2.2c-1,0.8-2,1.1-3.4,0.4c0.2,1.1,0.1,2-1,2.4
	c-0.9,0.3-1.7,0.5-2.4-0.1c-0.6,0.6-1,1.4-1.7,1.7c-1,0.4-1.1-0.9-1.8-1.4c-0.4,0.7-0.8,1.5-1.9,1.1c-0.9-0.3-0.9-1-0.9-2
	c-0.4,0.4-0.6,0.8-0.9,0.9c-0.5,0.2-1.1,0.3-1.5,0.1c-0.5-0.2-0.7-1.3-0.5-1.9c0.1-0.3,0.3-0.6,0.4-1c-0.1,0-0.1-0.1-0.2-0.1
	c-0.3,0.1-0.6,0.2-0.8,0.3c-0.5,0.3-1,0.1-1.1-0.4c-0.2-0.7-0.4-1.4-0.5-2.1c-0.6,0.4-1.4,0.8-2-0.1c-0.5-0.7-0.6-1.5-0.1-2.4
	c-0.8,0.2-1.5,0.7-2-0.2c-0.5-0.9-0.2-1.8,0.3-2.8c-0.3,0.1-0.6,0.2-0.8,0.2c-0.4,0-0.9,0.2-1.1,0c-0.3-0.2-0.4-0.8-0.3-1.1
	c0.2-0.7,0.7-1.3,1-2c-0.7,0-1.3-0.4-1.4-1.3c-0.1-1,0.5-1.5,1.5-1.7c-0.7-0.2-1.4-0.3-1.5-1.2c-0.1-0.8,0.3-1.3,0.9-1.7
	c-0.2-0.5-0.5-0.9-0.5-1.3c0-0.4,0.4-0.8,0.6-1.3c-0.2-0.1-0.5-0.2-0.8-0.4c0-0.1,0-0.1,0-0.2c0.3-0.1,0.6-0.1,0.8-0.2
	C272.9,101.1,273.4,100.8,273.9,100.5L273.9,100.5z"/>
<g>
	<path d="M290.1,111.1c-4.7-0.1-8.6-2.3-12-5.3c1.9,1.1,3.7,2.4,5.7,3.3C285.8,110,288,110.5,290.1,111.1z"/>
	<path d="M292.3,115c-2.4-0.9-4.9-1.9-7.3-2.8c0.1-0.1,0.1-0.3,0.2-0.4c2.4,0.9,4.9,1.8,7.3,2.7C292.4,114.7,292.3,114.9,292.3,115z
		"/>
</g>
<path class="st6" d="M221.5,32.2c0.1,0,0.2,0,0.2,0"/>
<path class="st0" d="M221.4,32.7"/>
<path class="st0" d="M219.3,39.1c-0.6,2.4-0.7,4.9-0.6,7.4c0,0.2,0,0.5-0.1,0.7c-0.4-1.7-0.8-3.3-1.2-5.1c-0.7,0.3-1.3,0.6-2,1
	c-0.3-1-0.8-2.1-1-3.1c-1.5-7.2,0.2-13.5,5.3-18.9c1.8-1.9,4-3.4,6.4-4.4c0.5-0.2,0.7-0.5,0.7-1c0.1-2.2,0.8-4.2,2.2-5.9
	c2.7-3.5,7.2-3.5,9.9-0.1c1.3,1.7,2,3.6,2.2,5.7c0.1,0.7,0.3,1.1,1,1.4c7.6,3.6,11.7,9.6,12.1,18.1c0.1,2.6-0.3,5.2-1.3,7.7
	c-0.6-0.2-1.1-0.3-1.7-0.5c-0.3,1.7-0.6,3.3-1,5c-0.1,0-0.2,0-0.4,0c-0.1-0.6-0.1-1.3-0.2-1.9c-0.2-3.1-0.3-6.2-1.2-9.2
	c-0.4-1.4-1.2-2.6-1.8-3.9c-0.1-0.2-0.3-0.3-0.5-0.5c0.4,2,0.7,3.9,1.1,6c-3.4-0.8-6.4-1.7-8.8-4.2c-0.1,0-0.1,0.1-0.2,0.1
	c0.6,1.2,1.1,2.4,1.7,3.7c-2.2,0.2-4.4-0.1-6.3-1.2c-2-1.1-3.3-2.8-4-4.9c-0.3,1.8,0.1,3.4,0.7,5.1c-2.2-0.7-4.9-2.8-6.1-4.6
	c0.1-0.2,0.2-0.4,0.3-0.8c-0.3,0-0.6,0.1-0.8,0.1c-0.2,0-0.5-0.1-0.6-0.3c-0.1-0.2-0.1-0.6,0.1-0.8c0.1-0.1,0.6-0.1,0.8,0
	c0.4,0.2,0.7,0.5,1.1,0.6c-0.3-0.7-0.7-1.3-1.4-1.3c-0.3,0-0.8,0.3-1,0.6c-0.3,0.6,0,1.1,0.6,1.5L219.3,39.1z"/>
<path class="st0" d="M220.6,31.4c-0.4,0.6-0.1,1.2,0.9,1.8c-0.3,0.5-0.7,1.1-1,1.6c-0.1-0.2-0.1-0.5-0.2-0.7c-0.3-0.5-0.6-1-0.9-1.6
	c-0.5,0.2-0.4,0.7-0.1,1.1L220.6,31.4z"/>
<path class="st5" d="M287.3,91.9c-0.5,1-1.1,1.9-1.8,2.8c-1.2,1.6-2.6,3.1-4.3,4.5c-2.6,2.2-5.5,3.6-8.8,4.6c-0.1,0-0.2,0-0.3,0.1
	c-1.9,0.5-3.8,0.9-5.7,1c-0.2-0.3-0.3-0.5-0.5-0.8c-0.2-0.3-0.4-0.6-0.6-0.9c-0.3-0.4-0.6-0.9-0.9-1.3c3.9-0.3,7.6-1.6,11-3.7
	c3.1-1.9,5.8-4.1,8.1-6.9c0.2-0.2,0.4-0.5,0.5-0.7c0.5,0.2,1.1,0.4,1.6,0.6C286.3,91.5,286.8,91.7,287.3,91.9z"/>
</svg>
