<?xml version="1.0" encoding="utf-8"?>
<!-- Generator: Adobe Illustrator 21.0.0, SVG Export Plug-In . SVG Version: 6.00 Build 0)  -->
<svg version="1.1" id="Layer_1" xmlns="http://www.w3.org/2000/svg" xmlns:xlink="http://www.w3.org/1999/xlink" x="0px" y="0px"
	 viewBox="0 0 274.5 285.1" style="enable-background:new 0 0 274.5 285.1;" xml:space="preserve">
<style type="text/css">
	.st0{fill:#808080;}
</style>
<g>
	<g>
		<path class="st0" d="M0,39c0-8.7,0-16.5,0-26.1c13.6,0,26.7-0.6,39.7,0.4c3.2,0.3,7,5.4,8.8,9.1C65,56.5,81.4,90.6,97.1,125
			c3.8,8.3,8.5,11,17.4,10.8c24.3-0.6,48.5-0.5,72.8,0c7.9,0.2,12.2-2.5,15.9-9.4c15.2-28.5,31-56.6,47.3-86.2
			c7.9,4.2,15.3,8.1,24,12.7c-7,12.8-13.6,25-20.3,37.1c-10,18.3-20.4,36.4-30.1,54.8c-6.4,12.2-15.8,18-29.7,17.8
			c-26-0.4-51.9-0.1-77.9-0.1c-22.4,0-24.9,1.9-32.3,26.8c53.3,0,106.1,0,159.8,0c0,10,0,18.2,0,26.3c-1,0.6-1.7,1.5-2.5,1.5
			c-53.2,0.2-106.4,0.8-159.6,0.1c-22.9-0.3-36.3-23.2-23-41.6c17.5-24,14.8-44.6,0.5-68c-10.3-17-18.1-35.6-25.8-54
			c-4.4-10.5-10-16-21.8-13.9C8.2,40.2,4.4,39.3,0,39z"/>
		<path class="st0" d="M202.8,67.4c-13.2,0-25.8,0-39.5,0c0,13.7,0,26.3,0,39.9c-9.3,0-17.5,0-26.9,0c0-12.8,0-25.4,0-39.5
			c-14,0-26.9,0-40.5,0c0-9.9,0-18.1,0-27.7c13.1,0,25.7,0,39.7,0c0-13.9,0-26.4,0-40.1c9.5,0,17.6,0,27.2,0c0,12.9,0,25.5,0,39.4
			c13.9,0,26.4,0,40,0C202.8,48.9,202.8,57.2,202.8,67.4z"/>
		<path class="st0" d="M80.9,285.1c-15.1-0.2-26.3-11.6-26.4-26.8c-0.1-15.5,12.1-27.7,27.4-27.3c14.6,0.3,26.6,12.5,26.7,27
			C108.7,273.2,96.3,285.3,80.9,285.1z"/>
		<path class="st0" d="M244.7,257.7c0.2,15.6-11.6,27.5-27.1,27.4c-14.8-0.1-26.7-11.8-26.9-26.6c-0.2-15.1,12.2-27.7,27.3-27.6
			C232.7,231.1,244.5,242.8,244.7,257.7z"/>
	</g>
</g>
</svg>
