<?xml version="1.0" encoding="utf-8"?>
<!-- Generator: Adobe Illustrator 21.0.0, SVG Export Plug-In . SVG Version: 6.00 Build 0)  -->
<svg version="1.1" id="Layer_1" xmlns="http://www.w3.org/2000/svg" xmlns:xlink="http://www.w3.org/1999/xlink" x="0px" y="0px"
	 viewBox="0 0 251.4 202.3" style="enable-background:new 0 0 251.4 202.3;" xml:space="preserve">
<style type="text/css">
	.st0{fill:url(#SVGID_1_);}
	.st1{opacity:0.3;fill:url(#SVGID_5_);enable-background:new    ;}
	.st2{fill:url(#SVGID_6_);}
	.st3{fill:url(#SVGID_7_);}
	.st4{opacity:0.3;}
	.st5{fill:#988054;}
	.st6{opacity:0.3;fill:url(#SVGID_8_);enable-background:new    ;}
	.st7{opacity:0.3;fill:url(#SVGID_9_);enable-background:new    ;}
	.st8{opacity:0.3;fill:url(#SVGID_10_);enable-background:new    ;}
	.st9{opacity:0.3;fill:url(#SVGID_11_);enable-background:new    ;}
	.st10{fill:#FFFFFF;}
	.st11{fill:url(#SVGID_12_);}
	.st12{fill:url(#SVGID_13_);}
	.st13{fill:url(#SVGID_14_);}
	.st14{fill:url(#SVGID_15_);}
	.st15{opacity:0.5;fill:url(#SVGID_16_);enable-background:new    ;}
	.st16{opacity:0.7;fill:url(#SVGID_17_);enable-background:new    ;}
	.st17{fill:url(#SVGID_18_);}
	.st18{fill:url(#SVGID_19_);}
	.st19{fill:url(#SVGID_20_);}
	.st20{fill:url(#SVGID_21_);}
	.st21{fill:url(#SVGID_22_);}
	.st22{clip-path:url(#SVGID_25_);}
	.st23{clip-path:url(#SVGID_26_);fill:url(#SVGID_27_);}
	.st24{opacity:0.8;fill:url(#SVGID_28_);enable-background:new    ;}
	.st25{opacity:0.2;fill:url(#SVGID_29_);enable-background:new    ;}
	.st26{opacity:0.5;fill:url(#SVGID_30_);enable-background:new    ;}
	.st27{opacity:0.5;fill:url(#SVGID_31_);enable-background:new    ;}
	.st28{opacity:0.5;fill:url(#SVGID_32_);enable-background:new    ;}
	.st29{opacity:0.2;fill:url(#SVGID_33_);enable-background:new    ;}
	.st30{opacity:0.5;fill:url(#SVGID_34_);enable-background:new    ;}
	.st31{opacity:0.5;fill:url(#SVGID_35_);enable-background:new    ;}
	.st32{opacity:0.5;fill:url(#SVGID_36_);enable-background:new    ;}
	.st33{fill:url(#SVGID_37_);}
	.st34{fill:url(#SVGID_38_);}
	.st35{fill:url(#SVGID_39_);}
	.st36{fill:url(#SVGID_40_);}
	.st37{opacity:0.5;}
	.st38{opacity:0.5;fill:url(#SVGID_41_);enable-background:new    ;}
	.st39{opacity:0.5;fill:url(#SVGID_42_);enable-background:new    ;}
	.st40{fill:url(#SVGID_43_);}
	.st41{opacity:0.5;fill:url(#SVGID_44_);enable-background:new    ;}
	.st42{fill:url(#SVGID_45_);}
	.st43{opacity:0.4;fill:url(#SVGID_46_);enable-background:new    ;}
	.st44{clip-path:url(#SVGID_49_);}
	.st45{clip-path:url(#SVGID_50_);fill:url(#SVGID_51_);}
	.st46{opacity:0.5;fill:url(#SVGID_52_);enable-background:new    ;}
	.st47{clip-path:url(#SVGID_55_);}
	.st48{clip-path:url(#SVGID_56_);fill:url(#SVGID_57_);}
	.st49{opacity:0.2;fill:url(#SVGID_58_);enable-background:new    ;}
</style>
<g>
	<g>
		<g>
			
				<radialGradient id="SVGID_1_" cx="74.8464" cy="149.3521" r="132.4872" gradientTransform="matrix(1 0 0 -1 0 246)" gradientUnits="userSpaceOnUse">
				<stop  offset="0.4174" style="stop-color:#FFFFFF"/>
				<stop  offset="0.755" style="stop-color:#DEE5DB"/>
				<stop  offset="0.9747" style="stop-color:#C9CDC8"/>
			</radialGradient>
			<path class="st0" d="M154.6,7.6c0,0,0.4,3.7,1.3,5.6c0,0-3.9,6-5.2,11.4s0.4,33.4,0.4,51.1c0,17.7-2.1,53.8-2.1,64.7
				c0,10.8-0.6,40.4-0.6,41.4c0,0.9,2.3,3.1,2.8,4.7c0.2,0.6-0.6,1.7-0.6,1.7s0.7,1.5,2.8,4.3c2.1,2.9,2.4,2.8,2.2,5.1
				c-0.3,2.3-6.1,1.9-8.2,1.6c-2.2-0.3-5.2-1-8.5-0.4c-3.2,0.6-7.9,0.8-9.3,0.8c-1.4,0.1-3.8,2.4-12.4,2.2
				c-8.6-0.3-8.2,1.6-24.5,0.6c-16.2-1-27.2-1.5-37.3-2.7c-10.1-1.1-17.5-2.9-21.4-2.8s-11.3,1.5-18.3-1.1c-7-2.7-7.4-0.1-10.9,0.6
				c-3.5,0.7-4.8-0.1-5-2.1c-0.3-2,3.1-5,5.2-7c2.1-2,2.2-1.5,1.8-3.6s0.1-2.7,1.5-3.8c1.4-1.1,2.2-2.8,3.6-3.9c0,0-1.3-1.4-0.8-2.7
				c0.4-1.3,2-2.7,3.1-4.3c1.1-1.7,0.7-3.1,0.3-8.8c-0.4-5.7-4.5-42.2-4.9-60.5C9.2,81.4,13.9,48,13.7,40.5c-0.3-7.5,1-12-2-18
				c-2.9-6-5.6-13.4-5.6-13.4s0.6-3.2,1.7-5.2c0,0,0.1-0.6,1.5-0.1c1.4,0.4,8,3.8,17.3,5.3c9.4,1.5,15,3.4,21,2.4s22.2-2.7,32.1-3.2
				c9.9-0.6,20.5-1.5,34.4,0.8c13.8,2.4,21.9,3.4,24.9,3.5c2.9,0.1,3.2-0.3,6.6-1.7C148.9,9.3,152.2,8,154.6,7.6z"/>
			
				<radialGradient id="SVGID_5_" cx="81.2738" cy="254.1577" r="78.5527" gradientTransform="matrix(1 0 0 -1 0 246)" gradientUnits="userSpaceOnUse">
				<stop  offset="0.1639" style="stop-color:#FFFFFF"/>
				<stop  offset="0.8028" style="stop-color:#AD9783"/>
				<stop  offset="1" style="stop-color:#7C5D3F"/>
			</radialGradient>
			<path class="st1" d="M46.3,16.9c10.1-1.1,41.2-1.9,54.8-1.3c13.6,0.6,36.9,3.9,41.6,2.8c4.1-1,8.2-4.7,12.7-4.3
				c0.3-0.6,0.6-0.9,0.6-0.9c-0.9-1.9-1.3-5.6-1.3-5.6c-2.4,0.4-5.7,1.7-9,3.1c-3.4,1.4-3.6,1.8-6.6,1.7c-2.9-0.1-11-1.1-24.9-3.5
				c-13.8-2.4-24.5-1.4-34.4-0.8c-9.9,0.6-26.1,2.2-32.1,3.2s-11.6-0.8-21-2.4C17.3,7.4,10.8,4,9.4,3.6C8,3.2,7.9,3.7,7.9,3.7
				C6.8,5.6,6.2,8.8,6.2,8.9c3.9,1.9,9.9,4.9,13.6,6C25.3,16.5,36.3,18,46.3,16.9z"/>
			
				<radialGradient id="SVGID_6_" cx="76.5229" cy="151.5871" r="94.504" gradientTransform="matrix(1 0 0 -1 0 246)" gradientUnits="userSpaceOnUse">
				<stop  offset="0" style="stop-color:#9AD700"/>
				<stop  offset="7.900918e-02" style="stop-color:#7FC800"/>
				<stop  offset="0.2045" style="stop-color:#5BB300"/>
				<stop  offset="0.3366" style="stop-color:#3DA300"/>
				<stop  offset="0.4754" style="stop-color:#259500"/>
				<stop  offset="0.6236" style="stop-color:#158C00"/>
				<stop  offset="0.7879" style="stop-color:#0B8700"/>
				<stop  offset="1" style="stop-color:#088500"/>
			</radialGradient>
			<path class="st2" d="M83.2,147c9.5,0.6,41.2,0.9,54.4-5.4c5.3-2.5,9-5.1,11.5-7.3c0.4-14.7,1.9-43.5,1.9-58.6c0-1.2,0-2.5,0-3.8
				c-1.2,1.5-3,3.3-5.4,3.8c-4.3,0.9-16.8-1.3-25-1.5S72.9,72.7,60,73.8s-34.1-0.2-40.2-1.1c-3.3-0.5-6.4-2.7-8.5-4.5
				c-1,11-2,22.9-1.8,31.5c0.2,9.6,1.4,24.1,2.6,36.6c3.7,2.5,11.3,6.3,22.8,6.7C52.1,143.4,73.7,146.4,83.2,147z"/>
			
				<radialGradient id="SVGID_7_" cx="76.5228" cy="151.5872" r="94.504" gradientTransform="matrix(1 0 0 -1 0 246)" gradientUnits="userSpaceOnUse">
				<stop  offset="0" style="stop-color:#9AD700"/>
				<stop  offset="7.900918e-02" style="stop-color:#7FC800"/>
				<stop  offset="0.2045" style="stop-color:#5BB300"/>
				<stop  offset="0.3366" style="stop-color:#3DA300"/>
				<stop  offset="0.4754" style="stop-color:#259500"/>
				<stop  offset="0.6236" style="stop-color:#158C00"/>
				<stop  offset="0.7879" style="stop-color:#0B8700"/>
				<stop  offset="1" style="stop-color:#088500"/>
			</radialGradient>
			<path class="st3" d="M80,110.5c-12.9-0.7-26-1.5-38.9-2.7c-10.9-1-21.8-3-31.6-7.8c0.2,9.6,1.4,23.9,2.6,36.2
				c3.7,2.5,11.3,6.3,22.8,6.7c17.1,0.6,38.8,3.5,48.3,4.1s41.2,0.9,54.4-5.4c5.3-2.5,9-5.1,11.5-7.3c0.3-9.1,0.9-23.5,1.4-36.7
				C129.7,110.8,104,111.8,80,110.5z"/>
			<g class="st4">
				<path class="st5" d="M137,28.1c-2-3.3-6-3.7-9.5-4c-4.9-0.4-10.1,0.5-15,1.1c-0.1,0-0.1,0.1,0,0.1c3.9-0.1,7.7-0.4,11.6-0.2
					c4.3,0.2,9.1,0.5,12.6,3.2C136.8,28.5,137.1,28.3,137,28.1z"/>
				<path class="st5" d="M147.5,19.4c-1.8,3.5-4.2,6.2-4.6,10.2c-0.5,4.6-1.7,9-1.5,13.6c0.2,4.8,0.9,9.5,0.4,14.3
					c-0.4,4.8-1.1,9.6-0.5,14.4c0,0.2,0.3,0.2,0.3,0c1.2-8.8,1.4-17.8,1.1-26.7c-0.1-4.4,0.9-8.4,1.4-12.8c0.3-2.2,0.3-4.3,0.9-6.5
					c0.6-2.3,2-4.2,2.8-6.4C147.9,19.4,147.6,19.3,147.5,19.4z"/>
				<path class="st5" d="M22.7,38.1c-0.4-6.7-3.1-12.4-6.5-18.1c-0.1-0.1-0.2,0-0.1,0.1c2.9,5.8,4.6,12.6,5.3,19
					c0.7,6.8-0.4,13.6-0.7,20.4c0,0.2-0.1,7.3-0.1,7.1C21.9,53.6,22.9,40.9,22.7,38.1z"/>
				<path class="st5" d="M27.3,23.2c-1.3-0.8-2.7-1.4-4.1-2.1c-1.4-0.6-2.7-1.6-4-2.4c-0.1-0.1-0.3,0.1-0.2,0.2c2.1,2,4.9,5,8.1,4.8
					C27.4,23.6,27.5,23.3,27.3,23.2z"/>
				<path class="st5" d="M57.5,24.1c-4.6-0.1-9.1-0.9-13.7-1.4c-4.7-0.5-9.5,0-14.2,0.4c-0.2,0-0.2,0.3,0,0.3
					c4.4,0.4,8.8,0.3,13.2,0.5c5,0.2,9.7,0.9,14.8,0.5C57.7,24.4,57.7,24.1,57.5,24.1z"/>
				<path class="st5" d="M136.7,178c-3.7,1.4-7.3,3-11.1,4c-4.2,1.1-8.4,2-12.5,3.3c-9.6,3.1-19.6,4.9-29.7,5.8
					c-10.1,0.8-20.3,0.4-30.4-1c-4.8-0.7-9.7-1.4-14.2-2.9c-4.2-1.4-8.1-3.6-12.5-4.3c-0.2,0-0.3,0.3-0.1,0.3
					c4.2,1.4,8.1,3.5,12.3,5c4.8,1.8,10.2,2.4,15.3,3.1c9.8,1.4,19.8,1.7,29.7,0.9c9.8-0.7,19.6-2.7,29-5.5c4.5-1.3,9-2.5,13.4-3.8
					c3.8-1.1,7.9-2.3,11-4.7C137,178.1,136.9,177.9,136.7,178z"/>
				<path class="st5" d="M145.3,153c0-0.1-0.1-0.1-0.1,0c0,6.3-4,17.7-6.8,21.2c-0.1,0.1,1.5-1.2,2.8-3.5
					C144.3,165.4,145.4,158.8,145.3,153z"/>
				<path class="st5" d="M145.3,177.2c-1.5,2.3-3.6,4.3-5.4,6.4c-1.9,2.2-3.4,4-6.1,5.3c-0.1,0.1,0,0.2,0.1,0.2
					c4.8-1.5,10.3-6.9,11.7-11.8C145.5,177.1,145.3,177,145.3,177.2z"/>
				<path class="st5" d="M146.5,169.1c-0.7,0.6-1.1,1.5-1.5,2.3c-0.5,0.9-1.2,1.7-2,2.4c-0.1,0.1,0,0.2,0.1,0.1
					c1.5-1,3.7-2.6,3.7-4.6C146.9,169,146.7,169,146.5,169.1z"/>
				<path class="st5" d="M15.3,191c-2.5-2.1-5.4-3.4-7.1-6.3c-0.1-0.1-0.2,0-0.2,0.1c1.4,3,2,4.5,5.2,5.4
					C13.3,190.3,15.4,191.1,15.3,191z"/>
				<path class="st5" d="M21.9,184.5c-2.3-1.7-4.6-3.4-6.4-5.6c-1.5-1.9-4.3-4.8-3-7.4c0.1-0.1-0.1-0.2-0.1-0.1
					c-1.9,2.4-0.7,4,0.9,6.5c1.9,3.1,5.4,5.2,8.6,6.8C21.9,184.8,22,184.6,21.9,184.5z"/>
				<path class="st5" d="M21.1,174.9c-3.7-8.4-5.4-17.2-7.6-26c0-0.1-0.1-0.1-0.1,0c0.5,9.2,2.8,18.2,7.5,26.2
					C21,175.2,21.2,175.1,21.1,174.9z"/>
				<path class="st5" d="M150.9,185.6c-0.1-0.1-0.2-0.1-0.2,0.1c0.2,2.1-1.9,3.8-3.3,4.9c-1.6,1.2-3.2,2.2-4.9,3.2
					c-0.1,0,0,0.2,0.1,0.1C144.7,192.7,153.5,189.3,150.9,185.6z"/>
				<path class="st5" d="M148.4,180c0-0.1-0.1-0.1-0.1,0c-0.2,0.9-0.6,1.7-0.9,2.5c-0.3,1.1-0.9,1.7-1.7,2.5c-0.1,0.1,0,0.2,0.1,0.1
					c0.7-0.7,1.6-1.4,2.1-2.2C148.7,182.1,148.5,181.1,148.4,180z"/>
				<path class="st5" d="M143.2,197.6c-4.8-2.8-8.3-1.7-11.7-0.4c-4.5,1.7-9,2.8-13.8,3.2c-0.1,0-0.1,0.2,0,0.2
					c3.4,0.3,7-0.5,10.2-1.3c4.7-1.1,7.8-3.4,12.8-2.3C140.9,197,143.3,197.7,143.2,197.6z"/>
			</g>
			
				<radialGradient id="SVGID_8_" cx="67.3933" cy="145.2528" r="113.5279" gradientTransform="matrix(1 0 0 -1 0 246)" gradientUnits="userSpaceOnUse">
				<stop  offset="0.3873" style="stop-color:#AD9783"/>
				<stop  offset="1" style="stop-color:#7C5D3F"/>
			</radialGradient>
			<path class="st6" d="M150.7,188c0,0,0.8-1.1,0.6-1.7c-0.5-1.5-2.8-3.8-2.8-4.7c0-0.9,0.6-30.6,0.6-41.4s2.1-47,2.1-64.7
				s-1.7-45.6-0.4-51.1C152.1,19,156,13,156,13c-0.9-1.9-1.3-5.6-1.3-5.6c-2.4,0.4-5.7,1.7-9,3.1c-3.4,1.4-3.6,1.8-6.6,1.7
				c-2.9-0.1-11-1.1-24.9-3.5c-3.9-0.7-7.5-1.1-10.9-1.3c2.4,0.5,4.7,1.1,7,1.9c3.7,1.3,7.2,1.9,11.1,2c3.3,0.1,6.9,0,9.9,1.3
				c2.7,1.1,5.5,3.5,8.6,3.2c2.5-0.3,4.2-1.8,6.1-3.2c1.5-1.1,3.4-2.7,5.3-3c0.9-0.1,2.6,0.4,2.5,1.6c-0.2,1.4-2.2,2.4-3.3,3
				c-4.6,2.4-9.4,3.8-14.6,2.9c-15.5-2.6-31.6-3.7-47.3-2.1c5.7,0.5,11.4,1.2,17.2,1.9c4.6,0.6,9.9-0.1,14.1,2.3
				c0.2,0.1,0.2,0.4-0.1,0.5c-7.6,2.4-15.7,0.8-23.5,0.9c-8.9,0.1-17.9,0.6-26.8,0.6c-7.4,0-14.8-0.2-22.2,0.3
				c-3.1,0.2-6.3,0.4-9.5,0.1c-2.3-0.2-4.7-0.5-6.6-1.9c-0.2-0.1-0.2-0.4,0-0.5c1.7-1.2,3.6-2,5.6-2.5c-9.4,0.1-18.9-1.3-26.8-6.8
				C9.9,9.8,9.8,9.7,9.9,9.6c0.8-3.8,6.2-2.8,8.9-2.2c5.6,1.1,11.1,2.5,16.7,3.6c6.6,1.3,9.1,1.2,15.8,0.4c5.2-0.7,14.4-1.2,19.3-3
				c-8.8,0.8-18.6,1.8-22.9,2.5c-6,1-11.6-0.8-21-2.4C17.3,7,10.8,3.6,9.4,3.2C8,2.8,7.9,3.3,7.9,3.3c-1.1,2-1.7,5.2-1.7,5.2
				s2.7,7.4,5.6,13.4c2.9,6,1.7,10.5,2,18S9.3,80.8,9.7,99.1c0.4,18.3,4.5,54.8,4.9,60.5s0.8,7.1-0.3,8.8c-1.1,1.7-2.7,3.1-3.1,4.3
				c-0.4,1.3,0.8,2.7,0.8,2.7c-1.4,1.1-2.2,2.8-3.6,3.9c-1.4,1.1-2,1.7-1.5,3.8c0.4,2.1,0.3,1.7-1.8,3.6c-2.1,2-5.5,5-5.2,7
				s1.5,2.8,5,2.1c3.5-0.7,3.9-3.2,10.9-0.6c7,2.7,14.4,1.3,18.3,1.1c3.9-0.1,11.3,1.7,21.4,2.8c10.1,1.1,21.1,1.7,37.3,2.7
				s15.9-0.9,24.5-0.6s11-2.1,12.4-2.2s6.1-0.2,9.3-0.8c3.2-0.6,6.3,0.1,8.5,0.4s8,0.7,8.2-1.6c0.3-2.3-0.1-2.2-2.2-5.1
				C151.4,189.5,150.7,188,150.7,188z M146.5,156.5c0-0.2,0.3,0,0.4,0.1c4.3,7.1-2.4,16.8-8.8,20.2c-0.2,0.1-2.3,0.8-2.1,0.6
				c5.9-4.2,6.6-6.5,8.4-9.8c1.4-2.8,1.6-4.7,1.8-6.4C146.5,159.8,146.5,158.3,146.5,156.5z M33.4,193.5c-1.6,1.9-4.3,2.2-6.5,2.1
				c-2.8-0.1-5.7-0.7-8.4-1.4c-1.4-0.4-2.8-0.8-4.2-1.3c-1.6-0.5-3.7-1.3-5.4-0.9c-2.6,0.6-4.2,3.1-7.1,2.2c-0.1,0-0.3-0.2-0.2-0.3
				c3.7-9.1,14.4-1.6,21.4-1c-3.8-1.4-7.8-2.6-10.9-5.1c-1.4-1.2-2.8-2.5-3.2-4.3c-0.2-1,0-3.1,1.1-3.6c0.9-0.5,1.8,0.5,2.5,1
				c1.7,1.1,3.6,1.8,5.2,2.9c3.8,2.6,7.3,5.7,11.7,7.2c0.1,0,0.1,0.1,0.2,0.2c1.4,0.5,2.7,1.2,3.9,2.1
				C33.5,193.3,33.5,193.4,33.4,193.5z M23.8,180.4c1,3.6,3.7,6.2,6.7,8.2c0.3,0.2,0.1,0.6-0.2,0.5c-4-1-7.6-3.8-10.5-6.7
				c-2.7-2.8-5.5-6.3-6-10.3c0-0.2,0.3-0.3,0.4-0.2c1.2,0.7,2.2,1.6,3.1,2.6c0.9,0.9,2,2.3,3.5,2.3c2.1,0,3.8-1.9,5.3-3.1
				c1.7-1.4,4.1-2.7,4.6-5c0.8-4-1.7-7.7-2.5-11.5c-0.8-4.1-1.3-8.3-1.8-12.4c-0.5-4.4-1-8.9-1.3-13.3c-1.5-18-1.9-36-1.6-54
				c0.1-3.9,0.2-7.7,0.1-11.6c-0.1-3.5-0.1-7.1,0.7-10.6c0.6-2.9,1.7-5.4,4-7.3c1.2-1,2.4-1.8,3.6-2.8c0.9-0.7,2.2-1.6,2.6-2.7
				c0.7-2.2-6-1.3-7.4-2.6C21,34.6,17.6,20.3,13.9,16c-0.2-0.2,0.2-0.5,0.4-0.3c7.6,7.8,10,9.3,17.4,11.7c-0.5-0.7-0.8-1.4-1.3-2
				c-0.2-0.2,0-0.5,0.3-0.5c5.8,1,11.7,0.8,17.6,0.7c9.2-0.3,18.3,0.4,27.4,0.6c9,0.3,17.9-0.7,26.8-0.1c4,0.3,8.1,0.9,12.1,1
				c2.7,0.1,5.4,0.2,8.1,0.5c4.7,0.6,10.3-1.4,13.3,2.7c1.5,4.7,3.8-4.4,7-6.9c0.2-0.1,0.3,0,0.4,0.2c0.7,1.8-0.8,3.1-1.3,4.8
				c-0.7,2.3-0.6,5.2-1.2,7.5c-0.6,2.8,0,5.7,0.5,8.5s1.1,5.6,1.2,8.4c0.3,6.5-1.4,12.9-2.5,19.3c-0.6,3.4-1.2,6.9-1.2,10.5
				c-0.1,3.4,0,6.9,0.2,10.3c0.5,8.5,1.4,16.9,1.3,25.4c0,3.8-0.1,7.7,0.4,11.5c0.4,3.8,1.5,7.3,3,10.7c1.3,2.8,1.6,5.4,1.1,8.5
				c-0.7,3.9-3.1,6.5-4.9,10c-1.8,3.4-4.5,5.7-7.3,8.4c-11.4,11.3-40.1,15.4-43.8,16c16.4-0.6,43.2-8.6,45.9-9.1
				c0.3-0.1,0.5,0.3,0.3,0.5c-2,2.4-5.1,3.5-7.9,4.6c-3.5,1.3-6.8,3-10.3,4.2c-15,5.5-31.4,7.3-47.3,6.5
				C54.2,189.3,38.5,186.1,23.8,180.4z M137.1,193.4c-4.4,1.4-8.9,2.9-13.5,4.1c-8,2.1-16.3,2.5-24.5,2.3
				c-11.1-0.3-22.2-1.4-33.2-2.6c-8.4-0.9-21.3,1.2-28.8-5.2c-2.6-2.2-5.2-4.8-5-4.8c9.6,4.5,14.3,5.3,19.2,6
				c13.3,2.1,27.9,2.4,41.4,1.3c7.8-0.7,15.7-2.1,23.3-4.1c7.9-2,22.1-8.7,29.5-16.2c0.2-0.2-2.6,4.9-5.6,8.2
				c-6.9,7.7-19.3,11.7-36.6,14.3c11.1,1,34.9-5.5,41.6-13.1c0.1-0.1-9.1,9.6,1.8,3.7C149.9,185.4,144.7,191,137.1,193.4z
				 M153.7,196.1c-0.8,0.3-1.5,0.4-2.2-0.1c-0.7-0.4-1-1.3-1.7-1.6c-1.3-0.7-2.3,0.2-3.4,0.7c-0.8,0.3-1.5,0.2-2.4-0.1
				c-0.2-0.1-0.2-0.3-0.1-0.4c1.4-1.6,3.3-2.5,5.1-3.7c0.2-0.1,0.4,0,0.4,0.2c1.9,0.1,3.6,3.1,4.4,4.6
				C154,195.9,153.9,196.1,153.7,196.1z"/>
			
				<radialGradient id="SVGID_9_" cx="67.3929" cy="145.2543" r="113.5284" gradientTransform="matrix(1 0 0 -1 0 246)" gradientUnits="userSpaceOnUse">
				<stop  offset="0.3873" style="stop-color:#AD9783"/>
				<stop  offset="1" style="stop-color:#7C5D3F"/>
			</radialGradient>
			<path class="st7" d="M153.2,12.5c-0.7,0.9-2.1,1.6-2.9,2c-3.9,2.1-8.1,3.4-12.5,3.1c-0.3,0-0.6,0-0.9,0c-5.3,0-10.6-0.9-15.9-1.8
				c0.3,0.1,0.7,0.2,1,0.3c3.5,1.1,7.3,2.3,10.4,4.2c1.4,0.9,2.7,1.8,4.2,2.6c0.2,0.1,1.8,1,2,0.9c0.2-0.2,0.5-0.4,0.7-0.6
				c0.8-0.7,1.7-1.5,2.6-2c1.4-0.7,3-1,4.5-1.3c0.2,0,0.5,0.2,0.3,0.4c-4.6,7-5.4,15.1-5.1,23.3c2.1-6.3,2.8-13,6.3-18.8
				c0.1-0.2,0.4-0.2,0.5,0.1c1.8,4.6-0.6,10.1-1,14.8c-0.5,6.4-0.6,12.7-0.3,19.1c0.9,17.9,1.8,36.2,0.1,54.1c-0.4,4.3-0.9,8.7-1,13
				c-0.1,4.5,0.5,8.7,1.4,13c0.4,1.7,0.7,3.5,1,5.3c0-1.4,0-2.7,0-3.8c0-10.8,2.1-47,2.1-64.7s-1.7-45.6-0.4-51.1
				c1.3-5.4,5.2-11.4,5.2-11.4c-0.2-0.4-0.4-0.9-0.5-1.4C154.7,12,153.9,12.2,153.2,12.5z"/>
			
				<radialGradient id="SVGID_10_" cx="67.394" cy="145.2526" r="113.5276" gradientTransform="matrix(1 0 0 -1 0 246)" gradientUnits="userSpaceOnUse">
				<stop  offset="0.3873" style="stop-color:#AD9783"/>
				<stop  offset="1" style="stop-color:#7C5D3F"/>
			</radialGradient>
			<path class="st8" d="M13.6,40.3c0.3,7.5-4.5,40.9-4.1,59.2c0.4,18.3,4.5,54.8,4.9,60.5s0.8,7.1-0.3,8.8c-0.5,0.7-1,1.3-1.5,1.9
				c2.1-0.8,6.6,3.7,8.8,5.9c0.1,0,0.2,0,0.3-0.1c-0.8-3.9-2.4-7.8-1.7-11.9c0-0.1,0.2-0.3,0.3-0.2c4.8,18,0-10.9,9,1.4
				c-1.3-2.9-2.2-6.1-2.9-9.2c-1.3-5.9-2.1-12-2.8-18c-0.7-5.8-1.7-11.6-2.1-17.4c-0.3-4.8-2.4-27.1-2.7-40.2
				c-2.5,11.2-0.9,35-0.6,39.6c0.4,4.8,1.1,9.5,1.6,14.3c0.5,4.5,1.3,8.9,1.9,13.3c0.5,3.8,1,8.2-0.8,11.8c-0.1,0.2-0.3,0.2-0.4,0.1
				c-2.9-2.7-3.8-7.2-4.4-10.9c-0.7-4.4-1-8.8-1.6-13.2c-0.5-3.8-1.1-7.6-1.4-11.5c-0.3-4.5-0.5-8.9-0.5-13.4
				c-0.1-7.9-0.2-15.8-0.3-23.7c-0.1-15.3,0.2-31.2,5.3-45.8c0.1-0.3,0.5-0.3,0.5,0c3.3,12.4,1.1,25.3,1.8,37.9
				c1.4-6,2.1-12.2,2.7-18.3c0.3-3.3,0.6-6.6,1-9.9c0.4-3.1,0.8-6.2,0.9-9.3c0-1.9,0-3.7-0.4-5.5c-1.9-2.7-3.5-6.2-4.9-9.5
				c-0.1-0.2-0.3-0.4-0.4-0.6c-3.1-4.1-6.6-8.2-8.5-13.1c-0.1-0.2,0.2-0.4,0.3-0.3c8.2,3.1,16.6,6.6,25.3,3.9
				c-9.3,0.1-18.5-1.4-26.3-6.8C9.5,10,9.4,9.9,9.5,9.8c0-0.2,0.1-0.4,0.2-0.6C8.6,7.4,8.9,5.5,10,3.7C9.6,3.5,9.3,3.4,9.1,3.4
				C7.7,3,7.6,3.5,7.6,3.5c-1.1,2-1.7,5.2-1.7,5.2s2.7,7.4,5.6,13.4C14.6,28.3,13.4,32.8,13.6,40.3z"/>
			
				<radialGradient id="SVGID_11_" cx="67.3951" cy="145.2487" r="113.5257" gradientTransform="matrix(1 0 0 -1 0 246)" gradientUnits="userSpaceOnUse">
				<stop  offset="0.3873" style="stop-color:#AD9783"/>
				<stop  offset="1" style="stop-color:#7C5D3F"/>
			</radialGradient>
			<path class="st9" d="M11.9,176c-1.1,0.9-1.8,2.1-2.8,3.1c2.4-0.1,4.9,1.6,6.9,3c1.8,1.3,3.5,2.7,5.3,4c0.4,0.3,0.8,0.6,1.1,0.9
				c0.5,0.4,1.1,0.8,1.7,1.1c-2.6-2.7-6.1-4.7-8.8-7.3C13.9,179.5,12.5,177.8,11.9,176z"/>
			<path class="st10" d="M112.6,29.9c-16.9-0.4-33.7,0.7-50.6,0.4c-4-0.1-8,0-11.9-0.3c-3.5-0.3-6.7-1.2-10.1-2.1
				c-3.6-0.9-6,0.3-6.2,3.8c-4.4-0.9-7.1-4.6-11-6.5c-0.4-0.2-0.7,0.4-0.3,0.6c4.3,2.6,6.9,7.3,12.2,7.9c0.5,0.1,0.9-0.4,0.9-0.9
				c-0.1-3.4,1.7-3.6,4.5-2.9c2.3,0.6,4.4,1.3,6.8,1.6c7.2,0.8,14.6,0.4,21.8,0.3c14.7-0.1,29.3-0.9,43.9-1.3
				C112.9,30.4,112.9,29.9,112.6,29.9z"/>
			<path class="st10" d="M104.8,19.6c-22.8-3-45.4-1.6-68.2,0.3c-0.2,0-0.2,0.3,0,0.3c22.7,0.2,45.6-2.6,68.2-0.2
				C105,20,105,19.6,104.8,19.6z"/>
			<path class="st10" d="M114.5,181.2c-6.7,1.6-13.3,3.1-20.2,3.8c-6.3,0.6-12.7,0.9-19.1,0.8c-12.7-0.1-25.8-1.8-37.8-5.9
				c-0.1,0-0.1,0.1-0.1,0.1c11.7,5,24.2,7.4,36.9,7.7c13.4,0.3,27.7-1.5,40.3-6.1C114.8,181.4,114.7,181.1,114.5,181.2z"/>
			<path class="st10" d="M136.8,151.6c-7.5,9.4-15.9,16.9-26.9,22c-10.1,4.7-21.1,7.5-32,9.6c-0.1,0-0.1,0.2,0,0.2
				c22.5-3.3,47.7-9.7,59.1-31.6C137.1,151.6,136.9,151.4,136.8,151.6z"/>
			<path class="st10" d="M127.3,188.1c-9.4,3.6-19.3,5.5-29.2,7.1c-10.7,1.7-21.8,2.5-32.5,0.4c-0.1,0-0.1,0.1,0,0.1
				c10.1,2.5,20.6,2.7,30.9,1.2c10.3-1.4,21.8-3.3,31-8.4C127.8,188.4,127.6,188,127.3,188.1z"/>
			<path class="st10" d="M27.5,191.8c-4.5-4.5-11.4-4.7-15.7-9.5c-0.2-0.2-0.5,0.1-0.3,0.3c4,5.1,10.2,6.6,15.7,9.6
				C27.5,192.3,27.7,192,27.5,191.8z"/>
			<path class="st10" d="M27.4,152.8c0-0.1-0.2-0.1-0.2,0.1c0.7,4.2,3.5,7.1,5.1,10.9c2,4.8-3.1,8.7-6.2,11.5
				c-0.1,0.1,0.1,0.4,0.2,0.3c2.9-2.2,7.5-5,7.8-9.1C34.4,161.1,28.8,157.8,27.4,152.8z"/>
		</g>
	</g>
	<g>
		<g>
			<g>
				
					<radialGradient id="SVGID_12_" cx="164.4266" cy="231.3447" r="55.0133" gradientTransform="matrix(1 0 0 -1 0 246)" gradientUnits="userSpaceOnUse">
					<stop  offset="0" style="stop-color:#FFFFFF"/>
					<stop  offset="1" style="stop-color:#CFD5CE"/>
				</radialGradient>
				<path class="st11" d="M101,14.6c3.6-0.6,7.8-0.8,10.5-1c2.6-0.2,5,0.2,9.9,0.9s12.6,4.6,16.5,4.8s4.8,2.1,18,1.3
					c13.2-0.9,15.9,0.4,20.3-0.8c3.4-1,23.3-7.8,32.6-9.1s22.5,0.2,25.7,1c2.2,0.6,5.3,1.6,7.2,2.2c0.2-0.4,0.3-0.7,0.5-1.1
					c-1.7-0.7-9.3-3.6-17.1-4.1c-9-0.6-21.5-0.9-35.9,3.8c-14.3,4.7-15.6,4.6-25.9,5.5c-10.3,0.9-20,0.8-22.4,0.4
					c-2.5-0.4-9.4-1.8-13.3-3.7c-3.9-1.9-12.2-2.5-16.3-2.7s-9.4,0.6-14.3,1.7c-4.6,1.1-5.9,0-9.8,1.9c0.2,0.5,0.5,1,0.7,1.6
					c1.1-0.5,2.6-0.9,4.3-1.2C95.6,15.6,97.5,15.2,101,14.6z"/>
				
					<linearGradient id="SVGID_13_" gradientUnits="userSpaceOnUse" x1="85.9831" y1="234.8882" x2="243.28" y2="234.8882" gradientTransform="matrix(1 0 0 -1 0 246)">
					<stop  offset="0" style="stop-color:#480000"/>
					<stop  offset="1" style="stop-color:#E10000"/>
				</linearGradient>
				<path class="st12" d="M111,12.1c4.1,0.2,12.4,0.8,16.3,2.7c3.9,1.9,10.9,3.3,13.3,3.7c2.5,0.4,12.1,0.6,22.4-0.4
					c10.3-1,11.6-0.9,25.9-5.5c14.3-4.7,26.9-4.4,35.9-3.8c7.9,0.5,15.4,3.4,17.1,4.1c0.4-0.8,0.7-1.7,1-2.5c0,0-0.1,0.1-0.2,0.1
					c0.1-0.1,0.1-0.1,0.2-0.2c0.3-0.3,0-0.8-0.4-0.7c-0.8,0.1-1.5,0.5-2.2,0.7c0-0.2-0.1-0.5-0.1-0.7c0-0.3,0-0.7-0.1-1
					c0-0.3-0.4-0.6-0.7-0.3c-0.4,0.4-1.1,0.7-1.5,1.2c-0.1-0.3-0.3-0.6-0.5-0.9c-0.3-0.5-0.5-0.9-0.8-1.4c-0.1-0.2-0.5-0.3-0.7-0.1
					c-0.5,0.5-1,0.9-1.5,1.4c-0.4-0.7-0.5-1.4-0.9-2.1c-0.1-0.2-0.4-0.3-0.6-0.1c-0.5,0.4-1,0.8-1.5,1.2c0-0.1-0.1-0.1-0.1-0.2
					c-0.2-0.5-0.4-1-0.6-1.6c-0.1-0.2-0.4-0.4-0.6-0.2c-0.5,0.4-1.2,0.8-1.7,1.3c-0.1-0.2-0.3-0.4-0.5-0.7c-0.3-0.4-0.5-0.8-0.8-1.2
					c-0.1-0.2-0.4-0.3-0.6-0.2c-0.6,0.4-1.1,0.9-1.5,1.5c-0.5-0.6-1-1.2-1.5-1.8c-0.1-0.1-0.4-0.2-0.5-0.1c-0.6,0.5-1.1,1.1-1.5,1.8
					c-0.5-0.5-0.9-1.1-1.4-1.7c-0.2-0.2-0.4-0.2-0.6,0c-0.3,0.3-0.8,0.9-1,1.4c-0.5-0.6-1-1.2-1.5-1.9c-0.2-0.2-0.6-0.2-0.7,0.1
					c-0.2,0.5-0.5,1.1-0.7,1.7c-0.2-0.2-0.5-0.5-0.7-0.7c-0.4-0.5-0.8-1.1-1.3-1.5c-0.3-0.2-0.6-0.1-0.8,0.2
					c-0.3,0.7-0.7,1.5-0.9,2.3c-1-0.3-1.8-1.2-2.5-1.9c-0.2-0.2-0.5-0.2-0.7,0c-0.5,0.6-0.8,1.3-1.2,2c-0.4,0.6-2-1.5-2.4-1.8
					c-0.2-0.1-0.5,0-0.6,0.1c-0.4,0.7-0.8,1.5-1.2,2.2c-0.3-0.2-0.6-0.4-0.8-0.6c-0.4-0.3-0.8-0.6-1.3-0.9C201,5,200.7,5,200.6,5.3
					c-0.2,0.5-0.4,1.1-0.5,1.6c0,0.2-0.1,0.4-0.1,0.6c-0.9-0.5-1.9-1-2.8-1.3c-0.3-0.1-0.5,0.1-0.6,0.3c-0.2,0.5-0.5,1-0.7,1.6
					c-0.1-0.1-0.3-0.2-0.5-0.3c-0.4-0.3-0.9-0.6-1.3-0.9c-0.3-0.2-0.7-0.2-0.8,0.2c-0.3,0.8-0.6,1.6-0.8,2.5
					c-0.3-0.2-0.5-0.5-0.8-0.7s-0.8-0.6-1.2-0.5c-0.7,0.3-1,1.2-1.2,1.9c-0.8-0.4-1.6-0.9-2.4-1.4c-0.2-0.1-0.5,0-0.6,0.2
					c-0.3,0.6-0.8,1.3-0.9,2c-0.8-0.4-1.8-0.5-2.3-1.2c-0.1-0.2-0.5-0.2-0.6,0c-0.5,0.6-1,1.4-1.2,2.2c-0.6-0.5-1.3-0.8-1.8-1.3
					c-0.2-0.2-0.5-0.1-0.7,0.1c-0.4,0.6-0.8,1.1-1.2,1.6c-0.9-0.4-1.7-0.9-2.5-1.4c-0.2-0.1-0.4-0.1-0.5,0.1c-0.6,0.7-1,1.5-1.3,2.4
					c-0.7-0.5-1.5-0.9-2.1-1.5c-0.2-0.2-0.4-0.2-0.7,0c-0.8,0.6-1.4,1.4-1.9,2.3l0,0c-0.7-0.4-1.3-0.7-1.9-1.2
					c-0.2-0.2-0.5-0.2-0.7,0.1c-0.4,0.7-0.6,1.5-0.9,2.3c-0.6-0.5-1.3-0.9-1.9-1.4c-0.2-0.2-0.5-0.2-0.7,0.1c-0.3,0.5-0.8,1.1-1,1.7
					c-0.7-0.5-1.6-0.9-2.4-1.3c-0.2-0.1-0.5-0.1-0.6,0.2c-0.3,0.6-0.7,1.2-0.9,1.9c-0.7-0.5-1.6-0.7-2.3-1.4c-0.1-0.1-0.4-0.1-0.5,0
					c-0.5,0.5-1,1-1.3,1.6c-0.6-0.8-1.9-1.1-2.7-1.7c-0.2-0.1-0.4,0-0.6,0.1c-0.3,0.5-0.7,1-0.9,1.5c-0.7-0.6-1.6-1.1-2.3-1.7
					c-0.2-0.1-0.4-0.2-0.5,0c-0.4,0.4-0.8,0.9-1.2,1.5c-0.8-0.7-1.6-1.4-2.3-2.1c-0.1-0.1-0.3-0.1-0.5-0.1c-0.7,0.3-1.4,0.9-1.8,1.5
					c-0.9-0.7-1.7-1.7-2.8-2.2c-0.6-0.2-1.3,0.5-1.8,1.1c-0.4-0.6-1-1.4-1.7-1.4s-1.1,0.5-1.4,1.1c-0.7-0.8-1.5-1.6-2.3-2.4
					c-0.1-0.1-0.4-0.2-0.5-0.1c-0.4,0.3-1,0.8-1.3,1.3c-1-0.6-1.7-1.7-2.3-2.6c-0.2-0.2-0.4-0.3-0.7-0.1c-0.5,0.4-1,0.8-1.4,1.2
					c-0.7-0.7-1.3-1.6-1.8-2.5c-0.1-0.2-0.5-0.3-0.6-0.1c-0.4,0.4-0.8,0.9-1.1,1.3c-0.5-0.7-1.1-1.3-1.6-1.9c-0.2-0.2-0.4-0.1-0.6,0
					c-0.4,0.3-0.8,0.7-1.2,1.1c-0.7-0.6-1.3-1.3-2-2c-0.2-0.2-0.4-0.1-0.5,0c-0.6,0.5-1.1,0.9-1.5,1.5c-0.9-0.6-1.9-0.8-2.6-1.6
					c-0.2-0.2-0.5-0.1-0.6,0.1c-0.4,0.5-0.6,1.1-0.9,1.6C108.9,9,108.4,8.6,108,8c-0.2-0.2-0.4-0.3-0.7-0.1c-0.5,0.4-0.9,1-1.3,1.6
					c-0.5-0.4-1-0.8-1.5-1.3c-0.1-0.1-0.4-0.1-0.5,0c-0.4,0.4-0.8,1-1,1.6c-0.8-0.3-1.7-0.6-2.2-1.3c-0.2-0.2-0.5-0.1-0.6,0.1
					c-0.5,0.7-0.9,1.4-1.3,2.1c-0.7-0.1-1.4-0.5-1.9-1c-0.2-0.2-0.6-0.1-0.6,0.2c-0.1,0.4-0.3,0.9-0.4,1.4c-0.4-0.2-0.8-0.3-1.3-0.5
					c-0.6-0.2-1.1-0.6-1.7-0.8c-0.1,0-0.2,0-0.3,0l0,0c-0.5,0.1-0.7,0.9-0.9,1.3c-0.2,0.4-0.3,0.8-0.4,1.3c-0.4-0.1-0.7-0.3-1-0.4
					c-0.4-0.2-0.7-0.4-1.1-0.6c-0.1-0.1-0.2-0.1-0.3,0c-0.3,0.5-0.5,1.1-0.7,1.7c-0.4,0-0.7,0-1.1,0.1c-0.5,0-1,0-1.4,0.1
					c-0.1,0-0.1,0.1,0,0.2l0.1,0.1c0.2,0.5,0.5,1,0.7,1.5c3.9-1.9,5.2-0.8,9.8-1.9C101.6,12.7,106.9,11.9,111,12.1z"/>
				
					<linearGradient id="SVGID_14_" gradientUnits="userSpaceOnUse" x1="87.5" y1="229.4389" x2="241.4083" y2="229.4389" gradientTransform="matrix(1 0 0 -1 0 246)">
					<stop  offset="0" style="stop-color:#480000"/>
					<stop  offset="1" style="stop-color:#E10000"/>
				</linearGradient>
				<path class="st13" d="M98.9,16.7c3.2-0.6,8.8-1.4,11.9-2.3c3.2-1,10.9,1.2,16.4,3.3s10.6,4.4,10.6,4.4s4.2,0.5,6.8,0.7
					c2.5,0.2,4.8,0.2,8.8,0s10.6,0.1,14.3,0.1s6.9-0.1,13.3-1.8c6.4-1.7,11.4-3.9,18.7-6.1c7.3-2.2,18.7-3.5,25.2-3.3
					c5.7,0.2,12.3,1.6,16.4,2.8c0.1-0.2,0.2-0.4,0.3-0.6c-1.8-0.6-5-1.6-7.2-2.2c-3.2-0.9-16.4-2.3-25.7-1s-29.2,8.2-32.6,9.1
					c-4.4,1.2-7-0.1-20.3,0.8c-13.2,0.9-14.1-1-18-1.3c-3.9-0.2-11.6-4.1-16.5-4.8s-7.3-1.2-9.9-0.9c-2.6,0.2-6.9,0.4-10.5,1
					s-5.5,1-9.1,1.6c-1.7,0.3-3.2,0.8-4.3,1.2c0.3,0.7,0.6,1.3,1,2c1.6-0.6,3.7-1.4,5.5-1.8C97.4,16.7,95.7,17.3,98.9,16.7z"/>
				
					<radialGradient id="SVGID_15_" cx="148.1256" cy="253.2083" r="91.9295" fx="195.7708" fy="260.8569" gradientTransform="matrix(1 0 0 -1 0 246)" gradientUnits="userSpaceOnUse">
					<stop  offset="0.1304" style="stop-color:#FFFFFF"/>
					<stop  offset="0.6917" style="stop-color:#BAA68B"/>
					<stop  offset="0.8529" style="stop-color:#BDA98F"/>
					<stop  offset="0.9357" style="stop-color:#C0AE94"/>
				</radialGradient>
				<path class="st14" d="M242.6,9.6c-0.8,0.1-1.5,0.5-2.2,0.7c0-0.2-0.1-0.5-0.1-0.7c0-0.3,0-0.7-0.1-1c0-0.3-0.4-0.6-0.7-0.3
					c-0.4,0.4-1.1,0.7-1.5,1.2c-0.1-0.3-0.3-0.6-0.5-0.9c-0.3-0.5-0.5-0.9-0.8-1.4c-0.1-0.2-0.5-0.3-0.7-0.1c-0.5,0.5-1,0.9-1.5,1.4
					c-0.4-0.7-0.5-1.4-0.9-2.1c-0.1-0.2-0.4-0.3-0.6-0.1c-0.5,0.4-1,0.8-1.5,1.2c0-0.1-0.1-0.1-0.1-0.2c-0.2-0.5-0.4-1-0.6-1.6
					c-0.1-0.2-0.4-0.4-0.6-0.2c-0.5,0.4-1.2,0.8-1.7,1.3c-0.1-0.2-0.3-0.4-0.5-0.7c-0.3-0.4-0.5-0.8-0.8-1.2
					c-0.1-0.2-0.4-0.3-0.6-0.2c-0.6,0.4-1.1,0.9-1.5,1.5c-0.5-0.6-1-1.2-1.5-1.8c-0.1-0.1-0.4-0.2-0.5-0.1c-0.6,0.5-1.1,1.1-1.5,1.8
					c-0.5-0.5-0.9-1.1-1.4-1.7c-0.2-0.2-0.4-0.2-0.6,0c-0.3,0.3-0.8,0.9-1,1.4c-0.5-0.6-1-1.2-1.5-1.9c-0.2-0.2-0.6-0.2-0.7,0.1
					c-0.2,0.5-0.5,1.1-0.7,1.7c-0.2-0.2-0.5-0.5-0.7-0.7c-0.4-0.5-0.8-1.1-1.3-1.5c-0.3-0.2-0.6-0.1-0.8,0.2
					c-0.3,0.7-0.7,1.5-0.9,2.3c-1-0.3-1.8-1.2-2.5-1.9c-0.2-0.2-0.5-0.2-0.7,0c-0.5,0.6-0.8,1.3-1.2,2c-0.4,0.6-2-1.5-2.4-1.8
					c-0.2-0.1-0.5,0-0.6,0.1c-0.4,0.7-0.8,1.5-1.2,2.2c-0.3-0.2-0.6-0.4-0.8-0.6c-0.4-0.3-0.8-0.6-1.3-0.9c-0.2-0.1-0.5-0.1-0.6,0.2
					c-0.2,0.5-0.4,1.1-0.5,1.6c0,0.2-0.1,0.4-0.1,0.6c-0.9-0.5-1.9-1-2.8-1.3c-0.3-0.1-0.5,0.1-0.6,0.3c-0.2,0.5-0.5,1-0.7,1.6
					c-0.1-0.1-0.3-0.2-0.5-0.3c-0.4-0.3-0.9-0.6-1.3-0.9c-0.3-0.2-0.7-0.2-0.8,0.2c-0.3,0.8-0.6,1.6-0.8,2.5
					c-0.3-0.2-0.5-0.5-0.8-0.7s-0.8-0.6-1.2-0.5c-0.7,0.3-1,1.2-1.2,1.9c-0.8-0.4-1.6-0.9-2.4-1.4c-0.2-0.1-0.5,0-0.6,0.2
					c-0.3,0.6-0.8,1.3-0.9,2c-0.8-0.4-1.8-0.5-2.3-1.2c-0.1-0.2-0.5-0.2-0.6,0c-0.5,0.6-1,1.4-1.2,2.2c-0.6-0.5-1.3-0.8-1.8-1.3
					c-0.2-0.2-0.5-0.1-0.7,0.1c-0.4,0.6-0.8,1.1-1.2,1.6c-0.9-0.4-1.7-0.9-2.5-1.4c-0.2-0.1-0.4-0.1-0.5,0.1c-0.6,0.7-1,1.5-1.3,2.4
					c-0.7-0.5-1.5-0.9-2.1-1.5c-0.2-0.2-0.4-0.2-0.7,0c-0.8,0.6-1.4,1.4-1.9,2.3l0,0c-0.7-0.4-1.3-0.7-1.9-1.2
					c-0.2-0.2-0.5-0.2-0.7,0.1c-0.4,0.7-0.6,1.5-0.9,2.3c-0.6-0.5-1.3-0.9-1.9-1.4c-0.2-0.2-0.5-0.2-0.7,0.1c-0.3,0.5-0.8,1.1-1,1.7
					c-0.7-0.5-1.6-0.9-2.4-1.3c-0.2-0.1-0.5-0.1-0.6,0.2c-0.3,0.6-0.7,1.2-0.9,1.9c-0.7-0.5-1.6-0.7-2.3-1.4c-0.1-0.1-0.4-0.1-0.5,0
					c-0.5,0.5-1,1-1.3,1.6c-0.6-0.8-1.9-1.1-2.7-1.7c-0.2-0.1-0.4,0-0.6,0.1c-0.3,0.5-0.7,1-0.9,1.5c-0.7-0.6-1.6-1.1-2.3-1.7
					c-0.2-0.1-0.4-0.2-0.5,0c-0.4,0.4-0.8,0.9-1.2,1.5c-0.8-0.7-1.6-1.4-2.3-2.1c-0.1-0.1-0.3-0.1-0.5-0.1c-0.7,0.3-1.4,0.9-1.8,1.5
					c-0.9-0.7-1.7-1.7-2.8-2.2c-0.6-0.2-1.3,0.5-1.8,1.1c-0.4-0.6-1-1.4-1.7-1.4s-1.1,0.5-1.4,1.1c-0.7-0.8-1.5-1.6-2.3-2.4
					c-0.1-0.1-0.4-0.2-0.5-0.1c-0.4,0.3-1,0.8-1.3,1.3c-1-0.6-1.7-1.7-2.3-2.6c-0.2-0.2-0.4-0.3-0.7-0.1c-0.5,0.4-1,0.8-1.4,1.2
					c-0.7-0.7-1.3-1.6-1.8-2.5c-0.1-0.2-0.5-0.3-0.6-0.1c-0.4,0.4-0.8,0.9-1.1,1.3c-0.5-0.7-1.1-1.3-1.6-1.9c-0.2-0.2-0.4-0.1-0.6,0
					c-0.4,0.3-0.8,0.7-1.2,1.1c-0.7-0.6-1.3-1.3-2-2c-0.2-0.2-0.4-0.1-0.5,0c-0.6,0.5-1.1,0.9-1.5,1.5c-0.9-0.6-1.9-0.8-2.6-1.6
					c-0.2-0.2-0.5-0.1-0.6,0.1c-0.4,0.5-0.6,1.1-0.9,1.6C109,9,108.5,8.6,108.1,8c-0.2-0.2-0.4-0.3-0.7-0.1c-0.5,0.4-0.9,1-1.3,1.6
					c-0.5-0.4-1-0.8-1.5-1.3c-0.1-0.1-0.4-0.1-0.5,0c-0.4,0.4-0.8,1-1,1.6c-0.8-0.3-1.7-0.6-2.2-1.3c-0.2-0.2-0.5-0.1-0.6,0.1
					c-0.5,0.7-0.9,1.4-1.3,2.1c-0.7-0.1-1.4-0.5-1.9-1c-0.2-0.2-0.6-0.1-0.6,0.2c-0.1,0.4-0.3,0.9-0.4,1.4c-0.4-0.2-0.8-0.3-1.3-0.5
					c-0.6-0.2-1.1-0.6-1.7-0.8c-0.1,0-0.2,0-0.3,0l0,0c-0.5,0.1-0.7,0.9-0.9,1.3c-0.2,0.4-0.3,0.8-0.4,1.3c-0.4-0.1-0.7-0.3-1-0.4
					c-0.4-0.2-0.7-0.4-1.1-0.6c-0.1-0.1-0.2-0.1-0.3,0c-0.3,0.5-0.5,1.1-0.7,1.7c-0.4,0-0.7,0-1.1,0.1c-0.5,0-1,0-1.4,0.1
					c-0.1,0-0.1,0.1,0,0.2l0.1,0.1c0.2,0.5,0.5,1,0.7,1.5s0.5,1,0.7,1.6c0.3,0.7,0.6,1.3,1,2c1.6-0.6,3.7-1.4,5.5-1.8
					c3.4-0.8,1.7-0.2,4.9-0.8s8.8-1.4,11.9-2.3c3.2-1,10.9,1.2,16.4,3.3s10.6,4.4,10.6,4.4s4.2,0.5,6.8,0.7c2.5,0.2,4.8,0.2,8.8,0
					s10.6,0.1,14.3,0.1s6.9-0.1,13.3-1.8c6.4-1.7,11.4-3.9,18.7-6.1c7.3-2.2,18.7-3.5,25.2-3.3c5.7,0.2,12.3,1.6,16.4,2.8
					c0.1-0.2,0.2-0.4,0.3-0.6c0.2-0.4,0.3-0.7,0.5-1.1c0.4-0.8,0.7-1.7,1-2.5c0,0-0.1,0.1-0.2,0.1c0.1-0.1,0.1-0.1,0.2-0.2
					C243.4,10,243,9.5,242.6,9.6z"/>
				
					<radialGradient id="SVGID_16_" cx="148.1112" cy="253.2047" r="91.9539" fx="195.769" fy="260.8554" gradientTransform="matrix(1 0 0 -1 0 246)" gradientUnits="userSpaceOnUse">
					<stop  offset="6.433400e-02" style="stop-color:#957E5E"/>
					<stop  offset="0.1733" style="stop-color:#8F7755"/>
					<stop  offset="0.3083" style="stop-color:#8D7451"/>
					<stop  offset="1" style="stop-color:#C5BAAD"/>
				</radialGradient>
				<path class="st15" d="M184.4,10.7c-0.4-0.2-0.7-0.4-1-0.7c-0.1-0.2-0.5-0.2-0.6,0c-0.4,0.5-0.8,1-1,1.6
					C182.7,11.3,183.5,11,184.4,10.7z"/>
				
					<radialGradient id="SVGID_17_" cx="158.2648" cy="243.4904" r="92.1297" gradientTransform="matrix(1 0 0 -1 0 246)" gradientUnits="userSpaceOnUse">
					<stop  offset="0" style="stop-color:#C5BAAD"/>
					<stop  offset="0.6917" style="stop-color:#8D7451"/>
					<stop  offset="0.8267" style="stop-color:#8F7755"/>
					<stop  offset="0.9357" style="stop-color:#957E5E"/>
				</radialGradient>
				<path class="st16" d="M242.6,9.6c-0.8,0.1-1.5,0.5-2.2,0.7c0-0.2-0.1-0.5-0.1-0.7c0-0.3,0-0.7-0.1-1c0-0.3-0.4-0.6-0.7-0.3
					c-0.4,0.4-1.1,0.7-1.5,1.2c-0.1-0.3-0.3-0.6-0.5-0.9c-0.3-0.5-0.5-0.9-0.8-1.4c-0.1-0.2-0.5-0.3-0.7-0.1s-0.3,0.3-0.5,0.5
					c0.4,0.3,0.8,0.5,1.2,0.8c1.2,0.9,1,3.1-0.8,3.1c-4-0.1-7.9-1.4-11.9-1.7c-3.5-0.3-7.2-0.6-10.8-0.2c-7.3,0.9-13.7,4.9-20.8,6.3
					c-10.8,4.6-22.3,7.3-33.6,4.6c-1.8-0.4-1.4-2.6,0-3.2c3.4-1.4,7.1-1.5,10.6-2.3c3.8-0.8,7.6-1.7,11.3-2.9c0.1,0,0.2-0.1,0.3-0.1
					c-0.5-0.3-1-0.6-1.4-1c-0.2-0.2-0.5-0.1-0.7,0.1c-0.4,0.6-0.8,1.1-1.2,1.6c-0.9-0.4-1.7-0.9-2.5-1.4c-0.2-0.1-0.4-0.1-0.5,0.1
					c-0.6,0.7-1,1.5-1.3,2.4c-0.7-0.5-1.5-0.9-2.1-1.5c-0.2-0.2-0.4-0.2-0.7,0c-0.8,0.6-1.4,1.4-1.9,2.3l0,0
					c-0.7-0.4-1.3-0.7-1.9-1.2c-0.2-0.2-0.5-0.2-0.7,0.1c-0.4,0.7-0.6,1.5-0.9,2.3c-0.6-0.5-1.3-0.9-1.9-1.4
					c-0.2-0.2-0.5-0.2-0.7,0.1c-0.3,0.5-0.8,1.1-1,1.7c-0.7-0.5-1.6-0.9-2.4-1.3c-0.2-0.1-0.5-0.1-0.6,0.2c-0.3,0.6-0.7,1.2-0.9,1.9
					c-0.7-0.5-1.6-0.7-2.3-1.4c-0.1-0.1-0.4-0.1-0.5,0c-0.5,0.5-1,1-1.3,1.6c-0.6-0.8-1.9-1.1-2.7-1.7c-0.2-0.1-0.4,0-0.6,0.1
					c-0.3,0.5-0.7,1-0.9,1.5c-0.7-0.6-1.6-1.1-2.3-1.7c-0.2-0.1-0.4-0.2-0.5,0c-0.4,0.4-0.8,0.9-1.2,1.5c-0.8-0.7-1.6-1.4-2.3-2.1
					c-0.1-0.1-0.3-0.1-0.5-0.1c-0.7,0.3-1.4,0.9-1.8,1.5c-0.9-0.7-1.7-1.7-2.8-2.2c-0.6-0.2-1.3,0.5-1.8,1.1c-0.4-0.6-1-1.4-1.7-1.4
					c-0.2,0-0.4,0-0.5,0.1c0.2,0.1,0.3,0.2,0.5,0.3c1.6,1.1,0.6,3.3-1.3,3c-6.9-1.1-13.5-3.4-20.5-3.3c-6.1,0.1-12.3,2.4-18.3,1.6
					c-1.7-0.2-2.2-2.1-0.8-3.1c0.5-0.4,1-0.7,1.5-1c-0.1,0-0.2-0.1-0.3-0.1c-0.6-0.2-1.1-0.6-1.7-0.8c-0.1,0-0.2,0-0.3,0l0,0
					c-0.5,0.1-0.7,0.9-0.9,1.3c-0.2,0.4-0.3,0.8-0.4,1.3c-0.4-0.1-0.7-0.3-1-0.4c-0.4-0.2-0.7-0.4-1.1-0.6c-0.1-0.1-0.2-0.1-0.3,0
					c-0.3,0.5-0.5,1.1-0.7,1.7c-0.4,0-0.7,0-1.1,0.1c-0.5,0-1,0-1.4,0.1c-0.1,0-0.1,0.1,0,0.2l0.1,0.1c0.2,0.5,0.5,1,0.7,1.5
					s0.5,1,0.7,1.6c0.3,0.7,0.6,1.3,1,2c1.6-0.6,3.7-1.4,5.5-1.8c3.4-0.8,1.7-0.2,4.9-0.8s8.8-1.4,11.9-2.3c3.2-1,10.9,1.2,16.4,3.3
					s10.6,4.4,10.6,4.4s4.2,0.5,6.8,0.7c2.5,0.2,4.8,0.2,8.8,0s10.6,0.1,14.3,0.1s6.9-0.1,13.3-1.8c6.4-1.7,11.4-3.9,18.7-6.1
					c7.3-2.2,18.7-3.5,25.2-3.3c5.7,0.2,12.3,1.6,16.4,2.8c0.1-0.2,0.2-0.4,0.3-0.6c0.2-0.4,0.3-0.7,0.5-1.1c0.4-0.8,0.7-1.7,1-2.5
					c0,0-0.1,0.1-0.2,0.1c0.1-0.1,0.1-0.1,0.2-0.2C243.4,10,243,9.5,242.6,9.6z"/>
				
					<linearGradient id="SVGID_18_" gradientUnits="userSpaceOnUse" x1="81.8" y1="50.8501" x2="251.4001" y2="50.8501" gradientTransform="matrix(1 0 0 -1 0 246)">
					<stop  offset="0" style="stop-color:#480000"/>
					<stop  offset="1" style="stop-color:#E10000"/>
				</linearGradient>
				<path class="st17" d="M248.6,188.2c-1,0.4-2.3,1.1-4.3,2.3c-5.6,3.5-15.3,3.8-21.2,3.4c-5.9-0.4-8.8-1.7-13.9-1.6
					c-5.2,0.1-9-1.5-15.1,1.1c-6.1,2.5-11,4.1-20.9,4.5s-18.9-1.3-23.1-1.6c-4.2-0.3-11.3-2.1-15.8-2.3c-4.5-0.2-8.1-1.6-12.9-1.7
					c-4.8-0.1-8.7-0.3-13.6,0.1c-5,0.4-13.1-0.2-16.9-0.2c-2.6,0-5.3-0.4-6.9-0.8c-0.6,0.9-1.2,1.8-1.8,2.8c-0.1,0-0.1,0.1-0.1,0.2
					c-0.1,0.2-0.2,0.4-0.3,0.6c0.5-0.2,1.1-0.4,1.6-0.6c0,0,0,0,0-0.1c1.2-0.2,2.3-0.7,3.4-1.1c0.2,0.7,0.5,1.4,0.9,2.1
					c0.1,0.3,0.5,0.3,0.7,0.1c0.8-0.7,1.7-1.2,2.6-1.7c0.1,0.6,0.3,1.3,0.5,1.9c0.1,0.3,0.5,0.4,0.7,0.2c0.9-0.8,1.9-1.4,2.9-2
					c0.3,0.7,0.6,1.4,1.2,2c0.2,0.2,0.5,0.2,0.6,0c1-0.9,2-1.7,3.2-2.2c0.3,1,0.6,1.9,1.4,2.7c0.2,0.2,0.5,0.2,0.7,0
					c1-0.9,1.9-1.9,3.1-2.6c0.5,0.7,0.9,1.4,1.5,2.1c0.2,0.2,0.5,0.2,0.7,0c0.4-0.4,0.7-0.8,1.1-1.2c0.4,0.7,0.9,1.3,1.5,1.9
					c0.2,0.2,0.5,0.1,0.7-0.1c0.5-0.7,1.1-1.3,1.8-1.9c0.3,0.7,0.7,1.6,1.4,1.7c1.3,0.1,2.1-1.3,3-2c0.4-0.3,0.4,0.3,0.5,0.7
					c0.1,0.2,0.2,0.5,0.4,0.7c0.2,0.4,0.5,0.5,0.9,0.7c1,0.3,2.1-1.2,2.9-2c0.3,0.9,0.8,1.7,1.4,2.3c0.2,0.2,0.4,0.2,0.6,0
					c0.6-0.6,1.3-1.1,2-1.5c0.4,0.9,1.2,1.6,1.9,2.2c0.1,0.1,0.4,0.2,0.5,0c0.5-0.6,1.1-1.1,1.7-1.6c0.3,0.8,0.7,1.5,1.3,2
					c0.2,0.2,0.4,0.2,0.6,0c0.4-0.4,2.5-2.1,2.7-1.5c0.4,0.7,0.6,1.5,1.2,2.1c0.9,0.9,2.1-0.4,3-1c0.4,0.9,0.9,1.7,1.7,2.2
					c0.1,0.1,0.3,0.1,0.4-0.1c0.6-0.7,1.3-1.3,2.1-1.7c0.8,0.8,1.5,2.1,2.6,2.2c1.2,0,1.7-1.2,2.4-2c0.6,0.7,1.3,1.4,2.1,1.9
					c0.1,0.1,0.4,0.1,0.5-0.1c0.4-0.5,0.8-1.2,1.3-1.6c0.9,1.1,1.9,2.1,2.9,3c0.2,0.2,0.6,0.1,0.7-0.2c0.1-0.3,0.2-0.7,0.3-1
					c0.5,0.7,1.1,1.4,1.8,1.4c1,0,1.5-1.2,2-2c0.3,0.8,0.6,1.9,1.3,2.1c0.9,0.2,1.9-0.7,2.7-1.3c0.3,0.6,0.5,1.3,1.1,1.7
					c0.6,0.4,1.4-0.5,1.8-0.9c0.8-0.8,1.4,1.2,2.3,1.2c0.7,0,1.2-0.8,1.6-1.5c0.5,0.6,1.4,1.5,2.1,1.3c0.8-0.2,1-1.2,1.1-2
					c0.7,0.6,1.6,1.4,2.4,1.4c0.9,0,1.5-1.3,1.9-2.3c0.4,0.6,0.9,1.2,1.6,1.4c0.8,0.3,1.4-0.8,1.8-1.5c0.6,0.7,1.4,1.5,2.2,1.5
					c0.9,0,1.4-1,1.8-1.8c0.5,0.7,1.1,1.3,1.8,1.7c0.2,0.1,0.5,0,0.6-0.2c0.4-0.7,0.9-1.4,1.5-2.1c1,0.9,2.2,2.1,3.5,2.2
					c0.6,0,1-0.7,1.3-1.2c0.6-1.2,1-2.2,1.9-3.2c0.6,0.7,1.2,1.6,2.1,1.5c0.7,0,1-0.9,1.4-1.5c0.7,0.8,1.6,1.7,2.6,1.5
					c0.8-0.2,1.2-1.3,1.4-2.3c0.5,0.8,1.1,1.6,1.9,1.7c1.2,0.2,1.6-1.9,2.3-2.8c0.2,0.7,0.6,1.3,1,1.8c0.2,0.3,0.6,0.3,0.7,0
					c0.2-0.4,0.4-0.7,0.6-1c0.5,1,1.4,1.8,2.3,2.3c0.3,0.2,0.6,0,0.7-0.3c0.2-0.6,0.4-1.3,0.7-1.9c1.1,1,2.2,2.3,3.7,2.5
					c0.2,0,0.4-0.1,0.5-0.2c0.1,0,0.1-0.1,0.1-0.2c0.1-0.4,0.1-0.9,0.1-1.3c0.5,0.7,1.2,1.2,1.8,1.8c0.3,0.2,0.6,0.1,0.7-0.2
					c0.2-0.6,0.5-1.2,0.8-1.7c0.7,0.8,1.4,1.9,2.4,2.2c0.8,0.2,1.1-0.5,1.3-1.3c0.5,0.7,1,1.4,1.8,1.7c0.2,0.1,0.5,0.1,0.6-0.2
					c0.5-0.7,0.9-1.3,1.4-2c0.6,0.8,1.2,1.5,2,2.1c0.2,0.1,0.5,0,0.6-0.2c0.2-0.5,0.4-1,0.7-1.4c0.9,0.6,2,1,3.1,1.3
					c0.2,0.1,0.5-0.1,0.6-0.3c0.2-0.5,0.3-1.1,0.3-1.6c0.9,0.5,1.7,1.3,2.8,1.6c0.2,0.1,0.5-0.1,0.6-0.3c0.1-0.6,0.2-1.2,0.2-1.8
					c0.6,0.3,1.2,0.6,1.8,1.1c0.2,0.2,0.7,0.2,0.7-0.2c0.2-0.7,0.3-1.3,0.5-2c0.8,0.5,1.7,0.8,2.6,1c0.3,0.1,0.5-0.2,0.6-0.4
					c0.1-0.6,0.1-1.2,0.2-1.8c0.6,0.5,1.3,0.8,2,1.2c0.3,0.2,0.6,0,0.7-0.4c0.1-0.7,0.1-1.5,0.1-2.2c0.6,0.2,1.3,0.5,2,0.7h0.1
					c0.2,0.1,0.4,0.1,0.6,0.2C251.4,191.1,250,189.6,248.6,188.2z"/>
				
					<linearGradient id="SVGID_19_" gradientUnits="userSpaceOnUse" x1="85.2105" y1="55.5014" x2="147.3374" y2="55.5014" gradientTransform="matrix(1 0 0 -1 0 246)">
					<stop  offset="0" style="stop-color:#480000"/>
					<stop  offset="1" style="stop-color:#E10000"/>
				</linearGradient>
				<path class="st18" d="M102.3,189.8c4.4,0.1,14.2,0.2,17.4,0c3.3-0.2,8.4,2.5,13.1,3.4c3.3,0.6,9.5,0.8,14.5,0.5
					c-3.4-0.2-9.2-0.6-12.4-1.4c-4.5-1.1-12.5-3.3-15.3-4.1c-2.9-0.8-9.5-1.3-16-0.9c-4.7,0.2-12.6,0.2-16.6,0.2
					c-0.7,0.6-1.3,1.3-1.9,2.1c1.3,0.1,3.3,0.2,5.6,0.3C94.7,190.1,97.8,189.7,102.3,189.8z"/>
				
					<radialGradient id="SVGID_20_" cx="164.3914" cy="163.218" r="150.7879" gradientTransform="matrix(1 0 0 -1 0 246)" gradientUnits="userSpaceOnUse">
					<stop  offset="8.278611e-02" style="stop-color:#FFE400"/>
					<stop  offset="0.3705" style="stop-color:#FDDA00"/>
					<stop  offset="0.4556" style="stop-color:#FCC900"/>
					<stop  offset="0.6645" style="stop-color:#FAA300"/>
					<stop  offset="0.8331" style="stop-color:#F88C00"/>
					<stop  offset="0.9392" style="stop-color:#F88400"/>
				</radialGradient>
				<path class="st19" d="M103.7,187.2c6.4-0.3,13.1,0.1,16,0.9s10.8,3.1,15.3,4.1c3.2,0.7,9,1.2,12.4,1.4c2.1-0.1,3.9-0.3,5.3-0.5
					c-1.4,0.2-3.3,0.4-5.3,0.5c1.4,0.1,2.4,0.1,2.7,0.1c0,0,12,4.1,20.2,3.8c8.1-0.3,14.2-1.1,22.6-5.9c8.5-4.9,9.5-4.6,13.1-4.8
					c3.6-0.1,14,3.2,20.7,3.2s12.4-0.8,15.5-2.1c2.9-1.2,2.7-1.7,5.2-1l0,0c0.2-0.7,0.2-1.2-0.1-1.9c-0.1-0.2-0.4-0.5-0.6-0.7
					c-0.7-0.7-0.7-1.3-0.6-2.2c0.3-2.4-0.7-4.5-1.6-6.7c-1.1-2.5-2.5-4.9-4.1-7.2c-1.6-2.3-3-4.7-3.3-7.5c0.5-3,1.1-6.1,1.4-8.3
					c0.8-5.3,2.1-10.4,2.5-15.7c0.3-4.9-0.6-9.7-2.3-14.2c-1.7-4.4-3.9-8.5-5-13.1c0-0.1,0.1-0.1,0.1-0.2c1.3-2.8,3.5-5.7,3-8.9
					c-0.6-3.8-2-7.5-3.5-11c-1.2-3-2.7-5.8-3.5-8.9c-0.1-1.3,0-2.6,0.3-3.9c0.6-2.4,1.8-4.6,2.6-6.9c1.5-4.7,1.5-9.6,1.1-14.5
					c-0.4-5.4-0.8-10.8-1.2-16.1c-0.2-2.1-0.3-4.2-0.7-6.3c-0.3-1.5-0.9-3.7-0.3-5.3c2.7-3.4,5.8-6.3,8.1-10.1c0.6-1,1.1-2,1.6-3
					c-4.1-1.2-10.8-2.6-16.4-2.8c-6.5-0.2-18,1.1-25.2,3.3c-7.3,2.2-12.3,4.4-18.7,6.1c-6.4,1.7-9.6,1.8-13.3,1.8
					s-10.2-0.3-14.3-0.1c-4,0.2-6.2,0.2-8.8,0c-2.5-0.2-6.8-0.7-6.8-0.7s-5.1-2.3-10.6-4.4c-5.5-2.1-13.2-4.2-16.4-3.3
					c-3.2,1-8.8,1.7-11.9,2.3c-3.2,0.6-1.5,0-4.9,0.8c-1.7,0.4-3.8,1.2-5.5,1.8c0.7,1.4,1.4,2.8,2.1,4.2c2.2,4.4,4,8.9,5.5,13.6
					c2.8,8.3,5.3,16.9,5.5,25.7l-0.1,0.1c-1.1,8.8-5.5,17.6-3.4,26.4c0.8,3.4,2.4,6.5,4.1,9.5c1.5,4,1,7.8-0.4,11.9
					c-0.6,1.8-1.4,3.6-2.1,5.5c-0.8,2-1.2,4.2-1.7,6.3c0,0.1,0,0.2,0,0.3c-0.5,2.8,0.9,5.8,2.1,8.3c0.1,0.2,0.2,0.4,0.3,0.6
					c0,3.6-0.2,7.3-0.7,10.9s-1.4,7.1-2,10.7c-0.5,3.2-0.6,6.5,0.3,9.7c0.5,1.7,1.1,3.3,1.9,4.9c0,1.9-1.6,3.4-2.9,4.6
					c-1.4,1.4-2.9,2.7-4.3,4.1c-2.9,2.9-5.6,6.5-5.8,10.8l0,0l-0.1,0.1C91.1,187.5,99,187.5,103.7,187.2z"/>
				
					<radialGradient id="SVGID_21_" cx="164.392" cy="163.218" r="150.7874" gradientTransform="matrix(1 0 0 -1 0 246)" gradientUnits="userSpaceOnUse">
					<stop  offset="0" style="stop-color:#9AD700"/>
					<stop  offset="7.900918e-02" style="stop-color:#7FC800"/>
					<stop  offset="0.2045" style="stop-color:#5BB300"/>
					<stop  offset="0.3366" style="stop-color:#3DA300"/>
					<stop  offset="0.4754" style="stop-color:#259500"/>
					<stop  offset="0.6236" style="stop-color:#158C00"/>
					<stop  offset="0.7879" style="stop-color:#0B8700"/>
					<stop  offset="1" style="stop-color:#088500"/>
				</radialGradient>
				<path class="st20" d="M102.4,98.9c1.5,4,1,7.8-0.4,11.9c-0.6,1.8-1.4,3.6-2.1,5.5c-0.8,2-1.2,4.2-1.7,6.3c0,0.1,0,0.2,0,0.3
					c-0.2,0.9-0.1,1.9,0.1,2.8c0.4,0.1,0.9,0.3,1.4,0.3c3.2,0.5,6.5,0.6,9.8,1c7.3,0.9,14.6,2.1,21.6,4.6c6.6,2.4,12.2,6.1,18.2,9.7
					c5.6,3.5,11.6,6.6,18.3,6.8c7.6,0.2,15-1.5,22.1-3.9c16.9-5.8,35.1-15.7,45.2-31.1c-0.4-1.2-0.8-2.4-1.1-3.6
					c0-0.1,0.1-0.1,0.1-0.2c1.3-2.8,3.5-5.7,3-8.9c-0.6-3.8-2-7.5-3.5-11c-1.2-3-2.7-5.8-3.5-8.9c-0.1-1.3,0-2.6,0.3-3.9
					c0.2-0.8,0.5-1.6,0.8-2.3c-0.5-0.4-1.1-0.8-1.7-1.2c-2.4-1.7-5-3.4-7.7-4.4c-3.2-1.3-6.6-2.1-10-2.8
					c-14.6-3.3-29.5-4.6-44.5-3.3c-15.2,1.3-30.5,4.2-45.3,8.2c-6.7,1.8-13.6,3.9-20.6,3.7c-0.7,0-1.4-0.1-2.1-0.1
					c-1.2,5-2.1,10-0.9,15.1C99.1,92.7,100.7,95.9,102.4,98.9z"/>
				
					<radialGradient id="SVGID_22_" cx="164.3917" cy="163.2184" r="150.7882" gradientTransform="matrix(1 0 0 -1 0 246)" gradientUnits="userSpaceOnUse">
					<stop  offset="0" style="stop-color:#9AD700"/>
					<stop  offset="7.900918e-02" style="stop-color:#7FC800"/>
					<stop  offset="0.2045" style="stop-color:#5BB300"/>
					<stop  offset="0.3366" style="stop-color:#3DA300"/>
					<stop  offset="0.4754" style="stop-color:#259500"/>
					<stop  offset="0.6236" style="stop-color:#158C00"/>
					<stop  offset="0.7879" style="stop-color:#0B8700"/>
					<stop  offset="1" style="stop-color:#088500"/>
				</radialGradient>
				<path class="st21" d="M233.8,109.3c1.3-2.8,3.5-5.7,3-8.9c-0.6-3.8-2-7.5-3.5-11c-1.2-3-2.7-5.8-3.5-8.9c0-0.4,0-0.9,0-1.3
					c-0.4,1.2-0.6,2.5-0.8,3.7c-0.6,3.6-1.4,6.9-3.4,10c-3.8,6.1-9.5,10.9-15.6,14.7c-20.1,12.4-45.9,15-68.4,8.3
					c-11.5-3.4-22.4-9.1-31.6-16.8c-4.5-3.8-9.7-8.2-12.3-13.6c0.1,1.3,0.2,2.5,0.5,3.8c0.8,3.4,2.4,6.5,4.1,9.5
					c1.5,4,1,7.8-0.4,11.9c-0.6,1.8-1.4,3.6-2.1,5.5c-0.8,2-1.2,4.2-1.7,6.3c0,0.1,0,0.2,0,0.3c-0.2,0.9-0.1,1.9,0.1,2.8
					c0.4,0.1,0.9,0.3,1.4,0.3c3.2,0.5,6.5,0.6,9.8,1c7.3,0.9,14.6,2.1,21.6,4.6c6.6,2.4,12.2,6.1,18.2,9.7
					c5.6,3.5,11.6,6.6,18.3,6.8c7.6,0.2,15-1.5,22.1-3.9c16.9-5.8,35.1-15.7,45.2-31.1c-0.4-1.2-0.8-2.4-1.1-3.6
					C233.7,109.4,233.7,109.4,233.8,109.3z"/>
				<g>
					<g>
						<defs>
							<polygon id="SVGID_23_" points="-39,-912 -38,-912 -39,-911 							"/>
						</defs>
						<defs>
							<polygon id="SVGID_24_" points="-41,-914 -42,-914 -41,-915 							"/>
						</defs>
						<clipPath id="SVGID_25_">
							<use xlink:href="#SVGID_23_"  style="overflow:visible;"/>
						</clipPath>
						<clipPath id="SVGID_26_" class="st22">
							<use xlink:href="#SVGID_24_"  style="overflow:visible;"/>
						</clipPath>
						
							<linearGradient id="SVGID_27_" gradientUnits="userSpaceOnUse" x1="113.4139" y1="189.0793" x2="205.6806" y2="189.0793" gradientTransform="matrix(1 0 0 -1 0 246)">
							<stop  offset="0" style="stop-color:#000000"/>
							<stop  offset="0.224" style="stop-color:#FFFFFF"/>
							<stop  offset="0.4479" style="stop-color:#FFFFFF"/>
							<stop  offset="0.7394" style="stop-color:#FFFFFF"/>
							<stop  offset="0.8494" style="stop-color:#000000"/>
						</linearGradient>
						<path class="st23" d="M205.2,41.3c-9.5,1.3-18.1,5.3-27.1,8.1c-9.6,2.9-19.5,1.8-29.2,0.7c-6.9-0.8-15-2.1-21.3,1.6
							c-3.2,1.9-5.4,5.3-7.4,8.3c-2.7,3.8-4.9,7.9-6.6,12.2c-0.1,0.3,0.3,0.5,0.5,0.2c2.3-4,4.7-7.9,7.5-11.6c2.6-3.6,5.3-7,9.7-8.4
							c3.2-1,6.9-0.5,10.1-0.2c4.4,0.4,8.7,1,13.1,1.5c8.6,0.9,17.2,0.7,25.5-2.1c8.6-3,16.5-7.1,25.5-9.1
							C205.9,42.2,205.8,41.2,205.2,41.3z"/>
					</g>
				</g>
				
					<linearGradient id="SVGID_28_" gradientUnits="userSpaceOnUse" x1="113.4139" y1="189.0793" x2="205.6806" y2="189.0793" gradientTransform="matrix(1 0 0 -1 0 246)">
					<stop  offset="0" style="stop-color:#A94900"/>
					<stop  offset="0.224" style="stop-color:#F6FA00"/>
					<stop  offset="0.4479" style="stop-color:#EEEA00"/>
					<stop  offset="0.4687" style="stop-color:#E8DB00"/>
					<stop  offset="0.5629" style="stop-color:#CD9D00"/>
					<stop  offset="0.6426" style="stop-color:#B96F00"/>
					<stop  offset="0.7039" style="stop-color:#AD5300"/>
					<stop  offset="0.7394" style="stop-color:#A94900"/>
					<stop  offset="0.8494" style="stop-color:#A94900"/>
				</linearGradient>
				<path class="st24" d="M205.2,41.3c-9.5,1.3-18.1,5.3-27.1,8.1c-9.6,2.9-19.5,1.8-29.2,0.7c-6.9-0.8-15-2.1-21.3,1.6
					c-3.2,1.9-5.4,5.3-7.4,8.3c-2.7,3.8-4.9,7.9-6.6,12.2c-0.1,0.3,0.3,0.5,0.5,0.2c2.3-4,4.7-7.9,7.5-11.6c2.6-3.6,5.3-7,9.7-8.4
					c3.2-1,6.9-0.5,10.1-0.2c4.4,0.4,8.7,1,13.1,1.5c8.6,0.9,17.2,0.7,25.5-2.1c8.6-3,16.5-7.1,25.5-9.1
					C205.9,42.2,205.8,41.2,205.2,41.3z"/>
				
					<radialGradient id="SVGID_29_" cx="164.3914" cy="163.218" r="150.7879" gradientTransform="matrix(1 0 0 -1 0 246)" gradientUnits="userSpaceOnUse">
					<stop  offset="8.278611e-02" style="stop-color:#FCC500"/>
					<stop  offset="0.3705" style="stop-color:#FBBC00"/>
					<stop  offset="0.5024" style="stop-color:#DD9F00"/>
					<stop  offset="0.6911" style="stop-color:#B77A00"/>
					<stop  offset="0.8434" style="stop-color:#A06400"/>
					<stop  offset="0.9392" style="stop-color:#985C00"/>
				</radialGradient>
				<path class="st25" d="M247.3,185.1c-0.1-0.2-0.4-0.5-0.6-0.7c-0.7-0.7-0.7-1.3-0.6-2.2c0.3-2.4-0.7-4.5-1.6-6.7
					c-1.1-2.5-2.5-4.9-4.1-7.2c-1.6-2.3-3-4.7-3.3-7.5c0.5-3,1.1-6.1,1.4-8.3c0.8-5.3,2.1-10.4,2.5-15.7c0.3-4.9-0.6-9.7-2.3-14.2
					c-1.7-4.4-3.9-8.5-5-13.1c0-0.1,0.1-0.1,0.1-0.2c1.3-2.8,3.5-5.7,3-8.9c-0.6-3.8-2-7.5-3.5-11c-1.2-3-2.7-5.8-3.5-8.9
					c-0.1-1.3,0-2.6,0.3-3.9c0.6-2.4,1.8-4.6,2.6-6.9c1.5-4.7,1.5-9.6,1.1-14.5c-0.4-5.4-0.8-10.8-1.2-16.1
					c-0.2-2.1-0.3-4.2-0.7-6.3c-0.3-1.5-0.9-3.7-0.3-5.3c2.7-3.4,5.8-6.3,8.1-10.1c0.6-1,1.1-2,1.6-3c-4.1-1.2-10.8-2.6-16.4-2.8
					c-6.5-0.2-18,1.1-25.2,3.3c-7.3,2.2-12.3,4.4-18.7,6.1c-6.4,1.7-9.6,1.8-13.3,1.8s-10.2-0.3-14.3-0.1c-4,0.2-6.2,0.2-8.8,0
					c-2.5-0.2-6.8-0.7-6.8-0.7s-5.1-2.3-10.6-4.4c-5.5-2.1-13.2-4.2-16.4-3.3c-3.2,1-8.8,1.7-11.9,2.3c-3.2,0.6-1.5,0-4.9,0.8
					c-1.7,0.4-3.8,1.2-5.5,1.8c0.7,1.4,1.4,2.8,2.1,4.2c2.2,4.4,4,8.9,5.5,13.6c2.8,8.3,5.3,16.9,5.5,25.7l-0.1,0.1
					c-1.1,8.8-5.5,17.6-3.4,26.4c0.8,3.4,2.4,6.5,4.1,9.5c1.5,4,1,7.8-0.4,11.9c-0.6,1.8-1.4,3.6-2.1,5.5c-0.8,2-1.2,4.2-1.7,6.3
					c0,0.1,0,0.2,0,0.3c-0.5,2.8,0.9,5.8,2.1,8.3c0.1,0.2,0.2,0.4,0.3,0.6c0,3.6-0.2,7.3-0.7,10.9s-1.4,7.1-2,10.7
					c-0.5,3.2-0.6,6.5,0.3,9.7c0.5,1.7,1.1,3.3,1.9,4.9c0,1.9-1.6,3.4-2.9,4.6c-1.4,1.4-2.9,2.7-4.3,4.1c-2.9,2.9-5.6,6.5-5.8,10.8
					l0,0l-0.1,0.1c4,0,11.9,0,16.6-0.2c6.4-0.3,13.1,0.1,16,0.9s10.8,3.1,15.3,4.1c3.2,0.7,9,1.2,12.4,1.4c1.4,0.1,2.4,0.1,2.7,0.1
					c0,0,12,4.1,20.2,3.8c8.1-0.3,14.2-1.1,22.6-5.9c8.5-4.9,9.5-4.6,13.1-4.8c3.6-0.1,14,3.2,20.7,3.2s12.4-0.8,15.5-2.1
					c2.9-1.2,2.7-1.7,5.2-1l0,0C247.6,186.3,247.6,185.8,247.3,185.1z M190.1,24.1c1.4-4.4,7.2-6.4,11.1-7.7c4.8-1.5,9.8-2.7,14.8-3
					c0.4,0,0.4,0.5,0.1,0.6c1.2,0,2.3,0.1,3.6,0.3c2.1,0.3,4.3,0.5,6.4,0.7c1.4,0.1,2.7,0.3,4,0.8c5.2,2.2-2,8.3-4.5,9.6
					c-5.6,2.7-12.2,2.8-18.2,2.3c-5.8-0.5-11.6-1.6-17.1-3.3C190.1,24.4,190,24.2,190.1,24.1z M143.8,152.8c-0.3-4.5-1.2-9-3.6-13.1
					c-5.4-9.3-16.6-13.9-20.2-24.6c3.4-0.4,6.3,2,8.9,4.1c3.5,2.9,6.7,6.3,10.5,8.8c16.8,11.1,37.3,7.8,53.2-3
					c7.7-5.2,14.9-11.5,20.7-18.8c3.3-4.2,7.6-11.8,14-8.5c0.1,0,0.2,0.2,0.2,0.3c-0.1,3.8-3.5,7.3-6,9.8
					c-4.2,4.2-8.9,7.9-13.3,11.8c-9.8,8.5-21.5,16.8-32.3,25c-7.1,5.5-12.6,12.7-19.9,18.1C145.1,170.7,144.6,162.9,143.8,152.8z
					 M102.6,81.1c0.4-3.7,2.8-6.7,4.7-9.8c2.6-4.3,4-9.3,5.8-14c1.8-4.6,3.9-9.4,1.3-14.1c-2.1-3.8-5.3-6.9-7.3-10.8
					c-1.4-2.8-3.1-5.2-1.8-8.3c0.2-1.4,0.9-2.6,1.9-3.6c1.3-1.4,2.8-2.7,4.2-3.9c1.9-1.5,3.9-0.9,5.8,0c3.9,0.1,8.1,1.9,11.4,3.1
					c2.7,1,5.5,1.9,8,3.5c2.4,1.5,4.6,3.3,6.6,5.3c4.6,4.5,9,9.5,14.8,12.7c5.9,3.3,12.6,3.8,19.2,2.8c6.4-1,12.5-3.4,18.9-4.8
					c3-0.7,6.2-1.3,9.3-1.1c2.1,0.1,4.5,0.4,5.9,2.2c1.7,2.2,2.6,5,3,7.8c0.3,2.3,0.3,5-1.4,6.7c-4.2,4.3-11.5,2.3-16.8,2.1
					c-1.7-0.1-3.4-0.1-5,0.3c-0.7,0.2-1.4,0.4-2.1,0.7c-0.8,0.4-0.7,0.8-0.5,1.7c0.8,3.2,3.5,5.8,6,7.9c4.8,4,10.2,6.8,15.4,10.2
					c1.9,1.2,4.9,2.9,5.7,5.2c1,2.7-0.5,5-2.6,6.7c-2.7,2.2-5.6,4.1-8.2,6.4c-3.1,2.6-6.1,5.4-9.3,7.8c-5.7,4.5-12.5,8.7-20,8.6
					c-1.6,0-3.2-0.6-4.8-0.5c-2,0-3.8,1.1-5.4,2.3c-3.2,2.4-6.1,5-9.8,6.5c-3.3,1.3-7.1,0-10.2-1.3c-3.8-1.6-7.2-4-10.3-6.7
					c-3.8-3.2-7.5-6.3-11.2-9.5c-3.2-2.9-6.3-6-9.9-8.5c-2.7-1.9-5.5-3.8-7.8-6.2C104.2,86.4,102.3,83.9,102.6,81.1z M193.1,183.2
					c-7.2,5-15.8,9.5-24.6,10.5c-8.1,1-15.6-2.3-22.3-6.5c-3.6-2.2-6.9-4.7-10.2-7.3c-3.8-3-7.8-5.7-12-8.2
					c-2.1-1.2-4.2-2.3-6.4-3.5c-1.9-1-3.9-2.2-5.9-3c-1.7-0.7-5.6-1.6-5.7-3.9c-0.1-2.6,2.6-3.8,4.6-4.5c2.6-0.9,5.4-1.4,8.2-1.8
					c-2.4-12.4-14.9-20.1-17-32.6c0-0.2,0-0.4,0.2-0.4c3.2-0.4,5.8,0.8,7.9,3.2c2.6,3.1,4.9,6.5,7.4,9.7c4.7,6,9.6,12,13.8,18.4
					c3.1,2.6,4.8,6.7,6.2,10.5c1.1,2.9,2.2,5.9,3.9,8.6c1.8,2.9,4.4,4.8,7.4,6.3c7.1,3.6,15.7,5.8,23.6,4.8
					c3.9-0.5,7.7-1.3,11.6-1.7c3.1-0.3,6.3-0.5,9.2,0.7C193.3,182.7,193.3,183,193.1,183.2z M233.4,147c-1.5,4.3-2.9,8.8-4.7,12.9
					c-1.3,2.8-2.9,5.6-5.4,7.6c-2.7,2.1-5.9,3.1-9.3,3.7c-8,1.4-16.4,1.6-24.4,0.1c-0.2,0-0.2-0.2-0.2-0.4c0.5-3.8,4.4-6.3,7.5-7.9
					c4.4-2.3,9.1-4,13.6-5.9c5.2-2.2,9.5-5.4,13.1-9.8c4.5-5.4,7.9-11.7,9.5-18.6c0-0.1,0.1-0.2,0.3-0.2c0.1-0.7,0.3-1.3,0.4-2
					c0-0.2,0.2-0.3,0.4-0.2c2.3,0.7,2.7,3.3,2.7,5.4C236.8,136.8,235.1,142.1,233.4,147z"/>
				
					<radialGradient id="SVGID_30_" cx="203.9963" cy="159.4143" r="131.0317" gradientTransform="matrix(1 0 0 -1 0 246)" gradientUnits="userSpaceOnUse">
					<stop  offset="6.908590e-02" style="stop-color:#FFFFFF"/>
					<stop  offset="0.7656" style="stop-color:#FBBC00"/>
					<stop  offset="0.8059" style="stop-color:#DD9F00"/>
					<stop  offset="0.8635" style="stop-color:#B77A00"/>
					<stop  offset="0.91" style="stop-color:#A06400"/>
					<stop  offset="0.9392" style="stop-color:#985C00"/>
				</radialGradient>
				<path class="st26" d="M96.2,37.1c2.8,8.3,5.3,16.9,5.5,25.7l-0.1,0.1c-1.1,8.8-5.5,17.6-3.4,26.4c0.8,3.4,2.4,6.5,4.1,9.5
					c1.5,4,1,7.8-0.4,11.9c-0.6,1.8-1.4,3.6-2.1,5.5c-0.4,1-0.6,1.9-0.9,2.9c0.3-0.5,0.6-0.9,0.9-1.3c2.8-3.8,8.4,0.4,11.1,2.3
					c5.3,3.7,7.2,6.5,11.4,11.5c4.5,5.2,11.6,15.8,14.9,21.9c-0.3-1-4-9.3-4.4-10.3c-6.3-10.8-11.4-16.8-18.2-27.3
					c-2-3.2-4-6.4-5.9-9.6c-1.8-2.9-3.7-5.7-5.3-8.7c-2.7-5.2-4.6-10.9-4-16.8c0.4-4.2,1.8-7.9,3.8-11.6c2.1-3.9,4.9-8.1,5.2-12.7
					c0.6-8.2-5.4-14.8-9.1-21.5c-0.9-1.6-1.6-3.2-2.3-4.8c-0.7-1.8-2-3.3-2.5-5.1c-0.9-3.1,1.2-5,3.8-6.2c2.7-1.3,5.6-2.3,8.4-3.5
					c-2.8,0.5-5.8,1-7.9,1.4c-3.2,0.6-1.5,0-4.9,0.8c-1.7,0.4-3.8,1.2-5.5,1.8c0.7,1.4,1.4,2.8,2.1,4.2
					C92.8,27.9,94.6,32.5,96.2,37.1z"/>
				
					<radialGradient id="SVGID_31_" cx="113.9029" cy="76.8185" r="39.7511" fx="115.7547" fy="59.5546" gradientTransform="matrix(1 0 0 -1 0 246)" gradientUnits="userSpaceOnUse">
					<stop  offset="0" style="stop-color:#FFFFFF"/>
					<stop  offset="0.4845" style="stop-color:#FBBC00"/>
					<stop  offset="0.59" style="stop-color:#DD9F00"/>
					<stop  offset="0.7408" style="stop-color:#B77A00"/>
					<stop  offset="0.8626" style="stop-color:#A06400"/>
					<stop  offset="0.9392" style="stop-color:#985C00"/>
				</radialGradient>
				<path class="st27" d="M130.2,181.9c-6-5.3-13.8-7.4-21.3-9.6c-2.5-0.7-5.4-1.6-6.9-3.9c-1.5-2.2-1.9-4.9-1.7-7.4
					c1.4-21.2,3.7-2.5,4.3-8.6c0.2-6.9-0.4-17.9-4-20.4c0,3.5-0.2,7-0.7,10.5c-0.5,3.6-1.4,7.1-2,10.7c-0.5,3.2-0.6,6.5,0.3,9.7
					c0.5,1.7,1.1,3.3,1.9,4.9c0,1.9-1.6,3.4-2.9,4.6c-1.4,1.4-2.9,2.7-4.3,4.1c-2.2,2.1-4.2,4.6-5.2,7.5c2.1-2.7,4.7-5,8.2-6.1
					c5.3-1.7,11.2-1.8,15.8,1.7c1.2,0.9,2.3,1.8,3.3,2.9c0.4,0.5,1,1,0.9,1.7c-0.1,0.6-0.8,1-1.3,1.3c-1.2,0.6-2.5,1.2-3.8,1.7
					c3.7,0.1,7,0.5,8.8,1c2.9,0.8,10.8,3.1,15.3,4.1c3.2,0.7,9,1.2,12.4,1.4c1.4,0.1,2.4,0.1,2.7,0.1c0,0,0.1,0,0.4,0.1
					C143.3,190.6,136.2,187.2,130.2,181.9z"/>
				
					<radialGradient id="SVGID_32_" cx="164.3927" cy="163.2336" r="150.8097" gradientTransform="matrix(1 0 0 -1 0 246)" gradientUnits="userSpaceOnUse">
					<stop  offset="8.278611e-02" style="stop-color:#FCC500"/>
					<stop  offset="0.3705" style="stop-color:#FBBC00"/>
					<stop  offset="0.5024" style="stop-color:#DD9F00"/>
					<stop  offset="0.6911" style="stop-color:#B77A00"/>
					<stop  offset="0.8434" style="stop-color:#A06400"/>
					<stop  offset="0.9392" style="stop-color:#985C00"/>
				</radialGradient>
				<path class="st28" d="M99.4,129c-0.3-0.8-0.6-1.7-0.9-2.5C98.7,127.4,99,128.2,99.4,129z"/>
				
					<linearGradient id="SVGID_33_" gradientUnits="userSpaceOnUse" x1="220.8866" y1="146.6146" x2="125.7501" y2="97.624" gradientTransform="matrix(1 0 0 -1 0 246)">
					<stop  offset="0" style="stop-color:#FFFFFF"/>
					<stop  offset="0.2262" style="stop-color:#973600"/>
					<stop  offset="0.2841" style="stop-color:#9A3A00"/>
					<stop  offset="0.3398" style="stop-color:#A24500"/>
					<stop  offset="0.3945" style="stop-color:#B15900"/>
					<stop  offset="0.4486" style="stop-color:#C57400"/>
					<stop  offset="0.5019" style="stop-color:#DF9700"/>
					<stop  offset="0.5491" style="stop-color:#FBBC00"/>
					<stop  offset="0.5959" style="stop-color:#FCC625"/>
					<stop  offset="0.6997" style="stop-color:#FDDA71"/>
					<stop  offset="0.7924" style="stop-color:#FEEAAE"/>
					<stop  offset="0.8705" style="stop-color:#FEF5DA"/>
					<stop  offset="0.931" style="stop-color:#FFFCF5"/>
					<stop  offset="0.9665" style="stop-color:#FFFFFF"/>
					<stop  offset="1" style="stop-color:#FFFBF8"/>
				</linearGradient>
				<path class="st29" d="M220,94.5c-9.6-0.8-15.5,4.1-22.2,10c-6.2,5.4-11.9,11.5-19.1,15.7c-8,4.7-15.2,4.3-24,5.4
					c-1.4,0.2-3.1,0.4-4.2,1.3c-0.8,0.6-0.1,0.7,0.5,1s1.2,0.6,1.9,0.9c7.1,2.6,16.1,3.8,23.6,1.8c9-2.4,15.3-8.6,21.3-15.3
					c5.5-6.2,11.5-13,19.3-16.4c2.2-0.9,4.4-1.7,6.2-3.2C222.4,94.9,221.3,94.6,220,94.5z"/>
				
					<radialGradient id="SVGID_34_" cx="169.6737" cy="186.4545" r="76.9659" gradientTransform="matrix(1 0 0 -1 0 246)" gradientUnits="userSpaceOnUse">
					<stop  offset="6.908590e-02" style="stop-color:#FFFFFF"/>
					<stop  offset="0.7656" style="stop-color:#FBBC00"/>
					<stop  offset="0.8059" style="stop-color:#DD9F00"/>
					<stop  offset="0.8635" style="stop-color:#B77A00"/>
					<stop  offset="0.91" style="stop-color:#A06400"/>
					<stop  offset="0.9392" style="stop-color:#985C00"/>
				</radialGradient>
				<path class="st30" d="M225.5,28c-7.1,3.1-15,3.3-22.5,4.5c3.6,1.9,7.7,2.3,11.7,2.8c3.4,0.4,7.7,0.4,10.7,2.3
					c5.4,3.4,4.9,11.1,5.4,16.7c0.4,4.8,1.1,10.6-4.1,13.1c-4.3,2.1-9,1.6-13.6,2.2c-0.9,0.1-4.9,0.5-3.1,2.1c1.3,1.1,3,1.8,4.5,2.8
					c1.7,1.1,3.3,2.2,4.8,3.4c3.7,3,7.3,6.2,10.6,9.6c1.4,1.4,2.7,2.8,3.9,4.3c0.2,0.2,0.4,0.5,0.5,0.7c-0.2-0.7-0.4-1.4-0.6-2.2
					c-0.1-0.3-0.2-0.6-0.4-0.9c-1.2-3-2.7-5.8-3.5-8.9c-0.1-1.3,0-2.6,0.3-3.9c0.6-2.4,1.8-4.6,2.6-6.9c1.5-4.7,1.5-9.6,1.1-14.5
					c-0.4-5.4-0.8-10.8-1.2-16.1c-0.2-2.1-0.3-4.2-0.7-6.3c-0.3-1.5-0.9-3.7-0.3-5.3c2.7-3.4,5.8-6.3,8.1-10.1c0.6-1,1.1-2,1.6-3
					c0,0,0,0-0.1,0C236.8,19.8,231.8,25.2,225.5,28z"/>
				
					<radialGradient id="SVGID_35_" cx="213.6123" cy="271.1704" r="87.6733" gradientTransform="matrix(1 0 0 -1 0 246)" gradientUnits="userSpaceOnUse">
					<stop  offset="6.908590e-02" style="stop-color:#FFFFFF"/>
					<stop  offset="0.7656" style="stop-color:#FBBC00"/>
					<stop  offset="0.8059" style="stop-color:#DD9F00"/>
					<stop  offset="0.8635" style="stop-color:#B77A00"/>
					<stop  offset="0.91" style="stop-color:#A06400"/>
					<stop  offset="0.9392" style="stop-color:#985C00"/>
				</radialGradient>
				<path class="st31" d="M152.6,30.1c7.5,3.2,15.4,5.6,23.5,6.7c4.8,0.7,9.8,1.2,14.6,0.7c2.4-0.2,4.9-0.7,7.2-1.3
					c0.8-0.2,1.5-0.4,2.3-0.6c0.3-0.1,0.9-0.3,1.1-0.6c0.4-0.5-0.7-1.1-1-1.2c-3.8-2-8.3-1.2-12.4-1.8c-2.6-0.4-5.1-1-7.7-1.6
					c-1.5-0.3-3-0.6-4.4-1.2c-2.7-1.2-0.8-2.9,1.1-3.8c4.4-2,8.8-4.1,12.8-6.8c0.4-0.3,0.8-0.6,1.3-0.9c-3.4,1.2-6.6,2.3-10.3,3.3
					c-6.4,1.7-9.6,1.8-13.3,1.8s-10.2-0.3-14.3-0.1c-4,0.2-6.2,0.2-8.8,0c-1.5-0.1-3.7-0.4-5.2-0.5
					C143.6,25.2,147.9,28.1,152.6,30.1z"/>
				
					<radialGradient id="SVGID_36_" cx="222.9068" cy="79.7748" r="29.893" gradientTransform="matrix(1 0 0 -1 0 246)" gradientUnits="userSpaceOnUse">
					<stop  offset="6.908590e-02" style="stop-color:#FFFFFF"/>
					<stop  offset="0.5803" style="stop-color:#FBBC00"/>
					<stop  offset="0.6636" style="stop-color:#DD9F00"/>
					<stop  offset="0.7826" style="stop-color:#B77A00"/>
					<stop  offset="0.8787" style="stop-color:#A06400"/>
					<stop  offset="0.9392" style="stop-color:#985C00"/>
				</radialGradient>
				<path class="st32" d="M247.3,185.1c-0.1-0.2-0.4-0.5-0.6-0.7c-0.7-0.7-0.7-1.3-0.6-2.2c0.3-2.4-0.7-4.5-1.6-6.7
					c-1.1-2.5-2.5-4.9-4.1-7.2c-1.6-2.3-3-4.7-3.3-7.5c0.5-3,1.1-6.1,1.4-8.3c0.4-2.6,0.9-5.2,1.4-7.8c-1.1,4.3-2.1,8.6-3.3,12.8
					c-1.3,4.7-3.1,9.2-2.6,14.1c0.2,2,1.5,5.5-0.4,7.1c-0.7,0.6-1.9,0.8-2.8,1c-1.9,0.3-3.8,0.6-5.7,0.8c-4.7,0.6-9.5,0.9-14.1,1.9
					c-7.2,1.6-13.3,5-18.9,9.6c0.2-0.1,0.4-0.2,0.6-0.4c8.5-4.9,9.5-4.6,13.1-4.8c3.6-0.1,14,3.2,20.7,3.2s12.4-0.8,15.5-2.1
					c2.9-1.2,2.7-1.7,5.2-1l0,0C247.6,186.3,247.6,185.8,247.3,185.1z"/>
				
					<linearGradient id="SVGID_37_" gradientUnits="userSpaceOnUse" x1="188.3" y1="55.66" x2="247.9" y2="55.66" gradientTransform="matrix(1 0 0 -1 0 246)">
					<stop  offset="0" style="stop-color:#480000"/>
					<stop  offset="1" style="stop-color:#E10000"/>
				</linearGradient>
				<path class="st33" d="M209.1,189.6c2.9,0.6,12.6,2.9,18.3,2.2c5.7-0.6,11.3-1.6,15.7-2.5c3.7-0.8,2.9-1.2,4.8-1.8
					c-0.2-0.2-0.3-0.3-0.5-0.5l0,0c-2.5-0.7-2.4-0.2-5.2,1c-3.2,1.3-8.9,2.1-15.5,2.1c-6.7,0-17.1-3.3-20.7-3.2
					c-3.6,0.1-4.6-0.1-13.1,4.8c-1.6,0.9-3.1,1.7-4.6,2.3c1.2-0.4,2.6-0.9,4.1-1.6C202.1,188.3,206.2,188.9,209.1,189.6z"/>
				
					<radialGradient id="SVGID_38_" cx="166.3" cy="53.2631" r="58.3126" gradientTransform="matrix(1 0 0 -1 0 246)" gradientUnits="userSpaceOnUse">
					<stop  offset="0" style="stop-color:#FFFFFF"/>
					<stop  offset="1" style="stop-color:#CFD5CE"/>
				</radialGradient>
				<path class="st34" d="M247.9,187.5c-1.9,0.5-1.1,1-4.8,1.8c-4.4,0.9-10,1.9-15.7,2.5s-15.4-1.6-18.3-2.2
					c-2.9-0.6-7-1.3-16.7,2.9c-1.5,0.6-2.9,1.2-4.1,1.6c-6.2,2.8-11.5,3.3-18,3.6c-8.1,0.3-20.2-3.8-20.2-3.8c-0.3,0-1.3,0-2.7-0.1
					c-5,0.2-11.2,0.1-14.5-0.5c-4.6-0.8-9.8-3.6-13.1-3.4s-13,0.1-17.4,0s-7.6,0.3-11.5,0.1c-2.2-0.1-4.2-0.2-5.6-0.3
					c-0.4,0.5-0.7,1-1,1.4c-0.1,0.2-0.2,0.3-0.3,0.5c1.5,0.3,4.3,0.8,6.9,0.8c3.8,0,11.9,0.6,16.9,0.2s8.9-0.2,13.6-0.1
					c4.8,0.1,8.3,1.5,12.9,1.7c4.5,0.2,11.6,2,15.8,2.3s13.2,2,23.1,1.6c9.9-0.4,14.8-2,20.9-4.5c6.1-2.5,9.9-1,15.1-1.1
					c5.2-0.1,8,1.2,13.9,1.6s15.6,0.1,21.2-3.4c2-1.2,3.3-1.9,4.3-2.3C248.4,188,248.1,187.7,247.9,187.5z"/>
				
					<radialGradient id="SVGID_39_" cx="166.4096" cy="51.4325" r="60.2282" gradientTransform="matrix(1 0 0 -1 0 246)" gradientUnits="userSpaceOnUse">
					<stop  offset="0.1304" style="stop-color:#FFFFFF"/>
					<stop  offset="0.6917" style="stop-color:#BAA68B"/>
					<stop  offset="0.8529" style="stop-color:#BDA98F"/>
					<stop  offset="0.9357" style="stop-color:#C0AE94"/>
				</radialGradient>
				<path class="st35" d="M248.6,188.2c-0.3-0.2-0.5-0.5-0.8-0.7c-0.2-0.2-0.3-0.3-0.5-0.5l0,0c-2.5-0.7-2.4-0.2-5.2,1
					c-3.2,1.3-8.9,2.1-15.5,2.1c-6.7,0-17.1-3.3-20.7-3.2c-3.6,0.1-4.6-0.1-13.1,4.8c-1.6,0.9-3.1,1.7-4.6,2.3
					c-6.2,2.8-11.5,3.3-18,3.6c-8.1,0.3-20.2-3.8-20.2-3.8c-0.3,0-1.3,0-2.7-0.1c-3.4-0.2-9.2-0.6-12.4-1.4
					c-4.5-1.1-12.5-3.3-15.3-4.1c-2.9-0.8-9.5-1.3-16-0.9c-4.7,0.2-12.6,0.2-16.6,0.2c-0.7,0.6-1.3,1.3-1.9,2.1
					c-0.4,0.5-0.7,1-1,1.4c-0.1,0.2-0.2,0.3-0.3,0.5c-0.6,0.9-1.2,1.8-1.8,2.8c-0.1,0-0.1,0.1-0.1,0.2c-0.1,0.2-0.2,0.4-0.3,0.6
					c0.5-0.2,1.1-0.4,1.6-0.6c0,0,0,0,0-0.1c1.2-0.2,2.3-0.7,3.4-1.1c0.2,0.7,0.5,1.4,0.9,2.1c0.1,0.3,0.5,0.3,0.7,0.1
					c0.8-0.7,1.7-1.2,2.6-1.7c0.1,0.6,0.3,1.3,0.5,1.9c0.1,0.3,0.5,0.4,0.7,0.2c0.9-0.8,1.9-1.4,2.9-2c0.3,0.7,0.6,1.4,1.2,2
					c0.2,0.2,0.5,0.2,0.6,0c1-0.9,2-1.7,3.2-2.2c0.3,1,0.6,1.9,1.4,2.7c0.2,0.2,0.5,0.2,0.7,0c1-0.9,1.9-1.9,3.1-2.6
					c0.5,0.7,0.9,1.4,1.5,2.1c0.2,0.2,0.5,0.2,0.7,0c0.4-0.4,0.7-0.8,1.1-1.2c0.4,0.7,0.9,1.3,1.5,1.9c0.2,0.2,0.5,0.1,0.7-0.1
					c0.5-0.7,1.1-1.3,1.8-1.9c0.3,0.7,0.7,1.6,1.4,1.7c1.3,0.1,2.1-1.3,3-2c0.4-0.3,0.4,0.3,0.5,0.7c0.1,0.2,0.2,0.5,0.4,0.7
					c0.2,0.4,0.5,0.5,0.9,0.7c1,0.3,2.1-1.2,2.9-2c0.3,0.9,0.8,1.7,1.4,2.3c0.2,0.2,0.4,0.2,0.6,0c0.6-0.6,1.3-1.1,2-1.5
					c0.4,0.9,1.2,1.6,1.9,2.2c0.1,0.1,0.4,0.2,0.5,0c0.5-0.6,1.1-1.1,1.7-1.6c0.3,0.8,0.7,1.5,1.3,2c0.2,0.2,0.4,0.2,0.6,0
					c0.4-0.4,2.5-2.1,2.7-1.5c0.4,0.7,0.6,1.5,1.2,2.1c0.9,0.9,2.1-0.4,3-1c0.4,0.9,0.9,1.7,1.7,2.2c0.1,0.1,0.3,0.1,0.4-0.1
					c0.6-0.7,1.3-1.3,2.1-1.7c0.8,0.8,1.5,2.1,2.6,2.2c1.2,0,1.7-1.2,2.4-2c0.6,0.7,1.3,1.4,2.1,1.9c0.1,0.1,0.4,0.1,0.5-0.1
					c0.4-0.5,0.8-1.2,1.3-1.6c0.9,1.1,1.9,2.1,2.9,3c0.2,0.2,0.6,0.1,0.7-0.2c0.1-0.3,0.2-0.7,0.3-1c0.5,0.7,1.1,1.4,1.8,1.4
					c1,0,1.5-1.2,2-2c0.3,0.8,0.6,1.9,1.3,2.1c0.9,0.2,1.9-0.7,2.7-1.3c0.3,0.6,0.5,1.3,1.1,1.7c0.6,0.4,1.4-0.5,1.8-0.9
					c0.8-0.8,1.4,1.2,2.3,1.2c0.7,0,1.2-0.8,1.6-1.5c0.5,0.6,1.4,1.5,2.1,1.3c0.8-0.2,1-1.2,1.1-2c0.7,0.6,1.6,1.4,2.4,1.4
					c0.9,0,1.5-1.3,1.9-2.3c0.4,0.6,0.9,1.2,1.6,1.4c0.8,0.3,1.4-0.8,1.8-1.5c0.6,0.7,1.4,1.5,2.2,1.5c0.9,0,1.4-1,1.8-1.8
					c0.5,0.7,1.1,1.3,1.8,1.7c0.2,0.1,0.5,0,0.6-0.2c0.4-0.7,0.9-1.4,1.5-2.1c1,0.9,2.2,2.1,3.5,2.2c0.6,0,1-0.7,1.3-1.2
					c0.6-1.2,1-2.2,1.9-3.2c0.6,0.7,1.2,1.6,2.1,1.5c0.7,0,1-0.9,1.4-1.5c0.7,0.8,1.6,1.7,2.6,1.5c0.8-0.2,1.2-1.3,1.4-2.3
					c0.5,0.8,1.1,1.6,1.9,1.7c1.2,0.2,1.6-1.9,2.3-2.8c0.2,0.7,0.6,1.3,1,1.8c0.2,0.3,0.6,0.3,0.7,0c0.2-0.4,0.4-0.7,0.6-1
					c0.5,1,1.4,1.8,2.3,2.3c0.3,0.2,0.6,0,0.7-0.3c0.2-0.6,0.4-1.3,0.7-1.9c1.1,1,2.2,2.3,3.7,2.5c0.2,0,0.4-0.1,0.5-0.2
					c0.1,0,0.1-0.1,0.1-0.2c0.1-0.4,0.1-0.9,0.1-1.3c0.5,0.7,1.2,1.2,1.8,1.8c0.3,0.2,0.6,0.1,0.7-0.2c0.2-0.6,0.5-1.2,0.8-1.7
					c0.7,0.8,1.4,1.9,2.4,2.2c0.8,0.2,1.1-0.5,1.3-1.3c0.5,0.7,1,1.4,1.8,1.7c0.2,0.1,0.5,0.1,0.6-0.2c0.5-0.7,0.9-1.3,1.4-2
					c0.6,0.8,1.2,1.5,2,2.1c0.2,0.1,0.5,0,0.6-0.2c0.2-0.5,0.4-1,0.7-1.4c0.9,0.6,2,1,3.1,1.3c0.2,0.1,0.5-0.1,0.6-0.3
					c0.2-0.5,0.3-1.1,0.3-1.6c0.9,0.5,1.7,1.3,2.8,1.6c0.2,0.1,0.5-0.1,0.6-0.3c0.1-0.6,0.2-1.2,0.2-1.8c0.6,0.3,1.2,0.6,1.8,1.1
					c0.2,0.2,0.7,0.2,0.7-0.2c0.2-0.7,0.3-1.3,0.5-2c0.8,0.5,1.7,0.8,2.6,1c0.3,0.1,0.5-0.2,0.6-0.4c0.1-0.6,0.1-1.2,0.2-1.8
					c0.6,0.5,1.3,0.8,2,1.2c0.3,0.2,0.6,0,0.7-0.4c0.1-0.7,0.1-1.5,0.1-2.2c0.6,0.2,1.3,0.5,2,0.7h0.1c0.2,0.1,0.4,0.1,0.6,0.2
					C251.4,191.1,250,189.6,248.6,188.2z"/>
				<g>
					
						<radialGradient id="SVGID_40_" cx="166.4465" cy="51.4329" r="60.2067" gradientTransform="matrix(1 0 0 -1 0 246)" gradientUnits="userSpaceOnUse">
						<stop  offset="6.433400e-02" style="stop-color:#957E5E"/>
						<stop  offset="0.1733" style="stop-color:#8F7755"/>
						<stop  offset="0.3083" style="stop-color:#8D7451"/>
						<stop  offset="1" style="stop-color:#C5BAAD"/>
					</radialGradient>
					<path class="st36" d="M248.6,188.2c-0.3-0.2-0.5-0.5-0.8-0.7c-0.2-0.2-0.3-0.3-0.5-0.5l0,0c-1.9-0.5-2.3-0.3-3.6,0.3
						c0.8,0,1.6,0.2,2.2,0.6c1.6,1.2,1,3.2-0.4,4.3c-2,1.6-4.9,2.3-7.4,2.9c-7,1.8-14.8,1.8-21.7-0.6c-1.7-0.6-4.1-1.2-5.2-2.6
						c-1.2-1.5,1.7-2,2.5-2.1c4.3-0.6,8.7,0.6,13,0.6c3.2,0,6.4-0.4,9.6-1.1c-2.8,0.4-6.2,0.7-9.9,0.7c-6.7,0-17.1-3.3-20.7-3.2
						c-3.6,0.1-4.6-0.1-13.1,4.8c-1.6,0.9-3.1,1.7-4.6,2.3c-6.2,2.8-11.5,3.3-18,3.6c-8.1,0.3-20.2-3.8-20.2-3.8
						c-0.3,0-1.3,0-2.7-0.1c-3.4-0.2-9.2-0.6-12.4-1.4c-4.5-1.1-12.5-3.3-15.3-4.1c-2.9-0.8-9.5-1.3-16-0.9
						c-4.7,0.2-12.6,0.2-16.6,0.2c-0.7,0.6-1.3,1.3-1.9,2.1c-0.4,0.5-0.7,1-1,1.4c-0.1,0.2-0.2,0.3-0.3,0.5
						c-0.6,0.9-1.2,1.8-1.8,2.8c-0.1,0-0.1,0.1-0.1,0.2c-0.1,0.2-0.2,0.4-0.3,0.6c0.5-0.2,1.1-0.4,1.6-0.6c0,0,0,0,0-0.1
						c1.2-0.2,2.3-0.7,3.4-1.1c0.2,0.7,0.5,1.4,0.9,2.1c0.1,0.3,0.5,0.3,0.7,0.1c0.8-0.7,1.7-1.2,2.6-1.7c0.1,0.6,0.3,1.3,0.5,1.9
						c0.1,0.3,0.5,0.4,0.7,0.2c0.9-0.8,1.9-1.4,2.9-2c0.3,0.7,0.6,1.4,1.2,2c0.2,0.2,0.5,0.2,0.6,0c1-0.9,2-1.7,3.2-2.2
						c0.3,1,0.6,1.9,1.4,2.7c0.2,0.2,0.5,0.2,0.7,0c1-0.9,1.9-1.9,3.1-2.6c0.5,0.7,0.9,1.4,1.5,2.1c0.2,0.2,0.5,0.2,0.7,0
						c0.4-0.4,0.7-0.8,1.1-1.2c0.4,0.7,0.9,1.3,1.5,1.9c0.2,0.2,0.5,0.1,0.7-0.1c0.5-0.7,1.1-1.3,1.8-1.9c0.3,0.7,0.7,1.6,1.4,1.7
						c1.3,0.1,2.1-1.3,3-2c0.4-0.3,0.4,0.3,0.5,0.7c0.1,0.2,0.2,0.5,0.4,0.7c0.2,0.4,0.5,0.5,0.9,0.7c0.8,0.3,1.7-0.7,2.4-1.5
						c-2.2-0.5-4.4-1-6.5-1.3c-7.7-1.1-15.6,0.1-23.3-0.6c-0.2,0-0.3-0.1-0.3-0.3c0.4-4.3,8.4-4.1,11.3-4.2c3.2-0.1,6.4,0,9.5,0.2
						c0.7,0,1.4,0.1,2.2,0.1c0-0.1,0.1-0.2,0.3-0.2c1.2-0.1,2.5,0,3.7,0.2h0.1c0.1,0,0.2,0,0.2,0.1c5.2,0.8,10.1,3.6,14.7,5.8
						c0.3,0.1,0.2,0.5-0.1,0.6c-2.3,0.7-4.6,0.7-7,0.5c0.4,0.7,1.1,1.3,1.6,1.8c0.1,0.1,0.4,0.2,0.5,0c0.5-0.6,1.1-1.1,1.7-1.6
						c0.3,0.8,0.7,1.5,1.3,2c0.2,0.2,0.4,0.2,0.6,0c0.4-0.4,2.5-2.1,2.7-1.5c0.4,0.7,0.6,1.5,1.2,2.1c0.9,0.9,2.1-0.4,3-1
						c0.4,0.9,0.9,1.7,1.7,2.2c0.1,0.1,0.3,0.1,0.4-0.1c0.6-0.7,1.3-1.3,2.1-1.7c0.8,0.8,1.5,2.1,2.6,2.2c1.2,0,1.7-1.2,2.4-2
						c0.6,0.7,1.3,1.4,2.1,1.9c0.1,0.1,0.4,0.1,0.5-0.1c0.4-0.5,0.8-1.2,1.3-1.6c0.9,1.1,1.9,2.1,2.9,3c0.2,0.2,0.6,0.1,0.7-0.2
						c0.1-0.3,0.2-0.7,0.3-1c0.5,0.7,1.1,1.4,1.8,1.4c1,0,1.5-1.2,2-2c0.3,0.8,0.6,1.9,1.3,2.1c0.9,0.2,1.9-0.7,2.7-1.3
						c0.3,0.6,0.5,1.3,1.1,1.7c0.6,0.4,1.4-0.5,1.8-0.9c0.8-0.8,1.4,1.2,2.3,1.2c0.7,0,1.2-0.8,1.6-1.5c0.5,0.6,1.4,1.5,2.1,1.3
						c0.8-0.2,1-1.2,1.1-2c0.7,0.6,1.6,1.4,2.4,1.4c0.9,0,1.5-1.3,1.9-2.3c0.4,0.6,0.9,1.2,1.6,1.4c0.8,0.3,1.4-0.8,1.8-1.5
						c0.6,0.7,1.4,1.5,2.2,1.5c0.9,0,1.4-1,1.8-1.8c0.5,0.7,1.1,1.3,1.8,1.7c0.2,0.1,0.5,0,0.6-0.2c0.4-0.7,0.9-1.4,1.5-2.1
						c1,0.9,2.2,2.1,3.5,2.2c0.6,0,1-0.7,1.3-1.2c0.6-1.2,1-2.2,1.9-3.2c0.6,0.7,1.2,1.6,2.1,1.5c0.7,0,1-0.9,1.4-1.5
						c0.7,0.8,1.6,1.7,2.6,1.5c0.8-0.2,1.2-1.3,1.4-2.3c0.5,0.8,1.1,1.6,1.9,1.7c1.2,0.2,1.6-1.9,2.3-2.8c0.2,0.7,0.6,1.3,1,1.8
						c0.2,0.3,0.6,0.3,0.7,0c0.2-0.4,0.4-0.7,0.6-1c0.5,1,1.4,1.8,2.3,2.3c0.3,0.2,0.6,0,0.7-0.3c0.2-0.6,0.4-1.3,0.7-1.9
						c1.1,1,2.2,2.3,3.7,2.5c0.2,0,0.4-0.1,0.5-0.2c0.1,0,0.1-0.1,0.1-0.2c0.1-0.4,0.1-0.9,0.1-1.3c0.5,0.7,1.2,1.2,1.8,1.8
						c0.3,0.2,0.6,0.1,0.7-0.2c0.2-0.6,0.5-1.2,0.8-1.7c0.7,0.8,1.4,1.9,2.4,2.2c0.8,0.2,1.1-0.5,1.3-1.3c0.5,0.7,1,1.4,1.8,1.7
						c0.2,0.1,0.5,0.1,0.6-0.2c0.5-0.7,0.9-1.3,1.4-2c0.6,0.8,1.2,1.5,2,2.1c0.2,0.1,0.5,0,0.6-0.2c0.2-0.5,0.4-1,0.7-1.4
						c0.9,0.6,2,1,3.1,1.3c0.2,0.1,0.5-0.1,0.6-0.3c0.2-0.5,0.3-1.1,0.3-1.6c0.9,0.5,1.7,1.3,2.8,1.6c0.2,0.1,0.5-0.1,0.6-0.3
						c0.1-0.6,0.2-1.2,0.2-1.8c0.6,0.3,1.2,0.6,1.8,1.1c0.2,0.2,0.7,0.2,0.7-0.2c0.2-0.7,0.3-1.3,0.5-2c0.8,0.5,1.7,0.8,2.6,1
						c0.3,0.1,0.5-0.2,0.6-0.4c0.1-0.6,0.1-1.2,0.2-1.8c0.6,0.5,1.3,0.8,2,1.2c0.3,0.2,0.6,0,0.7-0.4c0.1-0.7,0.1-1.5,0.1-2.2
						c0.6,0.2,1.3,0.5,2,0.7h0.1c0.2,0.1,0.4,0.1,0.6,0.2C251.4,191.1,250,189.6,248.6,188.2z"/>
				</g>
				<g class="st37">
					
						<radialGradient id="SVGID_41_" cx="127.6793" cy="108.2186" r="15.1094" gradientTransform="matrix(1 0 0 -1 0 246)" gradientUnits="userSpaceOnUse">
						<stop  offset="0" style="stop-color:#BAA68B"/>
						<stop  offset="0.6608" style="stop-color:#BDA98F"/>
						<stop  offset="1" style="stop-color:#C0AE94"/>
					</radialGradient>
					<path class="st38" d="M139,155.6c-2.6-6.6-6.2-12.7-10-18.7s-7.7-12-12.5-17.2c-0.1-0.1-0.2,0-0.1,0.1c4,5.8,8,11.6,11.7,17.6
						c1.9,3,3.8,6,5.6,9s3.2,6.2,4.8,9.4C138.6,156,139,155.9,139,155.6z"/>
					
						<radialGradient id="SVGID_42_" cx="119.6098" cy="67.5464" r="11.2248" gradientTransform="matrix(1 0 0 -1 0 246)" gradientUnits="userSpaceOnUse">
						<stop  offset="0" style="stop-color:#BAA68B"/>
						<stop  offset="0.6608" style="stop-color:#BDA98F"/>
						<stop  offset="1" style="stop-color:#C0AE94"/>
					</radialGradient>
					<path class="st39" d="M132.4,187.5c-2.1-2.3-3-5.3-5-7.6c-1.6-1.8-3.8-2.9-6-3.8c-4.9-2-10.7-3-14.4-7c-0.1-0.1-0.2,0-0.1,0.1
						c3.1,4.1,7.8,5.5,12.4,7.2c2.6,1,5.1,2.1,7.2,4c2.3,2.1,3.3,5.4,5.7,7.5C132.3,187.9,132.5,187.7,132.4,187.5z"/>
					
						<radialGradient id="SVGID_43_" cx="174.7822" cy="55.1759" r="27.6582" gradientTransform="matrix(1 0 0 -1 0 246)" gradientUnits="userSpaceOnUse">
						<stop  offset="0" style="stop-color:#BAA68B"/>
						<stop  offset="0.6608" style="stop-color:#BDA98F"/>
						<stop  offset="1" style="stop-color:#C0AE94"/>
					</radialGradient>
					<path class="st40" d="M211.8,183.9c-6.1,0.5-14.5,4.9-19.9,7.7c-5.9,3.1-12.1,4.8-18.8,5.2c-12.7,0.7-25.8-3.3-36.7-9.8
						c-0.1,0-0.1,0.1-0.1,0.1c5.3,3.4,10.7,6.2,16.7,8.1c6.3,2,12.9,2.8,19.5,2.6c6.2-0.2,12.3-1.6,17.9-4.3
						c6.2-2.9,12.9-6.5,18.8-8.7C209.6,184.7,216.1,183.5,211.8,183.9z"/>
					
						<radialGradient id="SVGID_44_" cx="142.7125" cy="220.5936" r="34.1199" gradientTransform="matrix(1 0 0 -1 0 246)" gradientUnits="userSpaceOnUse">
						<stop  offset="0" style="stop-color:#BAA68B"/>
						<stop  offset="0.6608" style="stop-color:#BDA98F"/>
						<stop  offset="1" style="stop-color:#C0AE94"/>
					</radialGradient>
					<path class="st41" d="M189.3,37c-7.2,0.1-14.2-1.1-21.2-2.5c-6.6-1.3-12.9-3.4-19-6.2c-2.8-1.3-5.3-3.1-7.8-4.8
						c-2.8-1.8-5.8-3.1-8.9-4.5c-5.1-2.2-10.4-4.5-16-5.1c0,0,0,0-0.1,0c-2.5-1.6-6.1,0-8.6,0.8c-3.8,1.3-7.7,1.3-11.6,1.9
						c-0.1,0-0.1,0.2,0,0.2c3.5-0.2,7.1,0.2,10.5-0.7c2.7-0.7,5.1-1.8,7.8-1.8c6.6,1.2,12.8,3.6,18.9,6.3c2.9,1.3,5.6,2.7,8.3,4.4
						c2.6,1.7,5.2,3.5,8.1,4.7c2.9,1.2,5.9,2.5,8.9,3.5c3.2,1.1,6.5,1.8,9.9,2.4c6.8,1.2,13.9,2.5,20.9,1.6
						C189.4,37.3,189.4,37,189.3,37z"/>
					
						<radialGradient id="SVGID_45_" cx="166.4465" cy="143" r="92.4796" gradientTransform="matrix(1 0 0 -1 0 246)" gradientUnits="userSpaceOnUse">
						<stop  offset="0" style="stop-color:#BAA68B"/>
						<stop  offset="0.6608" style="stop-color:#BDA98F"/>
						<stop  offset="1" style="stop-color:#C0AE94"/>
					</radialGradient>
					<path class="st42" d="M247.4,187L247.4,187c0.2-0.7,0.2-1.2-0.1-1.9c-0.1-0.2-0.4-0.5-0.6-0.7c-0.7-0.7-0.7-1.3-0.6-2.2
						c0.3-2.4-0.7-4.5-1.6-6.7c-1.1-2.5-2.5-4.9-4.1-7.2c-1.6-2.3-3-4.7-3.3-7.5c0.5-3,1.1-6.1,1.4-8.3c0.8-5.3,2.1-10.4,2.5-15.7
						c0.3-4.9-0.6-9.7-2.3-14.2c-1.7-4.4-3.9-8.5-5-13.1c0-0.1,0.1-0.1,0.1-0.2c1.3-2.8,3.5-5.7,3-8.9c-0.6-3.8-2-7.5-3.5-11
						c-1.2-3-2.7-5.8-3.5-8.9c-0.1-1.3,0-2.6,0.3-3.9c0.6-2.4,1.8-4.6,2.6-6.9c1.5-4.7,1.5-9.6,1.1-14.5c-0.4-5.4-0.8-10.8-1.2-16.1
						c-0.2-2.1-0.3-4.2-0.7-6.3c-0.3-1.5-0.9-3.7-0.3-5.3c2.7-3.4,5.8-6.3,8.1-10.1c1.3-2.3,2.4-4.7,3.3-7.2c0,0-0.1,0.1-0.2,0.1
						c0.1-0.1,0.1-0.1,0.2-0.2c0.3-0.3,0-0.8-0.4-0.7c-0.8,0.1-1.5,0.5-2.2,0.7c0-0.2-0.1-0.5-0.1-0.7c0-0.3,0-0.7-0.1-1
						c0-0.3-0.4-0.6-0.7-0.3c-0.4,0.4-1.1,0.7-1.5,1.2c-0.1-0.3-0.3-0.6-0.5-0.9c-0.3-0.5-0.5-0.9-0.8-1.4c-0.1-0.2-0.5-0.3-0.7-0.1
						c-0.5,0.5-1,0.9-1.5,1.4c-0.4-0.7-0.5-1.4-0.9-2.1c-0.1-0.2-0.4-0.3-0.6-0.1c-0.5,0.4-1,0.8-1.5,1.2c0-0.1-0.1-0.1-0.1-0.2
						c-0.2-0.5-0.4-1-0.6-1.6c-0.1-0.2-0.4-0.4-0.6-0.2c-0.5,0.4-1.2,0.8-1.7,1.3c-0.1-0.2-0.3-0.4-0.5-0.7
						c-0.3-0.4-0.5-0.8-0.8-1.2c-0.1-0.2-0.4-0.3-0.6-0.2c-0.6,0.4-1.1,0.9-1.5,1.5c-0.5-0.6-1-1.2-1.5-1.8
						c-0.1-0.1-0.4-0.2-0.5-0.1c-0.6,0.5-1.1,1.1-1.5,1.8c-0.5-0.5-0.9-1.1-1.4-1.7c-0.2-0.2-0.4-0.2-0.6,0c-0.3,0.3-0.8,0.9-1,1.4
						c-0.5-0.6-1-1.2-1.5-1.9c-0.2-0.2-0.6-0.2-0.7,0.1c-0.2,0.5-0.5,1.1-0.7,1.7c-0.2-0.2-0.5-0.5-0.7-0.7
						c-0.4-0.5-0.8-1.1-1.3-1.5c-0.3-0.2-0.6-0.1-0.8,0.2c-0.3,0.7-0.7,1.5-0.9,2.3c-1-0.3-1.8-1.2-2.5-1.9c-0.2-0.2-0.5-0.2-0.7,0
						c-0.5,0.6-0.8,1.3-1.2,2c-0.4,0.6-2-1.5-2.4-1.8c-0.2-0.1-0.5,0-0.6,0.1c-0.4,0.7-0.8,1.5-1.2,2.2c-0.3-0.2-0.6-0.4-0.8-0.6
						c-0.4-0.3-0.8-0.6-1.3-0.9c-0.2-0.1-0.5-0.1-0.6,0.2c-0.2,0.5-0.4,1.1-0.5,1.6c0,0.2-0.1,0.4-0.1,0.6c-0.9-0.5-1.9-1-2.8-1.3
						c-0.3-0.1-0.5,0.1-0.6,0.3c-0.2,0.5-0.5,1-0.7,1.6c-0.1-0.1-0.3-0.2-0.5-0.3c-0.4-0.3-0.9-0.6-1.3-0.9
						c-0.3-0.2-0.7-0.2-0.8,0.2c-0.3,0.8-0.6,1.6-0.8,2.5c-0.3-0.2-0.5-0.5-0.8-0.7s-0.8-0.6-1.2-0.5c-0.7,0.3-1,1.2-1.2,1.9
						c-0.8-0.4-1.6-0.9-2.4-1.4c-0.2-0.1-0.5,0-0.6,0.2c-0.3,0.6-0.8,1.3-0.9,2c-0.8-0.4-1.8-0.5-2.3-1.2c-0.1-0.2-0.5-0.2-0.6,0
						c-0.5,0.6-1,1.4-1.2,2.2c-0.6-0.5-1.3-0.8-1.8-1.3c-0.2-0.2-0.5-0.1-0.7,0.1c-0.4,0.6-0.8,1.1-1.2,1.6
						c-0.9-0.4-1.7-0.9-2.5-1.4c-0.2-0.1-0.4-0.1-0.5,0.1c-0.6,0.7-1,1.5-1.3,2.4c-0.7-0.5-1.5-0.9-2.1-1.5c-0.2-0.2-0.4-0.2-0.7,0
						c-0.8,0.6-1.4,1.4-1.9,2.3l0,0c-0.7-0.4-1.3-0.7-1.9-1.2c-0.2-0.2-0.5-0.2-0.7,0.1c-0.4,0.7-0.6,1.5-0.9,2.3
						c-0.6-0.5-1.3-0.9-1.9-1.4c-0.2-0.2-0.5-0.2-0.7,0.1c-0.3,0.5-0.8,1.1-1,1.7c-0.7-0.5-1.6-0.9-2.4-1.3
						c-0.2-0.1-0.5-0.1-0.6,0.2c-0.3,0.6-0.7,1.2-0.9,1.9c-0.7-0.5-1.6-0.7-2.3-1.4c-0.1-0.1-0.4-0.1-0.5,0c-0.5,0.5-1,1-1.3,1.6
						c-0.6-0.8-1.9-1.1-2.7-1.7c-0.2-0.1-0.4,0-0.6,0.1c-0.3,0.5-0.7,1-0.9,1.5c-0.7-0.6-1.6-1.1-2.3-1.7c-0.2-0.1-0.4-0.2-0.5,0
						c-0.4,0.4-0.8,0.9-1.2,1.5c-0.8-0.7-1.6-1.4-2.3-2.1c-0.1-0.1-0.3-0.1-0.5-0.1c-0.7,0.3-1.4,0.9-1.8,1.5
						c-0.9-0.7-1.7-1.7-2.8-2.2c-0.6-0.2-1.3,0.5-1.8,1.1c-0.4-0.6-1-1.4-1.7-1.4s-1.1,0.5-1.4,1.1c-0.7-0.8-1.5-1.6-2.3-2.4
						c-0.1-0.1-0.4-0.2-0.5-0.1c-0.4,0.3-1,0.8-1.3,1.3c-1-0.6-1.7-1.7-2.3-2.6c-0.2-0.2-0.4-0.3-0.7-0.1c-0.5,0.4-1,0.8-1.4,1.2
						c-0.7-0.7-1.3-1.6-1.8-2.5c-0.1-0.2-0.5-0.3-0.6-0.1c-0.4,0.4-0.8,0.9-1.1,1.3c-0.5-0.7-1.1-1.3-1.6-1.9
						c-0.2-0.2-0.4-0.1-0.6,0c-0.4,0.3-0.8,0.7-1.2,1.1c-0.7-0.6-1.3-1.3-2-2c-0.2-0.2-0.4-0.1-0.5,0c-0.6,0.5-1.1,0.9-1.5,1.5
						c-0.9-0.6-1.9-0.8-2.6-1.6c-0.2-0.2-0.5-0.1-0.6,0.1c-0.4,0.5-0.6,1.1-0.9,1.6c-0.6-0.4-1.1-0.8-1.5-1.4
						c-0.2-0.2-0.4-0.3-0.7-0.1c-0.5,0.4-0.9,1-1.3,1.6c-0.5-0.4-1-0.8-1.5-1.3c-0.1-0.1-0.4-0.1-0.5,0c-0.4,0.4-0.8,1-1,1.6
						c-0.8-0.3-1.7-0.6-2.2-1.3c-0.2-0.2-0.5-0.1-0.6,0.1c-0.5,0.7-0.9,1.4-1.3,2.1c-0.7-0.1-1.4-0.5-1.9-1
						c-0.2-0.2-0.6-0.1-0.6,0.2c-0.1,0.4-0.3,0.9-0.4,1.4c-0.4-0.2-0.8-0.3-1.3-0.5c-0.6-0.2-1.1-0.6-1.7-0.8c-0.1,0-0.2,0-0.3,0
						l0,0c-0.5,0.1-0.7,0.9-0.9,1.3c-0.2,0.4-0.3,0.8-0.4,1.3c-0.4-0.1-0.7-0.3-1-0.4c-0.4-0.2-0.7-0.4-1.1-0.6
						c-0.1-0.1-0.2-0.1-0.3,0c-0.3,0.5-0.5,1.1-0.7,1.7c-0.4,0-0.7,0-1.1,0.1c-0.5,0-1,0-1.4,0.1c-0.1,0-0.1,0.1,0,0.2l0.1,0.1
						c1.3,3.1,3,6.2,4.5,9.2c2.2,4.4,4,8.9,5.5,13.6c2.8,8.3,5.3,16.9,5.5,25.7l-0.1,0.1c-1.1,8.8-5.5,17.6-3.4,26.4
						c0.8,3.4,2.4,6.5,4.1,9.5c1.5,4,1,7.8-0.4,11.9c-0.6,1.8-1.4,3.6-2.1,5.5c-0.8,2-1.2,4.2-1.7,6.3c0,0.1,0,0.2,0,0.3
						c-0.5,2.8,0.9,5.8,2.1,8.3c0.1,0.2,0.2,0.4,0.3,0.6c0,3.6-0.2,7.3-0.7,10.9s-1.4,7.1-2,10.7c-0.5,3.2-0.6,6.5,0.3,9.7
						c0.5,1.7,1.1,3.3,1.9,4.9c0,1.9-1.6,3.4-2.9,4.6c-1.4,1.4-2.9,2.7-4.3,4.1c-2.9,2.9-5.6,6.5-5.8,10.8l0,0
						c-1.1,0.9-2.1,2.4-3,3.6c-0.7,1-1.5,2.1-2.1,3.3c-0.1,0-0.1,0.1-0.1,0.2c-0.1,0.2-0.2,0.4-0.3,0.6c0.5-0.2,1.1-0.4,1.6-0.6
						c0,0,0,0,0-0.1c1.2-0.2,2.3-0.7,3.4-1.1c0.2,0.7,0.5,1.4,0.9,2.1c0.1,0.3,0.5,0.3,0.7,0.1c0.8-0.7,1.7-1.2,2.6-1.7
						c0.1,0.6,0.3,1.3,0.5,1.9c0.1,0.3,0.5,0.4,0.7,0.2c0.9-0.8,1.9-1.4,2.9-2c0.3,0.7,0.6,1.4,1.2,2c0.2,0.2,0.5,0.2,0.6,0
						c1-0.9,2-1.7,3.2-2.2c0.3,1,0.6,1.9,1.4,2.7c0.2,0.2,0.5,0.2,0.7,0c1-0.9,1.9-1.9,3.1-2.6c0.5,0.7,0.9,1.4,1.5,2.1
						c0.2,0.2,0.5,0.2,0.7,0c0.4-0.4,0.7-0.8,1.1-1.2c0.4,0.7,0.9,1.3,1.5,1.9c0.2,0.2,0.5,0.1,0.7-0.1c0.5-0.7,1.1-1.3,1.8-1.9
						c0.3,0.7,0.7,1.6,1.4,1.7c1.3,0.1,2.1-1.3,3-2c0.4-0.3,0.4,0.3,0.5,0.7c0.1,0.2,0.2,0.5,0.4,0.7c0.2,0.4,0.5,0.5,0.9,0.7
						c1,0.3,2.1-1.2,2.9-2c0.3,0.9,0.8,1.7,1.4,2.3c0.2,0.2,0.4,0.2,0.6,0c0.6-0.6,1.3-1.1,2-1.5c0.4,0.9,1.2,1.6,1.9,2.2
						c0.1,0.1,0.4,0.2,0.5,0c0.5-0.6,1.1-1.1,1.7-1.6c0.3,0.8,0.7,1.5,1.3,2c0.2,0.2,0.4,0.2,0.6,0c0.4-0.4,2.5-2.1,2.7-1.5
						c0.4,0.7,0.6,1.5,1.2,2.1c0.9,0.9,2.1-0.4,3-1c0.4,0.9,0.9,1.7,1.7,2.2c0.1,0.1,0.3,0.1,0.4-0.1c0.6-0.7,1.3-1.3,2.1-1.7
						c0.8,0.8,1.5,2.1,2.6,2.2c1.2,0,1.7-1.2,2.4-2c0.6,0.7,1.3,1.4,2.1,1.9c0.1,0.1,0.4,0.1,0.5-0.1c0.4-0.5,0.8-1.2,1.3-1.6
						c0.9,1.1,1.9,2.1,2.9,3c0.2,0.2,0.6,0.1,0.7-0.2c0.1-0.3,0.2-0.7,0.3-1c0.5,0.7,1.1,1.4,1.8,1.4c1,0,1.5-1.2,2-2
						c0.3,0.8,0.6,1.9,1.3,2.1c0.9,0.2,1.9-0.7,2.7-1.3c0.3,0.6,0.5,1.3,1.1,1.7c0.6,0.4,1.4-0.5,1.8-0.9c0.8-0.8,1.4,1.2,2.3,1.2
						c0.7,0,1.2-0.8,1.6-1.5c0.5,0.6,1.4,1.5,2.1,1.3c0.8-0.2,1-1.2,1.1-2c0.7,0.6,1.6,1.4,2.4,1.4c0.9,0,1.5-1.3,1.9-2.3
						c0.4,0.6,0.9,1.2,1.6,1.4c0.8,0.3,1.4-0.8,1.8-1.5c0.6,0.7,1.4,1.5,2.2,1.5c0.9,0,1.4-1,1.8-1.8c0.5,0.7,1.1,1.3,1.8,1.7
						c0.2,0.1,0.5,0,0.6-0.2c0.4-0.7,0.9-1.4,1.5-2.1c1,0.9,2.2,2.1,3.5,2.2c0.6,0,1-0.7,1.3-1.2c0.6-1.2,1-2.2,1.9-3.2
						c0.6,0.7,1.2,1.6,2.1,1.5c0.7,0,1-0.9,1.4-1.5c0.7,0.8,1.6,1.7,2.6,1.5c0.8-0.2,1.2-1.3,1.4-2.3c0.5,0.8,1.1,1.6,1.9,1.7
						c1.2,0.2,1.6-1.9,2.3-2.8c0.2,0.7,0.6,1.3,1,1.8c0.2,0.3,0.6,0.3,0.7,0c0.2-0.4,0.4-0.7,0.6-1c0.5,1,1.4,1.8,2.3,2.3
						c0.3,0.2,0.6,0,0.7-0.3c0.2-0.6,0.4-1.3,0.7-1.9c1.1,1,2.2,2.3,3.7,2.5c0.2,0,0.4-0.1,0.5-0.2c0.1,0,0.1-0.1,0.1-0.2
						c0.1-0.4,0.1-0.9,0.1-1.3c0.5,0.7,1.2,1.2,1.8,1.8c0.3,0.2,0.6,0.1,0.7-0.2c0.2-0.6,0.5-1.2,0.8-1.7c0.7,0.8,1.4,1.9,2.4,2.2
						c0.8,0.2,1.1-0.5,1.3-1.3c0.5,0.7,1,1.4,1.8,1.7c0.2,0.1,0.5,0.1,0.6-0.2c0.5-0.7,0.9-1.3,1.4-2c0.6,0.8,1.2,1.5,2,2.1
						c0.2,0.1,0.5,0,0.6-0.2c0.2-0.5,0.4-1,0.7-1.4c0.9,0.6,2,1,3.1,1.3c0.2,0.1,0.5-0.1,0.6-0.3c0.2-0.5,0.3-1.1,0.3-1.6
						c0.9,0.5,1.7,1.3,2.8,1.6c0.2,0.1,0.5-0.1,0.6-0.3c0.1-0.6,0.2-1.2,0.2-1.8c0.6,0.3,1.2,0.6,1.8,1.1c0.2,0.2,0.7,0.2,0.7-0.2
						c0.2-0.7,0.3-1.3,0.5-2c0.8,0.5,1.7,0.8,2.6,1c0.3,0.1,0.5-0.2,0.6-0.4c0.1-0.6,0.1-1.2,0.2-1.8c0.6,0.5,1.3,0.8,2,1.2
						c0.3,0.2,0.6,0,0.7-0.4c0.1-0.7,0.1-1.5,0.1-2.2c0.6,0.2,1.3,0.5,2,0.7h0.1c0.2,0.1,0.4,0.1,0.6,0.2
						C251.4,190.5,249.1,188.8,247.4,187z M248.2,191c-0.3-0.1-0.5,0.2-0.5,0.4c0,0.7,0,1.5,0,2.2c-0.7-0.3-1.3-0.7-1.8-1.2
						c-0.2-0.2-0.7-0.1-0.7,0.2c-0.2,0.7-0.2,1.4-0.3,2.1c-0.8-0.3-1.6-0.6-2.4-1.1c-0.2-0.2-0.6,0-0.7,0.3
						c-0.2,0.6-0.4,1.3-0.5,1.9c-0.6-0.4-1.2-0.6-1.9-0.8c-0.1-0.4-0.8-0.4-0.8,0.1c0,0.6-0.1,1.1-0.1,1.6c-1-0.4-1.8-1.2-2.8-1.6
						c-0.3-0.1-0.5,0.2-0.5,0.4c-0.1,0.6-0.2,1.1-0.3,1.6c-0.9-0.3-1.9-0.6-2.6-1.2c-0.2-0.1-0.5-0.2-0.7,0
						c-0.3,0.4-0.6,0.9-0.8,1.4c-0.7-0.6-1.2-1.4-1.7-2.1c-0.2-0.2-0.6-0.1-0.7,0.1c-0.4,0.8-1,1.5-1.5,2.2
						c-0.8-0.5-1.2-1.4-1.7-2.1c-0.2-0.3-0.7-0.3-0.8,0.1c-0.2,0.9-0.4,1.9-1.3,0.9c-0.5-0.5-1-1.1-1.5-1.6
						c-0.2-0.2-0.5-0.1-0.7,0.1c-0.4,0.6-0.7,1.2-1,1.8c-0.7-0.6-1.4-1.3-1.8-2.2c-0.1-0.3-0.7-0.2-0.8,0.1
						c-0.1,0.7-0.1,1.4-0.1,2.1c-1.4-0.4-2.5-1.8-3.5-2.7c-0.3-0.2-0.6-0.1-0.8,0.2c-0.3,0.6-0.5,1.3-0.7,1.9
						c-0.8-0.6-1.4-1.3-1.8-2.2c-0.1-0.3-0.5-0.5-0.7-0.2c-0.3,0.4-0.6,0.8-0.8,1.2c-0.3-0.5-0.6-1-0.9-1.5c0-0.3-0.3-0.6-0.6-0.3
						c-0.8,0.6-1.1,1.5-1.5,2.3c-0.7,1.4-1.8-0.9-2.2-1.6c-0.2-0.4-0.7-0.3-0.8,0.1c-0.3,0.8-0.4,1.6-0.8,2.4c-0.5,1-2.1-1-2.4-1.4
						c-0.2-0.2-0.5-0.1-0.7,0.1c-0.3,0.5-0.7,2.2-1.8,1.3c-0.4-0.4-0.8-0.7-1.3-1h-0.1c-0.1-0.1-0.3,0-0.4,0.1
						c-0.9,1.1-1.5,2.2-2.1,3.4c-0.8,1.7-2.9-0.7-3.8-1.5c-0.2-0.2-0.5-0.2-0.6,0c-0.6,0.7-1.1,1.4-1.6,2.2
						c-0.6-0.4-1.1-0.8-1.5-1.3c0.2-0.4-0.4-0.8-0.7-0.4s-1.1,2-1.7,1.8c-0.7-0.3-1.2-1-1.7-1.5c-0.2-0.1-0.4-0.2-0.6,0
						c-0.3,0.4-0.6,0.8-0.8,1.2c-0.6,1-1.7-0.8-2-1.2c-0.2-0.2-0.5-0.3-0.7,0c-0.2,0.4-1,2.6-1.6,2.5c-0.7-0.1-1.5-0.8-2.2-1.3
						c0-0.3-0.6-0.4-0.7,0c-0.1,0.5-0.2,1-0.4,1.5c-0.4,1.2-1.8-0.5-2.1-0.8c-0.1-0.1-0.4-0.1-0.5,0c-0.5,0.6-1.3,1.9-2.1,0.7
						c-0.2-0.3-0.6-0.7-1-0.7c-0.6,0-1,0.4-1.3,0.8c-0.9,0.9-1.2-0.6-1.6-1.3c-0.1-0.2-0.4-0.3-0.5-0.1c-0.7,0.4-1.3,0.9-2.1,1.3
						c-0.7,0.4-1.2-1.8-1.4-2.3c-0.1-0.2-0.5-0.3-0.6-0.1c-0.4,0.5-0.7,1-1,1.5c-0.9,1.4-1.9-0.1-2.5-0.9c-0.2-0.3-0.6-0.2-0.7,0.1
						c-0.1,0.4-0.2,0.8-0.3,1.1c-0.9-0.8-1.7-1.7-2.7-2.4c0-0.3-0.3-0.6-0.6-0.4c-0.5,0.4-0.8,0.8-1.2,1.4s-1.9-1.4-2.1-1.6
						c-0.1-0.1-0.4-0.2-0.5-0.1c-0.7,0.5-1.7,2.4-2.6,1.8c-0.7-0.4-1.1-1.3-1.9-1.6c-0.1-0.2-0.3-0.3-0.5-0.2
						c-0.7,0.3-1.3,0.8-1.8,1.3c-0.8,0.7-1.4-1.3-1.7-1.9c-0.1-0.2-0.4-0.2-0.6-0.1c-0.4,0.2-2,1.8-2.4,1.3
						c-0.5-0.6-0.8-1.5-1.2-2.1c-0.1-0.2-0.3-0.2-0.5-0.2c-1.1,0.3-2.1,0.9-3,1.7c-0.5-0.6-0.9-1.2-1-2c-0.1-0.3-0.5-0.4-0.7-0.2
						c-0.7,0.5-1.4,1-2,1.7c-0.6-0.6-1.2-1.2-1.7-1.9c0-0.2-0.3-0.5-0.6-0.3c-0.8,0.4-1.5,0.9-2.1,1.4c-0.6-0.6-1-1.4-1.2-2.2
						c0-0.2-0.4-0.4-0.5-0.2c-0.7,0.5-1.3,1.1-1.9,1.7c-1.2,1.2-1.6-1-2-1.7c-0.1-0.2-0.3-0.3-0.5-0.2c-0.7,0.3-1.2,0.7-1.7,1.2
						c-0.3,0.3-0.6,0.6-1,0.9c-0.8,0.6-1.3-1.2-1.4-1.6c-0.1-0.3-0.5-0.4-0.7-0.2c-0.7,0.7-1.4,1.3-2.1,2c-0.5-0.6-0.9-1.2-1.3-1.9
						c-0.1-0.3-0.5-0.3-0.7-0.1c-0.4,0.4-0.8,0.8-1.2,1.3c-0.5-0.5-0.9-1.1-1.5-1.6c-0.1-0.1-0.1-0.2-0.2-0.3
						c-0.1-0.1-0.1-0.1-0.2-0.2c-1.3,0.6-2.3,1.6-3.4,2.6c-0.6-0.7-0.7-1.6-1-2.4c-0.1-0.2-0.3-0.4-0.6-0.3
						c-1.4,0.5-2.5,1.3-3.6,2.3c-0.4-0.6-0.7-1.2-1-1.9c-0.1-0.2-0.4-0.3-0.6-0.2c-1.1,0.5-2.1,1.2-3,1.9c-0.2-0.6-0.3-1.2-0.4-1.8
						c-0.1-0.3-0.4-0.4-0.6-0.3c-1,0.5-2,1-2.9,1.7c-0.3-0.6-0.5-1.2-0.7-1.9c-0.1-0.2-0.3-0.4-0.6-0.3c-1.1,0.3-2.1,0.8-3.1,1.3
						c0.6-1,1.2-1.9,1.9-2.9c0.4-0.5,1.8-1.9,1.8-2.9c0.2,0,0.4-0.1,0.4-0.3c0.7-2.4,1.3-4.7,2.7-6.8c1.3-2,3.1-3.6,4.8-5.2
						c1.6-1.5,4.9-3.8,5.2-6.4c0.6,1.1,1.3,2.1,2,3.1c0.1,0.1,0.3,0.1,0.3-0.1c-1.3-3.1-2.8-6.1-3.8-9.4c-1.1-3.7-0.5-7.7,0.1-11.4
						c1.1-6.2,2.4-12.1,1.8-18.3c0.6,1.3,1.2,2.5,1.7,3.8c1,2.6,1,5.3,1.3,8c0,0.2,0.3,0.2,0.3,0c0.2-4.2-0.3-8-2.1-11.8
						c-1.5-3.1-3.4-6.5-3.4-10.1c0,0,0,0,0-0.1c1-2,1.1-4.3,1.8-6.4c0.8-2.1,1.7-4.2,2.4-6.4c0.8-2.5,1.4-5.3,0.9-7.9
						c2.3,4,4.8,7.9,7.4,11.8c0.2,0.2,0.5,0,0.4-0.2c-2.4-4.2-5-8.3-7.3-12.6c-2.1-3.7-4.2-7.6-5.4-11.7c-2.5-8.7,2.6-17.1,2.7-25.7
						c0.5-4.1,0.2-8-0.8-12.1c-1.2-4.8-2.5-9.6-4-14.3c-1.5-4.6-3.2-9-5.3-13.3c-1-2.1-2.2-4.2-3.3-6.3c-0.6-1.1-1.1-2.1-1.6-3.2
						c0.1,0,0.2,0,0.3,0.1c0.4,0.1,1,0.3,1.5,0.1c0.2,0,0.5-0.1,0.6-0.5c0.1-0.5,0.2-1.1,0.2-1.6c0.5,0.6,1.4,1,2.1,1.2
						c0.1,0,0.1,0,0.2,0c0.1,0,0.2,0,0.2-0.1c0.3-0.5,0.4-1.1,0.6-1.6c0.1-0.3,0.4-0.6,0.5-0.9c0.7,0.8,2.1,1.1,2.9,1.5
						c0.4,0.1,0.6-0.2,0.5-0.5c0.1-0.4,0.3-0.7,0.4-1c0.6,0.5,1.4,0.8,2.2,0.9c0.1,0,0.3-0.1,0.3-0.2c0.3-0.7,0.7-1.3,1.1-1.9
						c0.6,0.6,1.4,1,2.2,1.3c0.4,0.2,0.7-0.1,0.7-0.4c0.3-0.5,0.5-0.9,0.9-1.3c0.4,0.4,0.9,0.8,1.3,1.1c0.1,0.1,0.2,0.1,0.2,0.1
						s0.1,0.1,0.2,0.1c0.7-0.2,1.1-0.9,1.6-1.5c0.5,0.6,1.1,1.1,1.8,1.4c0.3,0.1,0.5-0.1,0.5-0.3c0.4-0.3,0.6-0.9,0.9-1.4
						c0.7,0.7,1.6,1.1,2.5,1.5c0.1,0.1,0.3,0.1,0.4,0c0.1,0,0.1,0,0.2-0.1c0.5-0.5,1-1,1.6-1.5c0.7,0.7,1.3,1.4,2,2
						c0.2,0.1,0.4,0.2,0.6,0c0.3-0.4,0.7-0.7,1.1-1.1c0.5,0.6,0.9,1.3,1.6,1.6c0.2,0.1,0.4,0,0.5-0.2c0.4-0.3,0.8-0.5,1.2-0.9
						c0.5,0.9,1.2,1.8,2,2.5c0.2,0.1,0.4,0.2,0.6,0c0.4-0.5,0.8-0.9,1.3-1.2c0.7,1,1.5,2,2.5,2.6c0.2,0.1,0.5,0,0.6-0.2
						c0.4-0.3,0.8-0.7,1.2-1.1c0.7,0.8,1.5,1.5,2.2,2.3c0.2,0.3,0.6,0.1,0.7-0.2c0.4-0.4,0.9-1.1,1.4-0.6c0.5,0.4,0.8,0.9,1.2,1.4
						c0.2,0.2,0.5,0.1,0.6-0.1c0.5-0.9,1-1.5,1.9-0.8c0.6,0.5,1.2,1.1,1.8,1.6c0.1,0.1,0.2,0.1,0.3,0.1s0.1,0,0.2,0
						c0.7-0.4,1.3-1.1,2-1.5c0.7,0.7,1.5,1.4,2.2,2.1c0.3,0.3,0.7,0,0.8-0.3c0.4-0.4,0.7-0.8,1.1-1.2c0.7,0.6,1.6,1.1,2.2,1.7
						c0.1,0.1,0.2,0.1,0.4,0.1c0.1,0,0.1,0,0.2-0.1l0.1-0.1l0,0c0.3-0.5,0.6-0.9,1-1.4c0.7,0.6,1.6,0.9,2.3,1.5
						c0.2,0.2,0.6,0.1,0.7-0.2c0.5-0.5,0.9-1,1.4-1.4c0.7,0.6,1.7,1.3,2.6,1.4c0.2,0,0.3-0.1,0.3-0.3c0.4-0.4,0.8-1,1.1-1.6
						c0.7,0.4,1.4,0.7,2.1,1.1c0.2,0.1,0.3,0.1,0.5,0c0,0,0,0,0.1,0c0.6-0.4,1-1,1.4-1.6c0.6,0.4,1.2,0.9,1.8,1.2
						c0.1,0.1,0.3,0.1,0.4,0c0.1,0,0.1,0,0.1-0.1c0.6-0.6,0.8-1.4,1.1-2.1c0.5,0.4,1.1,0.7,1.6,1c0.2,0.1,0.4,0,0.6-0.1
						c0.8-0.5,1.4-1.4,2.2-2c0.7,0.6,1.5,1.2,2.3,1.4c0.3,0.1,0.5-0.2,0.5-0.4c0.5-0.6,0.8-1.3,1.3-2c0.7,0.5,1.5,1,2.3,1.3
						c0.3,0.1,0.5-0.1,0.5-0.3c0.5-0.4,1-0.9,1.4-1.4c0.5,0.5,1.1,0.9,1.7,1.2c0.2,0.1,0.4,0,0.5-0.1l0,0c0.5-0.6,0.9-1.3,1.3-1.9
						c0.6,0.6,1.7,0.8,2.5,1.2c0.3,0.2,0.6-0.1,0.7-0.3c0.3-0.6,0.6-1.2,0.9-1.8c0.7,0.5,1.4,0.9,2.1,1.3c0.4,0.2,0.8-0.2,0.7-0.5
						c0.3-0.5,0.5-1.1,1-1.5l0.1,0.1c0.2,0.1,0.4,0.3,0.6,0.5c0.3,0.2,0.5,0.5,0.8,0.7c0.1,0.1,0.3,0.1,0.4,0.1c0.1,0,0.2,0,0.3-0.1
						c0.3-0.3,0.5-0.7,0.6-1.2c0.1-0.4,0.2-0.9,0.4-1.4c0.2,0.2,0.4,0.4,0.7,0.5c0.4,0.3,0.7,0.6,1.2,0.5c0.1,0.2,0.4,0.2,0.5,0
						c0.3-0.5,0.7-1.1,0.9-1.7c0.9,0.4,1.7,0.9,2.6,1.4c0.4,0.2,0.8-0.2,0.7-0.5c0.1-0.3,0.1-0.5,0.2-0.8c0.1-0.4,0.2-0.7,0.4-1
						c0.6,0.5,1.2,1.2,1.9,1.3l0,0c0.1,0.1,0.3,0.1,0.4-0.1c0.5-0.7,0.9-1.5,1.4-2.2c0.6,0.8,1.5,2.2,2.4,2s1.3-1.4,1.7-2.2
						c0.7,0.7,1.5,1.5,2.5,1.8c0.2,0,0.3,0,0.4-0.1c0.7-0.4,1-1.3,1.3-2.1c0.2,0.3,0.5,0.6,0.7,0.9c0.3,0.4,0.7,1,1.2,1.2
						c0.2,0.1,0.4,0,0.5-0.1s0.1-0.1,0.1-0.2c0.3-0.4,0.5-0.8,0.7-1.3c0.4,0.6,0.9,1.3,1.4,1.8c0.3,0.3,0.6,0.1,0.7-0.1
						c0.2-0.2,0.3-0.5,0.4-0.8c0.1-0.2,0.3-0.4,0.4-0.6c0.4,0.6,0.8,1.4,1.5,1.6c0.3,0.1,0.5-0.2,0.5-0.4c0.5-0.4,0.8-1,1.3-1.4
						c0.4,0.6,0.9,1.1,1.3,1.7c0.2,0.3,0.7,0.2,0.8,0c0.5-0.3,0.9-0.8,1.4-1.2c0.4,0.6,0.8,1.4,1.4,1.7c0,0.1,0.1,0.1,0.2,0.1h0.1
						c0,0,0,0,0.1,0c0.6-0.2,1.2-0.7,1.7-1.1c0.1,0.3,0.2,0.6,0.3,1c0.1,0.3,0.2,0.7,0.5,0.8c0.1,0.1,0.2,0.2,0.3,0.1
						c0.6-0.4,1.1-0.8,1.7-1.1c0.2,0.7,0.4,1.4,0.9,2c0.2,0.2,0.5,0.1,0.7-0.1c0.6-0.3,1.1-0.7,1.6-1.1c0.1,0.3,0.3,0.5,0.4,0.8
						c0.2,0.4,0.4,0.9,0.8,1.2c0.1,0.1,0.2,0.1,0.3,0.1c0.1,0.1,0.2,0.1,0.3,0c0.4-0.2,0.9-0.4,1.3-0.7c0,0.5,0,1.1,0.4,1.4
						c0.1,0.1,0.2,0.1,0.3,0.1c0,0,0,0,0.1,0c0.6,0.1,1.2-0.1,1.8-0.3c-0.1,0.3-0.3,0.6-0.4,1c-0.9,1.8-1.7,3.6-2.7,5.4
						c-1.1,1.9-2.3,3.6-3.7,5.3c-1.4,1.6-3,3.1-4.2,4.9c-0.1,0.1-0.1,0.2,0,0.3c-0.5,0.9-0.4,2.1-0.3,3.1c0.2,2,0.7,4,0.9,6
						c0.5,5.8,0.8,11.7,1.3,17.5c0.5,5.4,0.5,10.7-1.2,15.8c-0.8,2.4-2,4.7-2.5,7.2c-0.5,2.2,0,4.4,0.8,6.5c0.1,0.2,0.3,0.2,0.4,0.1
						c0.5,1.7,1.1,3.3,1.8,4.9c1.4,3.5,2.8,7.2,3.6,10.9c0.9,4-2,7.3-3.4,10.7c-1.2,3-1.7,6.4-0.9,9.5c0,0.2,0.3,0.1,0.3,0
						c0-3.4,0.4-6.4,1.7-9.5c0.7,4,2.5,7.7,4,11.5c2,4.8,2.9,9.7,2.6,14.9c-0.3,5.4-1.8,10.7-2.6,16c-0.8,5.5-1.9,10.9-1.9,16.4
						c0,0.2,0.6-2.8,1.3-6.5c0.7,3.9,3.9,7.2,5.7,10.6c1.3,2.5,3.1,5.7,2.8,8.7c-0.3,2,1.7,2.7,1.7,4.5c-0.3-0.3-0.6-0.7-0.8-1
						c-0.1-0.1-0.2,0-0.2,0.1c0.5,1.3,1.3,2.4,2.2,3.4c0.5,0.6,1,1.2,1.4,1.9c0.1,0.2,0.2,0.4,0.3,0.7
						C249.3,191.5,248.8,191.3,248.2,191z"/>
				</g>
				
					<radialGradient id="SVGID_46_" cx="172.3139" cy="163.2183" r="83.3382" gradientTransform="matrix(1 0 0 -1 0 246)" gradientUnits="userSpaceOnUse">
					<stop  offset="0.7348" style="stop-color:#985C00"/>
					<stop  offset="0.7598" style="stop-color:#9C6000"/>
					<stop  offset="0.7839" style="stop-color:#A76B00"/>
					<stop  offset="0.8075" style="stop-color:#BB7E00"/>
					<stop  offset="0.8309" style="stop-color:#D69800"/>
					<stop  offset="0.8539" style="stop-color:#F9BA00"/>
					<stop  offset="0.8553" style="stop-color:#FBBC00"/>
					<stop  offset="0.8794" style="stop-color:#FCCE44"/>
					<stop  offset="0.9053" style="stop-color:#FDDF85"/>
					<stop  offset="0.9289" style="stop-color:#FEEDBA"/>
					<stop  offset="0.9492" style="stop-color:#FFF7DF"/>
					<stop  offset="0.9656" style="stop-color:#FFFDF7"/>
					<stop  offset="0.9758" style="stop-color:#FFFFFF"/>
				</radialGradient>
				<path class="st43" d="M233,107.1c-1.5,2.8-2.5,5.7-3.4,8.6c-6.9,21.6-33.9,35-52.8,44.3c3.2-1.6,9.7-0.3,13.3-1.3
					c4.1-1.1,10-0.8,13.8-2.7c9.1-4.5,15.9-11.7,22.2-19.3c1.8-2.2,10.3-20.9,13.1-13.1c-0.1-0.4-0.3-0.7-0.4-1.1
					c-1.7-4.4-3.9-8.5-5-13.1c0-0.1,0.1-0.1,0.1-0.2c1.3-2.8,3.5-5.7,3-8.9c-0.3-1.7-0.7-3.4-1.2-5.1c0.2,1.5,0.2,2.5,0.5,3.9
					C236.6,102.8,234.2,104.8,233,107.1z"/>
				<g>
					<g>
						<defs>
							<polygon id="SVGID_47_" points="-39,-912 -38,-912 -39,-911 							"/>
						</defs>
						<defs>
							<polygon id="SVGID_48_" points="-41,-914 -42,-914 -41,-915 							"/>
						</defs>
						<clipPath id="SVGID_49_">
							<use xlink:href="#SVGID_47_"  style="overflow:visible;"/>
						</clipPath>
						<clipPath id="SVGID_50_" class="st44">
							<use xlink:href="#SVGID_48_"  style="overflow:visible;"/>
						</clipPath>
						
							<linearGradient id="SVGID_51_" gradientUnits="userSpaceOnUse" x1="127.3195" y1="122.6077" x2="216.146" y2="122.6077" gradientTransform="matrix(1 0 0 -1 0 246)">
							<stop  offset="0" style="stop-color:#000000"/>
							<stop  offset="0.224" style="stop-color:#FFFFFF"/>
							<stop  offset="0.4479" style="stop-color:#FFFFFF"/>
							<stop  offset="0.7394" style="stop-color:#FFFFFF"/>
							<stop  offset="0.8494" style="stop-color:#000000"/>
						</linearGradient>
						<path class="st45" d="M215.5,105.9c-6.1,4.6-10.8,11.2-16.7,16.3c-6.7,5.7-15.3,9.4-23.4,12.6c-4,1.6-8.1,2.7-12.4,2.8
							c-4.9,0.2-9.4-1.8-13.7-3.8c-3.6-1.7-7.1-3.7-10.7-5.6c-3.9-2.1-7.3-5.2-10.9-7.7c-0.3-0.2-0.5,0.2-0.3,0.4
							c6.2,6.1,13.3,12.2,21.1,16.1c4,2,8,3.6,12.5,3.9c4.5,0.4,9.1-0.8,13.3-2.2c8-2.7,16.3-7.3,22.9-12.6c3.7-3,7-6.4,10.3-9.9
							c2.9-3.2,6.1-6.4,8.6-9.9C216.3,106.1,215.8,105.6,215.5,105.9z"/>
					</g>
				</g>
				
					<linearGradient id="SVGID_52_" gradientUnits="userSpaceOnUse" x1="127.3195" y1="122.6077" x2="216.146" y2="122.6077" gradientTransform="matrix(1 0 0 -1 0 246)">
					<stop  offset="0" style="stop-color:#A94900"/>
					<stop  offset="0.224" style="stop-color:#F6FA00"/>
					<stop  offset="0.4479" style="stop-color:#EEEA00"/>
					<stop  offset="0.4687" style="stop-color:#E8DB00"/>
					<stop  offset="0.5629" style="stop-color:#CD9D00"/>
					<stop  offset="0.6426" style="stop-color:#B96F00"/>
					<stop  offset="0.7039" style="stop-color:#AD5300"/>
					<stop  offset="0.7394" style="stop-color:#A94900"/>
					<stop  offset="0.8494" style="stop-color:#A94900"/>
				</linearGradient>
				<path class="st46" d="M215.5,105.9c-6.1,4.6-10.8,11.2-16.7,16.3c-6.7,5.7-15.3,9.4-23.4,12.6c-4,1.6-8.1,2.7-12.4,2.8
					c-4.9,0.2-9.4-1.8-13.7-3.8c-3.6-1.7-7.1-3.7-10.7-5.6c-3.9-2.1-7.3-5.2-10.9-7.7c-0.3-0.2-0.5,0.2-0.3,0.4
					c6.2,6.1,13.3,12.2,21.1,16.1c4,2,8,3.6,12.5,3.9c4.5,0.4,9.1-0.8,13.3-2.2c8-2.7,16.3-7.3,22.9-12.6c3.7-3,7-6.4,10.3-9.9
					c2.9-3.2,6.1-6.4,8.6-9.9C216.3,106.1,215.8,105.6,215.5,105.9z"/>
				<g>
					<g>
						<defs>
							<polygon id="SVGID_53_" points="-39,-912 -38,-912 -39,-911 							"/>
						</defs>
						<defs>
							<polygon id="SVGID_54_" points="-41,-914 -42,-914 -41,-915 							"/>
						</defs>
						<clipPath id="SVGID_55_">
							<use xlink:href="#SVGID_53_"  style="overflow:visible;"/>
						</clipPath>
						<clipPath id="SVGID_56_" class="st47">
							<use xlink:href="#SVGID_54_"  style="overflow:visible;"/>
						</clipPath>
						
							<linearGradient id="SVGID_57_" gradientUnits="userSpaceOnUse" x1="108.2454" y1="87.6859" x2="156.3584" y2="87.6859" gradientTransform="matrix(1 0 0 -1 0 246)">
							<stop  offset="0" style="stop-color:#000000"/>
							<stop  offset="0.224" style="stop-color:#FFFFFF"/>
							<stop  offset="0.4479" style="stop-color:#FFFFFF"/>
							<stop  offset="0.7394" style="stop-color:#FFFFFF"/>
							<stop  offset="0.8494" style="stop-color:#000000"/>
						</linearGradient>
						<path class="st48" d="M156.1,187.8c-6-2.9-12.5-5.1-16.4-10.8c-3.1-4.6-4.4-10.3-6.5-15.4c-2.3-5.6-6-10-9.8-14.6
							c-5.1-6.2-10.3-12.3-14.9-18.9c-0.1-0.2-0.4,0-0.3,0.2c7.4,12.6,18.4,23.4,23.4,37.3c1.8,5,3.3,10.4,6.7,14.6
							c4.2,5.3,11.1,7.3,17.5,8.4C156.3,188.7,156.6,188.1,156.1,187.8z"/>
					</g>
				</g>
				
					<linearGradient id="SVGID_58_" gradientUnits="userSpaceOnUse" x1="108.2454" y1="87.6859" x2="156.3584" y2="87.6859" gradientTransform="matrix(1 0 0 -1 0 246)">
					<stop  offset="0" style="stop-color:#A94900"/>
					<stop  offset="0.224" style="stop-color:#F6FA00"/>
					<stop  offset="0.4479" style="stop-color:#EEEA00"/>
					<stop  offset="0.4687" style="stop-color:#E8DB00"/>
					<stop  offset="0.5629" style="stop-color:#CD9D00"/>
					<stop  offset="0.6426" style="stop-color:#B96F00"/>
					<stop  offset="0.7039" style="stop-color:#AD5300"/>
					<stop  offset="0.7394" style="stop-color:#A94900"/>
					<stop  offset="0.8494" style="stop-color:#A94900"/>
				</linearGradient>
				<path class="st49" d="M156.1,187.8c-6-2.9-12.5-5.1-16.4-10.8c-3.1-4.6-4.4-10.3-6.5-15.4c-2.3-5.6-6-10-9.8-14.6
					c-5.1-6.2-10.3-12.3-14.9-18.9c-0.1-0.2-0.4,0-0.3,0.2c7.4,12.6,18.4,23.4,23.4,37.3c1.8,5,3.3,10.4,6.7,14.6
					c4.2,5.3,11.1,7.3,17.5,8.4C156.3,188.7,156.6,188.1,156.1,187.8z"/>
			</g>
		</g>
	</g>
</g>
</svg>
