<?xml version="1.0" encoding="utf-8"?>
<!-- Generator: Adobe Illustrator 19.0.0, SVG Export Plug-In . SVG Version: 6.00 Build 0)  -->
<svg version="1.1" id="Layer_1" xmlns="http://www.w3.org/2000/svg" xmlns:xlink="http://www.w3.org/1999/xlink" x="0px" y="0px"
	 viewBox="0 0 611.3 660" style="enable-background:new 0 0 611.3 660;" xml:space="preserve">
<style type="text/css">
	.st0{fill:#F0EEED;}
</style>
<g>
	<path class="st0" d="M585.3,382.1c-5.2-2.3-10.6-3.9-15.8-6c-7.9-3.1-9.6-10.8-7.4-18.8c3.9-14.5,24.1-18.1,27.9-32
		c1.7-6.3,0.2-14.1-0.7-20.4c-1.3-9.1-3.6-18.3-7.6-26.7c-3.5-7.3-8.7-13.6-14.3-19.2c-6.1-6.2-16-4.5-21.8-10.8
		c-6.5-7-1.9-17.1,5.2-20.7c4.4-2.2,9.6-3.4,13.5-6.6c7.6-6.1,4.5-21.9-5.3-24.4c-14.8-3.7-27.1,12.4-42.1,9.2
		c-21.8-4.7-0.7-39.9,3.9-50.3c6.2-13.8,14.1-28,16.2-43.2c1.1-8.3-5.9-16.3-14.2-16.9c-9.1-0.6-17.3,4.6-24.4,9.7
		c-9.7,7-18.3,15.5-27.9,22.6c-8.7,6.5-18.5,10.8-23.4-1.9c-0.1-0.4-0.2-0.8-0.4-1.1c5,0,6.9-0.2,10.1-5.8
		c2.7-4.7,4.2-14.1-1.7-17.2c-10-5.3-15.9-1.6-19,8.4c-2.7,8.8-17.7-0.4-18.6-7.3c-1.1-7.6,4.1-16.6,6.7-23.5
		c4.1-11,10.3-23.2,10.6-35.1c0.2-12.6-13.3-11.6-22-9.2c-13.3,3.7-12.2,18-11.5,29c0.6,9.9-0.2,17.9-10,22.8
		c-8.8,4.4-16.3-7.1-20.2-13.1c-5.8-8.8-11.1-21.6-24-17.7c-2.8,0.9-5.1,3.1-6.9,5.3c-6.2,7.6-13.5,7.4-21.3,2.3
		c-7.5-4.9-22.3-2.2-30,1.2c-9.2,4.1-15,14.4-23.3,20c-3.6,2.4-16.8,10.9-20.9,6c-2.3-2.7-1.3-8.5-1.3-11.7
		c0-9.6-3.1-14.8-11.1-20.3c-6.5-4.5-13.6-2-18,3.9c-7.6,10.2-7.9,25.4-12.9,36.9c-5.4,12.4-16.4,15.5-27.7,21.1
		c-0.3,0.2-1.3,0.7-1.1,1.3c0.8,1.5,1.5,3.2,2.5,4.6c1.2,1.9,2.4,3.3,3,4.6c-0.9,0.7-1.8,1.4-2.7,2.1c-2.9,2.2-5.8,4.4-8.9,6.2
		c-2.6,0.2-5.3-0.1-8-0.6c-7.8-1.7-14.8-6.3-21.6-10.6c-6.6-8.7-12.5-18.9-23.9-20.7c-5-0.8-16.3-1.9-18.9,4.3
		c-2.4,5.8,5.9,14.2,9.1,18.1c2.6,3.2,5.3,6.3,8.1,9.4c3.9,6.8,10.8,14,16.4,20.8c4.6,8.7,9.3,24.7-7.1,20.4
		c-7.3-1.9-19.4-15.1-27.5-9.8c-3.3,2.1-5.7,7.5-5,11.4c1.2,6.6,9.6,8.2,14.2,11.9c9,7.2-5.1,16.1-8.8,21.2
		c-3.1,4.3-2.3,11.4-1.6,16.4c0.2,1.2,0.5,2.2,0.9,3.2c-1.6,4.5-3.3,8.9-6.2,12.8c-11.7,15.5-33,9.3-47.7,18.9
		c-10.4,6.8-5.9,21.2,4.6,24.3c6.2,1.8,14.1,0.7,19,5.6c4.9,4.8,1.1,11.2-3,14.7c-9.4,7.8-22.6,11.5-33.6,16.3
		c-7.3,3.2-18.4,7.6-21.1,16c-2.6,8.2,7.1,15.5,14.1,16.6c12.7,2.1,27-8.2,37.5-14c7.2-4,14.4-7.9,22.3-10.3
		c4.1-1.2,8.4-1.7,12.6-0.6c1.4,0.3,0.4,6.4,1,8.1c2.2,6.7-0.4,16.1-1.7,22.7c-1.7,8.8-4.1,17.8-7.9,26c-2.2,4.8-8.5,7.2-12.9,9.8
		c-4.9,3-9.8,6.1-14,10c-9.8,9.4,7,11.7,13.4,12.1c6.5,0.4,12.9-0.2,18.8-3c4.9-2.3,7.9-7.7,13.8-5.6c9.8,3.5,18.7,13.5,25.5,20.8
		c7.5,8.1,17.6,22.3,13.7,34c-4.4,13-17.1,21.9-20.7,35.5c-2.5,9.4,4,21.1,15.2,18.7c5.5-1.2,9.7-5,13.8-8.6c2.4-2.1,4.8-4,7.7-5.4
		c4.5-2.2,14.1,2.7,14.3,8.1c0.1,3.5-1.2,6.9-2.3,10.4c-0.6,0.7-1.2,1.4-1.8,2.1c-0.4,0.5,0.1,0.9,0.5,0.9c0.2,0,0.3,0.1,0.5,0.1
		c-0.2,1.3-0.4,2.6-0.3,3.9c0.3,6.3,6,8.5,11.4,9.2c0.9,0.1,1.8-0.4,2.2-1.1c1.4,5.3,1.2,11.6,0.6,17.6c-0.8,7.7-4,20.3,2.7,26.3
		c6.9,6.2,21.4,0.3,27.7-3.8c8.5-5.5,10.5-15,12.2-24.3c0.9-4.8,1.9-10.2,8.1-9.7c10.2,1,21.5,7.9,29.7,13.5
		c17.3,11.6,32,27.4,52.8,32.8c9.2,2.4,28.3-2.5,20.1-15.2c-1.6-2.5-4-4.5-5.9-6.8c-3.9-4.8,2.8-12,6.2-15.2
		c7.8-7.2,24.1,10.7,29.8,14.6c6.4,4.4,13.5,8.4,18.8,14.2c3.8,4.1,4,10.1,4.7,15.3c2,14.8,3.4,37.5,18.3,45.7
		c8.7,4.8,24.3,8.7,29.3-3c6.1-14.1-4.8-28.1-9.7-40.8c0.6-0.3,1-0.8,0.7-1.3c-6.5-14.2-6-29.9-10.6-44.6c11.3-1,24.5,12,33,17.5
		c7.2,4.7,15.9,9.4,24.5,5.9c8.3-3.4,10.2-13.6,7.6-21.2c-3.4-10.2-12.2-17.7-14.7-28.3c-4.1-17.5,22.9-24.8,35.2-27.5
		c12.5-2.7,26.1-4.9,35.9-13.7c9.7-8.7,17.4-21.9,13-35c-4.3-12.7-16.2-19.7-8.4-34.2c0.8-1.4-1.5-1.6-2.7-0.9
		c2.8-6.4,7.7-10.6,15.6-13.5c1.3-0.5,2.6-1,3.9-1.5c12.6,4.4,24,0.9,33.8-8.5C601.9,391,591.9,385,585.3,382.1z"/>
	<path class="st0" d="M141.9,104.9c6.5-0.7,9.8-5.1,12.2-10.9c2-5.1,1.6-10-0.5-14.2c0.3,0.2,0.7,0.4,1,0.6c1,0.5,4.2-0.9,2.8-1.6
		c-10.6-5.3-11.9-16.8-17.9-26c-5.2-8-14.4-14.9-24.2-15.6c-19.8-1.4-13.4,27.5-8,37C113.3,84.6,127.3,106.5,141.9,104.9z"/>
	<path class="st0" d="M350.8,34.8c8.5,1.9,19,0.2,26.3-4.6c9-5.9,4.2-14.1-2.8-19.3c-0.4-0.3-1.2-0.2-1.9,0
		c-3.3-2.1-7.9-2.8-11.1-2.8c-7.5-0.1-14.1,3.9-18,10.1C338.2,26.2,342,32.8,350.8,34.8z"/>
	<path class="st0" d="M306.5,54.6c7.2,2.2,17.1-2.3,20.6-8.7c4.6-8.6-5.8-13-12.5-13.2c-0.9,0-2.6,1-2.4,1.5
		c-3.9,0.7-7.4,2.8-9.7,6.5C299.5,45.7,300.4,52.7,306.5,54.6z"/>
	<path class="st0" d="M523.8,62.6c7.2-2.1,13.5-9,9-16.5c-0.6-1-1.2-1.8-2-2.4l0.1,0.1c1.1,0.9,4.3-0.8,2.8-1.9
		c-9.6-7.2-23-5.9-28.4,5.7c-0.8,1.7-1.3,3.6-1.4,5.5c-0.3,0.7-0.6,1.5-0.8,2.3C500.6,65.9,518.4,64.2,523.8,62.6z"/>
	<path class="st0" d="M585.3,257.4c6.3-0.8,13.5-3.8,17.6-8.9c3-3.8,1.8-7-0.9-9.5c0.1-0.1,0.2-0.3,0.1-0.4c-2.2-2-4.8-3.3-7.5-3.9
		c0,0,0,0-0.1,0s-0.2,0-0.2-0.1c-2.9-0.5-6-0.1-8.9,1.1c-4.6,2-7.7,5.6-9.3,9.9c-0.7,1.2-1.2,2.5-1.5,3.9
		C573,256.6,580,258,585.3,257.4z"/>
	<path class="st0" d="M621.8,539.8c-3.5-3.2-9.6-2.7-13.8-2.2c-0.9,0.1-1.7,0.8-1.8,1.3c-0.6,0.1-1.3,0.3-1.9,0.6
		c-4.6,1.8-6.6,5.7-7.5,10.3c-0.1,0.3,0.1,0.5,0.4,0.6c7.6,4.3,19.9,5.9,25.4-2.7C624.2,545.1,624.1,541.9,621.8,539.8z"/>
	<path class="st0" d="M528.7,543.6c-6-9.7-19.8-14.8-30.7-12.2c-14,3.2-11.1,22.1-3.5,30.2c7.2,7.7,19.8,5.6,27.9,0.7
		c7.9-4.8,8.9-11.8,5.3-17.8C528.3,544.2,528.8,543.8,528.7,543.6z"/>
	<path class="st0" d="M284.3,587.2c-18.9,6-9.8,28.7-21.7,40c-5,4.8-23,14.8-10.8,21.6c29.8,16.6,36.8-32.8,33.6-54.8
		c0.3-2,0.6-4.1,0.9-6.1C286.4,586.9,284.8,587.1,284.3,587.2z"/>
	<path class="st0" d="M151.3,594.3c-0.2-0.1-0.3-0.1-0.5-0.2c-0.3-0.2-0.7-0.3-1-0.5c-0.1-0.1-0.2-0.1-0.4-0.1
		c-0.4-0.2-0.8-0.3-1.2-0.5c-0.2-0.1-0.5-0.1-0.9,0c-0.6-0.1-1.2-0.1-1.8-0.1c-6.3,0.1-11.7,3.3-15,8.7c-4.9,7.9-4.2,23.7,7.4,24.5
		c8.3,0.6,17.1-4.9,21.6-11.6C165.6,605.4,159.2,598.2,151.3,594.3z"/>
	<path class="st0" d="M87.7,430.8c-1.4,0.4-1.6,1.5-1,2.2c-5.9,2.2-10.6,6.8-13.2,13.5c-0.2,0.6,0,1.3,0.7,1.5
		c13.5,3.6,27.5,1.7,33.9-12c0.2-0.5,0-1-0.4-1.3C101.2,428.5,96,428.6,87.7,430.8z"/>
	<path class="st0" d="M94.9,476.8c-4.9-1.2-9.7,0.4-13.7,3.1c0.6-1.3,1.1-2.6,1.3-4c0.3-1.6-3.3-1.1-3.6,0.3
		c-1.5,7.2-9.1,13.8-13.8,19.1c-5.4,6.1-11.2,12-15.7,18.8c-7.2,10.8,6.9,13.5,14.6,8.3c12.3-8.3,24.7-20.7,34.1-32.1
		C101.1,486.8,100,478.1,94.9,476.8z"/>
	<path class="st0" d="M50.8,194.4c6,1.4,21.2,3.7,20.6-6.5c-0.4-6.4-6.7-9.2-13.5-9.8c-6.6-2.7-15.5-3.7-20.1,0.3
		C28,186.8,44.6,192.9,50.8,194.4z"/>
</g>
</svg>
