<?xml version="1.0" encoding="utf-8"?>
<!-- Generator: Adobe Illustrator 21.0.0, SVG Export Plug-In . SVG Version: 6.00 Build 0)  -->
<svg version="1.1" id="Layer_1" xmlns="http://www.w3.org/2000/svg" xmlns:xlink="http://www.w3.org/1999/xlink" x="0px" y="0px"
	 viewBox="0 0 167.8 167.7" style="enable-background:new 0 0 167.8 167.7;" xml:space="preserve">
<style type="text/css">
	.st0{fill:#DA5926;}
</style>
<g>
	<path class="st0" d="M0,83.4C0.2,37.1,37.9-0.1,84.5,0c45.9,0.1,83.4,38,83.3,84.2c-0.2,46.1-38.2,83.8-84,83.5
		C37.2,167.3-0.2,129.7,0,83.4z M161.1,89.5c0-18.6-3.3-32.4-9.5-42.8C135.2,19.2,111.1,4.9,79,7C46.8,9.1,24.4,26.3,11.9,56.1
		c-11.2,27-4,61.4,16.8,81.4c1,1,3.1,2,4.1,1.6c9-3.9,18-7.9,26.8-12.1c5.6-2.7,8.5-7,8.3-13.6c-0.2-4.5,0.1-8.8-3.4-12.5
		c-1.6-1.7-2-4.5-3.2-6.7c-1.3-2.5-2.9-5-4.4-7.4c-2.6-4-3.7-8.1-1.8-12.7c0.7-1.7,0.8-3.7,0.7-5.5c-0.2-7.9-1.3-15.9-0.8-23.8
		c0.5-6.9,4.7-12.4,10.9-15.8c7.3-4.1,15.5-5.5,23.2-3.4c7,2,13.8,5.7,19.5,10.2c3,2.4,4.6,7.8,5,12c0.5,6-0.5,12.2-1.2,18.3
		c-0.4,3.2-1.1,6,0.3,9.5c1.1,2.6,0.6,7.4-1.2,9.4c-4.1,4.4-4.9,10-7.6,14.8c-1.3,2.3-3.7,4.5-3.8,6.8c-0.4,12.1-1.7,16,11.8,22.3
		c7.4,3.4,14.8,6.9,22.4,9.9c1.3,0.5,3.8-0.4,4.9-1.5C153.5,122.5,160.8,104.7,161.1,89.5z"/>
</g>
</svg>
