<?xml version="1.0" encoding="utf-8"?>
<!-- Generator: Adobe Illustrator 21.1.0, SVG Export Plug-In . SVG Version: 6.00 Build 0)  -->
<svg version="1.1" id="Layer_1" xmlns="http://www.w3.org/2000/svg" xmlns:xlink="http://www.w3.org/1999/xlink" x="0px" y="0px"
	 viewBox="0 0 31.9 31.9" style="enable-background:new 0 0 31.9 31.9;" xml:space="preserve">
<style type="text/css">
	.st0{fill:#4E4E4E;}
</style>
<g>
	<g>
		<path class="st0" d="M15.9,0C7.2,0,0,7.2,0,16c0,8.8,7.2,16,16,16c8.8,0,15.9-7.1,16-15.9C31.9,7.2,24.8,0,15.9,0z M15.9,29.5
			c-7.5,0-13.5-6.1-13.5-13.6C2.5,8.5,8.5,2.4,16,2.4c7.5,0,13.5,6.1,13.5,13.5C29.5,23.4,23.4,29.5,15.9,29.5z"/>
		<path class="st0" d="M20.8,24.5c0,0.4,0,0.8,0,1.2c-3.2,0-6.4,0-9.6,0c0-0.4,0-0.8,0-1.2c0.2,0,0.4,0,0.5,0c0.3,0,0.7,0,1,0
			c0.6-0.1,0.9-0.4,0.9-1c0-0.5,0-0.9,0-1.4c0-2,0-4,0-6c0-0.6-0.2-0.9-0.8-1c-0.5-0.1-1-0.1-1.5-0.1c-0.1,0-0.2,0-0.3,0
			c0-0.4,0-0.8,0-1.2c2.5-0.1,5-0.2,7.5-0.3c0,0.1,0,0.2,0,0.3c0,3.2,0,6.5,0,9.7c0,0.6,0.2,0.9,0.9,1c0.4,0,0.8,0,1.2,0
			C20.7,24.5,20.8,24.5,20.8,24.5z"/>
		<path class="st0" d="M15.6,11.6c-1.5,0-2.8-1.2-2.8-2.8c0-1.5,1.2-2.7,2.7-2.8c1.5,0,2.8,1.2,2.8,2.7
			C18.4,10.4,17.2,11.6,15.6,11.6z"/>
	</g>
</g>
</svg>
