<?xml version="1.0" encoding="utf-8"?>
<!-- Generator: Adobe Illustrator 21.0.0, SVG Export Plug-In . SVG Version: 6.00 Build 0)  -->
<svg version="1.1" id="Layer_1" xmlns="http://www.w3.org/2000/svg" xmlns:xlink="http://www.w3.org/1999/xlink" x="0px" y="0px"
	 viewBox="0 0 244.5 244.6" style="enable-background:new 0 0 244.5 244.6;" xml:space="preserve">
<style type="text/css">
	.st0{fill:#FFFFFF;stroke:#FFFFFF;stroke-width:6;stroke-miterlimit:10;}
</style>
<g>
	<g>
		<path class="st0" d="M122.3,241.6C56.5,241.6,3,188.1,3,122.3S56.5,3,122.3,3s119.2,53.5,119.2,119.3
			C241.6,188.1,188.1,241.6,122.3,241.6z M122.3,10.7c-61.5,0-111.6,50-111.6,111.6c0,61.5,50,111.6,111.6,111.6
			s111.6-50,111.6-111.6C233.9,60.8,183.8,10.7,122.3,10.7z"/>
		<path class="st0" d="M122.3,204.4c-45.2,0-82.1-36.8-82.1-82.1h7.7c0,41,33.4,74.4,74.4,74.4s74.4-33.4,74.4-74.4h7.7
			C204.4,167.6,167.6,204.4,122.3,204.4z"/>
		<path class="st0" d="M81.3,108.2c-9.2,0-16.7-7.5-16.7-16.7s7.5-16.7,16.7-16.7S98,82.3,98,91.5C97.9,100.7,90.5,108.2,81.3,108.2
			z M81.3,82.5c-5,0-9,4-9,9c0,4.9,4,9,9,9c4.9,0,9-4,9-9C90.2,86.6,86.2,82.5,81.3,82.5z"/>
		<path class="st0" d="M163.3,108.2c-9.2,0-16.7-7.5-16.7-16.7s7.5-16.7,16.7-16.7S180,82.3,180,91.5S172.5,108.2,163.3,108.2z
			 M163.3,82.5c-4.9,0-9,4-9,9c0,4.9,4,9,9,9c4.9,0,9-4,9-9C172.3,86.6,168.3,82.5,163.3,82.5z"/>
	</g>
</g>
</svg>
