<?xml version="1.0" encoding="utf-8"?>
<!-- Generator: Adobe Illustrator 21.0.0, SVG Export Plug-In . SVG Version: 6.00 Build 0)  -->
<svg version="1.1" id="Layer_1" xmlns="http://www.w3.org/2000/svg" xmlns:xlink="http://www.w3.org/1999/xlink" x="0px" y="0px"
	 viewBox="0 0 176 137.9" style="enable-background:new 0 0 176 137.9;" xml:space="preserve">
<style type="text/css">
	.st0{opacity:0.9;fill:none;stroke:#DA5926;stroke-width:3;stroke-miterlimit:10;enable-background:new    ;}
	.st1{fill:#666666;}
	.st2{opacity:0.9;}
	.st3{fill:#DA5926;}
</style>
<path class="st0" d="M8.8,136.5c8-2.9,15.6-5.7,23.2-8.4c6.4-2.3,12.8-2.1,19.2,0.5c1.4,0.6,2.9,1.1,4.4,1.6
	c17.4,5.1,35.1,6.2,53,3.6c17.6-2.6,33.8-8.9,46.9-21.3c17.2-16.2,23.2-35.9,15.9-58.7c-5.2-16.2-16.3-28-30.6-36.9
	C118.9,3.3,95-0.9,69.6,2.7c-18.1,2.6-34.5,9.3-48,21.8C5.7,39.3-1.6,57.3,2.7,79.1c1.7,8.6,5.6,16.2,10.6,23.3
	c3.5,4.9,4.4,10.2,2.1,16C13.1,124.2,11.1,130.2,8.8,136.5"/>
<g>
	<path class="st1" d="M31.5,108.9c-0.7,0-1.3-0.2-1.7-0.7c-0.4-0.5-0.7-1.1-0.7-1.8c0-0.4,0.1-0.8,0.2-1.2s0.4-0.7,0.7-1
		c0.3-0.3,0.7-0.6,1.1-0.8c0.5-0.3,1.1-0.5,1.8-0.7c-0.1-0.4-0.2-0.7-0.3-1c-0.1-0.5-0.3-0.8-0.5-1.1c-0.2-0.3-0.5-0.3-0.9-0.3
		c-0.5,0-1,0.2-1.6,0.6L29,99.6c0.3-0.2,0.7-0.4,1.2-0.5c0.4-0.1,0.9-0.2,1.3-0.2c1.4,0,2.2,0.8,2.4,2.3c0.1,0.8,0.3,1.3,0.4,1.7
		s0.4,0.7,0.7,0.9l-0.8,1.2c-0.3-0.3-0.6-0.7-0.9-1c-0.8,0.3-1.4,0.5-1.8,0.7c-0.3,0.2-0.6,0.4-0.8,0.7s-0.3,0.6-0.3,1
		c0,0.3,0.1,0.6,0.3,0.8c0.2,0.2,0.5,0.3,0.9,0.3c0.5,0,1-0.1,1.5-0.3l0.2,1.3C32.9,108.8,32.2,108.9,31.5,108.9z"/>
	<path class="st1" d="M39.8,103.5L39.8,103.5l0.1,1.4c0,0,0,0.1-0.1,0.1h-2.9v-9.2h1.6v7.8L39.8,103.5z"/>
	<path class="st1" d="M39.7,104.9C39.6,104.9,39.6,104.9,39.7,104.9l-0.1-1.4c0,0,0,0,0.1,0H44c-0.3-0.3-0.5-0.9-0.6-1.7
		c-0.1-0.5-0.2-0.9-0.4-1.1s-0.5-0.3-0.8-0.3c-0.2,0-0.5,0-0.7,0.1s-0.5,0.2-0.7,0.3l-0.5-1.3c0.6-0.4,1.4-0.6,2.2-0.6
		c0.7,0,1.3,0.2,1.6,0.5s0.6,1,0.8,1.8c0.2,1.2,0.4,2,0.7,2.3h0.7h0.1v1.3c0,0,0,0.1-0.1,0.1L39.7,104.9z M42.2,108
		c-0.2,0-0.4-0.1-0.5-0.2c-0.1-0.2-0.2-0.4-0.2-0.6c0-0.3,0.1-0.5,0.2-0.6c0.1-0.2,0.3-0.2,0.5-0.2s0.4,0.1,0.5,0.2
		c0.1,0.2,0.2,0.4,0.2,0.6c0,0.3-0.1,0.5-0.2,0.6C42.6,107.9,42.5,108,42.2,108z"/>
	<path class="st1" d="M50.3,103.5C50.4,103.5,50.4,103.5,50.3,103.5l0.1,1.4c0,0,0,0.1-0.1,0.1H46c0,0-0.1,0-0.1-0.1v-1.3
		c0,0,0,0,0.1,0h1.3v-4.5h1.6v4.5L50.3,103.5z M48.2,97.9c-0.2,0-0.4-0.1-0.5-0.2c-0.1-0.2-0.2-0.4-0.2-0.6c0-0.3,0.1-0.5,0.2-0.6
		s0.3-0.2,0.5-0.2s0.4,0.1,0.5,0.2c0.1,0.2,0.2,0.4,0.2,0.6c0,0.3-0.1,0.5-0.2,0.6C48.5,97.8,48.4,97.9,48.2,97.9z"/>
	<path class="st1" d="M50.2,104.9L50.2,104.9l-0.1-1.4c0,0,0,0,0.1,0h1.3V99h1.6v6L50.2,104.9z M52.3,108c-0.2,0-0.4-0.1-0.5-0.2
		c-0.1-0.2-0.2-0.4-0.2-0.6c0-0.3,0.1-0.5,0.2-0.6s0.3-0.2,0.5-0.2s0.4,0.1,0.5,0.2c0.1,0.2,0.2,0.4,0.2,0.6c0,0.3-0.1,0.5-0.2,0.6
		C52.6,107.9,52.5,108,52.3,108z"/>
	<path class="st1" d="M60.4,104.9c-0.6,0-1.2-0.2-1.5-0.6c-0.4-0.4-0.6-1-0.6-1.8c0-0.3,0-0.6,0.1-1c0.1-0.3,0.1-0.6,0.2-0.9H60
		c-0.1,0.5-0.2,1.1-0.2,1.6c0,0.4,0.1,0.7,0.3,0.9c0.2,0.2,0.4,0.3,0.7,0.3h3.4v-4.5h1.6v4.5h1.4h0.1v1.3c0,0,0,0.1-0.1,0.1
		L60.4,104.9z M62.3,108c-0.2,0-0.4-0.1-0.5-0.2c-0.1-0.2-0.2-0.4-0.2-0.6c0-0.3,0.1-0.5,0.2-0.6c0.1-0.2,0.3-0.2,0.5-0.2
		s0.4,0.1,0.5,0.2s0.2,0.4,0.2,0.6c0,0.3-0.1,0.5-0.2,0.6C62.7,107.9,62.5,108,62.3,108z"/>
	<path class="st1" d="M67.1,104.9L67.1,104.9l-0.1-1.4c0,0,0,0,0.1,0h1.3v-7.8H70v7.8h1.4h0.1v1.3c0,0,0,0.1-0.1,0.1L67.1,104.9z"/>
	<path class="st1" d="M71.3,104.9C71.2,104.9,71.2,104.9,71.3,104.9l-0.1-1.4c0,0,0,0,0.1,0h1.2v-7.8h1.6v5.3
		c0.6-1.5,1.6-2.2,2.9-2.2c0.9,0,1.5,0.3,2,0.8c0.4,0.5,0.7,1.3,0.7,2.4v1.5h1.4h0.1v1.3c0,0,0,0.1-0.1,0.1L71.3,104.9z M78,103.5
		V102c0-0.6-0.1-1-0.4-1.3c-0.2-0.3-0.6-0.4-1.1-0.4c-0.9,0-1.8,0.8-2.5,2.3v0.9H78z"/>
	<path class="st1" d="M80.8,104.9L80.8,104.9l-0.1-1.4c0,0,0,0,0.1,0h1.3v-7.8h1.6v9.2H80.8z"/>
	<path class="st1" d="M85.8,95.7h1.6v9.2h-1.6V95.7z"/>
	<path class="st1" d="M95.6,107.8c-0.6,0-1.1-0.1-1.5-0.4c-0.4-0.3-0.8-0.7-1-1.2s-0.3-1.1-0.3-1.8c0-0.5,0-0.9,0.1-1.4
		s0.2-0.9,0.4-1.3h1.4c-0.1,0.4-0.2,0.9-0.3,1.4s-0.1,0.9-0.1,1.3c0,0.6,0.1,1.1,0.4,1.4c0.3,0.3,0.6,0.5,1,0.5H96
		c0.5,0,0.9-0.2,1.2-0.5s0.4-0.8,0.4-1.4v-8.7h1.6v7.8h1.4h0.1v1.3c0,0,0,0.1-0.1,0.1h-1.4c-0.1,1.9-1.2,2.9-3.1,2.9L95.6,107.8
		L95.6,107.8z"/>
	<path class="st1" d="M100.4,104.9L100.4,104.9l-0.1-1.4c0,0,0,0,0.1,0h1.6V99h1.6v4.5h1.6h0.1v1.3c0,0,0,0.1-0.1,0.1L100.4,104.9z
		 M101.8,107.9c-0.2,0-0.4-0.1-0.5-0.2c-0.1-0.2-0.2-0.4-0.2-0.6c0-0.3,0.1-0.5,0.2-0.6c0.1-0.2,0.3-0.2,0.5-0.2s0.4,0.1,0.5,0.2
		c0.1,0.2,0.2,0.4,0.2,0.6c0,0.3-0.1,0.5-0.2,0.6C102.2,107.9,102,107.9,101.8,107.9z M103.6,107.9c-0.2,0-0.4-0.1-0.5-0.2
		c-0.1-0.2-0.2-0.4-0.2-0.6c0-0.3,0.1-0.5,0.2-0.6c0.1-0.2,0.3-0.2,0.5-0.2s0.4,0.1,0.5,0.2c0.1,0.2,0.2,0.4,0.2,0.6
		c0,0.3-0.1,0.5-0.2,0.6C104,107.9,103.8,107.9,103.6,107.9z"/>
	<path class="st1" d="M105.1,104.9C105,104.9,105,104.9,105.1,104.9l-0.1-1.4c0,0,0,0,0.1,0h1.2V99h1.6v2.1c0.6-1.5,1.6-2.2,2.9-2.2
		c0.9,0,1.5,0.3,2,0.8c0.4,0.5,0.7,1.3,0.7,2.4v2.9L105.1,104.9z M111.8,103.4v-1.5c0-0.6-0.1-1-0.4-1.3c-0.2-0.3-0.6-0.4-1.1-0.4
		c-0.9,0-1.8,0.8-2.5,2.3v0.9H111.8z"/>
	<path class="st1" d="M121.2,103.4L121.2,103.4l0.1,1.4c0,0,0,0.1-0.1,0.1h-1.3c0,0.9-0.2,1.6-0.7,2.1s-1.2,0.8-2.1,0.8
		c-0.5,0-0.9,0-1.2-0.1s-0.7-0.2-1-0.5l0.6-1.3c0.3,0.2,0.6,0.3,0.8,0.4s0.5,0.1,0.8,0.1c0.4,0,0.7-0.1,0.9-0.4
		c0.2-0.3,0.3-0.6,0.3-1v-0.1h-1c-0.8,0-1.3-0.2-1.7-0.7s-0.6-1.2-0.6-2.1c0-0.6,0.1-1.2,0.4-1.7c0.3-0.5,0.7-0.9,1.2-1.1
		c0.5-0.3,1.1-0.4,1.8-0.4h1.6v4.5H121.2z M118.3,103.4v-3.1H118c-0.4,0-0.8,0.1-1.1,0.4s-0.4,0.7-0.4,1.2s0.1,0.8,0.3,1.1
		c0.2,0.2,0.4,0.3,0.8,0.3L118.3,103.4L118.3,103.4z"/>
	<path class="st1" d="M121.1,104.9C121,104.9,121,104.9,121.1,104.9l-0.1-1.4c0,0,0,0,0.1,0h1.8V99h1.6v6L121.1,104.9z M122.8,97.8
		c-0.2,0-0.4-0.1-0.5-0.2c-0.1-0.2-0.2-0.4-0.2-0.6c0-0.3,0.1-0.5,0.2-0.6s0.3-0.2,0.5-0.2s0.4,0.1,0.5,0.2c0.1,0.2,0.2,0.4,0.2,0.6
		c0,0.3-0.1,0.5-0.2,0.6C123.2,97.8,123,97.8,122.8,97.8z M124.6,97.8c-0.2,0-0.4-0.1-0.5-0.2c-0.1-0.2-0.2-0.4-0.2-0.6
		c0-0.3,0.1-0.5,0.2-0.6c0.1-0.2,0.3-0.2,0.5-0.2s0.4,0.1,0.5,0.2c0.1,0.2,0.2,0.4,0.2,0.6c0,0.3-0.1,0.5-0.2,0.6
		S124.8,97.8,124.6,97.8z"/>
	<path class="st1" d="M136.8,104.9c-0.4,0-0.7-0.1-1-0.2c-0.3-0.1-0.5-0.3-0.8-0.6c-0.3,0.3-0.6,0.5-0.9,0.6s-0.7,0.2-1.1,0.2h-1
		c-0.3,0-0.5,0.1-0.7,0.2c-0.1,0.1-0.2,0.4-0.2,0.7v2.9h-1.6v-3.5c0-0.5,0.1-0.9,0.4-1.3s0.6-0.5,1-0.5c-0.2-0.5-0.3-1.1-0.3-1.7
		c0-0.4,0.1-0.7,0.2-1.2c0.1-0.4,0.2-0.8,0.4-1c0.3-0.2,0.7-0.4,1-0.5c0.4-0.1,0.7-0.2,1-0.2c0.5,0,0.9,0.1,1.3,0.4s0.7,0.6,0.9,1
		s0.3,0.9,0.3,1.5c0,0.4-0.1,0.8-0.2,1.2c0.1,0.2,0.3,0.3,0.4,0.3c0.2,0.1,0.4,0.1,0.6,0.1h0.1h0.1v1.3
		C136.9,104.9,136.9,104.9,136.8,104.9L136.8,104.9z M132.2,102c0,0.4,0.1,0.9,0.2,1.4h0.4c0.4,0,0.8-0.2,1.1-0.5s0.4-0.7,0.4-1.2
		c0-0.4-0.1-0.8-0.3-1s-0.4-0.4-0.7-0.4s-0.6,0.1-1,0.3C132.3,101.1,132.2,101.5,132.2,102z"/>
	<path class="st1" d="M136.7,104.9L136.7,104.9l-0.1-1.4c0,0,0,0,0.1,0h1.8V99h1.6v6L136.7,104.9z M138.5,97.8
		c-0.2,0-0.4-0.1-0.5-0.2c-0.1-0.2-0.2-0.4-0.2-0.6c0-0.3,0.1-0.5,0.2-0.6s0.3-0.2,0.5-0.2s0.4,0.1,0.5,0.2c0.1,0.2,0.2,0.4,0.2,0.6
		s-0.1,0.5-0.2,0.6C138.8,97.8,138.7,97.8,138.5,97.8z M140.2,97.8c-0.2,0-0.4-0.1-0.5-0.2c-0.1-0.2-0.2-0.4-0.2-0.6
		c0-0.3,0.1-0.5,0.2-0.6c0.1-0.2,0.3-0.2,0.5-0.2s0.4,0.1,0.5,0.2c0.1,0.2,0.2,0.4,0.2,0.6c0,0.3-0.1,0.5-0.2,0.6
		S140.5,97.8,140.2,97.8z"/>
</g>
<g class="st2">
	<g>
		<path class="st3" d="M83,18.9c18.5-0.1,33.9,15.3,33.4,34.3C116,71.3,100.9,86.4,82,85.9c-18-0.4-32.7-15.3-32.6-33.7
			C49.5,33.7,64.4,18.9,83,18.9z M82.8,81c15.6,0,28.4-12.5,28.7-28c0.4-16.1-12.4-29-28-29.4c-16.2-0.3-29.3,12.8-29.3,28.7
			C54.2,68.1,67.1,81,82.8,81z"/>
		<path class="st3" d="M82.9,74c-9.7-0.1-18.4-6.5-21.3-15.7c-0.6-1.9,0.3-3.5,2.1-3.6c1.2-0.1,2.1,0.6,2.5,1.9
			c0.8,2.7,2.2,5.1,4.2,7.1c9.4,9.5,25.3,5.7,29.3-7.1c0.4-1.2,1.2-1.9,2.3-1.9s2,0.6,2.3,1.7c0.1,0.5,0.2,1.1,0,1.5
			c-2.9,8.7-8.8,13.9-17.7,15.7C85.4,73.8,84.1,73.8,82.9,74z"/>
		<path class="st3" d="M78.1,43.2c-0.1,1.9-0.5,4-2.2,5.6c-1.6,1.5-3.6,1.5-5.2,0c-1.3-1.3-1.9-2.8-2.1-4.6c-0.3-2.3,0-4.5,1.3-6.5
			c0.8-1.3,1.9-2.2,3.5-2.1c1.3,0,2.2,0.7,3,1.7C77.7,38.9,78.1,40.8,78.1,43.2z"/>
		<path class="st3" d="M97.3,43.1c-0.1,2-0.5,4-2.2,5.7c-1.6,1.5-3.6,1.5-5.2,0c-1.3-1.3-1.9-2.9-2.1-4.7c-0.3-2.3,0-4.5,1.3-6.4
			c0.8-1.3,1.9-2.2,3.6-2.1c1.2,0.1,2.2,0.7,2.9,1.6C96.8,38.9,97.2,40.8,97.3,43.1z"/>
	</g>
</g>
</svg>
