<?xml version="1.0" encoding="utf-8"?>
<!-- Generator: Adobe Illustrator 21.0.0, SVG Export Plug-In . SVG Version: 6.00 Build 0)  -->
<svg version="1.1" id="Layer_1" xmlns="http://www.w3.org/2000/svg" xmlns:xlink="http://www.w3.org/1999/xlink" x="0px" y="0px"
	 viewBox="0 0 176 137.9" style="enable-background:new 0 0 176 137.9;" xml:space="preserve">
<style type="text/css">
	.st0{opacity:0.9;fill:none;stroke:#DA5926;stroke-width:3;stroke-miterlimit:10;enable-background:new    ;}
	.st1{fill:#666666;}
	.st2{fill:#DA5926;}
</style>
<path class="st0" d="M9.4,136.1c8-2.9,15.6-5.7,23.2-8.4c6.4-2.3,12.8-2.1,19.2,0.5c1.4,0.6,2.9,1.1,4.4,1.6
	c17.4,5.1,35.1,6.2,53,3.6c17.6-2.6,33.8-8.9,46.9-21.3c17.2-16.2,23.2-35.9,15.9-58.7c-5.2-16.2-16.3-28-30.6-36.9
	C119.5,2.9,95.6-1.3,70.2,2.3c-18.1,2.6-34.5,9.3-48,21.8C6.3,38.9-1,56.9,3.3,78.7C5,87.3,8.9,94.9,13.9,102
	c3.5,4.9,4.4,10.2,2.1,16C13.7,123.8,11.7,129.8,9.4,136.1z"/>
<g>
	<path class="st1" d="M41.7,104.5c-0.6,0-1.2-0.2-1.5-0.7c-0.4-0.4-0.6-1-0.6-1.8c0-0.3,0-0.6,0.1-1s0.1-0.6,0.2-0.9h1.4
		c-0.1,0.5-0.2,1.1-0.2,1.6c0,0.4,0.1,0.7,0.3,0.9c0.2,0.2,0.4,0.3,0.7,0.3h3.4v-7.8h1.6v7.8h1.4h0.1v1.3c0,0,0,0.1-0.1,0.1
		L41.7,104.5z M42.3,100.2l0.6-0.1c-0.1-0.1-0.3-0.2-0.3-0.3s-0.1-0.3-0.1-0.5c0-0.3,0.1-0.6,0.3-0.8c0.2-0.2,0.5-0.3,0.8-0.3
		s0.6,0.1,0.9,0.2L44.3,99c-0.2-0.1-0.4-0.2-0.6-0.2s-0.3,0.1-0.4,0.2s-0.1,0.2-0.1,0.4c0,0.2,0.1,0.4,0.3,0.5h0.2
		c0.4-0.1,0.6-0.1,0.9-0.1v0.7c-0.5,0-1.2,0.1-2.2,0.3v-0.6H42.3z"/>
	<path class="st1" d="M52.7,103.1L52.7,103.1l0.1,1.4c0,0,0,0.1-0.1,0.1h-4.3c0,0-0.1,0-0.1-0.1v-1.3c0,0,0,0,0.1,0h1.3v-4.5h1.6
		v4.5L52.7,103.1z M50.5,107.6c-0.2,0-0.4-0.1-0.5-0.2c-0.1-0.2-0.2-0.4-0.2-0.6c0-0.3,0.1-0.5,0.2-0.6s0.3-0.2,0.5-0.2
		s0.4,0.1,0.5,0.2c0.1,0.2,0.2,0.4,0.2,0.6c0,0.3-0.1,0.5-0.2,0.6C50.8,107.5,50.7,107.6,50.5,107.6z"/>
	<path class="st1" d="M52.6,104.5C52.5,104.5,52.5,104.5,52.6,104.5l-0.1-1.4c0,0,0,0,0.1,0h1.3v-7.8h1.6v7.8h1.4H57v1.3
		c0,0,0,0.1-0.1,0.1H52.6z"/>
	<path class="st1" d="M56.7,104.5L56.7,104.5l-0.1-1.4c0,0,0,0,0.1,0h1.6v-7.8h1.6v5.3c0.6-1.5,1.6-2.2,2.9-2.2c0.9,0,1.5,0.3,2,0.8
		c0.4,0.5,0.7,1.3,0.7,2.4v2.9L56.7,104.5z M63.7,103.1v-1.5c0-0.6-0.1-1-0.4-1.3s-0.6-0.4-1.1-0.4c-0.9,0-1.8,0.8-2.5,2.3v0.9H63.7
		z"/>
	<path class="st1" d="M73.2,107.4c-0.6,0-1.1-0.1-1.5-0.4s-0.8-0.7-1-1.2s-0.3-1.1-0.3-1.8c0-0.5,0-0.9,0.1-1.4s0.2-0.9,0.4-1.3h1.4
		c-0.1,0.4-0.2,0.9-0.3,1.4s-0.1,0.9-0.1,1.3c0,0.6,0.1,1.1,0.4,1.4c0.3,0.3,0.6,0.5,1,0.5h0.3c0.5,0,0.9-0.2,1.2-0.5
		s0.4-0.8,0.4-1.4v-8.7h1.6v7.8h1.4h0.1v1.3c0,0,0,0.1-0.1,0.1h-1.4c-0.1,1.9-1.2,2.9-3.1,2.9L73.2,107.4L73.2,107.4z"/>
	<path class="st1" d="M78.1,104.5C78,104.5,78,104.5,78.1,104.5l-0.1-1.4c0,0,0,0,0.1,0h1.6v-4.5h1.6v4.5h1.6H83v1.3
		c0,0,0,0.1-0.1,0.1H78.1z M79.5,107.5c-0.2,0-0.4-0.1-0.5-0.2c-0.1-0.2-0.2-0.4-0.2-0.6c0-0.3,0.1-0.5,0.2-0.6
		c0.1-0.2,0.3-0.2,0.5-0.2s0.4,0.1,0.5,0.2c0.1,0.2,0.2,0.4,0.2,0.6c0,0.3-0.1,0.5-0.2,0.6C79.9,107.5,79.7,107.5,79.5,107.5z
		 M81.3,107.5c-0.2,0-0.4-0.1-0.5-0.2c-0.1-0.2-0.2-0.4-0.2-0.6c0-0.3,0.1-0.5,0.2-0.6s0.3-0.2,0.5-0.2s0.4,0.1,0.5,0.2
		c0.1,0.2,0.2,0.4,0.2,0.6c0,0.3-0.1,0.5-0.2,0.6C81.6,107.5,81.5,107.5,81.3,107.5z"/>
	<path class="st1" d="M82.7,104.5L82.7,104.5l-0.1-1.4c0,0,0,0,0.1,0h1.2v-4.5h1.6v2.1c0.6-1.5,1.6-2.2,2.9-2.2c0.9,0,1.5,0.3,2,0.8
		c0.4,0.5,0.7,1.3,0.7,2.4v2.9L82.7,104.5z M89.5,103.1v-1.5c0-0.6-0.1-1-0.4-1.3c-0.2-0.3-0.6-0.4-1.1-0.4c-0.9,0-1.8,0.8-2.5,2.3
		v0.9H89.5z"/>
	<path class="st1" d="M98.8,103C98.9,103,98.9,103.1,98.8,103l0.1,1.4c0,0,0,0.1-0.1,0.1h-1.3c0,0.9-0.2,1.6-0.7,2.1
		s-1.2,0.8-2.1,0.8c-0.5,0-0.9,0-1.2-0.1s-0.7-0.2-1-0.5l0.6-1.3c0.3,0.2,0.6,0.3,0.8,0.4s0.5,0.1,0.8,0.1c0.4,0,0.7-0.1,0.9-0.4
		s0.3-0.6,0.3-1v-0.1h-1c-0.8,0-1.3-0.2-1.7-0.7s-0.6-1.2-0.6-2.1c0-0.6,0.1-1.2,0.4-1.7c0.3-0.5,0.7-0.9,1.2-1.1s1.1-0.4,1.8-0.4
		h1.6v4.5L98.8,103z M96,103v-3.1h-0.3c-0.4,0-0.8,0.1-1.1,0.4s-0.4,0.7-0.4,1.2s0.1,0.8,0.3,1.1c0.2,0.2,0.4,0.3,0.8,0.3L96,103z"
		/>
	<path class="st1" d="M98.7,104.5L98.7,104.5l-0.1-1.4c0,0,0,0,0.1,0h1.8v-4.5h1.6v6L98.7,104.5z M100.5,97.5
		c-0.2,0-0.4-0.1-0.5-0.2c-0.1-0.2-0.2-0.4-0.2-0.6c0-0.3,0.1-0.5,0.2-0.6c0.1-0.2,0.3-0.2,0.5-0.2s0.4,0.1,0.5,0.2
		c0.1,0.2,0.2,0.4,0.2,0.6c0,0.3-0.1,0.5-0.2,0.6C100.8,97.4,100.7,97.5,100.5,97.5z M102.2,97.5c-0.2,0-0.4-0.1-0.5-0.2
		c-0.1-0.2-0.2-0.4-0.2-0.6c0-0.3,0.1-0.5,0.2-0.6c0.1-0.2,0.3-0.2,0.5-0.2s0.4,0.1,0.5,0.2c0.1,0.2,0.2,0.4,0.2,0.6
		c0,0.3-0.1,0.5-0.2,0.6S102.5,97.5,102.2,97.5z"/>
	<path class="st1" d="M109.4,107.4c-0.4,0-0.8-0.1-1.1-0.4c-0.3-0.2-0.6-0.6-0.8-1s-0.3-0.9-0.3-1.4c0-0.8,0.1-1.6,0.3-2.3h1.4
		c-0.1,0.3-0.1,0.7-0.2,1c0,0.3,0,0.7,0,1.1c0,0.3,0.1,0.5,0.2,0.8c0.1,0.2,0.3,0.4,0.5,0.6c0.2,0.1,0.4,0.2,0.6,0.2h1.8
		c0.5,0,0.9-0.1,1.2-0.2s0.4-0.3,0.4-0.6c0-0.2,0-0.3-0.1-0.4s-0.3-0.3-0.5-0.4c-0.3-0.2-0.6-0.5-1-0.8s-0.6-0.6-0.8-0.8
		c-0.1-0.2-0.2-0.5-0.2-0.8c0-0.5,0.2-1,0.6-1.6c0.4-0.6,0.8-1.1,1.3-1.5s1-0.6,1.5-0.6c0.2,0,0.3,0,0.5,0.1s0.4,0.2,0.7,0.5
		l-0.6,1.3c-0.1-0.1-0.3-0.2-0.4-0.2c-0.1-0.1-0.3-0.1-0.4-0.1c-0.2,0-0.4,0.1-0.7,0.3c-0.3,0.2-0.6,0.5-0.8,0.7
		c-0.2,0.3-0.3,0.5-0.3,0.7c0,0.1,0.1,0.3,0.2,0.4c0.2,0.2,0.4,0.4,0.7,0.6s0.6,0.5,0.9,0.8c0.3,0.3,0.6,0.6,0.7,0.9
		c0.2,0.3,0.2,0.5,0.2,0.8c0,0.7-0.3,1.3-0.8,1.7c-0.5,0.4-1.3,0.6-2.3,0.6L109.4,107.4z M110.3,110.4c-0.2,0-0.4-0.1-0.5-0.2
		c-0.1-0.2-0.2-0.4-0.2-0.6c0-0.3,0.1-0.5,0.2-0.6c0.1-0.2,0.3-0.2,0.5-0.2s0.4,0.1,0.5,0.2c0.1,0.2,0.2,0.4,0.2,0.6
		c0,0.3-0.1,0.5-0.2,0.6S110.5,110.4,110.3,110.4z M112,110.4c-0.2,0-0.4-0.1-0.5-0.2s-0.2-0.4-0.2-0.6c0-0.3,0.1-0.5,0.2-0.6
		c0.1-0.2,0.3-0.2,0.5-0.2s0.4,0.1,0.5,0.2c0.1,0.2,0.2,0.4,0.2,0.6c0,0.3-0.1,0.5-0.2,0.6C112.4,110.3,112.3,110.4,112,110.4z"/>
	<path class="st1" d="M117.5,107.4c-0.4,0-0.7,0-1-0.1s-0.6-0.3-0.9-0.5l0.6-1.2c0.2,0.1,0.3,0.2,0.5,0.3c0.1,0.1,0.3,0.1,0.5,0.1
		c0.3,0,0.5-0.1,0.7-0.4c0.2-0.2,0.3-0.6,0.3-0.9v-6.1h1.6v6.2c0,0.8-0.2,1.5-0.6,2C118.7,107.2,118.1,107.4,117.5,107.4z"/>
	<path class="st1" d="M124.5,103L124.5,103l0.1,1.4c0,0,0,0.1-0.1,0.1h-2.9v-9.2h1.6v7.8L124.5,103z"/>
	<path class="st1" d="M124.4,104.5C124.4,104.5,124.3,104.5,124.4,104.5l-0.1-1.4c0,0,0,0,0.1,0h4.2l0,0c-0.3-0.3-0.5-0.9-0.6-1.7
		c-0.1-0.5-0.2-0.9-0.4-1.1s-0.5-0.3-0.8-0.3c-0.2,0-0.5,0-0.7,0.1s-0.5,0.2-0.7,0.3l-0.5-1.3c0.6-0.4,1.4-0.6,2.2-0.6
		c0.7,0,1.3,0.2,1.6,0.5c0.4,0.4,0.6,1,0.8,1.8c0.2,1.2,0.4,2,0.7,2.3v1.5L124.4,104.5z M127,107.5c-0.2,0-0.4-0.1-0.5-0.2
		c-0.1-0.2-0.2-0.4-0.2-0.6c0-0.3,0.1-0.5,0.2-0.6c0.1-0.2,0.3-0.2,0.5-0.2s0.4,0.1,0.5,0.2c0.1,0.2,0.2,0.4,0.2,0.6
		c0,0.3-0.1,0.5-0.2,0.6C127.3,107.4,127.2,107.5,127,107.5z"/>
</g>
<g>
	<path class="st2" d="M52.3,36.9c0.1-4.9,0.1-4.9,4.3-4.9c15.8,0,31.6,0,47.4,0c1.1,0,2.1,0,3.5,0c-2.3,12.7-4.4,25-6.7,37.5
		c-18.2,0-36.2,0-54.4,0c0-0.9,0-1.8,0-3.1c-2.4,0-4.8,0.2-7.2-0.1c-1-0.1-1.9-1.1-2.8-1.7c0.9-0.5,1.8-1.4,2.7-1.4
		c7-0.1,14-0.1,21-0.1c0.7,0,1.5,0.2,2.2-0.1c0.7-0.3,1.3-1,1.9-1.5c-0.7-0.6-1.3-1.6-2-1.6c-3.6-0.2-7.3-0.1-10.9-0.1
		c-1,0-2,0-3.2,0c0.2-1.7,0.3-3.1,0.5-4.9c-4.4,0-8.8,0-13.1,0c-0.9,0-1.9,0.1-2.7-0.2c-0.6-0.2-1.2-1.1-1.3-1.7
		c-0.1-0.4,0.8-1.1,1.4-1.3c0.7-0.2,1.6-0.1,2.4-0.1c10.5,0,20.9,0,31.4,0c0.7,0,1.5,0.2,2.2-0.1c0.7-0.3,1.3-1,1.9-1.5
		c-0.7-0.6-1.3-1.6-2-1.6c-3.9-0.2-7.8-0.1-11.7-0.1c-2.3,0-4.5,0-7.1,0c0.2-1.6,0.4-3,0.6-4.9c-1.1,0-2,0-3,0
		c-6.6,0-13.3,0.1-19.9-0.1c-1,0-2.7-0.9-2.8-1.6c-0.2-1.9,1.5-1.6,2.7-1.6c10.7,0,21.5,0,32.2,0c0.7,0,1.5,0.2,2.2-0.1
		c0.8-0.3,1.4-1,2.1-1.6c-0.7-0.5-1.3-1.5-2.1-1.5c-2.3-0.2-4.5-0.1-6.8-0.1C54.4,36.9,53.4,36.9,52.3,36.9z"/>
	<path class="st2" d="M125.9,79.5c-0.2-5.7-2.5-8.9-6.7-9.6c-5.8-1-10.4,2.3-13.7,9.7c-10.1,0-20.3,0-30.5,0
		c-0.4-2.1-0.8-4.2-1.2-6.5c9.8,0,19.7,0,29.8,0c1.1-6.1,2.2-12.1,3.2-18.1c0.8-4.6,1.6-9.1,2.3-13.7c0.3-2.2,1.4-3.1,3.6-3.1
		c4.4,0.1,8.7-0.1,13.1,0.1c0.9,0,2.3,1,2.7,1.9c1.6,4.3,3.2,8.7,4.2,13.2c0.5,2.3-0.2,4.8-0.5,7.2c-0.5,3.4-1.2,6.8-1.8,10.2
		c-0.1,0.7-0.2,1.5,0.1,2.1C132.5,77.4,130.9,79.8,125.9,79.5z M112.4,41.5c-0.8,4.5-1.5,8.7-2.2,13.1c6.7,0,13,0,19.6,0
		c-1.3-4.1-2.5-8-3.8-11.8c-0.2-0.5-0.9-1.2-1.5-1.2C120.5,41.5,116.5,41.5,112.4,41.5z"/>
	<path class="st2" d="M65.8,73c3.2,0,5.5,2.2,5.6,5.4c0.1,4-3.7,7.8-7.8,7.8c-3.2,0-5.6-2.3-5.6-5.4C57.9,76.8,61.7,73,65.8,73z
		 M65.9,76.3c-3,0.1-5.2,2.1-4.6,3.9c0.3,1.1,1.8,2.3,2.9,2.5c1.9,0.3,4.1-2.1,3.7-3.8C67.6,77.7,66.4,76.8,65.9,76.3z"/>
	<path class="st2" d="M114.6,86.2c-3.2,0-5.5-2.3-5.6-5.4c0-4.1,3.8-7.8,7.9-7.8c3.2,0,5.4,2.3,5.4,5.6
		C122.4,82.6,118.7,86.2,114.6,86.2z M119,78.3c-0.6-0.4-1.4-1.6-2.6-1.9c-1.9-0.5-4.3,1.4-4,3.4c0.2,1.1,1.4,2.5,2.4,2.9
		C116.6,83.3,118.8,81.2,119,78.3z"/>
	<path class="st2" d="M57.6,73.1c-1,2.1-1.7,3.8-2.7,5.4c-0.4,0.6-1.4,1.1-2.1,1.1c-2.6-0.1-5.6,0.1-7.8-1c-1.6-0.9,0.8-5.5,2.9-5.5
		C51.2,73,54.3,73.1,57.6,73.1z"/>
	<path class="st2" d="M65.9,76.3c0.4,0.5,1.6,1.4,1.9,2.6c0.5,1.8-1.8,4.2-3.7,3.8c-1.1-0.2-2.5-1.4-2.9-2.5
		C60.7,78.4,62.9,76.4,65.9,76.3z"/>
	<path class="st2" d="M119,78.3c-0.2,2.9-2.4,5-4.2,4.4c-1.1-0.4-2.2-1.8-2.4-2.9c-0.3-1.9,2.1-3.9,4-3.4
		C117.5,76.7,118.4,77.8,119,78.3z"/>
</g>
</svg>
