<?xml version="1.0" encoding="utf-8"?>
<!-- Generator: Adobe Illustrator 19.0.0, SVG Export Plug-In . SVG Version: 6.00 Build 0)  -->
<svg version="1.1" id="Layer_1" xmlns="http://www.w3.org/2000/svg" xmlns:xlink="http://www.w3.org/1999/xlink" x="0px" y="0px"
	 viewBox="0 0 578 208" style="enable-background:new 0 0 578 208;" xml:space="preserve">
<style type="text/css">
	.st0{fill:#FFFFFF;}
	.st1{fill:#376833;}
	.st2{fill:#DB5A27;}
	.st3{fill:#DA5927;}
	.st4{fill:#010101;}
	.st5{fill:#DA5927;stroke:#FFFFFF;stroke-width:3;stroke-miterlimit:10;}
</style>
<g id="Marwan_Home">
	<g id="cart">
		<path id="XMLID_598_" class="st0" d="M-725.2-48.8c0.4,0.9,1.1,1.1,2,1.1c1.2,0,2.5,0,3.7,0c1.8,0,2.8,0.7,3.3,2.4
			c0.5,1.8,0.9,3.6,1.3,5.4c1.3,5.7,2.6,11.4,3.9,17c0.3,1.2,0.6,2.5,1.1,3.7c1.4,3.7,4,5.6,7.9,5.7c6.5,0.1,13,0,19.5,0
			c3.4,0,6-1.5,7.7-4.5c0.9-1.7,1.6-3.4,2.4-5.1c1.1-2.5,2.1-5.1,3.2-7.6c0.7-1.9,1-3.9,0.6-5.9c-0.7-3.2-2.8-5.1-6.2-5.3
			c-3.4-0.2-6.9-0.1-10.3-0.1c-1,0-1.4,0.4-1.4,1.1c0,0.8,0.6,1.5,1.5,1.5c2.9,0,5.8,0,8.7,0c0.6,0,1.1,0,1.7,0.1
			c2,0.4,3.2,1.8,3.3,4c0.1,1.3-0.1,2.5-0.6,3.7c-1.5,3.6-3,7.2-4.6,10.8c-0.3,0.7-0.7,1.3-1.1,2c-1.1,1.8-2.8,2.7-4.9,2.7
			c-3.6,0-7.1,0-10.7,0c-2.7,0-5.4,0-8.1,0c-0.7,0-1.3,0-2-0.2c-1.8-0.3-3.2-1.4-3.9-3.1c-0.6-1.5-1-3-1.3-4.6
			c-1.6-7-3.2-14.1-4.9-21.1c-0.1-0.6-0.3-1.2-0.6-1.7c-1-2.2-2.7-3.4-5.2-3.5c-1.6-0.1-3.2,0-4.8,0c-0.6,0-1.1,0.2-1.4,0.8
			C-725.2-49.3-725.2-49-725.2-48.8z"/>
		<path id="XMLID_597_" class="st0" d="M-691.1-34.2c0-0.3,0-0.5,0-0.7c0-4.9,0-9.7,0-14.6c0-1.5-1.4-2.4-2.7-1.8
			c-0.8,0.4-1,1.1-1,1.9c0,4.2,0,8.5,0,12.7c0,0.7,0,1.4,0,2.2c-0.2,0-0.4,0-0.6,0c-1,0-2.1,0-3.1,0c-0.9,0-1.6,0.4-1.9,1.2
			c-0.3,0.8-0.1,1.7,0.6,2.3c1.3,1.2,2.7,2.3,4.1,3.4c0.6,0.5,1.2,1,1.8,1.5c0.9,0.7,1.8,0.7,2.7,0c1.9-1.6,3.8-3.3,5.6-4.9
			c0.3-0.3,0.6-0.7,0.7-1.2c0.3-1.3-0.4-2.1-1.7-2.1c-1.2,0-2.4,0-3.7,0C-690.6-34.2-690.8-34.2-691.1-34.2z"/>
		<path id="XMLID_594_" class="st0" d="M-702.1-11.4c-3.1,0-5.6,2.6-5.6,5.7S-705.1,0-702,0c3,0,5.7-2.6,5.7-5.7
			C-696.4-8.9-699-11.4-702.1-11.4z M-702.1-2.7c-1.6,0-2.8-1.2-2.8-2.8c0-1.5,1.3-2.9,2.9-2.9c1.5,0,2.8,1.3,2.8,2.8
			S-700.5-2.7-702.1-2.7z"/>
		<path id="XMLID_591_" class="st0" d="M-684-11.4c-3.2,0-5.7,2.5-5.7,5.7c0,3,2.6,5.7,5.7,5.7c3,0,5.7-2.6,5.7-5.7
			C-678.4-8.8-680.9-11.4-684-11.4z M-684.1-2.7c-1.6,0-2.8-1.2-2.8-2.9c0-1.5,1.3-2.8,2.8-2.8s2.9,1.3,2.9,2.9
			C-681.2-4-682.5-2.7-684.1-2.7z"/>
	</g>
	<g id="XMLID_588_">
		<circle id="XMLID_590_" class="st1" cx="-668.3" cy="-45.9" r="18.7"/>
		
			<text id="XMLID_589_" transform="matrix(1 -4.500000e-004 4.500000e-004 1 -680.0155 -40.5897)" class="st0" style="font-family:'ArialMT'; font-size:31.2491px;">18</text>
	</g>
	<path id="search" class="st0" d="M-597.9-20.7c0.2-0.3,0.5-0.6,0.7-0.9c4.3-6.2,3.3-14.2-2.4-19.2c-5.5-4.8-13.6-4.7-19.1,0.2
		c-5.5,5-6.4,13.1-2,19.1c4.4,6.1,12.4,7.8,18.9,4c1.1-0.6,1.6-0.4,2.3,0.4c3.3,3.4,6.6,6.7,9.8,9.9c1-0.8,1.8-1.4,3-2.3
		C-590.5-13.4-594.2-17.1-597.9-20.7z M-609-17.2c-7.1,0-12.9-5.7-12.8-12.8c0.1-7.2,5.6-12.6,12.8-12.6c7.2,0,12.7,5.5,12.7,12.7
		C-596.3-22.8-601.8-17.2-609-17.2z"/>
	<path id="back" class="st0" d="M-160.7-26.1c-5.3-5.5-10.8-11.3-16.4-17c-0.6-0.6-2.1-0.8-2.7-0.5c-0.8,0.4-1.6,1.6-1.7,2.5
		c-0.2,2.2-0.1,4.4-0.1,6.8c-7.5,1.2-13.6,4.7-17.8,11c-3.1,4.6-4.3,9.8-4.1,16.1c5.5-7.7,12.8-10.7,21.9-10.6
		c0,2.3-0.2,4.5,0.1,6.6c0.1,0.9,0.9,2.1,1.7,2.5c0.7,0.3,2.2,0.1,2.8-0.5C-171.5-14.8-165.9-20.7-160.7-26.1z"/>
	<rect id="XMLID_585_" x="-27" y="215.8" class="st0" width="640" height="1"/>
	<g id="XMLID_68_">
		<g id="XMLID_141_">
			<path id="XMLID_582_" class="st2" d="M76.8,82.6c21.3,0,42.5,0,63.8,0c4,0,4,0,4,4c0,34.3,0,68.6,0,102.8
				c0,9.2-5.8,14.9-14.9,14.9c-35.3,0-70.6,0-105.9,0c-8.8,0-14.7-5.9-14.7-14.6c0-34.6,0-69.3-0.1-103.9c0-2.7,0.8-3.3,3.4-3.3
				C33.9,82.6,55.3,82.6,76.8,82.6z M125.2,136.1c0-26.9-21.7-48.4-48.8-48.4c-26.6,0-48,21.8-48.1,48.8
				c-0.1,25.5,20.4,48.3,48.4,48.3C105.4,184.8,125.5,161.5,125.2,136.1z"/>
			<path id="XMLID_149_" class="st2" d="M76.8,78.3c-21.3,0-42.5,0-63.8,0c-3.9,0-4,0-4-4c0-3.7,0-7.3,0-11C9,54,14.9,48.1,24.3,48
				c6.9,0,13.7,0,20.6,0c27.9,0,55.9,0,83.8,0c6.8,0,11.9,2.7,14.7,9.1c0.7,1.6,1,3.3,1,5.1c0,4.1,0,8.2,0,12.4
				c0,3.6-0.1,3.7-3.7,3.7c-15.5,0-31,0-46.5,0C88.5,78.3,82.7,78.3,76.8,78.3z M128.8,70c3.4,0,6.2-2.9,6.1-6.1
				c-0.1-3.3-3.1-6.3-6.4-6.3c-3.4,0-6.1,3-6,6.5C122.6,67.5,125.3,70,128.8,70z M93.1,70c3.5-0.1,6.2-2.9,6.1-6.4
				c-0.1-3.1-3.1-6-6-6c-3.4,0-6.4,3-6.4,6.2C86.8,67.3,89.6,70,93.1,70z M110.9,70c3.5,0,6-2.6,6-6.1c0-3.6-2.7-6.4-6.1-6.3
				c-3.4,0.1-6.3,3-6.2,6.4C104.7,67.2,107.6,70,110.9,70z"/>
			<path id="XMLID_146_" class="st2" d="M76.2,181.8c-24.4,0.7-46-21-45.3-46.6c0.7-24.8,20.9-44.9,46.2-44.8
				c25,0.1,45.5,21,45.3,46.4C122.2,161.7,101.4,182.6,76.2,181.8z M76.5,98.1c-20.6-0.2-38.4,16.5-38.1,38.6
				c0.2,21.4,17.2,37.7,38.2,37.7c22.8,0,38.1-18.8,38.2-38.1C114.8,114.8,96.8,97.6,76.5,98.1z"/>
			<path id="XMLID_145_" class="st2" d="M76.3,173c-17.2-0.1-32-11.8-35.7-28.6c-0.6-2.8-0.3-3.1,2.5-2.3c8.3,2.2,17-1.3,21.5-8.5
				c1-1.7,1.8-2.3,3.9-1.3c5.2,2.5,10.6,3.4,16.3,1.9c1.3-0.3,2.2-0.1,3.2,0.8c5.2,4.6,11.6,3.5,15.1-2.5c0.8-1.4,1.6-1.8,3-1.1
				c1.6,0.7,3.3,1.2,5,1.2c2.3,0,2.7,1.4,2.6,3.3c-0.2,9-2.9,17.1-8.8,24C97.3,168.7,87.8,173.2,76.3,173z"/>
			<path id="XMLID_144_" class="st2" d="M53.7,133.7c-0.1,2.7-2.5,5.1-5.2,5s-4.8-2.3-4.8-5c0-2.9,2.2-5.2,5-5.2
				C51.3,128.5,53.8,131,53.7,133.7z"/>
			<path id="XMLID_143_" class="st2" d="M94.8,134.9c-1.7,0-3.6-1.7-3.5-3.5c0.1-2,1.3-3.2,3.2-3.4c1.8-0.2,3.6,1.5,3.7,3.3
				C98.3,133.2,96.7,134.9,94.8,134.9z"/>
			<path id="XMLID_142_" class="st2" d="M54.8,121c-0.2,2-1.3,3.2-3.5,3.1c-2.1,0-3.2-1.2-3.2-3.3c0-2,1.1-3.3,3.1-3.4
				C53.2,117.3,54.8,118.9,54.8,121z"/>
		</g>
		<g id="XMLID_101_">
			<g id="XMLID_130_">
				<g id="XMLID_138_">
					<path id="XMLID_140_" class="st3" d="M185.1,102.9c0.4-0.1,0.8,0,1.1,0.2l-2.6,1.5C184,104.3,184.5,103.7,185.1,102.9
						L185.1,102.9z"/>
					<path id="XMLID_139_" class="st3" d="M202.3,66.6c-0.1,1.7-0.3,3.5-0.4,5.2c-0.1,1.3-0.2,2.6-0.4,3.9c-0.2,1.5-0.4,3-0.7,4.6
						c-0.1,1.1-0.2,2.2-0.3,3.2c-0.1,0.9-0.3,1.9-0.6,2.7c-0.2,0.5-0.4,1-0.7,1.6c-1.7,3.6-5,8.5-7.6,10.9c-1.3,1.2-2.5,2.4-3.9,3.5
						l-0.8,0.5c-0.4-0.3-0.8-0.5-1.3-0.6c0.6-0.8,1.2-1.7,1.8-2.7c0.8-1.2,1.5-2.4,2.2-3.6c1.1-1.8,1.9-3.4,2.2-4.3s0.8-1.7,1.1-2.6
						c0.6-2.2,1.2-4.5,1.7-6.7c0.2-0.9,0.2-1.9,0.3-2.9c0-0.9,0-1.8-0.1-2.8c-0.1-0.1-0.2-0.1-0.3-0.2c-1.1,0.9-2.2,1.9-3.3,2.8
						c-1.5,1.4-2.9,2.9-4.3,4.4c-2.2,2.3-4.4,4.7-6.5,7.1c-1.3,1.5-2.2,3.3-3.3,4.9c-0.1,0.2-0.2,0.3-0.4,0.5
						c-0.8,1.1-1.6,2.1-2.3,3.2c-0.3,0.4-0.6,0.9-0.9,1.3c-0.2,0.3-0.4,0.6-0.6,0.9c-0.2,0.3-0.3,0.5-0.5,0.8
						c-0.1,0.2-0.2,0.3-0.3,0.5c-1.4,2.3-2.7,4.5-4,6.9c-2.6,4.8-5.5,9.5-7.6,14.5c-0.6,1.4-1.2,2.7-1.8,4.1
						c-0.3,0.6-0.5,1.1-0.7,1.7c-0.5,1.1-1,2.2-1.4,3.3c-0.2,0.4-0.3,0.8-0.5,1.2c-4,9.2-8,18.4-11.1,27.9c-0.2,0.5-0.3,1-0.5,1.5
						c-2,5.8-4.7,11.4-6.6,17.3c-1.8,5.8-4.4,11.4-6.7,17.1c-0.2,0.6-0.4,1.2-0.6,1.9c-0.5,1.4-1,2.9-1.5,4.3
						c-0.2,0.7-0.5,1.4-0.7,2.1c-0.2-0.1-0.3-0.1-0.5-0.2c0.2-0.6,0.5-1.2,0.7-1.9c0.1-0.1,0.1-0.3,0.1-0.4c0.2-0.6,0.5-1.3,0.6-1.9
						c0.2-0.9,0.1-1.9,0.3-2.7c0.5-2.2,1-4.3,1.6-6.5c0-0.2,0-0.3,0.1-0.5c0.2-1.7,0.4-3.3,0.6-5c0.3-2.1,0.6-4.2,0.9-6.3
						c0.1-1.2,0.2-2.3,0.3-3.5c0.2-1.4,0.4-2.8,0.6-4.3c0.1-1.1,0.2-2.2,0.3-3.4c0.1-1.3,0-2.6,0-3.9c0-1.5,0.1-3.1,0.2-4.6
						c0-1.1,0.1-2.1,0.1-3.2c0.1-1.2,0.2-2.4,0.2-3.6c0-2-0.1-4.1,0-6.1c0.1-2.8,0.2-5.6,0.4-8.4c0-0.9,0-1.7,0-2.6
						c0-1.4,0-2.8,0-4.2c0-1.1,0-2.2,0-3.3c0-1.2,0-2.4,0-3.6c0-1.4,0.1-2.8,0.1-4.2c0.1-1.2,0.1-2.4,0.2-3.6
						c0.1-1.3,0.1-2.6,0.2-3.9c0.1-1.4,0-2.9,0.3-4.2c0.4-2.1,1.2-4.2,1.7-6.2c1.1-4.2,3.8-7.4,6.9-10.2c0.3-0.2,0.5-0.5,0.8-0.7
						c1.9-1.6,4.1-2.8,6.5-3.8c0.5-0.2,1-0.4,1.5-0.6c0.6-0.2,1.1-0.4,1.6-0.6c0.2-0.1,0.4-0.2,0.6-0.2c0,0,0,0,0.1,0
						c5.2-1.9,11-2.7,15.9-5.2c2.5-1.2,4.4-2.9,5.5-5.2c0.3-0.7,0.3-1.6,0.3-2.5c0-2,0.1-4-0.1-5.9c-0.1-2.3-0.4-4.6-0.7-6.8
						c-0.1-1.3-0.3-2.5-0.5-3.9c-0.7,0.2-1.2,0.2-1.7,0.4c-5,1.8-10,3.5-14.8,5.3c-2.4,0.9-4.7,2.1-6.9,3.4c-1.7,1-3.2,2.3-4.5,3.6
						c-1.4,1.4-2.7,2.9-3.5,4.6c0,0.1-0.1,0.1-0.1,0.2c-0.3,0.7-0.7,1.4-1,2.1c-0.6,1.4-1.1,2.9-1.3,4.5c0,0.1,0,0.2,0,0.4
						c-0.2,2.2-1,4.3-1.3,6.4c-0.1,1-0.7,1.3-1.6,1.6c-0.1-2.1-0.3-4.2-0.4-6.2c0-0.7,0-1.5,0.1-2.2c0-0.4,0.1-0.8,0.1-1.2
						c0.1-1,0.1-2,0.2-3.1l0,0c0.2-1.9,0.2-3.9,0.7-5.7c0.8-2.9,2.1-5.7,4.5-7.8l0,0c0.3-0.2,0.6-0.5,0.9-0.7
						c1.6-1.2,3.1-2.6,4.9-3.6c2.6-1.4,5.4-2.6,8.2-3.7c4.1-1.7,8.3-3.2,12.5-4.8c2-0.7,4-1.4,6-2.2c3-1.3,6.2-1.2,9.5,0.1
						c1.3,0.5,2.5,1.4,3.7,2.2c1.6,1,3.3,1.9,4.8,3.1c1.7,1.3,3.2,2.7,4.7,4.2C202,61.5,202.5,64,202.3,66.6z"/>
				</g>
				<circle id="XMLID_137_" class="st3" cx="205" cy="34.3" r="19.9"/>
				<path id="XMLID_136_" class="st0" d="M165.2,97.9c-0.8-0.3-1.6-0.6-2.3-1c-0.5-0.3-1-0.8-1.4-1.2c-0.4-0.3-0.8-0.6-1.2-0.9
					c-0.2-0.1-0.4-0.2-0.6-0.3c-0.7-0.5-1.3-1-2-1.4c-0.4-0.3-0.9-0.3-0.6-1c0-0.1-0.1-0.2-0.1-0.3c-0.2-0.5-0.5-1-0.8-1.5
					c-0.1,0.1-0.3,0.2-0.5,0.3c0.1,0.6,0.3,1.2,0.4,2c-1-0.2-2-0.5-2.3,0.9c-0.7-0.1-1.4-0.4-2.1-0.4c-1,0-0.8,1.1-1.1,1.5
					c-0.7,0-1.4-0.1-1.9,0.1c-0.8,0.3-0.4,1.1-0.3,1.7c-0.8,0.1-1.6-0.3-2.2,0.4c-0.7,0.8,0,1.5-0.1,2.3c-0.2,0-0.4,0-0.6-0.1
					c-1-0.2-1.4,0.1-1.6,1.1c-0.1,0.5,0,1,0,1.5c-2,0.8-2.3,1.4-1.4,3.2c-0.2,0-0.3,0-0.5,0c-0.6-0.2-1,0.1-1.4,0.6
					s-0.1,0.9,0.2,1.3c0.4,0.4,0.8,0.8,1.3,1.2c-0.4,0.2-0.9,0.4-1.2,0.7c-0.9,0.7-0.9,1.8,0,2.5c0.4,0.3,0.9,0.6,1.3,0.9
					c-0.4,0.8-1.6,1.3-1,2.4c0.4,0.9,1.2,1.3,2.3,1.2c-0.1,0.2-0.1,0.3-0.2,0.4c-1,0.7-1,1.4-0.1,2.1c1,0.8,2,1.1,3.3,0.4
					c-0.2,1.1-0.1,2,1,2.4c0.9,0.3,1.7,0.5,2.4-0.1c0.6,0.6,1,1.4,1.7,1.7c1,0.4,1.1-0.9,1.8-1.4c0.4,0.7,0.8,1.5,1.9,1.1
					c0.9-0.3,0.9-1,0.9-2c0.4,0.4,0.6,0.8,0.9,0.9c0.5,0.2,1.1,0.3,1.5,0.1c0.5-0.2,0.7-1.3,0.5-1.9c-0.1-0.3-0.3-0.6-0.4-1
					c0.1,0,0.1-0.1,0.2-0.1c0.3,0.1,0.6,0.2,0.8,0.3c0.5,0.3,1,0.1,1.1-0.4c0.2-0.7,0.4-1.4,0.5-2.1c0.6,0.4,1.3,0.8,2-0.1
					c0.5-0.7,0.6-1.5,0.1-2.4c0.8,0.2,1.5,0.7,1.9-0.2c0.5-0.9,0.2-1.8-0.3-2.8c0.3,0.1,0.6,0.2,0.8,0.2c0.4,0,0.9,0.2,1.1,0
					c0.3-0.2,0.4-0.8,0.3-1.1c-0.2-0.7-0.7-1.3-1-2c0.7,0,1.3-0.4,1.4-1.3c0.1-1-0.5-1.5-1.5-1.7c0.7-0.2,1.4-0.3,1.5-1.2
					c0.1-0.8-0.3-1.3-0.9-1.6c0.2-0.4,0.5-0.9,0.5-1.3s-0.4-0.8-0.6-1.2c0.2-0.1,0.5-0.2,0.8-0.4c0-0.1,0-0.1,0-0.2
					c-0.3-0.1-0.5-0.1-0.8-0.2C166.2,98.5,165.7,98.2,165.2,97.9L165.2,97.9z"/>
				<g id="XMLID_133_">
					<path id="XMLID_135_" class="st4" d="M149,108.5c4.7-0.1,8.5-2.3,12-5.3c-1.9,1.1-3.7,2.4-5.7,3.3
						C153.3,107.3,151.1,107.8,149,108.5z"/>
					<path id="XMLID_134_" class="st4" d="M146.9,112.4c2.4-0.9,4.8-1.9,7.3-2.8c-0.1-0.1-0.1-0.3-0.2-0.4c-2.4,0.9-4.8,1.8-7.3,2.7
						C146.8,112,146.8,112.2,146.9,112.4z"/>
				</g>
				<path id="XMLID_132_" class="st1" d="M219.6,36.7c0.6,2.4,0.7,4.9,0.6,7.4c0,0.2,0,0.4,0.1,0.7c0.4-1.6,0.8-3.3,1.2-5.1
					c0.7,0.3,1.3,0.6,2,1c0.3-1,0.8-2.1,1-3.1c1.5-7.2-0.2-13.5-5.2-18.8c-1.8-1.9-4-3.4-6.4-4.4c-0.5-0.2-0.7-0.5-0.7-1
					c-0.1-2.2-0.8-4.2-2.2-5.9c-2.7-3.5-7.1-3.5-9.9-0.1c-1.3,1.7-2,3.6-2.2,5.7c-0.1,0.7-0.3,1.1-1,1.4c-7.6,3.6-11.7,9.6-12.1,18
					c-0.1,2.6,0.3,5.2,1.3,7.7c0.6-0.2,1.1-0.3,1.7-0.5c0.3,1.7,0.6,3.3,1,5c0.1,0,0.2,0,0.4,0c0.1-0.6,0.1-1.3,0.2-1.9
					c0.2-3.1,0.3-6.2,1.2-9.1c0.4-1.4,1.2-2.6,1.8-3.9c0.1-0.2,0.3-0.3,0.5-0.5c-0.4,2-0.7,3.9-1.1,5.9c3.3-0.8,6.4-1.7,8.8-4.2
					c0.1,0,0.1,0.1,0.2,0.1c-0.6,1.2-1.1,2.4-1.7,3.7c2.2,0.2,4.3-0.1,6.3-1.2c2-1.1,3.3-2.8,4-4.9c0.3,1.8-0.1,3.4-0.7,5.1
					c2.2-0.7,4.9-2.8,6.1-4.6c-0.1-0.2-0.2-0.4-0.3-0.8c0.3,0,0.6,0.1,0.8,0.1s0.5-0.1,0.6-0.3s0.1-0.6-0.1-0.8
					c-0.1-0.1-0.6-0.1-0.8,0c-0.4,0.2-0.7,0.5-1.1,0.6c0.3-0.7,0.7-1.3,1.4-1.3c0.3,0,0.8,0.3,1,0.6c0.3,0.6,0,1.1-0.6,1.5
					L219.6,36.7z"/>
				<path id="XMLID_131_" class="st0" d="M151.9,89.3c0.5,1,1.1,1.9,1.8,2.8c1.2,1.6,2.6,3.1,4.2,4.5c2.6,2.2,5.5,3.6,8.7,4.5
					c0.1,0,0.2,0,0.3,0.1c1.9,0.5,3.8,0.9,5.7,1c0.2-0.3,0.3-0.5,0.5-0.8s0.4-0.6,0.6-0.9c0.3-0.4,0.6-0.9,0.9-1.3
					c-3.9-0.3-7.5-1.6-10.9-3.6c-3.1-1.9-5.8-4.1-8.1-6.9c-0.2-0.2-0.4-0.5-0.5-0.7c-0.5,0.2-1.1,0.4-1.6,0.6
					C152.9,88.9,152.4,89.1,151.9,89.3z"/>
			</g>
			<path id="XMLID_117_" class="st4" d="M214.9,129.9c-0.8-0.5-1.6-1.1-2.3-1.7c-0.4-0.4-0.7-0.9-1-1.3c-1.7-2.2-3.4-4.5-5.6-6.2
				c-1.2-0.9-2.5-1.7-3.8-2.4c-2-0.9-4.2-1.6-6.2-2.4c-0.6-0.2-1.1-0.3-1.5,0.6c-1.4-1-2.8-1.9-4.1-2.9c-0.4-0.3-0.7-0.9-0.9-1.4
				c-0.6-1.5-1.7-2.6-3.3-3c-0.4-0.1-0.5-0.3-0.5-0.7c0-0.2,0-0.5,0-0.7c0.1-0.6-0.1-0.9-0.7-1.2c-0.4-0.3-0.8-0.7-1.1-1.1
				c-0.5-0.9-0.3-1.8,0.5-2.2c0.2-0.1,0.5-0.2,0.7-0.2l0,0c0.2-0.3,0.4-0.6,0.6-0.9c-0.4-0.1-0.9,0-1.3,0.1c-0.9,0.3-1.5,1-1.6,1.9
				c-0.1,1.2,0.4,2.2,1.5,3c0.4,0.3,0.7,1.2,0.5,1.7c-0.1,0.1-0.3,0.2-0.4,0.2c-1.7,0.5-2.8,1.5-3.4,3.1c-0.3,1-1.1,1.7-1.9,2.2
				c-1.3,0.8-2.7,1.6-4.1,2.3c-0.2,0.1-0.5,0-0.7-0.1c-0.3-0.1-0.7-0.3-1-0.1c-2.8,1.3-5.6,2.6-8.4,4c-2.2,1.1-3.3,3.2-4.5,5.3
				c-0.2,0.3-0.3,0.6-0.5,0.9c-0.3,0.6-0.6,1.2-1,1.7c-0.3,0.3-0.5,0.6-0.9,0.8c-1.1,0.7-2,1.7-3,2.5c-0.5,0.4-0.2,0.8,0,1.1
				c0.4,0.6,0.8,1.1,1.1,1.7c0.5,0.8,1,1.5,1.6,2.2c1.7,2.1,3.5,4.1,5.3,6.1c0.6,0.6,1.2,1.1,1.8,1.7c0.2,0.2,0.3,0.5,0.3,0.8
				c0,8.3,0,16.6,0,25v6.2c3-0.1,6-0.3,9.1-0.3c5.4,0,10.8,0,16.2,0.2c4,0.2,7.9,0.7,11.8,1c0.7,0.1,1.4,0,2.1-0.1
				c0.5-0.1,0.9-0.4,0.8-1c-0.1-4.4-0.3-8.9-0.4-13.3c-0.1-5.8,0-11.7,0.1-17.5c0-0.6,0.2-1.1,0.7-1.5c3.2-2.8,6.1-5.9,8.3-9.5
				c0.6-1,1-2.1,1.4-3.1C215.6,130.7,215.4,130.2,214.9,129.9z M188.5,111.4c-2.9-2.2-4.1-2.2-6.5-0.2
				C183.4,108.7,187.1,108.9,188.5,111.4z M184.8,112.7c0.2-0.1,0.5,0,0.7,0.1c1.1,0.6,2.2,1.2,3.3,1.8c1.5,0.8,3,1.7,4.6,2.6
				c-3.3,3.6-13.7,3.9-17.5,0.5C178.9,116,181.9,114.3,184.8,112.7z M174.5,118.3c0.8,0.4,1.7,0.9,2.5,1.3c0,0,0-0.1,0.1-0.1
				c-0.7-0.4-1.4-0.8-2.1-1.2c0-0.1,0-0.1,0.1-0.2c0.2,0,0.4,0,0.6,0.1c0.9,0.4,1.7,0.8,2.6,1.1c5.3,1.8,10.5,1.9,15.4-1.5
				c0.2-0.1,0.6-0.1,0.8-0.1c0,0.3,0.1,0.5,0.1,0.8c-0.1,0.2-0.2,0.5-0.4,0.7c-1.3,1.2-2.8,2.1-4.5,2.5c-4.3,1.1-8.4,0.5-12.3-1.3
				c-1-0.5-1.9-1.1-2.9-1.7C174.4,118.6,174.5,118.5,174.5,118.3z M174.8,119.7c0-0.1,0.1-0.1,0.1-0.2c2.7,1.6,5.6,2.6,8.8,2.9
				c-0.1,1.2-0.1,2.3-0.2,3.5c-0.1,0.7,0.3,1.1,1,1.1c0.5,0,1,0,1.5-0.1c0.4-0.1,0.6-0.3,0.6-0.8c-0.1-1.2,0-2.4,0-3.6
				c2.8-0.2,5.2-1.1,7.5-2.7c-0.5,1.7-1.2,3.1-2.1,4.4c-2.3,3.4-6.1,4.7-10,3.4c-2.7-0.9-4.5-2.8-6-5.1c-0.4-0.7-0.7-1.4-1.1-2.1
				c0,0,0.1,0,0.1-0.1c0.5,0.3,1,0.6,1.6,0.9c0,0,0-0.1,0.1-0.1C176.1,120.6,175.4,120.1,174.8,119.7z M184.2,124.3
				c0.1-0.6,0.2-1.2,0.2-1.8h1.5v1.7h0.1c0.1-0.6,0.1-1.1,0.2-1.7c0.1,0,0.1,0,0.2,0v4.1c-0.7,0-1.4,0-2.1,0c-0.2,0-0.6-0.4-0.6-0.6
				c0-0.9,0.1-1.8,0.2-2.7c0.1,0,0.1,0,0.2,0L184.2,124.3C184.1,124.3,184.2,124.3,184.2,124.3z M172.4,117.5c0.1,0,0.1,0,0.1,0
				c0.5,1.4,1,2.8,1.5,4.2c0.1,0,0.1,0,0.2-0.1c-0.1-0.2-0.2-0.4-0.2-0.7c-0.3-1-0.7-2.1-1.1-3.1c-0.2-0.5,0-0.7,0.4-0.7
				c0.9,1.8,1.6,3.6,2.6,5.3c1.2,2.2,2.9,4,5.3,5c3.3,1.3,6.5,1.1,9.3-1.2c1.9-1.5,3-3.6,3.7-5.9c0.4-1.2,0.8-2.5,1.2-3.8
				c0.3,0.1,0.7,0.2,1,0.3c-0.2,2.9-2,7.3-4.2,9.9c-3.7,4.2-10.2,4.3-14.1,1.1c-3.2-2.5-4.9-5.9-5.8-9.8
				C172.3,117.8,172.4,117.6,172.4,117.5z M165,143.4c-3-2.7-5.5-5.9-7.9-9.1c0.1-0.1,0.2-0.1,0.2-0.2c2.6,3,5.3,6,8,9
				C165.2,143.3,165.1,143.3,165,143.4z M165.4,142.8c-2.9-3.2-5.8-6.4-8.8-9.7c-0.4-0.4-0.8-0.8-1.1-1.2c0.8-0.7,1.6-1.4,2.4-2.1
				l0.1,0.1c2.5,2.5,4.6,5.2,6.4,8.1C165.4,139.5,165.6,141.1,165.4,142.8z M205.7,143c-0.1-0.1-0.2-0.2-0.3-0.2
				c2.8-3.4,5.7-6.8,8.5-10.2c0.1,0.1,0.1,0.1,0.2,0.2C212,136.7,209.2,140.1,205.7,143z M214.2,131.5c-0.8,1-1.6,2.1-2.4,3.1
				c-1.4,1.8-2.9,3.5-4.4,5.3c-0.9,1.1-1.8,2.2-2.6,3.3c0-1.5,0-3,0-4.5c0-0.1,0.1-0.2,0.1-0.3c0.6-0.9,1.1-1.8,1.7-2.7
				c0.7-1,1.4-1.9,2.2-2.8c-0.8,0.9-1.6,1.8-2.4,2.7c-0.5,0.6-1,1.3-1.5,2c-0.1,0-0.1-0.1-0.2-0.1c0.3-0.6,0.5-1.2,0.8-1.8
				c0,0-0.1,0-0.1-0.1c-0.1,0.2-0.3,0.4-0.5,0.7c0-1,0.1-1.9,0-2.8c-0.1-1.6,0.5-3.1,0.2-4.6c-0.1-0.7,0-1.5,0.1-2.2
				c0-0.7,0-1.4,0-2c-0.9,9.6-1,19.2-1.1,28.8c-0.5-0.6-0.9-1.2-1.4-1.7c0.3,0.6,0.6,1.2,1,1.7c0.5,0.6,0.6,1.1,0.4,1.9
				c-0.2-0.1-0.3-0.2-0.4-0.3c0.1,0.5,0.4,1,0.4,1.6c0,3.3,0,6.5,0,9.8v5.9c-0.4-0.8-0.8-1.4-1.1-2c0.2,1.2,1.3,2.1,1.2,3.6
				c-0.4-0.6-0.8-1.1-1.1-1.6c0,0,0,0-0.1,0.1c0.3,0.6,0.7,1.2,1,1.9c0.5,0.8,0.4,1.6-0.8,1.5c-0.3,0-0.7,0-1,0
				c-3.2-0.4-6.3-0.8-9.5-1.1c-1.3-0.1-2.6-0.2-4-0.3v0.1c5.2,0.6,10.4,1.2,15.8,1.8c-0.2,0.1-0.4,0.4-0.7,0.4c-1.1,0-2.2,0-3.3-0.1
				c-4-0.3-7.9-0.8-11.8-0.9c-6.6-0.1-13.2,0-19.8,0.1h-3c-0.2-0.8,0.1-1,0.7-1c3.8-0.1,7.6-0.2,11.4-0.3c0.8,0,1.6,0,2.3,0
				c0-0.1,0-0.1,0-0.1h-14.7c0.6-1,1.1-2,1.6-2.9c0,0-0.1,0-0.1-0.1c-0.4,0.6-0.8,1.3-1.2,1.9c-0.5-1.5,0.8-2.3,1.1-3.4
				c-0.3,0.5-0.7,1-1,1.4c-0.1-0.3-0.1-0.5-0.1-0.7c0-5.1,0-10.2,0-15.4c0-1.3,0-2.6,0.6-3.8c0-0.1,0-0.2,0-0.3h-0.1
				c-0.1,0.3-0.3,0.6-0.4,0.9c0.1-8.7-0.2-17.4-0.7-25.7v8.9c-0.1-0.3-0.2-0.5-0.3-0.7c0.2,1.1,0.7,2.1,0.4,3.4
				c-0.3-0.6-0.6-1-0.8-1.5h-0.1c0.4,0.9,0.7,1.7,1.2,2.8c-2.5-3.3-4.8-6.3-7-9.3c0.5-0.8,1-1.5,1.5-2.2c0.4-0.7,0.7-1.6,1.1-2.3
				c0.8-1.2,1.5-2.5,2.5-3.4c2.3-2,5.3-2.8,8.1-4.1c0.2,0.7,0.4,1.2,0.6,1.8c1.4,3.8,3.3,7.2,6.9,9.3c3.9,2.2,9.4,1.9,12.9-1.9
				c2-2.2,3.2-4.9,4.1-7.7c0.2-0.8,0.4-1.5,0.6-2.3c0.7,0.2,1.4,0.5,2,0.7c2.3,0.8,4.5,1.7,6.3,3.2c1.2,1,2.2,2.1,3.3,3.3
				c1.3,1.5,2.6,3.2,3.9,4.9c-0.6,0.6-1.2,1.1-1.8,1.7c-0.7,0.7-1.3,1.5-2,2.3l0,0c0.2-0.1,0.4-0.3,0.6-0.5c0.9-0.8,1.7-1.7,2.6-2.6
				c0.8-0.8,1.4-0.7,2.2,0.1C214.6,130.5,214.7,130.9,214.2,131.5z M186.7,103.8c0.4,0.9,1.1,0.8,1.8,0.8c0.2,0,0.3-0.2,0.5-0.4
				c-0.1-0.2-0.3-0.5-0.4-0.4c-0.6,0.1-0.9-0.3-1.3-0.7c-0.1-0.1-0.2-0.3-0.3-0.4l-0.8,0.5C186.4,103.3,186.6,103.5,186.7,103.8z"/>
			<path id="XMLID_116_" class="st3" d="M186.9,102.7l-0.8,0.5c-0.3-0.2-0.7-0.3-1.1-0.2c0.2-0.3,0.4-0.6,0.6-0.9
				C186.1,102.1,186.6,102.3,186.9,102.7z"/>
			<path id="XMLID_113_" class="st0" d="M208.8,132.9c-0.8,0.9-1.6,1.8-2.4,2.7c-0.5,0.6-1,1.3-1.5,2c-0.1,0-0.1-0.1-0.2-0.1
				c0.3-0.6,0.5-1.2,0.8-1.8h-0.1c-0.1,0.2-0.3,0.4-0.5,0.7c0-1,0.1-1.9,0-2.8c-0.1-1.6,0.5-3.1,0.2-4.6c-0.1-0.7,0-1.5,0.1-2.2
				c0-0.7,0-1.4,0-2c-0.9,9.6-1,19.2-1.1,28.8c-0.5-0.6-0.9-1.2-1.4-1.7c0.3,0.6,0.6,1.2,1,1.7c0.5,0.6,0.6,1.1,0.4,1.9
				c-0.2-0.1-0.3-0.2-0.4-0.3c0.1,0.5,0.4,1,0.4,1.6c0,3.3,0,6.5,0,9.8c0,1.9,0,3.8,0,5.9c-0.4-0.8-0.8-1.4-1.1-2
				c0.2,1.2,1.3,2.1,1.2,3.6c-0.4-0.6-0.8-1.1-1.1-1.6c-0.5-0.9-0.9-1.7-1.4-2.6c-0.1,0-0.1,0.1-0.2,0.1c0.5,0.8,1,1.7,1.5,2.5
				c0.3,0.6,0.7,1.2,1,1.9c0.5,0.8,0.4,1.6-0.8,1.6c-0.3,0-0.7,0-1,0c-3.2-0.4-6.3-0.8-9.5-1.1c-1.3-0.1-2.6-0.2-4-0.3v0.1
				c5.2,0.6,10.4,1.2,15.8,1.8c-0.2,0.1-0.5,0.4-0.7,0.4c-1.1,0-2.2,0-3.3-0.1c-3.9-0.3-7.9-0.8-11.8-0.9c-6.6-0.1-13.2,0-19.8,0.1
				c-1,0-2,0-3,0c-0.2-0.8,0.1-1,0.7-1c3.8-0.1,7.6-0.2,11.4-0.3c0.8,0,1.6,0,2.3,0v-0.1c-4.8,0-9.7,0-14.7,0c0.6-1,1.1-2,1.6-2.9
				c0,0-0.1,0-0.1-0.1c-0.4,0.6-0.8,1.3-1.2,1.9c-0.5-1.5,0.8-2.3,1.1-3.4c-0.3,0.5-0.7,1-1,1.4c-0.1-0.3-0.1-0.5-0.1-0.7
				c0-5.1,0-10.2,0-15.4c0-1.3,0-2.6,0.6-3.8c0-0.1,0-0.2,0-0.3h-0.1c-0.1,0.3-0.3,0.6-0.4,0.9c0.1-8.7-0.2-17.4-0.7-25.7
				c0,2.7,0,5.8,0,8.9c-0.1-0.3-0.2-0.5-0.3-0.7c0.2,1.1,0.7,2.2,0.4,3.4c-0.3-0.6-0.6-1-0.8-1.5h-0.1c0.4,0.9,0.7,1.7,1.2,2.8
				c-2.5-3.3-4.8-6.3-7-9.3c0.5-0.8,1-1.5,1.5-2.2c0.4-0.7,0.7-1.6,1.1-2.3c0.8-1.2,1.5-2.5,2.5-3.4c2.3-2,5.3-2.8,8.1-4.1
				c0.2,0.7,0.4,1.2,0.6,1.8c1.4,3.8,3.3,7.2,6.9,9.3c3.9,2.2,9.4,1.9,12.9-1.9c2-2.2,3.2-4.9,4.1-7.7c0.2-0.8,0.4-1.5,0.6-2.3
				c0.7,0.2,1.4,0.5,2,0.7c2.3,0.8,4.5,1.7,6.3,3.2c1.2,1,2.2,2.1,3.2,3.3c1.3,1.6,2.6,3.2,3.9,4.9c-0.6,0.6-1.2,1.1-1.8,1.7
				C210.1,131.4,209.4,132.2,208.8,132.9L208.8,132.9z M188.3,174.2v-0.1c-2.5,0-5,0-7.5,0v0.1C183.3,174.2,185.8,174.2,188.3,174.2
				z"/>
			<path id="XMLID_112_" class="st0" d="M186.7,122.4c0,1.2-0.1,2.4,0,3.6c0,0.5-0.1,0.8-0.6,0.8c-0.5,0.1-1,0.1-1.5,0.1
				c-0.7,0-1-0.4-1-1.1c0.1-1.1,0.1-2.2,0.2-3.5c-3.2-0.3-6.1-1.3-8.8-2.9c0,0.1-0.1,0.1-0.1,0.2c0.7,0.5,1.4,0.9,2.1,1.4
				c0,0,0,0.1-0.1,0.1c-0.5-0.3-1-0.6-1.6-0.9c0,0-0.1,0-0.1,0.1c0.4,0.7,0.7,1.4,1.1,2.1c1.4,2.3,3.3,4.2,6,5.1
				c3.9,1.3,7.7,0,10-3.4c0.9-1.3,1.6-2.7,2.1-4.4C191.9,121.3,189.5,122.2,186.7,122.4z"/>
			<path id="XMLID_111_" class="st0" d="M196.5,116.7c-0.4-0.1-0.7-0.2-1-0.3c-0.4,1.3-0.7,2.6-1.2,3.8c-0.8,2.3-1.9,4.4-3.8,5.9
				c-2.8,2.3-6,2.6-9.3,1.2c-2.4-1-4.1-2.8-5.4-5c-1-1.7-1.7-3.5-2.6-5.3c-0.3,0-0.5,0.2-0.4,0.7c0.4,1,0.7,2.1,1.1,3.1
				c0.1,0.2,0.2,0.4,0.2,0.7c-0.1,0-0.1,0-0.2,0.1c-0.5-1.4-1-2.8-1.5-4.2h-0.1c0,0.1-0.1,0.3,0,0.4c0.9,3.9,2.7,7.3,5.8,9.8
				c3.9,3.2,10.4,3.1,14.1-1.1C194.5,124.1,196.3,119.6,196.5,116.7z"/>
			<path id="XMLID_110_" class="st0" d="M208.8,132.9c-0.7,0.9-1.5,1.9-2.2,2.8c-0.6,0.9-1.1,1.8-1.7,2.7c-0.1,0.1-0.1,0.2-0.1,0.3
				c0,1.5,0,3,0,4.5c0.9-1.1,1.7-2.2,2.6-3.3c1.5-1.8,2.9-3.5,4.4-5.3c0.8-1,1.6-2.1,2.4-3.1c0.5-0.6,0.4-1-0.1-1.5
				c-0.8-0.8-1.3-0.9-2.2-0.1s-1.8,1.7-2.6,2.6C209.1,132.7,208.9,132.8,208.8,132.9L208.8,132.9z"/>
			<path id="XMLID_109_" class="st0" d="M165.4,142.8c0.2-1.7,0-3.3-1-4.8c-1.8-3-3.9-5.7-6.5-8.2c-0.8,0.7-1.6,1.4-2.4,2.1
				C158.9,135.6,162.2,139.2,165.4,142.8z"/>
			<path id="XMLID_108_" class="st0" d="M175,118.3c0.7,0.4,1.4,0.8,2.1,1.2c0,0,0,0.1-0.1,0.1c-0.8-0.4-1.7-0.9-2.5-1.3
				c-0.1,0.1-0.1,0.2-0.2,0.3c1,0.6,1.9,1.2,2.9,1.7c3.9,1.9,8.1,2.5,12.3,1.3c1.7-0.5,3.3-1.3,4.5-2.5c0.2-0.2,0.4-0.4,0.4-0.7
				c0.1-0.2-0.1-0.5-0.1-0.8c-0.3,0-0.6,0-0.8,0.1c-4.8,3.4-10,3.3-15.4,1.5c-0.9-0.3-1.7-0.8-2.6-1.1c-0.2-0.1-0.4-0.1-0.6-0.1
				C175,118.2,175,118.2,175,118.3z"/>
			<path id="XMLID_107_" class="st0" d="M205.7,143c3.5-2.9,6.3-6.3,8.5-10.3c-0.1-0.1-0.1-0.1-0.2-0.2c-2.8,3.4-5.7,6.8-8.5,10.2
				C205.5,142.8,205.6,142.9,205.7,143z"/>
			<path id="XMLID_106_" class="st0" d="M184.1,124.2c0-0.3,0-0.7,0-1c-0.1,0-0.1,0-0.2,0c-0.1,0.9-0.2,1.8-0.2,2.7
				c0,0.2,0.3,0.6,0.5,0.6c0.7,0.1,1.4,0,2.1,0c0-1.5,0-2.8,0-4.1c-0.1,0-0.1,0-0.2,0c-0.1,0.6-0.1,1.1-0.2,1.7c0,0,0,0-0.1,0
				c0-0.6,0-1.1,0-1.7c-0.5,0-1,0-1.5,0C184.4,123.1,184.3,123.7,184.1,124.2C184.2,124.3,184.2,124.2,184.1,124.2z"/>
			<path id="XMLID_105_" class="st0" d="M165.2,143.2c-2.7-3-5.3-6-8-9c-0.1,0.1-0.1,0.1-0.2,0.2c2.5,3.2,5,6.3,7.9,9.1
				C165.1,143.3,165.2,143.3,165.2,143.2z"/>
			<path id="XMLID_104_" class="st0" d="M181.9,111.2c2.4-2,3.6-2,6.5,0.2C187.1,108.9,183.4,108.7,181.9,111.2z"/>
			<path id="XMLID_103_" class="st4" d="M180.8,174.2c2.5,0,5,0,7.5,0v-0.1c-2.5,0-5,0-7.5,0C180.8,174.2,180.8,174.2,180.8,174.2z"
				/>
			<path id="XMLID_102_" class="st4" d="M203.1,172.2c-0.5-0.9-0.9-1.7-1.4-2.6c-0.1,0-0.1,0.1-0.2,0.1
				C202,170.5,202.5,171.4,203.1,172.2C203,172.2,203,172.2,203.1,172.2z"/>
		</g>
		<g id="XMLID_87_">
			<g id="XMLID_88_">
				<path id="XMLID_98_" class="st1" d="M477.7,69.5c5.3-0.6,8.8,3.5,9.7,11.2c4.3,0,8.6,0,13,0c5.1-0.1,9.7,1.4,13.9,4.2
					c11.7,8,12.8,24.6,3.4,34c-5.3,5.2-11.4,7.7-18.7,7.2c-10.1-0.6-19.9-9.1-20.9-19c-0.4-4.2-0.4-8.5-0.4-12.8
					c-0.1-7.5,0-15.1,0-22.6C477.7,71.1,477.7,70.3,477.7,69.5z M487.3,90.3c0,0.3-0.1,0.8-0.1,1.2c0,4.6-0.4,9.2,0.1,13.7
					c0.6,5.3,3.7,9.1,8.8,11.1c5.7,2.2,13-0.1,16.4-5.8c4.6-7.6,0.7-18.5-8.2-20C498.9,89.5,493.2,90.3,487.3,90.3z"/>
				<path id="XMLID_95_" class="st1" d="M323.6,126.2c-8.7,0-17.2,0.6-25.6-0.1c-12.6-1.2-21.9-12-20.7-25c1-10,9.3-18.3,18.8-20
					c10.7-1.9,19.6,3.1,24.7,11.7c1.5,2.5,2.4,5.7,2.6,8.7c0.4,7.5,0.1,15.1,0.1,22.6C323.6,124.7,323.6,125.4,323.6,126.2z
					 M314,116.7c0-4.9,0.2-9.9-0.1-14.8c-0.2-3.4-1.9-6.4-4.5-8.6c-6.4-5.6-16.4-3.9-20.7,3.2c-4.7,7.8-0.6,18.7,8.2,20.2
					C302.4,117.4,308.1,116.7,314,116.7z"/>
				<path id="XMLID_92_" class="st1" d="M574,126.3c-8.7,0-17,0.4-25.3-0.1c-10.2-0.6-18.7-8.7-20.7-18.2c-2.7-12.7,7-25.2,19-26.9
					c7.5-1.1,13.8,0.8,19.4,5.8c5.5,4.9,7.7,11,7.6,18.3c-0.1,6.2,0,12.4,0,18.6C574,124.5,574,125.3,574,126.3z M564.4,116.7
					c0-4.6,0-9.2,0-13.8c0-5.3-3.9-10.4-8.8-12.2c-5.8-2.1-13,0.1-16.4,5.7c-4.7,7.7-0.6,18.7,8.3,20.1
					C552.9,117.4,558.6,116.7,564.4,116.7z"/>
				<path id="XMLID_91_" class="st1" d="M328.1,69.4c3.8,0.2,6.9,1.8,8.3,5.1c1.2,3,1.2,6.5,1.6,9.6c2-0.8,4.3-1.9,6.8-2.5
					c10.7-2.9,21.9,1.9,27.1,11.7c1.6,3,2.5,6.2,2.5,9.6c0,7.7,0,15.5,0,23.2c-3.5,0.5-8.3-2.7-9.1-6.3c-0.3-1.3-0.4-2.6-0.4-3.9
					c-0.2-5,0.3-10.2-0.5-15.1c-1.6-9.5-12.6-14-20.7-8.5c-4.1,2.8-6.1,6.9-6.1,11.9c0,4.4,0,8.7,0,13.1c0,4.9-4.8,9.3-9.4,8.9
					C328.1,107.2,328.1,88.4,328.1,69.4z"/>
				<path id="XMLID_90_" class="st1" d="M415,126.7c-6.8-0.4-13.4-0.3-19.8-1.4c-8.2-1.3-15.3-9.4-16.5-17.6c-0.3-1.6-0.4-3.3-0.4-5
					c0-10.3,0-20.6,0-30.9c0-0.8,0-1.5,0-2.3c4.6-0.6,9.6,4,9.6,9c0,8.5,0,16.9,0,25.4c0,7.1,6.1,13.2,13.1,13.2
					c2.4,0,5-0.1,7.3,0.5C412.5,118.7,414.4,121.8,415,126.7z"/>
				<path id="XMLID_89_" class="st1" d="M276.3,126.7c-6.8-0.4-13.3-0.3-19.7-1.4c-7.8-1.3-15.6-9.4-16.5-17.6
					c-0.3-2.9-0.4-5.9-0.4-8.8c-0.1-6,0-12,0-17.9c4.6-0.6,9.6,4,9.5,9c0,3.6,0.3,7.2-0.1,10.8c-0.9,10.3,6.2,17.5,16.4,16.4
					c1.5-0.2,3.1,0,4.5,0.5C273.8,119,275.8,121.9,276.3,126.7z"/>
			</g>
		</g>
		<g id="XMLID_84_">
			<circle id="XMLID_86_" class="st3" cx="441.3" cy="99.2" r="28.1"/>
			<circle id="XMLID_85_" class="st5" cx="441.3" cy="99.2" r="15.5"/>
		</g>
		<g id="XMLID_69_">
			<path id="XMLID_81_" class="st2" d="M289.3,164c0.3,23.8-26.3,28.6-38.1,27.2c-2.2,0-3.3-2.1-3.3-3.7c0.6-12.6,1-25.7-0.3-37.4
				c-0.3,0.1-1.1,0.5-1.4,0.5c-3.5,1.7-5-3.3-2.1-5c6.8-2.2,14.4-2.7,20.7-2.7C280.3,144.4,289.1,149.3,289.3,164z M252.9,148.9
				c1.4,11.8,1.2,25.3,0.5,37.1c3.9,0.5,9.5-0.1,15-1.8c9.5-3,15.3-11,15.3-19.9c0-11.4-7.2-15.4-19.1-15.9
				C262.4,148.3,256.6,148.4,252.9,148.9z"/>
			<path id="XMLID_78_" class="st2" d="M320.2,148.5c4.6,1.9,9.1,6.6,8.6,13.1c-1,7-8.4,9.7-14.9,9.1c3.5,3.2,11.3,14.5,17.5,14.6
				c3.1,0,2,4.8-0.8,4.8c-9.8,0.3-17.4-14.2-24-18.7c-1-0.4-1.9-0.7-3.1-1c0.1,5.6,0.5,12.3,0.6,17.8c-0.2,2.9-5,2.7-5-0.4
				c-0.7-16.1-1-27.7-0.8-36.4c-0.8,0.2-1.6,0.4-2,0.5c-2.8,0.5-3.3-3.5-1.2-4.4c1.7-0.7,3.7-1.4,7.5-1.5
				C308,145.4,313.7,145.6,320.2,148.5z M303.8,165.3c7.4,2.3,18.4,2.4,19.5-3.6c0.5-3.1-1.2-6.6-4.8-8.2c-4.8-2.1-11-3.1-14.6-2.7
				C303.5,154.6,303.5,159,303.8,165.3z"/>
			<path id="XMLID_77_" class="st2" d="M366.3,148.6c-3.2,9.7-3.9,20.2-5.9,25c3.3,1.4,2.2,4.8-1.9,5c-2.2,5.6-5.9,12.3-12.9,11.8
				c-5.6-0.4-6.9-3.6-7.3-11.4c-0.1-1.6,5.2-1.8,5.2,0.4c0,5.2,1.2,6.3,3.5,6.3c2.5,0,5.1-4.3,6.7-8.8c-3.5-1.8-7.5-4.7-10.2-9.5
				c-2.2-4.4-5.5-13.1-7.1-18.1c-0.4-3.4,3.9-4.6,5-2c1.8,5.4,4.3,12,5.9,15.5c2.3,5.2,5.4,7.6,8.4,9.2c2.8-7.6,3.1-16.9,5.5-24.6
				C361.8,144.5,366.7,146.3,366.3,148.6z"/>
			<path id="XMLID_76_" class="st2" d="M414.6,150.7c2.4,2.7,4.1,5.1,5.1,7.7c1.1,2.3-4,4.2-5.2,2.3c-2.2-4.9-5.4-8.8-9.5-9.5
				c-2.7-0.4-6.5,1.8-8.8,4.4c-3.1,3.9-4.4,9.1-4.4,14.4c0,6.5,2,10,5.4,12.7c1.8,1.4,4.4,2.3,6.9,2.2c4.2-0.1,7.6-3.5,9.7-7.4
				c1.6-1.9,5.9-0.5,4.6,2.7c-3,5.9-8,9.9-14,10c-3.1,0.1-6.5-0.8-8.8-2.2c-5.6-3.4-8.9-8.7-9.3-16.3c-0.4-4.7-0.1-11.4,5-18.7
				c3.4-4.8,10.6-8.2,15.1-7.1C411.1,147.1,412.8,148.6,414.6,150.7z"/>
			<path id="XMLID_75_" class="st2" d="M431.4,185.5c7.5-0.8,17,0.5,18.7,0.3c0,0-0.7-4.2-0.4-5.6c0.4-2.3,4.9-3.5,5-0.1
				c-0.1,1.4,0.2,6.1-0.1,8c-0.4,1.5-2,2.4-3.1,2.4c-1.5,0-16.1-0.8-22.6,0c-2.9,0.2-2.9-2.1-2.8-3.4c0.7-14.8-1.8-20.3-1.5-38.7
				c0-3.6,5.2-3.6,5.2-0.1C429.4,166.6,432.1,171.9,431.4,185.5z"/>
			<path id="XMLID_74_" class="st2" d="M489.2,151.4c-3.5,0-20.7-0.4-23.6-0.2c0.1,1.4,0.4,11,0.5,14.7c6,0.4,16.9,0.2,22.6-0.5
				c3.9-0.3,5.7,2.7,1.7,4.8c-8.5,1.6-19.3,0.8-24.2,0.8c0,0.9,0.3,14,0.5,15.5c7.1,0.3,22.5-1,24.7-1c4.8,0.4,3.7,5.1-1,5.1
				c-3.9,0-6.1,0.1-8,0.3c-4,0.3-6.3,0.7-18.4,0.7c-0.3,0-2.1-0.9-2.2-1.9c-0.8-3.3-0.7-5.6-0.7-9.5c0.1-2.7-0.3-7.6-0.3-8.4
				c-0.2-7.6-0.5-19.4-0.5-20.4l-1.2,0.2c-3.7,0.1-3.5-4.2-0.6-5c1.1-0.1,2.1-0.3,3-0.3c2.9-0.4,21.7-0.3,27.6,0
				C492.9,146.1,492.9,151.1,489.2,151.4z"/>
			<path id="XMLID_71_" class="st2" d="M518.1,147.6c3,8.2,5.9,19.1,8.2,23.4c1.4-0.1,2.6-0.2,4.2-0.3c4.6,0,4.8,4.6-0.3,5.1
				c-0.6,0-1.3,0.1-1.9,0.1c1.6,4.3,2.9,6.7,5.2,11c2.2,6.6-3.7,5.1-5.2,1.2c-2.4-6.1-4.2-8.3-5.6-12.3c-2.9-0.1-13.3,0.3-14.6,0.3
				c-2.6,5-4.1,7.6-5.9,13.5c-0.8,2.7-6.5,2.5-4.6-2.5c0.8-3.1,3-7.6,4.5-11c-4.9-0.3-4.8-4.4-1-4.4h2.9c2.8-6.4,5.5-17.3,8.4-23.7
				C514.1,144.2,517.2,144.4,518.1,147.6z M515.5,155c-1.9,5.2-3.9,12.7-5.4,16.1c1,0,8.8-0.3,10.5-0.2
				C518.7,167.2,517.7,161.7,515.5,155z"/>
			<path id="XMLID_70_" class="st2" d="M554.1,164.2c3.1,5.3,9.7,13.4,12.4,16.9c-0.1-2.8-0.7-6.7-1-9.3l-1-23.5
				c-0.3-3.7,5-2.9,5.2,0.5c0.7,14.6,0.9,21,1,22.7c0.3,3.7,0.1,12.7,0.4,16.3c-0.1,2.6-2.7,3.5-4.3,2c-4-5.2-10.5-13.4-15.8-21.3
				c-1.2-1.7-4.2-7.1-8.2-13c0,11,1.3,21,0.3,33.1c-1.2,3.3-5.4,1.4-5.2-1c1.4-16.6-0.7-24.4,0.3-40c0.1-2.2,2.6-2.5,4.2-1.2
				C546.3,151.1,552.2,161.6,554.1,164.2z"/>
		</g>
	</g>
</g>
</svg>
