<?xml version="1.0" encoding="utf-8"?>
<!-- Generator: Adobe Illustrator 21.0.0, SVG Export Plug-In . SVG Version: 6.00 Build 0)  -->
<svg version="1.1" id="Layer_1" xmlns="http://www.w3.org/2000/svg" xmlns:xlink="http://www.w3.org/1999/xlink" x="0px" y="0px"
	 viewBox="0 0 254.7 254.2" style="enable-background:new 0 0 254.7 254.2;" xml:space="preserve">
<style type="text/css">
	.st0{fill:#b2b3b4;}
</style>
<g>
	<path class="st0" d="M188.4,143.2c41.8,25.3,64.4,61.8,66.3,111c-14.4,0-28.4,0-42.5,0c-0.9-28.9-12.5-52.5-36.3-69.4
		c-16-11.4-34-16.2-53.5-15.1c-45.5,2.6-79.8,39.8-79.9,84.4c-14,0-28,0-42.5,0c1.8-49.1,24.4-85.6,66.3-110.9
		C47.8,123,39.6,99.3,43.7,71.9C46.9,50.7,57,33.2,73.5,19.6c32.6-27.1,79.8-26,111,2.7c17.4,16,26.8,36,27.6,59.6
		C212.9,105.6,204.4,125.9,188.4,143.2z M169.8,84.7c0-23.6-18.7-42.3-42.2-42.3C103.7,42.4,85,61,85,84.8
		c0,23.6,18.8,42.4,42.4,42.4C151,127.1,169.8,108.3,169.8,84.7z"/>
</g>
</svg>
