<?xml version="1.0" encoding="utf-8"?>
<!-- Generator: Adobe Illustrator 21.0.0, SVG Export Plug-In . SVG Version: 6.00 Build 0)  -->
<svg version="1.1" id="Layer_1" xmlns="http://www.w3.org/2000/svg" xmlns:xlink="http://www.w3.org/1999/xlink" x="0px" y="0px"
	 viewBox="0 0 255.4 208" style="enable-background:new 0 0 255.4 208;" xml:space="preserve">
<style type="text/css">
	.st0{fill:#DA5826;}
	.st1{fill:#FFFFFF;}
	.st2{fill:none;}
	.st3{fill:#356732;}
	.st4{fill:#DA5826;stroke:#FFFFFF;stroke-width:3;stroke-miterlimit:10;}
	.st5{fill:#DA5926;}
	.st6{fill:#6A0809;}
	.st7{fill:#72BF44;}
	.st8{fill:#00A447;}
	.st9{fill:#ED1C24;}
	.st10{fill:#CE181E;}
	.st11{fill:#D01B21;}
	.st12{fill:#A8171C;}
	.st13{fill:#00803D;}
	.st14{opacity:0.5;fill:#00803D;enable-background:new    ;}
	.st15{fill:#00A650;}
	.st16{fill:#DA1E21;}
	.st17{fill:#B82025;}
	.st18{fill:#BC2026;}
	.st19{fill:#9C1D20;}
	.st20{fill:#DF2329;}
	.st21{fill:#B86313;}
	.st22{fill:#CC7917;}
	.st23{fill:#9E4727;}
	.st24{opacity:0.5;fill:#CC7917;enable-background:new    ;}
	.st25{opacity:0.5;}
	.st26{opacity:0.3;}
	.st27{opacity:0.1;fill:#FFFFFF;enable-background:new    ;}
</style>
<g>
	<g>
		<g>
			<g>
				<path class="st0" d="M255.4,179.1c-0.1,0-0.2,0.1-0.3,0.1c-0.5-1.3-0.9-2.7-1.4-4c-0.1-0.4-0.2-0.7-0.4-1.1
					c-1.4-3.6-3.1-7-4.2-10.7c-1.2-4-3.1-7.8-4.4-11.8c-2.6-8.2-6.4-16-9.7-23.9c-1.4-3.1-3.2-6.1-4.8-9.1c-0.7-1.5-1.6-2.9-2.5-4.3
					c-0.1-0.1-0.1-0.2-0.2-0.3c-0.1-0.2-0.2-0.3-0.3-0.5s-0.2-0.4-0.4-0.6c-0.2-0.3-0.4-0.6-0.6-0.8c-0.5-0.7-0.9-1.3-1.5-2
					c-0.1-0.1-0.2-0.2-0.2-0.3c-0.7-1-1.3-2.2-2.1-3.1c-1.3-1.5-2.7-3-4-4.5c-0.8-0.9-1.8-1.9-2.7-2.7c-0.7-0.7-1.3-1.2-2.1-1.8
					c-0.1,0-0.1,0.1-0.2,0.1c0,0.6-0.1,1.1,0,1.8c0,0.6,0,1.2,0.2,1.8c0.3,1.4,0.7,2.8,1,4.2c0.2,0.6,0.5,1,0.7,1.6
					c0.2,0.5,0.7,1.5,1.4,2.6c0.4,0.7,0.9,1.5,1.4,2.2c0.9,1.5,1.9,2.8,2.4,3.3l-2.6-1.6c-0.8-0.7-1.6-1.4-2.4-2.2
					c-1.6-1.5-3.7-4.6-4.8-6.8c-0.2-0.4-0.3-0.7-0.4-1c-0.2-0.6-0.3-1.1-0.4-1.7c-0.1-0.7-0.1-1.4-0.2-2.1c-0.1-0.9-0.3-1.9-0.4-2.8
					c-0.1-0.8-0.2-1.6-0.3-2.4c-0.1-1.1-0.2-2.2-0.3-3.3c-0.1-1.6,0.2-3.2,1.7-4.6c0.9-0.9,1.9-1.8,2.9-2.6c0.9-0.7,2-1.3,3-1.9
					c0.7-0.5,1.5-1,2.3-1.4c2.1-0.8,4-0.8,5.9-0.1c1.2,0.6,2.5,0.9,3.7,1.4c2.6,1,5.2,2,7.9,3c1.8,0.7,3.5,1.5,5.2,2.3
					c1.1,0.7,2.1,1.5,3.1,2.2c1.8,1.4,2.8,3.3,3.4,5.3c0.3,1.1,0.4,2.3,0.5,3.6c0.1,0.7,0.1,1.3,0.1,2s0.1,1.4,0.1,2.2
					c0,1.3-0.2,2.5-0.3,3.9c-0.6-0.2-0.9-0.4-1-1c-0.2-1.4-0.7-2.6-0.7-4c-0.1-1.7-0.8-3.1-1.5-4.5c-0.6-1-1.4-2.1-2.2-2.9
					s-1.8-1.7-2.8-2.2c-1.3-0.8-2.8-1.6-4.3-2.2c-3.1-1.2-6.2-2.2-9.3-3.4c-0.3-0.1-0.7-0.2-1-0.3c-0.1,0.8-0.2,1.7-0.3,2.4
					c-0.2,1.4-0.4,2.8-0.4,4.3c-0.1,1.2-0.1,2.4,0,3.7c0,0.6,0,1.1,0.2,1.5c0.7,1.4,1.9,2.4,3.4,3.2c3.1,1.5,6.7,2.1,9.9,3.3l0,0
					c0.1,0.1,0.3,0.1,0.4,0.2c0.4,0.1,0.7,0.3,1,0.4s0.7,0.3,0.9,0.4c1.5,0.7,2.9,1.4,4.1,2.3c2.2,1.9,4.1,4,4.9,6.8
					c0.4,1.3,0.7,2.6,1,3.9c0.2,0.8,0.2,1.8,0.2,2.6c0.1,0.8,0.1,1.7,0.2,2.4c0,0.7,0.1,1.5,0.1,2.2c0,0.8,0.1,1.8,0.1,2.6
					c0,0.7,0,1.5,0,2.2s0,1.4,0,2.1c0,0.8,0,1.8,0,2.6c0,0.6,0,1,0,1.6c0.1,1.8,0.2,3.5,0.2,5.2c0,1.3,0,2.5,0,3.8
					c0,0.7,0.1,1.5,0.2,2.2c0,0.7,0.1,1.3,0.1,2c0,0.9,0.1,2,0.1,2.9c0,0.8,0,1.7,0,2.4c0,0.7,0.1,1.4,0.2,2.2
					c0.1,0.9,0.3,1.8,0.4,2.7c0.1,0.7,0.1,1.5,0.2,2.2c0.2,1.3,0.4,2.6,0.6,3.9c0.1,1,0.3,2.1,0.4,3.1c0,0.1,0,0.2,0,0.3
					c0.3,1.3,0.7,2.7,0.9,4c0.1,0.6,0.1,1.1,0.2,1.7c0.1,0.4,0.3,0.8,0.4,1.2C255,178.1,255.2,178.6,255.4,179.1z"/>
			</g>
			<circle class="st0" cx="207.2" cy="71.4" r="12.5"/>
			<path class="st1" d="M232.1,111.2c0.5-0.2,1-0.4,1.5-0.6c0.4-0.2,0.6-0.5,0.9-0.7c0.3-0.2,0.5-0.4,0.7-0.6
				c0.1-0.1,0.3-0.1,0.4-0.2c0.4-0.3,0.8-0.6,1.2-0.8c0.2-0.2,0.6-0.2,0.4-0.7c0-0.1,0.1-0.1,0.1-0.2c0.2-0.3,0.3-0.7,0.5-0.9
				c0.1,0,0.2,0.1,0.3,0.2c-0.1,0.4-0.2,0.7-0.3,1.2c0.7-0.1,1.3-0.3,1.4,0.6c0.5-0.1,0.9-0.3,1.3-0.3c0.7,0,0.5,0.7,0.7,0.9
				c0.5,0,0.8,0,1.2,0.1c0.5,0.2,0.3,0.7,0.2,1.1c0.5,0.1,1-0.2,1.4,0.3c0.5,0.5,0,0.9,0.1,1.4c0.2,0,0.3,0,0.4,0
				c0.7-0.1,0.9,0,0.9,0.7c0,0.3,0,0.7,0,0.9c1.2,0.5,1.4,0.9,0.8,2c0.1,0,0.2,0,0.3,0c0.4-0.1,0.7,0.1,0.8,0.4
				c0.2,0.3,0.1,0.6-0.1,0.8c-0.3,0.3-0.6,0.5-0.8,0.7c0.3,0.2,0.6,0.3,0.7,0.5c0.6,0.5,0.6,1.1,0,1.6c-0.3,0.2-0.6,0.4-0.8,0.6
				c0.3,0.5,1,0.7,0.7,1.5c-0.3,0.6-0.7,0.8-1.5,0.7c0.1,0.1,0.1,0.2,0.1,0.3c0.6,0.5,0.7,0.8,0.1,1.3c-0.6,0.5-1.3,0.7-2.1,0.3
				c0.1,0.7,0.1,1.2-0.7,1.5c-0.6,0.2-1.1,0.4-1.5-0.1c-0.4,0.4-0.7,0.9-1,1c-0.6,0.3-0.7-0.6-1.1-0.8c-0.3,0.5-0.5,0.9-1.1,0.7
				c-0.6-0.2-0.6-0.7-0.6-1.2c-0.3,0.3-0.4,0.5-0.6,0.6c-0.3,0.1-0.7,0.2-0.9,0.1c-0.3-0.1-0.5-0.8-0.3-1.2c0.1-0.2,0.2-0.4,0.3-0.6
				l-0.1-0.1c-0.2,0.1-0.4,0.1-0.5,0.2c-0.4,0.2-0.6,0.1-0.7-0.3c-0.2-0.4-0.2-0.8-0.4-1.3c-0.4,0.3-0.8,0.5-1.2-0.1
				c-0.4-0.5-0.4-0.9-0.1-1.5c-0.5,0.1-0.9,0.4-1.2-0.1c-0.3-0.6-0.1-1.1,0.2-1.7c-0.2,0-0.4,0.1-0.6,0.1c-0.3,0-0.6,0.1-0.7,0
				c-0.2-0.1-0.3-0.5-0.2-0.7c0.2-0.5,0.4-0.8,0.7-1.2c-0.4,0-0.8-0.3-0.8-0.8c-0.1-0.7,0.3-0.9,0.9-1.1c-0.5-0.2-0.8-0.2-0.9-0.7
				c-0.1-0.5,0.2-0.8,0.6-1c-0.1-0.3-0.3-0.6-0.3-0.8c0-0.3,0.2-0.5,0.4-0.7c-0.1-0.1-0.3-0.2-0.6-0.3v-0.1c0.2,0,0.4-0.1,0.5-0.1
				C231.5,111.6,231.7,111.4,232.1,111.2L232.1,111.2z"/>
			<g>
				<path d="M242.1,117.9c-2.9-0.1-5.3-1.4-7.5-3.3c1.2,0.7,2.3,1.5,3.6,2.1C239.5,117.1,240.8,117.5,242.1,117.9z"/>
				<path d="M243.6,120.3c-1.5-0.6-3-1.1-4.6-1.8c0-0.1,0.1-0.2,0.1-0.3c1.5,0.6,3,1.1,4.6,1.7C243.6,120.1,243.6,120.2,243.6,120.3
					z"/>
			</g>
			<path class="st2" d="M199.4,68.7c0.1,0,0.1,0,0.2,0"/>
			<path class="st3" d="M199.3,69"/>
			<path class="st3" d="M198,72.9c-0.4,1.5-0.5,3.1-0.4,4.6c0,0.1,0,0.3-0.1,0.5c-0.3-1-0.5-2.1-0.7-3.2c-0.4,0.2-0.8,0.4-1.3,0.6
				c-0.2-0.7-0.5-1.3-0.7-2c-0.9-4.5,0.1-8.4,3.3-11.8c1.1-1.2,2.5-2.2,4-2.7c0.4-0.1,0.5-0.3,0.5-0.7c0.1-1.4,0.5-2.6,1.3-3.7
				c1.7-2.2,4.5-2.2,6.2,0c0.8,1,1.2,2.2,1.4,3.6c0,0.5,0.2,0.7,0.7,0.8c4.8,2.2,7.3,6,7.6,11.2c0.1,1.7-0.2,3.3-0.8,4.8
				c-0.4-0.1-0.7-0.2-1.1-0.3c-0.2,1-0.4,2.1-0.6,3.1c-0.1,0-0.2,0-0.2,0c0-0.4-0.1-0.8-0.1-1.2c-0.1-2-0.2-3.8-0.7-5.7
				c-0.3-0.8-0.7-1.6-1.1-2.4c-0.1-0.1-0.2-0.2-0.3-0.4c0.2,1.2,0.5,2.4,0.7,3.7c-2.1-0.5-4-1.1-5.5-2.6l-0.1,0.1
				c0.4,0.7,0.7,1.5,1.1,2.3c-1.4,0.1-2.7-0.1-3.9-0.7s-2.1-1.7-2.5-3.1c-0.2,1.1,0.1,2.2,0.5,3.2c-1.4-0.5-3.1-1.8-3.7-2.9
				c0.1-0.1,0.1-0.3,0.2-0.5c-0.2,0-0.4,0.1-0.5,0.1s-0.4-0.1-0.4-0.2c-0.1-0.2-0.1-0.4,0-0.5s0.4-0.1,0.5,0
				c0.2,0.1,0.4,0.3,0.7,0.4c-0.2-0.5-0.5-0.7-0.9-0.8c-0.2,0-0.5,0.2-0.7,0.4c-0.2,0.4,0,0.7,0.4,0.9L198,72.9z"/>
			<path class="st3" d="M198.9,68.2c-0.3,0.4-0.1,0.7,0.6,1.1c-0.2,0.4-0.5,0.7-0.7,1c0-0.1-0.1-0.3-0.1-0.4c-0.2-0.3-0.4-0.7-0.6-1
				c-0.3,0.1-0.3,0.5-0.1,0.7L198.9,68.2z"/>
			<path class="st1" d="M240.4,105.9c-0.3,0.7-0.7,1.2-1.1,1.8c-0.7,1-1.6,2-2.6,2.8c-1.6,1.4-3.5,2.2-5.4,2.8c-0.1,0-0.1,0-0.2,0
				c-1.1,0.3-2.3,0.6-3.6,0.7c-0.1-0.2-0.2-0.3-0.3-0.5s-0.2-0.4-0.4-0.6c-0.2-0.3-0.4-0.6-0.6-0.8c2.4-0.2,4.7-1,6.8-2.2
				c1.9-1.1,3.7-2.6,5.1-4.3c0.1-0.2,0.2-0.3,0.4-0.5c0.4,0.1,0.7,0.3,1,0.4C239.8,105.6,240.1,105.7,240.4,105.9z"/>
		</g>
	</g>
</g>
<g>
	<g>
		<path class="st3" d="M484.5,81.1c4.8-0.5,8.1,3.2,8.8,10.2c3.9,0,7.9,0,11.8,0c4.6-0.1,8.8,1.2,12.6,3.8
			c10.7,7.3,11.6,22.4,3.1,30.9c-4.8,4.7-10.3,6.9-17,6.6c-9.2-0.6-18-8.2-18.9-17.2c-0.4-3.8-0.4-7.8-0.4-11.6
			c-0.1-6.8,0-13.7,0-20.5C484.5,82.4,484.5,81.7,484.5,81.1z M493.4,99.9c0,0.3-0.1,0.7-0.1,1.1c0,4.1-0.4,8.3,0.1,12.5
			c0.6,4.8,3.4,8.2,8,10c5.2,2,11.8-0.1,14.9-5.2c4.1-6.9,0.6-16.8-7.5-18.2C503.8,99.1,498.7,99.9,493.4,99.9z"/>
		<path class="st3" d="M344.6,132.5c-8,0-15.6,0.6-23.2-0.1c-11.4-1-20-11-18.7-22.7c0.9-9.1,8.5-16.6,17.1-18.2
			c9.7-1.7,17.8,2.8,22.5,10.6c1.4,2.3,2.2,5.2,2.3,7.9c0.3,6.8,0.1,13.7,0.1,20.5C344.6,131.2,344.6,131.7,344.6,132.5z
			 M335.9,123.9c0-4.4,0.2-9-0.1-13.5c-0.2-3.1-1.8-5.8-4.1-7.9c-5.8-5.2-14.9-3.6-18.8,2.9c-4.3,7-0.6,17.1,7.5,18.3
			C325.4,124.5,330.6,123.9,335.9,123.9z"/>
		<path class="st3" d="M572,132.5c-7.9,0-15.5,0.4-23-0.1c-9.3-0.6-17-7.9-18.8-16.5c-2.4-11.6,6.3-22.9,17.2-24.4
			c6.7-0.9,12.6,0.7,17.6,5.2c5,4.4,7,10,6.8,16.6c-0.1,5.6,0,11.2,0,16.9C572,130.9,572,131.7,572,132.5z M563.3,123.9
			c0-4.1,0-8.3,0-12.6c0-4.8-3.6-9.5-8.1-11.1c-5.2-1.9-11.8,0.1-14.9,5.2c-4.3,7-0.6,17,7.5,18.3
			C552.9,124.5,558,123.9,563.3,123.9z"/>
		<path class="st3" d="M348.7,80.9c3.5,0.1,6.3,1.7,7.5,4.6c1.1,2.7,1,5.9,1.5,8.7c1.9-0.7,3.9-1.7,6.2-2.3
			c9.7-2.6,19.9,1.8,24.6,10.7c1.4,2.7,2.2,5.6,2.2,8.7c0,7,0,14.1,0,21.1c-3.2,0.5-7.5-2.5-8.2-5.7c-0.3-1.1-0.4-2.3-0.4-3.6
			c-0.2-4.6,0.3-9.3-0.5-13.7c-1.4-8.6-11.5-12.7-18.7-7.7c-3.7,2.5-5.5,6.3-5.5,10.8c0,3.9,0,8,0,11.9c0,4.5-4.4,8.4-8.5,8.1
			C348.7,115.3,348.7,98.1,348.7,80.9z"/>
		<path class="st3" d="M427.7,132.9c-6.2-0.4-12.2-0.3-17.9-1.2c-7.4-1.2-13.9-8.5-15-15.9c-0.2-1.5-0.4-3-0.4-4.5
			c0-9.4,0-18.6,0-28c0-0.7,0-1.4,0-2.1c4.2-0.6,8.7,3.7,8.7,8.2c0,7.7,0,15.4,0,23c0,6.4,5.5,12,11.9,12c2.2,0,4.5-0.1,6.7,0.5
			C425.3,125.7,427.1,128.5,427.7,132.9z"/>
		<path class="st3" d="M301.6,132.9c-6.2-0.4-12.1-0.3-17.9-1.2c-7.1-1.1-14.1-8.5-15-15.9c-0.3-2.6-0.4-5.3-0.4-8
			c-0.1-5.4,0-10.9,0-16.3c4.2-0.6,8.7,3.7,8.7,8.2c0,3.3,0.3,6.6-0.1,9.7c-0.8,9.4,5.6,15.8,14.9,14.9c1.3-0.1,2.8,0,4.1,0.5
			C299.4,125.9,301.2,128.6,301.6,132.9z"/>
	</g>
</g>
<g>
	<circle class="st0" cx="451.6" cy="107.9" r="25.5"/>
	<circle class="st4" cx="451.6" cy="107.9" r="14.1"/>
</g>
<g>
	<path class="st5" d="M287.8,153.2c0.2,1.2-0.5,2.2-1.3,2.2c-1.3,0-1.3-0.8-2.1-1.9c-0.8,0-9.2,0.2-10.4,0.2c0,0,0.7,8.4,0.7,8.7
		c3,0,7.8,0.7,10.4,0c2.4-0.4,2.5,2.1,0.7,2.6c-3.5,0.7-8.8,0.2-11.2,0.2c0,2.1-0.1,7.5-0.1,8.6c-0.2,2-2.6,1.2-2.6-0.2
		c0-0.9-0.1-9.6-0.2-11.3c0-0.8-0.3-7.7-0.2-8.3l-0.9,0.1c-1.8,0.2-2.2-1.6-0.7-2.3c0.4-0.2,1.3-0.4,2.2-0.4
		C275.3,151.5,287.4,150.1,287.8,153.2z"/>
	<path class="st5" d="M303.6,152.8c2.5,1,4.9,3.6,4.7,7c-0.5,3.7-4.5,5.2-8,4.9c1.9,1.7,6.1,7.8,9.4,7.8c1.7,0,1.1,2.5-0.5,2.5
		c-5.2,0.2-9.3-7.7-12.8-10c-0.5-0.2-1-0.4-1.7-0.5c0.1,3,0.3,6.6,0.4,9.6c-0.1,1.6-2.7,1.4-2.7-0.2c-0.4-8.6-0.6-14.9-0.5-19.6
		c-0.5,0.1-0.8,0.2-1.1,0.3c-1.5,0.3-1.8-1.9-0.7-2.3c0.9-0.4,2-0.7,4-0.8C297.1,151.1,300.1,151.2,303.6,152.8z M294.8,161.8
		c4,1.2,9.8,1.3,10.5-2c0.3-1.7-0.7-3.6-2.6-4.4c-2.6-1.1-5.9-1.7-7.8-1.5C294.6,156,294.6,158.4,294.8,161.8z"/>
	<path class="st5" d="M330.5,152.2c-0.1,4.5,0.8,13-0.7,17.1c-1.3,3-3.9,6.1-7.5,6.1c-2,0-4.3-0.8-5.6-2.2c-2.2-2-3.4-3.9-3.4-8.4
		c0-4.2,0-8.2,0-12.3c0.2-1.2,2.9-1.5,2.8-0.2v11.8c0,2.6,0.2,4.9,1.8,6.4c1.5,1.5,3.1,2,4.5,2c2.3,0,4.1-2.2,4.9-4.7
		c0.5-1.7,0.6-4,0.6-6.7c0-4.7-0.3-8.2-0.4-9C327.6,150.8,330.6,151.2,330.5,152.2z"/>
	<path class="st5" d="M345.6,153.2c0,1.5-1.6,1.9-2.4,0.7c-0.5-0.7-1.5-0.4-2.7-0.4c0,5.1,0,7.9,0.2,10.4c0.2,2.8,0.2,4.6,0.2,8.5
		c1.3,0.1,3.2,0.2,4.5,0c1.3-0.1,1.1,2.4-0.3,2.6c-2,0.3-5.6-0.2-10.7,0c-1,0.1-0.8-2.6,0.1-2.6c1.1-0.1,2.5,0,3.4,0
		c0.1-1.4,0-5.2-0.2-8.4c-0.1-2.4-0.2-5.2-0.3-10.2c-0.8,0-1,0-3.6,0.2c-1.5,0-0.8-2.5,0.1-2.5c5.1-0.2,2.2-0.3,9.1-0.3
		C344.5,151.1,345.6,151.8,345.6,153.2z"/>
	<path class="st5" d="M365.5,151.3c1.7,0,0.8,2.6-0.4,2.7c-1.9-0.1-6.4-0.1-6.9,0c0.5,4.6,0.2,16.3-0.1,20c-0.2,1.9-2.8,1.6-2.8,0.2
		c0-3.1,1.2-15.6,0.1-20.1c-1.4,0-5.8,0-7.2,0c-1.3-0.1-0.7-2.6,0.5-2.7C350.8,151.3,363.3,151.3,365.5,151.3z"/>
	<path class="st5" d="M375.7,162.3c1.4,2.2,3.7,5.3,5.5,7.4c0.7-1,1.4-2.5,1.5-4.2c0.1-1,2.6-0.1,2.5,0.8c-0.2,2.2-1,4.1-2,5.4
		c0.5,0.6,1,0.8,1.5,1.2c1.7,1.2,0.9,3.6-1.3,2.3c-0.6-0.4-1.5-1-2.2-1.8c-1.8,1.1-4,1.7-5.7,1.7c-3,0-5.1-1.2-6.4-4
		c-1.3-3.2,0.2-6.8,3.3-9.5c-2.8-5-2.1-11,3.6-10.9C382.7,151,381.1,158,375.7,162.3z M371.7,169.8c0.5,1.6,1.5,2.5,3.3,2.5
		c1.3,0,2.7,0,4.3-0.7c-2.4-2.7-3.7-4.9-5.2-7.3C371.7,166.3,371.5,168.1,371.7,169.8z M374.5,160c2.8-2.5,4.5-6.4,1.4-6.4
		C373,153.8,373.1,157.5,374.5,160z"/>
	<path class="st5" d="M401,162.9c-1.5,3.1-3.1,6.3-4.1,10.3c-0.5,2.8-2.2,2.4-3.1-0.2c-2.9-8.1-5.3-14.5-6.7-20.1
		c-0.2-1.3,2.3-2.1,2.7-0.7c1.1,4.6,3.5,11.6,5.5,17.8c0.9-3.5,2.4-7.4,3.5-9.4c1.3-2.4,3.3-6.5,3.6-8.4c0.3-1.5,3.1-1,2.7,0.7
		C404.4,156.1,402.6,159.7,401,162.9z"/>
	<path class="st5" d="M423.8,154.3c-1.9,0-11.2-0.2-12.6-0.1c0,0.7,0.2,5.9,0.3,7.9c3.2,0.2,9.1,0.1,12.2-0.3
		c2.2-0.2,3.1,1.4,0.9,2.5c-4.6,0.8-10.3,0.5-13,0.5c0,0.5,0.2,7.5,0.3,8.3c3.8,0.2,12.1-0.6,13.3-0.6c2.6,0.2,2,2.7-0.6,2.7
		c-2.1,0-3.3,0.1-4.3,0.2c-2.2,0.2-3.4,0.4-9.8,0.4c-0.2,0-1.1-0.5-1.1-1c-0.5-1.8-0.4-3-0.4-5.1c0-1.5-0.2-4.1-0.2-4.5
		c-0.1-4-0.3-10.4-0.3-11l-0.7,0.1c-2,0.1-1.9-2.2-0.4-2.7c0.6-0.1,1.1-0.2,1.6-0.2c1.6-0.2,11.6-0.2,14.8,0
		C425.8,151.5,425.8,154.2,423.8,154.3z"/>
	<path class="st5" d="M447.1,157.2c0,0.8-2.4,1.7-2.6,0.2c-0.7-3.3-5.5-3.5-7.2-3.3c-2.1,0.1-3.5,1.3-4.4,2.5c-2.2,2.8-2,6-1.6,8.9
		c0.9,7.1,5.8,8.6,11,6.4c1.3-0.7,2.6-2,2.6-4c0-0.5,0.1-2.8,0.1-3.3c-1.4,0-4.8,0-5.4,0c-1.4,0-1.7-2.6-0.4-2.6
		c0.9,0,5.4,0,6.7-0.2c0.7-0.1,2,0.4,1.9,1.6c0,1.8,0,2.4,0,3.6c0,3.7-1,6-4.1,7.4c-7.3,3-13.8,0.5-15.1-9c-0.3-3-0.4-7.4,2.5-10.8
		c1.7-1.9,3.7-3.2,6.3-3.3C441.8,151.2,446.9,152.5,447.1,157.2z"/>
	<path class="st5" d="M467,154.3c-1.9,0-11.2-0.2-12.6-0.1c0,0.7,0.2,5.9,0.3,7.9c3.2,0.2,9.1,0.1,12.2-0.3c2.2-0.2,3.1,1.4,0.9,2.5
		c-4.6,0.8-10.3,0.5-13,0.5c0,0.5,0.2,7.5,0.3,8.3c3.8,0.2,12.1-0.6,13.3-0.6c2.6,0.2,2,2.7-0.6,2.7c-2.1,0-3.3,0.1-4.3,0.2
		c-2.2,0.2-3.4,0.4-9.8,0.4c-0.2,0-1.1-0.5-1.1-1c-0.5-1.8-0.4-3-0.4-5.1c0-1.5-0.2-4.1-0.2-4.5c-0.1-4-0.3-10.4-0.3-11l-0.7,0.1
		c-2,0.1-1.9-2.2-0.4-2.7c0.6-0.1,1.1-0.2,1.6-0.2c1.6-0.2,11.6-0.2,14.8,0C469.1,151.5,469,154.2,467,154.3z"/>
	<path class="st5" d="M488.7,151.3c1.7,0,0.8,2.6-0.4,2.7c-1.9-0.1-6.4-0.1-6.9,0c0.5,4.6,0.2,16.3-0.1,20c-0.2,1.9-2.8,1.6-2.8,0.2
		c0-3.1,1.2-15.6,0.1-20.1c-1.4,0-5.8,0-7.2,0c-1.3-0.1-0.7-2.6,0.5-2.7C474.1,151.3,486.5,151.3,488.7,151.3z"/>
	<path class="st5" d="M502.8,152.4c1.6,4.4,3.2,10.3,4.4,12.6c0.7,0,1.4-0.1,2.2-0.2c2.4,0,2.5,2.5-0.2,2.7c-0.4,0-0.7,0-1,0
		c0.8,2.3,1.5,3.7,2.8,5.9c1.2,3.6-2,2.7-2.8,0.7c-1.3-3.3-2.2-4.5-3-6.6c-1.6,0-7.1,0.2-7.8,0.2c-1.4,2.6-2.2,4.1-3.2,7.3
		c-0.5,1.5-3.5,1.3-2.4-1.3c0.5-1.7,1.6-4.1,2.4-5.9c-2.6-0.2-2.6-2.3-0.5-2.3h1.5c1.5-3.5,3-9.3,4.5-12.7
		C500.7,150.5,502.3,150.6,502.8,152.4z M501.5,156.3c-1,2.8-2.2,6.8-2.9,8.6c0.6,0,4.7-0.2,5.6-0.1
		C503.2,162.9,502.6,159.9,501.5,156.3z"/>
	<path class="st5" d="M518.3,152.3c6.8,0,11,0.8,11,5.3c0,1.7-1,3-2.3,3.7c0.5,0.2,1,0.4,1.5,0.6c2.9,1.3,4.4,2.9,4.4,5.8
		c0,4.6-3,6-6.7,6.9c-3,0.8-5.2,0.3-8.4-0.4c-0.3,0.8-0.7,1.8-1.9,1.4c-0.8-0.3-0.9-0.8-0.7-2.1l-0.5-0.2c-2.2-1-1.7-4,0.5-2.8
		c0.3,0.1,0.5,0.3,0.7,0.4c0.4-2.8,0.3-5.2,0.3-8c-3.2-0.8-2.5-2.7-1.2-2.7h1.1c0-1.5-0.1-3.8-0.2-5.2h-0.2c-1.9,0-2.2-2.5-1.3-2.5
		l1.2-0.1c-0.1-1.6,1.4-2.3,2.3-1.1C518.1,151.5,518.3,152,518.3,152.3z M518.3,171.7c2.3,0.6,4.8,0.8,7,0.4
		c2.8-0.7,4.8-1.7,4.8-4.3c0-1.8-1.3-2.8-3-3.7c-2-1-5.7-1.3-8.1-1.1C518.7,166.4,518.1,171.7,518.3,171.7z M518.7,160.2
		c1.1,0,7.7-0.1,7.7-2.5c0-3-6.2-2.9-8-2.8C518.7,156.2,518.7,158.5,518.7,160.2z"/>
	<path class="st5" d="M538.5,172.7c4-0.5,9.2,0.3,10,0.2c0,0-0.4-2.2-0.2-3c0.2-1.2,2.6-1.9,2.6-0.1c-0.1,0.7,0.1,3.3,0,4.3
		c-0.2,0.8-1.1,1.3-1.7,1.3c-0.8,0-8.6-0.5-12.2,0c-1.5,0.1-1.5-1.1-1.5-1.9c0.4-8-0.9-10.9-0.8-20.8c0-2,2.8-2,2.8,0
		C537.5,162.6,538.9,165.4,538.5,172.7z"/>
	<path class="st5" d="M569.5,154.3c-1.9,0-11.2-0.2-12.6-0.1c0,0.7,0.2,5.9,0.3,7.9c3.2,0.2,9.1,0.1,12.2-0.3
		c2.2-0.2,3.1,1.4,0.9,2.5c-4.6,0.8-10.3,0.5-13,0.5c0,0.5,0.2,7.5,0.3,8.3c3.8,0.2,12.1-0.6,13.3-0.6c2.6,0.2,2,2.7-0.6,2.7
		c-2.1,0-3.3,0.1-4.3,0.2c-2.2,0.2-3.4,0.4-9.8,0.4c-0.2,0-1.1-0.5-1.1-1c-0.5-1.8-0.4-3-0.4-5.1c0-1.5-0.2-4.1-0.2-4.5
		c-0.1-4-0.3-10.4-0.3-11l-0.7,0.1c-2,0.1-1.9-2.2-0.4-2.7c0.6-0.1,1.1-0.2,1.6-0.2c1.6-0.2,11.6-0.2,14.8,0
		C571.6,151.5,571.5,154.2,569.5,154.3z"/>
</g>
<image style="overflow:visible;enable-background:new    ;" width="2469" height="2408" xlink:href="99BC52C.jpeg"  transform="matrix(4.895525e-02 0 0 4.925142e-02 5.187 22.0255)">
</image>
<g>
	<g>
		<path class="st6" d="M192.5,123.7c-5.6-1.9-11.5-6.7-12.8-12.7h-52.5v35.8h68v-22.4C194.2,124.3,193.3,124,192.5,123.7z"/>
		<g>
			<g>
				<g>
					<g>
						<path class="st7" d="M190.1,87.4c0-0.1,0-0.4-0.2-0.4c-0.2-0.1-0.4,0.2-0.6,0.3c-0.3,0.2-0.5,0.4-0.7,0.6
							c-0.4,0.3-0.8,0.7-1.2,1c-0.9,0.9-1.7,1.9-2.5,2.9c-0.9,1.2-1.7,2.5-2.2,3.8c-0.5,1.2-1.2,2.7-1.4,4c0,0.1,0,0.2,0,0.2
							c0.1,0.1,0.3,0.2,0.4,0.4c0.1-0.5,0.3-0.8,0.5-1.3c0.2-0.6,0.5-1.1,0.7-1.7c0.7-1.4,1.3-2.8,2.1-4.1c0.2-0.4,0.5-0.7,0.7-1.1
							c0.7-0.9,1.6-1.9,2.5-2.6c0.4-0.3,0.8-0.5,1.4-0.7c0.3-0.1,0.7-0.1,0.9-0.3C190.7,88.2,190.2,87.7,190.1,87.4z"/>
						<path class="st8" d="M190,88c-0.5-0.7-3.3,2.4-3.6,2.6c-2.2,2.3-3,5.2-4.5,7.9c-0.1,0.1-0.2,0.2-0.3,0.1
							c-0.1,0.4-0.2,0.7-0.3,1.1c0,0.1,0,0.2,0,0.2c0.1,0.1,0.3,0.2,0.4,0.4c0.1-0.5,0.3-0.8,0.5-1.3c0.2-0.6,0.5-1.1,0.7-1.7
							c0.7-1.4,1.3-2.8,2.1-4.1c0.2-0.4,0.5-0.7,0.7-1.1c0.7-0.9,1.6-1.9,2.5-2.6c0.4-0.3,0.8-0.5,1.4-0.7c0.3-0.1,0.7-0.1,0.8-0.3
							C190.2,88.4,190.1,88.2,190,88z"/>
					</g>
					<g>
						<path class="st9" d="M190.7,110.1c0.7-2.4,0.6-5.2-0.3-7.4c-0.8-2.1-2.8-3.7-5-4.3c-1.4-0.4-2.7,0.1-3.8,0.9
							c-0.3-0.9-0.7-1.7-1.3-2.5c-1-1.5-2.3-2.2-3.9-2.9c-2.9-1.3-6.7-0.1-9,2.2c-5.6,5.2-4.1,14,0.9,18.4c1.3,1.1,3,2.3,4.7,3
							c2.2,0.9,4.5,1.6,6.9,1.5c2.2-0.1,4.8-0.7,6.6-2.2C188.5,115.1,190,112.4,190.7,110.1z"/>
						<path class="st1" d="M170.6,99.5c0.6-0.5,1.2-0.8,1.9-1.2c1.7-0.8,3.4-1.1,5.2-1.1c0-0.4,0-0.7-0.1-1.1
							c-0.1-0.3-0.1-0.7-0.2-0.9c-2.8-0.6-5.3-0.1-7.4,1.2C169.9,97.4,170.2,98.5,170.6,99.5z"/>
						<path class="st1" d="M168.3,101.4c0.5-0.5,0.9-0.8,1.4-1.3c-0.4-1-0.7-2.2-0.7-3.2c-0.6,0.4-1,0.8-1.5,1.4
							C167.7,99.3,167.9,100.5,168.3,101.4z"/>
						<path class="st10" d="M185.5,98.5c-1.4-0.4-2.7,0.1-3.8,0.9c-0.3-0.9-0.7-1.7-1.3-2.5c-0.7-0.9-1.4-1.5-2.2-2.1
							c0.7,0.7,1.3,1.5,1.5,2.1c0.5,1.2,1.2,2.3,1.1,3.7c0,0,2.5-2.4,5.8-1.7C186.1,98.7,185.8,98.5,185.5,98.5z"/>
						<path class="st10" d="M190.7,110.1c0.5-1.3,0.6-2.7,0.5-4.1c-0.3,1.7-0.8,3.4-1.7,5c-2.4,4.9-8.7,6.2-13.8,5.3
							c-4.7-0.8-9.1-3.7-11.2-8c0.7,2.3,2.1,4.4,3.8,6c1.3,1.1,3,2.3,4.7,3c2.2,0.9,4.5,1.6,6.9,1.5c2.2-0.1,4.8-0.7,6.6-2.2
							C188.5,115.1,190,112.4,190.7,110.1z"/>
					</g>
				</g>
				<g>
					<g>
						<path class="st7" d="M129.5,85.9c-0.1-0.1-0.3-0.3-0.4-0.2c-0.2,0.1-0.2,0.5-0.2,0.6c-0.1,0.3-0.1,0.6-0.2,0.8
							c-0.1,0.5-0.2,1-0.3,1.6c-0.1,1.2-0.1,2.5,0,3.7c0.1,1.5,0.4,3,0.8,4.4c0.5,1.3,0.8,2.9,1.6,3.9c0.1,0.1,0.1,0.2,0.1,0.2
							c0.2,0,0.4,0,0.5,0c-0.2-0.5-0.4-0.8-0.6-1.3c-0.2-0.6-0.4-1.1-0.6-1.7c-0.5-1.5-0.8-3-1.1-4.5c-0.1-0.5-0.1-0.8-0.2-1.3
							c-0.1-1.2,0-2.4,0.2-3.7c0.1-0.5,0.4-0.9,0.7-1.4c0.2-0.2,0.5-0.6,0.5-0.8C130.5,86.1,129.7,86,129.5,85.9z"/>
						<path class="st8" d="M129.8,86.5c-0.8-0.2-0.9,3.9-0.9,4.3c-0.1,3.2,1,5.8,1.7,8.8c0,0.1-0.1,0.3-0.2,0.3
							c0.2,0.4,0.4,0.7,0.6,1c0.1,0.1,0.1,0.2,0.1,0.2c0.2,0,0.4,0,0.5,0c-0.2-0.5-0.4-0.8-0.6-1.3c-0.2-0.6-0.4-1.1-0.6-1.7
							c-0.5-1.5-0.8-3-1.1-4.5c-0.1-0.5-0.1-0.8-0.2-1.3c-0.1-1.2,0-2.4,0.2-3.7c0.1-0.5,0.4-0.9,0.7-1.4c0.1-0.2,0.5-0.6,0.5-0.7
							C130.2,86.6,130,86.6,129.8,86.5z"/>
					</g>
					<g>
						<path class="st9" d="M144.7,102.8c-0.9-2.3-2.9-4.3-5.1-5.4c-2-1-4.6-1-6.6,0c-1.2,0.7-2,1.9-2.3,3.2
							c-0.7-0.5-1.7-0.8-2.6-1.1c-1.8-0.5-3.3-0.2-4.9,0.4c-3.1,0.8-5.1,4.2-5.5,7.5c-0.9,7.6,6,13.3,12.6,13.3
							c1.8,0,3.8-0.2,5.5-0.7c2.2-0.7,4.5-1.7,6.3-3.4c1.6-1.5,3.2-3.7,3.6-6C146.2,107.9,145.6,105.1,144.7,102.8z"/>
						<path class="st1" d="M122.5,107.9c0.2-0.7,0.4-1.4,0.7-2.2c0.7-1.8,1.8-3.1,3.2-4.2c-0.3-0.3-0.6-0.6-0.8-0.8
							c-0.3-0.2-0.5-0.4-0.7-0.6c-2.5,1.4-4.1,3.4-4.9,5.7C120.5,106.6,121.5,107.3,122.5,107.9z"/>
						<path class="st1" d="M122,110.8c0.1-0.7,0.2-1.3,0.3-2c-0.9-0.6-1.9-1.1-2.7-2c-0.2,0.7-0.2,1.3-0.3,2.1
							C120.2,109.6,121.1,110.2,122,110.8z"/>
						<path class="st10" d="M133.1,97.4c-1.2,0.7-2,1.9-2.3,3.2c-0.7-0.5-1.7-0.8-2.6-1.1c-1-0.3-2.1-0.3-3-0.1
							c0.9,0.1,2,0.4,2.4,0.6c1.1,0.6,2.5,1,3.3,2.1c0,0,0.3-3.6,3.3-5.1C133.7,97,133.5,97.2,133.1,97.4z"/>
						<path class="st10" d="M144.7,102.8c-0.6-1.3-1.3-2.4-2.3-3.4c0.9,1.4,1.6,3.2,2,4.9c1.3,5.3-2.6,10.4-6.9,13
							c-4.1,2.4-9.4,3.1-13.8,1.3c2.1,1.3,4.5,2,6.8,2.1c1.8,0,3.8-0.2,5.5-0.7c2.2-0.7,4.5-1.7,6.3-3.4c1.6-1.5,3.2-3.7,3.6-6
							C146.2,107.9,145.6,105.1,144.7,102.8z"/>
					</g>
				</g>
				<g>
					<g>
						<path class="st7" d="M191.4,99.6c-0.1-0.1-0.2-0.3-0.4-0.3s-0.2,0.4-0.3,0.6c-0.1,0.3-0.2,0.6-0.3,0.8c-0.2,0.5-0.4,1-0.5,1.5
							c-0.3,1.2-0.5,2.5-0.6,3.7c-0.1,1.5-0.1,3,0.2,4.5c0.3,1.3,0.4,3,0.9,4.1c0.1,0.1,0.1,0.2,0.1,0.2c0.2,0,0.4,0.1,0.5,0.1
							c-0.1-0.5-0.3-0.9-0.4-1.3c-0.1-0.6-0.2-1.2-0.3-1.8c-0.2-1.5-0.5-3.1-0.5-4.6c0-0.5,0-0.8,0-1.3c0.1-1.2,0.3-2.4,0.7-3.6
							c0.2-0.5,0.5-0.8,0.8-1.2c0.2-0.2,0.6-0.5,0.7-0.7C192.3,99.9,191.6,99.8,191.4,99.6z"/>
						<path class="st8" d="M191.6,100.2c-0.7-0.4-1.5,3.7-1.6,4.1c-0.6,3.1,0.2,5.9,0.4,9c0,0.1-0.1,0.3-0.2,0.3
							c0.1,0.4,0.2,0.7,0.4,1c0.1,0.1,0.1,0.2,0.1,0.2c0.2,0,0.4,0.1,0.5,0.1c-0.1-0.5-0.3-0.9-0.4-1.3c-0.1-0.6-0.2-1.2-0.3-1.8
							c-0.2-1.5-0.5-3.1-0.5-4.6c0-0.5,0-0.8,0-1.3c0.1-1.2,0.3-2.4,0.7-3.6c0.2-0.5,0.5-0.8,0.8-1.2c0.2-0.2,0.6-0.5,0.6-0.7
							C192,100.4,191.7,100.3,191.6,100.2z"/>
					</g>
					<g>
						<path class="st11" d="M203.9,118.5c-0.7-2.4-2.2-4.7-4.2-6.1c-1.8-1.3-4.4-1.7-6.5-0.9c-1.3,0.5-2.2,1.5-2.7,2.8
							c-0.7-0.6-1.5-1.1-2.4-1.4c-1.7-0.7-3.2-0.7-4.9-0.4c-3.2,0.5-5.6,3.5-6.5,6.6c-2.1,7.4,4,14.1,10.6,15c1.8,0.3,3.8,0.4,5.5,0
							c2.3-0.5,4.7-1,6.7-2.4c1.8-1.3,3.7-3.2,4.4-5.3C204.7,123.9,204.6,120.9,203.9,118.5z"/>
						<path class="st12" d="M193.3,111.4c-1.3,0.5-2.2,1.5-2.7,2.8c-0.7-0.6-1.5-1.1-2.4-1.4c-1-0.4-2-0.6-3-0.6
							c0.9,0.2,1.9,0.7,2.3,0.9c1,0.7,2.3,1.3,2.9,2.5c0,0,0.8-3.5,3.9-4.5C194,111.2,193.6,111.3,193.3,111.4z"/>
						<path class="st12" d="M203.9,118.5c-0.4-1.3-0.9-2.6-1.8-3.7c0.7,1.6,1.1,3.4,1.2,5.1c0.6,5.4-4,9.9-8.8,11.9
							c-4.4,1.9-9.7,1.7-13.8-0.7c1.9,1.6,4.1,2.6,6.5,3c1.8,0.3,3.8,0.4,5.5,0c2.3-0.5,4.7-1,6.7-2.4c1.8-1.3,3.7-3.2,4.4-5.3
							C204.7,123.9,204.6,120.9,203.9,118.5z"/>
					</g>
				</g>
				<g>
					<g>
						<path class="st7" d="M159.4,92.2c-0.1-0.1-0.2-0.3-0.3-0.3c-0.2,0-0.3,0.4-0.4,0.6c-0.1,0.3-0.3,0.6-0.4,0.8
							c-0.2,0.5-0.5,1-0.7,1.5c-0.4,1.2-0.7,2.5-0.9,3.8c-0.3,1.5-0.4,3.1-0.3,4.6c0.1,1.4,0.2,3.1,0.7,4.4c0,0.1,0.1,0.2,0.1,0.2
							c0.2,0,0.4,0.1,0.5,0.2c-0.1-0.5-0.2-0.9-0.2-1.4c-0.1-0.7-0.1-1.2-0.2-1.9c-0.1-1.6-0.2-3.2-0.1-4.8c0-0.5,0.1-0.9,0.2-1.4
							c0.2-1.2,0.6-2.5,1-3.6c0.2-0.5,0.6-0.8,0.9-1.2c0.2-0.2,0.7-0.5,0.7-0.7C160.3,92.7,159.6,92.4,159.4,92.2z"/>
						<path class="st8" d="M159.5,92.9c-0.7-0.5-1.9,3.7-2,4.1c-0.8,3.1-0.3,6.1-0.4,9.3c0,0.2-0.1,0.3-0.3,0.3
							c0.1,0.4,0.2,0.7,0.3,1.1c0,0.1,0.1,0.2,0.1,0.2c0.2,0,0.4,0.1,0.5,0.2c-0.1-0.5-0.2-0.9-0.2-1.4c-0.1-0.7-0.1-1.2-0.2-1.9
							c-0.1-1.6-0.2-3.2-0.1-4.8c0-0.5,0.1-0.9,0.2-1.4c0.2-1.2,0.6-2.5,1-3.6c0.2-0.5,0.6-0.8,0.9-1.2c0.2-0.2,0.6-0.4,0.7-0.7
							C160,93,159.7,93,159.5,92.9z"/>
						<path class="st13" d="M177.2,92.9c-1.7-0.6-4.3-0.7-6.1-0.5c-2.2,0.2-4.5,1-6.5,2c-1.9,0.9-3.7,2.3-5,4
							c-0.6,0.7-1,1.4-1.4,2.2c-0.3,0.7-0.4,1.2-0.5,1.8c0,0.2,0,0.4,0,0.7c0,0,0,0,0.1,0c0.7,0.2,1.4,0.1,2.1,0.3
							c1,0.3,2.1,0.4,3,0.6c2.2,0.4,4.5,0.4,6.7-0.5c2.1-0.7,3.9-2.4,5.2-4.1c0.7-0.9,1-2,1.4-3C176.5,96.1,177.4,93,177.2,92.9z"/>
						<path class="st14" d="M177.2,92.9c-0.1,0-1.6,6.3-5,8.3c-2,1.2-4.3,2.1-6.7,2c-2.4,0-5.4-1.3-7.8-0.1l0,0c0,0,0,0,0.1,0
							c0.7,0.2,1.4,0.1,2.1,0.3c1,0.3,2.1,0.4,3,0.6c2.2,0.4,4.5,0.4,6.7-0.5c2.1-0.7,3.9-2.4,5.2-4.1c0.7-0.9,1-2,1.4-3
							C176.5,96.1,177.4,93,177.2,92.9z"/>
						<path class="st15" d="M175.4,94.5c-2.7-0.3-5.2,0-7.8,0.9c0.1-0.2,0.2-0.4,0.4-0.5c0.5-0.6,0.9-1.2,1.5-1.7c0,0,0-0.1-0.1-0.1
							c-0.9,0.7-2,1.5-2.6,2.6c-0.8,0.4-1.7,0.7-2.4,1.3c-0.9,0.6-2,1.3-3,2.1c0.2-0.4,0.4-0.8,0.7-1.2c0.5-0.8,1.1-1.5,1.6-2.3
							c0.1-0.1-0.1-0.2-0.1-0.1c-0.7,0.6-1.3,1.4-1.9,2.2c-0.4,0.6-1,1.4-1.2,2.2c-0.7,0.6-1.3,1.2-1.9,1.9l0,0l-0.1,0.1
							c-0.7,0.7-1.1,1.6-1.5,2.4c0,0.1,0.1,0.1,0.1,0.1c0.7-0.7,1.3-1.6,2.1-2.3c0.7-0.1,1.2-0.3,2-0.4c0.9,0,1.8,0.1,2.7,0.3
							c1.5,0.3,3,0.6,4.6,0.7c0.1,0,0.1-0.2,0-0.2c-1.6-0.4-3.3-0.7-4.9-1.1c-1-0.2-2.3-0.4-3.6-0.2c0.1-0.1,0.1-0.2,0.2-0.2
							c0.8-0.8,1.8-1.5,2.8-2.2c0.3,0.1,0.7,0.2,1,0.2c0.8,0.1,1.8,0.4,2.6,0.6c1.4,0.3,2.9,0.7,4.3,0.6c0.1,0,0.1-0.1,0-0.1
							c-1.2-0.3-2.5-0.6-3.7-0.8c-1.1-0.2-2.2-0.6-3.5-0.7c0.4-0.2,0.7-0.5,1-0.7c0.7-0.4,1.3-0.7,2-1h0.1l0,0
							c0.7-0.4,1.6-0.7,2.4-0.8c2.1-0.1,3.8,0.5,5.7,1.4c0.1,0,0.2-0.1,0.1-0.1c-0.9-0.7-2.2-1.5-3.6-1.8c1.3-0.2,2.6-0.4,3.9-0.4
							C175.6,94.6,175.6,94.5,175.4,94.5z"/>
					</g>
					<g>
						<path class="st9" d="M170.6,112.8c-0.4-2.6-1.9-5.1-3.7-6.7s-4.4-2.2-6.6-1.6c-1.4,0.4-2.4,1.4-3.1,2.6
							c-0.7-0.7-1.4-1.2-2.3-1.7c-1.7-0.8-3.2-0.9-5-0.8c-3.3,0.2-6.1,3.1-7.3,6.2c-2.8,7.4,2.8,14.8,9.5,16.4
							c1.8,0.5,3.8,0.7,5.7,0.6c2.4-0.2,5-0.7,7.1-2c2-1.1,4.1-2.9,5.1-5.2S170.9,115.3,170.6,112.8z"/>
						<path class="st1" d="M147,112.5c0.4-0.7,0.7-1.4,1.2-2c1.2-1.6,2.5-2.6,4.2-3.5c-0.2-0.4-0.4-0.7-0.7-1
							c-0.2-0.3-0.4-0.5-0.7-0.7c-2.9,0.8-5,2.4-6.3,4.6C145.5,110.9,146.2,111.8,147,112.5z"/>
						<path class="st1" d="M145.9,115.3c0.2-0.7,0.5-1.2,0.7-1.9c-0.8-0.7-1.7-1.6-2.2-2.6c-0.3,0.7-0.6,1.3-0.7,2
							C144.3,113.8,145.1,114.6,145.9,115.3z"/>
						<path class="st10" d="M160.3,104.6c-1.4,0.4-2.4,1.4-3.1,2.6c-0.7-0.7-1.4-1.2-2.3-1.7c-1-0.6-2-0.7-3-0.8
							c0.9,0.3,1.9,0.8,2.3,1.2c1,0.8,2.2,1.6,2.7,2.9c0,0,1.1-3.5,4.5-4.3C161,104.4,160.6,104.5,160.3,104.6z"/>
						<path class="st10" d="M170.6,112.8c-0.2-1.4-0.7-2.8-1.5-4c0.6,1.7,0.8,3.6,0.8,5.3c0,5.6-5.1,9.8-10.1,11.4
							c-4.7,1.5-10.1,0.8-14.1-2c1.8,1.8,4,3.1,6.4,3.7c1.8,0.5,3.8,0.7,5.7,0.6c2.4-0.2,5-0.7,7.1-2c2-1.1,4.1-2.9,5.1-5.2
							C170.8,118.4,170.9,115.3,170.6,112.8z"/>
					</g>
				</g>
				<g>
					<g>
						<path class="st7" d="M175,103.8c-0.1-0.1-0.1-0.3-0.3-0.3s-0.4,0.4-0.4,0.5c-0.2,0.2-0.4,0.5-0.5,0.7
							c-0.3,0.5-0.7,0.8-0.8,1.3c-0.6,1.1-1.1,2.2-1.6,3.5c-0.6,1.4-0.8,2.9-1,4.4c-0.1,1.3-0.4,3-0.2,4.2c0,0.1,0.1,0.2,0.1,0.2
							c0.2,0.1,0.3,0.2,0.5,0.2c0-0.5,0-0.9,0-1.4c0.1-0.7,0.1-1.2,0.2-1.8c0.2-1.5,0.4-3.1,0.7-4.6c0.1-0.5,0.2-0.8,0.4-1.3
							c0.4-1.1,0.9-2.2,1.7-3.2c0.3-0.5,0.7-0.7,1.1-1c0.2-0.2,0.7-0.3,0.8-0.6C175.8,104.4,175.2,104,175,103.8z"/>
						<path class="st8" d="M175,104.5c-0.7-0.6-2.4,3.3-2.6,3.6c-1.4,2.8-1.4,5.8-2,8.8c0,0.1-0.2,0.2-0.3,0.2c0,0.4,0,0.7,0.1,1.1
							c0,0.1,0.1,0.2,0.1,0.2c0.2,0.1,0.3,0.2,0.5,0.2c0-0.5,0-0.9,0-1.4c0.1-0.7,0.1-1.2,0.2-1.8c0.2-1.5,0.4-3.1,0.7-4.6
							c0.1-0.5,0.2-0.8,0.4-1.3c0.4-1.1,0.9-2.2,1.7-3.2c0.3-0.5,0.7-0.7,1.1-1c0.2-0.1,0.7-0.3,0.7-0.6
							C175.3,104.7,175.2,104.6,175,104.5z"/>
					</g>
					<g>
						<path class="st16" d="M182.1,125.4c0.1-2.5-0.9-5.2-2.4-7c-1.4-1.8-3.8-2.8-6-2.6c-1.4,0.1-2.5,0.8-3.4,2
							c-0.6-0.7-1.1-1.4-2-2.1c-1.4-1.1-2.9-1.4-4.6-1.7c-3.2-0.4-6.4,1.9-8.1,4.6c-3.9,6.6,0.1,14.6,6.2,17.3
							c1.6,0.7,3.6,1.3,5.3,1.5c2.3,0.2,4.8,0.2,7.1-0.6c2.1-0.7,4.4-2.1,5.7-4C181.3,130.7,182,127.9,182.1,125.4z"/>
						<path class="st1" d="M159.7,121.1c0.5-0.6,0.9-1.2,1.5-1.7c1.4-1.3,2.9-2.1,4.6-2.6c-0.1-0.4-0.3-0.7-0.4-1.1
							c-0.2-0.3-0.3-0.6-0.5-0.8c-2.9,0.3-5.2,1.5-6.7,3.3C158.5,119.2,159,120.1,159.7,121.1z"/>
						<path class="st1" d="M158.1,123.5c0.3-0.6,0.7-1.1,1-1.7c-0.7-0.8-1.3-1.9-1.7-2.8c-0.4,0.6-0.7,1.1-1,1.8
							C156.9,121.7,157.4,122.7,158.1,123.5z"/>
						<path class="st17" d="M173.7,115.7c-1.4,0.1-2.5,0.8-3.4,2c-0.6-0.7-1.1-1.4-2-2.1c-0.8-0.7-1.8-1-2.7-1.3
							c0.8,0.5,1.7,1.1,2,1.5c0.8,1,1.9,2,2.2,3.2c0,0,1.7-3.1,5.1-3.3C174.4,115.7,174,115.7,173.7,115.7z"/>
						<path class="st17" d="M182.1,125.4c0-1.4-0.3-2.8-0.7-4c0.3,1.7,0.2,3.5-0.2,5.2c-0.9,5.3-6.6,8.5-11.6,9.1
							c-4.7,0.6-9.7-0.9-13.1-4.4c1.4,2,3.3,3.7,5.4,4.6c1.6,0.7,3.6,1.3,5.3,1.5c2.3,0.2,4.8,0.2,7.1-0.6c2.1-0.7,4.4-2.1,5.7-4
							C181.3,130.7,182,127.9,182.1,125.4z"/>
					</g>
				</g>
				<g>
					<g>
						<path class="st7" d="M136.6,103.5c-0.1-0.1-0.2-0.3-0.4-0.3s-0.2,0.4-0.3,0.6c-0.1,0.3-0.2,0.6-0.3,0.8
							c-0.2,0.5-0.4,1-0.5,1.5c-0.3,1.2-0.5,2.5-0.6,3.7c-0.1,1.5-0.1,3,0.2,4.5c0.3,1.3,0.4,3,1,4.1c0.1,0.1,0.1,0.2,0.1,0.2
							c0.2,0,0.4,0.1,0.5,0.1c-0.1-0.5-0.3-0.9-0.4-1.3c-0.1-0.6-0.2-1.2-0.4-1.8c-0.2-1.5-0.5-3.1-0.5-4.6c0-0.5,0-0.8,0-1.3
							c0.1-1.2,0.3-2.4,0.7-3.6c0.2-0.5,0.5-0.8,0.8-1.2c0.2-0.2,0.6-0.5,0.7-0.7C137.6,103.8,136.8,103.6,136.6,103.5z"/>
						<path class="st8" d="M136.8,104.1c-0.7-0.4-1.5,3.8-1.6,4.1c-0.6,3.1,0.3,5.9,0.5,9c0,0.1-0.1,0.3-0.2,0.3
							c0.1,0.4,0.3,0.7,0.4,1c0.1,0.1,0.1,0.2,0.1,0.2c0.2,0,0.4,0.1,0.5,0.1c-0.1-0.5-0.3-0.9-0.4-1.3c-0.1-0.6-0.2-1.2-0.4-1.8
							c-0.2-1.5-0.5-3.1-0.5-4.6c0-0.5,0-0.8,0-1.3c0.1-1.2,0.3-2.4,0.7-3.6c0.2-0.5,0.5-0.8,0.8-1.2c0.2-0.2,0.5-0.5,0.6-0.7
							C137.2,104.2,137,104.2,136.8,104.1z"/>
					</g>
					<g>
						<path class="st16" d="M149.3,122.4c-0.7-2.4-2.2-4.7-4.2-6.1c-1.8-1.3-4.4-1.7-6.5-0.9c-1.3,0.5-2.2,1.5-2.7,2.8
							c-0.7-0.6-1.5-1-2.4-1.4c-1.7-0.7-3.2-0.6-4.9-0.4c-3.2,0.5-5.6,3.5-6.5,6.7c-2,7.4,4,14,10.6,15c1.8,0.3,3.8,0.4,5.5,0
							c2.3-0.5,4.7-1,6.7-2.5c1.8-1.3,3.7-3.2,4.4-5.4C150,127.7,149.9,124.7,149.3,122.4z"/>
						<path class="st1" d="M126.6,124.3c0.3-0.7,0.6-1.4,0.9-2.1c1-1.7,2.2-2.8,3.7-3.7c-0.2-0.4-0.5-0.7-0.7-0.9
							c-0.2-0.3-0.5-0.5-0.7-0.7c-2.7,1-4.5,2.8-5.6,5C124.8,122.8,125.7,123.5,126.6,124.3z"/>
						<path class="st1" d="M125.8,127.1c0.2-0.7,0.3-1.2,0.6-1.9c-0.9-0.7-1.8-1.4-2.3-2.3c-0.3,0.7-0.4,1.3-0.6,2
							C124.1,125.7,124.8,126.4,125.8,127.1z"/>
						<path class="st17" d="M138.6,115.3c-1.3,0.5-2.2,1.5-2.7,2.8c-0.7-0.6-1.5-1-2.4-1.4c-1-0.4-2-0.6-3-0.6
							c0.9,0.2,1.9,0.7,2.3,0.9c1,0.7,2.3,1.3,2.9,2.5c0,0,0.8-3.5,3.9-4.6C139.3,115.1,138.9,115.2,138.6,115.3z"/>
						<path class="st17" d="M149.3,122.4c-0.4-1.3-1-2.6-1.8-3.7c0.7,1.6,1.1,3.4,1.2,5.1c0.6,5.4-4,9.9-8.7,11.9
							c-4.4,1.9-9.7,1.7-13.8-0.7c1.9,1.6,4.1,2.6,6.5,3c1.8,0.3,3.8,0.4,5.5,0c2.3-0.5,4.7-1,6.7-2.5c1.8-1.3,3.7-3.2,4.4-5.4
							S149.9,124.7,149.3,122.4z"/>
					</g>
				</g>
				<g>
					<g>
						<path class="st7" d="M202.6,114.9c-0.1-0.1-0.2-0.3-0.3-0.3c-0.2,0-0.3,0.4-0.4,0.5c-0.2,0.3-0.3,0.5-0.5,0.7
							c-0.3,0.5-0.6,0.9-0.7,1.4c-0.5,1.1-0.9,2.3-1.2,3.6c-0.4,1.4-0.6,2.9-0.7,4.4c0,1.3-0.1,3,0.3,4.2c0,0.1,0.1,0.2,0.1,0.2
							c0.2,0.1,0.3,0.1,0.5,0.2c0-0.5-0.1-0.9-0.1-1.4c0-0.7,0-1.2,0-1.8c0.1-1.6,0.1-3.1,0.4-4.7c0.1-0.5,0.2-0.8,0.3-1.3
							c0.3-1.1,0.7-2.3,1.3-3.4c0.3-0.5,0.7-0.7,1-1.1c0.2-0.2,0.7-0.4,0.7-0.7C203.5,115.3,202.8,115.1,202.6,114.9z"/>
						<path class="st8" d="M202.7,115.5c-0.7-0.5-2.2,3.5-2.2,3.7c-1.1,2.9-0.8,5.9-1.1,8.9c0,0.1-0.1,0.2-0.3,0.2
							c0,0.4,0.1,0.7,0.2,1.1c0,0.1,0.1,0.2,0.1,0.2c0.2,0.1,0.3,0.1,0.5,0.2c0-0.5-0.1-0.9-0.1-1.4c0-0.7,0-1.2,0-1.8
							c0.1-1.6,0.1-3.1,0.4-4.7c0.1-0.5,0.2-0.8,0.3-1.3c0.3-1.1,0.7-2.3,1.3-3.4c0.3-0.5,0.7-0.7,1-1.1c0.2-0.2,0.6-0.4,0.7-0.6
							C203.2,115.7,202.9,115.6,202.7,115.5z"/>
						<path class="st13" d="M219.8,117c-1.6-0.7-4.1-0.9-5.8-0.9c-2.2,0-4.4,0.6-6.4,1.4c-1.9,0.7-3.7,2-5.2,3.5
							c-0.6,0.7-1.1,1.3-1.6,2.1c-0.4,0.6-0.5,1.1-0.6,1.7c0,0.2,0,0.4-0.1,0.6l0,0c0.7,0.2,1.3,0.3,2,0.5c0.9,0.3,1.9,0.6,2.9,0.7
							c2.2,0.6,4.3,0.7,6.5,0.2c2.1-0.6,4-2,5.4-3.6c0.7-0.8,1.2-1.8,1.6-2.7C218.8,120.1,219.9,117.1,219.8,117z"/>
						<path class="st14" d="M219.8,117c-0.1,0-2.2,5.9-5.4,7.6c-2.1,1-4.3,1.6-6.6,1.4s-5.2-1.7-7.5-0.7l0,0l0,0
							c0.7,0.2,1.3,0.3,2,0.5c0.9,0.3,1.9,0.6,2.9,0.7c2.2,0.6,4.3,0.7,6.5,0.2c2.1-0.6,4-2,5.4-3.6c0.7-0.8,1.2-1.8,1.6-2.7
							C218.8,120.1,219.9,117.1,219.8,117z"/>
						<path class="st15" d="M218,118.3c-2.5-0.5-5.1-0.4-7.5,0.3c0.1-0.2,0.3-0.3,0.4-0.5c0.5-0.6,0.9-1.1,1.6-1.5v-0.1
							c-0.9,0.6-2.1,1.3-2.7,2.2c-0.8,0.3-1.7,0.7-2.5,1c-0.9,0.5-2.1,1.1-3.1,1.8c0.2-0.4,0.5-0.7,0.7-1.1c0.6-0.7,1.2-1.4,1.8-2.1
							c0.1-0.1,0-0.2-0.1-0.1c-0.7,0.5-1.4,1.2-2,2c-0.4,0.5-1.1,1.3-1.4,2c-0.7,0.5-1.3,1-1.9,1.7l0,0l-0.1,0.1
							c-0.7,0.7-1.2,1.4-1.6,2.2c0,0.1,0.1,0.1,0.1,0.1c0.7-0.7,1.4-1.4,2.2-2.2c0.7-0.1,1.2-0.2,1.9-0.2c0.9,0.1,1.7,0.3,2.6,0.5
							c1.4,0.4,2.9,0.8,4.3,1c0.1,0,0.1-0.1,0-0.2c-1.5-0.5-3.1-0.9-4.6-1.5c-1-0.3-2.2-0.6-3.4-0.5c0.1-0.1,0.2-0.1,0.2-0.2
							c0.9-0.7,1.9-1.3,2.9-1.9c0.3,0.1,0.7,0.2,0.9,0.3c0.8,0.2,1.7,0.5,2.4,0.7c1.3,0.4,2.7,0.8,4.1,0.8c0.1,0,0.1-0.1,0-0.1
							c-1.2-0.4-2.3-0.7-3.6-1.1c-1.1-0.3-2.2-0.7-3.3-1c0.4-0.2,0.7-0.4,1-0.6c0.7-0.4,1.3-0.7,2.1-0.8h0.1l0,0
							c0.7-0.3,1.6-0.5,2.4-0.7c2,0.1,3.7,0.7,5.3,1.9c0.1,0.1,0.2-0.1,0.1-0.1c-0.8-0.8-2.1-1.6-3.3-2c1.2-0.1,2.5-0.1,3.8,0
							C218.1,118.6,218.1,118.4,218,118.3z"/>
					</g>
					<g>
						<path class="st18" d="M211.7,135.7c-0.2-2.5-1.4-5-3-6.7c-1.6-1.6-4-2.4-6.2-2.1c-1.4,0.2-2.4,1.1-3.2,2.2
							c-0.6-0.7-1.3-1.3-2.2-1.9c-1.5-0.9-3-1.1-4.8-1.2c-3.2-0.1-6.2,2.4-7.6,5.3c-3.3,6.9,1.5,14.5,7.8,16.7c1.7,0.6,3.7,1,5.4,1
							c2.4,0,4.8-0.2,7-1.3c2-0.9,4.2-2.4,5.2-4.5C211.5,141.1,211.9,138.1,211.7,135.7z"/>
						<path class="st1" d="M189,133.4c0.4-0.7,0.8-1.2,1.3-1.8c1.3-1.5,2.7-2.3,4.4-3c-0.2-0.4-0.3-0.7-0.6-1
							c-0.2-0.3-0.4-0.6-0.6-0.7c-2.8,0.6-5,2-6.5,3.9C187.6,131.7,188.3,132.7,189,133.4z"/>
						<path class="st1" d="M187.7,136.1c0.3-0.6,0.6-1.2,0.8-1.8c-0.7-0.8-1.5-1.7-2-2.7c-0.4,0.6-0.7,1.2-0.9,1.9
							C186.3,134.5,187,135.3,187.7,136.1z"/>
						<path class="st19" d="M202.5,126.9c-1.4,0.2-2.4,1.1-3.2,2.2c-0.6-0.7-1.3-1.3-2.2-1.9s-1.9-0.8-2.8-1
							c0.8,0.4,1.8,0.9,2.2,1.3c0.9,0.9,2.1,1.8,2.4,3c0,0,1.4-3.3,4.7-3.7C203.2,126.8,202.8,126.8,202.5,126.9z"/>
						<path class="st19" d="M211.7,135.7c-0.1-1.4-0.5-2.7-1.1-3.9c0.4,1.7,0.5,3.5,0.4,5.2c-0.5,5.4-5.7,9.1-10.7,10.2
							c-4.7,1-9.8,0-13.4-3.1c1.6,1.9,3.6,3.3,5.8,4.1c1.7,0.6,3.7,1,5.4,1c2.4,0,4.8-0.2,7-1.3c2-0.9,4.2-2.4,5.2-4.5
							C211.5,141.1,211.9,138.1,211.7,135.7z"/>
					</g>
				</g>
				<g>
					<g>
						<path class="st7" d="M184.8,121.3c-0.1-0.1-0.1-0.3-0.3-0.3s-0.4,0.4-0.4,0.5c-0.2,0.2-0.4,0.5-0.5,0.7
							c-0.3,0.5-0.7,0.8-0.8,1.3c-0.6,1.1-1.1,2.2-1.6,3.5c-0.6,1.4-0.8,2.9-1,4.4c-0.1,1.3-0.4,3-0.2,4.2c0,0.1,0.1,0.2,0.1,0.2
							c0.2,0.1,0.3,0.2,0.5,0.2c0-0.5,0-0.9,0-1.4c0.1-0.7,0.1-1.2,0.2-1.8c0.2-1.5,0.4-3.1,0.7-4.6c0.1-0.5,0.2-0.8,0.4-1.3
							c0.4-1.1,0.9-2.2,1.7-3.2c0.3-0.5,0.7-0.7,1.1-1c0.2-0.2,0.7-0.3,0.8-0.6C185.6,121.8,184.9,121.4,184.8,121.3z"/>
						<path class="st8" d="M184.8,121.8c-0.7-0.6-2.4,3.3-2.6,3.6c-1.4,2.8-1.4,5.8-2,8.8c0,0.1-0.2,0.2-0.3,0.2
							c0,0.4,0,0.7,0.1,1.1c0,0.1,0.1,0.2,0.1,0.2c0.2,0.1,0.3,0.2,0.5,0.2c0-0.5,0-0.9,0-1.4c0.1-0.7,0.1-1.2,0.2-1.8
							c0.2-1.5,0.4-3.1,0.7-4.6c0.1-0.5,0.2-0.8,0.4-1.3c0.4-1.1,0.9-2.2,1.7-3.2c0.3-0.5,0.7-0.7,1.1-1c0.2-0.1,0.7-0.3,0.7-0.6
							C185.2,122.1,184.9,122,184.8,121.8z"/>
					</g>
					<g>
						<path class="st20" d="M191.8,142.8c0.1-2.5-0.9-5.2-2.4-7c-1.4-1.8-3.8-2.8-6-2.6c-1.4,0.1-2.5,0.8-3.4,2
							c-0.6-0.7-1.1-1.4-2-2.1c-1.4-1.1-2.9-1.4-4.6-1.7c-3.2-0.4-6.4,1.9-8.1,4.6c-3.9,6.6,0.1,14.6,6.2,17.3
							c1.6,0.7,3.6,1.3,5.3,1.5c2.3,0.2,4.8,0.2,7.1-0.6c2.1-0.7,4.4-2.1,5.7-4C191.1,148.1,191.7,145.2,191.8,142.8z"/>
						<path class="st1" d="M169.5,138.4c0.5-0.6,0.9-1.2,1.5-1.7c1.4-1.3,2.9-2.1,4.6-2.6c-0.1-0.4-0.3-0.7-0.4-1.1
							c-0.2-0.3-0.3-0.6-0.5-0.8c-2.9,0.3-5.2,1.5-6.7,3.3C168.2,136.5,168.8,137.6,169.5,138.4z"/>
						<path class="st1" d="M167.9,140.9c0.3-0.6,0.7-1.1,1-1.7c-0.7-0.8-1.3-1.9-1.7-2.8c-0.4,0.6-0.7,1.1-1,1.8
							C166.7,139.1,167.3,140.1,167.9,140.9z"/>
						<path class="st10" d="M183.5,133.2c-1.4,0.1-2.5,0.8-3.4,2c-0.6-0.7-1.1-1.4-2-2.1c-0.8-0.7-1.8-1-2.7-1.3
							c0.8,0.5,1.7,1.1,2,1.5c0.8,1,1.9,2,2.2,3.2c0,0,1.7-3.1,5.1-3.3C184.2,133.2,183.9,133.1,183.5,133.2z"/>
						<path class="st10" d="M191.8,142.8c0-1.4-0.3-2.8-0.7-4c0.3,1.7,0.2,3.5-0.2,5.2c-0.9,5.3-6.6,8.5-11.6,9.1
							c-4.7,0.6-9.7-0.9-13.1-4.4c1.4,2,3.3,3.7,5.4,4.6c1.6,0.7,3.6,1.3,5.3,1.5c2.3,0.2,4.8,0.2,7.1-0.6c2.1-0.7,4.4-2.1,5.7-4
							C191.1,148.1,191.7,145.2,191.8,142.8z"/>
					</g>
				</g>
				<g>
					<g>
						<path class="st7" d="M154,113.6c-0.1-0.1-0.2-0.3-0.3-0.3c-0.2,0-0.3,0.4-0.4,0.6c-0.2,0.3-0.3,0.6-0.4,0.7
							c-0.2,0.5-0.5,0.9-0.7,1.4c-0.4,1.2-0.7,2.4-0.9,3.7c-0.3,1.5-0.4,3-0.3,4.5c0.1,1.3,0.1,3,0.6,4.2c0,0.1,0.1,0.2,0.1,0.2
							c0.2,0,0.4,0.1,0.5,0.2c-0.1-0.5-0.1-0.9-0.2-1.4c0-0.7-0.1-1.2-0.1-1.8c-0.1-1.6-0.1-3.1,0-4.7c0-0.5,0.1-0.8,0.2-1.3
							c0.2-1.1,0.6-2.4,1.1-3.5c0.2-0.5,0.6-0.8,0.9-1.1c0.2-0.2,0.7-0.5,0.7-0.7C154.8,114,154.2,113.8,154,113.6z"/>
						<path class="st8" d="M154.1,114.2c-0.7-0.5-1.9,3.6-2,3.9c-0.9,3-0.5,5.9-0.6,9c0,0.1-0.1,0.3-0.2,0.3
							c0.1,0.4,0.2,0.7,0.3,1.1c0,0.1,0.1,0.2,0.1,0.2c0.2,0,0.4,0.1,0.5,0.2c-0.1-0.5-0.1-0.9-0.2-1.4c0-0.7-0.1-1.2-0.1-1.8
							c-0.1-1.6-0.1-3.1,0-4.7c0-0.5,0.1-0.8,0.2-1.3c0.2-1.1,0.6-2.4,1.1-3.5c0.2-0.5,0.6-0.8,0.9-1.1c0.2-0.2,0.6-0.4,0.7-0.7
							C154.4,114.4,154.3,114.3,154.1,114.2z"/>
					</g>
					<g>
						<path class="st18" d="M164.4,133.7c-0.4-2.5-1.7-4.9-3.5-6.6c-1.7-1.5-4.2-2.2-6.3-1.7c-1.4,0.3-2.3,1.3-3,2.5
							c-0.7-0.7-1.4-1.2-2.2-1.7c-1.6-0.8-3.1-0.9-4.9-0.9c-3.2,0.1-6,2.8-7.2,5.8c-2.8,7.1,2.4,14.3,8.9,16.1
							c1.7,0.5,3.7,0.7,5.5,0.7c2.3-0.2,4.8-0.6,6.9-1.8c1.9-1,4-2.7,5-4.9C164.6,139.1,164.7,136.2,164.4,133.7z"/>
						<path class="st1" d="M141.6,133.1c0.4-0.7,0.7-1.3,1.2-1.9c1.1-1.5,2.5-2.5,4.1-3.3c-0.2-0.4-0.4-0.7-0.6-1
							c-0.2-0.3-0.4-0.5-0.6-0.7c-2.8,0.7-4.8,2.2-6.2,4.3C140.1,131.4,140.9,132.3,141.6,133.1z"/>
						<path class="st1" d="M140.5,135.8c0.2-0.6,0.5-1.2,0.7-1.8c-0.8-0.7-1.6-1.6-2.1-2.5c-0.3,0.6-0.6,1.2-0.7,1.9
							C139,134.2,139.6,135,140.5,135.8z"/>
						<path class="st19" d="M154.5,125.6c-1.4,0.3-2.3,1.3-3,2.5c-0.7-0.7-1.4-1.2-2.2-1.7c-0.9-0.6-1.9-0.7-2.9-0.8
							c0.9,0.3,1.8,0.8,2.2,1.2c0.9,0.8,2.2,1.6,2.6,2.8c0,0,1.2-3.4,4.4-4.1C155.3,125.5,154.9,125.5,154.5,125.6z"/>
						<path class="st19" d="M164.4,133.7c-0.2-1.4-0.7-2.7-1.4-3.9c0.6,1.6,0.7,3.5,0.7,5.2c-0.1,5.4-5.2,9.5-10,10.9
							c-4.6,1.3-9.8,0.7-13.6-2.2c1.7,1.8,3.8,3.1,6.1,3.7c1.7,0.5,3.7,0.7,5.5,0.7c2.3-0.2,4.8-0.6,6.9-1.8c1.9-1,4-2.7,5-4.9
							C164.6,139.1,164.7,136.2,164.4,133.7z"/>
					</g>
				</g>
				<g>
					<g>
						<path class="st7" d="M118.2,116.4c-0.1-0.1-0.3-0.2-0.4-0.2c-0.2,0.1-0.1,0.5-0.1,0.6c0,0.3-0.1,0.6-0.1,0.8
							c-0.1,0.6-0.1,1-0.1,1.6c0,1.3,0.2,2.5,0.4,3.7c0.2,1.5,0.7,2.9,1.2,4.3c0.6,1.2,1.1,2.8,2,3.8c0.1,0.1,0.1,0.1,0.2,0.2
							c0.2,0,0.4,0,0.5,0c-0.2-0.4-0.5-0.8-0.7-1.2c-0.3-0.6-0.5-1.1-0.7-1.7c-0.6-1.4-1.1-2.9-1.6-4.4c-0.1-0.5-0.2-0.8-0.3-1.3
							c-0.2-1.1-0.3-2.4-0.2-3.7c0.1-0.6,0.3-0.9,0.5-1.4c0.1-0.3,0.5-0.7,0.5-0.9C119.1,116.5,118.4,116.5,118.2,116.4z"/>
						<path class="st8" d="M118.5,116.8c-0.8-0.2-0.6,4-0.6,4.4c0.2,3.2,1.6,5.7,2.5,8.6c0,0.1,0,0.3-0.1,0.3
							c0.2,0.4,0.4,0.7,0.7,0.9c0.1,0.1,0.1,0.1,0.2,0.2c0.2,0,0.4,0,0.5,0c-0.2-0.4-0.5-0.8-0.7-1.2c-0.3-0.6-0.5-1.1-0.7-1.7
							c-0.6-1.4-1.1-2.9-1.6-4.4c-0.1-0.5-0.2-0.8-0.3-1.3c-0.2-1.1-0.3-2.4-0.2-3.7c0.1-0.6,0.3-0.9,0.5-1.4
							c0.1-0.2,0.4-0.6,0.4-0.8C118.9,116.9,118.7,116.9,118.5,116.8z"/>
					</g>
					<g>
						<path class="st11" d="M134.9,131.7c-1.2-2.2-3.3-4-5.5-5c-2.1-0.8-4.7-0.6-6.5,0.6c-1.2,0.7-1.8,2-2,3.4
							c-0.8-0.5-1.7-0.7-2.7-0.8c-1.8-0.3-3.2,0.2-4.9,0.8c-2.9,1.2-4.7,4.7-4.8,8c-0.2,7.7,7.2,12.6,13.9,12.1
							c1.8-0.2,3.7-0.6,5.4-1.3c2.2-0.9,4.3-2.2,5.9-4c1.4-1.7,2.8-3.9,3-6.3C136.8,136.7,136,133.9,134.9,131.7z"/>
						<path class="st12" d="M122.9,127.3c-1.2,0.7-1.8,2-2,3.4c-0.8-0.5-1.7-0.7-2.7-0.8c-1.1-0.2-2.1-0.1-3,0.2
							c0.9,0,2,0.2,2.4,0.4c1.2,0.5,2.6,0.7,3.4,1.8c0,0,0-3.6,2.8-5.3C123.4,127,123.2,127.2,122.9,127.3z"/>
						<path class="st12" d="M134.9,131.7c-0.7-1.2-1.6-2.3-2.6-3.2c1,1.3,1.9,3,2.4,4.6c1.8,5.2-1.6,10.6-5.7,13.7
							c-3.8,2.8-9,3.9-13.6,2.6c2.2,1,4.6,1.6,7,1.4c1.8-0.2,3.7-0.6,5.4-1.3c2.2-0.9,4.3-2.2,5.9-4c1.4-1.7,2.8-3.9,3-6.3
							C136.8,136.7,136,133.9,134.9,131.7z"/>
					</g>
				</g>
			</g>
			<g>
				<path class="st13" d="M145.8,89.1c1.4,0.1,3.3,0.7,4.5,1.4c1.6,0.7,2.9,2,4.1,3.3c1.1,1.2,2,2.8,2.4,4.3
					c0.2,0.7,0.4,1.3,0.4,2.1c0,0.6-0.1,0.9-0.2,1.4c-0.1,0.2-0.1,0.3-0.2,0.5l0,0c-0.6-0.1-1-0.3-1.6-0.4c-0.7-0.1-1.6-0.3-2.3-0.5
					c-1.7-0.4-3.4-1-4.7-2.2c-1.2-1.1-2.2-2.8-2.6-4.5c-0.2-0.8-0.2-1.7-0.2-2.5C145.5,91.6,145.7,89.1,145.8,89.1z"/>
				<path class="st14" d="M145.8,89.1c0.1,0-0.6,5,1.2,7.4c1.1,1.5,2.5,2.7,4.2,3.4c1.8,0.7,4.3,0.6,5.6,2.1l0,0l0,0
					c-0.6-0.1-1-0.3-1.6-0.4c-0.7-0.1-1.6-0.3-2.3-0.5c-1.7-0.4-3.4-1-4.7-2.2c-1.2-1.1-2.2-2.8-2.6-4.5c-0.2-0.8-0.2-1.7-0.2-2.5
					C145.5,91.6,145.7,89.1,145.8,89.1z"/>
				<path class="st15" d="M146.7,90.8c2.1,0.6,3.8,1.5,5.3,2.9c0-0.2-0.1-0.3-0.1-0.5c-0.2-0.6-0.3-1.1-0.6-1.7c0,0,0-0.1,0.1,0
					c0.5,0.7,1,1.7,1.1,2.6c0.5,0.5,1,1,1.4,1.6c0.6,0.7,1.1,1.5,1.6,2.3c0-0.4-0.1-0.7-0.1-1c-0.2-0.7-0.4-1.4-0.6-2.2
					c0-0.1,0.1-0.1,0.1,0c0.4,0.7,0.6,1.4,0.7,2.2c0.1,0.6,0.4,1.3,0.3,1.9c0.3,0.7,0.6,1.2,0.7,1.9l0,0v0.1
					c0.2,0.7,0.4,1.5,0.4,2.2c0,0.1-0.1,0.1-0.1,0c-0.3-0.7-0.5-1.5-0.7-2.3c-0.5-0.3-0.8-0.6-1.3-0.7c-0.7-0.3-1.3-0.4-2.1-0.6
					c-1.1-0.3-2.3-0.5-3.5-0.8c-0.1,0-0.1-0.2,0-0.1c1.3,0.2,2.5,0.4,3.8,0.6c0.8,0.1,1.9,0.4,2.6,0.8c0-0.1-0.1-0.2-0.1-0.2
					c-0.4-0.8-0.8-1.6-1.4-2.4c-0.3,0-0.6-0.1-0.7-0.1c-0.7-0.2-1.4-0.3-2.1-0.4c-1-0.2-2.2-0.4-3.3-0.8c-0.1,0,0-0.1,0-0.1
					c1,0.2,2,0.3,3,0.5c0.8,0.2,1.8,0.2,2.7,0.4c-0.2-0.3-0.4-0.6-0.6-0.7c-0.4-0.5-0.7-0.9-1.1-1.3H152l0,0c-0.5-0.5-1-0.9-1.5-1.3
					c-1.5-0.7-2.9-0.7-4.5-0.6c-0.1,0-0.1-0.1,0-0.1c0.9-0.3,2.1-0.5,3.1-0.3c-0.8-0.6-1.8-0.9-2.7-1.4
					C146.6,90.9,146.6,90.7,146.7,90.8z"/>
			</g>
		</g>
		<g>
			<g>
				<path class="st21" d="M113.3,149.9c1.4,5.5,5,19.5,7.1,24.7c2.7,6.7,1.4,9.6,10.4,10.4c7.7,0.7,23.6,0.4,30.4,0.3
					c6.7,0.2,22.6,0.6,30.4-0.3c9-0.9,7.7-3.8,10.4-10.4c2.2-5.2,6-21.3,7.4-26.9L113.3,149.9z"/>
			</g>
			<g>
				<g>
					<path class="st22" d="M212,145.1c-0.7-2.6-4.9-2.1-6.8-2c-0.7,0-1.3,0-2.1,0c-3.4,0.1-6.7,0.1-10.1,0.2
						c-3.8,0.1-49.2,0.9-52.9,1.1c-3.7,0.1-7.5,0.3-11.2,0.4c-3.3,0.1-6.7,0.2-9.9,0.3c-0.7,0-1.3,0.1-2,0.1c-2,0-6-0.4-6.6,2.2
						c-0.3,1.4,0.6,3,2,3.3c1.3,0.2,2.6,0,3.9-0.1c3.7-0.3,7.6-0.3,11.3-0.4c3.8-0.1,7.7-0.2,11.4-0.3c3.8-0.1,7.8-0.2,11.6-0.3
						c1.4,0,8.7-0.1,10.5-0.1c3.3-0.1,6.6-0.2,9.8-0.3c3.9-0.1,8-0.2,11.9-0.3c3.9-0.1,7.8-0.2,11.7-0.3c3.8-0.1,7.7-0.2,11.6-0.1
						c1.3,0,2.7,0.2,3.9-0.1C211.6,148.1,212.4,146.5,212,145.1z"/>
					<g>
						<path class="st23" d="M118.5,150.3c-0.9-0.2-1.2-1.6-1.3-2.3c-0.1-0.8,0.2-1.7,0.6-2.5c0,0,0-0.1-0.1,0
							c-0.7,0.9-0.8,2.1-0.7,3.1c0,0.2,0.1,0.5,0.2,0.7c-0.7-1.1-1-2.5,0-3.7c0.1-0.1,0-0.1-0.1-0.1c-1.2,1.2-0.9,3.8,0.6,4.8
							c0,0,0,0,0.1,0c0.2,0.2,0.4,0.3,0.7,0.3C118.7,150.5,118.6,150.3,118.5,150.3z"/>
						<path class="st23" d="M118.7,150.1c-1-1.5-1.1-3.2-0.1-4.7c0.1-0.1-0.1-0.2-0.1-0.1c-0.6,0.7-0.9,1.5-0.9,2.3
							C117.5,148.4,117.8,149.7,118.7,150.1C118.6,150.3,118.7,150.2,118.7,150.1z"/>
						<path class="st23" d="M130.1,150.1c-1.2-1.7-1.5-3.6-0.9-5.5c0-0.1-0.1-0.2-0.1-0.1C128.3,146.2,128.2,149.1,130.1,150.1
							C130.1,150.4,130.2,150.3,130.1,150.1z"/>
						<path class="st23" d="M131,150.1c-1.2-1.4-1.4-3.7-0.8-5.4c0-0.1-0.1-0.1-0.1,0c-0.5,0.9-0.7,1.8-0.5,2.8
							c0,0.2,0.1,0.4,0.1,0.6c-0.1-0.2-0.2-0.4-0.3-0.6c-0.4-0.8-0.2-2,0.1-2.8c0-0.1-0.1-0.1-0.1-0.1c-0.7,1.6-0.7,3.9,0.8,5.1
							c0,0,0,0,0.1,0C130.6,149.8,130.6,150.1,131,150.1C131,150.4,131.1,150.3,131,150.1z"/>
						<path class="st23" d="M145.4,149.5c-0.5-0.8-0.9-1.7-1-2.6c-0.1-0.7,0-1.5,0.3-2.2c0.1-0.2,0.2-0.4,0.2-0.6c0,0,0-0.1-0.1-0.1
							c-0.6,0.1-0.8,1.9-0.8,2.3C143.9,147.5,144.2,149,145.4,149.5C145.3,149.7,145.4,149.6,145.4,149.5z"/>
						<path class="st23" d="M146.6,149.5c-1-1.5-1.8-3.5-1.1-5.3c0-0.1-0.1-0.1-0.1-0.1C144.5,145.6,144.8,148.8,146.6,149.5
							C146.5,149.8,146.6,149.6,146.6,149.5z"/>
						<path class="st23" d="M162.2,146c-0.1-0.7,0-1.4,0-2.2c0-0.1-0.1-0.1-0.2,0c-0.7,1.2-0.2,3.6,0.7,4.6c0.1,0.1,0.2,0,0.1-0.1
							C162.6,147.5,162.4,146.7,162.2,146z"/>
						<path class="st23" d="M162.2,149.4c-0.7-1.6-1.2-3.7-1-5.4c0-0.1-0.1-0.1-0.2,0c-0.3,1-0.2,2,0,3c0.2,0.8,0.4,2,0.9,2.6
							C162,149.5,162.3,149.5,162.2,149.4z"/>
						<path class="st23" d="M161.8,149.5c-0.4-0.8-0.7-1.7-0.9-2.6s-0.1-2,0-2.9c0-0.1-0.2-0.1-0.2,0c-0.4,1.8-0.6,4.4,0.8,5.8
							C161.6,149.8,161.8,149.6,161.8,149.5z"/>
						<path class="st23" d="M172.2,145.1c0-0.4,0.1-1.3-0.2-1.6h-0.1c-0.2,1.3-0.1,3.1,0.5,4.2c0,0.1,0.2,0.1,0.2,0
							C172.3,146.7,172.2,145.9,172.2,145.1z"/>
						<path class="st23" d="M173.3,146.1c-0.1-0.9,0.1-1.8,0-2.7c0-0.1-0.2-0.1-0.2,0c-0.3,1.8-0.4,3.9,0.4,5.6c0,0.1,0.1,0,0.1,0
							C173.5,148,173.3,147.1,173.3,146.1z"/>
						<path class="st23" d="M172.6,145.9c-0.1-0.7,0.1-1.5,0-2.2c0-0.1-0.2-0.1-0.2,0c-0.3,1.5-0.3,3.5,0.5,4.8c0,0.1,0.1,0,0.1,0
							C172.8,147.6,172.6,146.7,172.6,145.9z"/>
						<path class="st23" d="M182.4,146.1c-0.1-0.9,0.2-1.9,0-2.7c0-0.1-0.2-0.1-0.2,0c-0.2,1.8-0.6,4.3,0.7,5.8
							c0.1,0.1,0.3,0,0.2-0.1C182.7,148,182.5,147.1,182.4,146.1z"/>
						<path class="st23" d="M183.2,146.4c-0.1-0.9,0.1-1.9,0.1-2.9c0-0.1-0.2-0.1-0.2,0c-0.4,1.6-0.8,4.4,0.5,5.7
							c0.1,0.1,0.3,0,0.2-0.1C183.6,148,183.3,147.3,183.2,146.4z"/>
						<path class="st23" d="M197.2,146.4c0-1-0.3-2.8-1.1-3.4c-0.1,0-0.1,0-0.1,0.1c0.5,0.9,0.6,2,0.7,3c0.1,0.8-0.3,1.8-0.2,2.5
							c0,0.1,0.1,0.2,0.2,0.1C197.4,148.3,197.2,147,197.2,146.4z"/>
						<path class="st23" d="M197.2,143.1c-0.1-0.1-0.3,0-0.2,0.1c0.7,1.7,0.9,3.4,0.5,5.2c0,0.1,0.1,0.2,0.1,0.1
							C198.7,146.8,198.4,144.5,197.2,143.1z"/>
						<path class="st23" d="M209.1,145.1c-0.1-0.7-0.2-1.8-0.8-2.3c-0.1-0.1-0.2,0.1-0.2,0.2c1,1.5,0.7,3.7,0.5,5.4
							c0,0.2,0.3,0.3,0.4,0.1C209.3,147.3,209.3,146.2,209.1,145.1z"/>
						<path class="st23" d="M207.9,142.7c-0.1-0.1-0.2,0-0.2,0.1c0.2,0.6,0.4,0.9,0.6,1.5c0.1,0.6,0.1,1.1,0.2,1.7
							c0,0.2,0.3,0.2,0.4,0C208.8,144.9,208.6,143.7,207.9,142.7z"/>
					</g>
					<g>
						<path class="st24" d="M212,145.1c-0.2-0.6-0.5-0.9-0.8-1.2c-0.3,0.7-0.8,1.1-1.6,1.3c-1.2,0.3-2.6,0.1-3.9,0.1
							c-3.8-0.1-7.6,0.1-11.4,0.1c-3.8,0.1-7.7,0.2-11.5,0.3c-3.9,0.1-7.8,0.2-11.7,0.3c-3.2,0.1-6.5,0.2-9.7,0.3
							c-1.8,0-9,0.1-10.4,0.1c-3.8,0.1-7.7,0.2-11.5,0.3c-3.7,0.1-7.6,0.2-11.3,0.3c-3.7,0.1-7.5,0.2-11.2,0.4
							c-1.2,0.1-2.6,0.3-3.8,0.1c-0.7-0.1-1.4-0.7-1.7-1.3c-0.5,0.4-0.8,0.8-1,1.5c-0.3,1.4,0.6,3,2,3.3c1.3,0.2,2.6,0,3.9-0.1
							c3.7-0.3,7.6-0.3,11.3-0.4c3.8-0.1,7.7-0.2,11.4-0.3c3.8-0.1,7.8-0.2,11.6-0.3c1.4,0,8.7-0.1,10.5-0.1
							c3.3-0.1,6.6-0.2,9.8-0.3c3.9-0.1,8-0.2,11.9-0.3s7.8-0.2,11.7-0.3c3.8-0.1,7.7-0.2,11.6-0.1c1.3,0,2.7,0.2,3.9-0.1
							C211.6,148.1,212.4,146.5,212,145.1z"/>
					</g>
					<g>
						<path class="st24" d="M197.1,147.6c-4.2,0.1-8.3,0.2-12.6,0.3s-8.5,0.2-12.7,0.3c-3.5,0.1-7,0.2-10.5,0.3
							c-2,0-9.7,0.1-11.2,0.1c-4.2,0.1-8.3,0.2-12.6,0.3c-4.1,0.1-8.2,0.2-12.4,0.3c-4,0.1-8.2,0.2-12.2,0.5c-0.7,0-1.3,0.1-2.1,0.2
							c0.4,0.5,0.8,0.7,1.4,0.9c1.3,0.2,2.6,0,3.9-0.1c3.7-0.3,7.6-0.3,11.3-0.4c3.8-0.1,7.7-0.2,11.4-0.3c3.8-0.1,7.8-0.2,11.6-0.3
							c1.4,0,8.7-0.1,10.5-0.1c3.3-0.1,6.6-0.2,9.8-0.3c3.9-0.1,8-0.2,11.9-0.3c3.9-0.1,7.8-0.2,11.7-0.3c3.8-0.1,7.7-0.2,11.6-0.1
							c1.3,0,2.7,0.2,3.9-0.1c0.6-0.1,1-0.5,1.4-0.9c-0.7,0-1.4-0.1-2.1-0.1C205.3,147.3,201.2,147.5,197.1,147.6z"/>
					</g>
				</g>
				<g class="st25">
					<path class="st1" d="M113.5,145.7c-0.5-0.1-0.9,0.1-1.5,0.2c-0.2,0-0.2,0.4,0,0.4s0.4,0,0.6,0c0.3,0,0.6-0.1,0.9-0.1
						C113.7,146,113.8,145.7,113.5,145.7z"/>
					<path class="st1" d="M115.1,145.4c-0.2-0.1-0.4,0-0.7,0c-0.2,0-0.2,0.4,0,0.4s0.4,0.1,0.7,0
						C115.2,145.7,115.2,145.5,115.1,145.4z"/>
					<path class="st1" d="M128.1,145.2c-1.5-0.2-3.2,0-4.7,0c-1.4,0.1-2.9-0.1-4.3,0.3c-0.1,0-0.1,0.1,0,0.1c1.3,0.2,2.7,0.1,4,0.1
						c1.6,0,3.4,0.1,5-0.2C128.3,145.5,128.3,145.2,128.1,145.2z"/>
					<path class="st1" d="M142.2,145c-1.5-0.3-3.3,0-4.9,0.1c-2,0-3.8,0-5.8,0.2c-0.1,0-0.1,0.2,0,0.2c1.8,0.1,3.7,0.2,5.4,0.2
						s3.6,0.2,5.2-0.2C142.4,145.3,142.4,145.1,142.2,145z"/>
					<path class="st1" d="M159.8,144.4c-2.1-0.3-4.3,0-6.4,0.1c-2.1,0-4.2,0-6.3,0.4c-0.1,0-0.1,0.2,0,0.2c2,0.1,3.9,0.1,5.9,0.1
						c2.2-0.1,4.5,0.1,6.7-0.3C160,144.7,160,144.4,159.8,144.4z"/>
					<path class="st1" d="M170.1,144.3c-1-0.1-2,0-3,0s-2.1,0.2-3.1,0.2c-0.1,0-0.1,0.2,0,0.2c0.8,0.2,1.9,0.1,2.7,0.1
						c1.1,0,2.2,0.1,3.4,0C170.3,144.6,170.3,144.3,170.1,144.3z"/>
					<path class="st1" d="M181.2,144.2c-2.2-0.4-4.3,0.1-6.5,0c-0.1,0-0.1,0.1,0,0.1c1,0.2,2.2,0.2,3.3,0.2s2.2,0.2,3.3,0
						C181.3,144.4,181.3,144.2,181.2,144.2z"/>
					<path class="st1" d="M193.6,144c-3.2-0.4-6.4,0-9.6-0.1c-0.2,0-0.3,0.3,0,0.3c1.4,0.2,2.9,0.3,4.3,0.2c1.8-0.1,3.5,0,5.2-0.2
						C193.7,144.2,193.7,144,193.6,144z"/>
					<path class="st1" d="M195.9,143.9c-0.4-0.3-0.8-0.3-1.3-0.2c-0.2,0-0.2,0.4,0,0.4c0.4,0,0.8,0.2,1.2,0.1
						C196,144.2,196,144,195.9,143.9z"/>
					<path class="st1" d="M206.2,143.5c-2.3-0.2-4.9-0.1-7.2,0.2c-0.1,0-0.1,0.1,0,0.1c2.3,0.3,4.9,0.2,7.2,0
						C206.4,143.6,206.4,143.5,206.2,143.5z"/>
					<path class="st1" d="M210.6,143.6c-0.4-0.2-0.7-0.3-1-0.2c-0.2,0-0.2,0.3,0,0.3c0.4,0,0.7,0.2,0.9,0.2
						C210.6,143.8,210.7,143.6,210.6,143.6z"/>
				</g>
			</g>
			<g>
				<g>
					<path class="st23" d="M119.5,161.4c-0.4-1.2-0.7-2.3-0.9-3.6c-0.2-1.1-0.1-2.3-0.1-3.5c0-0.1-0.2-0.1-0.2,0
						c-0.6,2.3,0,5.1,0.9,7.2C119.2,161.7,119.6,161.6,119.5,161.4z"/>
					<path class="st23" d="M122.4,162.2c-0.6-1.1-1.1-2.2-1.3-3.5c-0.3-1.2-0.1-2.4-0.2-3.7c0-0.2-0.3-0.2-0.4,0
						c-0.2,2.5-0.2,5.2,1.6,7.3C122.2,162.6,122.5,162.5,122.4,162.2z"/>
					<path class="st23" d="M124.7,161.1c-0.4-1-0.7-2-0.9-3c-0.2-1.1-0.2-2.3-0.2-3.5c0-0.2-0.3-0.2-0.3,0c-0.2,2.2-0.2,4.7,1.1,6.7
						C124.6,161.4,124.8,161.3,124.7,161.1z"/>
					<path class="st23" d="M124.9,178.2c-0.9-1.9-1.1-3.7-1.5-5.7c0-0.1-0.2-0.1-0.2,0c0.1,2.1,0.3,4,1.4,5.9
						C124.8,178.5,125,178.4,124.9,178.2z"/>
					<path class="st23" d="M127.6,177.8c-0.5-1.2-0.9-2.3-1.2-3.6c-0.2-0.8-0.1-1.9-0.6-2.7c-0.1-0.1-0.3-0.1-0.3,0.1
						c0.2,1,0.3,2.1,0.5,3.1c0.2,1.1,0.7,2.2,1.2,3.3C127.3,178,127.6,177.9,127.6,177.8z"/>
					<path class="st23" d="M130.3,178.3c-0.9-2-1.2-4.2-1.5-6.4c0-0.2-0.4-0.2-0.4,0c-0.1,2.2,0.4,4.7,1.4,6.6
						C130,178.8,130.4,178.6,130.3,178.3z"/>
					<path class="st23" d="M132.1,170.3c-0.6-1.1-1-2.1-1.3-3.4c-0.3-1.3-0.4-2.6-0.5-3.9c0-0.1-0.3-0.2-0.3,0
						c-0.2,2.5,0.3,5.4,1.8,7.5C131.8,170.7,132.1,170.5,132.1,170.3z"/>
					<path class="st23" d="M134.1,170.7c-0.5-1.2-0.9-2.5-1.1-3.8c-0.3-1.2-0.3-2.4-0.5-3.7c0-0.2-0.3-0.2-0.3,0
						c0.3,2.6,0.5,5.1,1.7,7.5C133.9,171,134.1,170.9,134.1,170.7z"/>
					<path class="st23" d="M136.6,169.3c-0.5-1.6-0.9-3.1-1.2-4.7c0-0.1-0.3-0.2-0.3,0c-0.1,1.6,0.5,3.5,1.1,4.9
						C136.4,169.7,136.6,169.6,136.6,169.3z"/>
					<path class="st23" d="M136.8,163.3c-0.3-1-0.7-2-0.7-2.9c-0.2-1.2-0.3-2.4-0.5-3.7c0-0.2-0.3-0.2-0.3,0
						c0.2,2.2,0.2,4.5,1.2,6.7C136.6,163.6,136.8,163.5,136.8,163.3z"/>
					<path class="st23" d="M139.8,163.4c-0.6-1.1-0.9-2.2-1.2-3.6c-0.2-1-0.3-2-0.6-3c0-0.1-0.2-0.1-0.2,0.1
						c0.5,2.2,0.4,4.7,1.7,6.7C139.6,163.8,139.9,163.6,139.8,163.4z"/>
					<path class="st23" d="M141.1,156.9c0-0.1-0.2-0.1-0.2,0c0.5,2,0.6,4,1.2,6c0.1,0.2,0.3,0.1,0.3-0.1
						C142.2,160.8,141.7,158.8,141.1,156.9z"/>
					<path class="st23" d="M153.1,167.7c0-0.2-0.2-0.2-0.2,0c-0.4,2-0.3,4,0.2,5.9c0.1,0.2,0.4,0.1,0.4-0.1
						C153.1,171.7,152.9,169.7,153.1,167.7z"/>
					<path class="st23" d="M155.2,168c0-0.2-0.4-0.2-0.4,0c-0.1,2.2,0,4.6,0.7,6.7c0.1,0.2,0.4,0.1,0.4-0.1
						C155.6,172.4,155.2,170.3,155.2,168z"/>
					<path class="st23" d="M159.8,173.9c-0.7-2.2-1.1-4.3-1.3-6.6c0-0.2-0.3-0.2-0.3,0c0.1,2.2,0.2,4.7,1.3,6.7
						C159.6,174.3,159.9,174.1,159.8,173.9z"/>
					<path class="st23" d="M161.4,160.5c0-0.1-0.2-0.1-0.2,0c-0.1,2.5-0.2,5,0.4,7.5c0,0.2,0.4,0.2,0.3,0
						C161.6,165.5,161.5,163,161.4,160.5z"/>
					<path class="st23" d="M164.3,159.9c0-0.2-0.2-0.2-0.3,0c-0.7,2.3-0.7,5-0.1,7.3c0,0.2,0.3,0.2,0.3,0
						C164.2,164.7,163.8,162.3,164.3,159.9z"/>
					<path class="st23" d="M167,163.2c-0.1-1.3,0-2.7,0-4c0-0.2-0.3-0.2-0.3,0c-0.4,2.8-0.4,5.7,0.7,8.3c0.1,0.2,0.4,0.1,0.4-0.1
						C167.6,166,167.1,164.7,167,163.2z"/>
					<path class="st23" d="M179.7,168.7c0.1-1.4,0.5-2.7,0.7-4c0-0.2-0.2-0.2-0.3,0c-0.7,2.8-1.4,5.5-0.7,8.4
						c0.1,0.3,0.5,0.3,0.5-0.1C179.7,171.5,179.6,170.1,179.7,168.7z"/>
					<path class="st23" d="M182.5,165.9c0-0.2-0.3-0.3-0.3,0c-0.5,2.5-0.8,5.1-0.3,7.7c0,0.2,0.4,0.2,0.4,0
						C182.1,170.9,182.2,168.4,182.5,165.9z"/>
					<path class="st23" d="M185.9,168.3c0-1.2,0.3-2.3,0.2-3.6c0-0.2-0.3-0.1-0.3,0c0,1.3-0.4,2.6-0.4,3.9c-0.1,1.3-0.1,2.6,0.2,3.8
						c0,0.2,0.4,0.2,0.4-0.1C185.9,171.1,185.8,169.7,185.9,168.3z"/>
					<path class="st23" d="M197.5,165c-0.8,2.4-1.2,5.1-1,7.7c0,0.2,0.3,0.2,0.3,0c0.1-1.3,0.1-2.5,0.3-3.8c0.2-1.2,0.7-2.5,0.7-3.7
						C197.6,165,197.5,164.9,197.5,165z"/>
					<path class="st23" d="M199.9,165.5c-0.5,2.7-1.1,5.4-0.8,8.2c0,0.3,0.5,0.3,0.5,0c0-1.5,0.1-2.9,0.2-4.3
						c0.2-1.3,0.5-2.5,0.5-3.8C200.3,165.3,200,165.3,199.9,165.5z"/>
					<path class="st23" d="M187.1,177.4c0-0.9,0.2-1.8,0.2-2.7c0-0.1-0.1-0.1-0.2,0c-0.4,0.7-0.4,1.9-0.4,2.7
						c-0.1,1.1,0,2.1,0.3,3.2c0,0.2,0.4,0.2,0.4,0C187.2,179.3,187.1,178.4,187.1,177.4z"/>
					<path class="st23" d="M189.9,174.8c0-0.1-0.2-0.2-0.2-0.1c-0.7,1.7-0.6,4.1-0.1,5.9c0.1,0.2,0.4,0.1,0.3-0.1
						C189.5,178.7,189.5,176.7,189.9,174.8z"/>
					<path class="st23" d="M192.8,174.9c0-0.1-0.3-0.2-0.3,0c-0.1,1.8-0.4,3.7,0.1,5.4c0.1,0.3,0.5,0.2,0.4-0.1
						C192.8,178.5,193,176.7,192.8,174.9z"/>
					<path class="st23" d="M189.2,159.8c0.1-1.1,0.4-2.2,0.6-3.3c0-0.1-0.2-0.1-0.2,0c-0.6,2.4-1.1,4.7-0.4,7.1
						c0,0.1,0.3,0.1,0.3-0.1C189.3,162.3,189.1,161,189.2,159.8z"/>
					<path class="st23" d="M192.5,159.8c0-1,0.2-2.1,0.2-3.1c0-0.2-0.3-0.2-0.3,0c-0.2,2.4-0.7,4.8,0,7.2c0.1,0.2,0.4,0.1,0.4-0.1
						C192.6,162.5,192.5,161.2,192.5,159.8z"/>
					<path class="st23" d="M196.1,156.9c0-0.2-0.3-0.3-0.3,0c-0.1,2.4-0.8,4.8-0.5,7.2c0,0.2,0.4,0.2,0.4,0
						C195.6,161.5,196,159.3,196.1,156.9z"/>
				</g>
				<path class="st23" d="M140.2,151c-2.1,0.5-4.1,0.7-6.2,0.6c-0.1,0-0.1,0.1,0,0.2c2.1,0.4,4.4,0.5,6.3-0.3
					C140.6,151.3,140.5,151,140.2,151z"/>
				<path class="st23" d="M141.1,153.1c-2.2,0.5-4.8,1.2-7,0.6c-0.1,0-0.1,0.1,0,0.2c0.9,0.5,2.1,0.4,3.1,0.4c1.4,0,2.8-0.3,4.1-0.7
					C141.4,153.4,141.3,153.1,141.1,153.1z"/>
				<path class="st23" d="M133.7,156.6c-2,0.4-3.8,0.5-5.8,0.1c-0.1,0-0.1,0.1,0,0.2c1.9,0.6,4.1,0.9,6,0.1
					C134,156.9,133.9,156.6,133.7,156.6z"/>
				<path class="st23" d="M134.1,159.5c-2,0.3-3.9,0.4-5.9,0.2c-0.1,0-0.2,0.2-0.1,0.2c1.8,0.6,4.3,0.6,6.1,0.1
					C134.5,159.9,134.4,159.5,134.1,159.5z"/>
				<path class="st23" d="M133.9,162c-1.9,0.1-3.7,0.3-5.5-0.1c-0.1,0-0.2,0.1-0.1,0.2c1.7,0.7,3.9,0.9,5.6,0.3
					C134.2,162.3,134.1,162,133.9,162z"/>
				<path class="st23" d="M144.1,164c-2.3,0.6-4.6,0.9-7.1,0.8c-0.2,0-0.3,0.4-0.1,0.4c2.4,0.2,5,0.1,7.2-0.8
					C144.4,164.4,144.3,164,144.1,164z"/>
				<path class="st23" d="M143.5,167.4c-2.1,0.3-4.2,0.7-6.4,0.3c-0.2,0-0.3,0.3-0.1,0.3c2,0.7,4.6,0.6,6.6-0.2
					C143.9,167.6,143.8,167.3,143.5,167.4z"/>
				<path class="st23" d="M143.3,170.4c-1.7,0.4-3.8,1.1-5.6,0.7c-0.2,0-0.2,0.2-0.1,0.3c1.7,0.6,4.2,0,5.8-0.6
					C143.7,170.8,143.6,170.3,143.3,170.4z"/>
				<path class="st23" d="M137.3,172.6c-2.2,0-4.3,0.4-6.6-0.1c-0.1,0-0.1,0.1,0,0.1c2,0.7,4.5,0.8,6.6,0.4
					C137.5,172.9,137.6,172.6,137.3,172.6z"/>
				<path class="st23" d="M137.9,174.5c-2.1,0.3-4.1,0.5-6.2,0.2c-0.2,0-0.2,0.2,0,0.2c2.1,0.5,4.1,0.4,6.3,0
					C138.2,174.9,138.2,174.5,137.9,174.5z"/>
				<path class="st23" d="M137.9,176.5c-2.1,0.4-4.1,0.8-6.2,0.6c-0.1,0-0.2,0.2-0.1,0.2c2,0.6,4.4,0.3,6.4-0.4
					C138.1,176.8,138.1,176.5,137.9,176.5z"/>
				<path class="st23" d="M126.7,163.9c-2.3,0-4.6,0.6-6.9,0.3c-0.2,0-0.2,0.2,0,0.2c2.2,0.6,5,0.4,7-0.2
					C127,164.2,126.9,163.9,126.7,163.9z"/>
				<path class="st23" d="M126.5,167.2c-1.8-0.3-3.6-0.2-5.3-0.4c-0.2,0-0.2,0.2,0,0.2c1.8,0.3,3.6,0.5,5.3,0.5
					C126.6,167.4,126.7,167.2,126.5,167.2z"/>
				<path class="st23" d="M126.9,169.9c-1.8,0.1-3.6,0.3-5.3,0.2c-0.2,0-0.2,0.3,0,0.3c1.8,0.3,3.7,0.5,5.5-0.2
					C127.2,170.1,127.1,169.9,126.9,169.9z"/>
				<path class="st23" d="M158.5,162c-2.5,0.1-5,0.2-7.4,0.1c-0.1,0-0.2,0.2,0,0.2c2.4,0.4,5.1,0.6,7.5,0.1
					C158.8,162.3,158.7,162,158.5,162z"/>
				<path class="st23" d="M160,164.5c-1.6,0-3.2,0.2-4.8,0.3c-1.5,0.1-3-0.1-4.5-0.2c-0.1,0-0.2,0.2,0,0.2c3,0.7,6.4,0.7,9.4,0.1
					C160.3,164.8,160.2,164.5,160,164.5z"/>
				<path class="st23" d="M159,166.7c-2.8,0.2-5.7,0.5-8.5,0.2c-0.1,0-0.2,0.2,0,0.2c1.2,0.3,2.5,0.3,3.7,0.3c1.6,0,3.3-0.1,4.9-0.4
					C159.2,167,159.2,166.7,159,166.7z"/>
				<path class="st23" d="M166.8,153.9c-1.1,0-2.2,0.1-3.3,0.1c-1,0-2.1-0.2-3.1-0.3c-0.1,0-0.1,0.1,0,0.1c2.1,0.5,4.3,0.8,6.5,0.4
					C167,154.1,167.1,153.9,166.8,153.9z"/>
				<path class="st23" d="M166.7,155.6c-2.2,0-4.3,0.3-6.5-0.3c-0.1,0-0.2,0.1-0.1,0.2c2.1,0.7,4.5,0.7,6.6,0.4
					C166.9,155.9,166.8,155.6,166.7,155.6z"/>
				<path class="st23" d="M167.3,157.4c-2.9,0.7-5.6,0.7-8.6,0.3c-0.1,0-0.1,0.1,0,0.2c2.8,0.7,5.9,0.7,8.7-0.1
					C167.6,157.7,167.5,157.3,167.3,157.4z"/>
				<path class="st23" d="M187.5,157.7c-1.5,0.2-3,0.3-4.6,0.2c-1.4-0.1-2.7-0.4-4-0.7c-0.1,0-0.2,0.2-0.1,0.2
					c2.7,1,5.9,1.4,8.7,0.7C187.8,158,187.8,157.6,187.5,157.7z"/>
				<path class="st23" d="M186.7,160.3c-2.3,0.2-4.7,0.2-7-0.3c-0.1,0-0.2,0.2-0.1,0.2c2.2,0.7,4.9,1.1,7.1,0.5
					C187,160.7,186.9,160.3,186.7,160.3z"/>
				<path class="st23" d="M187.9,162.8c-2.9,0.9-5.9,0.9-8.9,0.4c-0.2,0-0.3,0.3,0,0.3c2.8,0.7,6.4,0.9,9.1-0.4
					C188.3,162.9,188.1,162.7,187.9,162.8z"/>
				<path class="st23" d="M204.5,156.7c-2,0-4.1,0.1-6.1-0.3c-0.2,0-0.2,0.2,0,0.2c2,0.5,4.1,0.5,6.1,0.4
					C204.7,157,204.7,156.7,204.5,156.7z"/>
				<path class="st23" d="M203.1,159.1c-1.5,0.2-3.1,0.4-4.6,0.1c-0.2,0-0.2,0.2,0,0.3c1.5,0.4,3.2,0.3,4.7,0
					C203.4,159.4,203.4,159,203.1,159.1z"/>
				<path class="st23" d="M202.5,162.2c-1.8,0.4-3.4,0.7-5.2,0.4c-0.1,0-0.2,0.2-0.1,0.2c1.7,0.7,3.6,0.5,5.2-0.3
					C202.8,162.5,202.7,162.2,202.5,162.2z"/>
				<path class="st23" d="M194.6,165.1c-2,0.1-4,0.4-6,0c-0.1,0-0.2,0.2-0.1,0.2c0.9,0.3,1.9,0.3,2.8,0.3c1.1,0,2.2,0.1,3.3-0.1
					C195,165.5,194.9,165.1,194.6,165.1z"/>
				<path class="st23" d="M194.2,168.7c-2.2-0.1-4.3-0.1-6.5-0.6c-0.2,0-0.3,0.3-0.1,0.3c2.2,0.7,4.3,0.7,6.5,0.7
					C194.4,169,194.4,168.7,194.2,168.7z"/>
				<path class="st23" d="M194,172.2c-2.2,0.2-4.2,0.1-6.3-0.5c-0.2,0-0.2,0.2-0.1,0.3c2.1,0.7,4.3,0.9,6.5,0.6
					C194.3,172.6,194.3,172.2,194,172.2z"/>
			</g>
			<g class="st26">
				<path class="st21" d="M166.5,154.3c0.3,0,0.6,0.5,0.3,0.7c-0.7,0.6-1.7,0.6-2.4,0.6c-1.1,0-2.2-0.2-3.3-0.6
					c-0.1,0-0.1-0.1-0.2-0.1c-0.4-0.2-0.2-0.7,0.3-0.7c1,0.2,2.2,0.3,3.2,0.3C165.1,154.4,165.8,154.2,166.5,154.3z"/>
				<path class="st21" d="M163.5,167.5c0.1,0.2,0,0.3-0.2,0.4c-0.1,0.3-0.5,0.4-0.7,0.1c-0.8-1.3-0.9-3.3-0.9-4.8
					c0-0.7,0-2.5,0.8-2.9c0.1-0.1,0.3,0,0.4,0.1c0.5,0.4,0.3,1.3,0.2,1.8C163,164.2,163.1,165.8,163.5,167.5z"/>
				<path class="st21" d="M161.3,157.6c-0.7-0.1-1.7-0.4-1.8-1c-0.3-0.3,0.1-0.7,0.5-0.6c1.9,0.9,4.2,0.7,6.2,0.5
					c0.5,0,0.6,0.7,0.1,0.7C164.7,157.6,162.9,157.7,161.3,157.6z"/>
				<path class="st21" d="M165.4,159.9c0.2-0.2,0.6-0.1,0.7,0.2c0.3,0.7,0,1.4-0.2,2.2c-0.2,1-0.2,2.1,0,3.1
					c0.2,0.7,0.5,1.4,0.7,2.2c0.1,0.4-0.3,0.6-0.6,0.5c-1.2-0.6-1.6-2.4-1.6-3.7C164.3,163,164.4,160.9,165.4,159.9z"/>
				<path class="st21" d="M140.8,159c0.1,0.8,0.2,1.6,0.3,2.4c0.1,0.4,0.1,0.7-0.1,1.1c-0.1,0.2-0.4,0.4-0.6,0.2
					c-1.1-0.7-1.3-2.7-1.3-4c-0.2-1.2,0-2.2,0.7-2.2C140.8,156.8,140.8,158.4,140.8,159z"/>
				<path class="st21" d="M142.3,167c-1.5,0.4-3.1,0.1-4.7-0.2c-0.1,0-0.2-0.1-0.2-0.1c-0.1,0-0.1-0.1-0.2-0.2
					c-0.2-0.2,0-0.5,0.1-0.7c0,0,0,0,0.1,0c0.1-0.1,0.2-0.2,0.4-0.2c1.1,0.1,2.2-0.1,3.3-0.2c0.9-0.1,1.8-0.5,2.7-0.6
					c0.3,0,0.5,0.1,0.5,0.4C144.4,166.3,143.1,166.8,142.3,167z"/>
				<path class="st21" d="M143.8,168.8c-0.8,2.2-4.7,2-6.2,0.7c-0.2-0.2-0.1-0.5,0.1-0.6c0-0.2,0.2-0.4,0.5-0.3
					c1,0.4,2.2,0.3,3.3,0.2c0.6-0.1,1.7-0.7,2.2-0.4C143.8,168.4,143.9,168.6,143.8,168.8z"/>
				<path class="st21" d="M136.3,159.5c0-0.7-0.2-1.9,0.4-2.4c0.1-0.1,0.3-0.2,0.5-0.1c0.7,0.5,0.5,1.7,0.6,2.3
					c0.1,1,0.7,2.2,0.6,3.3c0,0.2-0.2,0.3-0.3,0.3c-0.1,0.1-0.3,0.1-0.4-0.1C136.7,161.8,136.4,160.7,136.3,159.5z"/>
				<path class="st21" d="M134.5,152.1c1,0.4,2.2,0.3,3.3,0.3c0.7,0,1.4-0.3,2.2-0.1c0.3,0.1,0.4,0.5,0.2,0.7
					c-0.8,0.8-2.6,0.9-3.7,0.8c-0.7-0.1-1.8-0.3-2.2-0.8c0-0.1-0.1-0.1-0.1-0.2C133.9,152.4,134.1,151.9,134.5,152.1z"/>
				<path class="st21" d="M135.1,170.1c-1.8,0.5-2.1-5.1-2-5.9c0-0.2,0.2-0.4,0.4-0.4c0.1-0.2,0.4-0.3,0.6-0.1
					c0.3,0.3,0.4,0.7,0.5,1c0.1,0.9,0.3,2,0.6,2.8C135.3,168.1,136.1,169.9,135.1,170.1z"/>
				<path class="st21" d="M134.3,161c-0.3,0.5-0.7,0.7-1.2,0.8c-1.5,0.7-3.7,0.2-4.8-0.8c-0.3-0.3-0.1-0.6,0.2-0.7
					c0.1-0.1,0.2-0.1,0.4-0.1c1.7,0.5,3.4,0.4,5.2,0.1C134.2,160.4,134.4,160.8,134.3,161z"/>
				<path class="st21" d="M133.6,158.5c-1.3,1-3.8,1.3-5.2,0.6c-0.4-0.2-0.8-0.7-0.4-1l0,0c0-0.2,0.2-0.5,0.5-0.4
					c1.6,0.3,3.3,0.1,5,0.2C133.8,157.8,133.9,158.3,133.6,158.5z"/>
				<path class="st21" d="M126.9,164.9c0.2,0,0.4,0.2,0.4,0.4c0.1,1.5-2.5,1.4-3.4,1.3c-0.7,0-2.9,0-3.3-0.8
					c-0.3-0.2-0.1-0.8,0.4-0.7C123,165.5,124.9,164.9,126.9,164.9z"/>
				<path class="st21" d="M121.3,155.7C121.3,155.7,121.3,155.6,121.3,155.7c0.1-0.2,0.2-0.3,0.3-0.4c0.1-0.2,0.3-0.3,0.5-0.4
					s0.3-0.1,0.5,0.1c0.2,0.4,0.1,1,0.2,1.4c0.1,0.8,0.2,1.6,0.4,2.4c0.1,0.4,0.6,1.6,0.2,2c-0.4,0.3-0.7,0.2-1-0.2
					C121,159.4,120.7,157.3,121.3,155.7z"/>
				<path class="st21" d="M119.5,160.6c-0.4-0.4-0.5-1.4-0.6-1.9c-0.2-1-0.2-2,0-2.9v-0.1c0.1-0.4,0.2-0.7,0.5-0.8
					c0.8-0.5,0.8,3.3,0.8,3.6C120.2,158.8,120.5,161.6,119.5,160.6z"/>
				<path class="st21" d="M126.3,177.9c0,0.3-0.4,0.6-0.7,0.3c-1-1.1-1.3-2.8-1.5-4.3c0-0.2-0.1-0.4-0.1-0.7v-0.1v0
					c0-0.6,0.1-1,0.7-1c0.8,0,0.8,1.4,0.8,2C125.8,175.2,126.4,176.6,126.3,177.9z"/>
				<path class="st21" d="M126.3,169.2c-1.4,0.9-5.7,0.8-6.5-1.1c-0.1-0.2,0-0.3,0.2-0.4c0-0.3,0.2-0.6,0.5-0.5
					c1.8,0.7,3.7,0.3,5.5,0.6C126.8,167.9,127.2,168.7,126.3,169.2z"/>
				<path class="st21" d="M128,177.7c-1-1.2-1.4-3.2-1.4-4.8c0-0.4,0-0.7,0.1-1c0.1-0.5,0.6-1,1-0.7c0.6,0.4,0.4,1.2,0.4,1.8
					c0,0.9-0.1,2.1,0.2,3c0.2,0.5,0.3,1,0.3,1.5C128.7,177.8,128.2,177.9,128,177.7z"/>
				<path class="st21" d="M130.9,164.1c0-0.3,0.3-0.3,0.5-0.3c0.1,0,0.3,0,0.4,0.1c0.4,0.5,0.3,1.1,0.4,1.7c0.1,1.1,0.5,2.2,0.6,3.4
					c0.1,0.4-0.6,0.6-0.7,0.2C131,167.6,130.6,165.9,130.9,164.1z"/>
				<path class="st21" d="M131.7,173.1c1.4,0.7,3.1,0.2,4.6,0.4c0.3,0,0.6,0.3,0.4,0.6c-0.6,0.8-1.7,0.7-2.5,0.7
					c-0.9,0-2.2,0-2.9-0.8v-0.1C130.9,173.3,131.3,172.9,131.7,173.1z"/>
				<path class="st21" d="M131.2,175.7c-0.1-0.3,0.2-0.6,0.5-0.5c0.1,0,0.2,0.1,0.2,0.1c0.1,0,0.2-0.1,0.3,0
					c1.4,0.3,2.9,0.3,4.4,0.4c0.4,0,0.6,0.4,0.3,0.7c-0.8,0.8-2.4,0.7-3.4,0.6C132.5,176.8,131.6,176.6,131.2,175.7z"/>
				<path class="st21" d="M184.6,172.1c0,0.4,0.1,1-0.5,1s-0.9-0.9-1.2-1.3c-0.6-1-0.5-2.5-0.4-3.7c0.1-0.7,0.3-1.4,0.5-2.1
					c0.2-0.6,0.6-1.6,1.3-1.5c0.2,0,0.4,0.2,0.5,0.4c0.1,0.3,0.2,0.7,0.2,1c0,0.2-0.1,0.4-0.1,0.7c-0.1,0.7-0.2,1.2-0.3,1.9
					c-0.1,0.7-0.1,1.5-0.1,2.2C184.6,171.3,184.6,171.7,184.6,172.1z"/>
				<path class="st21" d="M183.2,163.1c-1.2,0-4,0-4.3-1.7c0-0.2,0-0.3,0.2-0.4c0-0.2,0.2-0.4,0.5-0.3c1.4,0.5,2.7,0.7,4.2,0.7
					c0.8,0,1.7-0.4,2.5-0.2c0.2,0,0.3,0.2,0.3,0.4C186.5,163.2,184.3,163.1,183.2,163.1z"/>
				<path class="st21" d="M181.3,171.7c0,0.4,0.1,0.7,0.1,1.1c0,0.3-0.5,0.6-0.7,0.3c-0.9-1.1-0.9-2.8-0.7-4.2c0.2-1,0.2-2.9,1-3.6
					c0.3-0.2,0.7-0.1,0.7,0.3c0.1,0.7-0.3,1.4-0.3,2.2c0,0.1,0,0.2,0,0.4c0,0.6-0.1,1.1-0.1,1.6C181.2,170.3,181.2,171,181.3,171.7z
					"/>
				<path class="st21" d="M183.5,160.1c-1.3-0.1-3-0.2-3.8-1.3c0-0.1-0.1-0.1-0.1-0.2c-0.2-0.3,0-0.7,0.4-0.7
					c1.2,0.5,2.6,0.7,3.9,0.7c1,0,2.1-0.3,3.1-0.4c0.3,0,0.5,0.4,0.4,0.6C186.6,160.2,184.7,160.2,183.5,160.1z"/>
				<path class="st21" d="M188.5,180.8c-1-0.7-1.2-2.4-1.1-3.7c0.1-0.9,0.1-2.5,1-3c0.2-0.1,0.6,0,0.6,0.2s0,0.5,0,0.7
					c0.1,0.1,0.1,0.2,0.1,0.4c-0.2,0.9-0.4,2.1-0.2,3c0.1,0.7,0.3,1.3,0.3,2C189.1,180.8,188.7,181,188.5,180.8z"/>
				<path class="st21" d="M191.9,178.9c0,0.4,0.2,1,0.1,1.4c-0.1,0.4-0.4,0.7-0.8,0.6c-1.2-0.7-1.4-3.3-1.3-4.4
					c0.1-0.9,0.3-1.9,1-2.5c0.3-0.2,0.7-0.3,0.9,0.1c0.2,0.5,0.3,1,0.3,1.7c0,0.1,0.1,0.1,0,0.2C192,176.8,191.9,177.8,191.9,178.9z
					"/>
				<path class="st21" d="M192.5,171.6c-1,0.2-2.6-0.1-3.8-0.6c-1.2-0.3-2.1-0.8-1.4-1.7c0.1-0.1,0.3-0.1,0.4-0.1
					c0.2,0.1,0.4,0.1,0.5,0.2c1,0.3,2.1,0.3,3.1,0.3s2.2-0.3,3.1-0.1c0.1,0,0.3,0.2,0.3,0.3C194.8,170.9,193.2,171.4,192.5,171.6z"
					/>
				<path class="st21" d="M192.6,168.1c-1.6-0.1-3.3-0.3-4.6-1.3c-0.1-0.1-0.1-0.2-0.1-0.4c-0.1-0.3,0.1-0.7,0.5-0.6
					c1.2,0.4,2.5,0.3,3.8,0.3c1,0.1,2.1-0.1,3,0c0.2,0,0.3,0.2,0.3,0.4C195.4,167.8,193.4,168.2,192.6,168.1z"/>
				<path class="st21" d="M191.7,162.1c0.1,0.5,0.2,1.3-0.5,1.5c-1.4,0.4-1.7-3.2-1.7-3.8c0-0.6,0.4-4.4,1.9-3.6
					c0.3,0.2,0.4,0.5,0.4,0.7c0.1,0.1,0.2,0.2,0.2,0.4C191.5,158.9,191.4,160.4,191.7,162.1z"/>
				<path class="st21" d="M194.7,162.3c0,0.5,0.2,0.9-0.1,1.3c-0.1,0.1-0.3,0.1-0.5,0.1c-0.9-0.5-1-1.8-1.1-2.7
					c-0.1-1.3-0.2-3.1,0.5-4.2c0.2-0.3,0.4-0.4,0.7-0.3c0.1-0.1,0.3-0.1,0.5,0c0.7,0.3,0.5,1.8,0.2,2.8
					C194.6,160.1,194.6,161.2,194.7,162.3z"/>
				<path class="st21" d="M199.1,165.6c-0.5,1.8-0.2,3.7-0.4,5.5c0,0.7,0,1.9-0.7,2.1c-0.1,0-0.3,0-0.4-0.1
					c-0.7-0.8-0.7-2.4-0.6-3.5c0.1-1.4,0.6-2.7,1-4c0.1-0.2,0.2-0.3,0.3-0.3C198.6,164.9,199.2,165.1,199.1,165.6z"/>
				<path class="st21" d="M204.7,160.1c-1.1,2.2-6.1,2.9-7.3,0.5l-0.1-0.1l0,0v-0.1l0,0c0-0.4,0.2-0.6,0.5-0.7h0.1
					c0.2,0,0.3,0,0.5,0.1c2,0.6,4,0.4,6-0.2C204.6,159.4,204.9,159.9,204.7,160.1z"/>
				<path class="st21" d="M198,157.4c0-0.2,0.2-0.4,0.5-0.4c1.9,0.4,3.7,0.4,5.7,0.3c0.4,0,0.6,0.5,0.3,0.7c-1.5,1.4-5,1.3-6.5,0
					C197.9,157.8,197.9,157.5,198,157.4z"/>
				<path class="st21" d="M158.7,174.1c0.1,0.5-0.2,1.1-0.7,0.9c-2.2-0.6-2.5-3.9-2.3-5.7c0.1-0.7,0.2-1.6,0.9-1.9
					c0.5-0.2,1.1-0.2,1.3,0.5s0.1,1.2-0.1,1.9C157.6,171.3,158.2,172.6,158.7,174.1z"/>
				<path class="st21" d="M153.9,166.6c-1-0.1-2.3-0.1-3.1-0.7c-0.1-0.1-0.1-0.2-0.1-0.3c-0.1-0.3,0.1-0.7,0.5-0.6
					c2.5,0.9,5.1,0.4,7.8,0.4c0.5,0,0.6,0.7,0.1,0.7C157.4,166.6,155.6,166.7,153.9,166.6z"/>
				<path class="st21" d="M154.5,169.3c-0.2,1.7,0.2,3,0.4,4.7c0.1,0.4-0.4,0.7-0.7,0.4c-0.7-0.8-0.8-2-0.9-3.1
					c-0.1-0.8-0.3-2.2,0.2-3c0.3-0.5,0.7-0.5,1,0C154.7,168.6,154.6,168.9,154.5,169.3C154.5,169.2,154.5,169.2,154.5,169.3z"/>
				<path class="st21" d="M151.2,162.9L151.2,162.9c0.1,0,0.2-0.1,0.3,0c2.4,0.2,4.8,0.3,7.2,0c0.2,0,0.4,0.2,0.4,0.4
					c0,1.2-2.1,1.1-2.9,1.2c-1.8,0.1-3.7,0.5-5.2-0.8C150.6,163.3,150.8,162.9,151.2,162.9z"/>
			</g>
			<g class="st26">
				<path class="st21" d="M113.4,149.9c1.4,5.5,5,19.5,7.1,24.7c2.7,6.7,1.4,9.6,10.4,10.4c7.7,0.7,23.6,0.4,30.4,0.3
					c6.7,0.2,22.6,0.6,30.4-0.3c9-0.9,7.7-3.8,10.4-10.4c2.2-5.2,6-21.3,7.4-26.9L113.4,149.9z M199,174.3c-0.5,0.6-1,1-1.6,1.5
					c-3.2,2.3-7.4,3.1-11.3,3.4c-2.2,0.2-4.5,0.2-6.7,0.2c-7.9,0.1-15.7,0.7-23.6,0.8c-3.7,0.1-7.4,0-11.2,0
					c-5.8-0.1-12.2,0.5-17.5-2.1c-3.4-1.6-5.6-4.6-7-7.9c-2.1-4.7-6.4-16.7,3.4-16.1c2.8,0.2,5.5,0.2,8.2,0.2
					c8.5,0.1,17.1,0.3,25.6,0.1c2.4-0.1,5-0.1,7.4-0.3c8.7-0.5,21.5-1.2,30.2-1.5c2.6-0.1,5.9-0.6,8.3,0.5
					C208.2,155.4,200.8,172,199,174.3z"/>
			</g>
			<path class="st27" d="M145.3,156.2c-3.7,0-7.6,0-11.3,0c-2.7,0-6.3-0.6-8.9,0.4c-3.4,1.2-1.3,5.2-0.4,7.1s2.5,3.4,4.6,4.5
				c5.3,3.1,12.6,3.8,19,4.1c5.3,0.3,10.6,0.1,15.9-0.1c7-0.4,14.2-0.2,21.1-1.7c6.7-1.4,12.4-5.8,15-10.8c0.7-1.3,2.2-3.8,0.2-4.9
				c-2.2-1-28.2,1-38.2,1.1C156.6,156.1,151,156.2,145.3,156.2z"/>
			<g class="st25">
				<path class="st21" d="M199.6,179c-6.1,4.4-26.5,3.7-30.2,3.7c-7.3,0.2-14.5,0.2-21.8,0.2c-3.7,0-17.3-0.7-20.4-1.4
					c-2-0.4-3.8-1.1-5.2-2.5c1.2,3.7,2.2,5.4,8.9,6.1c7.7,0.7,23.6,0.4,30.4,0.3c6.7,0.2,22.6,0.6,30.4-0.3c7.3-0.7,7.9-2.8,9.3-7.1
					C200.4,178.3,200,178.7,199.6,179z"/>
				<path class="st21" d="M121.2,150.9c5.1-0.5,10.2-0.1,15.4-0.2c7.3,0,14.6-0.4,22-0.4s14.7,0.1,22.1,0c7.2-0.2,14.5-0.8,21.7-0.5
					c1.5,0.1,4.4,0,5.4,1.5c0.3,0.4,0.4,0.8,0.4,1.4c0.5-2,0.9-3.7,1.2-5l-96.1,2.2c0.2,0.8,0.5,1.8,0.7,2.9c0.5-0.4,1-0.7,1.7-0.8
					C117.3,151.1,120.1,151,121.2,150.9z"/>
			</g>
		</g>
	</g>
</g>
</svg>
