<?xml version="1.0" encoding="utf-8"?>
<!-- Generator: Adobe Illustrator 21.0.0, SVG Export Plug-In . SVG Version: 6.00 Build 0)  -->
<svg version="1.1" id="Layer_1" xmlns="http://www.w3.org/2000/svg" xmlns:xlink="http://www.w3.org/1999/xlink" x="0px" y="0px"
	 viewBox="0 0 258 208" style="enable-background:new 0 0 258 208;" xml:space="preserve">
<style type="text/css">
	.st0{fill:#CECECE;}
	.st1{fill:#FFFFFF;}
	.st2{fill:#FF6110;}
	.st3{fill:#E0E0E0;}
	.st4{fill:#EA4214;}
	.st5{fill:#366381;}
	.st6{fill:#2C5167;}
	.st7{fill:#FCFCFC;}
	.st8{fill:#003454;}
	.st9{fill:#00E5E8;}
	.st10{clip-path:url(#SVGID_3_);}
	.st11{fill:#00F1F1;}
	.st12{clip-path:url(#SVGID_5_);}
	.st13{fill:none;}
	.st14{fill:#DA5926;}
	.st15{fill:none;stroke:#356732;stroke-width:4;stroke-miterlimit:10;}
	.st16{fill:none;stroke:#DA5826;stroke-width:9;stroke-miterlimit:10;}
	.st17{fill:#DA5826;}
	.st18{fill:#356732;}
	.st19{fill:#DA5826;stroke:#FFFFFF;stroke-width:3;stroke-miterlimit:10;}
</style>
<g>
	<g>
		<g>
			<g>
				<rect x="10.6" y="59.2" class="st0" width="117.9" height="102.6"/>
			</g>
			<g>
				<g>
					<g>
						<polygon class="st1" points="10.6,64.8 5.2,96.8 16.9,96.8 21.8,64.8 						"/>
					</g>
					<g>
						<polygon class="st2" points="21.8,64.8 16.9,96.8 28.6,96.8 32.9,64.8 						"/>
					</g>
					<g>
						<polygon class="st1" points="32.9,64.8 28.6,96.8 40.3,96.8 44,64.8 						"/>
					</g>
					<g>
						<polygon class="st2" points="44,64.8 40.3,96.8 52,96.8 55.1,64.8 						"/>
					</g>
					<g>
						<polygon class="st1" points="55.1,64.8 52,96.8 63.7,96.8 65.3,64.8 						"/>
					</g>
					<g>
						<polygon class="st1" points="128.5,64.8 117.4,64.8 122.3,96.8 134,96.8 						"/>
					</g>
					<g>
						<polygon class="st2" points="106.3,64.8 110.6,96.8 122.3,96.8 117.4,64.8 						"/>
					</g>
					<g>
						<polygon class="st1" points="95.2,64.8 98.9,96.8 110.6,96.8 106.3,64.8 						"/>
					</g>
					<g>
						<polygon class="st2" points="84,64.8 87.2,96.8 98.9,96.8 95.2,64.8 						"/>
					</g>
					<g>
						<polygon class="st1" points="73.9,64.8 75.4,96.8 87.2,96.8 84,64.8 						"/>
					</g>
					<g>
						<polygon class="st2" points="72.9,64.8 69.6,64.8 66.3,64.8 65.3,64.8 63.7,96.8 69.6,96.8 75.4,96.8 73.9,64.8 						"/>
					</g>
				</g>
				<g>
					<path class="st3" d="M11,102.6c3.2,0,5.9-2.6,5.9-5.9H5.2C5.2,100,7.8,102.6,11,102.6z"/>
				</g>
				<g>
					<path class="st4" d="M22.7,102.6c3.2,0,5.9-2.6,5.9-5.9H16.9C16.9,100,19.5,102.6,22.7,102.6z"/>
				</g>
				<g>
					<path class="st3" d="M34.5,102.6c3.2,0,5.9-2.6,5.9-5.9H28.6C28.6,100,31.2,102.6,34.5,102.6z"/>
				</g>
				<g>
					<path class="st4" d="M46.2,102.6c3.2,0,5.9-2.6,5.9-5.9H40.3C40.3,100,42.9,102.6,46.2,102.6z"/>
				</g>
				<g>
					<path class="st3" d="M57.9,102.6c3.2,0,5.9-2.6,5.9-5.9H52C52,100,54.6,102.6,57.9,102.6z"/>
				</g>
				<g>
					<path class="st4" d="M69.6,102.6c3.2,0,5.9-2.6,5.9-5.9H63.7C63.7,100,66.4,102.6,69.6,102.6z"/>
				</g>
				<g>
					<path class="st3" d="M81.3,102.6c3.2,0,5.9-2.6,5.9-5.9H75.4C75.4,100,78.1,102.6,81.3,102.6z"/>
				</g>
				<g>
					<path class="st4" d="M93,102.6c3.2,0,5.9-2.6,5.9-5.9H87.2C87.2,100,89.8,102.6,93,102.6z"/>
				</g>
				<g>
					<path class="st3" d="M104.7,102.6c3.2,0,5.9-2.6,5.9-5.9H98.9C98.9,100,101.5,102.6,104.7,102.6z"/>
				</g>
				<g>
					<path class="st4" d="M116.4,102.6c3.2,0,5.9-2.6,5.9-5.9h-11.7C110.6,100,113.2,102.6,116.4,102.6z"/>
				</g>
				<g>
					<path class="st3" d="M128.1,102.6c3.2,0,5.9-2.6,5.9-5.9h-11.7C122.3,100,124.9,102.6,128.1,102.6z"/>
				</g>
			</g>
			<g>
				<rect x="10.6" y="54.4" class="st5" width="117.9" height="6.2"/>
			</g>
			<g>
				<rect x="10.6" y="59.1" class="st6" width="117.9" height="3"/>
			</g>
			<g>
				<rect x="25.9" y="40.8" class="st5" width="2.7" height="15.2"/>
			</g>
			<g>
				<rect x="109.2" y="40.8" class="st5" width="2.7" height="15.2"/>
			</g>
			<g>
				<rect x="27.2" y="47.9" class="st6" width="1.4" height="6.5"/>
			</g>
			<g>
				<rect x="110.6" y="47.9" class="st6" width="1.4" height="6.5"/>
			</g>
			<g>
				<rect x="19.8" y="25.4" class="st7" width="98.6" height="23.8"/>
			</g>
			<g>
				<path class="st6" d="M19.8,25.4v23.8h98.6V25.4H19.8z M116.2,47H22V27.6h94.2V47z"/>
			</g>
			<g>
				<g>
					<path class="st8" d="M18.3,107.6v46.1h67.3v-46.1H18.3z M82.5,150.6H21.4v-39.9h61.1V150.6z"/>
				</g>
			</g>
			<g>
				<g>
					<rect id="SVGID_1_" x="93.7" y="107.6" class="st9" width="26.8" height="54.1"/>
				</g>
				<g>
					<g>
						<defs>
							<rect id="SVGID_2_" x="93.7" y="107.6" width="26.8" height="54.1"/>
						</defs>
						<clipPath id="SVGID_3_">
							<use xlink:href="#SVGID_2_"  style="overflow:visible;"/>
						</clipPath>
						<g class="st10">
							
								<rect x="79.2" y="117.1" transform="matrix(0.5323 -0.8465 0.8465 0.5323 -56.7949 140.4594)" class="st11" width="39.1" height="9"/>
						</g>
					</g>
				</g>
				<g>
					<g>
						<defs>
							<rect id="SVGID_4_" x="93.7" y="107.6" width="26.8" height="54.1"/>
						</defs>
						<clipPath id="SVGID_5_">
							<use xlink:href="#SVGID_4_"  style="overflow:visible;"/>
						</clipPath>
						<g class="st12">
							
								<rect x="79" y="125.9" transform="matrix(0.5323 -0.8465 0.8465 0.5323 -59.0412 149.1254)" class="st11" width="52.8" height="4.2"/>
						</g>
					</g>
				</g>
			</g>
			<g>
				<g>
					<path class="st8" d="M93.7,107.6v54.1h26.8v-54.1H93.7z M117.4,158.7H96.8v-22.5h2.7v1.9h6.8v-1.9h11.1V158.7z M117.4,133.2
						h-11.1v-1.9h-6.8v1.9h-2.7v-22.5h20.6V133.2z"/>
				</g>
			</g>
		</g>
		<rect x="22.3" y="29.6" class="st13" width="93.7" height="15.4"/>
	</g>
</g>
<g>
	<path class="st14" d="M31.5,35.5c0.1,0.4-0.9,0.5-0.9-0.1c-0.1-0.7-0.7-1.4-1.2-1.6c-0.5-0.3-1.2-0.4-1.6-0.1
		c-0.4,0.4-0.4,1.3,0.3,1.9c0.5,0.5,1.2,0.8,1.7,1.1c0.9,0.5,1.7,1.2,2,2.2c0.4,1.4-0.5,2.6-2.3,2.7c-1.1,0-2.3-0.3-3.2-1.5
		c-0.3-0.5-0.6-1.2-0.6-1.7c0-0.6,1-0.7,1-0.2s0.2,0.9,0.5,1.5c0.4,0.5,1.3,0.9,2,0.9c0.9,0,1.7-0.4,1.6-1.4c-0.3-1.4-2.5-2.1-3.5-3
		c-1.2-1.1-0.9-2.5-0.3-3.1c0.9-0.9,2.8-0.3,3.5,0.5c0-0.2-0.1-0.5-0.1-0.7c-0.1-0.3,0.8-0.5,1-0.1C31.4,33.6,31.3,34.5,31.5,35.5z"
		/>
	<path class="st14" d="M39.5,32.9c0,1.7,0.3,4.9-0.2,6.4c-0.5,1.1-1.5,2.3-2.8,2.3c-0.8,0-1.6-0.3-2.1-0.8c-0.8-0.7-1.3-1.5-1.3-3.2
		c0-1.6,0-3,0-4.6c0.1-0.5,1.1-0.5,1.1-0.1v4.4c0,1,0.1,1.8,0.7,2.4c0.6,0.5,1.2,0.8,1.7,0.8c0.9,0,1.6-0.8,1.8-1.8
		c0.2-0.6,0.2-1.5,0.2-2.5c0-1.7-0.1-3.1-0.1-3.4C38.4,32.4,39.5,32.6,39.5,32.9z"/>
	<path class="st14" d="M47.7,35.5c-0.1,1.6-0.9,2.6-2.2,3c-1,0.3-2.5,0.3-3,0.3c0,0.8,0.1,1.6,0.2,2.2c0.1,0.8-0.8,0.8-1,0.2
		c-0.1-0.6-0.2-1.4-0.2-2.3c-0.2,0-0.5,0-0.6-0.1c-0.6-0.1-0.7-0.7,0-1c0.1,0,0.4,0,0.5,0c0-0.3-0.1-3-0.1-3.4
		c-0.1,0.1-0.3,0.1-0.5,0.2c-0.6,0.2-0.9-0.6-0.4-0.8c1.4-0.7,3.1-1.1,4.4-1.1C46.5,32.7,47.7,33.6,47.7,35.5z M42.3,34
		c0,0.3,0.1,3.5,0.1,3.8c0.6,0,1.9,0,2.7-0.2c0.8-0.3,1.4-1.2,1.4-2.3s-0.6-1.5-1.5-1.6C44.3,33.6,43.4,33.7,42.3,34z"/>
	<path class="st14" d="M54.9,33.7c-0.7,0-4.2-0.1-4.8,0c0,0.3,0.1,2.2,0.1,3c1.2,0.1,3.4,0,4.6-0.1c0.8-0.1,1.2,0.5,0.3,1
		c-1.7,0.3-3.9,0.2-4.9,0.2c0,0.2,0.1,2.8,0.1,3.1c1.4,0.1,4.5-0.2,5-0.2c1,0.1,0.8,1-0.2,1c-0.8,0-1.2,0-1.6,0.1
		c-0.8,0.1-1.3,0.2-3.7,0.2c-0.1,0-0.4-0.2-0.4-0.4c-0.2-0.7-0.2-1.1-0.2-1.9c0-0.5-0.1-1.5-0.1-1.7c0-1.5-0.1-3.9-0.1-4.1h-0.2
		c-0.8,0-0.7-0.9-0.1-1c0.2,0,0.4-0.1,0.6-0.1c0.6-0.1,4.4-0.1,5.6,0C55.7,32.7,55.7,33.7,54.9,33.7z"/>
	<path class="st14" d="M61.8,33.2c0.9,0.4,1.8,1.3,1.7,2.6c-0.2,1.4-1.7,1.9-3,1.8c0.7,0.6,2.3,2.9,3.5,2.9c0.6,0,0.4,1-0.2,1
		c-2,0.1-3.5-2.9-4.8-3.8c-0.2-0.1-0.4-0.2-0.6-0.2c0,1.1,0.1,2.5,0.1,3.6c0,0.6-1,0.5-1-0.1c-0.1-3.3-0.2-5.6-0.2-7.3
		c-0.2,0-0.3,0.1-0.4,0.1c-0.6,0.1-0.7-0.7-0.2-0.9c0.3-0.1,0.8-0.3,1.5-0.3C59.3,32.6,60.5,32.6,61.8,33.2z M58.4,36.6
		c1.5,0.5,3.7,0.5,3.9-0.7c0.1-0.6-0.2-1.3-1-1.7c-1-0.4-2.2-0.6-2.9-0.5C58.4,34.4,58.4,35.3,58.4,36.6z"/>
	<path class="st14" d="M69.5,37c0.1,0.6,0.5,1.6,0.8,2.5c0.4-0.9,0.7-1.6,0.9-2.4c0.6-2,1-3.2,1.4-4c0.2-0.4,0.9-0.4,1,0.1
		c0.3,1.4,0.2,2.1,0.7,4.2c0.2,0.9,0.9,2.9,1.3,3.6c0.2,0.7-0.8,1.1-1,0.5c-0.4-0.8-1-3-1.3-3.8c-0.1-0.5-0.3-1.7-0.4-2.4
		c-0.6,1.9-0.8,2.7-0.9,3.1c-0.4,1.1-0.8,2.1-1.3,2.9c-0.4,0.7-0.7,0.3-1-0.4c-0.4-1.1-0.9-2.3-1.2-3.5c-0.3-1.2-0.5-1.9-0.6-2.4
		c-0.1,0.7-1,5-1.6,6.3c-0.3,0.7-1.2,0.5-1-0.3c1.1-2.3,1.2-5.4,2.1-7.7c0.2-0.6,0.9-0.8,1.1-0.2C68.7,33.8,69.4,35.7,69.5,37z"/>
	<path class="st14" d="M80.5,33c0.6,1.6,1.2,3.9,1.7,4.7c0.3,0,0.5,0,0.9-0.1c0.9,0,1,0.9-0.1,1c-0.1,0-0.3,0-0.4,0
		c0.3,0.9,0.6,1.4,1,2.2c0.5,1.3-0.7,1-1.1,0.2c-0.5-1.2-0.8-1.7-1.1-2.5c-0.6,0-2.7,0.1-2.9,0.1c-0.5,1-0.8,1.5-1.2,2.7
		c-0.2,0.5-1.3,0.5-0.9-0.5c0.2-0.6,0.6-1.5,0.9-2.2c-1-0.1-1-0.9-0.2-0.9h0.6c0.6-1.3,1.1-3.5,1.7-4.8C79.7,32.3,80.3,32.3,80.5,33
		z M80,34.5c-0.4,1.1-0.8,2.6-1.1,3.3c0.2,0,1.8-0.1,2.1,0C80.6,36.9,80.4,35.8,80,34.5z"/>
	<path class="st14" d="M89.5,33.2c0.9,0.4,1.8,1.3,1.7,2.6c-0.2,1.4-1.7,1.9-3,1.8c0.7,0.6,2.3,2.9,3.5,2.9c0.6,0,0.4,1-0.2,1
		c-2,0.1-3.5-2.9-4.8-3.8c-0.2-0.1-0.4-0.2-0.6-0.2c0,1.1,0.1,2.5,0.1,3.6c0,0.6-1,0.5-1-0.1c-0.1-3.3-0.2-5.6-0.2-7.3
		c-0.2,0-0.3,0.1-0.4,0.1c-0.6,0.1-0.7-0.7-0.2-0.9c0.3-0.1,0.8-0.3,1.5-0.3C87,32.6,88.1,32.6,89.5,33.2z M86.1,36.6
		c1.5,0.5,3.7,0.5,3.9-0.7c0.1-0.6-0.2-1.3-1-1.7c-1-0.4-2.2-0.6-2.9-0.5C86.1,34.4,86.1,35.3,86.1,36.6z"/>
	<path class="st14" d="M94.3,36.9c0.6-0.1,1.3-0.3,1.9-0.7c0.7-0.5,1.2-1.8,1.4-3.1c0.1-0.4,1.2-0.7,1.1,0c-0.3,1.7-0.7,2.9-1.6,3.6
		c-0.2,0.2-0.5,0.4-0.8,0.5c0.8,1.3,1.9,2.1,2.6,3.7c0.2,0.7-0.8,1-0.9,0.5c-0.4-1.2-2.1-2.8-2.7-3.7c-0.3,0.1-0.7,0.2-1.1,0.2
		c0,0.8-0.1,2.6-0.1,3.2c0,0.5-1,0.9-1,0.1c0-1.9,0.3-5.2-0.2-7.8c0-0.5,0.9-1,1-0.3C94.2,34.4,94.3,36.2,94.3,36.9z"/>
	<path class="st14" d="M106.2,33.7c-0.7,0-4.2-0.1-4.8,0c0,0.3,0.1,2.2,0.1,3c1.2,0.1,3.4,0,4.6-0.1c0.8-0.1,1.2,0.5,0.3,1
		c-1.7,0.3-3.9,0.2-4.9,0.2c0,0.2,0.1,2.8,0.1,3.1c1.4,0.1,4.5-0.2,5-0.2c1,0.1,0.8,1-0.2,1c-0.8,0-1.2,0-1.6,0.1
		c-0.8,0.1-1.3,0.2-3.7,0.2c-0.1,0-0.4-0.2-0.4-0.4c-0.2-0.7-0.2-1.1-0.2-1.9c0-0.5-0.1-1.5-0.1-1.7c0-1.5-0.1-3.9-0.1-4.1h-0.2
		c-0.8,0-0.7-0.9-0.1-1c0.2,0,0.4-0.1,0.6-0.1c0.6-0.1,4.4-0.1,5.6,0C106.9,32.7,106.9,33.7,106.2,33.7z"/>
	<path class="st14" d="M114.3,32.6c0.6,0,0.3,1-0.2,1c-0.7,0-2.4,0-2.6,0c0.2,1.7,0.1,6.1,0,7.5c-0.1,0.7-1.1,0.6-1.1,0.1
		c0-1.2,0.5-5.9,0-7.6c-0.5,0-2.2,0-2.7,0s-0.3-1,0.2-1C108.8,32.6,113.5,32.6,114.3,32.6z"/>
</g>
<g>
	<g>
		<g>
			<g>
				<line class="st15" x1="149.6" y1="114.3" x2="207.5" y2="114.3"/>
				<line class="st15" x1="171.5" y1="158.8" x2="171.5" y2="114.3"/>
				<line class="st15" x1="188.7" y1="161.1" x2="188.7" y2="115.1"/>
				<line class="st15" x1="155.5" y1="130.9" x2="201.5" y2="130.9"/>
				<line class="st15" x1="155.5" y1="147.5" x2="201.5" y2="147.5"/>
				
					<ellipse transform="matrix(0.9816 -0.1911 0.1911 0.9816 -16.7407 43.4106)" class="st16" cx="216.7" cy="108.5" rx="4.9" ry="4.9"/>
				<g>
					<path class="st17" d="M212,106.1c0.1,0,0.2,0,0.3,0c0,0.1,0,0.3,0.1,0.4c1.2,2.7,2.4,5.4,3.6,8c0.2,0.4,0.2,0.7-0.3,1
						c-1.7,1-3.1,2.3-4.2,3.9c-1.8,2.7-3,5.6-3.9,8.8c-1.1,4.3-1.6,8.6-1.8,13c-0.1,2.1,0,4.3,0,6.4c0,0.2,0,0.4,0,0.7
						c-0.7,0.1-1.4,0.2-2,0.2c-1.5,0.1-2.9,0.2-4.4,0.3c-0.1,0-0.2,0.1-0.3,0.2c-0.9,0-1.8,0.1-2.6,0.1c0-1-0.1-2-0.1-3
						c0-0.2,0.1-0.4,0.1-0.6c0-1.8-0.1-3.7,0-5.5c0.1-2.1,0.3-4.1,0.6-6.1c0.4-2.6,0.8-5.1,1.4-7.6c0.8-3.5,2.1-6.9,3.8-10.1
						c1.8-3.3,4.1-6.1,7.1-8.3C210.3,107.2,211.2,106.6,212,106.1z"/>
				</g>
				<g>
					<path class="st17" d="M199.8,124.2c0.4,1.1,0.9,2.1,1.3,3.2c1.4,3.5,2.7,6.9,3.4,10.6c0.4,2,1,3.9,1.2,5.8
						c0.3,2,0.3,4.1,0.3,6.2c-0.1,2.5-0.6,4.9-1.7,7.1c-2,4-5.2,6.7-9.4,8c-1.6,0.5-3.2,0.9-4.8,0.9c-1.9,0-3.8,0.2-5.6,0.1
						c-3.6-0.2-7.1-0.9-10.4-2.2c-2.8-1.1-5.3-2.7-7.7-4.5c-0.7-0.6-1.4-1.2-2.1-1.8c0-0.1,0-0.3,0-0.4c0.6-0.7,1.3-1.4,1.9-2.1
						c0.4-0.5,0.9-1,1.3-1.5c1.4,1.1,2.6,2.3,4,3.3c2.4,1.8,5,2.9,7.9,3.4c1.7,0.3,3.4,0.5,5.1,0.3c3.5-0.3,6.8-1.2,9.2-4
						c1.6-1.8,2.5-3.9,2.7-6.4c0.1-1.3,0.2-2.6,0.2-4c0-0.8-0.2-1.5-0.2-2.3c0.1-1.7,0.2-3.3,0.4-5c0.1-1.1,0.2-2.3,0.4-3.4
						c0.3-1.9,0.6-3.9,1-5.8s1-3.8,1.6-5.7C199.7,124.2,199.8,124.2,199.8,124.2z"/>
				</g>
				<path class="st18" d="M216.1,129.5"/>
				<path class="st17" d="M168,154.2L168,154.2l-0.3-1.6c-0.6-1.8-1.1-3.5-1.7-5.2c-1.3-3.8-2.4-7.4-3.3-10.2
					c-0.7-2.3-1.5-4.4-2.2-6.4c-2.9-7.5-6.2-12.8-9.7-16.6c-8.3-9.1-17.6-8.9-24.2-6.8c-7.4,2.4-11.8,12.3-11.7,22.4
					c0.2,17.6,12.3,28.1,28.9,28.1h14.4c0,0,0,0,0,0.1h10.5L168,154.2z M144.1,152.7c-10.2,0-17.8-5.9-19.2-22.3
					c-0.5-5.4-0.8-19.9,6.8-21.2c9.9-1.8,16.3,12,21.8,31.4c0.2,0.7,3.1,11.5,3.1,12h-12.5L144.1,152.7L144.1,152.7z"/>
			</g>
			<path class="st18" d="M133.6,100.8c-1,0.4-1.9,0.9-2.8,1.3c-2.7-2.6-5.4-2.1-7.8,1.4c-3.1-1.9-7.2-0.2-7.1,4.5
				c-3.6-0.1-5.7,2.6-4.9,5.9c-1,0.8-1.9,1.5-2.9,2.3c-2.6-4.5-3-9.2-0.6-13.8c2.9-5.6,7.7-8.6,14-8.5
				C126.8,94,130.8,96.4,133.6,100.8z"/>
		</g>
		<g>
			<g>
				<path class="st17" d="M258,172.1c-0.1,0-0.2,0.1-0.3,0.1c-0.5-1.4-0.9-2.8-1.4-4.2c-0.1-0.4-0.2-0.8-0.4-1.2
					c-1.5-3.7-3.2-7.3-4.4-11.1c-1.3-4.2-3.3-8.1-4.6-12.2c-2.7-8.5-6.6-16.6-10.2-24.8c-1.4-3.3-3.3-6.3-5-9.4
					c-0.8-1.5-1.7-3-2.6-4.5c-0.1-0.1-0.1-0.2-0.2-0.3c-0.1-0.2-0.2-0.3-0.3-0.5s-0.2-0.4-0.4-0.6c-0.2-0.3-0.4-0.6-0.6-0.8
					c-0.5-0.7-1-1.4-1.5-2.1c-0.1-0.1-0.2-0.2-0.2-0.3c-0.7-1.1-1.3-2.2-2.2-3.2c-1.3-1.6-2.8-3.1-4.2-4.6c-0.9-1-1.8-1.9-2.8-2.8
					c-0.7-0.6-1.4-1.2-2.1-1.9c-0.1,0-0.1,0.1-0.2,0.1c0,0.6-0.1,1.2,0,1.8c0,0.6,0,1.3,0.2,1.9c0.3,1.5,0.7,2.9,1.1,4.4
					c0.2,0.6,0.5,1.1,0.7,1.7c0.2,0.5,0.8,1.6,1.5,2.8c0.4,0.8,0.9,1.6,1.4,2.4c1,1.5,2,2.9,2.5,3.4l-2.7-1.6
					c-0.9-0.7-1.7-1.5-2.5-2.3c-1.7-1.6-3.9-4.7-5-7.1c-0.2-0.4-0.3-0.7-0.4-1c-0.2-0.6-0.3-1.2-0.4-1.8c-0.1-0.7-0.1-1.4-0.2-2.1
					c-0.1-1-0.3-2-0.4-3c-0.1-0.8-0.2-1.7-0.3-2.5c-0.1-1.1-0.2-2.3-0.3-3.4c-0.1-1.7,0.2-3.3,1.7-4.8c1-0.9,2-1.9,3.1-2.7
					c1-0.7,2.1-1.3,3.1-2c0.8-0.5,1.6-1.1,2.4-1.4c2.1-0.8,4.2-0.9,6.2-0.1c1.3,0.5,2.6,1,3.9,1.5c2.7,1,5.5,2,8.2,3.1
					c1.8,0.7,3.6,1.5,5.3,2.4c1.2,0.6,2.1,1.6,3.2,2.4c1.9,1.4,2.9,3.4,3.5,5.5c0.3,1.2,0.3,2.5,0.5,3.7c0.1,0.7,0.1,1.3,0.1,2
					s0.1,1.5,0.1,2.2c0,1.3-0.2,2.7-0.3,4.1c-0.6-0.2-0.9-0.4-1-1.1c-0.2-1.4-0.7-2.8-0.8-4.2c-0.1-1.7-0.8-3.2-1.6-4.7
					c-0.6-1.1-1.4-2.1-2.3-3c-0.9-0.9-1.8-1.7-2.9-2.4c-1.4-0.9-2.9-1.6-4.5-2.2c-3.2-1.2-6.4-2.3-9.7-3.5c-0.3-0.1-0.7-0.2-1.1-0.3
					c-0.1,0.9-0.2,1.7-0.3,2.5c-0.2,1.5-0.3,3-0.4,4.4c-0.1,1.3-0.1,2.6,0,3.9c0,0.5,0,1.1,0.2,1.6c0.7,1.5,2,2.6,3.6,3.4
					c3.2,1.6,7,2.1,10.3,3.4l0,0c0.1,0.1,0.3,0.1,0.4,0.2c0.4,0.1,0.7,0.3,1.1,0.4c0.3,0.1,0.6,0.3,1,0.4c1.6,0.7,3,1.4,4.3,2.5
					c2.3,2,4.3,4.2,5,7.1c0.4,1.4,0.8,2.7,1.1,4.1c0.2,0.9,0.1,1.8,0.2,2.7c0.1,0.8,0.1,1.7,0.1,2.6c0,0.8,0.1,1.6,0.1,2.3
					c0,0.9,0.1,1.8,0.1,2.8c0,0.8,0,1.6,0,2.4c0,0.7,0,1.4,0,2.1c0,0.9,0,1.8,0,2.8c0,0.6,0,1.1,0,1.7c0.1,1.8,0.2,3.6,0.2,5.4
					c0,1.3,0,2.7,0,4c0,0.8,0.1,1.6,0.1,2.4c0,0.7,0.1,1.4,0.1,2.1c0,1,0.1,2,0.1,3c0,0.8,0,1.7,0,2.5c0,0.7,0.1,1.5,0.2,2.2
					c0.1,0.9,0.3,1.8,0.4,2.8c0.1,0.8,0.1,1.5,0.2,2.3c0.2,1.4,0.4,2.7,0.6,4.1c0.1,1.1,0.3,2.2,0.4,3.3c0,0.1,0,0.2,0,0.3
					c0.3,1.4,0.7,2.8,1,4.2c0.1,0.6,0.1,1.2,0.2,1.8c0.1,0.4,0.3,0.8,0.4,1.3C257.6,171.1,257.8,171.6,258,172.1z"/>
			</g>
			<circle class="st17" cx="207.9" cy="60.2" r="12.9"/>
			<path class="st1" d="M233.8,101.6c0.5-0.2,1-0.4,1.5-0.6c0.4-0.2,0.6-0.5,0.9-0.8c0.2-0.2,0.5-0.4,0.8-0.6
				c0.1-0.1,0.3-0.1,0.4-0.2c0.4-0.3,0.9-0.6,1.3-0.9c0.2-0.2,0.6-0.2,0.4-0.7c0-0.1,0.1-0.1,0.1-0.2c0.2-0.3,0.3-0.7,0.5-1
				c0.1,0,0.2,0.1,0.3,0.2c-0.1,0.4-0.2,0.8-0.3,1.3c0.7-0.1,1.3-0.3,1.5,0.6c0.5-0.1,0.9-0.3,1.4-0.3c0.6,0,0.5,0.7,0.7,1
				c0.5,0,0.9,0,1.3,0.1c0.5,0.2,0.3,0.7,0.2,1.1c0.5,0.1,1-0.2,1.5,0.2c0.4,0.5,0,1,0.1,1.5c0.1,0,0.3,0,0.4,0c0.7-0.1,0.9,0,1,0.7
				c0,0.3,0,0.6,0,1c1.3,0.5,1.5,0.9,0.9,2.1c0.1,0,0.2,0,0.3,0c0.4-0.1,0.7,0.1,0.9,0.4s0.1,0.6-0.1,0.8c-0.3,0.3-0.6,0.5-0.9,0.8
				c0.3,0.2,0.6,0.3,0.8,0.5c0.6,0.5,0.6,1.2,0,1.6c-0.3,0.2-0.6,0.4-0.9,0.6c0.3,0.5,1,0.8,0.7,1.5c-0.3,0.6-0.8,0.9-1.5,0.8
				c0.1,0.1,0.1,0.2,0.1,0.3c0.6,0.5,0.7,0.9,0.1,1.4s-1.3,0.7-2.2,0.3c0.1,0.7,0.1,1.3-0.6,1.6c-0.6,0.2-1.1,0.4-1.6-0.1
				c-0.4,0.4-0.7,0.9-1.1,1.1c-0.6,0.2-0.7-0.6-1.2-0.9c-0.3,0.5-0.5,1-1.2,0.7c-0.6-0.2-0.6-0.7-0.6-1.3c-0.3,0.3-0.4,0.5-0.6,0.6
				c-0.3,0.1-0.7,0.2-1,0.1s-0.4-0.9-0.3-1.2c0.1-0.2,0.2-0.4,0.3-0.6L238,115c-0.2,0.1-0.4,0.1-0.5,0.2c-0.3,0.2-0.6,0.1-0.7-0.3
				c-0.2-0.4-0.2-0.9-0.4-1.4c-0.4,0.2-0.9,0.5-1.3-0.1c-0.3-0.5-0.4-1-0.1-1.6c-0.5,0.1-1,0.4-1.3-0.1c-0.3-0.6-0.1-1.2,0.2-1.8
				c-0.2,0-0.4,0.1-0.5,0.1c-0.3,0-0.6,0.1-0.7,0c-0.2-0.1-0.3-0.5-0.2-0.7c0.2-0.5,0.4-0.9,0.7-1.3c-0.4,0-0.8-0.2-0.9-0.9
				c0-0.7,0.3-1,1-1.1c-0.4-0.2-0.9-0.2-1-0.8c-0.1-0.5,0.2-0.8,0.6-1.1c-0.1-0.3-0.3-0.6-0.3-0.8c0-0.3,0.2-0.5,0.4-0.8
				c-0.1-0.1-0.3-0.2-0.5-0.3v-0.1c0.2,0,0.4-0.1,0.5-0.1C233.2,102,233.5,101.8,233.8,101.6L233.8,101.6z"/>
			<g>
				<path d="M244.3,108.5c-3.1-0.1-5.5-1.5-7.8-3.4c1.2,0.7,2.4,1.6,3.7,2.1C241.5,107.8,243,108.1,244.3,108.5z"/>
				<path d="M245.7,111c-1.6-0.6-3.2-1.2-4.7-1.8c0-0.1,0.1-0.2,0.1-0.3c1.6,0.6,3.2,1.2,4.7,1.8C245.8,110.8,245.8,110.9,245.7,111
					z"/>
			</g>
			<path class="st13" d="M199.8,57.3c0.1,0,0.1,0,0.2,0"/>
			<path class="st18" d="M199.8,57.6"/>
			<path class="st18" d="M198.4,61.8c-0.4,1.6-0.5,3.2-0.4,4.8c0,0.1,0,0.3-0.1,0.4c-0.3-1.1-0.5-2.1-0.8-3.3
				c-0.4,0.2-0.8,0.4-1.3,0.6c-0.2-0.7-0.5-1.3-0.6-2c-1-4.7,0.1-8.8,3.4-12.2c1.2-1.2,2.6-2.2,4.2-2.9c0.3-0.1,0.5-0.3,0.5-0.7
				c0.1-1.4,0.5-2.7,1.4-3.9c1.8-2.3,4.6-2.3,6.4,0c0.9,1.1,1.3,2.3,1.4,3.7c0,0.5,0.2,0.7,0.7,0.9c4.9,2.3,7.6,6.2,7.8,11.7
				c0.1,1.7-0.2,3.4-0.9,5c-0.4-0.1-0.7-0.2-1.1-0.3c-0.2,1.1-0.4,2.2-0.6,3.2c-0.1,0-0.2,0-0.2,0c0-0.4-0.1-0.8-0.1-1.2
				c-0.1-2-0.2-4-0.8-6c-0.3-0.9-0.8-1.7-1.2-2.5c-0.1-0.1-0.2-0.2-0.3-0.4c0.2,1.3,0.5,2.5,0.7,3.9c-2.2-0.5-4.2-1.1-5.7-2.7
				l-0.1,0.1c0.4,0.8,0.7,1.6,1.1,2.4c-1.5,0.1-2.8-0.1-4.1-0.8s-2.1-1.8-2.6-3.2c-0.2,1.1,0.1,2.2,0.5,3.3c-1.4-0.5-3.2-1.8-3.9-3
				c0.1-0.1,0.1-0.3,0.2-0.5c-0.2,0-0.4,0.1-0.5,0.1s-0.4-0.1-0.4-0.2c-0.1-0.1,0-0.4,0-0.5c0.1-0.1,0.4-0.1,0.5,0
				c0.2,0.1,0.4,0.3,0.7,0.4c-0.2-0.5-0.5-0.8-0.9-0.9c-0.2,0-0.5,0.2-0.6,0.4c-0.2,0.4,0,0.7,0.4,1L198.4,61.8z"/>
			<path class="st18" d="M199.3,56.8c-0.3,0.4-0.1,0.8,0.6,1.2c-0.2,0.4-0.4,0.7-0.7,1.1c0-0.1-0.1-0.3-0.1-0.4
				c-0.2-0.3-0.4-0.7-0.6-1c-0.3,0.1-0.3,0.5-0.1,0.7L199.3,56.8z"/>
			<path class="st1" d="M242.5,96c-0.3,0.6-0.7,1.3-1.2,1.8c-0.8,1-1.7,2-2.8,2.9c-1.7,1.4-3.6,2.3-5.7,3c-0.1,0-0.1,0-0.2,0
				c-1.2,0.3-2.4,0.6-3.7,0.7c-0.1-0.2-0.2-0.3-0.3-0.5s-0.2-0.4-0.4-0.6c-0.2-0.3-0.4-0.6-0.6-0.8c2.5-0.2,4.9-1,7.1-2.4
				c2-1.2,3.8-2.7,5.3-4.5c0.1-0.1,0.2-0.3,0.4-0.4c0.4,0.1,0.7,0.3,1.1,0.4C241.8,95.8,242.2,95.9,242.5,96z"/>
		</g>
	</g>
	<g>
		<circle class="st17" cx="195.1" cy="176.4" r="7.7"/>
		<circle class="st19" cx="195.1" cy="176.4" r="4.2"/>
	</g>
</g>
<g>
	<g>
		<path class="st18" d="M496.3,70.2c5-0.5,8.3,3.3,9.2,10.6c4.1,0,8.2,0,12.3,0c4.8-0.1,9.2,1.3,13.1,4c11.1,7.6,12.1,23.3,3.2,32.1
			c-5,4.9-10.7,7.3-17.6,6.8c-9.5-0.6-18.7-8.6-19.7-17.9c-0.4-4-0.4-8.1-0.4-12.1c-0.1-7.1,0-14.2,0-21.4
			C496.3,71.6,496.3,70.9,496.3,70.2z M505.4,89.8c0,0.3-0.1,0.7-0.1,1.2c0,4.3-0.4,8.7,0.1,12.9c0.6,5,3.5,8.6,8.3,10.5
			c5.3,2,12.2-0.1,15.5-5.5c4.3-7.2,0.6-17.5-7.8-18.9C516.4,89.1,511,89.8,505.4,89.8z"/>
		<path class="st18" d="M350.8,123.7c-8.3,0-16.3,0.6-24.2-0.1c-11.9-1.1-20.7-11.4-19.5-23.6c0.9-9.5,8.8-17.3,17.8-18.9
			c10.1-1.8,18.5,2.9,23.4,11c1.4,2.4,2.3,5.4,2.4,8.2c0.3,7.1,0.1,14.2,0.1,21.3C350.8,122.3,350.8,122.9,350.8,123.7z
			 M341.8,114.7c0-4.6,0.2-9.3-0.1-14c-0.2-3.2-1.8-6-4.2-8.2c-6-5.3-15.5-3.7-19.5,3c-4.4,7.3-0.6,17.7,7.8,19
			C330.8,115.4,336.2,114.7,341.8,114.7z"/>
		<path class="st18" d="M587.2,123.7c-8.2,0-16,0.4-23.9-0.1c-9.7-0.6-17.6-8.2-19.5-17.2c-2.5-12,6.6-23.8,17.9-25.4
			c7.1-1,13.1,0.8,18.4,5.5c5.2,4.6,7.3,10.4,7.1,17.2c-0.1,5.8,0,11.7,0,17.6C587.2,122.1,587.2,122.8,587.2,123.7z M578.2,114.7
			c0-4.3,0-8.7,0-13.1c0-5-3.7-9.8-8.3-11.5c-5.5-2-12.3,0.1-15.5,5.4c-4.5,7.3-0.6,17.7,7.8,19
			C567.3,115.4,572.7,114.7,578.2,114.7z"/>
		<path class="st18" d="M355,70c3.6,0.1,6.6,1.7,7.8,4.8c1.1,2.8,1.1,6.1,1.6,9c1.9-0.7,4.1-1.8,6.4-2.4
			c10.1-2.7,20.6,1.8,25.6,11.1c1.5,2.8,2.4,5.8,2.4,9c0,7.3,0,14.6,0,21.9c-3.4,0.5-7.8-2.6-8.6-5.9c-0.3-1.2-0.4-2.5-0.4-3.7
			c-0.2-4.8,0.3-9.6-0.5-14.3c-1.5-9-11.9-13.2-19.5-8c-3.9,2.7-5.8,6.5-5.7,11.2c0,4.1,0,8.2,0,12.4c0,4.6-4.6,8.8-8.9,8.4
			C355,105.8,355,88,355,70z"/>
		<path class="st18" d="M437.1,124.1c-6.4-0.4-12.6-0.3-18.7-1.3c-7.7-1.3-14.4-8.8-15.6-16.6c-0.2-1.6-0.4-3.1-0.4-4.7
			c0-9.7,0-19.4,0-29.1c0-0.7,0-1.4,0-2.1c4.4-0.6,9,3.8,9,8.5c0,8,0,16,0,23.9c0,6.7,5.8,12.4,12.4,12.5c2.3,0,4.7-0.1,6.9,0.4
			C434.7,116.5,436.6,119.5,437.1,124.1z"/>
		<path class="st18" d="M306.1,124.1c-6.4-0.4-12.6-0.3-18.6-1.3c-7.4-1.2-14.7-8.8-15.6-16.6c-0.3-2.7-0.4-5.5-0.4-8.3
			c-0.1-5.6,0-11.3,0-16.9c4.4-0.6,9.1,3.8,9,8.5c0,3.4,0.3,6.8-0.1,10.2c-0.9,9.7,5.9,16.5,15.4,15.5c1.4-0.1,3,0,4.3,0.5
			C303.8,116.9,305.7,119.6,306.1,124.1z"/>
	</g>
</g>
<g>
	<circle class="st17" cx="462" cy="98.2" r="26.5"/>
	<circle class="st19" cx="462" cy="98.2" r="14.6"/>
</g>
<g>
	<path class="st14" d="M301.2,157.3c0.4,1.5-3.1,1.6-3-0.3c-0.3-2.4-2.3-4.7-4.1-5.5c-1.8-0.9-4.1-1.4-5.4-0.2
		c-1.2,1.4-1.4,4.4,1,6.4c1.8,1.6,3.9,2.7,5.7,3.7c3.1,1.7,6,3.9,7,7.7c1.2,4.8-1.9,8.9-8,9.1c-3.7,0.1-8-0.9-10.9-5
		c-1-1.6-1.9-4.1-2-6c-0.1-2,3.4-2.4,3.5-0.5c0.1,1.7,0.6,3.2,1.8,5c1.4,1.8,4.4,3.2,6.8,3.2c3.1,0,5.8-1.5,5.4-4.7
		c-1.1-4.7-8.6-7-12-10.2c-4.1-3.8-3.2-8.6-1-10.8c3.1-3,9.5-1.2,11.8,1.9c0.1-0.8-0.2-1.8-0.4-2.4c-0.4-1.2,2.8-1.7,3.3-0.5
		C301.1,150.9,300.6,154,301.2,157.3z"/>
	<path class="st14" d="M328.7,148.5c-0.1,5.8,1.1,16.7-0.8,21.9c-1.6,3.9-5,7.8-9.6,7.8c-2.6,0-5.5-1.1-7.3-2.8
		c-2.8-2.5-4.3-5.1-4.3-10.9c0-5.4,0-10.4,0-15.8c0.2-1.6,3.8-1.9,3.7-0.2v15.1c0,3.4,0.3,6.3,2.3,8.2c1.9,1.9,4,2.6,5.7,2.6
		c3,0,5.3-2.8,6.3-6.1c0.6-2.2,0.8-5.2,0.8-8.7c0-6-0.3-10.5-0.4-11.6C324.9,146.7,328.8,147.3,328.7,148.5z"/>
	<path class="st14" d="M338.8,148.6c8.8,0,14.1,1.1,14.1,6.9c0,2.2-1.4,3.8-3,4.7c0.7,0.2,1.3,0.5,1.9,0.7c3.7,1.6,5.6,3.8,5.6,7.5
		c0,5.9-3.9,7.8-8.6,8.9c-3.9,1.1-6.8,0.4-10.8-0.4c-0.3,1-1,2.3-2.4,1.8c-1.1-0.4-1.2-1.1-0.8-2.6l-0.6-0.3
		c-2.9-1.3-2.2-5.2,0.6-3.6c0.3,0.1,0.6,0.3,0.9,0.5c0.4-3.7,0.3-6.6,0.3-10.2c-4.1-1-3.3-3.5-1.6-3.5h1.5c0-1.9-0.1-5-0.2-6.8h-0.2
		c-2.4,0-2.7-3.2-1.6-3.3l1.6-0.1c-0.1-2,1.8-3,3-1.5C338.5,147.6,338.7,148.3,338.8,148.6z M338.7,173.6c3.1,0.8,6.1,1.1,9,0.5
		c3.6-0.8,6.2-2.2,6.2-5.6c0-2.3-1.7-3.7-3.9-4.7c-2.6-1.3-7.3-1.6-10.4-1.5C339.4,166.8,338.6,173.6,338.7,173.6z M339.4,158.9
		c1.5,0,9.9-0.1,9.9-3.2c0-3.9-7.9-3.8-10.2-3.6C339.2,153.6,339.3,156.6,339.4,158.9z"/>
	<path class="st14" d="M382.2,151.3c-2.4,0-14.3-0.3-16.3-0.1c0,1,0.3,7.6,0.3,10.2c4.1,0.3,11.7,0.1,15.6-0.3
		c2.7-0.2,3.9,1.8,1.2,3.3c-5.9,1.1-13.3,0.6-16.7,0.6c0,0.6,0.2,9.6,0.4,10.7c4.9,0.2,15.6-0.7,17.1-0.7c3.3,0.3,2.6,3.5-0.7,3.5
		c-2.7,0-4.2,0.1-5.5,0.2c-2.8,0.2-4.3,0.5-12.7,0.5c-0.2,0-1.5-0.6-1.5-1.3c-0.6-2.3-0.5-3.9-0.5-6.5c0-1.9-0.2-5.3-0.2-5.8
		c-0.1-5.2-0.3-13.4-0.3-14.1l-0.8,0.1c-2.6,0.1-2.4-2.9-0.4-3.5c0.8-0.1,1.5-0.2,2.1-0.2c2-0.3,15-0.2,19.1,0
		C384.8,147.7,384.8,151.1,382.2,151.3z"/>
	<path class="st14" d="M405.6,149.3c3.2,1.3,6.3,4.6,6,9c-0.7,4.8-5.8,6.7-10.3,6.3c2.4,2.2,7.8,10,12.1,10.1c2.2,0,1.4,3.3-0.6,3.3
		c-6.8,0.2-12-9.8-16.5-12.9c-0.7-0.3-1.3-0.5-2.2-0.7c0.1,3.9,0.3,8.5,0.4,12.3c-0.1,2-3.5,1.8-3.5-0.3
		c-0.5-11.1-0.7-19.1-0.6-25.1c-0.6,0.1-1.1,0.3-1.4,0.3c-1.9,0.4-2.3-2.4-0.8-3.1c1.2-0.5,2.6-0.9,5.2-1
		C397.2,147.2,401.2,147.3,405.6,149.3z M394.3,160.9c5.1,1.6,12.7,1.6,13.4-2.5c0.4-2.1-0.8-4.6-3.3-5.7c-3.3-1.5-7.6-2.1-10.1-1.9
		C394.2,153.5,394.2,156.5,394.3,160.9z"/>
	<path class="st14" d="M432.3,162.3c0.3,2.2,1.6,5.6,2.7,8.6c1.2-3,2.3-5.6,3.1-8.4c2-6.9,3.4-10.8,4.8-13.8
		c0.8-1.5,3.2-1.5,3.5,0.2c1,4.9,0.8,7.3,2.5,14.4c0.8,3.1,3.1,9.9,4.4,12.3c0.8,2.4-2.7,3.7-3.4,1.8c-1.4-2.6-3.6-10.2-4.4-13.2
		c-0.5-1.6-1-5.7-1.5-8.4c-2.1,6.4-2.8,9.1-3.2,10.5c-1.4,3.9-2.8,7.3-4.3,10c-1.5,2.5-2.5,0.9-3.4-1.2c-1.5-3.8-3.1-8-4-11.9
		s-1.6-6.6-2.2-8.3c-0.4,2.3-3.5,17.1-5.6,21.7c-1,2.3-4.2,1.6-3.4-1c3.7-8,3.9-18.4,7.1-26.2c0.7-2.1,3.1-2.6,3.7-0.5
		C429.3,151.4,431.7,158,432.3,162.3z"/>
	<path class="st14" d="M469.7,148.7c2.1,5.6,4,13.2,5.7,16.2c0.9,0,1.8-0.1,2.9-0.2c3.1,0,3.3,3.2-0.2,3.5c-0.4,0-0.9,0-1.3,0
		c1.1,3,2,4.7,3.6,7.6c1.6,4.6-2.5,3.5-3.6,0.8c-1.6-4.2-2.9-5.7-3.9-8.5c-2,0-9.2,0.2-10.1,0.2c-1.8,3.4-2.8,5.3-4,9.4
		c-0.6,1.9-4.5,1.7-3.1-1.7c0.6-2.1,2.1-5.3,3.1-7.6c-3.4-0.2-3.3-3.1-0.7-3h2c1.9-4.4,3.8-11.9,5.8-16.4
		C467,146.3,469.1,146.4,469.7,148.7z M468,153.8c-1.3,3.6-2.7,8.7-3.8,11.1c0.7,0,6.1-0.2,7.2-0.1
		C470.2,162.2,469.5,158.4,468,153.8z"/>
	<path class="st14" d="M500.5,149.3c3.2,1.3,6.3,4.6,6,9c-0.7,4.8-5.8,6.7-10.3,6.3c2.4,2.2,7.8,10,12.1,10.1c2.2,0,1.4,3.3-0.6,3.3
		c-6.8,0.2-12-9.8-16.5-12.9c-0.7-0.3-1.3-0.5-2.2-0.7c0.1,3.9,0.3,8.5,0.4,12.3c-0.1,2-3.5,1.8-3.5-0.3
		c-0.5-11.1-0.7-19.1-0.6-25.1c-0.6,0.1-1.1,0.3-1.4,0.3c-1.9,0.4-2.3-2.4-0.8-3.1c1.2-0.5,2.6-0.9,5.2-1
		C492.1,147.2,496,147.3,500.5,149.3z M489.2,160.9c5.1,1.6,12.7,1.6,13.4-2.5c0.4-2.1-0.8-4.6-3.3-5.7c-3.3-1.5-7.6-2.1-10.1-1.9
		C489,153.5,489,156.5,489.2,160.9z"/>
	<path class="st14" d="M517,162c2.2-0.3,4.6-1,6.6-2.4c2.4-1.7,3.9-6.2,4.8-10.6c0.3-1.5,4.1-2.3,3.7,0c-1.1,6-2.4,9.8-5.4,12.3
		c-0.8,0.6-1.6,1.2-2.7,1.8c2.6,4.3,6.3,7,8.9,12.5c0.8,2.3-2.6,3.3-3.1,1.6c-1.3-4-7.1-9.5-9.1-12.7c-1.1,0.4-2.3,0.5-3.8,0.8
		c0,2.7-0.2,8.8-0.2,11c0,1.6-3.6,2.9-3.6,0.3c0-6.3,0.9-17.7-0.6-26.8c0.1-1.8,3.2-3.5,3.5-1.1C516.7,153.7,517.1,159.7,517,162z"
		/>
	<path class="st14" d="M557.7,151.3c-2.4,0-14.3-0.3-16.3-0.1c0,1,0.3,7.6,0.3,10.2c4.1,0.3,11.7,0.1,15.6-0.3
		c2.7-0.2,3.9,1.8,1.2,3.3c-5.9,1.1-13.3,0.6-16.7,0.6c0,0.6,0.2,9.6,0.4,10.7c4.9,0.2,15.6-0.7,17.1-0.7c3.3,0.3,2.6,3.5-0.7,3.5
		c-2.7,0-4.2,0.1-5.5,0.2c-2.8,0.2-4.3,0.5-12.7,0.5c-0.2,0-1.5-0.6-1.5-1.3c-0.6-2.3-0.5-3.9-0.5-6.5c0-1.9-0.2-5.3-0.2-5.8
		c-0.1-5.2-0.3-13.4-0.3-14.1l-0.8,0.1c-2.6,0.1-2.4-2.9-0.4-3.5c0.8-0.1,1.5-0.2,2.1-0.2c2-0.3,15-0.2,19.1,0
		C560.3,147.7,560.3,151.1,557.7,151.3z"/>
	<path class="st14" d="M585.6,147.4c2.1,0,1.1,3.4-0.5,3.5c-2.4-0.1-8.1-0.1-8.9,0c0.7,5.9,0.3,20.9-0.1,25.6
		c-0.2,2.4-3.6,2-3.6,0.3c0-3.9,1.6-20.1,0.1-25.9c-1.8,0-7.4,0-9.3,0c-1.7-0.1-0.9-3.3,0.6-3.5
		C566.8,147.4,582.8,147.4,585.6,147.4z"/>
</g>
</svg>
