<svg id="Layer_1" xmlns="http://www.w3.org/2000/svg" x="554.615" y="355.275" viewBox="0 0 233.1 55.3"><style>.st0,.st1{fill-rule:evenodd;clip-rule:evenodd}.st0{opacity:.2;fill:#231f20}.st1{fill:#f7c71d}</style><g id="XMLID_162_"><path id="XMLID_155_" class="st0" d="M229.5 29.8L215.3 8.5 13.8 3.8S9.4 5.1 6.7 7.6c-2.4 2.3-3 5.9-3 5.9v22s.3 3.5 3 6.1c3.3 3 9.1 5.2 9.1 5.2l198.5 4.6 15.2-21.6z"/><path id="XMLID_128_" class="st1" d="M226.7 24.8l-14-21h-199s-4.4 1.4-7 4c-2.4 2.4-3 6-3 6v22s.3 3.5 3 6c3.2 3 9 5 9 5h196l15-22z"/></g></svg>