<svg id="Layer_1" xmlns="http://www.w3.org/2000/svg" x="50" y="50" viewBox="0 0 383.1 346.9"><style>.st0{fill-rule:evenodd;clip-rule:evenodd;fill:#00c6e0}</style><path id="XMLID_63_" class="st0" d="M337.7 199.7l-.2.5-.4.3c-.5.3-48.1 30.4-88.7 8.4-.1-.1-5.3-2.9-12.3-7.2 26.2 21.3 58.6 53.5 56.6 81.1v43.4l-2.6-1.8c-.2-.2-21.6-14.9-34.4-16.5h-.4l-.3-.2c-.5-.3-47.4-31.5-65-75.1-1.6 39.9-8.9 86.2-33.7 98.6-1.2.6-29.3 15.4-43.2 10.1l-1.3-.5.3-1.4c.1-.2 4.8-24.9-1.6-42.6l-.2-.6.2-.6c.2-.5 16.4-46.2 34.2-82.5-34.8 25.3-40.5 31.9-41.1 33.4l-.1.1-.1.1c-.2.3-4.1 6.9-15.3 9.5-13.4 3.1-38.6.6-82.4-29l-1.3-.9.8-1.4c1.9-3 46.3-74.5 96.9-67.7.2 0 13.9.7 29.7 2.9-63.6-35.1-60-112.6-60-113.4V46l.6-.5C81.9 37.6 86.8 8.3 86.9 8l.6-3.5 2.3 2.7c11.3 12.9 29.3 19.5 29.4 19.6l-.2-.1c46.9 9.9 64.8 48.9 71.6 82.3 5.9-22.3 18.6-38.1 37.8-45.4 10.5-5 37.9-20.6 39.2-32.1l3.3-.3c1.2 3.6 26.6 84.4-5.4 114.1 38.9-8.5 66-6.2 80.2 7.3l-.1-.1c.2.2 21.1 16.1 31.8 11.5l1.5 3c-.4.3-36.4 21.7-41.2 32.7zm-124.4-23.1c-.2-.8-.7-1.6-1.1-2.3-.2-.5-.4-1-.7-1.4-.5-.7-1.1-1.4-1.7-2.1-.4-.4-.6-.9-1-1.3-.5-.5-1.2-.9-1.8-1.4-.6-.5-1.2-1-1.9-1.5-1.8-1.1-3.7-1.8-5.7-2.4-2-.5-4.1-.8-6.2-.8h-.5c-2 0-3.9.3-5.7.8-1 .3-1.9.7-2.9 1.1-.7.3-1.5.5-2.2.9-.9.5-1.6 1.2-2.4 1.8-.6.5-1.3.8-1.8 1.3-.6.6-1 1.3-1.5 1.9-.6.7-1.2 1.4-1.7 2.1-1.4 2.4-2.1 4.9-2.1 7.3 0 3 1 5.9 2.9 8.6 2.5 3.5 6.5 5.9 10.9 7.3.9.3 1.7.8 2.6 1 1.5.3 3 .4 4.4.4 8.7 0 16.5-4.6 19.5-11.5.3-.7.5-1.2.6-1.7.4-1.5.6-2.8.6-4 0-1.4-.2-2.8-.6-4.1z"/></svg>