<svg id="Layer_1" xmlns="http://www.w3.org/2000/svg" viewBox="0 0 1242.2 120.1"><style>.st0{fill:#fff}.st1{opacity:.15}</style><g id="XMLID_13_"><path id="XMLID_11_" class="st0" d="M1062.4 120.2H0V15l8 2 10.2 1.8h6.5l10.1 6 24.4 10.7L71.9 38h12.4l22.1 1.8 25.5-2.1 30.9-1.2 22.1 1.2 20 7.2 19.9 3.6 17.6 1 15.5 3h20.8l20.5 3.1h26.6l5.5 1.9 15.4 1.8 54.1 1.6h15l14.4 2.4 44.5 1.9 26.2 1.5 13-.7 19.5-.5 15.6 2.1 18.8 2 18.1-.9 15.9-.9 14.2 1.1 12.2.6 32.9-1.1 23.5 3.2 22.2 5.2 24.9 7.4 21.6 4.1 16.5 1.1 25.5.6 24.1-.6 26.9-.6s13.2.5 13.6.5 5.1 1.6 5.6 1.9 4.1 3 6 3.9 6.4 1.8 9.4 1.8h7.4c1.5 0 9.8-.9 9.8-.9s2.2.9 4.5 1.6 8.1 2.6 8.8 2.6 14.5-.2 20.2 0 9.9 0 9.9 0 6 1.8 7.2 1.9 4.5 2.1 4.5 2.1 1.8 2.1 4.1 2.6 9.8.1 12.5 0 5.1.8 9.1.9 7.2.5 9 0 6.1-.4 6.1-.4 14.6.4 17.6.6 5 .7 6.5 1 10.1 3.1 13.9 3.9 7.4 2 14.9 3.6 2.8 2 15.4 1.8v2z"/><g id="XMLID_12_" class="st1"><path id="XMLID_101_" d="M1054 120.2c-7 0-29-7-36.5-9.4-7.5-2.4-12.5-.1-17 0s-13-2.6-15-.6c-2 1.9-10.5-1.4-17-.4s-10.5 0-10.5 0-5.5-3.5-14-6.5-10 0-15 0h-12c-6.5 0 0 0-4-.5s-2.5-.5-11.5-3.4-4.5 1.9-11-.1-7 .5-14 0c-3.5-.2-5.2-1.2-6.9-2.5-1.6-1.2-3.1-2.7-6.1-3.9-6-2.3-24-2.2-32-.7s-20 0-34 0h-29c-11 0-32.5-4.5-34.5-4.5s-8.5-2.5-16-5-36-9.5-56-11.1-38 1.6-48-.4-14 1.5-30.5 0-16 0-20 0-13.5-.5-23.5-2.5-33 .5-37 0-5.5 0-16.5-2.3-11.5-.2-15.5-.2-32.5.5-38 0-7.5-.5-20-2.5-9 0-14 0-33.5-2.5-40-2.5-9 .5-21 0-3.5 0-12-3.4-2.5.9-10.5-.1-7 .5-19 0-10-.5-15-2.5-4.5 1-11.5 0-8.5 0-13.5 0-13-3-15-3-21.5-2-26.5-2.5-9.5-3-13.5-3.5-16-6-16-6L170 38.7s-33 .5-36 1-15.5 2.5-24 3-24-3.5-36-3.5-19.5-5-19.5-5L39 28.7s-9-3.5-12-6.5-7.5 0-7.5 0L0 17.2h-11.5s15.5 5.5 19 6 12-1 15.5 2.5 0 0 11.5 4.5 13.5 5.5 22 10S75 42.7 79 42.7s11.5 2 25.5 2.5 15-1 24-2 17.5-1 27-1 27.5 1 30 1.5 13.5 5.5 22 8 18.5 2.5 28 3 17 3 26 3 16 .5 16 .5 14.5 2.5 16.5 2.5 17 1 21.5 1 6.5-1.5 11 1 7 .5 13.5 1.5 14.5.5 36 1 28.5 2 48 3 32.5 2 41 2.5 18 .5 28.5 2 25-1 31.5-2 23.5 2 30 3.5 15.5.5 20 .5 23.3-3.4 28.5-.5c5.2 2.9 12 .5 16 .5s27.5-1 27.5-1 22.5 1 35 3 22.5 6 32 9 22.5 5.5 40.5 8 16 2 24.5 2.5 48.4-3.5 51.5-1.5 22.5-1 28.5 0 10 6 16.5 7 5 .5 10.5.5 7-.5 10-.5 4 .5 7 2 8 2 12 2 13.5 0 27 1 8 2 13 5 10 .5 16 .5 15 1.5 19 1.5 10.5-2.9 19-1 11 2 14 2.5c2.2.4 10.5 2.7 20.6 5 4.9-.1 6.7-.1 10.4 0z"/></g><g id="XMLID_10_"><g id="XMLID_9_"><path id="XMLID_27_" class="st0" d="M0 13.2l19.5 5s4.5-3 7.5 0 12 6.5 12 6.5l15.5 5.5s7.5 5 19.5 5 27.5 4 36 3.5 21-2.5 24-3 36-1 36-1l15.5 1.5s12 5.5 16 6 8.5 3 13.5 3.5 24.5 2.5 26.5 2.5 10 3 15 3 6.5-1 13.5 0 6.5-2 11.5 0 3 2 15 2.5 11-1 19 0 2-3.3 10.5.1 0 2.9 12 3.4 14.5 0 21 0 35 2.5 40 2.5 1.5-2 14 0 14.5 2 20 2.5 34 0 38 0 4.5-2.1 15.5.2c11 2.3 12.5 1.8 16.5 2.3s27-2 37 0 19.5 2.5 23.5 2.5 3.5-1.5 20 0 20.5-2 30.5 0 28-1.2 48 .4 48.5 8.6 56 11.1 14 5 16 5 23.5 4.5 34.5 4.5h29c14 0 26 1.5 34 0s26-1.7 32 .7c3 1.2 4.5 2.6 6.1 3.9 1.6 1.2 3.4 2.2 6.9 2.5 7 .5 7.5-2 14 0s2-2.9 11 .1c9 2.9 7.5 2.9 11.5 3.4s-2.5.5 4 .5h12c5 0 6.5-3 15 0s14 6.5 14 6.5 4 1 10.5 0 15 2.4 17 .4c2-1.9 10.5.7 15 .6 4.5-.1 9.5-2.4 17 0s29.5 9.4 36.5 9.4h28c18 0 44-10 46.5-11.5s12.5-16 12.5-16 3.2 0 6 2.7c3 2.8 3 5.8 3 5.8l-21.5 10s-18.6 11.3-23.5 9-35 6-50 3.5-29-8-32-8.5-5.5-.6-14-2.5-15 1-19 1-13-1.5-19-1.5-11 2.5-16-.5.5-4-13-5-23-1-27-1-9-.5-12-2-4-2-7-2-4.5.5-10 .5-4 .5-10.5-.5-10.5-6-16.5-7-25.4 2-28.5 0-43 2-51.5 1.5-6.5 0-24.5-2.5-31-5-40.5-8-19.5-7-32-9-35-3-35-3-23.5 1-27.5 1-10.8 2.4-16-.5c-5.2-2.9-24 .5-28.5.5s-13.5 1-20-.5-23.5-4.5-30-3.5-21 3.5-31.5 2-20-1.5-28.5-2-21.5-1.5-41-2.5-26.5-2.5-48-3-29.5 0-36-1-9 1-13.5-1.5-6.5-1-11-1-19.5-1-21.5-1-16.5-2.5-16.5-2.5-7-.5-16-.5-16.5-2.5-26-3-19.5-.5-28-3-19.5-7.5-22-8-20.5-1.5-30-1.5-18 0-27 1-10 2.5-24 2S83 38.7 79 38.7s-14 2-22.5-2.5-10.5-5.5-22-10-8-1-11.5-4.5-12-2-15.5-2.5C6.2 19 0 17 0 17v-3.8z"/></g><path id="XMLID_7_" class="st0" d="M1193.8 30.2c2.9-3.2 10.4-11.2 12.5-13.1 3.2-3 12.3-10.6 12.3-10.6.7-.3 5.2-4 9.7-2.8 2.6.6 4 2.5 5.2 5.2 1.4 3 0 7.8 0 7.8s-1 6.9-10.5 17.2c-2.4 2.7-9.2 10.2-13 14.1 0 0-1.4-5.4-5.5-11-3.2-4.3-10.7-6.8-10.7-6.8zm31-23.4c-1.9-.2-4.2.2-4.5 1.8s-.4 2.5 1 2.6 2.1 1.1 2.7 0 .8-4.4.8-4.4zm-8.6 5.6l-16.8 16.5 1.9 1.2 17.4-17-2.5-.7z"/><path id="XMLID_5_" class="st0" d="M1203.1 38.9c4.5 4.9 4.8 10.8 4.8 10.8-.2 1.9-1.8 4.6-4.2 5-.8.1-1.4.1-1.8.1-.3 0-.6.1-.8.2 0 0-15.3 14.5-20.5 18.8-6.8 5.7-27.6 21.3-27.6 21.3-.7.5-1.6.3-2-.5-.3-1.1-1.1-3.6-2.8-5.2-1.8-1.1-2.9-1.7-4.5-2.3-.8-.3-1.1-1.4-.4-2.1 0 0 18.7-21.9 25.4-28.7 4.4-4.5 18.6-16.9 18.6-16.9.3-.3.4-.6.4-1-.1-1.3-.2-4.5 1.3-6.4 0-.1 4.5-3.7 14.1 6.9zm-19.9 8.4s-29.5 26.1-33.2 33.1 33.5-30.1 34.1-31-.9-2.1-.9-2.1z"/><path id="XMLID_31_" class="st0" d="M1233.5 19.8s-.1 2.8-1.6 4.8c-3.2 4.6-3.8 5.4-3.8 5.4s1.1.9 1.5 1c.7.1 2.8-.8 2.8-.8s1 .4 1.1.8c.6 1.4-5.2 9.1-7.1 10.9-6.8 7.6-6.8 8.1-9.6 10.2-2 1.5-8.9-3.5-7.5 6.4 2.4 3.8 6.5-2.4 8.5-3.6 4-2.4 10.9-9 13.6-12.8 8.5-9.8 7.4-16 7.4-16s0-2.4-1.2-3.8c-1.8-2.5-4.1-2.5-4.1-2.5z"/></g></g></svg>