<svg xmlns="http://www.w3.org/2000/svg" x="50" y="50" viewBox="0 0 127.7 130.8"><style>.st0{fill-rule:evenodd;clip-rule:evenodd;fill:#ffff09}</style><path id="XMLID_47_" class="st0" d="M75.9 69.6c2.4 1.3 34.3 14.5 36.1 15.8 3.1 1.1 5.5 4.2 5.5 7.7 0 1.8-1.8 6.1-6.6 6.1-3.1 0-5-1.1-6.8-1.8-1.8-1.1-31.4-21.1-31.4-21.1v.6c1.8 1.8 21.1 25.5 22.9 27.9 1.3 2.4 3.1 5.3 3.1 8.4 0 4.8-5 6.6-7.3 6.6-3.5 0-6.6-2.4-8.4-7.2-1-2.6-14.4-29.8-15.5-32.1h-.7c0 2.4 5 33.2 5 36.9 0 3.7-.7 10.8-7.9 10.8s-8.4-7.2-8.4-10.8c0-3.1 4.8-30.8 5.5-36.9l-.7-.6c-1.8 4.2-12.7 27.2-15.6 32.7-2.4 4.8-5.5 7.2-8.4 7.2-3.1 0-7.3-1.8-7.3-6.6 0-3.1 1.8-6.6 3.1-8.4 2.4-3.7 20.6-23.5 22.9-27.9l-.7-.6s-29.5 20-31.4 21.1c-1.1 1.3-3.5 1.8-5.9 1.8-5.5 0-7.3-3.7-7.3-5.3 0-4.2 2.9-7.3 5.5-8.4C17 84.2 49 71 51.3 70.3v-1.1c-1.8 0-33.2 4.2-36.1 4.2-4.2 0-11.6-.7-11.6-7.9 0-7.9 7.3-7.9 11.6-7.9 3.5 0 32.5 4.2 36.1 4.2l.6-.6c-3.1-1.3-33.4-14-36.9-15.8-2.6-1.1-5.5-4.2-5.5-7.7 0-5 2.9-7.9 6.6-7.9 1.3 0 2.4 0 3.7.6C27 34 52.5 54 54.1 54.6l.7-.6C53 52.2 34.3 29.8 31.9 26.1c-.7-1.1-3.7-4.8-3.7-7.7 0-5 4.2-7.3 8.4-7.3 2.9 0 5.5 2.4 7.9 7.3 2.4 4.2 15 31.9 15 31.9h1.3S55.3 17.6 55.3 14c0-4.2 1.3-11.4 8.4-11.4 7.2 0 7.9 7.2 7.9 11.4 0 2.6-4.2 33.2-5 36.3h1.3c2.4-5.5 13.9-29.6 15-31.9 2.4-4.4 5.5-7.9 9.2-7.9 2.4 0 6.6 2.9 6.6 7.9 0 2.9-1.8 5.9-3.1 7.7-.9 1.9-21.5 26.1-22.8 28.5l.7.6c1.1-1.1 27.2-21.1 33.8-24 1.1-.7 2.9-.7 3.7-.7 4.2 0 7.2 3.1 7.2 7.3s-2.4 6.6-5.5 7.7c-2.4 1.3-34.3 14.5-36.1 15.8l.6.6c2.6-.6 32.7-4.2 35.6-4.2 3.7-.6 11.6 0 11.6 7.9 0 7.2-7.9 7.9-11.6 7.9-4.2 0-30.6-3.1-36.1-4.2l-.8.3zM67.5 66c0-1.1-1.3-3.5-3.7-3.5-2.4 0-3.7 2.4-3.7 3.5 0 1.8 1.3 3.7 3.7 3.7 2.4-.1 3.7-1.9 3.7-3.7z"/></svg>